<svg xmlns="http://www.w3.org/2000/svg" width="25" height="25" viewBox="0 0 25 25">
  <g id="_brightness_low" data-name=" brightness_low" transform="translate(-576 -1792)">
    <rect id="Path" width="25" height="25" transform="translate(576 1792)" fill="rgba(0,0,0,0)"/>
    <path id="Icon" d="M12.506,25a2.366,2.366,0,0,1-1.686-.7L8.553,22.037H5.347a2.387,2.387,0,0,1-2.385-2.384v-3.2L.7,14.193a2.39,2.39,0,0,1,0-3.374L2.962,8.553V5.346A2.387,2.387,0,0,1,5.347,2.962H8.553L10.807.7a2.39,2.39,0,0,1,3.374,0l2.265,2.265h3.207a2.387,2.387,0,0,1,2.384,2.384V8.553L24.3,10.807a2.389,2.389,0,0,1,0,3.374l-2.265,2.265v3.207a2.387,2.387,0,0,1-2.384,2.384h-3.2L14.193,24.3A2.369,2.369,0,0,1,12.506,25ZM12.5,5.347A7.153,7.153,0,1,0,19.653,12.5,7.161,7.161,0,0,0,12.5,5.347Z" transform="translate(576 1792)" fill="#fff"/>
  </g>
</svg>
