<?xml version="1.0" encoding="utf-8"?>
<!-- Generator: Adobe Illustrator 23.0.6, SVG Export Plug-In . SVG Version: 6.00 Build 0)  -->
<svg version="1.1" id="レイヤー_1" xmlns="http://www.w3.org/2000/svg" xmlns:xlink="http://www.w3.org/1999/xlink" x="0px"
	 y="0px" viewBox="0 0 12 13" style="enable-background:new 0 0 12 13;" xml:space="preserve">
<style type="text/css">
	.st0{enable-background:new    ;}
	.st1{fill:#FFFFFF;}
</style>
<g id="グループ_14" transform="translate(-336.467 -492.533)">
	<g class="st0">
		<path class="st1" d="M347.8,494.6c0,0.5-0.2,1.1-0.7,1.6l-0.1,0.1l-4.2,4.5c-0.9,0.9-1.7,1.7-2.3,2.2s-1.1,0.8-1.3,0.8
			c-0.3,0-0.6-0.1-1-0.4c-0.4-0.3-0.7-0.5-0.8-0.8c-0.1-0.2-0.2-0.7-0.3-1.4s-0.1-1.5-0.1-2.4c0-0.5,0.2-0.9,0.6-1.3
			c0.4-0.4,0.8-0.6,1.3-0.6c0.5,0,0.7,0.4,0.8,1.2c0,0.1,0,0.2,0,0.2c0.1,0.6,0.2,1.1,0.3,1.3s0.2,0.4,0.4,0.4
			c0.1,0,0.2-0.1,0.4-0.2c0.2-0.1,0.4-0.3,0.7-0.6l4.3-4.3c0.4-0.4,0.7-0.6,1-0.8s0.5-0.3,0.7-0.3c0.2,0,0.3,0.1,0.3,0.2
			s0.1,0.3,0.1,0.6V494.6z"/>
	</g>
</g>
</svg>
