<svg xmlns="http://www.w3.org/2000/svg" viewBox="0 0 209.2 229.17"><defs><style>.cls-1,.cls-2{fill:#fff;stroke:#2e2e2e;stroke-linejoin:round;}.cls-1{stroke-width:7px;}.cls-2,.cls-5{stroke-linecap:round;}.cls-2{stroke-width:5px;}.cls-3{fill:#2e2e2e;}.cls-4{fill:#9ab7d9;}.cls-5{fill:none;stroke:#809cb2;stroke-miterlimit:10;stroke-width:8px;}</style></defs><title>animal_bad</title><g id="レイヤー_2" data-name="レイヤー 2"><g id="_動物_表情パターン" data-name="【動物】表情パターン"><g id="体調悪い時"><path class="cls-1" d="M205.7,86.15s-31-18.57-59.86,6.2c-20.63-16.52-41.27-16.52-41.27-16.52h-6.2s-20.63,0-41.27,16.52c-18.58-33-51.6-33-51.6-33s0,45.41,28.89,51.6c-43.34,51.6-43.34,90,14.45,102.37,4.13,12.38,8.26,12.38,8.26,12.38a14.66,14.66,0,0,0,12.38-8.25h64a14.66,14.66,0,0,0,12.38,8.25s4.13,0,8.26-12.38c57.79-12.38,57.79-50.77,14.45-102.37C201.57,106.79,205.7,86.15,205.7,86.15Z"/><path class="cls-2" d="M139.58,139.88s-1.1-20.84-37.15-20.64H98.31c-34.47-.2-37.15,20.64-37.15,20.64C59.57,161.69,140.61,161.69,139.58,139.88Z"/><rect class="cls-3" x="80.21" y="135.34" width="9.91" height="4.95" rx="2.48" transform="translate(-65.35 197.76) rotate(-80)"/><rect class="cls-3" x="113.1" y="132.87" width="4.95" height="9.91" rx="2.48" transform="translate(-22.18 22.16) rotate(-10)"/><path class="cls-4" d="M88.92,65.07S85.54-1.69,57.44,0C30.91,9.12,88.92,65.07,88.92,65.07Z"/><path class="cls-4" d="M72.57,71S52.73,27.83,34.22,36.07C18.7,48.76,72.57,71,72.57,71Z"/><line class="cls-5" x1="139.59" y1="62.49" x2="139.59" y2="105.02"/><line class="cls-5" x1="154.59" y1="62.49" x2="154.59" y2="112.51"/><line class="cls-5" x1="169.59" y1="62.49" x2="169.59" y2="122.73"/></g></g></g></svg>