<svg xmlns="http://www.w3.org/2000/svg" xmlns:xlink="http://www.w3.org/1999/xlink" width="107" height="86" viewBox="0 0 107 86">
  <defs>
    <clipPath id="clip-path">
      <rect id="長方形_217" data-name="長方形 217" width="107" height="86" transform="translate(-7305 3943)" fill="#fff" stroke="#707070" stroke-width="1"/>
    </clipPath>
  </defs>
  <g id="マスクグループ_13" data-name="マスクグループ 13" transform="translate(7305 -3943)" clip-path="url(#clip-path)">
    <g id="怒った時" transform="translate(-7770.599 3796.657)">
      <g id="グループ_335" data-name="グループ 335" transform="translate(544.579 192.626)">
        <g id="パス_1098" data-name="パス 1098" transform="translate(0.746 0.711)">
          <path id="パス_2307" data-name="パス 2307" d="M653.543,278.63s-.792,6.765,2.429,8.3c0,0-6.686,3.01-7.354-2.661S653.543,278.63,653.543,278.63Z" transform="translate(-648.562 -278.63)" fill="#535353"/>
        </g>
        <g id="パス_1099" data-name="パス 1099">
          <path id="パス_2308" data-name="パス 2308" d="M651.279,287.376a4.887,4.887,0,0,1-2.42-.569,4.334,4.334,0,0,1-2.056-3.514,5.587,5.587,0,0,1,1.182-4.572,6.434,6.434,0,0,1,4.45-1.857.711.711,0,0,1,.7.717.67.67,0,0,1,0,.074c-.2,1.742-.232,6.5,2.025,7.572a.709.709,0,0,1-.013,1.288A10.63,10.63,0,0,1,651.279,287.376Zm.382-9.013a4.538,4.538,0,0,0-2.621,1.312,4.249,4.249,0,0,0-.828,3.452,2.97,2.97,0,0,0,1.346,2.448,5.419,5.419,0,0,0,3.831.066c-1.769-1.938-1.813-5.6-1.727-7.277Z" transform="translate(-646.709 -276.864)" fill="#000333"/>
        </g>
      </g>
      <g id="グループ_336" data-name="グループ 336" transform="translate(479.878 156.467)">
        <g id="パス_1100" data-name="パス 1100" transform="translate(0.712 0.711)">
          <path id="パス_2309" data-name="パス 2309" d="M507.906,188.782s-11.683,14.655-20.2,12.659c0,0,7.84,5.322,16.825-2.927S507.906,188.782,507.906,188.782Z" transform="translate(-487.709 -188.782)" fill="#535353"/>
        </g>
        <g id="パス_1101" data-name="パス 1101">
          <path id="パス_2310" data-name="パス 2310" d="M492.943,202.758a12.976,12.976,0,0,1-6.691-1.786.709.709,0,0,1,.56-1.278,6.675,6.675,0,0,0,1.519.169c7.832,0,17.852-12.447,17.959-12.581a.711.711,0,0,1,.736-.244,3.17,3.17,0,0,1,2.168,2.186c.526,2.133-1.237,5.077-5.241,8.754C499.9,201.7,496.027,202.758,492.943,202.758Zm-2.705-1.677c2.945.681,7.622.569,12.758-4.146,4.712-4.325,5.045-6.473,4.823-7.368a1.589,1.589,0,0,0-.759-.977C505.315,190.693,497.519,199.63,490.238,201.081Z" transform="translate(-485.939 -187.015)" fill="#000333"/>
        </g>
      </g>
      <g id="グループ_340" data-name="グループ 340" transform="translate(488.12 148.238)">
        <g id="パス_1107" data-name="パス 1107" transform="translate(0.708 0.749)">
          <path id="パス_2311" data-name="パス 2311" d="M570.157,211.1c-3.9,13.656-10.108,19.686-5.851,32.458S541.3,266.969,541.3,266.969l-32.69-17.2c-.889-9.224-.355-11.508,1.239-16.929s2.483-14.824.71-22.274-3.013-21.816,7.275-32.812,28.027-12.062,41.507-4.257c7.606,4.4,11.32,11.466,12.407,19.237a36.672,36.672,0,0,1,.338,4.46A47.887,47.887,0,0,1,570.157,211.1Z" transform="translate(-508.179 -168.429)" fill="#535353"/>
        </g>
        <g id="パス_1108" data-name="パス 1108">
          <path id="パス_2312" data-name="パス 2312" d="M540.249,266.567a.7.7,0,0,1-.331-.084l-32.69-17.2a.708.708,0,0,1-.375-.559c-.891-9.24-.371-11.635,1.266-17.2,1.627-5.516,2.389-14.812.7-21.91-1.456-6.112-3.643-21.606,7.447-33.462,10.169-10.872,27.994-12.716,42.38-4.389,7.114,4.119,11.522,10.95,12.749,19.754a37.462,37.462,0,0,1,.348,4.547,48.873,48.873,0,0,1-1.952,14.113,104.681,104.681,0,0,1-3.675,10.343c-2.979,7.467-5.131,12.861-2.185,21.7,1.852,5.556-1.669,11.54-10.182,17.308a76.937,76.937,0,0,1-13.241,6.991A.7.7,0,0,1,540.249,266.567Zm-32.02-18.361,32.059,16.871c2.913-1.2,26.059-11.115,22.295-22.408-3.109-9.327-.759-15.215,2.213-22.67a103.172,103.172,0,0,0,3.629-10.207h0a47.417,47.417,0,0,0,1.9-13.7,36.186,36.186,0,0,0-.338-4.376c-1.165-8.356-5.333-14.828-12.055-18.721-13.821-8-30.91-6.266-40.633,4.128-10.62,11.352-8.5,26.275-7.1,32.163,1.829,7.68.909,17.119-.719,22.64-1.587,5.406-2.065,7.588-1.246,16.277Z" transform="translate(-506.42 -166.568)" fill="#000333"/>
        </g>
      </g>
      <g id="体" transform="translate(478.451 207.538)">
        <g id="グループ_1832" data-name="グループ 1832" transform="translate(18.863 80.145)">
          <g id="グループ_1831" data-name="グループ 1831">
            <path id="パス_2313" data-name="パス 2313" d="M529.264,514.669s3.691,30.908,4.482,39.419c.746,8.032,6.93,52.886,6.93,52.886h8.906L553.1,532l.131,1.209V513.062Z" transform="translate(-529.264 -513.062)" fill="#000931"/>
          </g>
        </g>
        <g id="グループ_1834" data-name="グループ 1834" transform="translate(42.936 80.145)">
          <g id="グループ_1833" data-name="グループ 1833">
            <path id="パス_2314" data-name="パス 2314" d="M613.05,514.669s-3.692,30.908-4.482,39.419c-.746,8.032-6.931,52.886-6.931,52.886h-8.905L589.212,532l-.13,1.209V513.062Z" transform="translate(-589.082 -513.062)" fill="#000931"/>
          </g>
        </g>
        <g id="グループ_1835" data-name="グループ 1835" transform="translate(11.288 171.765)">
          <path id="パス_2315" data-name="パス 2315" d="M513.637,752.946h23.745a1.731,1.731,0,0,0,1.731-1.731v-8.768l-16.823-1.676a9.79,9.79,0,0,0-.978-.049h0a10.927,10.927,0,0,0-9.845,6.187l-.7,1.463A3.191,3.191,0,0,0,513.637,752.946Z" transform="translate(-510.442 -740.722)" fill="#5b2c2b"/>
        </g>
        <g id="グループ_1836" data-name="グループ 1836" transform="translate(45.546 171.765)">
          <path id="パス_2316" data-name="パス 2316" d="M621.043,752.946H597.3a1.732,1.732,0,0,1-1.732-1.731v-8.768l16.823-1.676a9.8,9.8,0,0,1,.979-.049h0a10.927,10.927,0,0,1,9.845,6.187l.7,1.463A3.191,3.191,0,0,1,621.043,752.946Z" transform="translate(-595.567 -740.722)" fill="#5b2c2b"/>
        </g>
        <g id="グループ_337" data-name="グループ 337" transform="translate(3.915 66.298)">
          <g id="パス_1102" data-name="パス 1102" transform="translate(0.71 0.71)">
            <path id="パス_2317" data-name="パス 2317" d="M494.027,483.835s-.732,2.971,1.13,3.326,8.561,0,8.561,0l3.855-5.765-5.055-.976Z" transform="translate(-493.885 -480.421)" fill="#397c71"/>
          </g>
          <g id="パス_1103" data-name="パス 1103">
            <path id="パス_2318" data-name="パス 2318" d="M497.189,486.973a20.882,20.882,0,0,1-3.218-.169,2.075,2.075,0,0,1-1.394-.928,4.766,4.766,0,0,1-.292-3.262.708.708,0,0,1,.422-.489l8.5-3.418a.706.706,0,0,1,.4-.038l5.056.976a.71.71,0,0,1,.456,1.091l-3.855,5.765a.713.713,0,0,1-.553.314C502.521,486.825,499.678,486.973,497.189,486.973Zm-3.591-3.679a3.023,3.023,0,0,0,.174,1.814.656.656,0,0,0,.465.3,59.308,59.308,0,0,0,8.036.006l3.063-4.58-3.8-.733Z" transform="translate(-492.121 -478.656)" fill="#000333"/>
          </g>
        </g>
        <g id="グループ_338" data-name="グループ 338" transform="translate(9.366 68.951)">
          <g id="パス_1104" data-name="パス 1104" transform="translate(0.709 0.711)">
            <path id="パス_2319" data-name="パス 2319" d="M507.775,491.243s-1.929,11.563,3.326,11.9l.91-8.447,2.881,3.925,2.493-11.605Z" transform="translate(-507.429 -487.015)" fill="#ffedd9"/>
          </g>
          <g id="パス_1105" data-name="パス 1105">
            <path id="パス_2320" data-name="パス 2320" d="M510.047,502.794H510a3.666,3.666,0,0,1-2.733-1.442c-2.556-3.219-1.3-10.953-1.247-11.28a.708.708,0,0,1,.413-.532l9.61-4.231a.71.71,0,0,1,.98.8l-2.493,11.6a.71.71,0,0,1-1.266.27l-1.8-2.447-.715,6.631A.71.71,0,0,1,510.047,502.794Zm-2.685-12.114c-.332,2.321-.681,7.651,1.018,9.79a2.324,2.324,0,0,0,1.043.775l.829-7.68a.71.71,0,0,1,1.278-.344l1.946,2.652,1.869-8.7Z" transform="translate(-505.666 -485.248)" fill="#000333"/>
          </g>
        </g>
        <g id="グループ_341" data-name="グループ 341" transform="translate(20.92 0.658)">
          <g id="パス_1109" data-name="パス 1109" transform="translate(0.708 0.709)">
            <path id="パス_2321" data-name="パス 2321" d="M538.531,323.011c3.426-2.86,7.184-5.887,9.512-5.688s5.355,2.894,5.486,5.388-5.823,4.257-8.315,4.726-9.046,3.692-9.08.7A7.472,7.472,0,0,1,538.531,323.011Z" transform="translate(-536.134 -317.314)" fill="#1e1e1e"/>
          </g>
          <g id="パス_1110" data-name="パス 1110">
            <path id="パス_2322" data-name="パス 2322" d="M536.694,329.047a2.666,2.666,0,0,1-1.574-.413,1.818,1.818,0,0,1-.743-1.546,8.139,8.139,0,0,1,2.637-5.663l.012-.011c3.987-3.329,7.49-6.076,10.027-5.849,2.574.221,5.979,3.116,6.136,6.056.2,3.718-8.8,5.441-8.893,5.458a22.687,22.687,0,0,0-2.469.734A18.681,18.681,0,0,1,536.694,329.047Zm1.252-6.553a6.791,6.791,0,0,0-2.15,4.578c0,.3.105.376.148.406.76.545,3.688-.43,5.436-1.013a22.924,22.924,0,0,1,2.656-.783c3.218-.6,7.823-2.363,7.737-3.988-.115-2.145-2.913-4.558-4.84-4.719-2.155-.171-6.263,3.245-8.987,5.52Z" transform="translate(-534.376 -315.551)" fill="#000333"/>
          </g>
        </g>
        <g id="グループ_343" data-name="グループ 343" transform="translate(13.756 11.342)">
          <g id="パス_1112" data-name="パス 1112" transform="translate(0.24 0.234)">
            <path id="パス_2323" data-name="パス 2323" d="M565.948,342.682a15.97,15.97,0,0,1,3.25,1.283c.564.491,2.071,6.965,1.628,11.134s1.121,48.158,1.121,48.158.627,6.774-4.627,7.484-38.485-2.628-38.485-2.628-11.041-7.539-11.573-15.3,1.512-32.662,1.512-32.662l5.4-14.728,9.047-2.744Z" transform="translate(-517.173 -342.681)" fill="#397c71"/>
          </g>
          <g id="パス_1113" data-name="パス 1113">
            <path id="パス_2324" data-name="パス 2324" d="M564.705,410.731c-8.975,0-35.031-2.606-36.255-2.729a.231.231,0,0,1-.11-.04c-.455-.31-11.14-7.693-11.677-15.478-.527-7.689,1.492-32.446,1.512-32.7a.266.266,0,0,1,.013-.062L523.6,345a.237.237,0,0,1,.154-.144l9.047-2.744a.23.23,0,0,1,.068-.01H565.59a.238.238,0,0,1,.068.01A15.058,15.058,0,0,1,569,343.441c.649.566,2.158,7.115,1.708,11.338-.436,4.1,1.106,47.684,1.122,48.125a10.89,10.89,0,0,1-.353,3.545,5.254,5.254,0,0,1-4.48,4.179A18.741,18.741,0,0,1,564.705,410.731Zm-36.146-3.193c1.61.161,33.309,3.308,38.371,2.623,4.973-.675,4.43-7.163,4.424-7.228-.065-1.811-1.561-44.067-1.121-48.205.45-4.226-1.13-10.55-1.548-10.932a14.706,14.706,0,0,0-3.129-1.224H532.9l-8.9,2.7-5.349,14.586c-.084,1.024-2.025,25.066-1.509,32.593.5,7.3,10.624,14.531,11.422,15.086Z" transform="translate(-516.576 -342.1)" fill="#000333"/>
          </g>
        </g>
        <g id="グループ_344" data-name="グループ 344" transform="translate(67.004 16.544)">
          <g id="パス_1114" data-name="パス 1114">
            <path id="パス_2325" data-name="パス 2325" d="M648.887,355.025" transform="translate(-648.887 -355.025)" fill="#29488e" stroke="#000333" stroke-linecap="round" stroke-linejoin="round" stroke-width="6.291"/>
          </g>
        </g>
        <g id="グループ_345" data-name="グループ 345" transform="translate(63.437 67.362)">
          <g id="パス_1115" data-name="パス 1115" transform="translate(0.705 0.71)">
            <path id="パス_2326" data-name="パス 2326" d="M654.815,487.587c.532,1.951.089,3.592-.62,4.124a15.5,15.5,0,0,1-8.938,1.552c-3.991-.621-3.46-3.55-3.46-3.55l5.321-6.649Z" transform="translate(-641.774 -483.064)" fill="#397c71"/>
          </g>
          <g id="パス_1116" data-name="パス 1116">
            <path id="パス_2327" data-name="パス 2327" d="M646.062,493.055a12.786,12.786,0,0,1-1.96-.145,4.919,4.919,0,0,1-3.426-1.829,3.6,3.6,0,0,1-.622-2.55.712.712,0,0,1,.143-.316l5.321-6.65a.71.71,0,0,1,.913-.169l7.7,4.523a.709.709,0,0,1,.325.422c.554,2.025.184,4.082-.879,4.878A16.028,16.028,0,0,1,646.062,493.055Zm-4.624-4.118a2.18,2.18,0,0,0,.409,1.339,3.607,3.607,0,0,0,2.475,1.231,14.978,14.978,0,0,0,8.4-1.419c.352-.264.808-1.425.43-3.1l-6.91-4.061Z" transform="translate(-640.022 -481.299)" fill="#000333"/>
          </g>
        </g>
        <g id="グループ_346" data-name="グループ 346" transform="translate(64.323 71.444)">
          <g id="パス_1117" data-name="パス 1117" transform="translate(0.709 0.709)">
            <path id="パス_2328" data-name="パス 2328" d="M653.373,498.113s-2.07,13.588-5.661,13.718c-.952.036,1.5-8.09.968-10.008-.3-1.106-1.935,4.119-2.347,3.2-1.569-3.5-2.346-11.816-2.346-11.816Z" transform="translate(-643.988 -493.205)" fill="#ffedd9"/>
          </g>
          <g id="パス_1118" data-name="パス 1118">
            <path id="パス_2329" data-name="パス 2329" d="M646.653,511.486a.855.855,0,0,1-.649-.3c-.472-.55-.314-1.652.3-4.918.177-.943.388-2.057.529-3.038-.507,1.034-.844,1.555-1.43,1.555h-.013a.844.844,0,0,1-.76-.528c-1.6-3.568-2.372-11.7-2.4-12.04a.71.71,0,0,1,1.035-.695l9.386,4.908a.709.709,0,0,1,.372.735c-.359,2.363-2.359,14.173-6.336,14.32Zm.837-11.583h.084a.844.844,0,0,1,.738.675c.283,1.026-.058,3.023-.61,5.953-.211,1.121-.483,2.561-.546,3.356,1.816-1.159,3.605-7.668,4.389-12.437l-7.758-4.056a54.774,54.774,0,0,0,1.754,9.258c.117-.237.233-.483.326-.675C646.5,500.613,646.84,499.9,647.49,499.9Z" transform="translate(-642.225 -491.443)" fill="#000333"/>
          </g>
        </g>
        <g id="グループ_347" data-name="グループ 347" transform="translate(56.957 30.356)">
          <g id="パス_1119" data-name="パス 1119">
            <path id="パス_2330" data-name="パス 2330" d="M623.921,389.346" transform="translate(-623.921 -389.346)" fill="#29488e" stroke="#000333" stroke-linecap="round" stroke-linejoin="round" stroke-width="6.291"/>
          </g>
        </g>
        <g id="グループ_348" data-name="グループ 348" transform="translate(54.92 15.809)">
          <g id="パス_1120" data-name="パス 1120" transform="translate(0.71 0.734)">
            <path id="パス_2331" data-name="パス 2331" d="M632,355.025c4.479,6.519,4.213,12.638,4.612,19.689s0,15.255,9.668,29.623c0,0,.134,1.951-2.328,4.08s-1.929,3.193-3.348,3.193-8.6-.354-8.6-.354l-11.376-7.273V378.439l1.328-9.6" transform="translate(-620.624 -355.025)" fill="#397c71"/>
          </g>
          <g id="パス_1121" data-name="パス 1121">
            <path id="パス_2332" data-name="パス 2332" d="M639.548,411.228c-1.421,0-8.344-.338-8.638-.356a.7.7,0,0,1-.347-.111l-11.376-7.273a.708.708,0,0,1-.328-.6V377.348a.8.8,0,0,1,.007-.1l1.328-9.6a.71.71,0,0,1,1.409.173l0,.021L620.28,377.4V402.5l10.887,6.962c1.142.056,7.122.345,8.38.345.369,0,.384-.011.768-.6a10.508,10.508,0,0,1,2.118-2.424,5.276,5.276,0,0,0,2.076-3.336c-8.88-13.27-9.264-21.476-9.574-28.075-.028-.58-.054-1.15-.085-1.714-.046-.823-.084-1.632-.121-2.432-.28-6.065-.523-11.3-4.367-16.9a.71.71,0,1,1,1.136-.85c.012.015.022.031.032.047,4.073,5.927,4.336,11.613,4.615,17.634.037.8.074,1.6.121,2.416.032.568.059,1.143.085,1.728.319,6.79.675,14.488,9.461,27.539a.713.713,0,0,1,.119.348c.006.094.128,2.331-2.572,4.664a9.121,9.121,0,0,0-1.856,2.129A2.087,2.087,0,0,1,639.548,411.228Z" transform="translate(-618.86 -353.201)" fill="#000333"/>
          </g>
        </g>
        <g id="グループ_349" data-name="グループ 349" transform="translate(0 14.771)">
          <g id="パス_1122" data-name="パス 1122" transform="translate(0.709 0.708)">
            <path id="パス_2333" data-name="パス 2333" d="M510.418,364.7l-1.519,9.1v23.147s-10.243,8.514-11.507,9.512-7.783,1.13-9.179.864-4.057-4.922-4.057-4.922c3.06-2.795,5.588-11.175,6.12-21.818s4.294-23.007,8.937-26.8l6.457-1.4,3.831,4.656" transform="translate(-484.155 -352.378)" fill="#397c71"/>
          </g>
          <g id="パス_1123" data-name="パス 1123">
            <path id="パス_2334" data-name="パス 2334" d="M489.46,407.1a16.6,16.6,0,0,1-2.432-.127c-1.594-.3-3.882-4.108-4.54-5.267a.709.709,0,0,1,.138-.875c3.022-2.76,5.39-11.332,5.889-21.33.506-10.148,4.086-23.139,9.2-27.312a.707.707,0,0,1,.3-.144l6.457-1.4a.709.709,0,0,1,.7.243L509,355.535a.71.71,0,1,1-1.1.9l-3.556-4.322-5.864,1.276c-4.183,3.587-8,15.252-8.55,26.177-.506,10.071-2.814,18.533-5.939,21.9,1.279,2.141,2.767,4.008,3.3,4.11,2.508.478,8.03-.269,8.608-.725,1.132-.893,9.644-7.964,11.237-9.288V372.747a.767.767,0,0,1,.01-.118l1.519-9.1a.71.71,0,0,1,1.4.234l-1.509,9.037v23.089a.709.709,0,0,1-.253.545c-.422.349-10.266,8.532-11.522,9.523C495.685,406.827,492.025,407.1,489.46,407.1Z" transform="translate(-482.394 -350.62)" fill="#000333"/>
          </g>
        </g>
        <g id="グループ_350" data-name="グループ 350" transform="translate(16.403 75.976)">
          <g id="パス_1124" data-name="パス 1124" transform="translate(0.225 0.233)">
            <path id="パス_2335" data-name="パス 2335" d="M525.4,503.748c-1.574,1.266-3.038,5.654.488,6.984s3.525.4,10.31,1.53,18.492.928,24.079.6,14.432-.266,15.267-2.993-.084-4.489-1.63-4.439-21.817-1.681-21.817-1.681l-24.013-.465Z" transform="translate(-523.712 -503.282)" fill="#397c71"/>
          </g>
          <g id="パス_1125" data-name="パス 1125">
            <path id="パス_2336" data-name="パス 2336" d="M550.317,513.014a97.635,97.635,0,0,1-14.5-.864,48.041,48.041,0,0,0-5.951-.665,12,12,0,0,1-4.4-.877,3.331,3.331,0,0,1-2.279-2.685,5.607,5.607,0,0,1,1.723-4.707.234.234,0,0,1,.108-.049l2.683-.464,24.057.461c.219.018,20.3,1.741,21.806,1.682a1.913,1.913,0,0,1,1.611.759,4.509,4.509,0,0,1,.253,3.985c-.759,2.484-7.174,2.774-12.828,3.03-.928.041-1.823.085-2.646.131C557.426,512.9,553.968,513.014,550.317,513.014Zm-25.15-9.39a5.185,5.185,0,0,0-1.506,4.226,2.857,2.857,0,0,0,1.976,2.316,11.5,11.5,0,0,0,4.263.844,48.477,48.477,0,0,1,6,.671c6.573,1.1,17.97.956,24.027.6.825-.049,1.722-.091,2.653-.132,4.955-.224,11.74-.53,12.4-2.695a4.072,4.072,0,0,0-.175-3.559,1.386,1.386,0,0,0-1.219-.574c-1.528.046-21.015-1.612-21.845-1.683l-24-.463Z" transform="translate(-523.152 -502.703)" fill="#000333"/>
          </g>
        </g>
        <g id="グループ_351" data-name="グループ 351" transform="translate(15.178 43.462)">
          <g id="パス_1126" data-name="パス 1126">
            <path id="パス_2337" data-name="パス 2337" d="M528.643,430.849c0,4.936.431,9.376-1.915,9.376s-6.583-4.439-6.583-9.376c0-1.978-.194-5.263.323-6.743.773-2.213,2.519-2.195,3.924-2.195C526.741,421.912,528.643,425.913,528.643,430.849Z" transform="translate(-520.109 -421.912)" fill="#236c60"/>
          </g>
        </g>
        <g id="グループ_352" data-name="グループ 352" transform="translate(58.189 47.112)">
          <g id="パス_1127" data-name="パス 1127">
            <path id="パス_2338" data-name="パス 2338" d="M635.476,439.923c0,4.936-1.9,8.937-4.247,8.937s-4.247-4-4.247-8.937,1.9-8.938,4.247-8.938c1.609,0,3.527-.225,4.247,2.553C635.805,434.809,635.476,438.375,635.476,439.923Z" transform="translate(-626.982 -430.981)" fill="#236c60"/>
          </g>
        </g>
        <g id="グループ_353" data-name="グループ 353" transform="translate(22.127 7.102)">
          <g id="パス_1128" data-name="パス 1128" transform="translate(0.71 0.71)">
            <path id="パス_2339" data-name="パス 2339" d="M539.141,337.535s8.732-4.246,14.01-4.207,17.341,1.5,18.671,2.522-9.769,16.559-14.031,15.575-17.631-9.632-17.631-9.632Z" transform="translate(-539.141 -333.327)" fill="#ffedd9"/>
          </g>
          <g id="パス_1129" data-name="パス 1129">
            <path id="パス_2340" data-name="パス 2340" d="M557.108,351.122a2.38,2.38,0,0,1-.531-.058c-4.333-1-17.306-9.372-17.857-9.727a.713.713,0,0,1-.305-.431l-1.019-4.257a.709.709,0,0,1,.38-.8c.361-.175,8.862-4.28,14.249-4.28h.077c4.828.035,17.47,1.425,19.1,2.669.7.537.327,1.6-.129,2.568C569.279,340.6,561.431,351.122,557.108,351.122ZM539.73,340.3c1.81,1.159,13.38,8.509,17.168,9.383.356.084,1.435.066,3.721-1.857,4.52-3.806,9.227-11.01,9.537-12.563-1.84-.844-12.731-2.233-18.061-2.273h-.07c-4.337,0-11.193,3.01-13.114,3.895Z" transform="translate(-537.376 -331.564)" fill="#000333"/>
          </g>
        </g>
        <g id="グループ_354" data-name="グループ 354" transform="translate(14.804 24.627)">
          <g id="パス_1130" data-name="パス 1130" transform="translate(0.736 0.694)">
            <path id="パス_2341" data-name="パス 2341" d="M566.32,377.551c4.257,2.261,6.609,10.052,3.629,19.631-.5,1.613-1.429,1.186-2.532,5.52-.567,2.235.662,5.843,1.6,9.7.879,3.624,4,9.5,4.032,9.571a7.681,7.681,0,0,1-.753,7.9c-1.594,2.346-13.835,2.313-23.992,2.448a109.4,109.4,0,0,1-21.64-2.448s-4.389-1.013-5.416-6.583,1.508-5.79,3.344-11.461c1.212-3.738,1.821-7.236.566-11.57-.651-2.248.044.482-1.375-3.088-1.979-4.979-2.892-18.372,3.317-20.333" transform="translate(-521.008 -376.835)" fill="#397c71"/>
          </g>
          <g id="パス_1131" data-name="パス 1131">
            <path id="パス_2342" data-name="パス 2342" d="M546.457,432a113.059,113.059,0,0,1-21.042-2.468c-.2-.047-4.86-1.187-5.959-7.144a9.039,9.039,0,0,1,1.341-7.38,21.859,21.859,0,0,0,2.025-4.428c1.2-3.707,1.757-7.022.559-11.154-.042-.145-.151-.523-.219-.73a7.147,7.147,0,0,1-1.134-2.293c-1.6-4.038-2.406-12.7-.065-17.627a6.434,6.434,0,0,1,3.827-3.643.71.71,0,0,1,.428,1.351,5.079,5.079,0,0,0-2.973,2.9c-2.144,4.517-1.371,12.786.1,16.495a15.961,15.961,0,0,0,.759,1.727c.277.169.367.479.642,1.426a19.236,19.236,0,0,1-.573,11.984,23.338,23.338,0,0,1-2.145,4.693,7.643,7.643,0,0,0-1.182,6.422c.928,5.051,4.838,6.009,4.877,6.017.111.025,11.536,2.559,21.471,2.427l2.18-.026c8.424-.1,19.962-.234,21.234-2.11a6.942,6.942,0,0,0,.688-7.218l-.038-.072a53.57,53.57,0,0,1-4.031-9.614c-.185-.767-.383-1.519-.575-2.26-.815-3.123-1.519-5.814-1.019-7.78A10.817,10.817,0,0,1,567.578,397a3.068,3.068,0,0,0,.591-1.063c2.954-9.5.514-16.775-3.284-18.793a.71.71,0,0,1,.665-1.254h0c2.363,1.257,4.1,3.936,4.889,7.547a25.628,25.628,0,0,1-.915,12.922,4.452,4.452,0,0,1-.819,1.5,9.414,9.414,0,0,0-1.7,3.987c-.41,1.611.283,4.263,1.013,7.072.194.745.393,1.51.582,2.284a52.346,52.346,0,0,0,3.913,9.3c.051.1.078.155.085.163a8.347,8.347,0,0,1-.819,8.576c-1.572,2.312-9.886,2.582-22.391,2.729l-2.177.026C546.967,431.995,546.712,432,546.457,432Z" transform="translate(-519.18 -375.111)" fill="#000333"/>
          </g>
        </g>
        <g id="グループ_355" data-name="グループ 355" transform="translate(41.548 3.041)">
          <g id="パス_1132" data-name="パス 1132" transform="translate(0.713 0.706)">
            <path id="パス_2343" data-name="パス 2343" d="M587.4,345.514S600.4,331.946,600,330.7s-2.483-2.661-7.361-2.572l-1.752-1.6a28.625,28.625,0,0,1,3.226-1.231c2.647-.916,9.035-2.672,10.743-1.873a6.088,6.088,0,0,1,3.214,4.345c.267,1.688,1.242,1.6,1.772,2.661s1.064,2.9,0,3.933-4.789,2.186-6.741,3.693S592.814,345.691,587.4,345.514Z" transform="translate(-587.404 -323.227)" fill="#397c71"/>
          </g>
          <g id="パス_1133" data-name="パス 1133">
            <path id="パス_2344" data-name="パス 2344" d="M586.572,345.18c-.084,0-.169,0-.253,0a.709.709,0,0,1-.49-1.2c5.752-6.008,11.85-12.859,12.382-14.227-.385-.819-2.149-2.044-6.624-1.957a.71.71,0,0,1-.491-.186l-1.751-1.6a.71.71,0,0,1,.138-1.148,28.369,28.369,0,0,1,3.333-1.279c.084-.029,8.813-2.995,11.275-1.845a6.825,6.825,0,0,1,3.616,4.877,1.835,1.835,0,0,0,.778,1.34,3.483,3.483,0,0,1,.928,1.114c.365.73,1.435,3.232-.141,4.76a12.684,12.684,0,0,1-3.123,1.752,20.889,20.889,0,0,0-3.677,1.993C600.817,338.861,592.344,345.18,586.572,345.18Zm5.447-18.811c6.126,0,7.36,2.338,7.6,3.069.175.546.374,1.165-6.3,8.563-1.95,2.162-3.933,4.284-5.179,5.6,5.373-.994,12.58-6.464,13.47-7.151a21.782,21.782,0,0,1,3.949-2.158,13.04,13.04,0,0,0,2.731-1.483c.7-.681.364-2.1-.14-3.108a2.131,2.131,0,0,0-.591-.675,3.212,3.212,0,0,1-1.249-2.19,5.408,5.408,0,0,0-2.815-3.814c-1.242-.581-6.785.715-10.212,1.9-.992.343-1.688.6-2.161.784l.725.662Z" transform="translate(-585.632 -321.474)" fill="#000333"/>
          </g>
        </g>
        <g id="グループ_356" data-name="グループ 356" transform="translate(13.86)">
          <g id="パス_1134" data-name="パス 1134" transform="translate(0.704 0.712)">
            <path id="パス_2345" data-name="パス 2345" d="M528.824,315.687c-6.583,2-6.667,4.212-7.555,5.632s-2.927,5.148-2.661,7.184,1.064,3.813,2.306,4.257,2.572,0,5.321,1.241,19.634,7,19.634,7S526.856,327.88,526.856,327s.355-2.128,1.153-2.394a4.245,4.245,0,0,0,2.927-2.218,7.763,7.763,0,0,1,3.857-3.366c.844-.181-2.567-3.331-2.567-3.331Z" transform="translate(-518.584 -315.687)" fill="#397c71"/>
          </g>
          <g id="パス_1135" data-name="パス 1135">
            <path id="パス_2346" data-name="パス 2346" d="M544.823,340.661a.718.718,0,0,1-.229-.038c-.69-.236-16.948-5.79-19.7-7.032a10.036,10.036,0,0,0-3.629-.928,6.527,6.527,0,0,1-1.635-.295c-1.406-.5-2.442-2.309-2.771-4.833-.338-2.6,2.448-7.143,2.762-7.652.117-.188.228-.409.343-.644.735-1.483,1.742-3.512,7.608-5.291a.714.714,0,0,1,.206-.031h3.4a.71.71,0,0,1,.481.188c3.171,2.929,2.986,3.606,2.9,3.932a.856.856,0,0,1-.664.614,7.3,7.3,0,0,0-3.35,2.943,4.8,4.8,0,0,1-3.26,2.588l-.1.032c-.32.107-.615.809-.661,1.53,1.254,1.382,12.015,9.005,18.7,13.621a.71.71,0,0,1-.4,1.294Zm-16.939-25.319c-5.189,1.591-6,3.222-6.648,4.533a7.872,7.872,0,0,1-.412.765c-.983,1.573-2.785,5-2.559,6.715.253,1.926.975,3.371,1.842,3.681a5.3,5.3,0,0,0,1.29.219,11.56,11.56,0,0,1,4.084,1.045c1.762.8,9.551,3.523,14.757,5.325-1.588-1.112-3.466-2.435-5.333-3.768-9.8-7-9.8-7.4-9.8-7.916,0-1.215.512-2.693,1.638-3.068l.1-.034a3.479,3.479,0,0,0,2.393-1.78,8.509,8.509,0,0,1,3.713-3.545,21.443,21.443,0,0,0-2.046-2.172Z" transform="translate(-516.835 -313.917)" fill="#000333"/>
          </g>
        </g>
        <g id="グループ_357" data-name="グループ 357" transform="translate(37.225 5.646)">
          <g id="パス_1136" data-name="パス 1136">
            <path id="パス_2347" data-name="パス 2347" d="M584.893,333.168s-1.6.928-5.275.928-4.726-.928-4.726-.928v-5.22h10Z" transform="translate(-574.892 -327.947)" fill="#ffbdad"/>
          </g>
        </g>
        <g id="グループ_360" data-name="グループ 360" transform="translate(33.827 12.646)">
          <g id="パス_1140" data-name="パス 1140">
            <path id="パス_2348" data-name="パス 2348" d="M570.684,348.305a.472.472,0,0,1-.224-.056l-3.762-2.02a.473.473,0,1,1,.447-.833h0l3.763,2.019a.473.473,0,0,1-.224.889Z" transform="translate(-566.448 -345.339)" fill="#000333"/>
          </g>
        </g>
        <g id="グループ_361" data-name="グループ 361" transform="translate(45.268 12.646)">
          <g id="パス_1141" data-name="パス 1141">
            <path id="パス_2349" data-name="パス 2349" d="M595.351,348.306a.472.472,0,0,1-.224-.889l3.763-2.019a.473.473,0,1,1,.448.833h0l-3.763,2.02A.467.467,0,0,1,595.351,348.306Z" transform="translate(-594.877 -345.341)" fill="#000333"/>
          </g>
        </g>
        <g id="グループ_362" data-name="グループ 362" transform="translate(38.884 25.199)">
          <g id="パス_1142" data-name="パス 1142">
            <path id="パス_2350" data-name="パス 2350" d="M584.111,386.853a6.24,6.24,0,0,1-1.964-.365c-1.536-.518-3.276-1.613-3.123-2.991a29.2,29.2,0,0,1,.844-3.75c.784-2.755,1.1-2.958,1.317-3.092a.762.762,0,0,1,.487-.12l2.121.044a.709.709,0,0,1,.646.45c.651,1.656,2.692,7.189,1.661,8.907A2.175,2.175,0,0,1,584.111,386.853Zm-2.153-8.893a31.051,31.051,0,0,0-1.519,5.693c-.024.219.683.989,2.166,1.489,1.261.422,2.138.309,2.286.062.428-.714-.46-4.212-1.6-7.219Zm-.565-.045,0,0,0,0" transform="translate(-579.015 -376.533)" fill="#000333"/>
          </g>
        </g>
        <g id="グループ_363" data-name="グループ 363" transform="translate(41.387 27.802)">
          <g id="パス_1143" data-name="パス 1143">
            <path id="パス_2351" data-name="パス 2351" d="M586.106,383.016c.667-.136,1.253.6,1.286,1.846s.169,2.295-1.1,1.979a1.422,1.422,0,0,1-1.015-1.737,1.5,1.5,0,0,1,.05-.154C585.4,384.529,585.452,383.148,586.106,383.016Z" transform="translate(-585.233 -383)" fill="#000333"/>
          </g>
        </g>
        <g id="グループ_364" data-name="グループ 364" transform="translate(39.201 33.241)">
          <g id="パス_1144" data-name="パス 1144">
            <path id="パス_2352" data-name="パス 2352" d="M580.548,444.752a.709.709,0,0,1-.708-.675c-.14-2.84.138-14.943.322-22.956.058-2.526.106-4.622.128-5.843.084-5.006.612-17.971.617-18.1a.71.71,0,0,1,1.418.058c-.005.131-.528,13.081-.615,18.069-.022,1.224-.07,3.321-.128,5.851-.183,7.989-.461,20.062-.323,22.849a.709.709,0,0,1-.673.744h0Z" transform="translate(-579.801 -396.514)" fill="#000333"/>
          </g>
        </g>
        <g id="グループ_365" data-name="グループ 365" transform="translate(42.849 34.048)">
          <g id="パス_1145" data-name="パス 1145">
            <path id="パス_2353" data-name="パス 2353" d="M589.58,445.951a.71.71,0,0,1-.71-.7c-.021-2.428.028-7.9.085-14.237.111-12.5.263-29.615-.074-31.639a.71.71,0,0,1,1.391-.282c0,.016.006.032.008.048.359,2.147.211,18.636.094,31.886-.057,6.33-.105,11.8-.085,14.211a.709.709,0,0,1-.7.716h-.006Z" transform="translate(-588.865 -398.52)" fill="#000333"/>
          </g>
        </g>
        <g id="グループ_368" data-name="グループ 368" transform="translate(36.138 4.778)">
          <g id="パス_1149" data-name="パス 1149">
            <path id="パス_2354" data-name="パス 2354" d="M572.9,331.835a.71.71,0,0,1-.71-.71h0v-4.6a.71.71,0,0,1,1.419-.048.456.456,0,0,1,0,.048v4.6A.709.709,0,0,1,572.9,331.835Z" transform="translate(-572.19 -325.79)" fill="#000333"/>
          </g>
        </g>
        <g id="グループ_369" data-name="グループ 369" transform="translate(46.517 4.961)">
          <g id="パス_1150" data-name="パス 1150">
            <path id="パス_2355" data-name="パス 2355" d="M598.691,332.682a.71.71,0,0,1-.71-.71h0v-5.043a.71.71,0,0,1,1.419,0v5.043a.71.71,0,0,1-.709.711Z" transform="translate(-597.981 -326.243)" fill="#000333"/>
          </g>
        </g>
        <g id="グループ_372" data-name="グループ 372" transform="translate(47.343 60.885)">
          <g id="パス_1152" data-name="パス 1152">
            <path id="パス_2356" data-name="パス 2356" d="M616.833,472.851a1.6,1.6,0,0,1-.675.87c-1.688.889-4.125-.572-6.519.137a17.493,17.493,0,0,1-8.424,0c-2.532-.666-1.022-3.283,4.744-4.612s5.227-4.626,7.849-3.95a3.575,3.575,0,0,1,1.589.894,21.871,21.871,0,0,0,1.24,6.2C616.7,472.543,616.767,472.695,616.833,472.851Z" transform="translate(-600.033 -465.206)" fill="#236c60"/>
          </g>
        </g>
        <g id="グループ_373" data-name="グループ 373" transform="translate(48.225 43.668)">
          <g id="パス_1153" data-name="パス 1153">
            <path id="パス_2357" data-name="パス 2357" d="M609.189,429.889c-3.142.57-7.45-3.393-6.92-5.787s11.773-2.195,12.505.4S610.653,429.623,609.189,429.889Z" transform="translate(-602.225 -422.424)" fill="#236c60"/>
          </g>
        </g>
        <g id="グループ_374" data-name="グループ 374" transform="translate(22.226 43.668)">
          <g id="パス_1154" data-name="パス 1154">
            <path id="パス_2358" data-name="パス 2358" d="M543.282,429.889c3.142.57,7.45-3.393,6.92-5.787s-11.774-2.195-12.506.4S541.818,429.623,543.282,429.889Z" transform="translate(-537.622 -422.424)" fill="#236c60"/>
          </g>
        </g>
        <g id="グループ_399" data-name="グループ 399" transform="translate(65.965 79.247)">
          <g id="パス_1170" data-name="パス 1170">
            <path id="パス_2359" data-name="パス 2359" d="M646.3,510.832" transform="translate(-646.305 -510.832)" fill="#29488e" stroke="#000333" stroke-linecap="round" stroke-linejoin="round" stroke-width="2.097"/>
          </g>
        </g>
      </g>
      <g id="グループ_342" data-name="グループ 342" transform="translate(539.195 203.855)">
        <g id="パス_1111" data-name="パス 1111" transform="translate(0)">
          <path id="パス_2360" data-name="パス 2360" d="M634.785,316.6a.709.709,0,0,1-.619-.361c-2.14-3.8.5-10.729.609-11.022a.71.71,0,0,1,1.324.512c-.025.065-2.509,6.6-.7,9.815a.709.709,0,0,1-.617,1.058Z" transform="translate(-633.331 -304.766)" fill="#000333"/>
        </g>
      </g>
      <g id="グループ_344-2" data-name="グループ 344" transform="translate(544.954 224.115)">
        <g id="パス_1114-2" data-name="パス 1114">
          <path id="パス_2361" data-name="パス 2361" d="M647.641,355.108" transform="translate(-647.641 -355.108)" fill="#29488e" stroke="#000333" stroke-linecap="round" stroke-linejoin="round" stroke-width="6.291"/>
        </g>
      </g>
      <g id="グループ_347-2" data-name="グループ 347" transform="translate(534.906 237.927)">
        <g id="パス_1119-2" data-name="パス 1119">
          <path id="パス_2362" data-name="パス 2362" d="M622.675,389.429" transform="translate(-622.675 -389.429)" fill="#29488e" stroke="#000333" stroke-linecap="round" stroke-linejoin="round" stroke-width="6.291"/>
        </g>
      </g>
      <g id="グループ_358" data-name="グループ 358" transform="translate(496.693 163.264)">
        <g id="パス_1137" data-name="パス 1137" transform="translate(0.721 0.711)">
          <path id="パス_2363" data-name="パス 2363" d="M575.192,231.843s2.467,10.406-2.418,15.944c-4.81,5.452-12.3,7.47-20.109,7.293-7.805.177-15.3-1.84-20.108-7.293-4.886-5.538-2.419-15.944-2.419-15.944s15.566-25.277,21.4-25.987,22.149-.71,23.657,25.987" transform="translate(-529.515 -205.671)" fill="#ffedd9"/>
        </g>
        <g id="パス_1138" data-name="パス 1138" transform="translate(0 0)">
          <path id="パス_2364" data-name="パス 2364" d="M550.629,254.743c-6.143,0-14.242-1.382-19.678-7.543-5.07-5.747-2.68-16.138-2.576-16.577a.7.7,0,0,1,.084-.208c1.612-2.616,15.919-25.589,21.916-26.319,4.278-.519,10.465-.233,15.628,4.087,5.248,4.389,8.215,11.96,8.819,22.5.222.973,2.333,10.934-2.591,16.514-5.719,6.484-14.394,7.671-20.657,7.533C551.267,254.74,550.95,254.743,550.629,254.743Zm.948-1.43c6,.137,14.234-.978,19.593-7.053,4.589-5.2,2.284-15.211,2.26-15.311a.713.713,0,0,1-.018-.123c-.574-10.167-3.376-17.419-8.317-21.556-4.776-3.994-10.55-4.253-14.546-3.766-1.246.151-4.512,2.036-12.391,12.964-4.237,5.876-7.906,11.752-8.425,12.588-.235,1.1-2.041,10.3,2.284,15.2,5.359,6.076,13.6,7.188,19.56,7.054Z" transform="translate(-527.722 -203.904)" fill="#000333"/>
        </g>
      </g>
      <g id="グループ_366" data-name="グループ 366" transform="translate(494.937 158.885)">
        <g id="パス_1146" data-name="パス 1146" transform="translate(0.733 0.708)">
          <path id="パス_2365" data-name="パス 2365" d="M574.109,202.984c7.1,18.628,1.594,28.826,1.594,28.826,0-1.419-4.077-7.45-6.3-11.258s-4.347-14.73-4.347-14.73c-4.522,12.951-18.117,17.918-18.117,17.918,3.618-7.185,1.566-16.054,1.566-16.054s-12.237,3.827-21.48,25.9c0,0-5.293-13.931,2.026-25.9.123-.2.246-.4.374-.591v-.006a27.548,27.548,0,0,1,6.5-7.057,26.3,26.3,0,0,1,12.587-5.251" transform="translate(-525.179 -194.781)" fill="#535353"/>
        </g>
        <g id="パス_1147" data-name="パス 1147">
          <path id="パス_2366" data-name="パス 2366" d="M525.943,233.247h-.012a.711.711,0,0,1-.652-.457c-.221-.582-5.332-14.4,2.083-26.524.118-.191.234-.379.355-.562a.515.515,0,0,1,.028-.048,28.348,28.348,0,0,1,6.661-7.238,26.8,26.8,0,0,1,12.963-5.393.7.7,0,0,1,.759.641v.011a.71.71,0,0,1-.652.76,25.868,25.868,0,0,0-12.213,5.107,26.941,26.941,0,0,0-6.3,6.829c-.011.02-.022.039-.035.058-.123.188-.243.381-.362.574-5.53,9.049-3.617,19.393-2.516,23.482,9.154-20.568,20.658-24.376,21.156-24.531a.708.708,0,0,1,.888.462c.006.018.011.036.015.054.08.344,1.778,7.905-.875,14.834,3.688-1.772,12.629-6.936,16.064-16.772a.7.7,0,0,1,.721-.474.71.71,0,0,1,.646.572c.021.108,2.131,10.847,4.263,14.509.623,1.07,1.383,2.3,2.187,3.6,1.6,2.595,2.823,4.595,3.525,6.016,1.161-3.557,2.99-12.718-2.286-26.572a.709.709,0,1,1,1.325-.506h0c7.129,18.715,1.787,28.987,1.555,29.415a.71.71,0,0,1-1.334-.338c0-.815-2.4-4.7-3.992-7.27-.809-1.308-1.574-2.545-2.207-3.629-1.638-2.81-3.189-9.2-3.948-12.647-5.21,11.478-17.124,15.951-17.659,16.145a.71.71,0,0,1-.878-.986c2.836-5.631,2.052-12.429,1.664-14.752-2.76,1.256-12.607,6.843-20.29,25.193A.71.71,0,0,1,525.943,233.247Zm49.382-2.488" transform="translate(-523.358 -193.022)" fill="#000333"/>
        </g>
      </g>
      <g id="グループ_367" data-name="グループ 367" transform="translate(519.001 159.594)">
        <g id="パス_1148" data-name="パス 1148">
          <path id="パス_2367" data-name="パス 2367" d="M583.154,194.784" transform="translate(-583.154 -194.784)" fill="#333" stroke="#000333" stroke-linecap="round" stroke-linejoin="round" stroke-width="6.291"/>
        </g>
      </g>
      <g id="グループ_370" data-name="グループ 370" transform="translate(518.593 197.853)">
        <g id="パス_1151" data-name="パス 1151">
          <path id="パス_2368" data-name="パス 2368" d="M584.24,291.553c-1.512.5-2.567.275-1.892-.754s1.155-.971,2.13-.928,2.22,1.194,1.547,1.727S584.8,291.368,584.24,291.553Z" transform="translate(-582.14 -289.851)" fill="#ffbdad"/>
        </g>
      </g>
      <g id="グループ_371" data-name="グループ 371" transform="translate(520.145 199.275)">
        <g id="楕円形_27" data-name="楕円形 27" transform="translate(0)">
          <ellipse id="楕円形_118" data-name="楕円形 118" cx="0.419" cy="0.462" rx="0.419" ry="0.462" fill="#000333"/>
        </g>
      </g>
      <g id="グループ_383" data-name="グループ 383" transform="translate(526.718 183.539)">
        <g id="グループ_381" data-name="グループ 381">
          <g id="グループ_379" data-name="グループ 379">
            <g id="グループ_376" data-name="グループ 376" transform="translate(0 1.487)">
              <g id="パス_1156" data-name="パス 1156">
                <path id="パス_2369" data-name="パス 2369" d="M616.459,267.985a.634.634,0,0,1-.328-1.176,4.677,4.677,0,0,0,1.772-2.887,3.544,3.544,0,0,0-.524-2.947,4.7,4.7,0,0,0-3.58-1.661c-3.713-.3-6.1.2-10.424,3.887a.633.633,0,0,1-.822-.964h0c4.642-3.957,7.357-4.5,11.346-4.187a5.813,5.813,0,0,1,4.5,2.176,4.858,4.858,0,0,1,.735,3.983,5.907,5.907,0,0,1-2.347,3.683A.628.628,0,0,1,616.459,267.985Z" transform="translate(-602.33 -257.976)" fill="#000333"/>
              </g>
            </g>
            <g id="グループ_377" data-name="グループ 377" transform="translate(10.012)">
              <g id="パス_1157" data-name="パス 1157">
                <path id="パス_2370" data-name="パス 2370" d="M627.208,256.37a6.432,6.432,0,0,0,2.157-2,.143.143,0,0,1,.186-.081.145.145,0,0,1,.063.048,2.194,2.194,0,0,1,.392,2.341Z" transform="translate(-627.208 -254.282)" fill="#000333"/>
              </g>
            </g>
            <g id="グループ_378" data-name="グループ 378" transform="translate(14.587 1.951)">
              <g id="パス_1158" data-name="パス 1158">
                <path id="パス_2371" data-name="パス 2371" d="M638.575,260.352a4.964,4.964,0,0,0,1.793-1.13.223.223,0,0,1,.39.053,5.249,5.249,0,0,1-.452,4.886Z" transform="translate(-638.575 -259.13)" fill="#000333"/>
              </g>
            </g>
          </g>
          <g id="グループ_380" data-name="グループ 380" transform="translate(0.532 2.616)">
            <g id="楕円形_28" data-name="楕円形 28" transform="translate(0.71 0.71)">
              <ellipse id="楕円形_119" data-name="楕円形 119" cx="4.81" cy="6.472" rx="4.81" ry="6.472" fill="#000333"/>
            </g>
            <g id="パス_1159" data-name="パス 1159">
              <path id="パス_2372" data-name="パス 2372" d="M609.171,275.146c-3.042,0-5.519-3.222-5.519-7.182s2.476-7.182,5.519-7.182,5.519,3.221,5.519,7.182S612.215,275.146,609.171,275.146Zm0-12.945c-2.26,0-4.1,2.585-4.1,5.763s1.84,5.763,4.1,5.763,4.1-2.585,4.1-5.763S611.432,262.2,609.171,262.2Z" transform="translate(-603.652 -260.782)" fill="#000333"/>
            </g>
          </g>
        </g>
        <g id="グループ_382" data-name="グループ 382" transform="translate(4.574 7.268)">
          <g id="楕円形_29" data-name="楕円形 29">
            <ellipse id="楕円形_120" data-name="楕円形 120" cx="1.478" cy="2.53" rx="1.478" ry="2.53" fill="#fff"/>
          </g>
        </g>
      </g>
      <g id="グループ_391" data-name="グループ 391" transform="translate(497.414 183.536)">
        <g id="グループ_388" data-name="グループ 388" transform="translate(0)">
          <g id="グループ_385" data-name="グループ 385" transform="translate(0.215 1.489)">
            <g id="パス_1161" data-name="パス 1161">
              <path id="パス_2373" data-name="パス 2373" d="M532.869,267.985a.618.618,0,0,1-.326-.091,5.908,5.908,0,0,1-2.347-3.683,4.858,4.858,0,0,1,.735-3.983,5.81,5.81,0,0,1,4.5-2.176c3.993-.314,6.708.231,11.346,4.187a.633.633,0,1,1-.822.964c-4.325-3.69-6.713-4.183-10.424-3.888a4.7,4.7,0,0,0-3.58,1.661,3.549,3.549,0,0,0-.524,2.948,4.68,4.68,0,0,0,1.772,2.89.634.634,0,0,1-.338,1.172Z" transform="translate(-530.048 -257.976)" fill="#000333"/>
            </g>
          </g>
          <g id="グループ_386" data-name="グループ 386" transform="translate(4.175)">
            <g id="パス_1162" data-name="パス 1162">
              <path id="パス_2374" data-name="パス 2374" d="M542.868,256.366a6.44,6.44,0,0,1-2.156-2,.144.144,0,0,0-.185-.085.142.142,0,0,0-.068.052,2.2,2.2,0,0,0-.393,2.341Z" transform="translate(-539.888 -254.275)" fill="#000333"/>
            </g>
          </g>
          <g id="グループ_387" data-name="グループ 387" transform="translate(0 1.954)">
            <g id="パス_1163" data-name="パス 1163">
              <path id="パス_2375" data-name="パス 2375" d="M532.1,260.352a4.957,4.957,0,0,1-1.792-1.13.223.223,0,0,0-.39.053,5.246,5.246,0,0,0,.452,4.886Z" transform="translate(-529.515 -259.13)" fill="#000333"/>
            </g>
          </g>
        </g>
        <g id="グループ_389" data-name="グループ 389" transform="translate(5.598 2.619)">
          <g id="楕円形_30" data-name="楕円形 30" transform="translate(0.709 0.71)">
            <ellipse id="楕円形_121" data-name="楕円形 121" cx="4.81" cy="6.472" rx="4.81" ry="6.472" fill="#000333"/>
          </g>
          <g id="パス_1164" data-name="パス 1164">
            <path id="パス_2376" data-name="パス 2376" d="M548.944,275.146c-3.042,0-5.519-3.222-5.519-7.182s2.476-7.182,5.519-7.182,5.52,3.221,5.52,7.182S551.987,275.146,548.944,275.146Zm0-12.945c-2.26,0-4.1,2.585-4.1,5.763s1.84,5.763,4.1,5.763,4.1-2.585,4.1-5.763S551.2,262.2,548.944,262.2Z" transform="translate(-543.425 -260.782)" fill="#000333"/>
          </g>
        </g>
        <g id="グループ_390" data-name="グループ 390" transform="translate(9.638 7.271)">
          <g id="楕円形_31" data-name="楕円形 31">
            <ellipse id="楕円形_122" data-name="楕円形 122" cx="1.478" cy="2.53" rx="1.478" ry="2.53" fill="#fff"/>
          </g>
        </g>
      </g>
      <g id="グループ_392" data-name="グループ 392" transform="translate(499.921 164.845)">
        <g id="パス_1165" data-name="パス 1165" transform="translate(0)">
          <path id="パス_2377" data-name="パス 2377" d="M544.172,213.636c-.747,2.809-3.273,4.578-5.633,3.945a4.185,4.185,0,0,1-2.8-2.687v0a27.556,27.556,0,0,1,6.5-7.057A5.167,5.167,0,0,1,544.172,213.636Z" transform="translate(-535.743 -207.832)" fill="#868686"/>
        </g>
      </g>
      <g id="グループ_393" data-name="グループ 393" transform="translate(506.702 169.397)">
        <g id="楕円形_32" data-name="楕円形 32" transform="translate(0 0)">
          <ellipse id="楕円形_123" data-name="楕円形 123" cx="2.193" cy="1.845" rx="2.193" ry="1.845" transform="matrix(0.258, -0.966, 0.966, 0.258, 0, 4.237)" fill="#868686"/>
        </g>
      </g>
      <g id="グループ_394" data-name="グループ 394" transform="translate(549.821 173.212)">
        <g id="パス_1166" data-name="パス 1166" transform="translate(0)">
          <path id="パス_2378" data-name="パス 2378" d="M662.646,233.159a1.8,1.8,0,0,1-.852.213,2.4,2.4,0,0,1,0-4.749,1.661,1.661,0,0,1,.51.076A36.677,36.677,0,0,1,662.646,233.159Z" transform="translate(-659.734 -228.623)" fill="#868686"/>
        </g>
      </g>
      <g id="グループ_395" data-name="グループ 395" transform="translate(546.165 174.283)">
        <g id="楕円形_33" data-name="楕円形 33" transform="translate(0 0)">
          <ellipse id="楕円形_124" data-name="楕円形 124" cx="1.263" cy="1.035" rx="1.263" ry="1.035" transform="matrix(0.913, -0.408, 0.408, 0.913, 0, 1.032)" fill="#868686"/>
        </g>
      </g>
      <g id="グループ_396" data-name="グループ 396" transform="translate(496.129 199.487)">
        <g id="パス_1167" data-name="パス 1167" transform="translate(0)">
          <path id="パス_2379" data-name="パス 2379" d="M527.031,306.452a.71.71,0,0,1-.6-1.081c2.252-3.67.865-10.536.851-10.605a.71.71,0,0,1,1.39-.289c.063.3,1.519,7.483-1.031,11.636A.709.709,0,0,1,527.031,306.452Z" transform="translate(-526.322 -293.912)" fill="#000333"/>
        </g>
      </g>
      <g id="グループ_397" data-name="グループ 397" transform="translate(516.732 169.821)">
        <g id="パス_1168" data-name="パス 1168" transform="translate(0 0)">
          <path id="パス_2380" data-name="パス 2380" d="M578.222,239.637a.71.71,0,0,1-.437-1.266c10.076-7.856,9.645-17.351,9.64-17.447a.71.71,0,0,1,1.416-.085c.026.417.511,10.313-10.183,18.652A.7.7,0,0,1,578.222,239.637Z" transform="translate(-577.516 -220.198)" fill="#000333"/>
        </g>
      </g>
      <g id="グループ_398" data-name="グループ 398" transform="translate(544.601 167.796)">
        <g id="パス_1169" data-name="パス 1169">
          <path id="パス_2381" data-name="パス 2381" d="M646.764,215.165" transform="translate(-646.764 -215.165)" fill="#333" stroke="#000333" stroke-linecap="round" stroke-linejoin="round" stroke-width="6.291"/>
        </g>
      </g>
      <g id="グループ_401" data-name="グループ 401" transform="translate(501.348 203.272)">
        <g id="楕円形_34" data-name="楕円形 34">
          <ellipse id="楕円形_125" data-name="楕円形 125" cx="3.207" cy="1.531" rx="3.207" ry="1.531" fill="#ffbdad"/>
        </g>
      </g>
      <g id="グループ_402" data-name="グループ 402" transform="translate(533.803 203.272)">
        <g id="楕円形_35" data-name="楕円形 35">
          <ellipse id="楕円形_126" data-name="楕円形 126" cx="3.207" cy="1.531" rx="3.207" ry="1.531" fill="#ffbdad"/>
        </g>
      </g>
      <g id="グループ_1837" data-name="グループ 1837" transform="translate(517.783 205.449)">
        <path id="パス_2382" data-name="パス 2382" d="M585.3,311.122a.527.527,0,0,1-.471-.289,2.154,2.154,0,0,0-3.7,0,.527.527,0,1,1-.944-.469,3.2,3.2,0,0,1,5.588,0,.527.527,0,0,1-.471.761Z" transform="translate(-580.128 -308.725)" fill="#000931"/>
      </g>
      <g id="グループ_1838" data-name="グループ 1838" transform="translate(504.093 180.79)">
        <path id="パス_2383" data-name="パス 2383" d="M546.11,247.453a33.84,33.84,0,0,1,5.446,2.323c2.939,1.611,5.633,3.168,5.633,3.168a24.644,24.644,0,0,1-5.81-1.947A22.06,22.06,0,0,1,546.11,247.453Z" transform="translate(-546.11 -247.453)" fill="#000931"/>
      </g>
      <g id="グループ_1839" data-name="グループ 1839" transform="translate(525.768 180.79)">
        <path id="パス_2384" data-name="パス 2384" d="M611.047,247.453a33.836,33.836,0,0,0-5.447,2.323c-2.939,1.611-5.633,3.168-5.633,3.168a24.645,24.645,0,0,0,5.81-1.947A22.069,22.069,0,0,0,611.047,247.453Z" transform="translate(-599.968 -247.453)" fill="#000931"/>
      </g>
    </g>
  </g>
</svg>
