<svg xmlns="http://www.w3.org/2000/svg" xmlns:xlink="http://www.w3.org/1999/xlink" width="105" height="94" viewBox="0 0 105 94">
  <defs>
    <clipPath id="clip-path">
      <rect id="長方形_214" data-name="長方形 214" width="105" height="94" transform="translate(-7862 4063.336)" fill="#fff" stroke="#707070" stroke-width="1"/>
    </clipPath>
  </defs>
  <g id="マスクグループ_11" data-name="マスクグループ 11" transform="translate(7862 -4063.336)" clip-path="url(#clip-path)">
    <g id="怒った時" transform="translate(-8305.254 3942.314)">
      <g id="体" transform="translate(448.54 196.656)">
        <g id="下半身" transform="translate(12.8 89.556)">
          <g id="グループ_1594" data-name="グループ 1594" transform="translate(8.073)">
            <g id="グループ_1593" data-name="グループ 1593">
              <path id="パス_2020" data-name="パス 2020" d="M499.6,522.425s3.934,32.944,4.777,42.015c.8,8.56,7.387,56.368,7.387,56.368h9.492l3.752-79.91.139,1.289V520.713Z" transform="translate(-499.602 -520.713)" fill="#111"/>
            </g>
          </g>
          <g id="グループ_1596" data-name="グループ 1596" transform="translate(33.732)">
            <g id="グループ_1595" data-name="グループ 1595">
              <path id="パス_2021" data-name="パス 2021" d="M584.966,522.425s-3.935,32.944-4.777,42.015c-.8,8.56-7.387,56.368-7.387,56.368H563.31l-3.752-79.91-.139,1.289V520.713Z" transform="translate(-559.42 -520.713)" fill="#111"/>
            </g>
          </g>
          <g id="グループ_1597" data-name="グループ 1597" transform="translate(0 97.653)">
            <path id="パス_2022" data-name="パス 2022" d="M484.185,761.4h25.308a1.845,1.845,0,0,0,1.845-1.845v-9.345l-17.93-1.787q-.52-.052-1.043-.052h0a11.646,11.646,0,0,0-10.494,6.594l-.751,1.559A3.4,3.4,0,0,0,484.185,761.4Z" transform="translate(-480.78 -748.373)"/>
          </g>
          <g id="グループ_1598" data-name="グループ 1598" transform="translate(36.514 97.653)">
            <path id="パス_2023" data-name="パス 2023" d="M593.059,761.4H567.751a1.845,1.845,0,0,1-1.845-1.845v-9.345l17.93-1.787c.346-.035.695-.052,1.043-.052h0a11.646,11.646,0,0,1,10.494,6.594l.751,1.559A3.4,3.4,0,0,1,593.059,761.4Z" transform="translate(-565.906 -748.373)"/>
          </g>
        </g>
        <g id="上半身" transform="translate(0)">
          <g id="グループ_1599" data-name="グループ 1599" transform="translate(4.27 74.46)">
            <path id="パス_2024" data-name="パス 2024" d="M462.567,491.039s-.861,3.5,1.331,3.915,10.077,0,10.077,0l4.539-6.786-5.951-1.148Z" transform="translate(-461.754 -486.376)" fill="#2c4e88"/>
            <path id="パス_2025" data-name="パス 2025" d="M466.661,494.926a24.375,24.375,0,0,1-3.744-.2,2.257,2.257,0,0,1-1.516-1.011,5.416,5.416,0,0,1-.32-3.69.642.642,0,0,1,.385-.443l10-4.02a.637.637,0,0,1,.362-.035l5.951,1.148a.644.644,0,0,1,.413.99l-4.539,6.786a.644.644,0,0,1-.5.285C472.936,494.751,469.583,494.926,466.661,494.926Zm-4.393-4.276a3.827,3.827,0,0,0,.217,2.375.959.959,0,0,0,.673.441c1.847.351,8.108.077,9.6.005l3.82-5.711-4.813-.929Z" transform="translate(-460.893 -485.519)" fill="#000931"/>
          </g>
          <g id="グループ_1600" data-name="グループ 1600" transform="translate(9.844 77.581)">
            <path id="パス_2026" data-name="パス 2026" d="M475.429,499.277s-.776,12.368,5.41,12.76l-.422-8.7,3.784,3.5,2.541-12.539Z" transform="translate(-474.75 -493.653)" fill="#fcecda"/>
            <path id="パス_2027" data-name="パス 2027" d="M479.977,511.823h-.041c-6.75-.427-6.044-12.911-6.011-13.442a.644.644,0,0,1,.383-.549l11.312-4.981a.644.644,0,0,1,.89.717l-2.542,12.54a.643.643,0,0,1-1.067.344l-2.628-2.43.346,7.127a.643.643,0,0,1-.643.675Zm-4.784-12.975a28.47,28.47,0,0,0,.4,5.708c.63,3.4,1.876,5.366,3.707,5.863l-.384-7.907a.644.644,0,0,1,1.08-.5l2.943,2.722,2.068-10.2Z" transform="translate(-473.889 -492.796)" fill="#000931"/>
          </g>
          <g id="グループ_1601" data-name="グループ 1601" transform="translate(13.084 9.426)">
            <path id="パス_2028" data-name="パス 2028" d="M539.857,334.9a20.906,20.906,0,0,1,2.248,1.51c.663.578,4.016,8.2,3.494,13.106s1.319,56.688,1.319,56.688.739,7.973-5.447,8.81-45.3-3.094-45.3-3.094-13-8.874-13.624-18.009,1.78-38.444,1.78-38.444l6.363-17.337,10.648-3.23Z" transform="translate(-482.011 -334.475)" fill="#2c4e88"/>
            <path id="パス_2029" data-name="パス 2029" d="M538.251,414.992c-10.588,0-41.257-3.067-42.7-3.212a.437.437,0,0,1-.2-.072c-.537-.368-13.177-9.1-13.81-18.334-.621-9.062,1.756-38.215,1.781-38.509a.424.424,0,0,1,.025-.113l6.363-17.337a.429.429,0,0,1,.278-.263l10.649-3.23a.435.435,0,0,1,.124-.018h38.523a.431.431,0,0,1,.218.059,20.922,20.922,0,0,1,2.312,1.556c.855.746,4.166,8.515,3.639,13.475-.513,4.821,1.3,56.11,1.321,56.628a12.954,12.954,0,0,1-.419,4.222c-.82,2.922-2.687,4.661-5.4,5.028A22.291,22.291,0,0,1,538.251,414.992Zm-42.5-4.054c2.315.23,39.189,3.886,45.094,3.084,2.373-.321,3.948-1.8,4.681-4.388a12.336,12.336,0,0,0,.4-3.957c-.077-2.14-1.838-51.892-1.319-56.773a26.411,26.411,0,0,0-3.351-12.74,19.088,19.088,0,0,0-2.082-1.4H500.828l-10.383,3.15-6.269,17.081c-.12,1.472-2.379,29.516-1.775,38.322C482.98,401.751,494.614,410.137,495.751,410.937Z" transform="translate(-481.442 -333.904)" fill="#000931"/>
          </g>
          <g id="グループ_1602" data-name="グループ 1602" transform="translate(75.913 15.701)">
            <path id="パス_2030" data-name="パス 2030" d="M627.915,348.534" transform="translate(-627.915 -348.534)" fill="#2c4e88" stroke="#000931" stroke-linecap="round" stroke-linejoin="round" stroke-width="3"/>
          </g>
          <g id="グループ_1603" data-name="グループ 1603" transform="translate(64.085 31.96)">
            <path id="パス_2031" data-name="パス 2031" d="M600.34,386.439" transform="translate(-600.34 -386.439)" fill="#2c4e88" stroke="#000931" stroke-linecap="round" stroke-linejoin="round" stroke-width="3"/>
          </g>
          <g id="グループ_1604" data-name="グループ 1604" transform="translate(0 13.805)">
            <path id="パス_2032" data-name="パス 2032" d="M480.585,360.119,478.8,370.825v27.248s-12.058,10.022-13.546,11.2-9.161,1.331-10.805,1.018-2.007-5.257-2.007-5.257c.952-5.969,3.809-13.691,4.435-26.22s5.055-27.082,10.52-31.545l7.6-1.654,4.509,5.481" transform="translate(-451.795 -344.97)" fill="#2c4e88"/>
            <path id="パス_2033" data-name="パス 2033" d="M456.181,410.216a17.425,17.425,0,0,1-2.712-.152c-1.976-.377-2.436-4.567-2.529-5.841a.638.638,0,0,1,.006-.149c.3-1.855.764-3.834,1.3-6.125a103.452,103.452,0,0,0,3.124-20.026c.758-15.158,6.064-28.179,10.756-32.012a.644.644,0,0,1,.27-.13l7.6-1.654a.643.643,0,0,1,.634.22l4.509,5.481a.643.643,0,1,1-.993.818l-4.259-5.178L466.828,347c-4.974,4.218-9.522,18.045-10.169,30.983a104.62,104.62,0,0,1-3.156,20.256c-.528,2.235-.985,4.17-1.274,5.958.166,2.088.807,4.47,1.481,4.6,1.764.335,9.109.038,10.286-.891,1.35-1.066,11.618-9.6,13.3-10.993V369.968a.677.677,0,0,1,.009-.106l1.788-10.706a.643.643,0,0,1,1.269.212l-1.779,10.654v27.195a.643.643,0,0,1-.232.495c-.493.41-12.081,10.041-13.558,11.207-.769.607-2.687,1.012-5.7,1.2C458.1,410.185,457.09,410.216,456.181,410.216Z" transform="translate(-450.939 -344.113)" fill="#000931"/>
          </g>
          <g id="グループ_1605" data-name="グループ 1605" transform="translate(72.858 74.46)">
            <path id="パス_2034" data-name="パス 2034" d="M638.242,491.039s.861,3.5-1.331,3.915-10.078,0-10.078,0l-4.538-6.786,5.951-1.148Z" transform="translate(-621.651 -486.376)" fill="#2c4e88"/>
            <path id="パス_2035" data-name="パス 2035" d="M632.43,494.926c-2.922,0-6.275-.175-6.488-.186a.644.644,0,0,1-.5-.285l-4.538-6.786a.643.643,0,0,1,.413-.99l5.951-1.148a.637.637,0,0,1,.362.035l10,4.02a.642.642,0,0,1,.385.443,5.415,5.415,0,0,1-.319,3.69,2.258,2.258,0,0,1-1.516,1.011A24.368,24.368,0,0,1,632.43,494.926Zm-6.1-1.455c1.493.072,7.755.346,9.6-.005a.96.96,0,0,0,.673-.441,3.828,3.828,0,0,0,.217-2.375l-9.5-3.819-4.813.929Z" transform="translate(-620.795 -485.519)" fill="#000931"/>
          </g>
          <g id="グループ_1606" data-name="グループ 1606" transform="translate(72.053 77.581)">
            <path id="パス_2036" data-name="パス 2036" d="M631.73,499.277s1.584,12.368-4.6,12.76l-.386-8.7-3.39,4.62-2.934-13.66Z" transform="translate(-619.774 -493.653)" fill="#fcecda"/>
            <path id="パス_2037" data-name="パス 2037" d="M626.272,511.823a.644.644,0,0,1-.643-.615l-.3-6.874-2.31,3.148a.643.643,0,0,1-1.147-.245l-2.935-13.661a.644.644,0,0,1,.888-.724l11.313,4.981a.644.644,0,0,1,.379.507c.043.335,1.018,8.251-1.9,11.785a4.5,4.5,0,0,1-3.3,1.7Zm-.386-9.986a.633.633,0,0,1,.187.027.644.644,0,0,1,.456.587l.354,7.986a3.231,3.231,0,0,0,1.736-1.132c2.244-2.717,1.8-8.9,1.654-10.446l-9.819-4.323,2.37,11.029,2.543-3.466A.642.642,0,0,1,625.886,501.838Z" transform="translate(-618.918 -492.797)" fill="#000931"/>
          </g>
          <g id="グループ_1607" data-name="グループ 1607" transform="translate(64.891 10.648)">
            <path id="パス_2038" data-name="パス 2038" d="M603.927,355.916l1.787,10.707v27.248s12.058,10.022,13.546,11.2,9.161,1.331,10.805,1.018,2.813-5.216,2.813-5.216c-.872-6.7-4.614-13.732-5.241-26.26s-5.055-27.082-10.52-31.545l-7.6-4.81-5.8,2.76" transform="translate(-603.076 -337.611)" fill="#2c4e88"/>
            <path id="パス_2039" data-name="パス 2039" d="M626.618,406.013c-.909,0-1.924-.03-2.911-.093-3.014-.192-4.932-.6-5.7-1.2-1.477-1.166-13.066-10.8-13.558-11.207a.644.644,0,0,1-.232-.495V365.819l-1.778-10.654a.643.643,0,0,1,1.269-.212l1.787,10.706a.67.67,0,0,1,.009.106v26.946c1.683,1.4,11.951,9.927,13.3,10.993,1.177.93,8.521,1.228,10.286.891.724-.138,1.752-2.477,2.28-4.619a56.161,56.161,0,0,0-1.824-7.683,77.312,77.312,0,0,1-3.4-18.51c-.651-13.013-5.247-26.926-10.255-31.055l-7.268-4.6-5.477,2.608a.643.643,0,1,1-.553-1.162l5.8-2.76a.641.641,0,0,1,.62.037l7.6,4.81a.584.584,0,0,1,.063.045c4.692,3.832,10,16.853,10.756,32.012a75.212,75.212,0,0,0,3.357,18.223,56.023,56.023,0,0,1,1.879,7.986.642.642,0,0,1-.012.232c-.3,1.245-1.413,5.336-3.318,5.7A17.427,17.427,0,0,1,626.618,406.013Z" transform="translate(-602.219 -336.754)" fill="#000931"/>
          </g>
          <g id="グループ_1608" data-name="グループ 1608" transform="translate(16.184 82.349)">
            <path id="パス_2040" data-name="パス 2040" d="M491.655,505.459c-1.853,1.489-3.576,6.656.574,8.222s4.15.47,12.136,1.8,21.767,1.1,28.344.7,16.991-.313,17.97-3.523-.1-5.284-1.919-5.226-25.682-1.979-25.682-1.979l-28.266-.547Z" transform="translate(-489.241 -504.483)" fill="#2c4e88"/>
            <path id="パス_2041" data-name="パス 2041" d="M520.815,516.353a115.2,115.2,0,0,1-17.092-1.019,56.453,56.453,0,0,0-6.987-.781,14.232,14.232,0,0,1-5.23-1.042,4.065,4.065,0,0,1-2.774-3.277,6.667,6.667,0,0,1,2.082-5.681.426.426,0,0,1,.2-.088l3.158-.547a.47.47,0,0,1,.081-.006l28.266.547c.266.022,23.884,2.017,25.659,1.979a2.358,2.358,0,0,1,2.021.953c.815,1.064.932,2.823.322,4.826-.922,3.026-8.529,3.369-15.24,3.672-1.093.049-2.146.1-3.114.154C529.185,516.221,525.114,516.353,520.815,516.353ZM491.27,505.291a5.945,5.945,0,0,0-1.69,4.808,3.221,3.221,0,0,0,2.229,2.609,13.386,13.386,0,0,0,4.974.988,57.2,57.2,0,0,1,7.082.791c7.721,1.287,21.124,1.124,28.248.7.972-.058,2.029-.105,3.126-.155,5.787-.261,13.713-.619,14.459-3.066.521-1.709.453-3.225-.182-4.054a1.562,1.562,0,0,0-1.312-.618l-.1,0c-2.4,0-24.676-1.9-25.637-1.982l-28.2-.544Z" transform="translate(-488.669 -503.912)" fill="#000931"/>
          </g>
          <g id="グループ_1609" data-name="グループ 1609" transform="translate(14.911 47.387)">
            <path id="パス_2042" data-name="パス 2042" d="M495.742,432.924c0,5.81.507,11.037-2.254,11.037s-7.745-5.226-7.745-11.037c0-2.329-.228-6.194.38-7.938.91-2.605,2.965-2.583,4.619-2.583C493.5,422.4,495.742,427.114,495.742,432.924Z" transform="translate(-485.701 -422.404)" fill="#1c3b69"/>
          </g>
          <g id="グループ_1610" data-name="グループ 1610" transform="translate(67.112 48.527)">
            <path id="パス_2043" data-name="パス 2043" d="M617.4,435.587c0,5.81-2.239,10.521-5,10.521s-5-4.71-5-10.521,2.238-10.521,5-10.521c1.9,0,4.152-.265,5,3.005C617.785,429.566,617.4,433.764,617.4,435.587Z" transform="translate(-607.399 -425.061)" fill="#1c3b69"/>
          </g>
          <g id="グループ_1611" data-name="グループ 1611" transform="translate(23.279 4.781)">
            <path id="パス_2044" data-name="パス 2044" d="M506.709,329.528s10.28-5,16.493-4.952,20.412,1.768,21.977,2.969-11.5,19.492-16.516,18.333-20.754-11.338-20.754-11.338Z" transform="translate(-506.066 -323.932)" fill="#fcecda"/>
            <path id="パス_2045" data-name="パス 2045" d="M528.27,345.714a2.713,2.713,0,0,1-.607-.066c-5.068-1.172-20.313-11.007-20.959-11.425a.644.644,0,0,1-.277-.39l-1.2-5.011a.644.644,0,0,1,.344-.728c.423-.206,10.393-5.017,16.69-5.017h.089c5.662.041,20.479,1.656,22.365,3.1.715.549.3,1.717-.209,2.787C542.413,333.4,533.269,345.714,528.27,345.714Zm-20.651-12.433c1.9,1.221,15.8,10.064,20.334,11.113.646.151,2.21-.044,5.435-3.013,5.135-4.728,10.345-12.711,10.424-14.258-1.849-1-15.052-2.713-21.471-2.76h-.08c-5.258,0-13.608,3.716-15.661,4.668Z" transform="translate(-505.21 -323.075)" fill="#000931"/>
          </g>
          <g id="グループ_1612" data-name="グループ 1612" transform="translate(14.581 26.608)">
            <path id="パス_2046" data-name="パス 2046" d="M546.339,375.463c.779,9.918.523,15.646-.948,21.139l-.952,18.833c2.16,6.676,5.149,6.943,3.936,13.491S542,436.671,542,436.671a85.047,85.047,0,0,1-22.317,2.879h-4.172a85.048,85.048,0,0,1-22.317-2.879s-5.167-1.191-6.375-7.745.592-6.142,2.753-12.818l-.054-17.51c-.742-5.064-3.278-14.695-2.125-23.135" transform="translate(-485.786 -374.819)" fill="#2c4e88"/>
            <path id="パス_2047" data-name="パス 2047" d="M513.767,439.342a86.8,86.8,0,0,1-21.608-2.91c-.192-.043-5.557-1.356-6.827-8.246-.863-4.658-.227-6.029.928-8.519a37.668,37.668,0,0,0,1.814-4.517l-.053-17.361c-.157-1.059-.389-2.306-.657-3.745-1.006-5.4-2.383-12.785-1.462-19.525a.643.643,0,1,1,1.275.175c-.893,6.534.462,13.805,1.452,19.115.275,1.473.511,2.745.672,3.839a.6.6,0,0,1,.007.091l.054,17.51a.646.646,0,0,1-.031.2,38.529,38.529,0,0,1-1.9,4.759c-1.111,2.4-1.618,3.489-.829,7.744,1.119,6.068,5.839,7.224,5.887,7.235a85.33,85.33,0,0,0,22.164,2.862h4.18a85.318,85.318,0,0,0,22.136-2.853c.228-.055,4.811-1.212,5.923-7.244.728-3.927-.123-5.424-1.409-7.689a27.309,27.309,0,0,1-2.506-5.487.64.64,0,0,1-.03-.231l.952-18.833a.643.643,0,0,1,.021-.133c1.449-5.415,1.7-11.085.927-20.922a.643.643,0,0,1,1.283-.1c.783,9.958.525,15.74-.95,21.29l-.942,18.647a25.917,25.917,0,0,0,2.364,5.136c1.376,2.421,2.37,4.171,1.556,8.559-1.27,6.889-6.636,8.2-6.863,8.255a86.85,86.85,0,0,1-22.469,2.895h-4.164Q514.21,439.342,513.767,439.342Z" transform="translate(-484.931 -373.962)" fill="#000931"/>
          </g>
          <g id="グループ_1613" data-name="グループ 1613" transform="translate(46.142)">
            <path id="パス_2048" data-name="パス 2048" d="M560.01,339.651s15.294-15.973,14.825-17.434-2.923-3.132-8.665-3.028l-2.062-1.879a33.525,33.525,0,0,1,3.8-1.449c3.115-1.078,10.636-3.144,12.645-2.2a7.171,7.171,0,0,1,3.785,5.116c.313,1.983,1.461,1.879,2.088,3.132s1.253,3.416,0,4.631-5.638,2.573-7.935,4.348S566.378,339.86,560.01,339.651Z" transform="translate(-559.367 -312.779)" fill="#2c4e88"/>
            <path id="パス_2049" data-name="パス 2049" d="M559.423,339.449c-.1,0-.194,0-.291,0a.643.643,0,0,1-.443-1.088c6.927-7.235,14.218-15.443,14.644-16.883-.413-1.013-2.511-2.6-8.008-2.49a.654.654,0,0,1-.445-.168l-2.062-1.879a.643.643,0,0,1,.126-1.041,33.463,33.463,0,0,1,3.895-1.492c.1-.035,10.347-3.482,13.128-2.179a7.832,7.832,0,0,1,4.147,5.6,2.368,2.368,0,0,0,.98,1.692,3.89,3.89,0,0,1,1.048,1.253c.856,1.711,1.272,4.023-.127,5.38a14.885,14.885,0,0,1-3.622,2.025,24.679,24.679,0,0,0-4.366,2.37C576.08,332.045,566.153,339.449,559.423,339.449Zm6.413-21.758c7.077,0,8.488,2.65,8.754,3.479.172.534.406,1.266-7.371,9.893-2.508,2.782-5.065,5.506-6.481,7,6.429-.889,15.418-7.709,16.5-8.544A25.434,25.434,0,0,1,581.851,327a15.047,15.047,0,0,0,3.267-1.781c.9-.875.495-2.638-.127-3.881a2.708,2.708,0,0,0-.741-.856,3.62,3.62,0,0,1-1.407-2.463,6.57,6.57,0,0,0-3.421-4.633c-1.566-.732-8.186.854-12.162,2.23-1.384.478-2.276.814-2.838,1.037l1.137,1.036Zm7.511,3.722Z" transform="translate(-558.51 -311.93)" fill="#000931"/>
          </g>
          <g id="グループ_1614" data-name="グループ 1614" transform="translate(16.928 2.23)">
            <path id="パス_2050" data-name="パス 2050" d="M497.523,334.379c4.214,1.683,23.111,8.248,23.111,8.248s-20.718-12.988-17.513-16.756,9.423-4.478,10.416-4.692-3.673-2.551-8.057-2.551-13.883,7.588-13.57,9.989A10.409,10.409,0,0,0,497.523,334.379Z" transform="translate(-491.259 -317.986)" fill="#2c4e88"/>
            <path id="パス_2051" data-name="パス 2051" d="M519.777,342.414a.647.647,0,0,1-.211-.036c-.189-.066-18.959-6.589-23.138-8.258a10.982,10.982,0,0,1-5.983-6.15.6.6,0,0,1-.029-.125c-.1-.788.407-1.807,1.557-3.118,2.72-3.1,9-7.6,12.65-7.6,3.58,0,8.7,1.742,8.831,3.005a.757.757,0,0,1-.639.818c-.107.023-.273.052-.487.089-1.694.293-6.849,1.186-9.573,4.39a.845.845,0,0,0-.166.739c.57,3.691,12.848,12.119,17.531,15.055a.643.643,0,0,1-.342,1.189ZM491.69,327.627a9.843,9.843,0,0,0,5.215,5.3h0c2.806,1.12,12.275,4.458,18.179,6.525-5.237-3.589-13.227-9.583-13.767-13.084a2.142,2.142,0,0,1,.458-1.769c2.65-3.116,7.2-4.235,9.5-4.675a17.244,17.244,0,0,0-6.652-1.507c-2.906,0-8.852,3.937-11.683,7.161C491.821,326.851,491.7,327.452,491.69,327.627Z" transform="translate(-490.403 -317.129)" fill="#000931"/>
          </g>
          <g id="グループ_1615" data-name="グループ 1615" transform="translate(40.863 2.873)">
            <path id="パス_2052" data-name="パス 2052" d="M557.972,318.629v6.146s-1.89,1.1-6.209,1.1-5.559-1.1-5.559-1.1v-6.146h11.768" transform="translate(-546.204 -318.629)" fill="#f6beb0"/>
          </g>
          <g id="グループ_1616" data-name="グループ 1616" transform="translate(36.99 11.245)">
            <path id="パス_2053" data-name="パス 2053" d="M542.033,341.381a.425.425,0,0,1-.2-.051l-4.429-2.377a.429.429,0,1,1,.405-.756l4.429,2.377a.429.429,0,0,1-.2.807Z" transform="translate(-537.175 -338.146)" fill="#000931"/>
          </g>
          <g id="グループ_1617" data-name="グループ 1617" transform="translate(50.454 11.245)">
            <path id="パス_2054" data-name="パス 2054" d="M568.992,341.381a.429.429,0,0,1-.2-.807l4.43-2.377a.429.429,0,1,1,.405.756l-4.429,2.377A.426.426,0,0,1,568.992,341.381Z" transform="translate(-568.563 -338.147)" fill="#000931"/>
          </g>
          <g id="グループ_1618" data-name="グループ 1618" transform="translate(43.005 26.081)">
            <path id="パス_2055" data-name="パス 2055" d="M557,384.487a7.256,7.256,0,0,1-2.252-.408c-1.878-.634-3.7-1.906-3.546-3.318.14-1.259,1.565-7.346,2.459-7.914a.732.732,0,0,1,.459-.111l2.5.052a.644.644,0,0,1,.586.408c.539,1.372,3.167,8.318,1.969,10.316A2.382,2.382,0,0,1,557,384.487Zm-2.656-10.459a36.092,36.092,0,0,0-1.862,6.875c-.047.423.949,1.373,2.679,1.956,1.38.466,2.633.462,2.916-.009.616-1.029-.7-5.616-1.909-8.785Zm-.479-.038h0Zm0,0h0Zm0,0h0Zm0,0h0Zm0,0h0Zm0,0h0Z" transform="translate(-551.196 -372.732)" fill="#000931"/>
          </g>
          <g id="グループ_1619" data-name="グループ 1619" transform="translate(45.801 28.954)">
            <path id="パス_2056" data-name="パス 2056" d="M558.7,379.449c.785-.16,1.475.7,1.514,2.173s.2,2.7-1.292,2.33a1.673,1.673,0,0,1-1.135-2.225C557.864,381.23,557.929,379.605,558.7,379.449Z" transform="translate(-557.715 -379.43)" fill="#000931"/>
          </g>
          <g id="グループ_1620" data-name="グループ 1620" transform="translate(43.377 35.528)">
            <path id="パス_2057" data-name="パス 2057" d="M552.75,451.174a.643.643,0,0,1-.642-.612c-.165-3.335.162-17.576.378-27,.069-2.977.125-5.445.15-6.885.1-5.89.72-21.149.726-21.3a.643.643,0,1,1,1.286.052c-.006.153-.622,15.4-.725,21.273-.025,1.441-.082,3.912-.15,6.891-.216,9.405-.542,23.618-.38,26.907a.644.644,0,0,1-.611.674Z" transform="translate(-552.063 -394.758)" fill="#000931"/>
          </g>
          <g id="グループ_1621" data-name="グループ 1621" transform="translate(47.674 36.526)">
            <path id="パス_2058" data-name="パス 2058" d="M562.731,452.5a.643.643,0,0,1-.643-.638c-.025-2.857.032-9.3.1-16.756.131-14.718.311-34.876-.09-37.275a.643.643,0,0,1,1.269-.212c.419,2.511.247,21.911.108,37.5-.067,7.452-.124,13.888-.1,16.733a.644.644,0,0,1-.638.649Z" transform="translate(-562.082 -397.085)" fill="#000931"/>
          </g>
          <g id="グループ_1622" data-name="グループ 1622" transform="translate(39.772 2.073)">
            <path id="パス_2059" data-name="パス 2059" d="M544.3,323.465a.644.644,0,0,1-.643-.643v-5.415a.643.643,0,0,1,1.287,0v5.415A.643.643,0,0,1,544.3,323.465Z" transform="translate(-543.659 -316.763)" fill="#000931"/>
          </g>
          <g id="グループ_1623" data-name="グループ 1623" transform="translate(51.988 2.23)">
            <path id="パス_2060" data-name="パス 2060" d="M572.783,324.353a.643.643,0,0,1-.643-.643v-5.937a.643.643,0,1,1,1.287,0v5.937A.644.644,0,0,1,572.783,324.353Z" transform="translate(-572.14 -317.129)" fill="#000931"/>
          </g>
          <g id="グループ_1624" data-name="グループ 1624" transform="translate(52.767 67.897)">
            <path id="パス_2061" data-name="パス 2061" d="M593.732,479.218a1.884,1.884,0,0,1-.8,1.024c-1.982,1.047-4.855-.673-7.673.162a20.6,20.6,0,0,1-9.916,0c-2.979-.785-1.2-3.864,5.584-5.429s6.153-5.445,9.237-4.649a4.207,4.207,0,0,1,1.871,1.052,25.758,25.758,0,0,0,1.458,7.3C593.576,478.856,593.654,479.034,593.732,479.218Z" transform="translate(-573.955 -470.22)" fill="#1c3b69"/>
          </g>
          <g id="グループ_1625" data-name="グループ 1625" transform="translate(32.292 7.028)">
            <path id="パス_2062" data-name="パス 2062" d="M526.222,328.315" transform="translate(-526.222 -328.315)" fill="#2c4e88" stroke="#000931" stroke-linecap="round" stroke-linejoin="round" stroke-width="3"/>
          </g>
        </g>
      </g>
      <g id="顔" transform="translate(458.043 123.746)">
        <g id="グループ_1631" data-name="グループ 1631" transform="translate(0 0)">
          <g id="グループ_1627" data-name="グループ 1627" transform="translate(0.645 0.634)">
            <g id="グループ_1626" data-name="グループ 1626">
              <path id="パス_2063" data-name="パス 2063" d="M539.818,203.341l2.576-2.753a2.24,2.24,0,0,0,.686-2.614l-1.847-8.344a20.045,20.045,0,0,1,6.983.769c-1.97-6.259-5.027-12.111-8.068-17.925a27.037,27.037,0,0,1,6.806,4.615c.3-1.3-.477-2.575-1.217-3.682-3.766-5.624-7.568-11.292-12.409-16.022l8.234-1.489c-3.265-1.13-6.836-.588-10.289-.721a1.77,1.77,0,0,1-.883-.195,1.9,1.9,0,0,1-.641-.955,31.408,31.408,0,0,0-7.192-10.6c1.059,2.975-.063,6.975,0,10.132l-1.482-.608a100.052,100.052,0,0,0-17.061-6.9,21.473,21.473,0,0,1,6.032,7.518c-8.556-1.539-17.573-2.1-25.77.788a25.5,25.5,0,0,0,8.268,3.118,54.488,54.488,0,0,0-10.185,5.861,23.872,23.872,0,0,0-7.442,8.968,20.024,20.024,0,0,0,6.133-1.586,9.146,9.146,0,0,1-1.241,4.775c-2.583,5.627-4.725,11.555-5.21,17.728l3.831-2.78q.7,4.673,1.348,9.354c.6.027,1.678-.928,1.959-1.457Z" transform="translate(-474.597 -143.431)" fill="#7b5f32"/>
            </g>
          </g>
          <g id="グループ_1630" data-name="グループ 1630">
            <g id="グループ_1629" data-name="グループ 1629">
              <g id="グループ_1628" data-name="グループ 1628">
                <path id="パス_2064" data-name="パス 2064" d="M539.413,202.952c1.319-1.41,3.662-3.006,3.572-5.148-.126-2.994-1.344-6.266-1.992-9.188l-.62.815a21.634,21.634,0,0,1,6.812.746.649.649,0,0,0,.791-.792,116.578,116.578,0,0,0-8.133-18.079l-.88.881a28.794,28.794,0,0,1,6.675,4.515.652.652,0,0,0,1.1-.455c.184-1.821-.747-3.166-1.724-4.631-1.253-1.88-2.52-3.752-3.831-5.592a75.659,75.659,0,0,0-8.26-9.935l-.284,1.075,8.234-1.489c.659-.119.563-1.067,0-1.241a19.162,19.162,0,0,0-5.617-.759c-1.119-.007-2.238.038-3.357.038a2.547,2.547,0,0,1-2.882-1.839,32.711,32.711,0,0,0-6.865-9.74.648.648,0,0,0-1.075.626c.981,3.245-.012,6.655-.023,9.961l.815-.621c-2.788-1.143-5.441-2.6-8.219-3.774a104.77,104.77,0,0,0-10.323-3.737c-.585-.179-1.135.661-.626,1.075a22.316,22.316,0,0,1,5.932,7.389l.727-.945c-8.677-1.529-17.646-2.086-26.113.788a.652.652,0,0,0-.154,1.176,27.994,27.994,0,0,0,8.421,3.183l-.154-1.176c-7.172,3.378-14.351,7.611-17.858,15.06-.183.389.024,1.029.555.968a23.156,23.156,0,0,0,6.3-1.609l-.815-.62c.106,2.377-1.186,4.455-2.1,6.574-.687,1.6-1.331,3.21-1.9,4.85a46.122,46.122,0,0,0-2.45,11.079.647.647,0,0,0,.968.555l3.83-2.78-.945-.385q.7,4.674,1.348,9.354c.051.364.488.506.791.449a3.05,3.05,0,0,0,1.382-.685c.2-.16,1.173-.978.422-.746a2.091,2.091,0,0,1,.661.057c1.163.139,2.341.2,3.508.3l13.594,1.171,32.475,2.8,7.829.674c.825.071.82-1.216,0-1.287l-50.851-4.379-7.232-.623a.647.647,0,0,0-.556.319,2.627,2.627,0,0,1-1.574,1.161l.791.449q-.649-4.681-1.348-9.354a.646.646,0,0,0-.945-.385l-3.831,2.78.968.556a46.4,46.4,0,0,1,2.933-12.195c1.215-3.227,3.677-6.747,3.518-10.308-.017-.371-.406-.79-.815-.62a21.858,21.858,0,0,1-5.961,1.563l.555.969c3.42-7.263,10.41-11.309,17.4-14.6a.65.65,0,0,0-.154-1.176,26.924,26.924,0,0,1-8.114-3.053l-.154,1.176c8.249-2.8,16.972-2.278,25.428-.788a.653.653,0,0,0,.727-.945,23.119,23.119,0,0,0-6.133-7.648l-.626,1.075a101.954,101.954,0,0,1,11.487,4.244c2.374,1.05,4.655,2.283,7.056,3.267a.647.647,0,0,0,.814-.62c.011-3.44,1-6.926-.023-10.3l-1.075.626a32.091,32.091,0,0,1,4.627,5.7,31.574,31.574,0,0,1,1.578,2.81,14.308,14.308,0,0,0,1.239,2.623c.932,1.161,2.629.832,3.958.818a25.22,25.22,0,0,1,7.886.683v-1.241l-8.234,1.489a.648.648,0,0,0-.284,1.075,71.84,71.84,0,0,1,7.62,9.063c1.029,1.425,2.024,2.874,3.009,4.33,1.139,1.682,3.025,3.71,2.809,5.856l1.1-.455a30.057,30.057,0,0,0-6.936-4.716.649.649,0,0,0-.881.881,114.54,114.54,0,0,1,8,17.771l.792-.791a22.724,22.724,0,0,0-7.154-.792.654.654,0,0,0-.621.815l1.478,6.675c.365,1.649.421,2.754-.667,4.207a28.269,28.269,0,0,1-2.061,2.2C537.938,202.647,538.846,203.559,539.413,202.952Z" transform="translate(-473.092 -141.954)" fill="#000931"/>
              </g>
            </g>
          </g>
        </g>
        <g id="グループ_1637" data-name="グループ 1637" transform="translate(8.401 20.12)">
          <g id="グループ_1634" data-name="グループ 1634">
            <g id="グループ_1632" data-name="グループ 1632" transform="translate(0.634 0.656)">
              <path id="パス_2065" data-name="パス 2065" d="M522.189,190.772S496.035,184.2,496.874,225.6c-4.056,4.056-4.336,12.587,4.475,12.308,6.154,11.189,33.823,9,40.537.747,10.618-.61,8.97-12.876,4.76-11.045C552.458,185.262,522.189,190.772,522.189,190.772Z" transform="translate(-494.156 -190.39)" fill="#fcecda"/>
            </g>
            <g id="グループ_1633" data-name="グループ 1633">
              <path id="パス_2066" data-name="パス 2066" d="M519.655,245.35c-1.284,0-2.57-.055-3.844-.17-7.636-.69-13.18-3.347-15.674-7.5h-.05c-4.552,0-6.258-2.336-6.874-3.758-1.224-2.828-.29-6.843,2.168-9.454-.27-15.37,3.119-25.971,10.075-31.509a19.679,19.679,0,0,1,15.909-3.716c1.329-.214,11.187-1.515,18.412,5.4,6.366,6.094,8.646,16.611,6.783,31.264a2.45,2.45,0,0,1,1.776.7c1.373,1.291,1.751,4.072.879,6.469-1.124,3.093-3.979,5.024-7.857,5.327C537.751,242.557,528.763,245.349,519.655,245.35Zm-19.15-8.963a.644.644,0,0,1,.564.333c2.178,3.96,7.454,6.509,14.857,7.177,10.086.912,20.9-1.956,24.617-6.526a.64.64,0,0,1,.462-.236c4.768-.274,6.433-2.938,7-4.5.775-2.134.328-4.265-.552-5.092a1.181,1.181,0,0,0-1.4-.22.644.644,0,0,1-.894-.678c2.017-14.691-.092-25.142-6.268-31.063-7.114-6.82-17.335-5.07-17.437-5.051a.641.641,0,0,1-.271-.009c-.081-.021-8.171-1.952-14.946,3.455-6.655,5.311-9.875,15.651-9.57,30.733a.642.642,0,0,1-.188.468c-2.249,2.25-3.148,5.789-2.091,8.233.886,2.046,2.988,3.076,6.091,2.977Z" transform="translate(-492.677 -188.86)" fill="#000931"/>
            </g>
          </g>
          <g id="グループ_1636" data-name="グループ 1636" transform="translate(2.748 35.643)">
            <g id="グループ_1635" data-name="グループ 1635" transform="translate(0 0)">
              <rect id="長方形_215" data-name="長方形 215" width="1.287" height="13.096" transform="matrix(0.94, -0.342, 0.342, 0.94, 0, 0.44)" fill="#000931"/>
            </g>
          </g>
        </g>
        <g id="グループ_1642" data-name="グループ 1642" transform="translate(5.887 12.523)">
          <g id="グループ_1639" data-name="グループ 1639">
            <g id="グループ_1638" data-name="グループ 1638">
              <path id="パス_2067" data-name="パス 2067" d="M490.984,212.262a17.63,17.63,0,0,0,4.17-3.3l2.221,5.592,7.64-18.982,2.756,7.381c6.319-5.973,13.269-25.314,16.753-31.8,0,0-56.665,22.333-31.065,31.493Z" transform="translate(-486.818 -171.148)" fill="#7b5f32"/>
            </g>
          </g>
          <g id="グループ_1641" data-name="グループ 1641" transform="translate(24.423)">
            <g id="グループ_1640" data-name="グループ 1640">
              <path id="パス_2068" data-name="パス 2068" d="M557.038,171.148c17.733,4.082,21.856,37.03,21.856,37.03q-.059,4.837-.028,9.675l-5.612-14.726a38.05,38.05,0,0,1-.624,7.142c-2.421-6.427-4.911-12.977-9.238-18.311a59.282,59.282,0,0,0-8.057,9.475l-1.85-8.518-9.729,5.744" transform="translate(-543.755 -171.148)" fill="#7b5f32"/>
            </g>
          </g>
        </g>
        <g id="グループ_1645" data-name="グループ 1645" transform="translate(9.276 25.173)">
          <g id="グループ_1644" data-name="グループ 1644">
            <g id="グループ_1643" data-name="グループ 1643">
              <path id="パス_2069" data-name="パス 2069" d="M550.1,225.019q-.055,4.837-.028,9.675l1.264-.171L545.723,219.8a.647.647,0,0,0-1.264.171,41.565,41.565,0,0,1-.6,6.972H545.1c-2.466-6.541-5.021-13.066-9.4-18.6a.649.649,0,0,0-.91,0,63.85,63.85,0,0,0-8.158,9.6l1.176.154-1.85-8.518a.649.649,0,0,0-.945-.384l-9.728,5.744.88.88,8.528-14.223-1.111-.649a139.267,139.267,0,0,1-12,18.514l1.176.154L510,212.237a.65.65,0,0,0-1.241,0l-7.64,18.982h1.241l-2.221-5.592a.652.652,0,0,0-1.075-.284,19.222,19.222,0,0,1-4.04,3.2l.945.727a49.761,49.761,0,0,1,2.475-9.621c.286-.779-.958-1.115-1.241-.342a49.778,49.778,0,0,0-2.475,9.621.653.653,0,0,0,.945.727,20.522,20.522,0,0,0,4.3-3.405l-1.075-.284,2.22,5.592a.65.65,0,0,0,1.241,0L510,212.579h-1.241l2.756,7.381a.654.654,0,0,0,1.176.154,139.217,139.217,0,0,0,12-18.514.644.644,0,0,0-1.111-.649l-8.528,14.223a.648.648,0,0,0,.88.88l9.728-5.744-.945-.384,1.85,8.518a.651.651,0,0,0,1.176.154,62.122,62.122,0,0,1,7.957-9.344h-.91c4.233,5.34,6.692,11.711,9.073,18.027.2.528,1.122.69,1.241,0a43.674,43.674,0,0,0,.648-7.313l-1.264.171,5.612,14.726a.647.647,0,0,0,1.264-.171q-.026-4.838.028-9.675a.644.644,0,0,0-1.287,0Z" transform="translate(-494.718 -200.639)" fill="#000931"/>
            </g>
          </g>
        </g>
        <g id="グループ_1647" data-name="グループ 1647" transform="translate(46.303 52.376)">
          <g id="グループ_1646" data-name="グループ 1646">
            <path id="パス_2070" data-name="パス 2070" d="M581.141,265.07a34.659,34.659,0,0,0,0,4.968c.231,1.126,2.079,4.072,4.072,4.072s4.361-2.31,4.419-4.52,0-5.531,0-5.531S582.614,264.117,581.141,265.07Z" transform="translate(-581.039 -264.059)" fill="#000931"/>
          </g>
        </g>
        <g id="グループ_1649" data-name="グループ 1649" transform="translate(49.786 55.622)">
          <g id="グループ_1648" data-name="グループ 1648">
            <ellipse id="楕円形_92" data-name="楕円形 92" cx="0.827" cy="1.415" rx="0.827" ry="1.415" fill="#fff"/>
          </g>
        </g>
        <g id="グループ_1651" data-name="グループ 1651" transform="translate(42.127 44.469)">
          <g id="グループ_1650" data-name="グループ 1650">
            <path id="パス_2071" data-name="パス 2071" d="M580.441,245.624l-9.132,6.219s-.468-2.75,8.035-5.925" transform="translate(-571.304 -245.624)" fill="#000931"/>
          </g>
        </g>
        <g id="グループ_1656" data-name="グループ 1656" transform="translate(43.429 51.615)">
          <g id="グループ_1655" data-name="グループ 1655">
            <g id="グループ_1654" data-name="グループ 1654">
              <g id="グループ_1653" data-name="グループ 1653">
                <g id="グループ_1652" data-name="グループ 1652">
                  <path id="パス_2072" data-name="パス 2072" d="M574.768,266.694a.429.429,0,0,1-.334-.7c3.16-3.93,9.637-3.953,14.928-3.534a.429.429,0,0,1-.068.855c-5.08-.4-11.284-.4-14.192,3.217A.428.428,0,0,1,574.768,266.694Z" transform="translate(-574.339 -262.285)" fill="#000931"/>
                </g>
              </g>
            </g>
          </g>
        </g>
        <g id="グループ_1658" data-name="グループ 1658" transform="translate(20.125 52.376)">
          <g id="グループ_1657" data-name="グループ 1657">
            <path id="パス_2073" data-name="パス 2073" d="M528.526,265.07a34.659,34.659,0,0,1,0,4.968c-.231,1.126-2.079,4.072-4.072,4.072s-4.361-2.31-4.419-4.52,0-5.531,0-5.531S527.053,264.117,528.526,265.07Z" transform="translate(-520.009 -264.059)" fill="#000931"/>
          </g>
        </g>
        <g id="グループ_1660" data-name="グループ 1660" transform="translate(23.608 55.622)">
          <g id="グループ_1659" data-name="グループ 1659">
            <ellipse id="楕円形_93" data-name="楕円形 93" cx="0.827" cy="1.415" rx="0.827" ry="1.415" fill="#fff"/>
          </g>
        </g>
        <g id="グループ_1662" data-name="グループ 1662" transform="translate(23.783 44.469)">
          <g id="グループ_1661" data-name="グループ 1661">
            <path id="パス_2074" data-name="パス 2074" d="M528.538,245.624l9.132,6.219s.468-2.75-8.035-5.925" transform="translate(-528.538 -245.624)" fill="#000931"/>
          </g>
        </g>
        <g id="グループ_1667" data-name="グループ 1667" transform="translate(16.199 51.615)">
          <g id="グループ_1666" data-name="グループ 1666">
            <g id="グループ_1665" data-name="グループ 1665">
              <g id="グループ_1664" data-name="グループ 1664">
                <g id="グループ_1663" data-name="グループ 1663">
                  <path id="パス_2075" data-name="パス 2075" d="M525.848,266.694a.429.429,0,0,1-.335-.16c-2.908-3.617-9.112-3.619-14.192-3.217a.429.429,0,1,1-.068-.855c5.291-.419,11.769-.4,14.929,3.534a.429.429,0,0,1-.334.7Z" transform="translate(-510.858 -262.284)" fill="#000931"/>
                </g>
              </g>
            </g>
          </g>
        </g>
        <g id="グループ_370" data-name="グループ 370" transform="translate(35.335 62.171)">
          <g id="パス_1151" data-name="パス 1151">
            <g id="グループ_1668" data-name="グループ 1668">
              <path id="パス_2076" data-name="パス 2076" d="M557.709,288.708c-1.612.53-2.737.293-2.017-.8s1.231-1.035,2.27-.989,2.366,1.273,1.649,1.84S558.306,288.511,557.709,288.708Z" transform="translate(-555.47 -286.894)" fill="#ffbdad"/>
            </g>
          </g>
        </g>
        <g id="グループ_371" data-name="グループ 371" transform="translate(36.99 63.686)">
          <g id="楕円形_27" data-name="楕円形 27">
            <g id="グループ_1669" data-name="グループ 1669">
              <ellipse id="楕円形_94" data-name="楕円形 94" cx="0.447" cy="0.492" rx="0.447" ry="0.492" fill="#000333"/>
            </g>
          </g>
        </g>
        <g id="グループ_1671" data-name="グループ 1671" transform="translate(33.055 68.778)">
          <g id="グループ_1670" data-name="グループ 1670">
            <path id="パス_2077" data-name="パス 2077" d="M550.716,305.419a.561.561,0,0,1-.382-.974c.095-.088,2.345-2.148,4.307-2.148,2.012,0,3.721,2.121,3.793,2.211a.562.562,0,0,1-.878.7c-.015-.018-1.446-1.787-2.915-1.787-1.262,0-2.986,1.335-3.544,1.849A.557.557,0,0,1,550.716,305.419Z" transform="translate(-550.154 -302.297)" fill="#000931"/>
          </g>
        </g>
        <g id="グループ_1674" data-name="グループ 1674" transform="translate(56.122 57.349)">
          <g id="グループ_1672" data-name="グループ 1672" transform="translate(0.644 0.643)">
            <line id="線_13" data-name="線 13" y1="11.046" x2="4.76" fill="#fcecda"/>
          </g>
          <g id="グループ_1673" data-name="グループ 1673">
            <path id="パス_2078" data-name="パス 2078" d="M604.573,287.984a.643.643,0,0,1-.591-.9l4.76-11.045a.643.643,0,1,1,1.181.51l-4.76,11.045A.643.643,0,0,1,604.573,287.984Z" transform="translate(-603.93 -275.651)" fill="#000931"/>
          </g>
        </g>
      </g>
    </g>
  </g>
</svg>
