<svg xmlns="http://www.w3.org/2000/svg" viewBox="0 0 222.26 636.29"><defs><style>.cls-1{fill:#111;}.cls-2,.cls-4{fill:#2c4e88;}.cls-11,.cls-14,.cls-2,.cls-3,.cls-4,.cls-7,.cls-8{stroke:#000931;}.cls-14,.cls-2,.cls-3,.cls-4,.cls-7,.cls-8{stroke-linecap:round;stroke-linejoin:round;}.cls-11,.cls-2,.cls-3,.cls-8{stroke-width:3px;}.cls-3{fill:#fcecda;}.cls-4,.cls-7{stroke-width:2px;}.cls-5{fill:#1c3b69;}.cls-6{fill:#f6beb0;}.cls-11,.cls-14,.cls-7,.cls-8{fill:none;}.cls-9{fill:#000931;}.cls-10{fill:#7b5f32;}.cls-11{stroke-miterlimit:10;}.cls-12{fill:#ffbdad;}.cls-13{fill:#000333;}.cls-14{stroke-width:2.62px;}</style></defs><title>boy_good</title><g id="レイヤー_2" data-name="レイヤー 2"><g id="_男_表情パターン" data-name="【男】表情パターン"><g id="体調良い時"><g id="体"><g id="下半身"><path class="cls-1" d="M48.66,382.24s9.18,76.81,11.14,97.95C61.65,500.15,77,611.61,77,611.61H99.15l8.75-186.3.32,3V378.25Z"/><path class="cls-1" d="M168,382.24s-9.17,76.81-11.14,97.95c-1.85,20-17.22,131.42-17.22,131.42H117.55l-8.74-186.3-.33,3V378.25Z"/><path d="M37.78,636.29h59a4.3,4.3,0,0,0,4.3-4.3V610.2L59.28,606q-1.22-.12-2.43-.12h0a27.14,27.14,0,0,0-24.46,15.38l-1.75,3.63A7.93,7.93,0,0,0,37.78,636.29Z"/><path d="M178.27,636.29h-59A4.3,4.3,0,0,1,115,632V610.2l41.8-4.17q1.22-.12,2.43-.12h0a27.14,27.14,0,0,1,24.46,15.38l1.75,3.63A7.93,7.93,0,0,1,178.27,636.29Z"/></g><g id="上半身"><path class="cls-2" d="M11.85,353.93s-2,8.15,3.1,9.13,23.5,0,23.5,0L49,347.24l-13.88-2.68Z"/><path class="cls-3" d="M24.53,363.45s-1.81,28.83,12.61,29.74l-1-20.28L45,381.07l5.92-29.23Z"/><path class="cls-4" d="M165.36,192.44A48.83,48.83,0,0,1,170.6,196c1.55,1.35,9.36,19.12,8.15,30.56s3.07,132.16,3.07,132.16,1.72,18.58-12.7,20.53S63.5,372,63.5,372s-30.3-20.69-31.76-42,4.15-89.63,4.15-89.63L50.73,200l24.82-7.53Z"/><path class="cls-2" d="M67.12,237l-4.17,25v63.52s-28.11,23.37-31.58,26.11S10,354.66,6.18,353.93,1.5,341.67,1.5,341.67c2.22-13.91,8.88-31.91,10.34-61.12S23.62,217.41,36.37,207l17.72-3.86L64.6,215.93"/><path class="cls-2" d="M208.53,353.93s2,8.15-3.1,9.13-23.49,0-23.49,0l-10.58-15.82,13.87-2.68Z"/><path class="cls-3" d="M195.85,363.45s3.69,28.83-10.73,29.74l-.9-20.28-7.9,10.77-6.84-31.84Z"/><path class="cls-2" d="M153.27,237l4.16,25v63.52s28.11,23.37,31.58,26.11,21.36,3.1,25.19,2.37,6.56-12.16,6.56-12.16c-2-15.63-10.76-32-12.22-61.22S196.76,217.41,184,207L166.3,195.79l-13.52,6.44"/><path class="cls-4" d="M43.36,363.73C39,367.2,35,379.24,44.7,382.9S54.37,384,73,387.09s50.75,2.56,66.08,1.65,39.61-.73,41.89-8.22-.24-12.32-4.47-12.18-59.87-4.61-59.87-4.61l-65.9-1.28Z"/><path class="cls-5" d="M58.17,304.47c0,13.55,1.18,25.73-5.25,25.73S34.86,318,34.86,304.47c0-5.43-.53-14.44.89-18.51,2.12-6.07,6.91-6,10.77-6C53,279.94,58.17,290.92,58.17,304.47Z"/><path class="cls-5" d="M179.77,307.14c0,13.55-5.22,24.53-11.65,24.53s-11.66-11-11.66-24.53,5.22-24.53,11.66-24.53c4.41,0,9.67-.61,11.65,7C180.67,293.1,179.77,302.89,179.77,307.14Z"/><path class="cls-3" d="M55.77,193.66s24-11.65,38.45-11.54,47.59,4.12,51.24,6.92S118.65,234.48,107,231.78s-48.38-26.44-48.38-26.44Z"/><path class="cls-2" d="M175.16,233c1.82,23.12,1.22,36.48-2.21,49.28l-2.22,43.91c5,15.56,12,16.19,9.18,31.45S165,375.7,165,375.7a198.4,198.4,0,0,1-52,6.71h-9.73a198.52,198.52,0,0,1-52-6.71s-12-2.78-14.86-18.06,1.38-14.32,6.42-29.88l-.13-40.82C41,275.13,35.05,252.68,37.74,233"/><path class="cls-2" d="M109.07,232.12s35.66-37.24,34.56-40.65-6.81-7.3-20.2-7.06L118.62,180a81.18,81.18,0,0,1,8.86-3.38c7.26-2.51,24.79-7.33,29.48-5.14a16.72,16.72,0,0,1,8.82,11.93c.73,4.62,3.41,4.38,4.87,7.3s2.92,8,0,10.8-13.14,6-18.5,10.13S123.92,232.6,109.07,232.12Z"/><path class="cls-2" d="M54.07,212.89c9.82,3.92,53.88,19.23,53.88,19.23s-48.3-30.28-40.83-39.07,22-10.44,24.28-10.94-8.56-5.94-18.78-5.94S40.25,193.86,41,199.46C41,199.46,44.24,209,54.07,212.89Z"/><path class="cls-6" d="M122.7,176.17V190.5s-4.4,2.55-14.47,2.55-13-2.55-13-2.55V176.17H122.7"/><line class="cls-7" x1="87.24" y1="196.69" x2="97.56" y2="202.23"/><line class="cls-7" x1="128.95" y1="196.69" x2="118.62" y2="202.23"/><path class="cls-8" d="M107,231.78l5.94.12s7.26,18.47,4.7,22.73-16.31-1.1-15.82-5.48S106,231.44,107,231.78Z"/><path class="cls-9" d="M109.07,237c1.83-.37,3.44,1.65,3.53,5.07s.46,6.3-3,5.43-2.83-4-2.65-5.19S107.28,237.38,109.07,237Z"/><path class="cls-8" d="M105.65,253.8s-1.45,35.75-1.69,49.63-1.74,68.71-1.23,78.89"/><path class="cls-8" d="M112.66,382.32c-.18-20.24,1.42-117.67,0-126.2"/><line class="cls-8" x1="94.22" y1="175.8" x2="94.22" y2="188.43"/><line class="cls-8" x1="122.7" y1="190.01" x2="122.7" y2="176.17"/><path class="cls-5" d="M169.12,348.74a4.4,4.4,0,0,1-1.85,2.39c-4.62,2.44-11.32-1.58-17.89.37s-16.19,1.82-23.12,0-2.8-9,13-12.65,14.34-12.7,21.54-10.84a9.85,9.85,0,0,1,4.36,2.45c.62,7.67,2,13.69,3.4,17Z"/></g></g><g id="顔"><path class="cls-10" d="M176.37,141.15l6-6.42a5.19,5.19,0,0,0,1.6-6.09l-4.31-19.46A47,47,0,0,1,196,111c-4.6-14.59-11.72-28.24-18.82-41.79A63,63,0,0,1,193,80c.7-3-1.11-6-2.84-8.58C181.38,58.25,172.52,45,161.23,34l19.2-3.47c-7.61-2.63-15.94-1.37-24-1.68a4.26,4.26,0,0,1-2.06-.45,4.47,4.47,0,0,1-1.49-2.23,73.05,73.05,0,0,0-16.77-24.7c2.47,6.93-.15,16.26,0,23.62l-3.45-1.42A232.77,232.77,0,0,0,92.89,7.59,50,50,0,0,1,107,25.12C87,21.53,66,20.21,46.88,27a59.47,59.47,0,0,0,19.27,7.27c-8.29,3.88-16.48,8.1-23.74,13.67S28.8,60.44,25.06,68.79a46.36,46.36,0,0,0,14.3-3.7c.47,3.86-1.28,7.6-2.9,11.14-6,13.12-11,26.94-12.14,41.33l8.93-6.49q1.64,10.91,3.14,21.81c1.39.07,3.91-2.16,4.57-3.39Z"/><path class="cls-9" d="M177.43,142.21c3.07-3.29,8.53-7,8.32-12-.29-7-3.13-14.61-4.64-21.43l-1.45,1.9a50.73,50.73,0,0,1,15.89,1.74,1.51,1.51,0,0,0,1.84-1.84c-4.75-14.73-11.81-28.47-19-42.15l-2.05,2A67.25,67.25,0,0,1,191.94,81,1.52,1.52,0,0,0,194.5,80c.43-4.25-1.74-7.38-4-10.8-2.92-4.38-5.87-8.75-8.93-13A177,177,0,0,0,162.29,33l-.66,2.51L180.83,32c1.54-.28,1.31-2.49,0-2.89a44.25,44.25,0,0,0-13.1-1.77c-2.61,0-5.22.08-7.82.08-3.67,0-5.12-.75-6.72-4.28a76.12,76.12,0,0,0-16-22.71,1.51,1.51,0,0,0-2.5,1.46c2.28,7.56,0,15.51-.06,23.22l1.9-1.45c-6.5-2.66-12.68-6-19.16-8.8A247.64,247.64,0,0,0,93.29,6.14c-1.36-.42-2.64,1.54-1.46,2.51a52,52,0,0,1,13.83,17.22l1.7-2.2c-20.23-3.57-41.14-4.86-60.88,1.84a1.52,1.52,0,0,0-.36,2.74,65.58,65.58,0,0,0,19.63,7.42l-.35-2.74C48.68,40.8,31.94,50.67,23.76,68c-.42.9.06,2.4,1.3,2.25a53.63,53.63,0,0,0,14.69-3.75l-1.89-1.45c.24,5.55-2.77,10.39-4.9,15.33-1.6,3.72-3.1,7.48-4.43,11.31a107.35,107.35,0,0,0-5.71,25.83,1.5,1.5,0,0,0,2.25,1.29L34,112.37l-2.2-.9q1.64,10.91,3.14,21.81c.12.85,1.14,1.18,1.85,1.05a7.15,7.15,0,0,0,3.22-1.6c.47-.37,2.73-2.28,1-1.74a5.11,5.11,0,0,1,1.55.13c2.71.33,5.45.47,8.17.71l31.7,2.73,75.7,6.52,18.26,1.57c1.92.16,1.91-2.84,0-3L57.82,129.44,41,128a1.49,1.49,0,0,0-1.3.74A6.12,6.12,0,0,1,36,131.44l1.85,1q-1.52-10.9-3.15-21.8a1.5,1.5,0,0,0-2.2-.9l-8.93,6.48,2.26,1.3a108.38,108.38,0,0,1,6.83-28.43c2.84-7.53,8.58-15.73,8.21-24,0-.86-1-1.84-1.9-1.44a50.65,50.65,0,0,1-13.9,3.64l1.29,2.26c8-16.93,24.27-26.36,40.56-34a1.52,1.52,0,0,0-.36-2.75,62.54,62.54,0,0,1-18.91-7.11l-.36,2.74c19.23-6.53,39.57-5.31,59.28-1.84a1.52,1.52,0,0,0,1.69-2.2A53.81,53.81,0,0,0,94,6.53L92.5,9a238.81,238.81,0,0,1,26.78,9.9c5.53,2.45,10.85,5.32,16.44,7.62a1.51,1.51,0,0,0,1.9-1.45c0-8,2.33-16.15-.05-24l-2.51,1.46a74.46,74.46,0,0,1,10.79,13.28,72.61,72.61,0,0,1,3.68,6.55c.95,1.91,1.54,4.45,2.89,6.12,2.17,2.71,6.12,1.94,9.22,1.91C167.89,30.33,174,30.12,180,32V29.1l-19.2,3.47a1.51,1.51,0,0,0-.66,2.5A167.6,167.6,0,0,1,177.94,56.2c2.39,3.32,4.72,6.7,7,10.1C187.61,70.22,192,75,191.5,80l2.56-1.06a69.88,69.88,0,0,0-16.17-11,1.51,1.51,0,0,0-2,2.06c7,13.44,14,26.94,18.66,41.43l1.84-1.85a53,53,0,0,0-16.68-1.85,1.52,1.52,0,0,0-1.44,1.9l3.44,15.56c.86,3.85,1,6.43-1.55,9.81a66.51,66.51,0,0,1-4.8,5.14C174,141.49,176.1,143.62,177.43,142.21Z"/><path class="cls-3" d="M109.23,49.33s-61-15.33-59,81.18c-9.45,9.46-10.1,29.35,10.44,28.7,14.34,26.08,78.85,21,94.5,1.74,24.75-1.42,20.91-30,11.1-25.75C179.8,36.48,109.23,49.33,109.23,49.33Z"/><line class="cls-11" x1="60.65" y1="159.21" x2="50.21" y2="130.51"/><path class="cls-10" d="M46.25,125a40.71,40.71,0,0,0,9.72-7.7l5.18,13L79,86.12l6.42,17.21c14.74-13.92,30.94-59,39.06-74.14,0,0-132.1,52.07-72.42,73.42Z"/><path class="cls-10" d="M124.44,29.19c41.34,9.52,50.95,86.33,50.95,86.33q-.13,11.28-.06,22.56l-13.08-34.33a88.56,88.56,0,0,1-1.46,16.65c-5.64-15-11.45-30.26-21.54-42.69A138,138,0,0,0,120.47,99.8q-2.16-9.93-4.31-19.86L93.47,93.33"/><path class="cls-9" d="M173.55,115.52q-.13,11.28-.07,22.56l3-.4-13.08-34.33a1.51,1.51,0,0,0-2.95.4A97.33,97.33,0,0,1,159,120h2.89c-5.75-15.25-11.7-30.46-21.92-43.35a1.51,1.51,0,0,0-2.12,0,147.8,147.8,0,0,0-19,22.39l2.74.36-4.32-19.86a1.51,1.51,0,0,0-2.2-.9L92.37,92l2,2.06L114.3,60.93l-2.59-1.52a323.24,323.24,0,0,1-28,43.16l2.74.36-6.42-17.2a1.51,1.51,0,0,0-2.89,0L59.36,130h2.89l-5.18-13a1.51,1.51,0,0,0-2.5-.66,45,45,0,0,1-9.42,7.47l2.2,1.69A116.57,116.57,0,0,1,53.12,103c.66-1.81-2.23-2.6-2.89-.79a115.65,115.65,0,0,0-5.77,22.43,1.52,1.52,0,0,0,2.2,1.69,48.13,48.13,0,0,0,10-7.94l-2.51-.66,5.18,13a1.51,1.51,0,0,0,2.89,0L80.06,86.52H77.17l6.42,17.21a1.52,1.52,0,0,0,2.74.36,324.52,324.52,0,0,0,28-43.16,1.5,1.5,0,0,0-2.59-1.52L91.83,92.57a1.51,1.51,0,0,0,2.06,2.05l22.68-13.39-2.21-.89,4.32,19.86c.29,1.35,2,1.34,2.74.35A144.91,144.91,0,0,1,140,78.77h-2.12c9.87,12.45,15.6,27.3,21.15,42,.46,1.23,2.61,1.6,2.89,0a101.56,101.56,0,0,0,1.51-17l-3,.4,13.09,34.33c.57,1.5,3,1.4,2.94-.4q-.06-11.28.07-22.56a1.5,1.5,0,0,0-3,0Z"/><path class="cls-9" d="M147.17,110.49l-25.31-4.81s3.76-5.3,23,3.48"/><path class="cls-7" d="M125.06,129.61c6.86-8.54,24.74-9.2,33.94,0"/><path class="cls-9" d="M73.41,110.49l25.31-4.81s-3.76-5.3-23,3.48"/><path class="cls-7" d="M95.52,129.61c-6.86-8.54-24-9-32.93,0"/><g id="グループ_370" data-name="グループ 370"><path id="パス_1151" data-name="パス 1151" class="cls-12" d="M110.41,149.17c-3.76,1.23-6.38.68-4.7-1.88s2.87-2.41,5.29-2.3,5.51,3,3.84,4.29S111.8,148.71,110.41,149.17Z"/></g><g id="グループ_371" data-name="グループ 371"><ellipse id="楕円形_27" data-name="楕円形 27" class="cls-13" cx="110.09" cy="149.62" rx="1.04" ry="1.15"/></g><path class="cls-14" d="M123.09,158.92s-8.64,5.57-12.76,5.57S98,158.87,98,158.87"/><line class="cls-3" x1="155.15" y1="160.95" x2="166.25" y2="135.2"/></g></g></g></g></svg>