<?xml version="1.0" encoding="utf-8"?>
<!-- Generator: Adobe Illustrator 23.0.6, SVG Export Plug-In . SVG Version: 6.00 Build 0)  -->
<svg version="1.1" id="レイヤー_1" xmlns="http://www.w3.org/2000/svg" xmlns:xlink="http://www.w3.org/1999/xlink" x="0px"
	 y="0px" viewBox="0 0 209.2 229.2" style="enable-background:new 0 0 209.2 229.2;" xml:space="preserve">
<style type="text/css">
	.st0{fill:#FFEDD1;stroke:#2E2E2E;stroke-width:7;stroke-linejoin:round;}
	.st1{fill:#F0D1A0;stroke:#2E2E2E;stroke-width:5;stroke-linecap:round;stroke-linejoin:round;}
	.st2{fill:#2E2E2E;}
	.st3{fill:#9AB7D9;}
	.st4{fill:none;stroke:#809CB2;stroke-width:8;stroke-linecap:round;stroke-miterlimit:10;}
</style>
<title>animal_bad</title>
<path class="st0" d="M205.7,86.2c0,0-31-18.6-59.9,6.2c-20.6-16.5-41.3-16.5-41.3-16.5h-6.2c0,0-20.6,0-41.3,16.5
	c-18.6-33-51.6-33-51.6-33s0,45.4,28.9,51.6C-9,162.6-9,201,48.8,213.3c4.1,12.4,8.3,12.4,8.3,12.4c5.3-0.3,10.1-3.5,12.4-8.2h64
	c2.3,4.8,7.1,8,12.4,8.2c0,0,4.1,0,8.3-12.4c57.8-12.4,57.8-50.8,14.4-102.4C201.6,106.8,205.7,86.2,205.7,86.2z"/>
<path class="st1" d="M139.6,139.9c0,0-1.1-20.8-37.2-20.6h-4.1c-34.5-0.2-37.2,20.6-37.2,20.6C59.6,161.7,140.6,161.7,139.6,139.9z"
	/>
<path class="st2" d="M82.3,139.8l0.9-4.9c0.2-1.3,1.5-2.2,2.9-2h0c1.3,0.2,2.2,1.5,2,2.9l-0.9,4.9c-0.2,1.3-1.5,2.2-2.9,2h0
	C83,142.5,82.1,141.2,82.3,139.8z"/>
<path class="st2" d="M114.7,132.9L114.7,132.9c1.3-0.2,2.6,0.7,2.9,2l0.9,4.9c0.2,1.3-0.7,2.6-2,2.9l0,0c-1.3,0.2-2.6-0.7-2.9-2
	l-0.9-4.9C112.5,134.5,113.4,133.2,114.7,132.9z"/>
<path class="st3" d="M88.9,65.1c0,0-3.4-66.8-31.5-65.1C30.9,9.1,88.9,65.1,88.9,65.1z"/>
<path class="st3" d="M72.6,71c0,0-19.8-43.2-38.3-34.9C18.7,48.8,72.6,71,72.6,71z"/>
<line class="st4" x1="139.6" y1="62.5" x2="139.6" y2="105"/>
<line class="st4" x1="154.6" y1="62.5" x2="154.6" y2="112.5"/>
<line class="st4" x1="169.6" y1="62.5" x2="169.6" y2="122.7"/>
</svg>
