<?xml version="1.0" encoding="utf-8"?>
<!-- Generator: Adobe Illustrator 23.0.6, SVG Export Plug-In . SVG Version: 6.00 Build 0)  -->
<svg version="1.1" id="レイヤー_1" xmlns="http://www.w3.org/2000/svg" xmlns:xlink="http://www.w3.org/1999/xlink" x="0px"
	 y="0px" viewBox="0 0 223.7 228" style="enable-background:new 0 0 223.7 228;" xml:space="preserve">
<style type="text/css">
	.st0{fill:#FFEDD1;stroke:#2E2E2E;stroke-width:7;stroke-linejoin:round;}
	.st1{fill:#F0D1A0;stroke:#2E2E2E;stroke-width:5;stroke-linecap:round;stroke-linejoin:round;}
	.st2{fill:#2E2E2E;}
	.st3{fill:#BABABA;}
	.st4{fill:none;stroke:#ED3E3B;stroke-width:10;stroke-linecap:round;stroke-miterlimit:10;}
</style>
<title>animal_angry</title>
<path class="st0" d="M220.2,84.9c0,0-31-18.6-59.9,6.2C139.7,74.6,119,74.6,119,74.6h-6.2c0,0-20.6,0-41.3,16.5
	C53,58.1,20,58.1,20,58.1s0,45.4,28.9,51.6c-43.3,51.6-43.3,90,14.5,102.4c4.1,12.4,8.2,12.4,8.2,12.4c5.3-0.3,10.1-3.5,12.4-8.3h64
	c2.3,4.8,7.1,8,12.4,8.3c0,0,4.1,0,8.2-12.4c57.8-12.4,57.8-50.8,14.4-102.4C216.1,105.6,220.2,84.9,220.2,84.9z"/>
<path class="st1" d="M154.1,138.7c0,0-1.1-20.8-37.2-20.7h-4.1c-34.5-0.2-37.2,20.6-37.2,20.6C74.1,160.5,155.1,160.5,154.1,138.7z"
	/>
<path class="st2" d="M96.8,138.6l0.9-4.9c0.2-1.3,1.5-2.2,2.9-2h0c1.3,0.2,2.2,1.5,2,2.9l-0.9,4.9c-0.2,1.3-1.5,2.2-2.9,2l0,0
	C97.4,141.2,96.5,140,96.8,138.6z"/>
<path class="st2" d="M129.2,131.7L129.2,131.7c1.3-0.2,2.6,0.7,2.9,2l0.9,4.9c0.2,1.3-0.7,2.6-2,2.9h0c-1.3,0.2-2.6-0.7-2.9-2
	l-0.9-4.9C126.9,133.2,127.8,132,129.2,131.7z"/>
<path class="st3" d="M142.4,71.1L154,59.5c0,0,43.8,9.1,24.3-32.8c7.7-32.3-41.5-34-40-11.9c-20.7,9.7-15.9,32.7,3.5,39.1
	C142.3,59.6,142.5,65.4,142.4,71.1z"/>
<path class="st3" d="M99.9,68.3l1.4-12.7c0,0,31.2-15.8-1.2-31.9C89.1,0.2,58.2,23.1,70,35.9c-7.9,16,6.2,27.7,21.2,22.2
	C94.3,61.3,97.2,64.7,99.9,68.3z"/>
<path class="st4" d="M31.3,39.8c0,0,7.8,35.5,42.1,34.9"/>
<path class="st4" d="M13.1,46.4c0,0,23.5,25.7-8.1,48.7"/>
<path class="st4" d="M65.5,91.7c0,0-26.9-20.6-46.2,14.1"/>
</svg>
