<svg xmlns="http://www.w3.org/2000/svg" xmlns:xlink="http://www.w3.org/1999/xlink" width="105" height="94" viewBox="0 0 105 94">
  <defs>
    <clipPath id="clip-path">
      <rect id="長方形_211" data-name="長方形 211" width="105" height="94" transform="translate(-7862 4063.336)" fill="#fff" stroke="#707070" stroke-width="1"/>
    </clipPath>
  </defs>
  <g id="マスクグループ_10" data-name="マスクグループ 10" transform="translate(7862 -4063.336)" clip-path="url(#clip-path)">
    <g id="体調悪い時" transform="translate(-8697.324 3928.105)">
      <g id="体" transform="translate(840.373 209.156)">
        <g id="下半身" transform="translate(12.765 89.305)">
          <g id="グループ_1452" data-name="グループ 1452" transform="translate(8.05)">
            <g id="グループ_1451" data-name="グループ 1451">
              <path id="パス_1900" data-name="パス 1900" d="M902.48,521.124s3.924,32.851,4.764,41.9c.793,8.536,7.366,56.21,7.366,56.21h9.465l3.741-79.686.139,1.285V519.416Z" transform="translate(-902.48 -519.416)" fill="#111"/>
            </g>
          </g>
          <g id="グループ_1454" data-name="グループ 1454" transform="translate(33.637)">
            <g id="グループ_1453" data-name="グループ 1453">
              <path id="パス_1901" data-name="パス 1901" d="M987.774,521.124s-3.924,32.851-4.764,41.9c-.793,8.536-7.367,56.21-7.367,56.21h-9.465l-3.741-79.686-.139,1.285V519.416Z" transform="translate(-962.299 -519.416)" fill="#111"/>
            </g>
          </g>
          <g id="グループ_1455" data-name="グループ 1455" transform="translate(0 97.379)">
            <path id="パス_1902" data-name="パス 1902" d="M887.055,760.069h25.237a1.84,1.84,0,0,0,1.841-1.84V748.91l-17.88-1.782q-.518-.052-1.04-.052h0a11.614,11.614,0,0,0-10.464,6.576L884,755.207A3.391,3.391,0,0,0,887.055,760.069Z" transform="translate(-883.659 -747.076)"/>
          </g>
          <g id="グループ_1456" data-name="グループ 1456" transform="translate(36.411 97.379)">
            <path id="パス_1903" data-name="パス 1903" d="M995.862,760.069H970.624a1.84,1.84,0,0,1-1.84-1.84V748.91l17.88-1.782q.519-.052,1.04-.052h0a11.614,11.614,0,0,1,10.464,6.576l.749,1.555A3.391,3.391,0,0,1,995.862,760.069Z" transform="translate(-968.784 -747.076)"/>
          </g>
        </g>
        <g id="上半身" transform="translate(0)">
          <g id="グループ_1457" data-name="グループ 1457" transform="translate(4.258 74.251)">
            <path id="パス_1904" data-name="パス 1904" d="M865.445,489.731s-.859,3.487,1.327,3.9,10.049,0,10.049,0l4.526-6.767-5.934-1.145Z" transform="translate(-864.634 -485.081)" fill="#2c4e88"/>
            <path id="パス_1905" data-name="パス 1905" d="M869.523,493.6a24.318,24.318,0,0,1-3.734-.2,2.251,2.251,0,0,1-1.512-1.008,5.4,5.4,0,0,1-.318-3.679.64.64,0,0,1,.384-.442l9.968-4.008a.631.631,0,0,1,.361-.035l5.934,1.145a.641.641,0,0,1,.411.987l-4.526,6.767a.642.642,0,0,1-.5.284C875.781,493.429,872.437,493.6,869.523,493.6Zm-4.381-4.264a3.821,3.821,0,0,0,.216,2.368.958.958,0,0,0,.671.439c1.842.35,8.086.077,9.575.005l3.809-5.695-4.8-.926Z" transform="translate(-863.772 -484.223)" fill="#000931"/>
          </g>
          <g id="グループ_1458" data-name="グループ 1458" transform="translate(9.817 77.364)">
            <path id="パス_1906" data-name="パス 1906" d="M878.307,497.966s-.774,12.333,5.395,12.724l-.421-8.675,3.773,3.489,2.534-12.5Z" transform="translate(-877.631 -492.358)" fill="#fcecda"/>
            <path id="パス_1907" data-name="パス 1907" d="M882.839,510.473H882.8c-6.731-.426-6.028-12.875-5.994-13.4a.642.642,0,0,1,.382-.547l11.28-4.966a.642.642,0,0,1,.888.714l-2.534,12.5a.642.642,0,0,1-1.065.344l-2.62-2.424.345,7.107a.642.642,0,0,1-.641.673Zm-4.771-12.939a28.4,28.4,0,0,0,.395,5.693c.628,3.389,1.871,5.351,3.7,5.847l-.383-7.885a.641.641,0,0,1,1.076-.5l2.935,2.714,2.062-10.173Z" transform="translate(-876.768 -491.5)" fill="#000931"/>
          </g>
          <g id="グループ_1459" data-name="グループ 1459" transform="translate(13.047 9.399)">
            <path id="パス_1908" data-name="パス 1908" d="M942.574,333.607a20.823,20.823,0,0,1,2.242,1.506c.661.577,4,8.176,3.484,13.069s1.315,56.529,1.315,56.529.737,7.951-5.432,8.785-45.177-3.085-45.177-3.085-12.961-8.849-13.586-17.958,1.775-38.337,1.775-38.337l6.345-17.288,10.619-3.221Z" transform="translate(-884.891 -333.179)" fill="#2c4e88"/>
            <path id="パス_1909" data-name="パス 1909" d="M940.972,413.467c-10.558,0-41.142-3.059-42.579-3.2a.431.431,0,0,1-.2-.072c-.536-.367-13.14-9.072-13.771-18.283-.62-9.037,1.751-38.108,1.776-38.4a.415.415,0,0,1,.024-.112l6.345-17.288a.43.43,0,0,1,.278-.262l10.619-3.221a.436.436,0,0,1,.124-.018H942a.429.429,0,0,1,.217.059,20.9,20.9,0,0,1,2.306,1.552c.852.743,4.155,8.491,3.629,13.437-.512,4.807,1.3,55.953,1.317,56.469a12.922,12.922,0,0,1-.418,4.21c-.817,2.915-2.679,4.648-5.384,5.014A22.22,22.22,0,0,1,940.972,413.467Zm-42.383-4.043c2.308.23,39.08,3.869,44.967,3.075,2.367-.32,3.937-1.792,4.668-4.375a12.29,12.29,0,0,0,.395-3.946c-.077-2.134-1.833-51.747-1.314-56.614a26.342,26.342,0,0,0-3.342-12.7,19.018,19.018,0,0,0-2.076-1.4H903.653L893.3,336.6l-6.251,17.033c-.119,1.468-2.372,29.434-1.77,38.215C885.854,400.264,897.456,408.627,898.589,409.424Z" transform="translate(-884.32 -332.607)" fill="#000931"/>
          </g>
          <g id="グループ_1460" data-name="グループ 1460" transform="translate(75.7 15.657)">
            <path id="パス_1910" data-name="パス 1910" d="M1030.793,347.237" transform="translate(-1030.793 -347.237)" fill="#2c4e88" stroke="#000931" stroke-linecap="round" stroke-linejoin="round" stroke-width="3"/>
          </g>
          <g id="グループ_1461" data-name="グループ 1461" transform="translate(63.905 31.87)">
            <path id="パス_1911" data-name="パス 1911" d="M1003.219,385.142" transform="translate(-1003.219 -385.142)" fill="#2c4e88" stroke="#000931" stroke-linecap="round" stroke-linejoin="round" stroke-width="3"/>
          </g>
          <g id="グループ_1462" data-name="グループ 1462" transform="translate(0 13.766)">
            <path id="パス_1912" data-name="パス 1912" d="M883.385,358.781,881.6,369.458v27.171s-12.024,9.994-13.508,11.165-9.135,1.327-10.775,1.015-2-5.242-2-5.242c.95-5.952,3.8-13.653,4.423-26.146s5.041-27.007,10.491-31.457l7.58-1.649,4.5,5.466" transform="translate(-854.676 -343.674)" fill="#2c4e88"/>
            <path id="パス_1913" data-name="パス 1913" d="M859.045,408.733a17.372,17.372,0,0,1-2.7-.152c-1.97-.376-2.428-4.554-2.522-5.825a.659.659,0,0,1,.006-.148c.3-1.85.761-3.824,1.3-6.109a103.157,103.157,0,0,0,3.114-19.969c.756-15.116,6.047-28.1,10.726-31.922a.642.642,0,0,1,.27-.13l7.58-1.649a.641.641,0,0,1,.632.219l4.5,5.466a.641.641,0,1,1-.991.815l-4.247-5.163-7.044,1.532c-4.96,4.206-9.495,17.995-10.14,30.9a104.3,104.3,0,0,1-3.147,20.2c-.527,2.229-.982,4.159-1.27,5.942.165,2.082.8,4.457,1.476,4.585a29.725,29.725,0,0,0,5.286.039c3.045-.194,4.565-.606,4.972-.927,1.347-1.063,11.585-9.569,13.264-10.963V368.6a.626.626,0,0,1,.009-.106l1.782-10.676a.642.642,0,0,1,1.266.211l-1.774,10.624V395.77a.641.641,0,0,1-.231.493c-.491.408-12.047,10.013-13.52,11.176-.767.605-2.68,1.009-5.686,1.2C860.963,408.7,859.951,408.733,859.045,408.733Z" transform="translate(-853.817 -342.815)" fill="#000931"/>
          </g>
          <g id="グループ_1463" data-name="グループ 1463" transform="translate(72.654 74.251)">
            <path id="パス_1914" data-name="パス 1914" d="M1041.075,489.731s.859,3.487-1.327,3.9-10.049,0-10.049,0l-4.526-6.767,5.934-1.145Z" transform="translate(-1024.531 -485.081)" fill="#2c4e88"/>
            <path id="パス_1915" data-name="パス 1915" d="M1035.276,493.6c-2.914,0-6.257-.174-6.469-.186a.642.642,0,0,1-.5-.284l-4.526-6.767a.642.642,0,0,1,.412-.987l5.934-1.145a.625.625,0,0,1,.361.035l9.968,4.008a.64.64,0,0,1,.384.442,5.4,5.4,0,0,1-.319,3.679,2.251,2.251,0,0,1-1.512,1.008A24.318,24.318,0,0,1,1035.276,493.6Zm-6.081-1.451c1.489.072,7.734.345,9.575-.005a.956.956,0,0,0,.671-.439,3.816,3.816,0,0,0,.216-2.368l-9.472-3.808-4.8.926Z" transform="translate(-1023.673 -484.222)" fill="#000931"/>
          </g>
          <g id="グループ_1464" data-name="グループ 1464" transform="translate(71.852 77.364)">
            <path id="パス_1916" data-name="パス 1916" d="M1034.577,497.966s1.58,12.333-4.589,12.724l-.385-8.675-3.381,4.607L1023.3,493Z" transform="translate(-1022.655 -492.358)" fill="#fcecda"/>
            <path id="パス_1917" data-name="パス 1917" d="M1029.13,510.473a.641.641,0,0,1-.641-.613l-.3-6.855-2.3,3.139a.642.642,0,0,1-1.145-.245l-2.926-13.623a.641.641,0,0,1,.886-.722l11.28,4.966a.64.64,0,0,1,.378.506c.043.334,1.016,8.228-1.894,11.752a4.492,4.492,0,0,1-3.291,1.693Zm-.384-9.958a.635.635,0,0,1,.186.027.642.642,0,0,1,.454.586l.354,7.964a3.224,3.224,0,0,0,1.731-1.13c2.238-2.709,1.8-8.871,1.65-10.417l-9.791-4.311,2.362,11,2.536-3.456A.641.641,0,0,1,1028.745,500.515Z" transform="translate(-1021.797 -491.5)" fill="#000931"/>
          </g>
          <g id="グループ_1465" data-name="グループ 1465" transform="translate(64.708 10.618)">
            <path id="パス_1918" data-name="パス 1918" d="M1006.806,354.57l1.782,10.677v27.171s12.024,9.994,13.508,11.165,9.135,1.327,10.775,1.015,2.805-5.2,2.805-5.2c-.869-6.683-4.6-13.693-5.226-26.186s-5.041-27.007-10.491-31.457l-7.581-4.8-5.781,2.752" transform="translate(-1005.956 -336.315)" fill="#2c4e88"/>
            <path id="パス_1919" data-name="パス 1919" d="M1029.428,404.522c-.906,0-1.919-.031-2.9-.093-3.006-.192-4.919-.6-5.686-1.2-1.473-1.163-13.029-10.768-13.52-11.176a.641.641,0,0,1-.231-.493V364.44l-1.774-10.624a.642.642,0,0,1,1.266-.211l1.783,10.676a.666.666,0,0,1,.009.106v26.871c1.678,1.394,11.917,9.9,13.264,10.963.407.321,1.926.733,4.971.927a29.711,29.711,0,0,0,5.286-.039c.723-.138,1.747-2.47,2.273-4.606a55.926,55.926,0,0,0-1.82-7.661,77.112,77.112,0,0,1-3.395-18.458c-.649-12.976-5.233-26.851-10.226-30.968l-7.248-4.586-5.461,2.6a.642.642,0,1,1-.552-1.159l5.78-2.753a.643.643,0,0,1,.619.037l7.58,4.8a.65.65,0,0,1,.062.045c4.679,3.821,9.97,16.806,10.726,31.922a74.979,74.979,0,0,0,3.348,18.172,55.866,55.866,0,0,1,1.873,7.964.637.637,0,0,1-.012.231c-.3,1.242-1.41,5.321-3.309,5.683A17.362,17.362,0,0,1,1029.428,404.522Z" transform="translate(-1005.097 -335.456)" fill="#000931"/>
          </g>
          <g id="グループ_1466" data-name="グループ 1466" transform="translate(16.138 82.118)">
            <path id="パス_1920" data-name="パス 1920" d="M894.528,504.16c-1.848,1.485-3.566,6.638.573,8.2s4.138.468,12.1,1.8,21.706,1.093,28.265.7,16.944-.312,17.919-3.513-.1-5.27-1.913-5.211-25.61-1.973-25.61-1.973l-28.187-.545Z" transform="translate(-892.121 -503.187)" fill="#2c4e88"/>
            <path id="パス_1921" data-name="パス 1921" d="M923.6,515.021a114.82,114.82,0,0,1-17.04-1.016,56.224,56.224,0,0,0-6.968-.779,14.21,14.21,0,0,1-5.215-1.039,4.054,4.054,0,0,1-2.766-3.268,6.648,6.648,0,0,1,2.077-5.665.425.425,0,0,1,.195-.088l3.149-.546c.027,0,.053,0,.082-.006l28.186.545c.262.022,23.163,1.974,25.5,1.974h.087a2.363,2.363,0,0,1,2.015.95c.813,1.061.93,2.815.321,4.813-.92,3.018-8.506,3.36-15.2,3.662-1.089.049-2.138.1-3.1.154C931.949,514.89,927.888,515.021,923.6,515.021ZM894.141,503.99a5.929,5.929,0,0,0-1.686,4.8,3.213,3.213,0,0,0,2.223,2.6,13.372,13.372,0,0,0,4.96.985,57.035,57.035,0,0,1,7.062.789c7.7,1.284,21.065,1.12,28.168.7.969-.058,2.022-.105,3.116-.154,5.772-.261,13.677-.617,14.42-3.057.52-1.7.452-3.216-.181-4.043a1.543,1.543,0,0,0-1.308-.616c-1.829.071-24.687-1.891-25.66-1.975l-28.118-.543Z" transform="translate(-891.547 -502.615)" fill="#000931"/>
          </g>
          <g id="グループ_1467" data-name="グループ 1467" transform="translate(14.869 47.254)">
            <path id="パス_1922" data-name="パス 1922" d="M898.593,431.6c0,5.794.506,11.006-2.248,11.006s-7.723-5.212-7.723-11.006c0-2.322-.228-6.177.379-7.915.907-2.6,2.956-2.575,4.606-2.575C896.361,421.107,898.593,425.8,898.593,431.6Z" transform="translate(-888.58 -421.107)" fill="#1c3b69"/>
          </g>
          <g id="グループ_1468" data-name="グループ 1468" transform="translate(66.924 48.391)">
            <path id="パス_1923" data-name="パス 1923" d="M1020.248,434.26c0,5.794-2.232,10.491-4.985,10.491s-4.986-4.7-4.986-10.491,2.232-10.491,4.986-10.491c1.889,0,4.14-.264,4.985,3C1020.635,428.257,1020.248,432.442,1020.248,434.26Z" transform="translate(-1010.277 -423.764)" fill="#1c3b69"/>
          </g>
          <g id="グループ_1469" data-name="グループ 1469" transform="translate(23.214 4.767)">
            <path id="パス_1924" data-name="パス 1924" d="M909.588,328.217s10.251-4.984,16.447-4.938,20.354,1.763,21.916,2.96-11.467,19.438-16.47,18.282-20.7-11.306-20.7-11.306Z" transform="translate(-908.946 -322.637)" fill="#fcecda"/>
            <path id="パス_1925" data-name="パス 1925" d="M931.083,344.354a2.707,2.707,0,0,1-.606-.066c-5.053-1.169-20.255-10.976-20.9-11.393a.64.64,0,0,1-.276-.389l-1.2-5a.641.641,0,0,1,.344-.726c.422-.205,10.363-5,16.643-5h.089c5.646.042,20.421,1.651,22.3,3.093.714.547.295,1.712-.209,2.78C945.187,332.077,936.069,344.354,931.083,344.354Zm-20.593-12.4c1.9,1.218,15.753,10.036,20.277,11.081.644.151,2.2-.044,5.42-3,5.121-4.715,10.317-12.676,10.4-14.219-1.844-1-15.01-2.705-21.411-2.752h-.08c-5.243,0-13.569,3.706-15.616,4.655Z" transform="translate(-908.088 -321.778)" fill="#000931"/>
          </g>
          <g id="グループ_1470" data-name="グループ 1470" transform="translate(14.54 26.534)">
            <path id="パス_1926" data-name="パス 1926" d="M949.049,374.166c.777,9.89.521,15.6-.944,21.08l-.95,18.78c2.154,6.657,5.135,6.923,3.925,13.453s-6.357,7.723-6.357,7.723a84.809,84.809,0,0,1-22.254,2.871h-4.161a84.81,84.81,0,0,1-22.254-2.871s-5.153-1.188-6.357-7.723.591-6.125,2.745-12.782l-.053-17.461c-.74-5.049-3.269-14.654-2.119-23.07" transform="translate(-888.667 -373.525)" fill="#2c4e88"/>
            <path id="パス_1927" data-name="パス 1927" d="M916.565,437.863a86.548,86.548,0,0,1-21.548-2.9c-.191-.043-5.541-1.352-6.808-8.222-.861-4.645-.227-6.012.925-8.495a37.459,37.459,0,0,0,1.81-4.5l-.053-17.312c-.156-1.057-.388-2.3-.655-3.735-1-5.38-2.376-12.749-1.458-19.47a.642.642,0,0,1,1.272.174c-.89,6.516.461,13.767,1.448,19.061.274,1.469.51,2.738.67,3.829a.6.6,0,0,1,.007.091l.053,17.461a.643.643,0,0,1-.031.2,38.574,38.574,0,0,1-1.9,4.746c-1.108,2.389-1.613,3.479-.827,7.722,1.109,6.016,5.678,7.169,5.872,7.215a85.018,85.018,0,0,0,22.1,2.854h4.169a84.721,84.721,0,0,0,22.074-2.845c.228-.055,4.8-1.208,5.907-7.223.726-3.916-.122-5.408-1.406-7.668a27.241,27.241,0,0,1-2.5-5.472.644.644,0,0,1-.03-.23l.95-18.78a.639.639,0,0,1,.021-.133c1.445-5.4,1.7-11.054.925-20.864a.642.642,0,1,1,1.279-.1c.78,9.931.524,15.7-.947,21.23l-.94,18.594A25.9,25.9,0,0,0,949.3,418.2c1.372,2.414,2.363,4.159,1.552,8.534-1.267,6.87-6.617,8.179-6.844,8.231a86.257,86.257,0,0,1-22.406,2.887h-4.152Q917.007,437.863,916.565,437.863Z" transform="translate(-887.81 -372.667)" fill="#000931"/>
          </g>
          <g id="グループ_1471" data-name="グループ 1471" transform="translate(46.013)">
            <path id="パス_1928" data-name="パス 1928" d="M962.889,338.28s15.251-15.928,14.783-17.385-2.915-3.123-8.641-3.019L966.975,316a33.377,33.377,0,0,1,3.787-1.445c3.106-1.075,10.606-3.135,12.61-2.2a7.152,7.152,0,0,1,3.774,5.1c.312,1.978,1.457,1.874,2.082,3.123s1.25,3.406,0,4.618-5.622,2.566-7.912,4.336S969.239,338.489,962.889,338.28Z" transform="translate(-962.247 -311.484)" fill="#2c4e88"/>
            <path id="パス_1929" data-name="パス 1929" d="M962.3,338.075c-.1,0-.194,0-.289,0a.642.642,0,0,1-.443-1.085c6.908-7.215,14.178-15.4,14.6-16.836-.413-1.01-2.5-2.592-7.985-2.483a.638.638,0,0,1-.444-.168l-2.056-1.874a.641.641,0,0,1,.126-1.037,33.158,33.158,0,0,1,3.883-1.488c.1-.036,10.32-3.471,13.091-2.173a7.811,7.811,0,0,1,4.136,5.582,2.362,2.362,0,0,0,.977,1.687,3.875,3.875,0,0,1,1.045,1.249c.853,1.706,1.268,4.012-.127,5.365a14.866,14.866,0,0,1-3.612,2.02,24.634,24.634,0,0,0-4.354,2.362C978.909,330.692,969.01,338.075,962.3,338.075Zm6.4-21.7c7.056,0,8.462,2.643,8.728,3.469.171.533.4,1.263-7.351,9.865-2.5,2.774-5.05,5.491-6.462,6.985,6.411-.887,15.375-7.687,16.453-8.52a25.428,25.428,0,0,1,4.6-2.512,14.991,14.991,0,0,0,3.258-1.776c.9-.872.493-2.63-.127-3.87a2.7,2.7,0,0,0-.739-.854,3.61,3.61,0,0,1-1.4-2.457,6.552,6.552,0,0,0-3.412-4.62c-1.561-.729-8.163.852-12.129,2.224-1.379.477-2.27.811-2.83,1.034l1.134,1.033Zm7.488,3.712Z" transform="translate(-961.389 -310.633)" fill="#000931"/>
          </g>
          <g id="グループ_1472" data-name="グループ 1472" transform="translate(16.88 2.224)">
            <path id="パス_1930" data-name="パス 1930" d="M900.386,333.039c4.2,1.678,23.046,8.224,23.046,8.224s-20.659-12.952-17.464-16.709,9.4-4.466,10.386-4.679-3.662-2.543-8.034-2.543-13.844,7.567-13.531,9.961A10.381,10.381,0,0,0,900.386,333.039Z" transform="translate(-894.14 -316.691)" fill="#2c4e88"/>
            <path id="パス_1931" data-name="パス 1931" d="M922.574,341.047a.634.634,0,0,1-.21-.036c-.189-.065-18.907-6.57-23.074-8.235h0a10.949,10.949,0,0,1-5.966-6.133.626.626,0,0,1-.03-.125c-.1-.785.406-1.8,1.553-3.109,2.713-3.089,8.975-7.577,12.615-7.577,3.569,0,8.672,1.736,8.806,3a.754.754,0,0,1-.637.816c-.107.023-.272.052-.486.089-1.69.293-6.83,1.183-9.547,4.377a.842.842,0,0,0-.166.737c.567,3.679,12.812,12.084,17.482,15.012a.642.642,0,0,1-.341,1.185ZM894.565,326.3a9.811,9.811,0,0,0,5.2,5.284h0c2.8,1.117,12.241,4.445,18.128,6.507-5.222-3.579-13.19-9.556-13.728-13.047a2.138,2.138,0,0,1,.456-1.764c2.643-3.108,7.177-4.222,9.474-4.661a17.193,17.193,0,0,0-6.633-1.5c-2.9,0-8.829,3.926-11.651,7.14C894.7,325.528,894.573,326.126,894.565,326.3Z" transform="translate(-893.281 -315.833)" fill="#000931"/>
          </g>
          <g id="グループ_1473" data-name="グループ 1473" transform="translate(40.749 2.865)">
            <path id="パス_1932" data-name="パス 1932" d="M960.818,317.332v6.129s-1.884,1.093-6.192,1.093-5.544-1.093-5.544-1.093v-6.129h11.735" transform="translate(-949.083 -317.332)" fill="#f6beb0"/>
          </g>
          <g id="グループ_1474" data-name="グループ 1474" transform="translate(36.887 11.213)">
            <path id="パス_1933" data-name="パス 1933" d="M944.9,340.075a.425.425,0,0,1-.2-.051l-4.417-2.371a.428.428,0,0,1,.4-.754l4.417,2.371a.428.428,0,0,1-.2.8Z" transform="translate(-940.054 -336.848)" fill="#000931"/>
          </g>
          <g id="グループ_1475" data-name="グループ 1475" transform="translate(50.312 11.213)">
            <path id="パス_1934" data-name="パス 1934" d="M971.87,340.075a.428.428,0,0,1-.2-.8l4.417-2.371a.428.428,0,1,1,.4.754l-4.417,2.371A.423.423,0,0,1,971.87,340.075Z" transform="translate(-971.441 -336.848)" fill="#000931"/>
          </g>
          <g id="グループ_1476" data-name="グループ 1476" transform="translate(42.884 26.008)">
            <path id="パス_1935" data-name="パス 1935" d="M959.865,383.157a7.236,7.236,0,0,1-2.245-.407c-1.873-.632-3.692-1.9-3.536-3.309.139-1.255,1.56-7.326,2.452-7.891a.731.731,0,0,1,.458-.111l2.5.052a.642.642,0,0,1,.584.407c.538,1.368,3.158,8.3,1.964,10.287A2.375,2.375,0,0,1,959.865,383.157Zm-2.649-10.43a36.018,36.018,0,0,0-1.857,6.855c-.047.423.947,1.37,2.671,1.952,1.376.465,2.626.46,2.908-.01.615-1.026-.7-5.6-1.9-8.759Zm-.476-.038h0Zm0,0h0Zm0,0h0Zm0,0h0Zm0,0h0Zm0,0h0Zm0,0h0Z" transform="translate(-954.075 -371.435)" fill="#000931"/>
          </g>
          <g id="グループ_1477" data-name="グループ 1477" transform="translate(45.672 28.872)">
            <path id="パス_1936" data-name="パス 1936" d="M961.575,378.152c.783-.159,1.471.7,1.51,2.167s.2,2.694-1.288,2.323a1.669,1.669,0,0,1-1.132-2.219C960.743,379.928,960.808,378.308,961.575,378.152Z" transform="translate(-960.593 -378.133)" fill="#000931"/>
          </g>
          <g id="グループ_1478" data-name="グループ 1478" transform="translate(43.255 35.429)">
            <path id="パス_1937" data-name="パス 1937" d="M955.626,449.719a.642.642,0,0,1-.64-.61c-.165-3.327.162-17.537.378-26.94.068-2.961.124-5.416.149-6.849.1-5.873.718-21.09.724-21.243a.642.642,0,1,1,1.282.052c-.006.153-.62,15.355-.723,21.214-.025,1.434-.082,3.892-.15,6.856-.216,9.385-.541,23.567-.379,26.848a.642.642,0,0,1-.609.672Z" transform="translate(-954.941 -393.461)" fill="#000931"/>
          </g>
          <g id="グループ_1479" data-name="グループ 1479" transform="translate(47.54 36.424)">
            <path id="パス_1938" data-name="パス 1938" d="M965.608,451.05a.642.642,0,0,1-.642-.636c-.025-2.849.032-9.272.1-16.71.131-14.677.31-34.778-.089-37.17a.642.642,0,1,1,1.266-.211c.418,2.5.246,21.849.107,37.393-.066,7.432-.123,13.849-.1,16.686a.642.642,0,0,1-.636.648Z" transform="translate(-964.96 -395.787)" fill="#000931"/>
          </g>
          <g id="グループ_1480" data-name="グループ 1480" transform="translate(39.66 2.067)">
            <path id="パス_1939" data-name="パス 1939" d="M947.18,322.149a.642.642,0,0,1-.642-.642v-5.4a.642.642,0,1,1,1.283,0v5.4A.642.642,0,0,1,947.18,322.149Z" transform="translate(-946.538 -315.466)" fill="#000931"/>
          </g>
          <g id="グループ_1481" data-name="グループ 1481" transform="translate(51.842 2.224)">
            <path id="パス_1940" data-name="パス 1940" d="M975.66,323.036a.642.642,0,0,1-.642-.642v-5.92a.642.642,0,1,1,1.283,0v5.92A.641.641,0,0,1,975.66,323.036Z" transform="translate(-975.018 -315.833)" fill="#000931"/>
          </g>
          <g id="グループ_1482" data-name="グループ 1482" transform="translate(52.619 67.707)">
            <path id="パス_1941" data-name="パス 1941" d="M996.555,477.9a1.876,1.876,0,0,1-.794,1.022c-1.977,1.044-4.842-.672-7.651.161a20.546,20.546,0,0,1-9.889,0c-2.97-.783-1.2-3.854,5.569-5.414s6.135-5.43,9.211-4.636a4.193,4.193,0,0,1,1.865,1.049,25.666,25.666,0,0,0,1.455,7.279C996.4,477.535,996.477,477.712,996.555,477.9Z" transform="translate(-976.834 -468.923)" fill="#1c3b69"/>
          </g>
          <g id="グループ_1483" data-name="グループ 1483" transform="translate(32.201 7.008)">
            <path id="パス_1942" data-name="パス 1942" d="M929.1,327.018" transform="translate(-929.1 -327.018)" fill="#2c4e88" stroke="#000931" stroke-linecap="round" stroke-linejoin="round" stroke-width="3"/>
          </g>
        </g>
      </g>
      <g id="顔" transform="translate(849.727 136.478)">
        <g id="グループ_1489" data-name="グループ 1489" transform="translate(0 0)">
          <g id="グループ_1485" data-name="グループ 1485" transform="translate(0.644 0.632)">
            <g id="グループ_1484" data-name="グループ 1484">
              <path id="パス_1943" data-name="パス 1943" d="M942.228,201.942,944.8,199.2a2.233,2.233,0,0,0,.685-2.606l-1.842-8.321a19.988,19.988,0,0,1,6.964.767c-1.964-6.241-5.013-12.077-8.046-17.875a26.974,26.974,0,0,1,6.787,4.6c.3-1.294-.475-2.568-1.214-3.671-3.755-5.608-7.547-11.261-12.375-15.977l8.211-1.485c-3.256-1.128-6.817-.586-10.261-.719a1.769,1.769,0,0,1-.88-.194,1.892,1.892,0,0,1-.639-.952,31.32,31.32,0,0,0-7.172-10.566c1.057,2.966-.063,6.955,0,10.1l-1.477-.606a99.771,99.771,0,0,0-17.013-6.885,21.413,21.413,0,0,1,6.015,7.5c-8.532-1.535-17.524-2.1-25.7.786a25.419,25.419,0,0,0,8.245,3.109,54.375,54.375,0,0,0-10.157,5.845,23.8,23.8,0,0,0-7.421,8.943,19.97,19.97,0,0,0,6.115-1.582,9.121,9.121,0,0,1-1.237,4.762c-2.576,5.612-4.712,11.523-5.2,17.678l3.82-2.772q.7,4.66,1.344,9.328c.6.026,1.674-.926,1.953-1.453Z" transform="translate(-877.19 -142.2)" fill="#7b5f32"/>
            </g>
          </g>
          <g id="グループ_1488" data-name="グループ 1488">
            <g id="グループ_1487" data-name="グループ 1487">
              <g id="グループ_1486" data-name="グループ 1486">
                <path id="パス_1944" data-name="パス 1944" d="M941.82,201.55c1.315-1.406,3.652-3,3.562-5.134-.125-2.986-1.341-6.248-1.986-9.163l-.619.812a21.585,21.585,0,0,1,6.793.744.647.647,0,0,0,.789-.789,116.248,116.248,0,0,0-8.11-18.028l-.878.878a28.718,28.718,0,0,1,6.657,4.5.65.65,0,0,0,1.1-.453c.183-1.816-.745-3.157-1.719-4.618-1.249-1.875-2.514-3.741-3.821-5.576a75.474,75.474,0,0,0-8.237-9.908l-.283,1.073,8.211-1.485c.657-.119.562-1.064,0-1.237a19.094,19.094,0,0,0-5.6-.757c-1.116-.007-2.232.038-3.348.038a2.541,2.541,0,0,1-2.874-1.834,32.618,32.618,0,0,0-6.845-9.714.646.646,0,0,0-1.072.624c.977,3.235-.012,6.636-.023,9.933l.812-.619c-2.78-1.14-5.426-2.589-8.2-3.764a104.488,104.488,0,0,0-10.294-3.727c-.584-.178-1.132.659-.625,1.072a22.261,22.261,0,0,1,5.915,7.367l.725-.942c-8.653-1.524-17.6-2.081-26.039.785a.65.65,0,0,0-.153,1.173,27.927,27.927,0,0,0,8.4,3.174l-.153-1.173c-7.152,3.368-14.31,7.59-17.808,15.018-.183.388.024,1.026.554.965a23.085,23.085,0,0,0,6.286-1.6l-.812-.619c.105,2.371-1.183,4.443-2.093,6.556-.685,1.591-1.327,3.2-1.9,4.836a46,46,0,0,0-2.443,11.047.645.645,0,0,0,.965.554l3.82-2.773-.942-.383q.7,4.661,1.344,9.328c.05.363.486.5.789.448a3.048,3.048,0,0,0,1.378-.684c.2-.159,1.169-.976.421-.744a2.085,2.085,0,0,1,.659.056c1.16.139,2.334.2,3.5.3l13.556,1.167,32.384,2.789,7.807.672c.823.071.818-1.213,0-1.283l-50.709-4.366-7.212-.621a.645.645,0,0,0-.554.318,2.617,2.617,0,0,1-1.569,1.157l.789.448q-.647-4.668-1.344-9.328a.644.644,0,0,0-.943-.383L876,190.452l.966.554a46.275,46.275,0,0,1,2.925-12.16c1.211-3.218,3.666-6.728,3.508-10.279-.017-.37-.4-.787-.812-.619a21.781,21.781,0,0,1-5.945,1.559l.554.965c3.41-7.243,10.381-11.277,17.347-14.557a.648.648,0,0,0-.153-1.173A26.857,26.857,0,0,1,886.3,151.7l-.154,1.172c8.227-2.792,16.925-2.271,25.357-.785a.651.651,0,0,0,.725-.943,23.061,23.061,0,0,0-6.115-7.627l-.625,1.072a101.624,101.624,0,0,1,11.455,4.233c2.367,1.047,4.642,2.276,7.036,3.258a.646.646,0,0,0,.812-.619c.011-3.43.995-6.907-.023-10.275l-1.072.625a32.013,32.013,0,0,1,4.615,5.682,31.581,31.581,0,0,1,1.573,2.8,14.236,14.236,0,0,0,1.235,2.616c.93,1.158,2.621.83,3.947.816a25.161,25.161,0,0,1,7.864.681v-1.237l-8.211,1.485a.646.646,0,0,0-.283,1.072,71.671,71.671,0,0,1,7.6,9.037c1.025,1.422,2.018,2.867,3,4.318,1.136,1.678,3.016,3.7,2.8,5.84l1.1-.454a29.964,29.964,0,0,0-6.916-4.7.647.647,0,0,0-.878.878,114.257,114.257,0,0,1,7.981,17.722l.789-.789a22.643,22.643,0,0,0-7.134-.79.651.651,0,0,0-.619.812l1.474,6.656c.364,1.644.419,2.747-.665,4.2a28.165,28.165,0,0,1-2.055,2.2C940.349,201.245,941.254,202.155,941.82,201.55Z" transform="translate(-875.685 -140.722)" fill="#000931"/>
              </g>
            </g>
          </g>
        </g>
        <g id="グループ_1495" data-name="グループ 1495" transform="translate(8.377 20.064)">
          <g id="グループ_1492" data-name="グループ 1492">
            <g id="グループ_1490" data-name="グループ 1490" transform="translate(0.633 0.654)">
              <path id="パス_1945" data-name="パス 1945" d="M924.7,189.539s-26.081-6.555-25.244,34.727c-4.045,4.045-4.324,12.552,4.463,12.273,6.137,11.157,33.729,8.974,40.423.745,10.589-.609,8.945-12.84,4.747-11.015C954.888,184.044,924.7,189.539,924.7,189.539Z" transform="translate(-896.749 -189.158)" fill="#fcecda"/>
            </g>
            <g id="グループ_1491" data-name="グループ 1491">
              <path id="パス_1946" data-name="パス 1946" d="M922.173,243.961c-1.281,0-2.563-.056-3.834-.17-7.615-.687-13.143-3.337-15.63-7.478h-.049c-4.54,0-6.241-2.329-6.855-3.748-1.221-2.821-.29-6.825,2.162-9.428-.269-15.327,3.11-25.9,10.046-31.421a19.625,19.625,0,0,1,15.865-3.706c1.326-.212,11.156-1.51,18.36,5.386,6.349,6.077,8.622,16.564,6.764,31.176a2.429,2.429,0,0,1,1.772.7c1.369,1.287,1.746,4.06.877,6.451-1.121,3.084-3.968,5.01-7.836,5.313C940.218,241.175,931.254,243.96,922.173,243.961Zm-19.1-8.938a.642.642,0,0,1,.563.333c2.172,3.948,7.434,6.49,14.816,7.157,10.058.907,20.84-1.951,24.547-6.508a.641.641,0,0,1,.461-.236c4.755-.273,6.415-2.93,6.982-4.489.773-2.128.328-4.253-.55-5.078a1.178,1.178,0,0,0-1.393-.219.642.642,0,0,1-.891-.676c2.011-14.65-.092-25.071-6.25-30.975-7.094-6.8-17.287-5.055-17.389-5.037a.633.633,0,0,1-.27-.009c-.08-.019-8.146-1.946-14.9,3.445-6.636,5.3-9.847,15.607-9.542,30.647a.641.641,0,0,1-.188.466c-2.243,2.244-3.14,5.774-2.085,8.21.883,2.039,2.98,3.071,6.074,2.969Z" transform="translate(-895.27 -187.629)" fill="#000931"/>
            </g>
          </g>
          <g id="グループ_1494" data-name="グループ 1494" transform="translate(2.741 35.543)">
            <g id="グループ_1493" data-name="グループ 1493" transform="translate(0 0)">
              <rect id="長方形_212" data-name="長方形 212" width="1.283" height="13.06" transform="matrix(0.94, -0.342, 0.342, 0.94, 0, 0.439)" fill="#000931"/>
            </g>
          </g>
        </g>
        <g id="グループ_1500" data-name="グループ 1500" transform="translate(5.871 12.488)">
          <g id="グループ_1497" data-name="グループ 1497">
            <g id="グループ_1496" data-name="グループ 1496">
              <path id="パス_1947" data-name="パス 1947" d="M893.565,210.916a17.586,17.586,0,0,0,4.158-3.3l2.214,5.576,7.618-18.929,2.748,7.361c6.3-5.956,13.232-25.244,16.705-31.711,0,0-56.505,22.271-30.977,31.4Z" transform="translate(-889.411 -169.917)" fill="#7b5f32"/>
            </g>
          </g>
          <g id="グループ_1499" data-name="グループ 1499" transform="translate(24.354)">
            <g id="グループ_1498" data-name="グループ 1498">
              <path id="パス_1948" data-name="パス 1948" d="M959.593,169.917c17.684,4.07,21.795,36.926,21.795,36.926q-.058,4.824-.028,9.648l-5.6-14.685a37.945,37.945,0,0,1-.623,7.122c-2.414-6.409-4.9-12.941-9.212-18.26a59.128,59.128,0,0,0-8.035,9.448q-.922-4.247-1.845-8.495l-9.7,5.727" transform="translate(-946.348 -169.917)" fill="#7b5f32"/>
            </g>
          </g>
        </g>
        <g id="グループ_1503" data-name="グループ 1503" transform="translate(9.25 25.102)">
          <g id="グループ_1502" data-name="グループ 1502">
            <g id="グループ_1501" data-name="グループ 1501">
              <path id="パス_1949" data-name="パス 1949" d="M952.537,223.72q-.055,4.824-.028,9.648l1.261-.171-5.6-14.685a.645.645,0,0,0-1.26.171,41.448,41.448,0,0,1-.6,6.952h1.237c-2.459-6.523-5.007-13.029-9.377-18.543a.649.649,0,0,0-.908,0,63.718,63.718,0,0,0-8.135,9.578l1.172.153q-.923-4.247-1.845-8.494a.648.648,0,0,0-.943-.384l-9.7,5.727.878.878,8.5-14.183-1.108-.648a138.787,138.787,0,0,1-11.964,18.462l1.172.154-2.748-7.361a.648.648,0,0,0-1.237,0L903.693,229.9h1.237l-2.214-5.576a.65.65,0,0,0-1.072-.283,19.154,19.154,0,0,1-4.028,3.195l.942.725a49.633,49.633,0,0,1,2.468-9.594c.284-.777-.955-1.112-1.237-.341a49.64,49.64,0,0,0-2.468,9.594.651.651,0,0,0,.943.725,20.45,20.45,0,0,0,4.288-3.4l-1.072-.283,2.214,5.576a.648.648,0,0,0,1.237,0l7.619-18.929h-1.237l2.748,7.36a.652.652,0,0,0,1.172.154A138.871,138.871,0,0,0,927.2,200.366a.642.642,0,0,0-1.108-.648l-8.5,14.184a.646.646,0,0,0,.878.878l9.7-5.727-.942-.384,1.845,8.495a.649.649,0,0,0,1.173.153A61.953,61.953,0,0,1,938.173,208h-.908c4.222,5.325,6.674,11.679,9.048,17.977.2.527,1.119.688,1.237,0a43.535,43.535,0,0,0,.646-7.293l-1.26.171,5.6,14.685a.645.645,0,0,0,1.26-.17q-.027-4.824.028-9.648a.642.642,0,0,0-1.283,0Z" transform="translate(-897.311 -199.408)" fill="#000931"/>
            </g>
          </g>
        </g>
        <g id="グループ_1505" data-name="グループ 1505" transform="translate(46.173 52.23)">
          <g id="グループ_1504" data-name="グループ 1504">
            <path id="パス_1950" data-name="パス 1950" d="M983.734,263.836a34.511,34.511,0,0,0,0,4.954c.231,1.123,2.074,4.061,4.061,4.061s4.349-2.3,4.406-4.507,0-5.515,0-5.515S985.2,262.885,983.734,263.836Z" transform="translate(-983.631 -262.828)" fill="#000931"/>
          </g>
        </g>
        <g id="グループ_1507" data-name="グループ 1507" transform="translate(49.646 55.467)">
          <g id="グループ_1506" data-name="グループ 1506">
            <ellipse id="楕円形_88" data-name="楕円形 88" cx="0.824" cy="1.411" rx="0.824" ry="1.411" fill="#fff"/>
          </g>
        </g>
        <g id="グループ_1509" data-name="グループ 1509" transform="translate(42.579 44.416)">
          <g id="グループ_1508" data-name="グループ 1508">
            <path id="パス_1951" data-name="パス 1951" d="M985.63,248.193l-10.4-3.633s.259,2.77,9.269,3.633" transform="translate(-975.229 -244.56)" fill="#000931"/>
          </g>
        </g>
        <g id="グループ_1514" data-name="グループ 1514" transform="translate(43.307 51.47)">
          <g id="グループ_1513" data-name="グループ 1513">
            <g id="グループ_1512" data-name="グループ 1512">
              <g id="グループ_1511" data-name="グループ 1511">
                <g id="グループ_1510" data-name="グループ 1510">
                  <path id="パス_1952" data-name="パス 1952" d="M977.36,265.45a.428.428,0,0,1-.333-.7c3.151-3.919,9.61-3.942,14.887-3.525a.428.428,0,0,1-.068.853c-5.065-.4-11.252-.4-14.152,3.208A.428.428,0,0,1,977.36,265.45Z" transform="translate(-976.932 -261.052)" fill="#000931"/>
                </g>
              </g>
            </g>
          </g>
        </g>
        <g id="グループ_1516" data-name="グループ 1516" transform="translate(20.068 52.23)">
          <g id="グループ_1515" data-name="グループ 1515">
            <path id="パス_1953" data-name="パス 1953" d="M931.095,263.836a34.493,34.493,0,0,1,0,4.954c-.23,1.123-2.073,4.061-4.061,4.061s-4.349-2.3-4.407-4.507,0-5.515,0-5.515S929.626,262.885,931.095,263.836Z" transform="translate(-922.602 -262.828)" fill="#000931"/>
          </g>
        </g>
        <g id="グループ_1518" data-name="グループ 1518" transform="translate(23.542 55.467)">
          <g id="グループ_1517" data-name="グループ 1517">
            <ellipse id="楕円形_89" data-name="楕円形 89" cx="0.824" cy="1.411" rx="0.824" ry="1.411" fill="#fff"/>
          </g>
        </g>
        <g id="グループ_1520" data-name="グループ 1520" transform="translate(21.857 44.416)">
          <g id="グループ_1519" data-name="グループ 1519">
            <path id="パス_1954" data-name="パス 1954" d="M926.783,248.193l10.4-3.633s-.258,2.77-9.268,3.633" transform="translate(-926.783 -244.56)" fill="#000931"/>
          </g>
        </g>
        <g id="グループ_1525" data-name="グループ 1525" transform="translate(16.154 51.47)">
          <g id="グループ_1524" data-name="グループ 1524">
            <g id="グループ_1523" data-name="グループ 1523">
              <g id="グループ_1522" data-name="グループ 1522">
                <g id="グループ_1521" data-name="グループ 1521">
                  <path id="パス_1955" data-name="パス 1955" d="M928.4,265.45a.428.428,0,0,1-.334-.16c-2.9-3.607-9.087-3.609-14.153-3.208a.428.428,0,0,1-.068-.853c5.276-.418,11.735-.394,14.887,3.525a.428.428,0,0,1-.333.7Z" transform="translate(-913.451 -261.052)" fill="#000931"/>
                </g>
              </g>
            </g>
          </g>
        </g>
        <g id="グループ_370" data-name="グループ 370" transform="translate(35.236 61.997)">
          <g id="パス_1151" data-name="パス 1151">
            <g id="グループ_1526" data-name="グループ 1526">
              <path id="パス_1956" data-name="パス 1956" d="M960.3,287.471c-1.607.528-2.729.293-2.011-.8s1.227-1.032,2.263-.986,2.359,1.269,1.644,1.835S960.891,287.275,960.3,287.471Z" transform="translate(-958.064 -285.663)" fill="#ffbdad"/>
            </g>
          </g>
        </g>
        <g id="グループ_371" data-name="グループ 371" transform="translate(36.886 63.508)">
          <g id="楕円形_27" data-name="楕円形 27">
            <g id="グループ_1527" data-name="グループ 1527">
              <ellipse id="楕円形_90" data-name="楕円形 90" cx="0.446" cy="0.491" rx="0.446" ry="0.491" fill="#000333"/>
            </g>
          </g>
        </g>
        <g id="グループ_1530" data-name="グループ 1530" transform="translate(55.965 57.188)">
          <g id="グループ_1528" data-name="グループ 1528" transform="translate(0.642 0.642)">
            <line id="線_11" data-name="線 11" y1="11.015" x2="4.747" fill="#fcecda"/>
          </g>
          <g id="グループ_1529" data-name="グループ 1529">
            <path id="パス_1957" data-name="パス 1957" d="M1007.165,286.718a.641.641,0,0,1-.589-.9l4.747-11.015a.642.642,0,1,1,1.178.508l-4.747,11.015A.64.64,0,0,1,1007.165,286.718Z" transform="translate(-1006.523 -274.42)" fill="#000931"/>
          </g>
        </g>
        <g id="グループ_1532" data-name="グループ 1532" transform="translate(32.497 68.821)">
          <g id="グループ_1531" data-name="グループ 1531">
            <path id="パス_1958" data-name="パス 1958" d="M956.663,303.745a4.53,4.53,0,0,1-1.89-.633,6.232,6.232,0,0,0-.725-.332,2.618,2.618,0,0,0-1.573.3.56.56,0,0,1-.517-.994,3.63,3.63,0,0,1,2.439-.369,6.811,6.811,0,0,1,.879.4,3.875,3.875,0,0,0,1.385.512,3.734,3.734,0,0,0,1.169-.378,6.914,6.914,0,0,1,.776-.3,3.076,3.076,0,0,1,2.509.591.56.56,0,0,1-.7.878h0a1.963,1.963,0,0,0-1.5-.393,6.176,6.176,0,0,0-.641.253A4.384,4.384,0,0,1,956.663,303.745Z" transform="translate(-951.659 -301.618)" fill="#000931"/>
          </g>
        </g>
      </g>
    </g>
  </g>
</svg>
