<svg xmlns="http://www.w3.org/2000/svg" viewBox="0 0 222.26 653"><defs><style>.cls-1{fill:#111;}.cls-2,.cls-4{fill:#2c4e88;}.cls-11,.cls-15,.cls-2,.cls-3,.cls-4,.cls-7,.cls-8{stroke:#000931;}.cls-15,.cls-2,.cls-3,.cls-4,.cls-7,.cls-8{stroke-linecap:round;stroke-linejoin:round;}.cls-11,.cls-2,.cls-3,.cls-8{stroke-width:3px;}.cls-3{fill:#fcecda;}.cls-4,.cls-7{stroke-width:2px;}.cls-5{fill:#1c3b69;}.cls-6{fill:#f6beb0;}.cls-11,.cls-15,.cls-7,.cls-8{fill:none;}.cls-9{fill:#000931;}.cls-10{fill:#7b5f32;}.cls-11{stroke-miterlimit:10;}.cls-12{fill:#fff;}.cls-13{fill:#ffbdad;}.cls-14{fill:#000333;}.cls-15{stroke-width:2.62px;}.cls-16{fill:#bababa;}</style></defs><title>boy_angry</title><g id="レイヤー_2" data-name="レイヤー 2"><g id="_男_表情パターン" data-name="【男】表情パターン"><g id="怒った時"><g id="体"><g id="下半身"><path class="cls-1" d="M48.66,399s9.18,76.8,11.14,98C61.65,516.86,77,628.32,77,628.32H99.15L107.9,442l.32,3V395Z"/><path class="cls-1" d="M168,399s-9.17,76.8-11.14,98c-1.85,19.95-17.22,131.41-17.22,131.41H117.55L108.81,442l-.33,3V395Z"/><path d="M37.78,653h59a4.3,4.3,0,0,0,4.3-4.3V626.91l-41.8-4.16a22,22,0,0,0-2.43-.13h0A27.14,27.14,0,0,0,32.39,638l-1.75,3.63A7.93,7.93,0,0,0,37.78,653Z"/><path d="M178.27,653h-59a4.3,4.3,0,0,1-4.3-4.3V626.91l41.8-4.16a22,22,0,0,1,2.43-.13h0A27.14,27.14,0,0,1,183.66,638l1.75,3.63A7.93,7.93,0,0,1,178.27,653Z"/></g><g id="上半身"><path class="cls-2" d="M11.85,370.64s-2,8.15,3.1,9.13,23.5,0,23.5,0L49,364l-13.88-2.68Z"/><path class="cls-3" d="M24.53,380.16S22.72,409,37.14,409.91l-1-20.28L45,397.78l5.92-29.23Z"/><path class="cls-4" d="M165.36,209.16a48.83,48.83,0,0,1,5.24,3.52c1.55,1.34,9.36,19.11,8.15,30.55s3.07,132.16,3.07,132.16,1.72,18.59-12.7,20.54S63.5,388.71,63.5,388.71s-30.3-20.68-31.76-42,4.15-89.63,4.15-89.63l14.84-40.41,24.82-7.53Z"/><path class="cls-2" d="M67.12,253.68l-4.17,25v63.53s-28.11,23.36-31.58,26.1S10,371.37,6.18,370.64,1.5,358.39,1.5,358.39c2.22-13.92,8.88-31.92,10.34-61.13s11.78-63.14,24.53-73.54l17.72-3.86L64.6,232.64"/><path class="cls-2" d="M208.53,370.64s2,8.15-3.1,9.13-23.49,0-23.49,0L171.36,364l13.87-2.68Z"/><path class="cls-3" d="M195.85,380.16s3.69,28.83-10.73,29.75l-.9-20.28-7.9,10.77-6.84-31.85Z"/><path class="cls-2" d="M153.27,253.68l4.16,25v63.53s28.11,23.36,31.58,26.1,21.36,3.1,25.19,2.37,6.56-12.16,6.56-12.16c-2-15.62-10.76-32-12.22-61.22S196.76,234.12,184,223.72L166.3,212.51l-13.52,6.43"/><path class="cls-4" d="M43.36,380.44C39,383.91,35,396,44.7,399.61s9.67,1.09,28.29,4.2,50.75,2.55,66.08,1.64,39.61-.73,41.89-8.22-.24-12.32-4.47-12.18-59.87-4.61-59.87-4.61l-65.9-1.28Z"/><path class="cls-5" d="M58.17,321.18c0,13.55,1.18,25.73-5.25,25.73s-18.06-12.18-18.06-25.73c0-5.43-.53-14.44.89-18.5,2.12-6.08,6.91-6,10.77-6C53,296.66,58.17,307.64,58.17,321.18Z"/><path class="cls-5" d="M179.77,323.85c0,13.55-5.22,24.53-11.65,24.53s-11.66-11-11.66-24.53,5.22-24.53,11.66-24.53c4.41,0,9.67-.61,11.65,7C180.67,309.82,179.77,319.6,179.77,323.85Z"/><path class="cls-3" d="M55.77,210.37s24-11.65,38.45-11.54,47.59,4.12,51.24,6.92S118.65,251.19,107,248.49s-48.38-26.43-48.38-26.43Z"/><path class="cls-2" d="M175.16,249.71C177,272.84,176.38,286.19,173,299l-2.22,43.9c5,15.57,12,16.19,9.18,31.45S165,392.41,165,392.41a198.4,198.4,0,0,1-52,6.71h-9.73a198.52,198.52,0,0,1-52-6.71s-12-2.78-14.86-18.06,1.38-14.32,6.42-29.88l-.13-40.82c-1.73-11.81-7.64-34.26-4.95-53.94"/><path class="cls-2" d="M109.07,248.83s35.66-37.24,34.56-40.65-6.81-7.3-20.2-7.06l-4.81-4.38a81.18,81.18,0,0,1,8.86-3.38c7.26-2.51,24.79-7.33,29.48-5.14a16.74,16.74,0,0,1,8.82,11.93c.73,4.62,3.41,4.38,4.87,7.3s2.92,8,0,10.8-13.14,6-18.5,10.13S123.92,249.31,109.07,248.83Z"/><path class="cls-2" d="M54.07,229.6c9.82,3.92,53.88,19.23,53.88,19.23s-48.3-30.28-40.83-39.07,22-10.44,24.28-10.93-8.56-6-18.78-6S40.25,210.57,41,216.17C41,216.17,44.24,225.68,54.07,229.6Z"/><path class="cls-6" d="M122.7,192.88v14.33s-4.4,2.55-14.47,2.55-13-2.55-13-2.55V192.88H122.7"/><line class="cls-7" x1="87.24" y1="213.4" x2="97.56" y2="218.94"/><line class="cls-7" x1="128.95" y1="213.4" x2="118.62" y2="218.94"/><path class="cls-8" d="M107,248.49l5.94.12s7.26,18.47,4.7,22.73-16.31-1.09-15.82-5.48S106,248.15,107,248.49Z"/><path class="cls-9" d="M109.07,253.73c1.83-.38,3.44,1.64,3.53,5.06s.46,6.3-3,5.43-2.83-4-2.65-5.19S107.28,254.09,109.07,253.73Z"/><path class="cls-8" d="M105.65,270.51s-1.45,35.76-1.69,49.63-1.74,68.71-1.23,78.89"/><path class="cls-8" d="M112.66,399c-.18-20.24,1.42-117.67,0-126.19"/><line class="cls-8" x1="94.22" y1="192.52" x2="94.22" y2="205.14"/><line class="cls-8" x1="122.7" y1="206.72" x2="122.7" y2="192.88"/><path class="cls-5" d="M169.12,365.45a4.36,4.36,0,0,1-1.85,2.39c-4.62,2.44-11.32-1.57-17.89.37s-16.19,1.82-23.12,0-2.8-9,13-12.65,14.34-12.7,21.54-10.84a9.85,9.85,0,0,1,4.36,2.45c.62,7.67,2,13.7,3.4,17Z"/></g></g><g id="顔"><path class="cls-10" d="M175.71,157.35l6-6.42a5.19,5.19,0,0,0,1.6-6.09L179,125.39a46.68,46.68,0,0,1,16.28,1.79C190.7,112.59,183.57,99,176.48,85.39a63.34,63.34,0,0,1,15.86,10.76c.7-3-1.11-6-2.83-8.58-8.78-13.11-17.65-26.33-28.94-37.35l19.2-3.47c-7.61-2.64-15.94-1.37-24-1.68a4.09,4.09,0,0,1-2.05-.46,4.39,4.39,0,0,1-1.5-2.22,73.19,73.19,0,0,0-16.77-24.71c2.47,6.94-.14,16.26,0,23.62L132,39.89a233.86,233.86,0,0,0-39.77-16.1A50.15,50.15,0,0,1,106.3,41.32c-20-3.59-41-4.9-60.08,1.84A59.52,59.52,0,0,0,65.5,50.43C57.21,54.3,49,58.53,41.75,64.09S28.14,76.65,24.4,85a46.93,46.93,0,0,0,14.3-3.7c.47,3.86-1.27,7.6-2.89,11.13-6,13.12-11,26.94-12.15,41.33l8.93-6.48q1.63,10.89,3.14,21.81c1.39.06,3.91-2.17,4.57-3.4Z"/><path class="cls-9" d="M176.77,158.41c3.07-3.28,8.54-7,8.33-12-.3-7-3.14-14.61-4.65-21.42l-1.44,1.9a50.37,50.37,0,0,1,15.88,1.74,1.51,1.51,0,0,0,1.84-1.85c-4.74-14.73-11.81-28.47-19-42.14l-2.05,2a67.21,67.21,0,0,1,15.56,10.52,1.52,1.52,0,0,0,2.56-1.06c.43-4.24-1.74-7.38-4-10.79-2.92-4.39-5.87-8.75-8.93-13a176.4,176.4,0,0,0-19.25-23.16l-.67,2.5,19.2-3.47c1.54-.27,1.31-2.48,0-2.89a44.92,44.92,0,0,0-13.1-1.77c-2.61,0-5.21.09-7.82.09-3.67,0-5.12-.75-6.72-4.29a76.27,76.27,0,0,0-16-22.71A1.51,1.51,0,0,0,134,18.08c2.28,7.57,0,15.52-.06,23.22l1.9-1.44c-6.5-2.67-12.68-6-19.16-8.8a241.39,241.39,0,0,0-24.06-8.71c-1.37-.42-2.65,1.54-1.46,2.5A52,52,0,0,1,105,42.08l1.7-2.21C86.47,36.31,65.56,35,45.82,41.71a1.52,1.52,0,0,0-.36,2.74A65.27,65.27,0,0,0,65.1,51.87l-.36-2.74C48,57,31.28,66.87,23.11,84.24c-.43.91.05,2.4,1.29,2.26a54.52,54.52,0,0,0,14.7-3.75L37.2,81.3c.24,5.54-2.77,10.39-4.89,15.33-1.61,3.72-3.11,7.48-4.44,11.3a107.46,107.46,0,0,0-5.71,25.83,1.51,1.51,0,0,0,2.26,1.3l8.93-6.48-2.21-.9q1.63,10.89,3.15,21.81c.11.84,1.13,1.18,1.84,1a7.08,7.08,0,0,0,3.22-1.59c.47-.38,2.74-2.28,1-1.74a4.78,4.78,0,0,1,1.54.13c2.71.32,5.45.47,8.17.7l31.7,2.73,75.71,6.52,18.25,1.57c1.92.17,1.91-2.83,0-3L57.16,145.64,40.3,144.19a1.55,1.55,0,0,0-1.3.74,6.08,6.08,0,0,1-3.67,2.71l1.85,1.05Q35.67,137.77,34,126.88a1.51,1.51,0,0,0-2.2-.9l-8.93,6.49,2.26,1.29A108,108,0,0,1,32,105.33c2.83-7.52,8.57-15.73,8.2-24,0-.87-1-1.84-1.9-1.45A51,51,0,0,1,24.4,83.5l1.3,2.26c8-16.94,24.27-26.37,40.55-34A1.51,1.51,0,0,0,65.89,49,62.92,62.92,0,0,1,47,41.86l-.36,2.74c19.23-6.53,39.57-5.31,59.28-1.83a1.52,1.52,0,0,0,1.69-2.21A53.91,53.91,0,0,0,93.3,22.73l-1.46,2.51a238.75,238.75,0,0,1,26.78,9.89c5.53,2.45,10.85,5.33,16.45,7.62.92.38,1.89-.57,1.89-1.45,0-8,2.33-16.14-.05-24l-2.51,1.46A74.89,74.89,0,0,1,145.19,32a71.27,71.27,0,0,1,3.68,6.55c.95,1.91,1.55,4.44,2.89,6.11,2.17,2.71,6.13,1.94,9.23,1.91,6.24-.06,12.34-.27,18.38,1.59V45.3l-19.19,3.47a1.52,1.52,0,0,0-.67,2.51,166.9,166.9,0,0,1,17.77,21.13c2.4,3.32,4.72,6.7,7,10.09,2.65,3.92,7,8.65,6.54,13.65l2.56-1.06a69.84,69.84,0,0,0-16.17-11,1.51,1.51,0,0,0-2,2.05c7,13.45,14,26.95,18.66,41.43l1.85-1.84A52.78,52.78,0,0,0,179,123.89a1.52,1.52,0,0,0-1.45,1.9L181,141.35c.85,3.84,1,6.42-1.56,9.81a66.37,66.37,0,0,1-4.8,5.13C173.33,157.7,175.45,159.83,176.77,158.41Z"/><path class="cls-3" d="M108.57,65.53s-61-15.32-59,81.19C40.1,156.17,39.45,176.06,60,175.41c14.35,26.09,78.85,21,94.5,1.74,24.76-1.42,20.92-30,11.1-25.75C179.14,52.69,108.57,65.53,108.57,65.53Z"/><line class="cls-11" x1="59.99" y1="175.41" x2="49.56" y2="146.72"/><path class="cls-10" d="M45.59,141.25a41,41,0,0,0,9.72-7.7l5.18,13L78.3,102.33l6.43,17.21c14.73-13.93,30.93-59,39.05-74.14,0,0-132.1,52.07-72.42,73.42Z"/><path class="cls-10" d="M123.78,45.4c41.34,9.52,51,86.33,51,86.33q-.13,11.28-.07,22.55L161.59,120a88.56,88.56,0,0,1-1.46,16.65c-5.64-15-11.45-30.25-21.53-42.69A138,138,0,0,0,119.81,116q-2.16-9.93-4.31-19.86L92.82,109.53"/><path class="cls-9" d="M172.89,131.73q-.13,11.28-.07,22.55l3-.4-13.08-34.33a1.51,1.51,0,0,0-2.95.4,97.24,97.24,0,0,1-1.4,16.25h2.89c-5.75-15.24-11.7-30.46-21.92-43.35a1.52,1.52,0,0,0-2.12,0,149,149,0,0,0-19,22.4l2.74.35q-2.16-9.93-4.31-19.86a1.52,1.52,0,0,0-2.21-.89L91.71,108.24l2.06,2.05,19.88-33.16-2.59-1.51a326.53,326.53,0,0,1-28,43.16l2.74.36L79.4,101.93a1.51,1.51,0,0,0-2.89,0L58.7,146.18h2.89l-5.18-13a1.52,1.52,0,0,0-2.5-.67A44.72,44.72,0,0,1,44.49,140l2.2,1.7a116.38,116.38,0,0,1,5.77-22.43c.67-1.82-2.23-2.6-2.89-.8a115.84,115.84,0,0,0-5.77,22.43,1.52,1.52,0,0,0,2.2,1.69,47.75,47.75,0,0,0,10-7.93l-2.51-.67,5.18,13a1.51,1.51,0,0,0,2.89,0L79.4,102.73H76.51l6.42,17.2a1.53,1.53,0,0,0,2.75.36,325.23,325.23,0,0,0,28-43.16,1.5,1.5,0,0,0-2.59-1.51L91.17,108.78a1.51,1.51,0,0,0,2.06,2l22.68-13.39-2.21-.9L118,116.4c.29,1.36,2.06,1.34,2.74.36A145,145,0,0,1,139.31,95h-2.12c9.87,12.45,15.6,27.31,21.15,42,.46,1.23,2.61,1.61,2.89,0a101.47,101.47,0,0,0,1.51-17l-2.94.4,13.08,34.33c.57,1.51,3,1.4,2.94-.4q-.06-11.28.07-22.55a1.5,1.5,0,0,0-3,0Z"/><path class="cls-9" d="M130.34,140.67s-.54,9,0,11.58,4.85,9.49,9.49,9.49,10.17-5.38,10.3-10.54,0-12.89,0-12.89S133.77,138.44,130.34,140.67Z"/><ellipse class="cls-12" cx="140.15" cy="149.18" rx="1.93" ry="3.3"/><path class="cls-9" d="M141.67,119.88l-21.29,14.49s-1.1-6.41,18.73-13.81"/><path class="cls-7" d="M124.4,145.82c6.87-8.54,20.84-8.91,33.95-7.87"/><path class="cls-9" d="M88.93,140.67s.53,9,0,11.58-4.85,9.49-9.5,9.49-10.16-5.38-10.3-10.54,0-12.89,0-12.89S85.49,138.44,88.93,140.67Z"/><ellipse class="cls-12" cx="79.12" cy="149.18" rx="1.93" ry="3.3"/><path class="cls-9" d="M77.6,119.88l21.29,14.49S100,128,80.16,120.56"/><path class="cls-7" d="M94.86,145.82C88,137.28,74,136.91,60.92,138"/><g id="グループ_370" data-name="グループ 370"><path id="パス_1151" data-name="パス 1151" class="cls-13" d="M109.75,165.37c-3.76,1.24-6.38.69-4.7-1.87s2.87-2.41,5.29-2.31,5.52,3,3.84,4.29S111.14,164.91,109.75,165.37Z"/></g><g id="グループ_371" data-name="グループ 371"><ellipse id="楕円形_27" data-name="楕円形 27" class="cls-14" cx="109.43" cy="165.82" rx="1.04" ry="1.15"/></g><path class="cls-15" d="M117.49,182.52s-3.7-4.66-7.81-4.66-9.16,4.66-9.16,4.66"/><line class="cls-3" x1="154.49" y1="177.15" x2="165.59" y2="151.4"/></g><path class="cls-16" d="M54.07,35.62V27s19.68-12.9-3.19-21.24C41.73-9.09,22.78,8.55,31.61,16.23,27.52,27.5,37.86,34.29,47.45,29.46A80.65,80.65,0,0,1,54.07,35.62Z"/><path class="cls-16" d="M42.13,49l-4.2-5.25S43.66,26.3,25.64,32.36C12.81,27.75,9.84,47.76,19,48.14c3,8.87,12.62,8,16.12.35A62,62,0,0,1,42.13,49Z"/></g></g></g></svg>