<svg xmlns="http://www.w3.org/2000/svg" xmlns:xlink="http://www.w3.org/1999/xlink" width="107" height="86" viewBox="0 0 107 86">
  <defs>
    <clipPath id="clip-path">
      <rect id="長方形_186" data-name="長方形 186" width="107" height="86" transform="translate(-7305 3943)" fill="#fff" stroke="#707070" stroke-width="1"/>
    </clipPath>
  </defs>
  <g id="マスクグループ_1" data-name="マスクグループ 1" transform="translate(7305 -3943)" clip-path="url(#clip-path)">
    <g id="グループ_747" data-name="グループ 747" transform="translate(-7448.272 3742)">
      <g id="グループ_681" data-name="グループ 681" transform="translate(223.172 248.374)">
        <path id="パス_1249" data-name="パス 1249" d="M988.465,683.754s-.807,6.883,2.471,8.44c0,0-6.8,3.063-7.483-2.707S988.465,683.754,988.465,683.754Z" transform="translate(-982.674 -683.032)" fill="#535353"/>
        <path id="パス_1250" data-name="パス 1250" d="M986.512,692.947a4.97,4.97,0,0,1-2.463-.579,4.41,4.41,0,0,1-2.092-3.575,5.683,5.683,0,0,1,1.206-4.651,6.544,6.544,0,0,1,4.527-1.888.723.723,0,0,1,.712.806c-.206,1.772-.236,6.612,2.064,7.7a.722.722,0,0,1-.013,1.31A10.807,10.807,0,0,1,986.512,692.947Zm.388-9.17a4.619,4.619,0,0,0-2.667,1.334,4.324,4.324,0,0,0-.842,3.512,3.021,3.021,0,0,0,1.369,2.488,5.508,5.508,0,0,0,3.9.068C986.857,689.21,986.813,685.485,986.9,683.777Z" transform="translate(-981.896 -682.253)" fill="#000333"/>
      </g>
      <g id="グループ_682" data-name="グループ 682" transform="translate(157.309 211.585)">
        <path id="パス_1251" data-name="パス 1251" d="M867.095,607.31s-11.887,14.91-20.55,12.88c0,0,7.978,5.414,17.118-2.978S867.095,607.31,867.095,607.31Z" transform="translate(-845.823 -606.589)" fill="#535353"/>
        <path id="パス_1252" data-name="パス 1252" d="M852.169,621.827a13.2,13.2,0,0,1-6.808-1.817.722.722,0,0,1,.57-1.3,6.789,6.789,0,0,0,1.549.174c7.969,0,18.163-12.664,18.272-12.8a.725.725,0,0,1,.749-.248,3.226,3.226,0,0,1,2.205,2.225c.536,2.17-1.258,5.166-5.333,8.906C859.247,620.755,855.306,621.826,852.169,621.827Zm-2.752-1.706c3,.693,7.755.579,12.98-4.218,4.794-4.4,5.132-6.586,4.908-7.5a1.616,1.616,0,0,0-.775-.994C864.752,609.551,856.825,618.645,849.417,620.121Z" transform="translate(-845.045 -605.811)" fill="#000333"/>
      </g>
      <g id="グループ_683" data-name="グループ 683" transform="translate(159.328 331.035)">
        <path id="パス_1253" data-name="パス 1253" d="M850.886,858.983s-.745,3.023,1.15,3.384,8.711,0,8.711,0l3.923-5.865-5.143-.993Z" transform="translate(-850.018 -854.787)" fill="#397c71"/>
        <path id="パス_1254" data-name="パス 1254" d="M854.4,862.47a21.264,21.264,0,0,1-3.275-.173,2.112,2.112,0,0,1-1.419-.947,4.852,4.852,0,0,1-.3-3.319.72.72,0,0,1,.432-.5l8.64-3.474a.715.715,0,0,1,.406-.039l5.143.993a.722.722,0,0,1,.463,1.11l-3.923,5.866a.725.725,0,0,1-.562.32C859.821,862.319,856.927,862.47,854.4,862.47Zm-3.654-3.743a3.069,3.069,0,0,0,.177,1.845.665.665,0,0,0,.473.307,60.326,60.326,0,0,0,8.177.007l3.117-4.66-3.867-.746Z" transform="translate(-849.238 -854.008)" fill="#000333"/>
      </g>
      <g id="グループ_684" data-name="グループ 684" transform="translate(164.874 333.734)">
        <path id="パス_1255" data-name="パス 1255" d="M862.615,865.42s-1.963,11.767,3.384,12.1l.927-8.6,2.931,3.993,2.536-11.808Z" transform="translate(-861.541 -860.394)" fill="#ffedd9"/>
        <path id="パス_1256" data-name="パス 1256" d="M865.221,877.47h-.046A3.729,3.729,0,0,1,862.394,876c-2.6-3.276-1.325-11.144-1.269-11.477a.721.721,0,0,1,.421-.542l9.778-4.3a.722.722,0,0,1,1,.813L869.784,872.3a.722.722,0,0,1-1.288.275l-1.83-2.494-.728,6.747A.722.722,0,0,1,865.221,877.47Zm-2.731-12.326c-.338,2.361-.692,7.785,1.035,9.959a2.365,2.365,0,0,0,1.062.788l.843-7.817a.722.722,0,0,1,1.3-.349l1.98,2.7,1.9-8.855Z" transform="translate(-860.763 -859.617)" fill="#000333"/>
      </g>
      <g id="グループ_685" data-name="グループ 685" transform="translate(165.694 203.213)">
        <path id="パス_1257" data-name="パス 1257" d="M927.025,633.406c-3.971,13.894-10.285,20.03-5.953,33.025s-23.409,23.823-23.409,23.823L864.4,672.75c-.9-9.385-.361-11.709,1.261-17.225s2.527-15.083.722-22.663-3.066-22.2,7.4-33.386,28.515-12.273,42.232-4.332c7.739,4.481,11.517,11.666,12.619,19.573a37.3,37.3,0,0,1,.346,4.538A48.719,48.719,0,0,1,927.025,633.406Z" transform="translate(-863.244 -589.233)" fill="#535353"/>
        <path id="パス_1258" data-name="パス 1258" d="M896.885,690.157a.72.72,0,0,1-.336-.083l-33.261-17.5a.721.721,0,0,1-.382-.569c-.907-9.4-.377-11.838,1.287-17.5,1.655-5.612,2.431-15.071.712-22.292-1.481-6.218-3.706-21.984,7.577-34.046,10.347-11.061,28.482-12.938,43.12-4.463,7.238,4.19,11.723,11.141,12.972,20.1a38.152,38.152,0,0,1,.354,4.626,49.722,49.722,0,0,1-1.986,14.36,106.443,106.443,0,0,1-3.739,10.523c-3.031,7.6-5.22,13.086-2.224,22.074,1.884,5.653-1.7,11.742-10.36,17.611a78.281,78.281,0,0,1-13.472,7.113A.723.723,0,0,1,896.885,690.157Zm-32.579-18.682,32.619,17.166c2.965-1.218,26.514-11.309,22.684-22.8-3.163-9.49-.773-15.481,2.252-23.066a105.038,105.038,0,0,0,3.692-10.385h0a48.243,48.243,0,0,0,1.931-13.938,36.807,36.807,0,0,0-.34-4.452c-1.185-8.5-5.426-15.088-12.266-19.048-14.063-8.142-31.45-6.375-41.343,4.2-10.805,11.551-8.653,26.734-7.227,32.725,1.861,7.814.925,17.418-.732,23.035C863.959,660.414,863.473,662.634,864.306,671.475Z" transform="translate(-862.466 -588.415)" fill="#000333"/>
      </g>
      <g id="グループ_686" data-name="グループ 686" transform="translate(176.631 264.249)">
        <path id="パス_1259" data-name="パス 1259" d="M889.129,722.536c3.485-2.91,7.309-5.99,9.678-5.787s5.448,2.944,5.584,5.482-5.922,4.331-8.46,4.8-9.2,3.756-9.238.711A7.6,7.6,0,0,1,889.129,722.536Z" transform="translate(-885.97 -716.017)" fill="#1e1e1e"/>
        <path id="パス_1260" data-name="パス 1260" d="M887.55,728.97a2.712,2.712,0,0,1-1.6-.42,1.85,1.85,0,0,1-.756-1.573,8.281,8.281,0,0,1,2.683-5.762l.013-.011c4.057-3.387,7.62-6.183,10.2-5.951,2.619.224,6.083,3.171,6.243,6.162.2,3.783-8.956,5.536-9.048,5.553a23.108,23.108,0,0,0-2.512.747A18.991,18.991,0,0,1,887.55,728.97Zm1.273-6.667a6.91,6.91,0,0,0-2.187,4.657c0,.309.106.383.15.413.774.553,3.752-.437,5.531-1.029a23.343,23.343,0,0,1,2.7-.8c3.273-.611,7.96-2.407,7.872-4.057-.117-2.183-2.963-4.633-4.924-4.8C895.774,716.514,891.594,719.989,888.823,722.3Z" transform="translate(-885.192 -715.238)" fill="#000333"/>
      </g>
      <g id="グループ_687" data-name="グループ 687" transform="translate(217.66 259.793)">
        <path id="パス_1261" data-name="パス 1261" d="M971.922,718.023a.721.721,0,0,1-.629-.368c-2.177-3.864.505-10.917.62-11.215a.722.722,0,0,1,1.347.52c-.026.066-2.553,6.716-.71,9.986a.722.722,0,0,1-.628,1.076Z" transform="translate(-970.443 -705.979)" fill="#000333"/>
      </g>
      <g id="グループ_688" data-name="グループ 688" transform="translate(169.342 275.118)">
        <path id="パス_1262" data-name="パス 1262" d="M920.177,738.322a16.218,16.218,0,0,1,3.307,1.3c.573.5,2.107,7.087,1.656,11.329s1.141,49,1.141,49,.638,6.892-4.708,7.615-39.16-2.674-39.16-2.674-11.234-7.671-11.776-15.566,1.539-33.23,1.539-33.23l5.5-14.985,9.2-2.792Z" transform="translate(-870.306 -738.081)" fill="#397c71"/>
        <path id="パス_1263" data-name="パス 1263" d="M919.017,807.652c-9.131,0-35.642-2.652-36.887-2.777a.24.24,0,0,1-.112-.04c-.463-.316-11.337-7.827-11.881-15.749-.536-7.823,1.518-33.012,1.539-33.266a.259.259,0,0,1,.014-.063l5.5-14.985a.24.24,0,0,1,.156-.147l9.2-2.792a.226.226,0,0,1,.07-.011h33.3a.232.232,0,0,1,.068.01,15.323,15.323,0,0,1,3.4,1.354c.66.577,2.195,7.239,1.737,11.536-.444,4.176,1.126,48.518,1.142,48.965a11.093,11.093,0,0,1-.359,3.61,5.346,5.346,0,0,1-4.558,4.252A19.064,19.064,0,0,1,919.017,807.652Zm-36.777-3.25c1.638.164,33.891,3.366,39.041,2.669,5.06-.684,4.507-7.288,4.5-7.354-.066-1.842-1.588-44.837-1.14-49.046.458-4.3-1.15-10.733-1.575-11.123a14.95,14.95,0,0,0-3.183-1.245H886.656L877.6,741.05l-5.448,14.842c-.085,1.042-2.061,25.5-1.536,33.161C871.126,796.478,881.429,803.835,882.239,804.4Z" transform="translate(-870.048 -737.822)" fill="#000333"/>
      </g>
      <g id="グループ_689" data-name="グループ 689" transform="translate(223.519 280.412)">
        <path id="パス_1264" data-name="パス 1264" d="M982.618,748.822" transform="translate(-982.618 -748.822)" fill="#29488e" stroke="#000333" stroke-linecap="round" stroke-linejoin="round" stroke-width="3"/>
      </g>
      <g id="グループ_690" data-name="グループ 690" transform="translate(219.888 332.118)">
        <path id="パス_1265" data-name="パス 1265" d="M989.837,862.361c.542,1.985.09,3.654-.631,4.2a15.776,15.776,0,0,1-9.094,1.58c-4.061-.632-3.52-3.612-3.52-3.612l5.414-6.765Z" transform="translate(-975.848 -857.037)" fill="#397c71"/>
        <path id="パス_1266" data-name="パス 1266" d="M981.218,868.219a13.015,13.015,0,0,1-1.994-.148,5,5,0,0,1-3.485-1.861,3.665,3.665,0,0,1-.633-2.594.725.725,0,0,1,.146-.322l5.414-6.766a.722.722,0,0,1,.929-.171l7.83,4.6a.724.724,0,0,1,.331.433c.563,2.065.187,4.152-.895,4.963A16.3,16.3,0,0,1,981.218,868.219Zm-4.7-4.19a2.218,2.218,0,0,0,.415,1.363,3.67,3.67,0,0,0,2.518,1.252A15.239,15.239,0,0,0,988,865.2c.358-.269.823-1.45.438-3.149l-7.03-4.132Z" transform="translate(-975.072 -856.259)" fill="#000333"/>
      </g>
      <g id="グループ_691" data-name="グループ 691" transform="translate(220.79 336.269)">
        <path id="パス_1267" data-name="パス 1267" d="M988,871.377s-2.105,13.822-5.759,13.957c-.969.036,1.522-8.232.985-10.183-.31-1.126-1.968,4.191-2.388,3.254-1.6-3.563-2.387-12.021-2.387-12.021Z" transform="translate(-977.725 -865.662)" fill="#ffedd9"/>
        <path id="パス_1268" data-name="パス 1268" d="M981.452,885.278a.869.869,0,0,1-.66-.3c-.481-.559-.319-1.68.307-5,.18-.959.395-2.093.538-3.092-.512,1.052-.858,1.582-1.454,1.582h-.01a.857.857,0,0,1-.777-.538c-1.627-3.63-2.414-11.9-2.447-12.25a.722.722,0,0,1,1.054-.707l9.549,4.993a.721.721,0,0,1,.379.748c-.366,2.407-2.4,14.42-6.446,14.57Zm.852-11.785c.027,0,.055,0,.083,0a.858.858,0,0,1,.752.685c.287,1.044-.059,3.076-.621,6.057-.215,1.14-.491,2.606-.555,3.414,1.848-1.179,3.669-7.8,4.461-12.654l-7.893-4.127a55.7,55.7,0,0,0,1.785,9.42c.119-.242.237-.492.331-.69C981.3,874.216,981.642,873.493,982.3,873.493Z" transform="translate(-976.946 -864.884)" fill="#000333"/>
      </g>
      <g id="グループ_692" data-name="グループ 692" transform="translate(213.296 294.466)">
        <path id="パス_1269" data-name="パス 1269" d="M961.376,778.023" transform="translate(-961.376 -778.023)" fill="#29488e" stroke="#000333" stroke-linecap="round" stroke-linejoin="round" stroke-width="3"/>
      </g>
      <g id="グループ_693" data-name="グループ 693" transform="translate(211.224 279.69)">
        <path id="パス_1270" data-name="パス 1270" d="M970.144,748.822c4.557,6.632,4.287,12.859,4.693,20.033s0,15.521,9.836,30.14c0,0,.136,1.985-2.368,4.151s-1.963,3.249-3.407,3.249-8.753-.361-8.753-.361l-11.574-7.4V772.645l1.35-9.769" transform="translate(-957.848 -748.1)" fill="#397c71"/>
        <path id="パス_1271" data-name="パス 1271" d="M978.119,806.338c-1.445,0-8.49-.347-8.789-.362a.712.712,0,0,1-.353-.113l-11.574-7.4a.722.722,0,0,1-.333-.608V771.866a.745.745,0,0,1,.007-.1l1.35-9.769a.722.722,0,1,1,1.43.2l-1.344,9.72V797.46l11.079,7.083c1.162.057,7.246.35,8.526.35.376,0,.391-.011.781-.606a10.7,10.7,0,0,1,2.153-2.467,5.371,5.371,0,0,0,2.113-3.394c-9.035-13.5-9.426-21.85-9.741-28.565-.028-.59-.055-1.171-.088-1.744-.047-.837-.086-1.661-.123-2.474-.285-6.171-.533-11.5-4.443-17.191a.722.722,0,1,1,1.19-.818c4.144,6.031,4.412,11.816,4.7,17.942.038.809.076,1.627.123,2.459.033.578.06,1.163.088,1.758.325,6.909.691,14.74,9.626,28.019a.723.723,0,0,1,.121.354c.006.1.129,2.372-2.616,4.746a9.271,9.271,0,0,0-1.89,2.166A2.123,2.123,0,0,1,978.119,806.338Z" transform="translate(-957.07 -747.322)" fill="#000333"/>
      </g>
      <g id="グループ_694" data-name="グループ 694" transform="translate(155.345 278.607)">
        <path id="パス_1272" data-name="パス 1272" d="M869.184,759.11l-1.545,9.254v23.552s-10.422,8.663-11.708,9.678-7.918,1.15-9.34.88-4.129-5.008-4.129-5.008c3.113-2.843,5.685-11.37,6.227-22.2s4.369-23.409,9.094-27.267l6.57-1.429,3.9,4.738" transform="translate(-841.74 -745.85)" fill="#397c71"/>
        <path id="パス_1273" data-name="パス 1273" d="M848.152,802.534a16.932,16.932,0,0,1-2.475-.129c-1.622-.308-3.946-4.18-4.62-5.359a.722.722,0,0,1,.14-.891c3.075-2.808,5.484-11.529,5.992-21.7.516-10.325,4.158-23.543,9.358-27.789a.722.722,0,0,1,.3-.146l6.57-1.429a.721.721,0,0,1,.711.247l3.9,4.738a.722.722,0,0,1-1.115.917l-3.617-4.4-5.966,1.3c-4.256,3.649-8.144,15.519-8.7,26.635-.513,10.247-2.864,18.857-6.043,22.28,1.3,2.178,2.816,4.078,3.359,4.182,2.552.487,8.17-.274,8.757-.737,1.151-.909,9.813-8.1,11.434-9.45V767.586a.771.771,0,0,1,.01-.119l1.545-9.254a.722.722,0,0,1,1.424.238l-1.535,9.2v23.492a.721.721,0,0,1-.26.555c-.426.354-10.445,8.68-11.723,9.69C854.486,802.261,850.762,802.534,848.152,802.534Z" transform="translate(-840.962 -745.072)" fill="#000333"/>
      </g>
      <g id="グループ_695" data-name="グループ 695" transform="translate(172.024 340.883)">
        <path id="パス_1274" data-name="パス 1274" d="M877.833,875.435c-1.6,1.286-3.091,5.754.5,7.107s3.587.406,10.49,1.557,18.815.947,24.5.609,14.687-.27,15.533-3.045-.089-4.568-1.659-4.517-22.2-1.71-22.2-1.71l-24.432-.473Z" transform="translate(-875.878 -874.725)" fill="#397c71"/>
        <path id="パス_1275" data-name="パス 1275" d="M903.27,884.96a99.349,99.349,0,0,1-14.748-.879,48.911,48.911,0,0,0-6.054-.677,12.2,12.2,0,0,1-4.481-.892,3.389,3.389,0,0,1-2.315-2.731,5.7,5.7,0,0,1,1.753-4.789.238.238,0,0,1,.11-.049l2.73-.473,24.477.469c.222.018,20.658,1.772,22.186,1.711a1.948,1.948,0,0,1,1.639.773,4.59,4.59,0,0,1,.257,4.054c-.771,2.528-7.3,2.823-13.056,3.083-.945.042-1.855.083-2.693.133C910.5,884.846,906.984,884.96,903.27,884.96Zm-25.591-9.554a5.276,5.276,0,0,0-1.532,4.3,2.908,2.908,0,0,0,2.01,2.356,11.692,11.692,0,0,0,4.337.862,49.3,49.3,0,0,1,6.107.682c6.687,1.115,18.283.973,24.446.606.84-.05,1.752-.091,2.7-.134,5.041-.228,11.945-.539,12.617-2.742a4.143,4.143,0,0,0-.179-3.622,1.41,1.41,0,0,0-1.241-.584c-1.554.048-21.384-1.64-22.227-1.712l-24.416-.472Z" transform="translate(-875.62 -874.47)" fill="#000333"/>
      </g>
      <g id="グループ_696" data-name="グループ 696" transform="translate(170.792 307.8)">
        <path id="パス_1276" data-name="パス 1276" d="M881.739,814.824c0,5.023.438,9.54-1.948,9.54s-6.694-4.517-6.694-9.54c0-2.013-.2-5.355.329-6.861.787-2.252,2.563-2.233,3.993-2.233C879.8,805.73,881.739,809.8,881.739,814.824Z" transform="translate(-873.06 -805.73)" fill="#236c60"/>
      </g>
      <g id="グループ_697" data-name="グループ 697" transform="translate(214.549 311.514)">
        <path id="パス_1277" data-name="パス 1277" d="M972.622,822.545c0,5.022-1.935,9.094-4.321,9.094s-4.321-4.072-4.321-9.094,1.935-9.094,4.321-9.094c1.638,0,3.588-.229,4.321,2.6C972.957,817.341,972.622,820.969,972.622,822.545Z" transform="translate(-963.979 -813.447)" fill="#236c60"/>
      </g>
      <g id="グループ_698" data-name="グループ 698" transform="translate(177.859 270.807)">
        <path id="パス_1278" data-name="パス 1278" d="M889.244,734.645s8.885-4.32,14.256-4.28,17.643,1.529,19,2.566-9.94,16.848-14.276,15.846-17.939-9.8-17.939-9.8Z" transform="translate(-888.522 -729.642)" fill="#ffedd9"/>
        <path id="パス_1279" data-name="パス 1279" d="M907.82,748.762a2.4,2.4,0,0,1-.541-.059c-4.408-1.019-17.609-9.536-18.169-9.9a.725.725,0,0,1-.31-.438l-1.038-4.331a.722.722,0,0,1,.387-.817c.367-.179,9.017-4.354,14.5-4.354h.078c4.911.036,17.779,1.449,19.431,2.715.712.546.333,1.627-.131,2.612C920.2,738.055,912.219,748.762,907.82,748.762Zm-17.683-11.013c1.842,1.179,13.614,8.657,17.468,9.547.363.086,1.458.068,3.786-1.892,4.6-3.872,9.388-11.2,9.7-12.782-1.872-.856-12.953-2.272-18.376-2.312h-.069c-4.413,0-11.388,3.063-13.342,3.963Z" transform="translate(-887.744 -728.864)" fill="#000333"/>
      </g>
      <g id="グループ_699" data-name="グループ 699" transform="translate(170.438 288.624)">
        <path id="パス_1280" data-name="パス 1280" d="M919.921,768.11c4.331,2.3,6.724,10.227,3.692,19.973-.51,1.641-1.454,1.207-2.573,5.617-.577,2.274.673,5.945,1.624,9.867.894,3.687,4.069,9.661,4.1,9.738a7.811,7.811,0,0,1-.766,8.036c-1.622,2.387-14.077,2.354-24.41,2.488s-22.018-2.488-22.018-2.488-4.466-1.03-5.51-6.694,1.535-5.891,3.4-11.661c1.233-3.8,1.853-7.362.576-11.772-.662-2.286.045.49-1.4-3.142-2.014-5.066-2.943-18.692,3.375-20.687" transform="translate(-873.099 -766.663)" fill="#397c71"/>
        <path id="パス_1281" data-name="パス 1281" d="M900.047,823.779a115.036,115.036,0,0,1-21.409-2.511c-.205-.048-4.945-1.207-6.062-7.269a9.2,9.2,0,0,1,1.364-7.509A22.229,22.229,0,0,0,876,801.986c1.222-3.771,1.787-7.144.569-11.349-.042-.147-.154-.532-.223-.743a7.276,7.276,0,0,1-1.153-2.333c-1.633-4.108-2.448-12.919-.066-17.935a6.547,6.547,0,0,1,3.894-3.707.722.722,0,0,1,.435,1.377,5.169,5.169,0,0,0-3.025,2.95c-2.182,4.6-1.4,13.009.1,16.782a16.23,16.23,0,0,0,.769,1.757c.282.17.374.488.653,1.451a19.582,19.582,0,0,1-.583,12.195A23.745,23.745,0,0,1,875.2,807.2a7.769,7.769,0,0,0-1.2,6.534c.948,5.14,4.923,6.114,4.963,6.123.112.025,11.738,2.6,21.846,2.47l2.218-.027c8.571-.1,20.31-.238,21.605-2.145a7.063,7.063,0,0,0,.7-7.344l-.039-.073a54.558,54.558,0,0,1-4.1-9.782c-.189-.78-.39-1.549-.586-2.3-.829-3.174-1.544-5.916-1.037-7.915a10.922,10.922,0,0,1,1.979-4.572,3.122,3.122,0,0,0,.6-1.082c3.008-9.67.523-17.069-3.341-19.121a.722.722,0,0,1,.677-1.276c2.407,1.278,4.173,4.005,4.974,7.678a26.075,26.075,0,0,1-.931,13.147,4.534,4.534,0,0,1-.833,1.524,9.585,9.585,0,0,0-1.73,4.057c-.416,1.639.288,4.338,1.034,7.2.2.758.4,1.536.592,2.324a53.268,53.268,0,0,0,3.981,9.458c.052.1.079.158.083.166a8.491,8.491,0,0,1-.834,8.726c-1.6,2.353-10.058,2.627-22.781,2.776l-2.215.027C900.566,823.777,900.306,823.779,900.047,823.779Z" transform="translate(-872.324 -765.886)" fill="#000333"/>
      </g>
      <g id="グループ_700" data-name="グループ 700" transform="translate(197.621 266.675)">
        <path id="パス_1282" data-name="パス 1282" d="M930.306,744.444s13.219-13.806,12.814-15.07-2.527-2.707-7.49-2.617l-1.783-1.624a29.14,29.14,0,0,1,3.283-1.252c2.693-.932,9.193-2.718,10.93-1.906a6.2,6.2,0,0,1,3.271,4.421c.271,1.715,1.263,1.624,1.8,2.707s1.083,2.952,0,4-4.873,2.224-6.858,3.758S935.811,744.624,930.306,744.444Z" transform="translate(-929.584 -721.052)" fill="#397c71"/>
        <path id="パス_1283" data-name="パス 1283" d="M929.76,744.4c-.086,0-.17,0-.255,0a.722.722,0,0,1-.5-1.22c5.852-6.113,12.057-13.084,12.6-14.475-.391-.833-2.187-2.08-6.74-1.991a.721.721,0,0,1-.5-.189l-1.782-1.624a.722.722,0,0,1,.141-1.168,28.861,28.861,0,0,1,3.392-1.3c.089-.03,8.966-3.047,11.472-1.877a6.945,6.945,0,0,1,3.678,4.962,1.868,1.868,0,0,0,.792,1.363,3.543,3.543,0,0,1,.946,1.134c.371.743,1.459,3.289-.143,4.843a12.9,12.9,0,0,1-3.178,1.783,21.251,21.251,0,0,0-3.741,2.028C944.252,737.968,935.632,744.4,929.76,744.4Zm5.542-19.139c6.233,0,7.489,2.378,7.728,3.122.178.556.38,1.185-6.406,8.712-1.983,2.2-4,4.359-5.269,5.7,5.467-1.012,12.8-6.577,13.7-7.275a22.123,22.123,0,0,1,4.018-2.2,13.284,13.284,0,0,0,2.779-1.509c.715-.693.37-2.136-.143-3.161a2.164,2.164,0,0,0-.6-.689,3.271,3.271,0,0,1-1.271-2.228,5.5,5.5,0,0,0-2.864-3.88c-1.263-.591-6.9.728-10.388,1.934-1.009.349-1.713.609-2.2.8l.737.673Zm6.333,3.349Z" transform="translate(-928.806 -720.279)" fill="#000333"/>
      </g>
      <g id="グループ_701" data-name="グループ 701" transform="translate(169.444 263.583)">
        <path id="パス_1284" data-name="パス 1284" d="M882.175,715.353c-6.695,2.031-6.785,4.286-7.687,5.73s-2.978,5.234-2.707,7.31,1.083,3.88,2.346,4.331,2.617,0,5.414,1.263,19.977,7.129,19.977,7.129-19.345-13.355-19.345-14.258.361-2.166,1.173-2.436a4.32,4.32,0,0,0,2.978-2.256,7.9,7.9,0,0,1,3.924-3.425c.858-.185-2.611-3.388-2.611-3.388Z" transform="translate(-871.035 -714.632)" fill="#397c71"/>
        <path id="パス_1285" data-name="パス 1285" d="M898.74,741.061a.73.73,0,0,1-.233-.038c-.7-.24-17.243-5.892-20.04-7.155a10.205,10.205,0,0,0-3.7-.941,6.647,6.647,0,0,1-1.664-.3c-1.43-.511-2.484-2.349-2.819-4.918-.345-2.645,2.487-7.267,2.811-7.786.119-.191.232-.416.35-.655.748-1.508,1.773-3.573,7.74-5.383a.718.718,0,0,1,.209-.031h3.462a.723.723,0,0,1,.49.191c3.226,2.98,3.038,3.669,2.948,4a.87.87,0,0,1-.675.624,7.432,7.432,0,0,0-3.408,2.994A4.88,4.88,0,0,1,880.9,724.3l-.1.033c-.326.109-.626.822-.673,1.557,1.275,1.406,12.224,9.162,19.027,13.858a.722.722,0,0,1-.41,1.316ZM881.506,715.3c-5.28,1.619-6.1,3.278-6.764,4.612-.135.271-.262.527-.419.779-1,1.6-2.831,5.087-2.6,6.833.256,1.96.991,3.43,1.874,3.745a5.39,5.39,0,0,0,1.313.222,11.756,11.756,0,0,1,4.155,1.063c1.793.81,9.718,3.585,15.014,5.418-1.616-1.132-3.526-2.477-5.426-3.834-9.975-7.119-9.975-7.532-9.975-8.054,0-1.236.521-2.74,1.667-3.122l.1-.034a3.538,3.538,0,0,0,2.435-1.812,8.659,8.659,0,0,1,3.778-3.607,21.876,21.876,0,0,0-2.082-2.209Zm-1.466,10.487" transform="translate(-870.258 -713.854)" fill="#000333"/>
      </g>
      <g id="グループ_702" data-name="グループ 702" transform="translate(193.224 269.324)">
        <path id="パス_1286" data-name="パス 1286" d="M929.842,731.1s-1.633.948-5.367.948-4.8-.948-4.8-.948v-5.312h10.172Z" transform="translate(-919.67 -725.784)" fill="#ffbdad"/>
      </g>
      <g id="グループ_703" data-name="グループ 703" transform="translate(174.417 218.5)">
        <path id="パス_1287" data-name="パス 1287" d="M928.589,648.309s2.51,10.588-2.46,16.222c-4.894,5.548-12.519,7.6-20.46,7.42-7.941.18-15.566-1.872-20.46-7.42-4.971-5.634-2.461-16.222-2.461-16.222s15.838-25.718,21.771-26.44,22.536-.722,24.07,26.44" transform="translate(-881.382 -620.958)" fill="#ffedd9"/>
        <path id="パス_1288" data-name="パス 1288" d="M903.9,671.9c-6.249,0-14.49-1.406-20.021-7.675-5.158-5.847-2.727-16.419-2.621-16.866a.7.7,0,0,1,.088-.212c1.64-2.663,16.2-26.036,22.3-26.778,4.353-.528,10.646-.237,15.9,4.159,5.339,4.467,8.358,12.169,8.974,22.9.226.99,2.373,11.124-2.636,16.8-5.82,6.6-14.646,7.8-21.018,7.665Q904.389,671.9,903.9,671.9Zm.964-1.454c6.105.139,14.482-1,19.935-7.176,4.67-5.292,2.324-15.476,2.3-15.579a.728.728,0,0,1-.018-.125c-.584-10.344-3.431-17.723-8.462-21.932-4.859-4.064-10.731-4.327-14.8-3.832-1.267.154-4.59,2.072-12.607,13.19-4.312,5.979-8.044,11.957-8.572,12.809-.24,1.119-2.077,10.481,2.324,15.469C890.413,669.456,898.794,670.588,904.862,670.451Z" transform="translate(-880.591 -620.179)" fill="#000333"/>
      </g>
      <g id="グループ_704" data-name="グループ 704" transform="translate(195.297 262.471)">
        <path id="パス_1289" data-name="パス 1289" d="M927.384,713.925a4.011,4.011,0,0,1-3.291-1.388.63.63,0,0,1,1.028-.73,3.412,3.412,0,0,0,4.531-.007.634.634,0,0,1,.878-.132.626.626,0,0,1,.144.869A4.01,4.01,0,0,1,927.384,713.925Z" transform="translate(-923.977 -711.543)" fill="#000333"/>
      </g>
      <g id="グループ_705" data-name="グループ 705" transform="translate(189.766 276.45)">
        <path id="パス_1290" data-name="パス 1290" d="M916.794,743.607a.477.477,0,0,1-.227-.057l-3.829-2.055a.481.481,0,0,1,.455-.848l3.828,2.055a.481.481,0,0,1-.228.9Z" transform="translate(-912.485 -740.59)" fill="#000333"/>
      </g>
      <g id="グループ_706" data-name="グループ 706" transform="translate(201.404 276.45)">
        <path id="パス_1291" data-name="パス 1291" d="M937.147,743.607a.481.481,0,0,1-.229-.9l3.829-2.055a.481.481,0,0,1,.455.848l-3.829,2.055A.476.476,0,0,1,937.147,743.607Z" transform="translate(-936.665 -740.59)" fill="#000333"/>
      </g>
      <g id="グループ_707" data-name="グループ 707" transform="translate(194.909 289.217)">
        <path id="パス_1292" data-name="パス 1292" d="M928.355,777.619a6.346,6.346,0,0,1-2-.371c-1.563-.528-3.332-1.641-3.177-3.044a29.737,29.737,0,0,1,.862-3.816c.8-2.8,1.123-3.01,1.339-3.147a.777.777,0,0,1,.5-.122l2.158.045a.722.722,0,0,1,.657.458c.662,1.684,2.738,7.315,1.69,9.063A2.213,2.213,0,0,1,928.355,777.619Zm-2.191-9.048a31.566,31.566,0,0,0-1.549,5.793c-.025.222.7,1.007,2.2,1.516,1.283.433,2.175.314,2.326.063.435-.726-.468-4.286-1.623-7.345Zm-.575-.045h0Zm0,0h0Zm0,0h0Z" transform="translate(-923.17 -767.117)" fill="#000333"/>
      </g>
      <g id="グループ_708" data-name="グループ 708" transform="translate(197.492 291.867)">
        <path id="パス_1293" data-name="パス 1293" d="M929.389,772.64c.679-.138,1.274.609,1.309,1.878s.169,2.335-1.117,2.014a1.447,1.447,0,0,1-.981-1.923C928.667,774.18,928.723,772.776,929.389,772.64Z" transform="translate(-928.538 -772.624)" fill="#000333"/>
      </g>
      <g id="グループ_709" data-name="グループ 709" transform="translate(195.231 297.384)">
        <path id="パス_1294" data-name="パス 1294" d="M924.6,833.183a.722.722,0,0,1-.72-.686c-.143-2.889.14-15.2.327-23.354.059-2.57.108-4.7.13-5.946.09-5.093.622-18.284.628-18.417a.722.722,0,1,1,1.442.058c0,.133-.537,13.308-.626,18.385-.022,1.245-.071,3.379-.13,5.954-.187,8.128-.469,20.412-.329,23.249a.722.722,0,0,1-.685.757Z" transform="translate(-923.839 -784.086)" fill="#000333"/>
      </g>
      <g id="グループ_710" data-name="グループ 710" transform="translate(198.945 298.247)">
        <path id="パス_1295" data-name="パス 1295" d="M932.284,834.113a.722.722,0,0,1-.722-.716c-.022-2.471.028-8.039.086-14.485.113-12.716.268-30.132-.076-32.192a.722.722,0,1,1,1.424-.238c.365,2.185.215,18.962.1,32.443-.058,6.44-.107,12-.086,14.459a.722.722,0,0,1-.715.729Z" transform="translate(-931.557 -785.88)" fill="#000333"/>
      </g>
      <g id="グループ_711" data-name="グループ 711" transform="translate(172.629 214.041)">
        <path id="パス_1296" data-name="パス 1296" d="M928.214,620.763c7.219,18.952,1.622,29.329,1.622,29.329,0-1.444-4.149-7.58-6.406-11.454s-4.423-14.987-4.423-14.987c-4.6,13.177-18.433,18.231-18.433,18.231,3.682-7.311,1.593-16.334,1.593-16.334s-12.451,3.893-21.854,26.354c0,0-5.385-14.173,2.06-26.354.125-.2.25-.4.38-.6v0a28.044,28.044,0,0,1,6.608-7.181,26.761,26.761,0,0,1,12.807-5.342" transform="translate(-877.683 -611.695)" fill="#535353"/>
        <path id="パス_1297" data-name="パス 1297" d="M879.507,651.844H879.5a.723.723,0,0,1-.663-.465c-.225-.592-5.424-14.646,2.119-26.987.12-.194.238-.385.36-.572.009-.017.018-.033.028-.049a28.85,28.85,0,0,1,6.777-7.364,27.261,27.261,0,0,1,13.189-5.487.714.714,0,0,1,.775.663.722.722,0,0,1-.663.776,26.321,26.321,0,0,0-12.426,5.2,27.412,27.412,0,0,0-6.407,6.949c-.011.02-.023.04-.035.059-.126.191-.247.387-.369.584-5.628,9.207-3.681,19.731-2.561,23.891,9.313-20.927,21.019-24.8,21.526-24.959a.721.721,0,0,1,.919.526c.081.35,1.809,8.044-.889,15.094,3.752-1.8,12.849-7.056,16.344-17.065a.714.714,0,0,1,.734-.482.723.723,0,0,1,.657.582c.021.11,2.168,11.037,4.338,14.762.634,1.089,1.407,2.339,2.226,3.661,1.633,2.639,2.872,4.675,3.586,6.121,1.181-3.619,3.043-12.94-2.326-27.036a.722.722,0,1,1,1.349-.514c7.254,19.042,1.818,29.493,1.583,29.928a.722.722,0,0,1-1.357-.343c0-.829-2.444-4.781-4.062-7.4-.824-1.331-1.6-2.589-2.246-3.695-1.666-2.859-3.244-9.355-4.017-12.868-5.3,11.681-17.423,16.228-17.967,16.427a.722.722,0,0,1-.893-1c2.886-5.73,2.087-12.646,1.693-15.009-2.808,1.278-12.827,6.962-20.644,25.633A.722.722,0,0,1,879.507,651.844Zm50.245-2.531h0Z" transform="translate(-876.877 -610.915)" fill="#000333"/>
      </g>
      <g id="グループ_712" data-name="グループ 712" transform="translate(197.114 214.765)">
        <path id="パス_1298" data-name="パス 1298" d="M927.752,612.418" transform="translate(-927.752 -612.418)" fill="#333" stroke="#000333" stroke-linecap="round" stroke-linejoin="round" stroke-width="3"/>
      </g>
      <g id="グループ_713" data-name="グループ 713" transform="translate(192.115 268.467)">
        <path id="パス_1299" data-name="パス 1299" d="M918.087,730.127a.722.722,0,0,1-.722-.722v-4.681a.722.722,0,1,1,1.444,0v4.681A.722.722,0,0,1,918.087,730.127Z" transform="translate(-917.365 -724.002)" fill="#000333"/>
      </g>
      <g id="グループ_714" data-name="グループ 714" transform="translate(202.675 268.602)">
        <path id="パス_1300" data-name="パス 1300" d="M940.028,730.86a.722.722,0,0,1-.722-.722v-5.132a.722.722,0,0,1,1.444,0v5.132A.722.722,0,0,1,940.028,730.86Z" transform="translate(-939.306 -724.284)" fill="#000333"/>
      </g>
      <g id="グループ_715" data-name="グループ 715" transform="translate(196.699 253.693)">
        <path id="パス_1301" data-name="パス 1301" d="M929.026,695.034c-1.539.506-2.612.28-1.926-.768s1.174-.988,2.166-.942,2.258,1.215,1.574,1.757S929.6,694.847,929.026,695.034Z" transform="translate(-926.889 -693.304)" fill="#ffbdad"/>
      </g>
      <g id="グループ_716" data-name="グループ 716" transform="translate(198.278 255.138)">
        <ellipse id="楕円形_37" data-name="楕円形 37" cx="0.426" cy="0.47" rx="0.426" ry="0.47" transform="translate(0)" fill="#000333"/>
      </g>
      <g id="グループ_717" data-name="グループ 717" transform="translate(203.514 325.528)">
        <path id="パス_1302" data-name="パス 1302" d="M958.144,850.345a1.628,1.628,0,0,1-.688.885c-1.713.9-4.2-.582-6.632.14a17.8,17.8,0,0,1-8.571,0c-2.575-.679-1.04-3.34,4.827-4.692s5.318-4.707,7.984-4.018a3.636,3.636,0,0,1,1.617.91,22.252,22.252,0,0,0,1.261,6.309C958.009,850.032,958.077,850.186,958.144,850.345Z" transform="translate(-941.049 -842.567)" fill="#236c60"/>
      </g>
      <g id="グループ_718" data-name="グループ 718" transform="translate(204.414 308.009)">
        <path id="パス_1303" data-name="パス 1303" d="M950.005,813.76c-3.2.581-7.58-3.452-7.038-5.888s11.979-2.233,12.724.406S951.494,813.49,950.005,813.76Z" transform="translate(-942.921 -806.165)" fill="#236c60"/>
      </g>
      <g id="グループ_719" data-name="グループ 719" transform="translate(177.957 308.009)">
        <path id="パス_1304" data-name="パス 1304" d="M893.708,813.76c3.2.581,7.58-3.452,7.039-5.888s-11.979-2.233-12.724.406S892.219,813.49,893.708,813.76Z" transform="translate(-887.947 -806.165)" fill="#236c60"/>
      </g>
      <g id="グループ_728" data-name="グループ 728" transform="translate(204.963 236.47)">
        <g id="グループ_726" data-name="グループ 726" transform="translate(0 0)">
          <g id="グループ_720" data-name="グループ 720" transform="translate(3.467)">
            <path id="パス_1305" data-name="パス 1305" d="M964.514,659.989a8.64,8.64,0,0,0-6.371-2.465c-4.006.145-6.878,3.574-6.878,3.574a14.5,14.5,0,0,1,6.948-2.328A10.955,10.955,0,0,1,964.514,659.989Z" transform="translate(-951.265 -657.519)" fill="#000333"/>
          </g>
          <g id="グループ_724" data-name="グループ 724" transform="translate(0 2.657)">
            <g id="グループ_721" data-name="グループ 721" transform="translate(0 1.512)">
              <path id="パス_1306" data-name="パス 1306" d="M958.439,676.365a.645.645,0,0,1-.334-1.2,4.759,4.759,0,0,0,1.8-2.938,3.61,3.61,0,0,0-.533-3,4.787,4.787,0,0,0-3.642-1.69c-3.778-.3-6.206.2-10.607,3.956a.644.644,0,1,1-.836-.98c4.72-4.027,7.486-4.58,11.545-4.26a5.916,5.916,0,0,1,4.581,2.214,4.944,4.944,0,0,1,.748,4.052,6.013,6.013,0,0,1-2.388,3.748A.643.643,0,0,1,958.439,676.365Z" transform="translate(-944.061 -666.182)" fill="#000333"/>
            </g>
            <g id="グループ_722" data-name="グループ 722" transform="translate(10.19)">
              <path id="パス_1307" data-name="パス 1307" d="M965.233,665.165a6.551,6.551,0,0,0,2.194-2.031.146.146,0,0,1,.253-.034,2.232,2.232,0,0,1,.4,2.381Z" transform="translate(-965.233 -663.041)" fill="#000333"/>
            </g>
            <g id="グループ_723" data-name="グループ 723" transform="translate(14.84 1.984)">
              <path id="パス_1308" data-name="パス 1308" d="M974.9,668.407a5.048,5.048,0,0,0,1.825-1.15.227.227,0,0,1,.4.054c.338.959.9,3.213-.46,4.972Z" transform="translate(-974.896 -667.163)" fill="#000333"/>
            </g>
          </g>
          <g id="グループ_725" data-name="グループ 725" transform="translate(0.544 5.319)">
            <ellipse id="楕円形_38" data-name="楕円形 38" cx="4.893" cy="6.585" rx="4.893" ry="6.585" transform="translate(0.722 0.722)" fill="#000333"/>
            <path id="パス_1309" data-name="パス 1309" d="M950.805,683.185c-3.1,0-5.615-3.278-5.615-7.307s2.519-7.307,5.615-7.307,5.615,3.278,5.615,7.307S953.9,683.185,950.805,683.185Zm0-13.171c-2.3,0-4.172,2.63-4.172,5.863s1.872,5.863,4.172,5.863,4.172-2.63,4.172-5.863S953.106,670.015,950.805,670.015Z" transform="translate(-945.19 -668.571)" fill="#000333"/>
          </g>
        </g>
        <g id="グループ_727" data-name="グループ 727" transform="translate(4.656 10.052)">
          <ellipse id="楕円形_39" data-name="楕円形 39" cx="1.504" cy="2.575" rx="1.504" ry="2.575" fill="#fff"/>
        </g>
      </g>
      <g id="グループ_736" data-name="グループ 736" transform="translate(175.15 236.47)">
        <g id="グループ_729" data-name="グループ 729" transform="translate(0.753 0)">
          <path id="パス_1310" data-name="パス 1310" d="M883.679,659.989a8.642,8.642,0,0,1,6.372-2.465c4.005.145,6.878,3.574,6.878,3.574a14.5,14.5,0,0,0-6.948-2.328A10.956,10.956,0,0,0,883.679,659.989Z" transform="translate(-883.679 -657.519)" fill="#000333"/>
        </g>
        <g id="グループ_733" data-name="グループ 733" transform="translate(0 2.657)">
          <g id="グループ_730" data-name="グループ 730" transform="translate(0.226 1.512)">
            <path id="パス_1311" data-name="パス 1311" d="M885.447,676.365a.631.631,0,0,1-.331-.093,6.011,6.011,0,0,1-2.388-3.747,4.942,4.942,0,0,1,.748-4.053,5.914,5.914,0,0,1,4.581-2.214c4.062-.319,6.825.234,11.545,4.26a.644.644,0,1,1-.836.98c-4.4-3.754-6.83-4.256-10.607-3.956a4.786,4.786,0,0,0-3.643,1.69,3.611,3.611,0,0,0-.533,3,4.761,4.761,0,0,0,1.8,2.94.645.645,0,0,1-.34,1.193Z" transform="translate(-882.584 -666.182)" fill="#000333"/>
          </g>
          <g id="グループ_731" data-name="グループ 731" transform="translate(4.219)">
            <path id="パス_1312" data-name="パス 1312" d="M893.941,665.165a6.552,6.552,0,0,1-2.194-2.031.147.147,0,0,0-.254-.034,2.233,2.233,0,0,0-.4,2.381Z" transform="translate(-890.881 -663.041)" fill="#000333"/>
          </g>
          <g id="グループ_732" data-name="グループ 732" transform="translate(0 1.984)">
            <path id="パス_1313" data-name="パス 1313" d="M884.743,668.407a5.048,5.048,0,0,1-1.824-1.15.227.227,0,0,0-.4.054c-.339.959-.9,3.213.461,4.972Z" transform="translate(-882.114 -667.163)" fill="#000333"/>
          </g>
        </g>
        <g id="グループ_734" data-name="グループ 734" transform="translate(5.695 5.319)">
          <ellipse id="楕円形_40" data-name="楕円形 40" cx="4.893" cy="6.585" rx="4.893" ry="6.585" transform="translate(0.722 0.722)" fill="#000333"/>
          <path id="パス_1314" data-name="パス 1314" d="M899.563,683.185c-3.1,0-5.615-3.278-5.615-7.307s2.519-7.307,5.615-7.307,5.615,3.278,5.615,7.307S902.659,683.185,899.563,683.185Zm0-13.171c-2.3,0-4.172,2.63-4.172,5.863s1.872,5.863,4.172,5.863,4.172-2.63,4.172-5.863S901.863,670.015,899.563,670.015Z" transform="translate(-893.947 -668.571)" fill="#000333"/>
        </g>
        <g id="グループ_735" data-name="グループ 735" transform="translate(9.807 10.052)">
          <ellipse id="楕円形_41" data-name="楕円形 41" cx="1.504" cy="2.575" rx="1.504" ry="2.575" fill="#fff"/>
        </g>
      </g>
      <g id="グループ_737" data-name="グループ 737" transform="translate(177.699 220.107)">
        <path id="パス_1315" data-name="パス 1315" d="M895.988,629.423c-.76,2.859-3.33,4.659-5.732,4.014a4.257,4.257,0,0,1-2.844-2.734v0a28.042,28.042,0,0,1,6.608-7.181A5.257,5.257,0,0,1,895.988,629.423Z" transform="translate(-887.412 -623.518)" fill="#868686"/>
      </g>
      <g id="グループ_738" data-name="グループ 738" transform="translate(184.6 224.739)">
        <ellipse id="楕円形_42" data-name="楕円形 42" cx="2.231" cy="1.877" rx="2.231" ry="1.877" transform="translate(0 4.311) rotate(-75.057)" fill="#868686"/>
      </g>
      <g id="グループ_739" data-name="グループ 739" transform="translate(228.469 228.62)">
        <path id="パス_1316" data-name="パス 1316" d="M995.867,645.823a1.834,1.834,0,0,1-.866.217,2.44,2.44,0,0,1,0-4.832,1.7,1.7,0,0,1,.52.077A37.311,37.311,0,0,1,995.867,645.823Z" transform="translate(-992.902 -641.208)" fill="#868686"/>
      </g>
      <g id="グループ_740" data-name="グループ 740" transform="translate(224.752 229.71)">
        <ellipse id="楕円形_43" data-name="楕円形 43" cx="1.286" cy="1.053" rx="1.286" ry="1.053" transform="translate(0 1.05) rotate(-24.108)" fill="#868686"/>
      </g>
      <g id="グループ_741" data-name="グループ 741" transform="translate(173.843 255.355)">
        <path id="パス_1317" data-name="パス 1317" d="M880.12,709.517a.722.722,0,0,1-.615-1.1c2.291-3.735.88-10.72.865-10.791a.722.722,0,0,1,1.414-.294c.064.309,1.543,7.614-1.049,11.839A.721.721,0,0,1,880.12,709.517Z" transform="translate(-879.399 -696.759)" fill="#000333"/>
      </g>
      <g id="グループ_742" data-name="グループ 742" transform="translate(194.801 225.141)">
        <path id="パス_1318" data-name="パス 1318" d="M923.669,653.786a.722.722,0,0,1-.445-1.291c10.252-7.993,9.813-17.654,9.808-17.751a.722.722,0,0,1,1.441-.088c.027.424.52,10.494-10.361,18.977A.719.719,0,0,1,923.669,653.786Z" transform="translate(-922.947 -633.979)" fill="#000333"/>
      </g>
      <g id="グループ_743" data-name="グループ 743" transform="translate(223.16 223.11)">
        <path id="パス_1319" data-name="パス 1319" d="M981.872,629.758" transform="translate(-981.872 -629.758)" fill="#333" stroke="#000333" stroke-linecap="round" stroke-linejoin="round" stroke-width="3"/>
      </g>
      <g id="グループ_744" data-name="グループ 744" transform="translate(222.462 344.21)">
        <path id="パス_1320" data-name="パス 1320" d="M980.42,881.384" transform="translate(-980.42 -881.384)" fill="#29488e" stroke="#000333" stroke-linecap="round" stroke-linejoin="round" stroke-width="1"/>
      </g>
      <g id="グループ_745" data-name="グループ 745" transform="translate(179.153 259.205)">
        <ellipse id="楕円形_44" data-name="楕円形 44" cx="3.263" cy="1.558" rx="3.263" ry="1.558" transform="translate(0)" fill="#ffbdad"/>
      </g>
      <g id="グループ_746" data-name="グループ 746" transform="translate(212.173 259.205)">
        <ellipse id="楕円形_45" data-name="楕円形 45" cx="3.263" cy="1.558" rx="3.263" ry="1.558" transform="translate(0)" fill="#ffbdad"/>
      </g>
    </g>
  </g>
</svg>
