<svg xmlns="http://www.w3.org/2000/svg" viewBox="0 0 203.74 604.59"><defs><style>.cls-1{fill:#535353;}.cls-2{fill:#000333;}.cls-3{fill:#000931;}.cls-4{fill:#5b2c2b;}.cls-5{fill:#397c71;}.cls-6{fill:#ffedd9;}.cls-7{fill:#1e1e1e;}.cls-8{fill:#236c60;}.cls-9{fill:#ffbdad;}.cls-10{fill:#868686;}.cls-11,.cls-12{fill:none;stroke:#000931;stroke-linecap:round;stroke-linejoin:round;}.cls-11{stroke-width:4px;}.cls-12{stroke-width:2.62px;}</style></defs><title>girl_good</title><g id="レイヤー_2" data-name="レイヤー 2"><g id="_女_表情パターン" data-name="【女】表情パターン"><g id="体調いい時"><g id="グループ_335" data-name="グループ 335"><path id="パス_1098" data-name="パス 1098" class="cls-1" d="M179.66,112.06s-2,16.81,6,20.62c0,0-16.61,7.48-18.27-6.62S179.66,112.06,179.66,112.06Z"/><path id="パス_1099" data-name="パス 1099" class="cls-2" d="M176.79,136.42a12.12,12.12,0,0,1-6-1.42,10.78,10.78,0,0,1-5.11-8.73,13.88,13.88,0,0,1,2.94-11.36,16,16,0,0,1,11.05-4.61,1.76,1.76,0,0,1,1.75,1.78,1.09,1.09,0,0,1,0,.18c-.5,4.33-.57,16.15,5,18.82a1.76,1.76,0,0,1,0,3.2A26.49,26.49,0,0,1,176.79,136.42Zm.94-22.4a11.28,11.28,0,0,0-6.51,3.26,10.54,10.54,0,0,0-2.06,8.58,7.36,7.36,0,0,0,3.35,6.08c2.67,1.51,6.63,1,9.52.17-4.4-4.82-4.51-13.92-4.29-18.09Z"/></g><g id="グループ_336" data-name="グループ 336"><path id="パス_1100" data-name="パス 1100" class="cls-1" d="M56.61,22.21s-29,36.42-50.18,31.46c0,0,19.48,13.22,41.8-7.27S56.61,22.21,56.61,22.21Z"/><path id="パス_1101" data-name="パス 1101" class="cls-2" d="M22.06,59.57A32.23,32.23,0,0,1,5.44,55.13,1.76,1.76,0,0,1,6.83,52a16,16,0,0,0,3.77.42c19.47,0,44.36-30.93,44.63-31.26a1.77,1.77,0,0,1,1.83-.6,7.84,7.84,0,0,1,5.38,5.43c1.31,5.3-3.07,12.62-13,21.75S29.73,59.57,22.06,59.57ZM15.34,55.4c7.32,1.69,18.94,1.41,31.7-10.3C58.75,34.35,59.58,29,59,26.79a4,4,0,0,0-1.89-2.43C52.8,29.59,33.43,51.79,15.34,55.4Z"/></g><g id="グループ_340" data-name="グループ 340"><path id="パス_1107" data-name="パス 1107" class="cls-1" d="M180.9,107.88c-9.7,33.94-25.12,48.92-14.54,80.66s-57.17,58.18-57.17,58.18L28,204c-2.21-22.92-.88-28.6,3.08-42.07s6.17-36.83,1.77-55.34S25.32,52.35,50.88,25,120.52-4.95,154,14.44c18.9,11,28.13,28.5,30.83,47.81a93.25,93.25,0,0,1,.84,11.08A118.8,118.8,0,0,1,180.9,107.88Z"/><path id="パス_1108" data-name="パス 1108" class="cls-2" d="M109.2,248.48a1.67,1.67,0,0,1-.82-.21L27.15,205.53a1.77,1.77,0,0,1-.94-1.4c-2.21-23-.92-28.91,3.15-42.73S35.29,124.6,31.1,107c-3.62-15.19-9-53.69,18.5-83.15,25.27-27,69.56-31.59,105.31-10.9C172.59,23.14,183.54,40.12,186.59,62a93,93,0,0,1,.86,11.3,121.28,121.28,0,0,1-4.85,35.07,259.76,259.76,0,0,1-9.13,25.7c-7.4,18.55-12.75,32-5.43,53.91,4.6,13.81-4.15,28.68-25.3,43a192.17,192.17,0,0,1-32.9,17.37A1.78,1.78,0,0,1,109.2,248.48ZM29.63,202.86l79.67,41.92c7.24-3,64.75-27.62,55.4-55.68-7.73-23.18-1.89-37.81,5.49-56.33a255.7,255.7,0,0,0,9-25.37h0a117.67,117.67,0,0,0,4.72-34,90.09,90.09,0,0,0-.84-10.88c-2.9-20.76-13.25-36.84-30-46.52C118.79-3.91,76.33.4,52.17,26.23,25.78,54.44,31,91.52,34.52,106.15c4.54,19.08,2.26,42.54-1.79,56.26-3.94,13.43-5.13,18.85-3.09,40.44Z"/></g><g id="体"><path class="cls-3" d="M46.87,350.55S56,427.35,58,448.5c1.85,19.95,17.22,131.41,17.22,131.41H97.36l8.74-186.3.33,3V346.56Z"/><path class="cls-3" d="M166.25,350.55s-9.18,76.8-11.14,97.95c-1.86,19.95-17.22,131.41-17.22,131.41H115.76L107,393.61l-.32,3V346.56Z"/><path class="cls-4" d="M36,604.59H95a4.31,4.31,0,0,0,4.3-4.3V578.5l-41.8-4.16c-.81-.08-1.62-.13-2.43-.13h0a27.17,27.17,0,0,0-24.47,15.38l-1.75,3.63A7.93,7.93,0,0,0,36,604.59Z"/><path class="cls-4" d="M176.48,604.59h-59a4.31,4.31,0,0,1-4.31-4.3V578.5l41.8-4.16c.81-.08,1.62-.13,2.44-.13h0a27.14,27.14,0,0,1,24.46,15.38l1.75,3.63A7.93,7.93,0,0,1,176.48,604.59Z"/><g id="グループ_337" data-name="グループ 337"><path id="パス_1102" data-name="パス 1102" class="cls-5" d="M11.84,322.4s-1.81,7.38,2.81,8.26,21.27,0,21.27,0l9.58-14.32-12.56-2.43Z"/><path id="パス_1103" data-name="パス 1103" class="cls-2" d="M22.32,332.82a53.56,53.56,0,0,1-8-.42,5.18,5.18,0,0,1-3.46-2.31c-1.91-3-.85-7.59-.73-8.11a1.77,1.77,0,0,1,1-1.21l21.11-8.49a1.8,1.8,0,0,1,1-.1l12.56,2.43a1.76,1.76,0,0,1,1.4,2.06,2,2,0,0,1-.27.65L37.4,331.64a1.77,1.77,0,0,1-1.37.78C35.57,332.45,28.51,332.82,22.32,332.82Zm-8.92-9.15a7.42,7.42,0,0,0,.43,4.51,1.6,1.6,0,0,0,1.16.75,147.73,147.73,0,0,0,20,0l7.62-11.38-9.44-1.83Z"/></g><g id="グループ_338" data-name="グループ 338"><path id="パス_1104" data-name="パス 1104" class="cls-6" d="M25.89,331s-4.79,28.73,8.27,29.57l2.26-21,7.16,9.75,6.19-28.83Z"/><path id="パス_1105" data-name="パス 1105" class="cls-2" d="M34.16,362.34h-.11a9.09,9.09,0,0,1-6.79-3.59c-6.36-8-3.24-27.21-3.1-28a1.75,1.75,0,0,1,1-1.33l23.88-10.51a1.77,1.77,0,0,1,2.33.9,1.84,1.84,0,0,1,.11,1.09l-6.2,28.83a1.76,1.76,0,0,1-2.1,1.35,1.72,1.72,0,0,1-1-.68l-4.48-6.08-1.77,16.48A1.76,1.76,0,0,1,34.16,362.34Zm-6.67-30.1c-.83,5.76-1.69,19,2.53,24.32a5.71,5.71,0,0,0,2.59,1.93l2.06-19.09a1.76,1.76,0,0,1,3.17-.85l4.84,6.59,4.64-21.63Z"/></g><g id="グループ_341" data-name="グループ 341"><path id="パス_1109" data-name="パス 1109" class="cls-7" d="M59.7,165c8.51-7.1,17.85-14.62,23.63-14.13S96.64,158,97,164.22,82.49,174.8,76.3,176s-22.48,9.18-22.56,1.74A18.58,18.58,0,0,1,59.7,165Z"/><path id="パス_1110" data-name="パス 1110" class="cls-2" d="M57.74,182.58a6.67,6.67,0,0,1-3.91-1A4.49,4.49,0,0,1,52,177.71a20.2,20.2,0,0,1,6.55-14.07l0,0c9.91-8.27,18.61-15.1,24.92-14.53s14.85,7.74,15.24,15c.49,9.23-21.87,13.52-22.1,13.56a57.42,57.42,0,0,0-6.13,1.82A46.38,46.38,0,0,1,57.74,182.58Zm3.11-16.28a16.85,16.85,0,0,0-5.34,11.37c0,.76.26.94.37,1,1.89,1.35,9.16-1.07,13.51-2.52a55.51,55.51,0,0,1,6.6-1.94c8-1.49,19.43-5.87,19.22-9.91C94.92,159,88,153,83.18,152.58c-5.35-.42-15.56,8.07-22.33,13.72Z"/></g><g id="グループ_343" data-name="グループ 343"><path id="パス_1112" data-name="パス 1112" class="cls-5" d="M156,176.18a39.72,39.72,0,0,1,8.07,3.18c1.4,1.22,5.15,17.31,4,27.67s2.78,119.67,2.78,119.67,1.56,16.83-11.5,18.59-95.62-6.53-95.62-6.53S36.32,320,35,300.75s3.76-81.16,3.76-81.16L52.18,183l22.48-6.82Z"/><path id="パス_1113" data-name="パス 1113" class="cls-2" d="M153.77,346.13c-22.3,0-87-6.48-90.08-6.78a.63.63,0,0,1-.27-.1c-1.13-.77-27.69-19.12-29-38.46-1.31-19.11,3.71-80.63,3.76-81.25a.4.4,0,0,1,0-.15l13.43-36.6a.59.59,0,0,1,.39-.35l22.47-6.82.17,0H156a.47.47,0,0,1,.17,0,37.65,37.65,0,0,1,8.3,3.31c1.61,1.4,5.36,17.68,4.24,28.17-1.08,10.2,2.75,118.48,2.79,119.58a27,27,0,0,1-.88,8.81c-1.69,6-5.54,9.63-11.13,10.38A47,47,0,0,1,153.77,346.13ZM64,338.19c4,.4,82.76,8.22,95.34,6.52,12.36-1.68,11-17.8,11-18-.17-4.5-3.88-109.5-2.79-119.78,1.12-10.5-2.81-26.22-3.85-27.17a37.09,37.09,0,0,0-7.77-3H74.73l-22.11,6.71L39.33,219.72c-.21,2.54-5,62.28-3.75,81C36.81,318.84,62,336.81,64,338.19Z"/></g><g id="グループ_345" data-name="グループ 345"><path id="パス_1115" data-name="パス 1115" class="cls-5" d="M191.79,327.8c1.32,4.85.22,8.92-1.54,10.24A38.53,38.53,0,0,1,168,341.9c-9.92-1.54-8.6-8.82-8.6-8.82l13.22-16.52Z"/><path id="パス_1116" data-name="パス 1116" class="cls-2" d="M172.64,344a30.53,30.53,0,0,1-4.87-.36,12.23,12.23,0,0,1-8.52-4.54,9,9,0,0,1-1.54-6.34,1.78,1.78,0,0,1,.35-.78l13.23-16.53a1.77,1.77,0,0,1,2.27-.42l19.12,11.24a1.82,1.82,0,0,1,.81,1.05c1.37,5,.45,10.14-2.19,12.12A39.75,39.75,0,0,1,172.64,344Zm-11.49-10.23a5.44,5.44,0,0,0,1,3.33,9,9,0,0,0,6.15,3.06,37.25,37.25,0,0,0,20.88-3.53c.87-.65,2-3.54,1.07-7.69l-17.17-10.09Z"/></g><g id="グループ_346" data-name="グループ 346"><path id="パス_1117" data-name="パス 1117" class="cls-6" d="M184.91,338.89s-5.14,33.77-14.06,34.09c-2.37.09,3.71-20.1,2.4-24.87-.75-2.75-4.8,10.23-5.83,7.95-3.9-8.7-5.83-29.36-5.83-29.36Z"/><path id="パス_1118" data-name="パス 1118" class="cls-2" d="M170.83,374.74a2.11,2.11,0,0,1-1.61-.74c-1.17-1.37-.78-4.11.75-12.22.44-2.35,1-5.11,1.32-7.55-1.26,2.57-2.1,3.86-3.56,3.86h0a2.11,2.11,0,0,1-1.89-1.31c-4-8.87-5.89-29.06-6-29.92a1.75,1.75,0,0,1,2.57-1.72l23.32,12.19a1.77,1.77,0,0,1,.93,1.83c-.89,5.87-5.86,35.21-15.74,35.58ZM172.91,346h.21a2.1,2.1,0,0,1,1.84,1.68c.7,2.55-.15,7.51-1.52,14.79-.52,2.78-1.2,6.36-1.35,8.33,4.51-2.87,8.95-19.05,10.9-30.9l-19.28-10.08a136.34,136.34,0,0,0,4.36,23c.29-.59.58-1.2.81-1.68C170.46,347.72,171.3,346,172.91,346Z"/></g><g id="グループ_348" data-name="グループ 348"><path id="パス_1120" data-name="パス 1120" class="cls-5" d="M166.5,188.52c11.12,16.2,10.46,31.4,11.46,48.92s0,37.91,24,73.61c0,0,.33,4.85-5.79,10.14s-4.79,7.93-8.31,7.93-21.38-.88-21.38-.88l-28.27-18.07V246.7l3.3-23.86"/><path id="パス_1121" data-name="パス 1121" class="cls-2" d="M187.87,330.88c-3.53,0-20.73-.84-21.46-.89a1.65,1.65,0,0,1-.86-.27l-28.27-18.07a1.74,1.74,0,0,1-.81-1.49V246.7a2.09,2.09,0,0,1,0-.25l3.3-23.85a1.76,1.76,0,1,1,3.5.43v.05L140,246.82V309.2l27.06,17.3c2.83.14,17.69.85,20.82.85.92,0,.95,0,1.91-1.48a26.27,26.27,0,0,1,5.26-6,13.13,13.13,0,0,0,5.16-8.29c-22.07-33-23-53.36-23.79-69.76q-.1-2.16-.21-4.26c-.12-2-.21-4.06-.3-6-.7-15.07-1.3-28.09-10.85-42a1.76,1.76,0,0,1,2.82-2.11.83.83,0,0,1,.08.12c10.12,14.73,10.78,28.85,11.47,43.81.09,2,.18,4,.3,6q.12,2.11.21,4.29c.79,16.87,1.68,36,23.51,68.43a1.77,1.77,0,0,1,.29.86c0,.24.32,5.8-6.39,11.59a22.67,22.67,0,0,0-4.61,5.3A5.18,5.18,0,0,1,187.87,330.88Z"/></g><g id="グループ_349" data-name="グループ 349"><path id="パス_1122" data-name="パス 1122" class="cls-5" d="M67,216.49l-3.77,22.6v57.52s-25.46,21.16-28.6,23.64-19.34,2.81-22.81,2.14S1.76,310.16,1.76,310.16C9.37,303.22,15.65,282.4,17,256s10.67-57.17,22.21-66.59l16-3.49,9.52,11.57"/><path id="パス_1123" data-name="パス 1123" class="cls-2" d="M17.56,324.44a40.82,40.82,0,0,1-6-.31c-4-.75-9.64-10.21-11.28-13.09a1.76,1.76,0,0,1,.34-2.17c7.51-6.86,13.4-28.16,14.64-53,1.26-25.22,10.15-57.5,22.86-67.87a1.71,1.71,0,0,1,.74-.36l16-3.49a1.77,1.77,0,0,1,1.74.61l9.52,11.57a1.77,1.77,0,0,1-2.73,2.24l-8.83-10.74L40,191c-10.39,8.91-19.88,37.9-21.24,65-1.26,25-7,46.06-14.76,54.42,3.18,5.32,6.88,10,8.2,10.21,6.24,1.19,20-.67,21.39-1.8,2.82-2.22,24-19.79,27.93-23.08v-56.7a1.46,1.46,0,0,1,0-.29l3.77-22.6a1.77,1.77,0,0,1,3.48.58L65,239.24v57.37a1.79,1.79,0,0,1-.63,1.36c-1,.86-25.5,21.2-28.63,23.66C33,323.78,23.93,324.44,17.56,324.44Z"/></g><g id="グループ_350" data-name="グループ 350"><path id="パス_1124" data-name="パス 1124" class="cls-5" d="M45.51,337.93C41.6,341.08,38,352,46.72,355.29s8.76,1,25.62,3.8,46,2.31,59.83,1.49,35.86-.66,37.93-7.44-.21-11.16-4-11-54.21-4.18-54.21-4.18l-59.67-1.16Z"/><path id="パス_1125" data-name="パス 1125" class="cls-2" d="M108.26,361.82a242.43,242.43,0,0,1-36-2.15A118.43,118.43,0,0,0,57.45,358a29.76,29.76,0,0,1-10.94-2.18,8.27,8.27,0,0,1-5.66-6.67,13.9,13.9,0,0,1,4.28-11.7.61.61,0,0,1,.27-.12l6.66-1.15,59.78,1.14c.54.05,50.45,4.33,54.18,4.18a4.77,4.77,0,0,1,4,1.89c1.65,2.16,1.88,5.77.63,9.9-1.89,6.17-17.83,6.89-31.88,7.53-2.31.1-4.53.21-6.58.32C125.92,361.54,117.33,361.82,108.26,361.82Zm-62.5-23.34A12.92,12.92,0,0,0,42,349a7.13,7.13,0,0,0,4.91,5.76,28.53,28.53,0,0,0,10.6,2.1,120.36,120.36,0,0,1,14.91,1.66c16.33,2.73,44.65,2.38,59.7,1.48,2.05-.12,4.28-.22,6.6-.32,12.31-.56,29.17-1.32,30.81-6.7,1.15-3.76,1-7-.44-8.84a3.44,3.44,0,0,0-3-1.43c-3.79.12-52.22-4-54.28-4.18l-59.63-1.15Z"/></g><g id="グループ_351" data-name="グループ 351"><path id="パス_1126" data-name="パス 1126" class="cls-8" d="M58.92,277.61c0,12.27,1.07,23.3-4.76,23.3s-16.36-11-16.36-23.3c0-4.91-.48-13.07.81-16.75,1.92-5.5,6.25-5.45,9.75-5.45C54.19,255.4,58.92,265.35,58.92,277.61Z"/></g><g id="グループ_352" data-name="グループ 352"><path id="パス_1127" data-name="パス 1127" class="cls-8" d="M165.69,286.69c0,12.27-4.72,22.21-10.55,22.21s-10.55-9.94-10.55-22.21,4.72-22.2,10.55-22.2c4,0,8.77-.56,10.55,6.34C166.51,274,165.69,282.85,165.69,286.69Z"/></g><g id="グループ_353" data-name="グループ 353"><path id="パス_1128" data-name="パス 1128" class="cls-6" d="M56.75,177.28s21.7-10.56,34.81-10.46,43.09,3.73,46.39,6.27-24.27,41.14-34.86,38.7-43.81-23.94-43.81-23.94Z"/><path id="パス_1129" data-name="パス 1129" class="cls-2" d="M104,213.65a5.39,5.39,0,0,1-1.32-.14c-10.76-2.49-43-23.29-44.37-24.17a1.8,1.8,0,0,1-.76-1.07L55,177.69a1.76,1.76,0,0,1,.95-2c.89-.43,22-10.63,35.4-10.63h.19c12,.09,43.41,3.54,47.46,6.63,1.74,1.33.81,4-.32,6.38C134.26,187.51,114.76,213.65,104,213.65ZM60.83,186.76c4.5,2.88,33.25,21.14,42.66,23.31.88.21,3.56.17,9.25-4.61C124,196,135.66,178.1,136.43,174.24c-4.57-2.1-31.63-5.55-44.88-5.65h-.17c-10.78,0-27.81,7.48-32.58,9.68Z"/></g><g id="グループ_354" data-name="グループ 354"><path id="パス_1130" data-name="パス 1130" class="cls-5" d="M151.21,212.11c10.58,5.62,16.42,25,9,48.78-1.24,4-3.55,2.95-6.29,13.71-1.41,5.56,1.65,14.52,4,24.1,2.18,9,9.94,23.6,10,23.79a19.1,19.1,0,0,1-1.87,19.62c-4,5.83-34.38,5.75-59.62,6.08s-53.77-6.08-53.77-6.08-10.91-2.52-13.46-16.36,3.75-14.38,8.31-28.48c3-9.28,4.53-18,1.41-28.75-1.62-5.58.11,1.2-3.42-7.67-4.92-12.37-7.18-45.65,8.24-50.52"/><path id="パス_1131" data-name="パス 1131" class="cls-2" d="M104.57,350a280.34,280.34,0,0,1-52.29-6.13c-.5-.12-12.08-2.95-14.81-17.75a22.51,22.51,0,0,1,3.33-18.34,53.87,53.87,0,0,0,5-11c3-9.21,4.36-17.45,1.39-27.72-.1-.36-.38-1.3-.55-1.81a18,18,0,0,1-2.81-5.7c-4-10-6-31.55-.16-43.8a15.94,15.94,0,0,1,9.51-9.05A1.76,1.76,0,0,1,54.28,212a12.6,12.6,0,0,0-7.39,7.21c-5.33,11.22-3.41,31.77.25,41A41,41,0,0,0,49,264.49c.69.42.91,1.19,1.6,3.55C54,279.82,52,289.32,49.2,297.81a57.15,57.15,0,0,1-5.33,11.66c-2.77,4.88-4.44,7.82-2.93,16,2.3,12.55,12,14.93,12.12,14.95.27.07,28.66,6.36,53.35,6l5.42-.07c20.93-.25,49.6-.58,52.76-5.24a17.28,17.28,0,0,0,1.71-17.94l-.1-.18c-2.39-4.61-8.15-16.2-10-23.88-.46-1.91-.95-3.78-1.43-5.62-2-7.76-3.78-14.45-2.54-19.33,1.83-7.19,3.57-9.49,4.83-11.17a7.63,7.63,0,0,0,1.47-2.64c7.34-23.61,1.27-41.68-8.16-46.69a1.76,1.76,0,1,1,1.65-3.12h0c5.87,3.12,10.19,9.78,12.15,18.75a63.68,63.68,0,0,1-2.28,32.11,11.07,11.07,0,0,1-2,3.72c-1.15,1.52-2.58,3.41-4.23,9.91-1,4,.71,10.59,2.52,17.57.48,1.85,1,3.75,1.45,5.67,1.77,7.32,7.39,18.59,9.72,23.1a3.73,3.73,0,0,0,.21.41,20.74,20.74,0,0,1-2,21.31c-3.9,5.75-24.56,6.42-55.64,6.78l-5.41.07Z"/></g><g id="グループ_355" data-name="グループ 355"><path id="パス_1132" data-name="パス 1132" class="cls-5" d="M105,212.1s32.28-33.71,31.29-36.8-6.17-6.62-18.29-6.4l-4.35-4a69.32,69.32,0,0,1,8-3.06c6.57-2.28,22.45-6.64,26.69-4.66a15.14,15.14,0,0,1,8,10.8c.66,4.2,3.08,4,4.4,6.61s2.65,7.21,0,9.78-11.9,5.43-16.75,9.18S118.45,212.54,105,212.1Z"/><path id="パス_1133" data-name="パス 1133" class="cls-2" d="M105.57,213.87H105a1.76,1.76,0,0,1-1.22-3C118,196,133.17,178.93,134.5,175.53c-1-2-5.35-5.08-16.46-4.86a1.79,1.79,0,0,1-1.23-.46l-4.35-4a1.76,1.76,0,0,1-.11-2.49,1.47,1.47,0,0,1,.46-.36,68.6,68.6,0,0,1,8.28-3.18c.21-.07,21.9-7.44,28-4.59a17,17,0,0,1,9,12.12,4.57,4.57,0,0,0,1.93,3.33,8.69,8.69,0,0,1,2.31,2.77c.91,1.82,3.57,8-.35,11.83a31.34,31.34,0,0,1-7.76,4.35,51.81,51.81,0,0,0-9.14,5C141,198.17,119.92,213.87,105.57,213.87Zm13.54-46.74c15.22,0,18.29,5.81,18.87,7.63.44,1.35.93,2.89-15.64,21.27-4.85,5.38-9.77,10.65-12.87,13.93,13.35-2.47,31.26-16.06,33.47-17.77a54.29,54.29,0,0,1,9.81-5.36,32.59,32.59,0,0,0,6.79-3.69c1.75-1.69.9-5.21-.35-7.72a5.15,5.15,0,0,0-1.47-1.68,8,8,0,0,1-3.1-5.44,13.46,13.46,0,0,0-7-9.48c-3.09-1.44-16.86,1.78-25.38,4.73-2.46.85-4.19,1.49-5.37,1.95l1.8,1.64Z"/></g><g id="グループ_356" data-name="グループ 356"><path id="パス_1134" data-name="パス 1134" class="cls-5" d="M61.64,149.18c-16.36,5-16.57,10.47-18.78,14S35.59,176,36.25,181,38.89,190.5,42,191.6s6.39,0,13.22,3.09S104,212.09,104,212.09s-47.25-32.61-47.25-34.81.89-5.29,2.87-5.95a10.53,10.53,0,0,0,7.27-5.51,19.29,19.29,0,0,1,9.59-8.36c2.09-.45-6.38-8.28-6.38-8.28Z"/><path id="パス_1135" data-name="パス 1135" class="cls-2" d="M104,213.86a1.79,1.79,0,0,1-.57-.09c-1.72-.59-42.11-14.39-48.94-17.47a25,25,0,0,0-9-2.31,16.41,16.41,0,0,1-4.06-.73c-3.5-1.25-6.07-5.74-6.89-12-.84-6.46,6.08-17.75,6.87-19,.29-.47.56-1,.85-1.6,1.83-3.68,4.33-8.72,18.9-13.14a1.81,1.81,0,0,1,.51-.08H70.1a1.75,1.75,0,0,1,1.19.47c7.88,7.27,7.42,9,7.2,9.77a2.11,2.11,0,0,1-1.65,1.52,18.14,18.14,0,0,0-8.32,7.31,11.9,11.9,0,0,1-8.1,6.43l-.25.08c-.79.27-1.52,2-1.64,3.8,3.12,3.44,29.86,22.38,46.47,33.85a1.77,1.77,0,0,1-1,3.22ZM61.9,151c-12.9,4-14.9,8-16.52,11.26a20.45,20.45,0,0,1-1,1.91C41.91,168,37.44,176.54,38,180.8c.63,4.79,2.42,8.38,4.57,9.15a13.48,13.48,0,0,0,3.21.54,28.87,28.87,0,0,1,10.15,2.6c4.38,2,23.73,8.75,36.67,13.23-3.95-2.77-8.62-6-13.26-9.37C55,179.57,55,178.56,55,177.28c0-3,1.28-6.69,4.07-7.62l.26-.08a8.65,8.65,0,0,0,5.94-4.43,21.23,21.23,0,0,1,9.23-8.81A55.07,55.07,0,0,0,69.4,151Z"/></g><g id="グループ_357" data-name="グループ 357"><path id="パス_1136" data-name="パス 1136" class="cls-9" d="M117.35,174.41s-4,2.31-13.11,2.31-11.74-2.31-11.74-2.31v-13h24.84Z"/></g><g id="グループ_360" data-name="グループ 360"><path id="パス_1140" data-name="パス 1140" class="cls-2" d="M94.58,186.2a1.19,1.19,0,0,1-.56-.14l-9.35-5A1.18,1.18,0,1,1,85.79,179h0l9.34,5a1.18,1.18,0,0,1,.49,1.59,1.2,1.2,0,0,1-1,.62Z"/></g><g id="グループ_361" data-name="グループ 361"><path id="パス_1141" data-name="パス 1141" class="cls-2" d="M113.66,186.2a1.17,1.17,0,0,1-1.18-1.17,1.2,1.2,0,0,1,.62-1l9.36-5a1.18,1.18,0,0,1,1.11,2.08h0l-9.35,5A1.08,1.08,0,0,1,113.66,186.2Z"/></g><g id="グループ_362" data-name="グループ 362"><path id="パス_1142" data-name="パス 1142" class="cls-2" d="M109.28,235.67a15.65,15.65,0,0,1-4.88-.9c-3.81-1.29-8.13-4-7.76-7.44a73.74,73.74,0,0,1,2.1-9.31c2-6.85,2.74-7.35,3.27-7.69a1.93,1.93,0,0,1,1.21-.3l5.27.11a1.79,1.79,0,0,1,1.61,1.12c1.61,4.12,6.69,17.86,4.12,22.13A5.37,5.37,0,0,1,109.28,235.67Zm-5.35-22.1a77.93,77.93,0,0,0-3.77,14.15c-.06.54,1.7,2.46,5.38,3.7,3.13,1.05,5.31.77,5.68.16,1.06-1.78-1.14-10.47-4-17.94Z"/></g><g id="グループ_363" data-name="グループ 363"><path id="パス_1143" data-name="パス 1143" class="cls-2" d="M105,216.53c1.65-.33,3.11,1.49,3.19,4.59s.42,5.7-2.72,4.92a3.53,3.53,0,0,1-2.52-4.32,2.4,2.4,0,0,1,.12-.38C103.24,220.29,103.38,216.86,105,216.53Z"/></g><g id="グループ_364" data-name="グループ 364"><path id="パス_1144" data-name="パス 1144" class="cls-2" d="M99.26,349.87a1.77,1.77,0,0,1-1.76-1.68c-.35-7.06.34-37.13.8-57,.15-6.28.27-11.48.32-14.52.21-12.44,1.52-44.65,1.53-45a1.76,1.76,0,0,1,3.52.14c0,.33-1.31,32.51-1.52,44.9-.06,3-.18,8.25-.32,14.54-.46,19.85-1.15,49.85-.8,56.78a1.78,1.78,0,0,1-1.68,1.85h-.09Z"/></g><g id="グループ_365" data-name="グループ 365"><path id="パス_1145" data-name="パス 1145" class="cls-2" d="M108.25,349.87a1.77,1.77,0,0,1-1.77-1.75c0-6,.07-19.63.21-35.37.28-31.06.66-73.59-.18-78.62a1.77,1.77,0,1,1,3.46-.7.5.5,0,0,0,0,.12c.89,5.33.52,46.31.23,79.23-.14,15.73-.26,29.31-.21,35.31a1.76,1.76,0,0,1-1.75,1.78h0Z"/></g><g id="グループ_368" data-name="グループ 368"><path id="パス_1149" data-name="パス 1149" class="cls-2" d="M91.56,174.3a1.76,1.76,0,0,1-1.76-1.76h0V161.11a1.76,1.76,0,1,1,3.52-.12v11.55A1.76,1.76,0,0,1,91.56,174.3Z"/></g><g id="グループ_369" data-name="グループ 369"><path id="パス_1150" data-name="パス 1150" class="cls-2" d="M117.35,175.74a1.76,1.76,0,0,1-1.76-1.77h0V161.44a1.76,1.76,0,0,1,3.52,0V174a1.77,1.77,0,0,1-1.76,1.77Z"/></g><g id="グループ_372" data-name="グループ 372"><path id="パス_1152" data-name="パス 1152" class="cls-8" d="M159.39,317.7a4,4,0,0,1-1.68,2.16c-4.2,2.21-10.25-1.42-16.2.34a43.59,43.59,0,0,1-20.93,0c-6.29-1.66-2.54-8.16,11.79-11.46s13-11.5,19.5-9.82a8.9,8.9,0,0,1,3.95,2.23,54.1,54.1,0,0,0,3.08,15.4Z"/></g><g id="グループ_373" data-name="グループ 373"><path id="パス_1153" data-name="パス 1153" class="cls-8" d="M137.14,274.47c-7.81,1.41-18.51-8.43-17.2-14.38s29.26-5.46,31.07,1S140.77,273.81,137.14,274.47Z"/></g><g id="グループ_374" data-name="グループ 374"><path id="パス_1154" data-name="パス 1154" class="cls-8" d="M69.29,274.47c7.81,1.41,18.51-8.43,17.2-14.38s-29.26-5.46-31.08,1S65.66,273.81,69.29,274.47Z"/></g></g><g id="グループ_342" data-name="グループ 342"><path id="パス_1111" data-name="パス 1111" class="cls-2" d="M155.66,167.6a1.75,1.75,0,0,1-1.53-.9c-5.32-9.44,1.23-26.66,1.51-27.39a1.76,1.76,0,0,1,3.29,1.27c-.06.17-6.23,16.41-1.73,24.39a1.77,1.77,0,0,1-1.54,2.63Z"/></g><g id="グループ_358" data-name="グループ 358"><path id="パス_1137" data-name="パス 1137" class="cls-6" d="M161.73,104.14s6.13,25.85-6,39.61c-12,13.55-30.58,18.56-50,18.12-19.4.44-38-4.57-50-18.12-12.14-13.76-6-39.61-6-39.61S88.46,41.33,103,39.56s55-1.76,58.78,64.58"/><path id="パス_1138" data-name="パス 1138" class="cls-2" d="M103.36,163.66c-15.26,0-35.39-3.43-48.9-18.74-12.59-14.28-6.66-40.1-6.4-41.19a2.36,2.36,0,0,1,.21-.52c4-6.5,39.56-63.58,54.46-65.4,10.63-1.29,26-.58,38.83,10.16,13,10.9,20.42,29.72,21.92,55.91.55,2.42,5.8,27.17-6.44,41C142.83,161,121.27,164,105.71,163.64Zm2.36-3.55c14.91.34,35.36-2.43,48.68-17.53,11.4-12.92,5.68-37.79,5.62-38a1.54,1.54,0,0,1-.05-.31C158.55,79,151.58,61,139.31,50.67c-11.87-9.93-26.22-10.57-36.15-9.36-3.09.38-11.21,5.06-30.79,32.22-10.53,14.6-19.64,29.2-20.93,31.28-.59,2.72-5.07,25.59,5.67,37.77,13.32,15.1,33.79,17.87,48.61,17.53Z"/></g><g id="グループ_366" data-name="グループ 366"><path id="パス_1146" data-name="パス 1146" class="cls-1" d="M165.48,48.6c17.63,46.28,4,71.62,4,71.62,0-3.52-10.13-18.51-15.64-28S143,55.65,143,55.65c-11.24,32.18-45,44.52-45,44.52,9-17.85,3.89-39.89,3.89-39.89S71.46,69.79,48.5,124.64c0,0-13.16-34.61,5-64.36.31-.49.61-1,.93-1.47h0A68.3,68.3,0,0,1,70.61,41.26a65.41,65.41,0,0,1,31.27-13"/><path id="パス_1147" data-name="パス 1147" class="cls-2" d="M48.5,126.41h0a1.79,1.79,0,0,1-1.62-1.14C46.3,123.82,33.6,89.5,52,59.36c.29-.47.58-.94.88-1.39a.47.47,0,0,1,.07-.12,70.55,70.55,0,0,1,16.55-18,66.6,66.6,0,0,1,32.21-13.4,1.75,1.75,0,0,1,1.89,1.59v0A1.77,1.77,0,0,1,102,30,64.24,64.24,0,0,0,71.66,42.66,67.08,67.08,0,0,0,56,59.63a.64.64,0,0,1-.08.14c-.31.47-.61.95-.9,1.43-13.74,22.48-9,48.19-6.25,58.35,22.74-51.11,51.33-60.57,52.57-61a1.75,1.75,0,0,1,2.2,1.15.74.74,0,0,1,0,.14c.2.85,4.42,19.64-2.17,36.86,9.16-4.41,31.38-17.24,39.91-41.68a1.77,1.77,0,0,1,3.4.24c.05.27,5.29,27,10.59,36.06,1.55,2.66,3.44,5.71,5.44,8.94,4,6.44,7,11.41,8.76,15,2.88-8.84,7.43-31.61-5.68-66A1.76,1.76,0,1,1,167.13,48h0c17.71,46.5,4.44,72,3.86,73.09a1.76,1.76,0,0,1-3.31-.84c0-2-6-11.67-9.92-18.06-2-3.25-3.91-6.33-5.49-9-4.06-7-7.92-22.85-9.81-31.42-12.94,28.52-42.55,39.63-43.88,40.11a1.76,1.76,0,0,1-2.18-2.45c7-14,5.1-30.88,4.14-36.65-6.86,3.12-31.33,17-50.42,62.6A1.78,1.78,0,0,1,48.5,126.41Z"/></g><g id="グループ_370" data-name="グループ 370"><path id="パス_1151" data-name="パス 1151" class="cls-9" d="M106.08,127.51c-3.76,1.24-6.38.69-4.7-1.87s2.87-2.42,5.29-2.31,5.51,3,3.84,4.29S107.47,127.05,106.08,127.51Z"/></g><g id="グループ_371" data-name="グループ 371"><ellipse id="楕円形_27" data-name="楕円形 27" class="cls-2" cx="105.76" cy="127.96" rx="1.04" ry="1.15"/></g><g id="グループ_392" data-name="グループ 392"><path id="パス_1165" data-name="パス 1165" class="cls-10" d="M75.41,55.69c-1.86,7-8.14,11.37-14,9.8a10.43,10.43,0,0,1-6.95-6.68h0A68.65,68.65,0,0,1,70.61,41.26,12.86,12.86,0,0,1,75.41,55.69Z"/></g><g id="グループ_393" data-name="グループ 393"><ellipse id="楕円形_32" data-name="楕円形 32" class="cls-10" cx="77.15" cy="59.02" rx="5.45" ry="4.58" transform="matrix(0.26, -0.97, 0.97, 0.26, 0.23, 118.34)"/></g><g id="グループ_394" data-name="グループ 394"><path id="パス_1166" data-name="パス 1166" class="cls-10" d="M185.69,73.33a4.47,4.47,0,0,1-2.12.53,6,6,0,0,1,0-11.8,4.19,4.19,0,0,1,1.27.18A91.52,91.52,0,0,1,185.69,73.33Z"/></g><g id="グループ_395" data-name="グループ 395"><ellipse id="楕円形_33" data-name="楕円形 33" class="cls-10" cx="173.29" cy="68.35" rx="3.14" ry="2.57" transform="translate(-12.8 76.74) rotate(-24.11)"/></g><g id="グループ_396" data-name="グループ 396"><path id="パス_1167" data-name="パス 1167" class="cls-2" d="M46.8,158.51a1.77,1.77,0,0,1-1.5-2.69c5.6-9.12,2.15-26.18,2.12-26.35a1.76,1.76,0,1,1,3.45-.72c.16.75,3.78,18.59-2.56,28.91A1.76,1.76,0,0,1,46.8,158.51Z"/></g><g id="グループ_397" data-name="グループ 397"><path id="パス_1168" data-name="パス 1168" class="cls-2" d="M98,101.93a1.76,1.76,0,0,1-1.09-3.14c25-19.52,24-43.12,24-43.35a1.75,1.75,0,0,1,1.72-1.81,1.78,1.78,0,0,1,1.8,1.6c.06,1,1.26,25.62-25.31,46.34A1.7,1.7,0,0,1,98,101.93Z"/></g><g id="グループ_401" data-name="グループ 401"><ellipse id="楕円形_34" data-name="楕円形 34" class="cls-9" cx="65.98" cy="140.55" rx="7.97" ry="3.8"/></g><g id="グループ_402" data-name="グループ 402"><ellipse id="楕円形_35" data-name="楕円形 35" class="cls-9" cx="146.62" cy="140.55" rx="7.97" ry="3.8"/></g><path class="cls-11" d="M88.35,111.18c-10.76-10.76-22.43-11.64-33.19-.88"/><path class="cls-3" d="M73.08,103.47s-2.82-3.22-3-5.43a.3.3,0,0,0-.48-.23c-.92.65-2.79,2.26-2.32,4.44Z"/><path class="cls-3" d="M59,108.9s-4.23-.65-5.8-2.22a.3.3,0,0,0-.51.13c-.3,1.09-.69,3.53,1.07,4.9Z"/><path class="cls-11" d="M123.32,111.18c10.76-10.76,22.43-11.64,33.19-.88"/><path class="cls-3" d="M138.59,103.47s2.82-3.22,3-5.43a.3.3,0,0,1,.48-.23c.92.65,2.79,2.26,2.32,4.44Z"/><path class="cls-3" d="M152.65,108.9s4.23-.65,5.8-2.22a.3.3,0,0,1,.51.13c.3,1.09.69,3.53-1.07,4.9Z"/><g id="グループ_375" data-name="グループ 375"><path id="パス_1155" data-name="パス 1155" class="cls-2" d="M158.16,89.77a21.09,21.09,0,0,0-15.56-6c-9.78.35-16.8,8.73-16.8,8.73a35.49,35.49,0,0,1,17-5.69A26.79,26.79,0,0,1,158.16,89.77Z"/></g><g id="グループ_384" data-name="グループ 384"><path id="パス_1160" data-name="パス 1160" class="cls-2" d="M46.36,89.77a21.09,21.09,0,0,1,15.56-6c9.78.35,16.8,8.73,16.8,8.73a35.49,35.49,0,0,0-17-5.69A26.79,26.79,0,0,0,46.36,89.77Z"/></g><path class="cls-12" d="M116.82,140.4s0,5.17-11.44,5.17-11.44-5.17-11.44-5.17"/></g></g></g></svg>