<?xml version="1.0" encoding="utf-8"?>
<!-- Generator: Adobe Illustrator 23.0.6, SVG Export Plug-In . SVG Version: 6.00 Build 0)  -->
<svg version="1.1" id="レイヤー_1" xmlns="http://www.w3.org/2000/svg" xmlns:xlink="http://www.w3.org/1999/xlink" x="0px"
	 y="0px" viewBox="0 0 209.2 173.4" style="enable-background:new 0 0 209.2 173.4;" xml:space="preserve">
<style type="text/css">
	.st0{fill:#FFEDD1;stroke:#2E2E2E;stroke-width:7;stroke-linejoin:round;}
	.st1{fill:#F0D1A0;stroke:#2E2E2E;stroke-width:5;stroke-linecap:round;stroke-linejoin:round;}
	.st2{fill:#2E2E2E;}
</style>
<title>animal_normal</title>
<path class="st0" d="M205.7,30.3c0,0-31-18.6-59.9,6.2C125.2,20,104.6,20,104.6,20h-6.2c0,0-20.6,0-41.3,16.5
	c-18.6-33-51.6-33-51.6-33s0,45.4,28.9,51.6C-9,106.7-9,145.1,48.8,157.5c4.1,12.4,8.3,12.4,8.3,12.4c5.3-0.3,10.1-3.5,12.4-8.3h64
	c2.3,4.8,7.1,8,12.4,8.3c0,0,4.1,0,8.3-12.4c57.8-12.4,57.8-50.8,14.4-102.4C201.6,51,205.7,30.3,205.7,30.3z"/>
<path class="st1" d="M139.6,84.1c0,0-1.1-20.8-37.2-20.6h-4.1c-34.5-0.2-37.2,20.6-37.2,20.6C59.6,105.9,140.6,105.9,139.6,84.1z"/>
<path class="st2" d="M82.3,84l0.9-4.9c0.2-1.3,1.5-2.2,2.9-2l0,0c1.3,0.2,2.2,1.5,2,2.9l-0.9,4.9c-0.2,1.3-1.5,2.2-2.9,2l0,0
	C83,86.6,82.1,85.4,82.3,84z"/>
<path class="st2" d="M114.7,77.1L114.7,77.1c1.3-0.2,2.6,0.7,2.9,2l0.9,4.9c0.2,1.3-0.7,2.6-2,2.9l0,0c-1.3,0.2-2.6-0.7-2.9-2
	l-0.9-4.9C112.5,78.6,113.4,77.3,114.7,77.1z"/>
</svg>
