<svg xmlns="http://www.w3.org/2000/svg" xmlns:xlink="http://www.w3.org/1999/xlink" width="107" height="86" viewBox="0 0 107 86">
  <defs>
    <clipPath id="clip-path">
      <rect id="長方形_218" data-name="長方形 218" width="107" height="86" transform="translate(-7305 3943)" fill="#fff" stroke="#707070" stroke-width="1"/>
    </clipPath>
  </defs>
  <g id="グループ_1849" data-name="グループ 1849" transform="translate(7305 -3943)" clip-path="url(#clip-path)">
    <g id="体調いい時" transform="translate(-8630.172 3779.015)">
      <g id="グループ_335" data-name="グループ 335" transform="translate(1406.524 211.555)">
        <g id="パス_1098" data-name="パス 1098" transform="translate(0.799 0.762)">
          <path id="パス_2463" data-name="パス 2463" d="M1507.792,276.046s-.849,7.25,2.6,8.89c0,0-7.166,3.227-7.882-2.852S1507.792,276.046,1507.792,276.046Z" transform="translate(-1502.454 -276.046)" fill="#535353"/>
        </g>
        <g id="パス_1099" data-name="パス 1099" transform="translate(0 0)">
          <path id="パス_2464" data-name="パス 2464" d="M1505.5,285.545a5.231,5.231,0,0,1-2.594-.609,4.646,4.646,0,0,1-2.2-3.767,5.987,5.987,0,0,1,1.266-4.9,6.893,6.893,0,0,1,4.769-1.99.761.761,0,0,1,.755.768.707.707,0,0,1,0,.08c-.217,1.867-.249,6.965,2.171,8.115a.76.76,0,0,1-.014,1.38A11.374,11.374,0,0,1,1505.5,285.545Zm.409-9.659a4.868,4.868,0,0,0-2.809,1.406,4.554,4.554,0,0,0-.888,3.7,3.183,3.183,0,0,0,1.443,2.623,5.808,5.808,0,0,0,4.106.072c-1.9-2.077-1.943-6-1.851-7.8Z" transform="translate(-1500.601 -274.28)" fill="#000333"/>
        </g>
      </g>
      <g id="グループ_336" data-name="グループ 336" transform="translate(1337.181 172.802)">
        <g id="パス_1100" data-name="パス 1100" transform="translate(0.763 0.762)">
          <path id="パス_2465" data-name="パス 2465" d="M1363.247,186.2s-12.521,15.706-21.646,13.568c0,0,8.4,5.7,18.031-3.137S1363.247,186.2,1363.247,186.2Z" transform="translate(-1341.601 -186.197)" fill="#535353"/>
        </g>
        <g id="パス_1101" data-name="パス 1101" transform="translate(0)">
          <path id="パス_2466" data-name="パス 2466" d="M1347.338,201.3a13.908,13.908,0,0,1-7.171-1.914.76.76,0,0,1,.6-1.369,7.158,7.158,0,0,0,1.628.181c8.394,0,19.132-13.34,19.247-13.484a.763.763,0,0,1,.789-.261,3.4,3.4,0,0,1,2.323,2.344c.564,2.286-1.326,5.441-5.617,9.382C1354.793,200.174,1350.642,201.3,1347.338,201.3Zm-2.9-1.8c3.156.73,8.169.609,13.673-4.443,5.05-4.636,5.407-6.938,5.169-7.9a1.7,1.7,0,0,0-.814-1.046C1360.6,188.372,1352.241,197.951,1344.438,199.505Z" transform="translate(-1339.831 -184.43)" fill="#000333"/>
        </g>
      </g>
      <g id="グループ_340" data-name="グループ 340" transform="translate(1346.015 163.983)">
        <g id="パス_1107" data-name="パス 1107" transform="translate(0.759 0.803)">
          <path id="パス_2467" data-name="パス 2467" d="M1428.495,211.573c-4.182,14.636-10.833,21.1-6.271,34.787s-24.658,25.094-24.658,25.094l-35.036-18.437c-.953-9.886-.38-12.334,1.328-18.144s2.662-15.888.76-23.872-3.229-23.381,7.8-35.167,30.037-12.927,44.485-4.562c8.152,4.72,12.132,12.289,13.3,20.618a39.319,39.319,0,0,1,.362,4.78A51.317,51.317,0,0,1,1428.495,211.573Z" transform="translate(-1362.072 -165.844)" fill="#535353"/>
        </g>
        <g id="パス_1108" data-name="パス 1108" transform="translate(0)">
          <path id="パス_2468" data-name="パス 2468" d="M1396.567,271.156a.76.76,0,0,1-.355-.091l-35.035-18.437a.76.76,0,0,1-.4-.6c-.955-9.9-.4-12.469,1.356-18.431,1.743-5.912,2.561-15.875.75-23.482-1.561-6.55-3.9-23.156,7.981-35.862,10.9-11.652,30-13.628,45.421-4.7,7.624,4.414,12.348,11.735,13.663,21.171a40.138,40.138,0,0,1,.373,4.873,52.355,52.355,0,0,1-2.092,15.125,112.013,112.013,0,0,1-3.939,11.085c-3.192,8-5.5,13.784-2.342,23.253,1.985,5.954-1.788,12.368-10.913,18.55a82.486,82.486,0,0,1-14.191,7.493A.767.767,0,0,1,1396.567,271.156Zm-34.316-19.679,34.359,18.081c3.122-1.282,27.929-11.912,23.894-24.016-3.332-10-.814-16.307,2.372-24.3a110.643,110.643,0,0,0,3.89-10.939h0a50.811,50.811,0,0,0,2.034-14.681,38.8,38.8,0,0,0-.362-4.69c-1.248-8.955-5.715-15.892-12.92-20.064-14.813-8.577-33.128-6.715-43.548,4.424-11.381,12.166-9.115,28.16-7.613,34.471,1.96,8.231.974,18.347-.77,24.264-1.7,5.793-2.213,8.132-1.335,17.444Z" transform="translate(-1360.312 -163.983)" fill="#000333"/>
        </g>
      </g>
      <g id="体" transform="translate(1335.172 227.563)">
        <g id="グループ_1851" data-name="グループ 1851" transform="translate(20.216 85.894)">
          <g id="グループ_1850" data-name="グループ 1850">
            <path id="パス_2469" data-name="パス 2469" d="M1382.042,512.259s3.957,33.126,4.8,42.247c.8,8.608,7.428,56.679,7.428,56.679h9.544l3.772-80.352.14,1.3V510.538Z" transform="translate(-1382.042 -510.538)" fill="#000931"/>
          </g>
        </g>
        <g id="グループ_1853" data-name="グループ 1853" transform="translate(46.016 85.894)">
          <g id="グループ_1852" data-name="グループ 1852">
            <path id="パス_2470" data-name="パス 2470" d="M1467.548,512.259s-3.956,33.126-4.8,42.247c-.8,8.608-7.428,56.679-7.428,56.679h-9.545L1442,530.834l-.14,1.3V510.538Z" transform="translate(-1441.86 -510.538)" fill="#000931"/>
          </g>
        </g>
        <g id="グループ_1854" data-name="グループ 1854" transform="translate(12.098 184.086)">
          <path id="パス_2471" data-name="パス 2471" d="M1366.645,751.3h25.448a1.856,1.856,0,0,0,1.856-1.856v-9.4l-18.029-1.8c-.348-.035-.7-.052-1.049-.052h0a11.712,11.712,0,0,0-10.552,6.631l-.755,1.568A3.419,3.419,0,0,0,1366.645,751.3Z" transform="translate(-1363.222 -738.197)" fill="#5b2c2b"/>
        </g>
        <g id="グループ_1855" data-name="グループ 1855" transform="translate(48.813 184.086)">
          <path id="パス_2472" data-name="パス 2472" d="M1475.65,751.3H1450.2a1.856,1.856,0,0,1-1.856-1.856v-9.4l18.029-1.8q.523-.052,1.048-.052h0a11.712,11.712,0,0,1,10.552,6.631l.755,1.568A3.419,3.419,0,0,1,1475.65,751.3Z" transform="translate(-1448.346 -738.197)" fill="#5b2c2b"/>
        </g>
        <g id="グループ_337" data-name="グループ 337" transform="translate(4.196 71.054)">
          <g id="パス_1102" data-name="パス 1102" transform="translate(0.761 0.761)">
            <path id="パス_2473" data-name="パス 2473" d="M1346.816,481.556s-.784,3.184,1.211,3.564,9.176,0,9.176,0l4.132-6.178-5.418-1.046Z" transform="translate(-1346.664 -477.897)" fill="#397c71"/>
          </g>
          <g id="パス_1103" data-name="パス 1103">
            <path id="パス_2474" data-name="パス 2474" d="M1350.332,485.045a22.426,22.426,0,0,1-3.449-.181,2.225,2.225,0,0,1-1.494-1,5.106,5.106,0,0,1-.313-3.5.759.759,0,0,1,.452-.524l9.105-3.663a.752.752,0,0,1,.428-.041l5.418,1.045a.759.759,0,0,1,.488,1.168l-4.132,6.179a.764.764,0,0,1-.593.336C1356.046,484.886,1353,485.045,1350.332,485.045Zm-3.849-3.943a3.231,3.231,0,0,0,.186,1.943.7.7,0,0,0,.5.324,63.552,63.552,0,0,0,8.612.007l3.284-4.909-4.07-.786Z" transform="translate(-1344.9 -476.132)" fill="#000333"/>
          </g>
        </g>
        <g id="グループ_338" data-name="グループ 338" transform="translate(10.038 73.897)">
          <g id="パス_1104" data-name="パス 1104" transform="translate(0.76 0.762)">
            <path id="パス_2475" data-name="パス 2475" d="M1360.578,489.022s-2.068,12.392,3.564,12.754l.976-9.053,3.087,4.206,2.672-12.438Z" transform="translate(-1360.208 -484.49)" fill="#ffedd9"/>
          </g>
          <g id="パス_1105" data-name="パス 1105">
            <path id="パス_2476" data-name="パス 2476" d="M1363.14,501.528h-.049a3.927,3.927,0,0,1-2.929-1.546c-2.74-3.45-1.4-11.739-1.337-12.089a.759.759,0,0,1,.443-.571l10.3-4.534a.761.761,0,0,1,1.05.857l-2.672,12.437a.761.761,0,0,1-1.357.289l-1.928-2.623-.767,7.107A.759.759,0,0,1,1363.14,501.528Zm-2.877-12.983c-.356,2.487-.729,8.2,1.091,10.493a2.489,2.489,0,0,0,1.118.83l.888-8.231a.761.761,0,0,1,1.369-.368l2.086,2.842,2-9.327Z" transform="translate(-1358.445 -482.723)" fill="#000333"/>
          </g>
        </g>
        <g id="グループ_341" data-name="グループ 341" transform="translate(22.421 0.705)">
          <g id="パス_1109" data-name="パス 1109" transform="translate(0.758 0.76)">
            <path id="パス_2477" data-name="パス 2477" d="M1391.482,320.9c3.671-3.066,7.7-6.309,10.194-6.1s5.739,3.1,5.879,5.774-6.241,4.562-8.912,5.065-9.7,3.957-9.731.749A8.007,8.007,0,0,1,1391.482,320.9Z" transform="translate(-1388.912 -314.79)" fill="#1e1e1e"/>
          </g>
          <g id="パス_1110" data-name="パス 1110">
            <path id="パス_2478" data-name="パス 2478" d="M1389.639,327.491a2.858,2.858,0,0,1-1.687-.442,1.95,1.95,0,0,1-.8-1.657,8.724,8.724,0,0,1,2.826-6.069l.014-.012c4.273-3.567,8.027-6.512,10.747-6.269,2.759.236,6.407,3.339,6.576,6.491.212,3.984-9.434,5.831-9.531,5.849a24.462,24.462,0,0,0-2.646.787A19.984,19.984,0,0,1,1389.639,327.491Zm1.341-7.023a7.28,7.28,0,0,0-2.3,4.906c0,.326.112.4.158.435.814.584,3.952-.461,5.826-1.086a24.663,24.663,0,0,1,2.847-.839c3.448-.643,8.384-2.533,8.292-4.274-.123-2.3-3.121-4.884-5.187-5.057-2.31-.182-6.712,3.478-9.631,5.915Z" transform="translate(-1387.155 -313.027)" fill="#000333"/>
          </g>
        </g>
        <g id="グループ_343" data-name="グループ 343" transform="translate(14.744 12.156)">
          <g id="パス_1112" data-name="パス 1112" transform="translate(0.257 0.251)">
            <path id="パス_2479" data-name="パス 2479" d="M1422.225,340.158a17.073,17.073,0,0,1,3.483,1.375c.6.527,2.22,7.465,1.745,11.934s1.2,51.613,1.2,51.613.672,7.259-4.96,8.021-41.246-2.816-41.246-2.816-11.834-8.08-12.4-16.4,1.621-35,1.621-35l5.789-15.785,9.7-2.94Z" transform="translate(-1369.951 -340.157)" fill="#397c71"/>
          </g>
          <g id="パス_1113" data-name="パス 1113">
            <path id="パス_2480" data-name="パス 2480" d="M1420.937,413.13c-9.618,0-37.543-2.793-38.855-2.925a.256.256,0,0,1-.118-.043c-.487-.333-11.94-8.245-12.515-16.589-.565-8.241,1.6-34.774,1.621-35.041a.276.276,0,0,1,.014-.066l5.793-15.785a.252.252,0,0,1,.165-.154l9.7-2.941a.235.235,0,0,1,.073-.011h35.074a.243.243,0,0,1,.073.011,16.148,16.148,0,0,1,3.578,1.426c.7.607,2.312,7.626,1.83,12.151-.468,4.4,1.186,51.1,1.2,51.577a11.693,11.693,0,0,1-.378,3.8,5.631,5.631,0,0,1-4.8,4.478A20.079,20.079,0,0,1,1420.937,413.13Zm-38.74-3.423c1.726.173,35.7,3.546,41.124,2.811,5.33-.724,4.748-7.677,4.742-7.747-.07-1.94-1.673-47.228-1.2-51.663.482-4.529-1.211-11.306-1.659-11.716a15.73,15.73,0,0,0-3.353-1.312h-35.005l-9.539,2.895-5.732,15.633c-.091,1.1-2.171,26.864-1.617,34.93.532,7.821,11.386,15.573,12.241,16.168Z" transform="translate(-1369.355 -339.576)" fill="#000333"/>
          </g>
        </g>
        <g id="グループ_344" data-name="グループ 344" transform="translate(71.811 17.73)">
          <g id="パス_1114" data-name="パス 1114">
            <path id="パス_2481" data-name="パス 2481" d="M1501.665,352.5" transform="translate(-1501.665 -352.5)" fill="#29488e" stroke="#000333" stroke-linecap="round" stroke-linejoin="round" stroke-width="6.291"/>
          </g>
        </g>
        <g id="グループ_345" data-name="グループ 345" transform="translate(67.987 72.194)">
          <g id="パス_1115" data-name="パス 1115" transform="translate(0.756 0.761)">
            <path id="パス_2482" data-name="パス 2482" d="M1508.53,485.387c.57,2.091.095,3.849-.665,4.419a16.616,16.616,0,0,1-9.579,1.664c-4.277-.666-3.708-3.805-3.708-3.805l5.7-7.126Z" transform="translate(-1494.553 -480.539)" fill="#397c71"/>
          </g>
          <g id="パス_1116" data-name="パス 1116">
            <path id="パス_2483" data-name="パス 2483" d="M1499.273,491.374a13.694,13.694,0,0,1-2.1-.155,5.274,5.274,0,0,1-3.672-1.96,3.861,3.861,0,0,1-.667-2.732.761.761,0,0,1,.154-.339l5.7-7.127a.761.761,0,0,1,.979-.181l8.249,4.847a.764.764,0,0,1,.348.452c.594,2.171.2,4.374-.942,5.228A17.177,17.177,0,0,1,1499.273,491.374Zm-4.956-4.413a2.337,2.337,0,0,0,.438,1.436,3.864,3.864,0,0,0,2.652,1.319,16.052,16.052,0,0,0,9.006-1.52c.377-.283.867-1.527.461-3.318l-7.405-4.353Z" transform="translate(-1492.801 -478.775)" fill="#000333"/>
          </g>
        </g>
        <g id="グループ_346" data-name="グループ 346" transform="translate(68.937 76.569)">
          <g id="パス_1117" data-name="パス 1117" transform="translate(0.76 0.76)">
            <path id="パス_2484" data-name="パス 2484" d="M1506.824,495.941s-2.218,14.562-6.067,14.7c-1.02.038,1.6-8.671,1.037-10.727-.327-1.186-2.073,4.414-2.515,3.428-1.681-3.752-2.514-12.663-2.514-12.663Z" transform="translate(-1496.766 -490.681)" fill="#ffedd9"/>
          </g>
          <g id="パス_1118" data-name="パス 1118">
            <path id="パス_2485" data-name="パス 2485" d="M1499.749,510.4a.915.915,0,0,1-.7-.32c-.507-.589-.336-1.77.323-5.271.19-1.01.416-2.2.567-3.256-.542,1.108-.9,1.667-1.532,1.667h-.015a.9.9,0,0,1-.814-.566c-1.719-3.824-2.543-12.535-2.577-12.9a.761.761,0,0,1,1.11-.744l10.059,5.259a.76.76,0,0,1,.4.788c-.385,2.533-2.528,15.19-6.79,15.347Zm.9-12.414h.09a.9.9,0,0,1,.792.723c.3,1.1-.062,3.24-.654,6.38-.226,1.2-.518,2.745-.585,3.6,1.947-1.242,3.864-8.218,4.7-13.329l-8.314-4.347a58.642,58.642,0,0,0,1.879,9.922c.126-.254.25-.518.349-.724C1499.589,498.746,1499.949,497.986,1500.647,497.986Z" transform="translate(-1495.003 -488.918)" fill="#000333"/>
          </g>
        </g>
        <g id="グループ_347" data-name="グループ 347" transform="translate(61.042 32.534)">
          <g id="パス_1119" data-name="パス 1119">
            <path id="パス_2486" data-name="パス 2486" d="M1476.7,386.822" transform="translate(-1476.699 -386.822)" fill="#29488e" stroke="#000333" stroke-linecap="round" stroke-linejoin="round" stroke-width="6.291"/>
          </g>
        </g>
        <g id="グループ_348" data-name="グループ 348" transform="translate(58.86 16.943)">
          <g id="パス_1120" data-name="パス 1120" transform="translate(0.761 0.787)">
            <path id="パス_2487" data-name="パス 2487" d="M1485.594,352.5c4.8,6.986,4.516,13.545,4.943,21.1s0,16.349,10.361,31.748c0,0,.144,2.091-2.495,4.373s-2.068,3.422-3.588,3.422-9.221-.38-9.221-.38l-12.192-7.8V377.594l1.422-10.291" transform="translate(-1473.403 -352.5)" fill="#397c71"/>
          </g>
          <g id="パス_1121" data-name="パス 1121">
            <path id="パス_2488" data-name="パス 2488" d="M1493.811,412.866c-1.522,0-8.943-.361-9.257-.382a.745.745,0,0,1-.372-.118l-12.192-7.794a.76.76,0,0,1-.351-.641V376.556a.763.763,0,0,1,.007-.1l1.422-10.29a.761.761,0,0,1,1.51.186l0,.022-1.416,10.238v26.907l11.668,7.461c1.224.06,7.632.369,8.981.369.4,0,.412-.012.823-.638a11.272,11.272,0,0,1,2.269-2.6,5.658,5.658,0,0,0,2.225-3.576c-9.517-14.222-9.929-23.016-10.26-30.09-.03-.621-.058-1.233-.091-1.837-.05-.882-.091-1.749-.129-2.606-.3-6.5-.561-12.113-4.68-18.108a.761.761,0,1,1,1.218-.911c.012.016.024.033.034.05,4.365,6.352,4.647,12.446,4.946,18.9.04.852.08,1.714.129,2.59.035.609.063,1.225.091,1.852.342,7.278.723,15.527,10.139,29.514a.76.76,0,0,1,.128.373c.006.1.137,2.5-2.756,5a9.775,9.775,0,0,0-1.99,2.282A2.235,2.235,0,0,1,1493.811,412.866Z" transform="translate(-1471.639 -350.676)" fill="#000333"/>
          </g>
        </g>
        <g id="グループ_349" data-name="グループ 349" transform="translate(0 15.83)">
          <g id="パス_1122" data-name="パス 1122" transform="translate(0.759 0.758)">
            <path id="パス_2489" data-name="パス 2489" d="M1365.081,363.062l-1.628,9.748v24.808s-10.978,9.124-12.333,10.195-8.34,1.211-9.837.926-4.349-5.275-4.349-5.275c3.28-2.995,5.989-11.977,6.558-23.382s4.6-24.658,9.579-28.722l6.92-1.5,4.106,4.99" transform="translate(-1336.933 -349.854)" fill="#397c71"/>
          </g>
          <g id="パス_1123" data-name="パス 1123">
            <path id="パス_2490" data-name="パス 2490" d="M1342.746,408.622a17.841,17.841,0,0,1-2.607-.135c-1.709-.325-4.161-4.4-4.867-5.645a.76.76,0,0,1,.147-.938c3.239-2.958,5.776-12.145,6.312-22.86.542-10.876,4.38-24.8,9.859-29.272a.764.764,0,0,1,.32-.154l6.921-1.505a.759.759,0,0,1,.749.261l4.106,4.99a.761.761,0,0,1-1.176.966L1358.7,349.7l-6.285,1.368c-4.484,3.844-8.578,16.346-9.164,28.055-.542,10.794-3.016,19.863-6.365,23.469,1.37,2.295,2.966,4.3,3.537,4.405,2.688.513,8.605-.289,9.226-.777,1.213-.957,10.336-8.535,12.044-9.954V371.809a.787.787,0,0,1,.01-.125l1.628-9.748a.761.761,0,0,1,1.5.251l-1.617,9.686v24.746a.756.756,0,0,1-.271.584c-.452.374-11,9.144-12.348,10.207C1349.417,408.335,1345.494,408.622,1342.746,408.622Z" transform="translate(-1335.172 -348.096)" fill="#000333"/>
          </g>
        </g>
        <g id="グループ_350" data-name="グループ 350" transform="translate(17.58 81.426)">
          <g id="パス_1124" data-name="パス 1124" transform="translate(0.241 0.249)">
            <path id="パス_2491" data-name="パス 2491" d="M1378.3,501.257c-1.687,1.357-3.256,6.06.523,7.486s3.778.428,11.049,1.64,19.819,1,25.807.641,15.467-.285,16.362-3.209-.09-4.811-1.747-4.758-23.382-1.8-23.382-1.8l-25.737-.5Z" transform="translate(-1376.49 -500.757)" fill="#397c71"/>
          </g>
          <g id="パス_1125" data-name="パス 1125">
            <path id="パス_2492" data-name="パス 2492" d="M1405.045,511.229a104.643,104.643,0,0,1-15.535-.926,51.474,51.474,0,0,0-6.378-.713,12.859,12.859,0,0,1-4.721-.94,3.571,3.571,0,0,1-2.442-2.877,6.009,6.009,0,0,1,1.846-5.044.253.253,0,0,1,.116-.053l2.875-.5,25.783.494c.234.019,21.76,1.866,23.37,1.8a2.051,2.051,0,0,1,1.727.814c.715.932.814,2.49.271,4.27-.814,2.663-7.688,2.973-13.749,3.247-1,.044-1.954.091-2.837.14C1412.663,511.109,1408.957,511.229,1405.045,511.229Zm-26.955-10.063a5.556,5.556,0,0,0-1.613,4.529,3.062,3.062,0,0,0,2.117,2.482,12.318,12.318,0,0,0,4.568.9,51.849,51.849,0,0,1,6.433.719c7.044,1.176,19.259,1.025,25.751.638.885-.052,1.845-.1,2.844-.141,5.31-.24,12.583-.568,13.29-2.888.495-1.623.426-3.013-.188-3.814a1.485,1.485,0,0,0-1.307-.615c-1.637.05-22.523-1.728-23.412-1.8l-25.719-.5Z" transform="translate(-1375.931 -500.179)" fill="#000333"/>
          </g>
        </g>
        <g id="グループ_351" data-name="グループ 351" transform="translate(16.267 46.58)">
          <g id="パス_1126" data-name="パス 1126">
            <path id="パス_2493" data-name="パス 2493" d="M1382.033,428.967c0,5.291.462,10.048-2.052,10.048s-7.055-4.758-7.055-10.048c0-2.12-.208-5.641.346-7.227.828-2.371,2.7-2.352,4.206-2.352C1380,419.388,1382.033,423.676,1382.033,428.967Z" transform="translate(-1372.888 -419.388)" fill="#236c60"/>
          </g>
        </g>
        <g id="グループ_352" data-name="グループ 352" transform="translate(62.363 50.491)">
          <g id="パス_1127" data-name="パス 1127">
            <path id="パス_2494" data-name="パス 2494" d="M1488.864,438.04c0,5.29-2.037,9.579-4.551,9.579s-4.552-4.289-4.552-9.579,2.038-9.579,4.552-9.579c1.725,0,3.78-.242,4.551,2.736C1489.217,432.559,1488.864,436.381,1488.864,438.04Z" transform="translate(-1479.761 -428.457)" fill="#236c60"/>
          </g>
        </g>
        <g id="グループ_353" data-name="グループ 353" transform="translate(23.715 7.611)">
          <g id="パス_1128" data-name="パス 1128" transform="translate(0.761 0.761)">
            <path id="パス_2495" data-name="パス 2495" d="M1391.919,335.313s9.359-4.551,15.015-4.509,18.585,1.61,20.011,2.7-10.47,17.747-15.038,16.692-18.9-10.323-18.9-10.323Z" transform="translate(-1391.919 -330.803)" fill="#ffedd9"/>
          </g>
          <g id="パス_1129" data-name="パス 1129">
            <path id="パス_2496" data-name="パス 2496" d="M1411.3,350a2.548,2.548,0,0,1-.569-.062c-4.643-1.074-18.548-10.045-19.139-10.426a.764.764,0,0,1-.326-.462l-1.093-4.562a.76.76,0,0,1,.407-.861c.387-.188,9.5-4.587,15.271-4.587h.082c5.173.038,18.723,1.527,20.467,2.86.75.575.351,1.713-.138,2.751C1424.346,338.723,1415.935,350,1411.3,350Zm-18.626-11.6c1.941,1.242,14.34,9.119,18.4,10.056.382.091,1.538.072,3.988-1.99,4.844-4.079,9.889-11.8,10.221-13.465-1.971-.9-13.645-2.393-19.356-2.436h-.075c-4.648,0-12,3.226-14.054,4.174Z" transform="translate(-1390.155 -329.04)" fill="#000333"/>
          </g>
        </g>
        <g id="グループ_354" data-name="グループ 354" transform="translate(15.867 26.394)">
          <g id="パス_1130" data-name="パス 1130" transform="translate(0.788 0.743)">
            <path id="パス_2497" data-name="パス 2497" d="M1422.35,375.078c4.562,2.423,7.083,10.772,3.889,21.039-.537,1.729-1.531,1.272-2.713,5.917-.608,2.4.709,6.262,1.71,10.394.942,3.884,4.287,10.176,4.321,10.258a8.232,8.232,0,0,1-.807,8.465c-1.709,2.515-14.828,2.479-25.713,2.623s-23.193-2.623-23.193-2.623-4.7-1.086-5.8-7.055,1.616-6.2,3.584-12.283c1.3-4.006,1.952-7.754.607-12.4-.7-2.409.047.517-1.474-3.309-2.121-5.337-3.1-19.689,3.555-21.792" transform="translate(-1373.786 -374.31)" fill="#397c71"/>
          </g>
          <g id="パス_1131" data-name="パス 1131">
            <path id="パス_2498" data-name="パス 2498" d="M1401.193,433.556a121.17,121.17,0,0,1-22.551-2.645c-.217-.05-5.209-1.272-6.386-7.657a9.688,9.688,0,0,1,1.436-7.909,23.394,23.394,0,0,0,2.171-4.746c1.288-3.972,1.883-7.526.6-11.954-.044-.156-.162-.561-.235-.782a7.667,7.667,0,0,1-1.215-2.458c-1.718-4.327-2.579-13.608-.069-18.892a6.9,6.9,0,0,1,4.1-3.9.761.761,0,0,1,.458,1.447,5.445,5.445,0,0,0-3.187,3.107c-2.3,4.841-1.47,13.7.109,17.678a17.1,17.1,0,0,0,.814,1.85c.3.181.393.514.688,1.529,1.473,5.083.575,9.178-.614,12.844a24.977,24.977,0,0,1-2.3,5.029c-1.194,2.1-1.915,3.371-1.266,6.882,1,5.413,5.186,6.44,5.228,6.449.118.027,12.364,2.742,23.011,2.6l2.337-.028c9.028-.106,21.393-.251,22.757-2.261a7.438,7.438,0,0,0,.737-7.735l-.041-.077c-1.031-1.99-3.517-6.987-4.32-10.3-.2-.821-.411-1.628-.617-2.422-.873-3.347-1.628-6.231-1.093-8.338a11.59,11.59,0,0,1,2.08-4.816,3.284,3.284,0,0,0,.633-1.14c3.166-10.186.551-17.979-3.52-20.141a.761.761,0,0,1,.713-1.344h0c2.533,1.347,4.4,4.219,5.24,8.088a27.463,27.463,0,0,1-.98,13.849,4.772,4.772,0,0,1-.877,1.6,10.1,10.1,0,0,0-1.823,4.273c-.439,1.726.3,4.569,1.086,7.579.208.8.421,1.618.623,2.448a56.1,56.1,0,0,0,4.193,9.963c.054.106.083.166.09.176a8.946,8.946,0,0,1-.879,9.192c-1.684,2.478-10.594,2.767-24,2.924l-2.334.028C1401.739,433.551,1401.466,433.556,1401.193,433.556Z" transform="translate(-1371.959 -372.587)" fill="#000333"/>
          </g>
        </g>
        <g id="グループ_355" data-name="グループ 355" transform="translate(44.528 3.259)">
          <g id="パス_1132" data-name="パス 1132" transform="translate(0.764 0.756)">
            <path id="パス_2499" data-name="パス 2499" d="M1440.182,344.588s13.924-14.54,13.5-15.873-2.661-2.852-7.889-2.757l-1.877-1.711a30.736,30.736,0,0,1,3.458-1.319c2.837-.982,9.683-2.864,11.513-2.007a6.525,6.525,0,0,1,3.445,4.657c.286,1.809,1.331,1.711,1.9,2.852s1.141,3.11,0,4.216-5.133,2.343-7.224,3.958S1445.981,344.778,1440.182,344.588Z" transform="translate(-1440.182 -320.702)" fill="#397c71"/>
          </g>
          <g id="パス_1133" data-name="パス 1133">
            <path id="パス_2500" data-name="パス 2500" d="M1439.418,344.356c-.09,0-.181,0-.271,0a.76.76,0,0,1-.524-1.285c6.164-6.439,12.7-13.782,13.27-15.247-.413-.877-2.3-2.191-7.1-2.1a.759.759,0,0,1-.526-.2l-1.877-1.711a.761.761,0,0,1-.05-1.075.749.749,0,0,1,.2-.155,30.41,30.41,0,0,1,3.573-1.371c.091-.031,9.445-3.209,12.083-1.977a7.314,7.314,0,0,1,3.875,5.227,1.97,1.97,0,0,0,.834,1.437,3.734,3.734,0,0,1,1,1.194c.391.782,1.538,3.464-.151,5.1a13.6,13.6,0,0,1-3.347,1.878,22.352,22.352,0,0,0-3.941,2.137C1454.685,337.584,1445.6,344.356,1439.418,344.356Zm5.838-20.16c6.566,0,7.888,2.505,8.141,3.289.187.585.4,1.248-6.748,9.177-2.09,2.317-4.215,4.591-5.55,6.006,5.758-1.065,13.483-6.928,14.436-7.664a23.289,23.289,0,0,1,4.232-2.313,13.991,13.991,0,0,0,2.927-1.589c.754-.73.39-2.25-.15-3.33a2.272,2.272,0,0,0-.633-.724,3.445,3.445,0,0,1-1.338-2.347,5.8,5.8,0,0,0-3.017-4.088c-1.331-.622-7.271.766-10.944,2.038-1.063.367-1.809.641-2.316.839l.777.709Z" transform="translate(-1438.411 -318.949)" fill="#000333"/>
          </g>
        </g>
        <g id="グループ_356" data-name="グループ 356" transform="translate(14.855)">
          <g id="パス_1134" data-name="パス 1134" transform="translate(0.755 0.763)">
            <path id="パス_2501" data-name="パス 2501" d="M1382.338,313.163c-7.056,2.139-7.146,4.514-8.1,6.036s-3.136,5.517-2.852,7.7,1.141,4.087,2.471,4.562,2.757,0,5.7,1.331,21.042,7.507,21.042,7.507-20.377-14.068-20.377-15.015.38-2.281,1.236-2.566a4.553,4.553,0,0,0,3.137-2.377,8.322,8.322,0,0,1,4.133-3.607c.9-.194-2.75-3.569-2.75-3.569Z" transform="translate(-1371.363 -313.163)" fill="#397c71"/>
          </g>
          <g id="パス_1135" data-name="パス 1135">
            <path id="パス_2502" data-name="パス 2502" d="M1399.61,340.055a.768.768,0,0,1-.246-.041c-.74-.254-18.163-6.206-21.11-7.536a10.745,10.745,0,0,0-3.889-1,6.99,6.99,0,0,1-1.752-.316c-1.507-.538-2.617-2.475-2.97-5.18-.362-2.786,2.623-7.655,2.961-8.2.125-.2.244-.439.368-.69.788-1.589,1.867-3.764,8.153-5.67a.768.768,0,0,1,.221-.032h3.646a.763.763,0,0,1,.515.2c3.4,3.139,3.2,3.864,3.1,4.214a.916.916,0,0,1-.711.657,7.83,7.83,0,0,0-3.59,3.154,5.142,5.142,0,0,1-3.494,2.773l-.106.034c-.344.115-.659.867-.708,1.64,1.343,1.481,12.877,9.651,20.042,14.6a.761.761,0,0,1-.433,1.387Zm-18.155-27.135c-5.561,1.7-6.427,3.452-7.125,4.858a8.39,8.39,0,0,1-.441.82c-1.054,1.686-2.985,5.359-2.743,7.2.271,2.064,1.045,3.613,1.974,3.944a5.677,5.677,0,0,0,1.383.235,12.372,12.372,0,0,1,4.377,1.12c1.888.853,10.236,3.776,15.815,5.706-1.7-1.192-3.714-2.609-5.715-4.038-10.507-7.5-10.507-7.934-10.507-8.484,0-1.3.549-2.886,1.755-3.288l.109-.036a3.726,3.726,0,0,0,2.564-1.909,9.122,9.122,0,0,1,3.98-3.8,23.03,23.03,0,0,0-2.193-2.327Z" transform="translate(-1369.614 -311.393)" fill="#000333"/>
          </g>
        </g>
        <g id="グループ_357" data-name="グループ 357" transform="translate(39.896 6.051)">
          <g id="パス_1136" data-name="パス 1136">
            <path id="パス_2503" data-name="パス 2503" d="M1438.39,331.017s-1.719.995-5.653.995-5.065-.995-5.065-.995v-5.6h10.715Z" transform="translate(-1427.671 -325.422)" fill="#ffbdad"/>
          </g>
        </g>
        <g id="グループ_360" data-name="グループ 360" transform="translate(36.254 13.552)">
          <g id="パス_1140" data-name="パス 1140">
            <path id="パス_2504" data-name="パス 2504" d="M1423.766,345.993a.5.5,0,0,1-.239-.061l-4.032-2.164a.507.507,0,1,1,.479-.894h0l4.032,2.165a.506.506,0,0,1-.241.953Z" transform="translate(-1419.226 -342.814)" fill="#000333"/>
          </g>
        </g>
        <g id="グループ_361" data-name="グループ 361" transform="translate(48.516 13.553)">
          <g id="パス_1141" data-name="パス 1141">
            <path id="パス_2505" data-name="パス 2505" d="M1448.164,345.994a.506.506,0,0,1-.241-.953l4.033-2.165a.507.507,0,1,1,.48.894h0l-4.033,2.164A.5.5,0,0,1,1448.164,345.994Z" transform="translate(-1447.656 -342.816)" fill="#000333"/>
          </g>
        </g>
        <g id="グループ_362" data-name="グループ 362" transform="translate(41.674 27.007)">
          <g id="パス_1142" data-name="パス 1142">
            <path id="パス_2506" data-name="パス 2506" d="M1437.255,385.07a6.692,6.692,0,0,1-2.1-.391c-1.646-.555-3.51-1.729-3.347-3.206a31.281,31.281,0,0,1,.9-4.019c.84-2.952,1.183-3.17,1.411-3.314a.82.82,0,0,1,.522-.128l2.273.047a.76.76,0,0,1,.692.482c.7,1.775,2.885,7.7,1.78,9.546A2.332,2.332,0,0,1,1437.255,385.07Zm-2.308-9.531a33.232,33.232,0,0,0-1.628,6.1c-.026.234.731,1.06,2.321,1.6,1.351.452,2.291.331,2.45.066.458-.765-.493-4.515-1.711-7.736Zm-.606-.048,0,0,0,0" transform="translate(-1431.793 -374.009)" fill="#000333"/>
          </g>
        </g>
        <g id="グループ_363" data-name="グループ 363" transform="translate(44.356 29.796)">
          <g id="パス_1143" data-name="パス 1143">
            <path id="パス_2507" data-name="パス 2507" d="M1438.947,380.492c.715-.145,1.342.641,1.378,1.978s.181,2.459-1.176,2.121a1.524,1.524,0,0,1-1.087-1.861,1.452,1.452,0,0,1,.054-.165C1438.187,382.115,1438.247,380.635,1438.947,380.492Z" transform="translate(-1438.012 -380.475)" fill="#000333"/>
          </g>
        </g>
        <g id="グループ_364" data-name="グループ 364" transform="translate(42.013 35.625)">
          <g id="パス_1144" data-name="パス 1144">
            <path id="パス_2508" data-name="パス 2508" d="M1433.38,445.688a.76.76,0,0,1-.759-.724c-.15-3.043.147-16.015.345-24.6.062-2.707.114-4.953.136-6.263.091-5.365.656-19.259.661-19.4a.761.761,0,0,1,1.52.061c-.006.14-.566,14.02-.66,19.366-.024,1.312-.075,3.559-.137,6.271-.2,8.562-.494,21.5-.346,24.489a.761.761,0,0,1-.722.8h0Z" transform="translate(-1432.58 -393.99)" fill="#000333"/>
          </g>
        </g>
        <g id="グループ_365" data-name="グループ 365" transform="translate(45.923 36.49)">
          <g id="パス_1145" data-name="パス 1145">
            <path id="パス_2509" data-name="パス 2509" d="M1442.41,446.829a.761.761,0,0,1-.76-.753c-.023-2.6.03-8.467.09-15.258.12-13.395.283-31.74-.079-33.909a.761.761,0,0,1,1.491-.3c0,.017.006.035.009.052.384,2.3.226,19.974.1,34.173-.061,6.784-.113,12.641-.09,15.231a.761.761,0,0,1-.754.768h-.006Z" transform="translate(-1441.644 -395.996)" fill="#000333"/>
          </g>
        </g>
        <g id="グループ_368" data-name="グループ 368" transform="translate(38.731 5.121)">
          <g id="パス_1149" data-name="パス 1149">
            <path id="パス_2510" data-name="パス 2510" d="M1425.73,329.744a.761.761,0,0,1-.761-.761h0v-4.931a.761.761,0,1,1,1.52-.052c0,.017,0,.035,0,.052v4.931A.76.76,0,0,1,1425.73,329.744Z" transform="translate(-1424.969 -323.265)" fill="#000333"/>
          </g>
        </g>
        <g id="グループ_369" data-name="グループ 369" transform="translate(49.855 5.316)">
          <g id="パス_1150" data-name="パス 1150">
            <path id="パス_2511" data-name="パス 2511" d="M1451.521,330.62a.761.761,0,0,1-.761-.76h0v-5.406a.761.761,0,0,1,1.52,0v5.4a.76.76,0,0,1-.76.761Z" transform="translate(-1450.76 -323.719)" fill="#000333"/>
          </g>
        </g>
        <g id="グループ_372" data-name="グループ 372" transform="translate(50.739 65.253)">
          <g id="パス_1152" data-name="パス 1152">
            <path id="パス_2512" data-name="パス 2512" d="M1470.817,470.875a1.718,1.718,0,0,1-.724.933c-1.809.954-4.42-.613-6.987.148a18.759,18.759,0,0,1-9.028,0c-2.713-.715-1.095-3.519,5.084-4.943s5.6-4.958,8.412-4.233a3.829,3.829,0,0,1,1.7.958,23.421,23.421,0,0,0,1.329,6.646C1470.676,470.546,1470.746,470.708,1470.817,470.875Z" transform="translate(-1452.812 -462.682)" fill="#236c60"/>
          </g>
        </g>
        <g id="グループ_373" data-name="グループ 373" transform="translate(51.685 46.8)">
          <g id="パス_1153" data-name="パス 1153">
            <path id="パス_2513" data-name="パス 2513" d="M1462.468,427.9c-3.368.612-7.984-3.636-7.417-6.2s12.618-2.352,13.4.428S1464.036,427.615,1462.468,427.9Z" transform="translate(-1455.004 -419.9)" fill="#236c60"/>
          </g>
        </g>
        <g id="グループ_374" data-name="グループ 374" transform="translate(23.821 46.8)">
          <g id="パス_1154" data-name="パス 1154">
            <path id="パス_2514" data-name="パス 2514" d="M1396.466,427.9c3.368.612,7.984-3.636,7.417-6.2s-12.619-2.352-13.4.428S1394.9,427.615,1396.466,427.9Z" transform="translate(-1390.401 -419.9)" fill="#236c60"/>
          </g>
        </g>
        <g id="グループ_399" data-name="グループ 399" transform="translate(70.697 84.932)">
          <g id="パス_1170" data-name="パス 1170">
            <path id="パス_2515" data-name="パス 2515" d="M1499.084,508.307" transform="translate(-1499.084 -508.307)" fill="#29488e" stroke="#000333" stroke-linecap="round" stroke-linejoin="round" stroke-width="2.097"/>
          </g>
        </g>
      </g>
      <g id="グループ_342" data-name="グループ 342" transform="translate(1400.754 223.589)">
        <g id="パス_1111" data-name="パス 1111" transform="translate(0 0)">
          <path id="パス_2516" data-name="パス 2516" d="M1488.781,314.861a.759.759,0,0,1-.663-.387c-2.294-4.07.532-11.5.653-11.813a.761.761,0,0,1,1.419.548c-.027.07-2.689,7.074-.748,10.52a.759.759,0,0,1-.661,1.133Z" transform="translate(-1487.223 -302.181)" fill="#000333"/>
        </g>
      </g>
      <g id="グループ_344-2" data-name="グループ 344" transform="translate(1406.926 245.303)">
        <g id="パス_1114-2" data-name="パス 1114">
          <path id="パス_2517" data-name="パス 2517" d="M1501.533,352.523" transform="translate(-1501.533 -352.523)" fill="#29488e" stroke="#000333" stroke-linecap="round" stroke-linejoin="round" stroke-width="6.291"/>
        </g>
      </g>
      <g id="グループ_347-2" data-name="グループ 347" transform="translate(1396.157 260.106)">
        <g id="パス_1119-2" data-name="パス 1119">
          <path id="パス_2518" data-name="パス 2518" d="M1476.566,386.844" transform="translate(-1476.566 -386.844)" fill="#29488e" stroke="#000333" stroke-linecap="round" stroke-linejoin="round" stroke-width="6.291"/>
        </g>
      </g>
      <g id="グループ_358" data-name="グループ 358" transform="translate(1355.203 180.087)">
        <g id="パス_1137" data-name="パス 1137" transform="translate(0.773 0.762)">
          <path id="パス_2519" data-name="パス 2519" d="M1432.36,231.136s2.644,11.152-2.591,17.087c-5.155,5.843-13.187,8.006-21.552,7.816-8.365.19-16.4-1.972-21.551-7.816-5.237-5.934-2.593-17.087-2.593-17.087s16.683-27.09,22.932-27.851,23.738-.76,25.354,27.851" transform="translate(-1383.406 -203.086)" fill="#ffedd9"/>
        </g>
        <g id="パス_1138" data-name="パス 1138" transform="translate(0 0)">
          <path id="パス_2520" data-name="パス 2520" d="M1406.164,255.806c-6.583,0-15.263-1.481-21.089-8.085-5.433-6.159-2.872-17.3-2.76-17.765a.746.746,0,0,1,.09-.223c1.728-2.8,17.061-27.425,23.488-28.207,4.585-.556,11.216-.249,16.749,4.381,5.624,4.7,8.8,12.818,9.452,24.117.238,1.043,2.5,11.718-2.777,17.7-6.13,6.949-15.427,8.221-22.139,8.074C1406.848,255.8,1406.509,255.806,1406.164,255.806Zm1.016-1.532c6.431.146,15.255-1.049,21-7.559,4.919-5.575,2.448-16.3,2.422-16.41a.728.728,0,0,1-.019-.132c-.615-10.9-3.618-18.668-8.914-23.1-5.119-4.281-11.306-4.558-15.589-4.036-1.335.162-4.835,2.183-13.28,13.894-4.541,6.3-8.473,12.6-9.029,13.492-.252,1.176-2.187,11.039,2.448,16.294,5.743,6.512,14.572,7.7,20.964,7.56Z" transform="translate(-1381.614 -201.32)" fill="#000333"/>
        </g>
      </g>
      <g id="グループ_366" data-name="グループ 366" transform="translate(1353.321 175.393)">
        <g id="パス_1146" data-name="パス 1146" transform="translate(0.785 0.759)">
          <path id="パス_2521" data-name="パス 2521" d="M1431.511,200.988c7.6,19.963,1.708,30.894,1.708,30.894,0-1.521-4.37-7.984-6.748-12.066s-4.659-15.787-4.659-15.787c-4.847,13.881-19.416,19.2-19.416,19.2,3.877-7.7,1.678-17.206,1.678-17.206s-13.115,4.1-23.021,27.76c0,0-5.673-14.93,2.171-27.76.132-.213.264-.426.4-.633v-.006a29.529,29.529,0,0,1,6.965-7.564,28.187,28.187,0,0,1,13.49-5.627" transform="translate(-1379.071 -192.197)" fill="#535353"/>
        </g>
        <g id="パス_1147" data-name="パス 1147">
          <path id="パス_2522" data-name="パス 2522" d="M1380.021,233.549h-.012a.762.762,0,0,1-.7-.49c-.237-.624-5.714-15.427,2.232-28.427.127-.2.251-.406.38-.6a.591.591,0,0,1,.03-.052,30.387,30.387,0,0,1,7.139-7.757,28.717,28.717,0,0,1,13.893-5.78.752.752,0,0,1,.813.687v.012a.761.761,0,0,1-.7.814,27.724,27.724,0,0,0-13.089,5.474,28.876,28.876,0,0,0-6.749,7.319.717.717,0,0,1-.037.062c-.132.2-.26.408-.388.615-5.927,9.7-3.877,20.784-2.7,25.166,9.81-22.043,22.14-26.124,22.674-26.29a.758.758,0,0,1,.952.5c.006.019.012.039.016.058.086.369,1.905,8.473-.937,15.9,3.953-1.9,13.536-7.433,17.217-17.975a.752.752,0,0,1,.772-.509.762.762,0,0,1,.692.613c.023.116,2.284,11.626,4.569,15.55.668,1.147,1.482,2.463,2.344,3.857,1.719,2.78,3.026,4.924,3.778,6.447,1.244-3.813,3.2-13.631-2.45-28.479a.76.76,0,1,1,1.42-.543h0c7.641,20.058,1.915,31.067,1.667,31.525a.761.761,0,0,1-1.43-.362c0-.874-2.575-5.036-4.278-7.792-.867-1.4-1.687-2.727-2.365-3.889-1.755-3.012-3.417-9.855-4.231-13.554-5.583,12.3-18.353,17.1-18.926,17.3a.76.76,0,0,1-.94-1.056c3.04-6.036,2.2-13.321,1.784-15.81-2.958,1.346-13.511,7.334-21.746,27A.76.76,0,0,1,1380.021,233.549Zm52.925-2.666" transform="translate(-1377.25 -190.438)" fill="#000333"/>
        </g>
      </g>
      <g id="グループ_367" data-name="グループ 367" transform="translate(1379.112 176.153)">
        <g id="パス_1148" data-name="パス 1148">
          <path id="パス_2523" data-name="パス 2523" d="M1437.046,192.2" transform="translate(-1437.046 -192.199)" fill="#333" stroke="#000333" stroke-linecap="round" stroke-linejoin="round" stroke-width="6.291"/>
        </g>
      </g>
      <g id="グループ_370" data-name="グループ 370" transform="translate(1378.674 217.156)">
        <g id="パス_1151" data-name="パス 1151">
          <path id="パス_2524" data-name="パス 2524" d="M1438.283,289.09c-1.621.533-2.751.295-2.028-.809s1.237-1.041,2.282-1,2.379,1.28,1.658,1.851S1438.884,288.892,1438.283,289.09Z" transform="translate(-1436.032 -287.266)" fill="#ffbdad"/>
        </g>
      </g>
      <g id="グループ_371" data-name="グループ 371" transform="translate(1380.338 218.68)">
        <g id="楕円形_27" data-name="楕円形 27" transform="translate(0 0)">
          <ellipse id="楕円形_136" data-name="楕円形 136" cx="0.45" cy="0.495" rx="0.45" ry="0.495" fill="#000333"/>
        </g>
      </g>
      <g id="グループ_392" data-name="グループ 392" transform="translate(1358.663 181.78)">
        <g id="パス_1165" data-name="パス 1165" transform="translate(0)">
          <path id="パス_2525" data-name="パス 2525" d="M1398.668,211.467c-.8,3.011-3.508,4.907-6.037,4.228a4.485,4.485,0,0,1-3-2.879v-.006a29.544,29.544,0,0,1,6.965-7.564A5.538,5.538,0,0,1,1398.668,211.467Z" transform="translate(-1389.635 -205.247)" fill="#868686"/>
        </g>
      </g>
      <g id="グループ_393" data-name="グループ 393" transform="translate(1365.93 186.659)">
        <g id="楕円形_32" data-name="楕円形 32" transform="translate(0 0)">
          <ellipse id="楕円形_137" data-name="楕円形 137" cx="2.35" cy="1.977" rx="2.35" ry="1.977" transform="matrix(0.258, -0.966, 0.966, 0.258, 0, 4.541)" fill="#868686"/>
        </g>
      </g>
      <g id="グループ_394" data-name="グループ 394" transform="translate(1412.142 190.748)">
        <g id="パス_1166" data-name="パス 1166" transform="translate(0)">
          <path id="パス_2526" data-name="パス 2526" d="M1516.747,230.9a1.93,1.93,0,0,1-.913.228,2.57,2.57,0,0,1,0-5.09,1.781,1.781,0,0,1,.547.082A39.293,39.293,0,0,1,1516.747,230.9Z" transform="translate(-1513.627 -226.038)" fill="#868686"/>
        </g>
      </g>
      <g id="グループ_395" data-name="グループ 395" transform="translate(1408.224 191.896)">
        <g id="楕円形_33" data-name="楕円形 33" transform="translate(0 0)">
          <ellipse id="楕円形_138" data-name="楕円形 138" cx="1.354" cy="1.109" rx="1.354" ry="1.109" transform="matrix(0.913, -0.408, 0.408, 0.913, 0, 1.106)" fill="#868686"/>
        </g>
      </g>
      <g id="グループ_396" data-name="グループ 396" transform="translate(1354.599 218.908)">
        <g id="パス_1167" data-name="パス 1167">
          <path id="パス_2527" data-name="パス 2527" d="M1380.974,304.767a.76.76,0,0,1-.647-1.159c2.413-3.934.927-11.292.912-11.366a.761.761,0,1,1,1.49-.31c.068.326,1.628,8.021-1.1,12.471A.759.759,0,0,1,1380.974,304.767Z" transform="translate(-1380.214 -291.327)" fill="#000333"/>
        </g>
      </g>
      <g id="グループ_397" data-name="グループ 397" transform="translate(1376.68 187.114)">
        <g id="パス_1168" data-name="パス 1168" transform="translate(0 0)">
          <path id="パス_2528" data-name="パス 2528" d="M1432.165,238.447a.761.761,0,0,1-.469-1.357c10.8-8.419,10.337-18.6,10.331-18.7a.761.761,0,0,1,1.518-.091c.028.447.547,11.053-10.913,19.99A.762.762,0,0,1,1432.165,238.447Z" transform="translate(-1431.408 -217.613)" fill="#000333"/>
        </g>
      </g>
      <g id="グループ_398" data-name="グループ 398" transform="translate(1406.548 184.944)">
        <g id="パス_1169" data-name="パス 1169">
          <path id="パス_2529" data-name="パス 2529" d="M1500.656,212.581" transform="translate(-1500.656 -212.581)" fill="#333" stroke="#000333" stroke-linecap="round" stroke-linejoin="round" stroke-width="6.291"/>
        </g>
      </g>
      <g id="グループ_401" data-name="グループ 401" transform="translate(1360.192 222.964)">
        <g id="楕円形_34" data-name="楕円形 34" transform="translate(0)">
          <ellipse id="楕円形_139" data-name="楕円形 139" cx="3.437" cy="1.641" rx="3.437" ry="1.641" fill="#ffbdad"/>
        </g>
      </g>
      <g id="グループ_402" data-name="グループ 402" transform="translate(1394.975 222.964)">
        <g id="楕円形_35" data-name="楕円形 35" transform="translate(0)">
          <ellipse id="楕円形_140" data-name="楕円形 140" cx="3.437" cy="1.641" rx="3.437" ry="1.641" fill="#ffbdad"/>
        </g>
      </g>
      <g id="グループ_1859" data-name="グループ 1859" transform="translate(1357.794 206.143)">
        <g id="グループ_1856" data-name="グループ 1856" transform="translate(0.308 1.232)">
          <path id="パス_2530" data-name="パス 2530" d="M1403.514,270.011a.86.86,0,0,1-.61-.253c-4.408-4.408-8.936-4.539-13.1-.379a.863.863,0,0,1-1.22-1.22c4.887-4.887,10.405-4.752,15.536.379a.863.863,0,0,1-.61,1.472Z" transform="translate(-1388.335 -264.59)" fill="#000931"/>
        </g>
        <g id="グループ_1857" data-name="グループ 1857" transform="translate(6.355 0)">
          <path id="パス_2531" data-name="パス 2531" d="M1404.9,264.2a5.871,5.871,0,0,1-1.3-2.342.131.131,0,0,0-.206-.1,2,2,0,0,0-1,1.917Z" transform="translate(-1402.355 -261.733)" fill="#000931"/>
        </g>
        <g id="グループ_1858" data-name="グループ 1858" transform="translate(0 3.81)">
          <path id="パス_2532" data-name="パス 2532" d="M1390.457,271.566a5.869,5.869,0,0,1-2.5-.959.131.131,0,0,0-.222.056,2,2,0,0,0,.461,2.114Z" transform="translate(-1387.622 -270.566)" fill="#000931"/>
        </g>
      </g>
      <g id="グループ_1863" data-name="グループ 1863" transform="translate(1387.497 206.143)">
        <g id="グループ_1860" data-name="グループ 1860" transform="translate(0 1.253)">
          <path id="パス_2533" data-name="パス 2533" d="M1457.351,270.038a.863.863,0,0,1-.61-1.473c2.5-2.5,5.1-3.819,7.735-3.922,2.722-.107,5.344,1.086,7.8,3.542a.862.862,0,0,1-1.22,1.22c-2.1-2.1-4.294-3.122-6.513-3.038-2.186.085-4.4,1.235-6.583,3.417A.86.86,0,0,1,1457.351,270.038Z" transform="translate(-1456.488 -264.638)" fill="#000931"/>
        </g>
        <g id="グループ_1861" data-name="グループ 1861" transform="translate(7.45 0)">
          <path id="パス_2534" data-name="パス 2534" d="M1473.76,264.2a5.878,5.878,0,0,0,1.3-2.342.131.131,0,0,1,.206-.1,2,2,0,0,1,1,1.917Z" transform="translate(-1473.76 -261.733)" fill="#000931"/>
        </g>
        <g id="グループ_1862" data-name="グループ 1862" transform="translate(13.514 3.81)">
          <path id="パス_2535" data-name="パス 2535" d="M1487.821,271.566a5.872,5.872,0,0,0,2.5-.959.131.131,0,0,1,.222.056,2,2,0,0,1-.461,2.114Z" transform="translate(-1487.821 -270.566)" fill="#000931"/>
        </g>
      </g>
      <g id="グループ_375" data-name="グループ 375" transform="translate(1389.432 200.098)">
        <g id="パス_1155" data-name="パス 1155" transform="translate(0 0)">
          <path id="パス_2536" data-name="パス 2536" d="M1474.929,250.319a9.1,9.1,0,0,0-6.71-2.6c-4.22.153-7.245,3.765-7.245,3.765a15.274,15.274,0,0,1,7.318-2.452A11.538,11.538,0,0,1,1474.929,250.319Z" transform="translate(-1460.973 -247.717)" fill="#000333"/>
        </g>
      </g>
      <g id="グループ_384" data-name="グループ 384" transform="translate(1355.169 200.098)">
        <g id="パス_1160" data-name="パス 1160">
          <path id="パス_2537" data-name="パス 2537" d="M1381.534,250.319a9.1,9.1,0,0,1,6.712-2.6c4.219.153,7.245,3.765,7.245,3.765a15.277,15.277,0,0,0-7.319-2.452A11.542,11.542,0,0,0,1381.534,250.319Z" transform="translate(-1381.534 -247.717)" fill="#000333"/>
        </g>
      </g>
      <g id="グループ_1864" data-name="グループ 1864" transform="translate(1375.126 223.976)">
        <path id="パス_2538" data-name="パス 2538" d="M1433.3,306.436c-5.436,0-5.5-2.679-5.5-2.794a.565.565,0,0,1,1.13,0s.157,1.664,4.369,1.664,4.368-1.664,4.369-1.681a.574.574,0,0,1,.582-.538.557.557,0,0,1,.547.555C1438.8,303.757,1438.74,306.436,1433.3,306.436Z" transform="translate(-1427.805 -303.078)" fill="#000931"/>
      </g>
    </g>
  </g>
</svg>
