<svg xmlns="http://www.w3.org/2000/svg" viewBox="0 0 223.68 227.96"><defs><style>.cls-1,.cls-2{fill:#fff;stroke:#2e2e2e;stroke-linejoin:round;}.cls-1{stroke-width:7px;}.cls-2,.cls-5{stroke-linecap:round;}.cls-2{stroke-width:5px;}.cls-3{fill:#2e2e2e;}.cls-4{fill:#bababa;}.cls-5{fill:none;stroke:#ed3e3b;stroke-miterlimit:10;stroke-width:10px;}</style></defs><title>animal_angry</title><g id="レイヤー_2" data-name="レイヤー 2"><g id="_動物_表情パターン" data-name="【動物】表情パターン"><g id="怒った時"><path class="cls-1" d="M220.18,84.94s-31-18.57-59.85,6.19c-20.64-16.51-41.28-16.51-41.28-16.51h-6.19s-20.64,0-41.28,16.51c-18.57-33-51.6-33-51.6-33s0,45.41,28.9,51.6c-43.34,51.6-43.34,90,14.45,102.37,4.12,12.38,8.25,12.38,8.25,12.38A14.65,14.65,0,0,0,84,216.2h64a14.67,14.67,0,0,0,12.39,8.26s4.13,0,8.25-12.38c57.79-12.39,57.79-50.77,14.45-102.37C216.05,105.58,220.18,84.94,220.18,84.94Z"/><path class="cls-2" d="M154.07,138.67S153,117.83,116.92,118h-4.13c-34.47-.2-37.15,20.64-37.15,20.64C74.06,160.48,155.1,160.48,154.07,138.67Z"/><rect class="cls-3" x="94.7" y="134.13" width="9.91" height="4.95" rx="2.48" transform="translate(-52.19 211.02) rotate(-80)"/><rect class="cls-3" x="127.58" y="131.65" width="4.95" height="9.91" rx="2.48" transform="translate(-21.75 24.66) rotate(-10)"/><path class="cls-4" d="M142.42,71.09,154,59.52s43.83,9.12,24.28-32.84c7.68-32.29-41.52-34-40-11.86-20.65,9.67-15.87,32.7,3.52,39.1A149.69,149.69,0,0,1,142.42,71.09Z"/><path class="cls-4" d="M99.91,68.26l1.42-12.7s31.19-15.8-1.19-31.88C89.09.23,58.2,23.14,70,35.93c-7.89,16,6.25,27.7,21.2,22.15A116.86,116.86,0,0,1,99.91,68.26Z"/><path class="cls-5" d="M31.33,39.81s7.81,35.53,42.12,34.93"/><path class="cls-5" d="M13.06,46.41S36.52,72.15,5,95.07"/><path class="cls-5" d="M65.48,91.66S38.61,71.09,19.26,105.75"/></g></g></g></svg>