<svg xmlns="http://www.w3.org/2000/svg" xmlns:xlink="http://www.w3.org/1999/xlink" width="107" height="86" viewBox="0 0 107 86">
  <defs>
    <clipPath id="clip-path">
      <rect id="長方形_216" data-name="長方形 216" width="107" height="86" transform="translate(-7305 3943)" fill="#fff" stroke="#707070" stroke-width="1"/>
    </clipPath>
  </defs>
  <g id="マスクグループ_12" data-name="マスクグループ 12" transform="translate(7305 -3943)" clip-path="url(#clip-path)">
    <g id="体調悪い時" transform="translate(-8176.754 3794.548)">
      <g id="グループ_335" data-name="グループ 335" transform="translate(952.165 196.78)">
        <g id="パス_1098" data-name="パス 1098" transform="translate(0.776 0.74)">
          <path id="パス_2155" data-name="パス 2155" d="M1064.717,278.74s-.825,7.042,2.528,8.635c0,0-6.959,3.133-7.655-2.77S1064.717,278.74,1064.717,278.74Z" transform="translate(-1059.532 -278.74)" fill="#535353"/>
        </g>
        <g id="パス_1099" data-name="パス 1099">
          <path id="パス_2156" data-name="パス 2156" d="M1062.437,287.915a5.087,5.087,0,0,1-2.519-.592,4.51,4.51,0,0,1-2.14-3.658,5.813,5.813,0,0,1,1.23-4.759,6.7,6.7,0,0,1,4.631-1.933.74.74,0,0,1,.733.746c0,.026,0,.052-.005.077-.211,1.813-.241,6.764,2.109,7.882a.738.738,0,0,1-.013,1.34A11.067,11.067,0,0,1,1062.437,287.915Zm.4-9.381a4.726,4.726,0,0,0-2.729,1.365,4.424,4.424,0,0,0-.862,3.593,3.09,3.09,0,0,0,1.4,2.548,5.64,5.64,0,0,0,3.987.069c-1.842-2.017-1.887-5.828-1.8-7.575Z" transform="translate(-1057.68 -276.974)" fill="#000333"/>
        </g>
      </g>
      <g id="グループ_336" data-name="グループ 336" transform="translate(884.819 159.143)">
        <g id="パス_1100" data-name="パス 1100" transform="translate(0.742 0.74)">
          <path id="パス_2157" data-name="パス 2157" d="M919.7,188.892s-12.16,15.254-21.022,13.177c0,0,8.161,5.539,17.512-3.047S919.7,188.892,919.7,188.892Z" transform="translate(-898.68 -188.892)" fill="#535353"/>
        </g>
        <g id="パス_1101" data-name="パス 1101" transform="translate(0 0)">
          <path id="パス_2158" data-name="パス 2158" d="M904.2,203.511a13.51,13.51,0,0,1-6.964-1.859.738.738,0,0,1,.583-1.33,6.951,6.951,0,0,0,1.581.176c8.152,0,18.581-12.955,18.693-13.1a.742.742,0,0,1,.766-.254,3.3,3.3,0,0,1,2.256,2.276c.548,2.22-1.287,5.285-5.455,9.111C911.441,202.415,907.409,203.511,904.2,203.511Zm-2.815-1.746c3.065.709,7.933.592,13.279-4.315,4.9-4.5,5.251-6.738,5.02-7.669a1.654,1.654,0,0,0-.79-1.016C917.077,190.953,908.963,200.255,901.384,201.766Z" transform="translate(-896.909 -187.125)" fill="#000333"/>
        </g>
      </g>
      <g id="グループ_340" data-name="グループ 340" transform="translate(893.399 150.578)">
        <g id="パス_1107" data-name="パス 1107" transform="translate(0.737 0.78)">
          <path id="パス_2159" data-name="パス 2159" d="M983.661,212.951c-4.062,14.214-10.521,20.491-6.09,33.784s-23.948,24.371-23.948,24.371L919.6,253.2c-.926-9.6-.369-11.979,1.289-17.621s2.585-15.43.739-23.184-3.136-22.707,7.572-34.154,29.172-12.555,43.2-4.431c7.917,4.584,11.782,11.935,12.914,20.023a38.08,38.08,0,0,1,.351,4.643A49.829,49.829,0,0,1,983.661,212.951Z" transform="translate(-919.15 -168.539)" fill="#535353"/>
        </g>
        <g id="パス_1108" data-name="パス 1108" transform="translate(0)">
          <path id="パス_2160" data-name="パス 2160" d="M952.6,270.764a.738.738,0,0,1-.344-.088L918.231,252.77a.737.737,0,0,1-.391-.582c-.927-9.618-.385-12.111,1.318-17.9,1.693-5.742,2.487-15.418.728-22.806-1.516-6.362-3.792-22.489,7.751-34.829,10.585-11.316,29.138-13.236,44.113-4.568,7.4,4.286,11.993,11.4,13.27,20.561a39.057,39.057,0,0,1,.362,4.733,50.859,50.859,0,0,1-2.032,14.69,108.872,108.872,0,0,1-3.826,10.766c-3.1,7.772-5.34,13.387-2.274,22.582,1.927,5.783-1.737,12.012-10.6,18.016a80.088,80.088,0,0,1-13.782,7.277A.736.736,0,0,1,952.6,270.764Zm-33.328-19.112,33.369,17.56c3.032-1.246,27.124-11.569,23.206-23.324-3.236-9.709-.791-15.837,2.3-23.6a107.531,107.531,0,0,0,3.777-10.624h0a49.34,49.34,0,0,0,1.976-14.258,37.746,37.746,0,0,0-.351-4.555c-1.212-8.7-5.551-15.435-12.548-19.486-14.387-8.329-32.174-6.521-42.295,4.3-11.054,11.816-8.852,27.349-7.393,33.478,1.9,7.994.946,17.819-.749,23.566-1.651,5.627-2.148,7.9-1.3,16.942Z" transform="translate(-917.391 -166.677)" fill="#000333"/>
        </g>
      </g>
      <g id="体" transform="translate(882.907 212.417)">
        <g id="グループ_1746" data-name="グループ 1746" transform="translate(19.633 83.42)">
          <g id="グループ_1745" data-name="グループ 1745">
            <path id="パス_2161" data-name="パス 2161" d="M939.214,515.12s3.842,32.171,4.665,41.03c.777,8.36,7.214,55.047,7.214,55.047h9.269l3.664-78.038.136,1.259v-20.97Z" transform="translate(-939.214 -513.448)" fill="#000931"/>
          </g>
        </g>
        <g id="グループ_1748" data-name="グループ 1748" transform="translate(44.69 83.42)">
          <g id="グループ_1747" data-name="グループ 1747">
            <path id="パス_2162" data-name="パス 2162" d="M1023.98,515.12s-3.842,32.171-4.665,41.03c-.776,8.36-7.214,55.047-7.214,55.047h-9.27l-3.663-78.038-.136,1.259v-20.97Z" transform="translate(-999.032 -513.448)" fill="#000931"/>
          </g>
        </g>
        <g id="グループ_1749" data-name="グループ 1749" transform="translate(11.749 178.785)">
          <path id="パス_2163" data-name="パス 2163" d="M923.718,753.832h24.715a1.8,1.8,0,0,0,1.8-1.8V742.9l-17.51-1.745q-.508-.05-1.019-.05h0a11.374,11.374,0,0,0-10.248,6.44l-.733,1.523A3.321,3.321,0,0,0,923.718,753.832Z" transform="translate(-920.393 -741.108)" fill="#5b2c2b"/>
        </g>
        <g id="グループ_1750" data-name="グループ 1750" transform="translate(47.407 178.785)">
          <path id="パス_2164" data-name="パス 2164" d="M1032.036,753.832H1007.32a1.8,1.8,0,0,1-1.8-1.8V742.9l17.51-1.745q.508-.05,1.018-.05h0a11.374,11.374,0,0,1,10.248,6.44l.733,1.523A3.321,3.321,0,0,1,1032.036,753.832Z" transform="translate(-1005.518 -741.108)" fill="#5b2c2b"/>
        </g>
        <g id="グループ_337" data-name="グループ 337" transform="translate(4.075 69.008)">
          <g id="パス_1102" data-name="パス 1102" transform="translate(0.739 0.739)">
            <path id="パス_2165" data-name="パス 2165" d="M903.983,484.36s-.762,3.092,1.176,3.462,8.911,0,8.911,0l4.013-6-5.262-1.015Z" transform="translate(-903.836 -480.807)" fill="#397c71"/>
          </g>
          <g id="パス_1103" data-name="パス 1103">
            <path id="パス_2166" data-name="パス 2166" d="M907.347,487.7a21.73,21.73,0,0,1-3.349-.176,2.159,2.159,0,0,1-1.451-.966,4.958,4.958,0,0,1-.3-3.4.736.736,0,0,1,.439-.509l8.843-3.558a.73.73,0,0,1,.415-.039l5.262,1.015a.738.738,0,0,1,.474,1.135l-4.013,6a.743.743,0,0,1-.576.327C912.9,487.544,909.938,487.7,907.347,487.7Zm-3.738-3.829a3.141,3.141,0,0,0,.181,1.888.68.68,0,0,0,.484.314,61.655,61.655,0,0,0,8.364.007l3.189-4.767-3.953-.763Z" transform="translate(-902.072 -479.042)" fill="#000333"/>
          </g>
        </g>
        <g id="グループ_338" data-name="グループ 338" transform="translate(9.749 71.769)">
          <g id="パス_1104" data-name="パス 1104" transform="translate(0.738 0.74)">
            <path id="パス_2167" data-name="パス 2167" d="M917.74,491.8s-2.008,12.035,3.462,12.386l.948-8.793,3,4.085,2.595-12.08Z" transform="translate(-917.38 -487.401)" fill="#ffedd9"/>
          </g>
          <g id="パス_1105" data-name="パス 1105">
            <path id="パス_2168" data-name="パス 2168" d="M920.177,503.9h-.047a3.813,3.813,0,0,1-2.844-1.5c-2.661-3.351-1.356-11.4-1.3-11.741a.738.738,0,0,1,.431-.555l10-4.4a.739.739,0,0,1,1.02.832l-2.6,12.079a.739.739,0,0,1-1.317.281l-1.873-2.548-.744,6.9A.737.737,0,0,1,920.177,503.9Zm-2.794-12.609c-.346,2.416-.708,7.964,1.059,10.19a2.416,2.416,0,0,0,1.086.806l.862-7.994a.739.739,0,0,1,1.33-.358l2.026,2.76,1.946-9.059Z" transform="translate(-915.617 -485.634)" fill="#000333"/>
          </g>
        </g>
        <g id="グループ_341" data-name="グループ 341" transform="translate(21.775 0.685)">
          <g id="パス_1109" data-name="パス 1109" transform="translate(0.736 0.738)">
            <path id="パス_2169" data-name="パス 2169" d="M948.58,323.63c3.566-2.977,7.478-6.128,9.9-5.92s5.574,3.012,5.71,5.608-6.061,4.431-8.655,4.919-9.416,3.843-9.451.727A7.777,7.777,0,0,1,948.58,323.63Z" transform="translate(-946.084 -317.7)" fill="#1e1e1e"/>
          </g>
          <g id="パス_1110" data-name="パス 1110">
            <path id="パス_2170" data-name="パス 2170" d="M946.74,329.985a2.776,2.776,0,0,1-1.638-.43,1.894,1.894,0,0,1-.773-1.609,8.473,8.473,0,0,1,2.744-5.895l.013-.011c4.15-3.465,7.8-6.325,10.437-6.089,2.679.229,6.223,3.243,6.386,6.3.206,3.87-9.162,5.663-9.257,5.681a23.77,23.77,0,0,0-2.569.764A19.422,19.422,0,0,1,946.74,329.985Zm1.3-6.82a7.07,7.07,0,0,0-2.237,4.764c0,.316.109.392.154.423.791.567,3.838-.448,5.658-1.054a23.922,23.922,0,0,1,2.764-.816c3.349-.625,8.142-2.459,8.053-4.15-.119-2.233-3.031-4.744-5.038-4.912-2.243-.178-6.519,3.378-9.353,5.745Z" transform="translate(-944.327 -315.937)" fill="#000333"/>
          </g>
        </g>
        <g id="グループ_343" data-name="グループ 343" transform="translate(14.319 11.806)">
          <g id="パス_1112" data-name="パス 1112" transform="translate(0.249 0.243)">
            <path id="パス_2171" data-name="パス 2171" d="M977.891,343.068a16.561,16.561,0,0,1,3.383,1.335c.587.511,2.156,7.25,1.695,11.589s1.167,50.127,1.167,50.127.653,7.051-4.817,7.79-40.058-2.735-40.058-2.735-11.493-7.847-12.047-15.925,1.574-34,1.574-34l5.622-15.33,9.416-2.856Z" transform="translate(-927.123 -343.067)" fill="#397c71"/>
          </g>
          <g id="パス_1113" data-name="パス 1113">
            <path id="パス_2172" data-name="パス 2172" d="M976.623,413.922c-9.341,0-36.462-2.713-37.736-2.841a.243.243,0,0,1-.114-.041c-.473-.323-11.6-8.007-12.154-16.111-.548-8,1.553-33.772,1.574-34.032a.262.262,0,0,1,.014-.064l5.627-15.33a.246.246,0,0,1,.16-.15l9.416-2.856a.241.241,0,0,1,.071-.01h34.064a.237.237,0,0,1,.07.01,15.685,15.685,0,0,1,3.475,1.385c.676.59,2.245,7.406,1.777,11.8-.455,4.272,1.151,49.633,1.168,50.091a11.359,11.359,0,0,1-.367,3.69,5.469,5.469,0,0,1-4.663,4.349A19.5,19.5,0,0,1,976.623,413.922ZM939,410.6c1.676.168,34.67,3.444,39.939,2.73,5.176-.7,4.611-7.455,4.605-7.524-.068-1.884-1.625-45.868-1.167-50.175.468-4.4-1.176-10.981-1.611-11.379a15.31,15.31,0,0,0-3.256-1.274h-34l-9.264,2.811-5.567,15.182c-.088,1.066-2.108,26.09-1.571,33.924.517,7.6,11.058,15.125,11.889,15.7Z" transform="translate(-926.527 -342.486)" fill="#000333"/>
          </g>
        </g>
        <g id="グループ_344" data-name="グループ 344" transform="translate(69.742 17.219)">
          <g id="パス_1114" data-name="パス 1114">
            <path id="パス_2173" data-name="パス 2173" d="M1058.837,355.41" transform="translate(-1058.837 -355.41)" fill="#29488e" stroke="#000333" stroke-linecap="round" stroke-linejoin="round" stroke-width="6.291"/>
          </g>
        </g>
        <g id="グループ_345" data-name="グループ 345" transform="translate(66.029 70.115)">
          <g id="パス_1115" data-name="パス 1115" transform="translate(0.734 0.739)">
            <path id="パス_2174" data-name="パス 2174" d="M1065.3,488.158c.553,2.031.092,3.739-.646,4.292a16.137,16.137,0,0,1-9.3,1.616c-4.154-.646-3.6-3.7-3.6-3.7l5.539-6.92Z" transform="translate(-1051.725 -483.45)" fill="#397c71"/>
          </g>
          <g id="パス_1116" data-name="パス 1116">
            <path id="パス_2175" data-name="パス 2175" d="M1056.259,493.922a13.361,13.361,0,0,1-2.04-.151,5.119,5.119,0,0,1-3.566-1.9,3.75,3.75,0,0,1-.648-2.654.738.738,0,0,1,.15-.329l5.539-6.922a.739.739,0,0,1,.95-.176l8.011,4.708a.742.742,0,0,1,.338.439c.576,2.108.191,4.248-.915,5.077A16.677,16.677,0,0,1,1056.259,493.922Zm-4.813-4.286a2.269,2.269,0,0,0,.425,1.394,3.752,3.752,0,0,0,2.575,1.281,15.59,15.59,0,0,0,8.747-1.477c.366-.275.841-1.483.448-3.222l-7.192-4.227Z" transform="translate(-1049.973 -481.685)" fill="#000333"/>
          </g>
        </g>
        <g id="グループ_346" data-name="グループ 346" transform="translate(66.952 74.364)">
          <g id="パス_1117" data-name="パス 1117" transform="translate(0.738 0.738)">
            <path id="パス_2176" data-name="パス 2176" d="M1063.707,498.7s-2.154,14.143-5.892,14.278c-.991.037,1.557-8.421,1.007-10.417-.317-1.152-2.013,4.287-2.443,3.329-1.633-3.645-2.441-12.3-2.441-12.3Z" transform="translate(-1053.938 -493.591)" fill="#ffedd9"/>
          </g>
          <g id="パス_1118" data-name="パス 1118">
            <path id="パス_2177" data-name="パス 2177" d="M1056.784,512.691a.887.887,0,0,1-.675-.311c-.492-.572-.327-1.719.314-5.119.185-.981.4-2.141.551-3.162-.527,1.076-.878,1.619-1.488,1.619h-.014a.879.879,0,0,1-.791-.55c-1.669-3.714-2.469-12.174-2.5-12.532a.739.739,0,0,1,1.078-.723l9.77,5.108a.737.737,0,0,1,.388.765c-.374,2.46-2.455,14.752-6.595,14.9Zm.872-12.056h.088a.878.878,0,0,1,.769.7c.295,1.068-.06,3.146-.635,6.2-.219,1.167-.5,2.666-.568,3.493,1.89-1.206,3.753-7.982,4.568-12.945l-8.075-4.222a56.959,56.959,0,0,0,1.825,9.637c.122-.247.243-.5.339-.7C1056.629,501.373,1056.979,500.634,1057.656,500.634Z" transform="translate(-1052.175 -491.828)" fill="#000333"/>
          </g>
        </g>
        <g id="グループ_347" data-name="グループ 347" transform="translate(59.284 31.597)">
          <g id="パス_1119" data-name="パス 1119">
            <path id="パス_2178" data-name="パス 2178" d="M1033.871,389.732" transform="translate(-1033.871 -389.732)" fill="#29488e" stroke="#000333" stroke-linecap="round" stroke-linejoin="round" stroke-width="6.291"/>
          </g>
        </g>
        <g id="グループ_348" data-name="グループ 348" transform="translate(57.165 16.455)">
          <g id="パス_1120" data-name="パス 1120" transform="translate(0.739 0.764)">
            <path id="パス_2179" data-name="パス 2179" d="M1042.415,355.41c4.662,6.786,4.385,13.155,4.8,20.494s0,15.878,10.063,30.834c0,0,.14,2.031-2.423,4.247s-2.008,3.323-3.485,3.323-8.955-.369-8.955-.369l-11.841-7.57V379.781l1.382-9.994" transform="translate(-1030.575 -355.41)" fill="#397c71"/>
          </g>
          <g id="パス_1121" data-name="パス 1121">
            <path id="パス_2180" data-name="パス 2180" d="M1050.344,413.985c-1.478,0-8.685-.352-8.991-.371a.728.728,0,0,1-.361-.115l-11.841-7.57a.738.738,0,0,1-.341-.622V378.721a.739.739,0,0,1,.007-.1l1.382-9.993a.739.739,0,1,1,1.466.18l0,.022-1.375,9.943V404.9l11.332,7.246c1.189.058,7.412.359,8.722.359.385,0,.4-.012.8-.62a10.95,10.95,0,0,1,2.2-2.523,5.5,5.5,0,0,0,2.161-3.473c-9.243-13.812-9.643-22.353-9.965-29.223-.029-.6-.057-1.2-.088-1.784-.048-.856-.088-1.7-.126-2.531-.292-6.313-.545-11.765-4.545-17.587a.739.739,0,1,1,1.183-.885c.012.016.023.032.033.049,4.24,6.169,4.514,12.088,4.8,18.355.039.828.078,1.665.126,2.515.033.591.062,1.189.088,1.8.332,7.068.7,15.08,9.847,28.664a.738.738,0,0,1,.124.362c.006.1.133,2.427-2.677,4.855a9.494,9.494,0,0,0-1.933,2.216A2.172,2.172,0,0,1,1050.344,413.985Z" transform="translate(-1028.811 -353.586)" fill="#000333"/>
          </g>
        </g>
        <g id="グループ_349" data-name="グループ 349" transform="translate(0 15.375)">
          <g id="パス_1122" data-name="パス 1122" transform="translate(0.737 0.736)">
            <path id="パス_2181" data-name="パス 2181" d="M921.442,365.591l-1.581,9.467v24.094s-10.662,8.862-11.978,9.9-8.1,1.176-9.554.9-4.224-5.123-4.224-5.123c3.185-2.908,5.816-11.631,6.37-22.709s4.47-23.948,9.3-27.895l6.721-1.461,3.987,4.847" transform="translate(-894.105 -352.764)" fill="#397c71"/>
          </g>
          <g id="パス_1123" data-name="パス 1123">
            <path id="パス_2182" data-name="パス 2182" d="M899.7,409.789a17.329,17.329,0,0,1-2.532-.132c-1.66-.315-4.041-4.276-4.726-5.482a.739.739,0,0,1,.143-.911c3.146-2.872,5.61-11.8,6.13-22.2.527-10.563,4.253-24.085,9.575-28.429a.743.743,0,0,1,.31-.149l6.721-1.462a.738.738,0,0,1,.727.253l3.987,4.847a.739.739,0,1,1-1.142.938l-3.7-4.5-6.1,1.328c-4.354,3.734-8.331,15.876-8.9,27.248-.527,10.482-2.93,19.291-6.182,22.792,1.331,2.228,2.88,4.172,3.436,4.278,2.611.5,8.357-.28,8.96-.754,1.178-.93,10.038-8.289,11.7-9.668v-23.75a.792.792,0,0,1,.01-.122l1.581-9.467a.739.739,0,0,1,1.456.243l-1.571,9.407V398.13a.737.737,0,0,1-.264.568c-.439.363-10.685,8.88-11.992,9.912C906.179,409.51,902.369,409.789,899.7,409.789Z" transform="translate(-892.345 -351.006)" fill="#000333"/>
          </g>
        </g>
        <g id="グループ_350" data-name="グループ 350" transform="translate(17.073 79.081)">
          <g id="パス_1124" data-name="パス 1124" transform="translate(0.234 0.243)">
            <path id="パス_2183" data-name="パス 2183" d="M935.417,504.153c-1.638,1.318-3.163,5.886.508,7.27s3.67.416,10.731,1.593,19.248.966,25.064.623,15.022-.277,15.891-3.116-.088-4.673-1.7-4.621-22.709-1.75-22.709-1.75l-24.995-.484Z" transform="translate(-933.662 -503.668)" fill="#397c71"/>
          </g>
          <g id="パス_1125" data-name="パス 1125">
            <path id="パス_2184" data-name="パス 2184" d="M961.378,513.821a101.565,101.565,0,0,1-15.088-.9,50,50,0,0,0-6.194-.692,12.479,12.479,0,0,1-4.585-.913,3.467,3.467,0,0,1-2.372-2.794,5.836,5.836,0,0,1,1.793-4.9.244.244,0,0,1,.113-.051l2.792-.483,25.041.48c.227.018,21.133,1.812,22.7,1.751a1.994,1.994,0,0,1,1.677.791c.694.906.79,2.418.263,4.147-.79,2.586-7.467,2.888-13.353,3.154-.966.043-1.9.088-2.755.136C968.777,513.7,965.178,513.821,961.378,513.821ZM935.2,504.047a5.4,5.4,0,0,0-1.567,4.4,2.974,2.974,0,0,0,2.056,2.411,11.963,11.963,0,0,0,4.437.878,50.466,50.466,0,0,1,6.248.7c6.841,1.142,18.7,1,25.009.62.859-.051,1.792-.094,2.762-.137,5.157-.232,12.22-.552,12.907-2.8.48-1.576.414-2.926-.183-3.7a1.443,1.443,0,0,0-1.27-.6c-1.59.048-21.874-1.678-22.738-1.752l-24.979-.482Z" transform="translate(-933.103 -503.089)" fill="#000333"/>
          </g>
        </g>
        <g id="グループ_351" data-name="グループ 351" transform="translate(15.798 45.238)">
          <g id="パス_1126" data-name="パス 1126">
            <path id="パス_2185" data-name="パス 2185" d="M938.942,431.6c0,5.138.449,9.759-1.993,9.759s-6.852-4.621-6.852-9.759c0-2.059-.2-5.478.336-7.019.8-2.3,2.621-2.284,4.085-2.284C936.963,422.3,938.942,426.463,938.942,431.6Z" transform="translate(-930.059 -422.298)" fill="#236c60"/>
          </g>
        </g>
        <g id="グループ_352" data-name="グループ 352" transform="translate(60.567 49.037)">
          <g id="パス_1127" data-name="パス 1127">
            <path id="パス_2186" data-name="パス 2186" d="M1045.774,440.675c0,5.137-1.979,9.3-4.42,9.3s-4.421-4.166-4.421-9.3,1.979-9.3,4.421-9.3c1.675,0,3.671-.235,4.42,2.657C1046.116,435.351,1045.774,439.063,1045.774,440.675Z" transform="translate(-1036.933 -431.367)" fill="#236c60"/>
          </g>
        </g>
        <g id="グループ_353" data-name="グループ 353" transform="translate(23.032 7.392)">
          <g id="パス_1128" data-name="パス 1128" transform="translate(0.739 0.739)">
            <path id="パス_2187" data-name="パス 2187" d="M949.091,338.093s9.09-4.42,14.583-4.379,18.05,1.564,19.434,2.625-10.168,17.236-14.6,16.211-18.352-10.026-18.352-10.026Z" transform="translate(-949.091 -333.713)" fill="#ffedd9"/>
          </g>
          <g id="パス_1129" data-name="パス 1129">
            <path id="パス_2188" data-name="パス 2188" d="M967.866,352.306a2.449,2.449,0,0,1-.553-.06c-4.51-1.043-18.014-9.756-18.587-10.125a.742.742,0,0,1-.317-.449l-1.061-4.431a.737.737,0,0,1,.4-.836c.376-.183,9.224-4.455,14.832-4.455h.08c5.025.037,18.184,1.483,19.878,2.778.728.559.341,1.664-.134,2.673C980.534,341.354,972.365,352.306,967.866,352.306ZM949.776,341.04c1.885,1.206,13.927,8.857,17.87,9.767.371.088,1.493.069,3.873-1.933,4.7-3.961,9.6-11.46,9.926-13.077-1.915-.878-13.252-2.324-18.8-2.365h-.073c-4.514,0-11.65,3.133-13.65,4.054Z" transform="translate(-947.327 -331.95)" fill="#000333"/>
          </g>
        </g>
        <g id="グループ_354" data-name="グループ 354" transform="translate(15.409 25.634)">
          <g id="パス_1130" data-name="パス 1130" transform="translate(0.766 0.722)">
            <path id="パス_2189" data-name="パス 2189" d="M978.123,377.967c4.431,2.353,6.879,10.462,3.777,20.433-.522,1.678-1.487,1.235-2.635,5.746-.59,2.326.689,6.081,1.661,10.094.914,3.772,4.163,9.883,4.2,9.962a8,8,0,0,1-.783,8.221c-1.66,2.442-14.4,2.408-24.972,2.548s-22.525-2.548-22.525-2.548-4.568-1.054-5.637-6.852,1.57-6.026,3.481-11.929c1.261-3.891,1.9-7.531.589-12.043-.677-2.339.046.5-1.431-3.214-2.06-5.183-3.011-19.122,3.452-21.164" transform="translate(-930.958 -377.221)" fill="#397c71"/>
          </g>
          <g id="パス_1131" data-name="パス 1131">
            <path id="パス_2190" data-name="パス 2190" d="M957.523,434.711a117.684,117.684,0,0,1-21.9-2.569c-.21-.048-5.059-1.235-6.2-7.436a9.409,9.409,0,0,1,1.395-7.681,22.72,22.72,0,0,0,2.108-4.609c1.251-3.858,1.829-7.309.583-11.61-.043-.151-.157-.545-.228-.76a7.437,7.437,0,0,1-1.18-2.387c-1.669-4.2-2.5-13.215-.067-18.347a6.7,6.7,0,0,1,3.984-3.792.739.739,0,0,1,.445,1.405,5.289,5.289,0,0,0-3.095,3.018c-2.232,4.7-1.428,13.309.106,17.169a16.669,16.669,0,0,0,.79,1.8c.288.176.382.5.669,1.485,1.43,4.937.559,8.914-.6,12.474a24.281,24.281,0,0,1-2.233,4.884,7.958,7.958,0,0,0-1.23,6.684c.966,5.258,5.036,6.254,5.077,6.263.115.026,12.008,2.663,22.349,2.526l2.269-.027c8.768-.1,20.777-.243,22.1-2.2a7.224,7.224,0,0,0,.716-7.512l-.039-.075a55.7,55.7,0,0,1-4.2-10.007c-.193-.8-.4-1.581-.6-2.353-.848-3.25-1.581-6.052-1.061-8.1a11.257,11.257,0,0,1,2.02-4.677,3.19,3.19,0,0,0,.615-1.107c3.075-9.893.535-17.461-3.418-19.561a.739.739,0,1,1,.693-1.305h0c2.46,1.308,4.269,4.1,5.089,7.855a26.672,26.672,0,0,1-.952,13.45,4.644,4.644,0,0,1-.852,1.559,9.8,9.8,0,0,0-1.77,4.15c-.426,1.676.3,4.437,1.054,7.361.2.776.409,1.572.605,2.377a54.471,54.471,0,0,0,4.072,9.676c.053.1.081.162.088.171a8.688,8.688,0,0,1-.853,8.927c-1.636,2.407-10.289,2.687-23.305,2.84l-2.267.027C958.053,434.706,957.788,434.711,957.523,434.711Z" transform="translate(-929.131 -375.497)" fill="#000333"/>
          </g>
        </g>
        <g id="グループ_355" data-name="グループ 355" transform="translate(43.246 3.165)">
          <g id="パス_1132" data-name="パス 1132" transform="translate(0.742 0.734)">
            <path id="パス_2191" data-name="パス 2191" d="M997.354,346.81s13.523-14.121,13.108-15.416-2.584-2.77-7.662-2.678l-1.823-1.662a29.849,29.849,0,0,1,3.358-1.281c2.755-.953,9.4-2.781,11.182-1.95a6.338,6.338,0,0,1,3.346,4.523c.278,1.757,1.292,1.662,1.845,2.77s1.108,3.02,0,4.094-4.985,2.275-7.016,3.844S1002.986,346.994,997.354,346.81Z" transform="translate(-997.354 -323.612)" fill="#397c71"/>
          </g>
          <g id="パス_1133" data-name="パス 1133">
            <path id="パス_2192" data-name="パス 2192" d="M996.561,346.534c-.088,0-.175,0-.263,0a.738.738,0,0,1-.509-1.248c5.987-6.254,12.334-13.385,12.888-14.808-.4-.852-2.238-2.128-6.9-2.037a.739.739,0,0,1-.511-.193l-1.823-1.662a.739.739,0,0,1,.144-1.195,29.52,29.52,0,0,1,3.47-1.331c.088-.031,9.173-3.117,11.735-1.921a7.1,7.1,0,0,1,3.763,5.077,1.913,1.913,0,0,0,.81,1.395,3.626,3.626,0,0,1,.966,1.159c.38.76,1.493,3.365-.147,4.955a13.2,13.2,0,0,1-3.25,1.823,21.745,21.745,0,0,0-3.827,2.075C1011.388,339.957,1002.569,346.534,996.561,346.534Zm5.67-19.579c6.377,0,7.661,2.433,7.906,3.194.182.568.389,1.212-6.553,8.913-2.03,2.25-4.094,4.459-5.39,5.833,5.592-1.035,13.094-6.728,14.02-7.443a22.6,22.6,0,0,1,4.11-2.247,13.569,13.569,0,0,0,2.843-1.543c.732-.709.379-2.186-.146-3.235a2.216,2.216,0,0,0-.615-.7,3.345,3.345,0,0,1-1.3-2.28,5.629,5.629,0,0,0-2.93-3.969c-1.292-.6-7.062.744-10.629,1.979-1.032.357-1.757.623-2.249.815l.755.689Z" transform="translate(-995.583 -321.859)" fill="#000333"/>
          </g>
        </g>
        <g id="グループ_356" data-name="グループ 356" transform="translate(14.427)">
          <g id="パス_1134" data-name="パス 1134" transform="translate(0.733 0.741)">
            <path id="パス_2193" data-name="パス 2193" d="M939.194,316.073c-6.852,2.078-6.94,4.385-7.864,5.862s-3.046,5.358-2.77,7.478,1.108,3.969,2.4,4.431,2.678,0,5.539,1.292,20.436,7.291,20.436,7.291-19.79-13.663-19.79-14.582.369-2.216,1.2-2.492a4.422,4.422,0,0,0,3.047-2.309,8.082,8.082,0,0,1,4.014-3.5c.879-.189-2.671-3.466-2.671-3.466Z" transform="translate(-928.535 -316.073)" fill="#397c71"/>
          </g>
          <g id="パス_1135" data-name="パス 1135">
            <path id="パス_2194" data-name="パス 2194" d="M955.918,342.14a.744.744,0,0,1-.239-.039c-.719-.246-17.64-6.027-20.5-7.319a10.442,10.442,0,0,0-3.777-.966,6.791,6.791,0,0,1-1.7-.307c-1.464-.523-2.542-2.4-2.884-5.031-.351-2.706,2.548-7.434,2.875-7.965.122-.2.237-.426.357-.67.765-1.543,1.813-3.655,7.918-5.507a.731.731,0,0,1,.214-.032h3.541a.739.739,0,0,1,.5.2c3.3,3.048,3.108,3.752,3.016,4.093a.89.89,0,0,1-.69.639,7.6,7.6,0,0,0-3.486,3.063,4.993,4.993,0,0,1-3.393,2.693l-.1.034c-.334.111-.641.842-.688,1.593,1.3,1.438,12.506,9.373,19.464,14.177a.739.739,0,0,1-.42,1.347Zm-17.632-26.354c-5.4,1.656-6.242,3.353-6.92,4.718a8.076,8.076,0,0,1-.429.8c-1.023,1.637-2.9,5.205-2.664,6.99.264,2,1.015,3.509,1.917,3.831a5.517,5.517,0,0,0,1.343.227,12.024,12.024,0,0,1,4.251,1.087c1.834.828,9.942,3.667,15.36,5.542-1.653-1.158-3.608-2.535-5.551-3.922-10.2-7.282-10.2-7.705-10.2-8.24,0-1.264.533-2.8,1.7-3.193l.106-.035a3.618,3.618,0,0,0,2.49-1.854,8.864,8.864,0,0,1,3.866-3.69,22.359,22.359,0,0,0-2.13-2.26Z" transform="translate(-926.786 -314.303)" fill="#000333"/>
          </g>
        </g>
        <g id="グループ_357" data-name="グループ 357" transform="translate(38.747 5.877)">
          <g id="パス_1136" data-name="パス 1136">
            <path id="パス_2195" data-name="パス 2195" d="M995.253,333.767s-1.669.966-5.49.966-4.919-.966-4.919-.966v-5.434h10.406Z" transform="translate(-984.843 -328.333)" fill="#ffbdad"/>
          </g>
        </g>
        <g id="グループ_360" data-name="グループ 360" transform="translate(35.209 13.162)">
          <g id="パス_1140" data-name="パス 1140">
            <path id="パス_2196" data-name="パス 2196" d="M980.807,348.812a.489.489,0,0,1-.232-.059l-3.916-2.1a.492.492,0,1,1,.465-.868h0l3.916,2.1a.492.492,0,0,1-.234.926Z" transform="translate(-976.398 -345.724)" fill="#000333"/>
          </g>
        </g>
        <g id="グループ_361" data-name="グループ 361" transform="translate(47.118 13.163)">
          <g id="パス_1141" data-name="パス 1141">
            <path id="パス_2197" data-name="パス 2197" d="M1005.322,348.813a.492.492,0,0,1-.234-.926l3.917-2.1a.493.493,0,0,1,.466.868h0l-3.917,2.1A.488.488,0,0,1,1005.322,348.813Z" transform="translate(-1004.828 -345.726)" fill="#000333"/>
          </g>
        </g>
        <g id="グループ_362" data-name="グループ 362" transform="translate(40.474 26.229)">
          <g id="パス_1142" data-name="パス 1142">
            <path id="パス_2198" data-name="パス 2198" d="M994.27,387.661a6.5,6.5,0,0,1-2.044-.38c-1.6-.54-3.409-1.679-3.25-3.113a30.335,30.335,0,0,1,.878-3.9c.816-2.867,1.149-3.079,1.371-3.218a.793.793,0,0,1,.507-.125l2.208.046a.737.737,0,0,1,.672.468c.677,1.723,2.8,7.483,1.729,9.271A2.265,2.265,0,0,1,994.27,387.661Zm-2.241-9.256a32.245,32.245,0,0,0-1.581,5.926c-.026.227.71,1.03,2.254,1.55,1.312.439,2.225.322,2.38.064.445-.743-.479-4.384-1.661-7.513Zm-.589-.047,0,0,0,0" transform="translate(-988.966 -376.919)" fill="#000333"/>
          </g>
        </g>
        <g id="グループ_363" data-name="グループ 363" transform="translate(43.079 28.938)">
          <g id="パス_1143" data-name="パス 1143">
            <path id="パス_2199" data-name="パス 2199" d="M996.092,383.4c.694-.142,1.3.623,1.339,1.921s.176,2.389-1.142,2.06a1.48,1.48,0,0,1-1.056-1.808,1.441,1.441,0,0,1,.052-.16C995.354,384.978,995.412,383.541,996.092,383.4Z" transform="translate(-995.185 -383.386)" fill="#000333"/>
          </g>
        </g>
        <g id="グループ_364" data-name="グループ 364" transform="translate(40.803 34.599)">
          <g id="パス_1144" data-name="パス 1144">
            <path id="パス_2200" data-name="パス 2200" d="M990.529,447.109a.738.738,0,0,1-.737-.7c-.146-2.956.143-15.554.335-23.894.06-2.629.111-4.811.132-6.082.088-5.21.637-18.705.642-18.841a.739.739,0,0,1,1.476.059c-.005.137-.549,13.616-.641,18.808-.023,1.273-.073,3.457-.133,6.09-.191,8.315-.48,20.882-.336,23.783a.738.738,0,0,1-.7.775h0Z" transform="translate(-989.752 -396.9)" fill="#000333"/>
          </g>
        </g>
        <g id="グループ_365" data-name="グループ 365" transform="translate(44.6 35.439)">
          <g id="パス_1145" data-name="パス 1145">
            <path id="パス_2201" data-name="パス 2201" d="M999.56,448.275a.739.739,0,0,1-.739-.732c-.022-2.527.029-8.223.088-14.819.116-13.009.274-30.825-.077-32.933a.739.739,0,0,1,1.448-.294c0,.017.006.034.008.051.373,2.235.22,19.4.1,33.189-.059,6.589-.11,12.278-.088,14.793a.739.739,0,0,1-.732.746h-.006Z" transform="translate(-998.816 -398.906)" fill="#000333"/>
          </g>
        </g>
        <g id="グループ_368" data-name="グループ 368" transform="translate(37.615 4.973)">
          <g id="パス_1149" data-name="パス 1149">
            <path id="パス_2202" data-name="パス 2202" d="M982.88,332.468a.738.738,0,0,1-.739-.739h0v-4.79a.739.739,0,0,1,1.477-.05c0,.017,0,.034,0,.05v4.79A.738.738,0,0,1,982.88,332.468Z" transform="translate(-982.141 -326.176)" fill="#000333"/>
          </g>
        </g>
        <g id="グループ_369" data-name="グループ 369" transform="translate(48.419 5.163)">
          <g id="パス_1150" data-name="パス 1150">
            <path id="パス_2203" data-name="パス 2203" d="M1008.671,333.331a.739.739,0,0,1-.739-.739h0v-5.25a.739.739,0,0,1,1.477,0v5.249a.739.739,0,0,1-.738.74Z" transform="translate(-1007.932 -326.629)" fill="#000333"/>
          </g>
        </g>
        <g id="グループ_372" data-name="グループ 372" transform="translate(49.278 63.374)">
          <g id="パス_1152" data-name="パス 1152">
            <path id="パス_2204" data-name="パス 2204" d="M1027.471,473.549a1.67,1.67,0,0,1-.7.906c-1.757.926-4.293-.6-6.786.143a18.208,18.208,0,0,1-8.768,0c-2.635-.694-1.064-3.417,4.938-4.8s5.44-4.815,8.17-4.111a3.72,3.72,0,0,1,1.654.93,22.771,22.771,0,0,0,1.291,6.455C1027.333,473.229,1027.4,473.387,1027.471,473.549Z" transform="translate(-1009.984 -465.592)" fill="#236c60"/>
          </g>
        </g>
        <g id="グループ_373" data-name="グループ 373" transform="translate(50.196 45.453)">
          <g id="パス_1153" data-name="パス 1153">
            <path id="パス_2205" data-name="パス 2205" d="M1019.425,430.58c-3.271.594-7.754-3.531-7.2-6.023s12.254-2.284,13.016.416S1020.948,430.3,1019.425,430.58Z" transform="translate(-1012.176 -422.81)" fill="#236c60"/>
          </g>
        </g>
        <g id="グループ_374" data-name="グループ 374" transform="translate(23.134 45.453)">
          <g id="パス_1154" data-name="パス 1154">
            <path id="パス_2206" data-name="パス 2206" d="M953.463,430.58c3.271.594,7.755-3.531,7.2-6.023s-12.255-2.284-13.017.416S951.94,430.3,953.463,430.58Z" transform="translate(-947.572 -422.81)" fill="#236c60"/>
          </g>
        </g>
        <g id="グループ_399" data-name="グループ 399" transform="translate(68.661 82.486)">
          <g id="パス_1170" data-name="パス 1170">
            <path id="パス_2207" data-name="パス 2207" d="M1056.256,511.217" transform="translate(-1056.256 -511.217)" fill="#29488e" stroke="#000333" stroke-linecap="round" stroke-linejoin="round" stroke-width="2.097"/>
          </g>
        </g>
      </g>
      <g id="グループ_342" data-name="グループ 342" transform="translate(946.561 208.468)">
        <g id="パス_1111" data-name="パス 1111">
          <path id="パス_2208" data-name="パス 2208" d="M1045.815,317.191a.739.739,0,0,1-.644-.376c-2.228-3.953.517-11.168.634-11.473a.739.739,0,0,1,1.378.532c-.026.067-2.612,6.87-.726,10.216a.738.738,0,0,1-.642,1.1Z" transform="translate(-1044.302 -304.875)" fill="#000333"/>
        </g>
      </g>
      <g id="グループ_344-2" data-name="グループ 344" transform="translate(952.555 229.556)">
        <g id="パス_1114-2" data-name="パス 1114">
          <path id="パス_2209" data-name="パス 2209" d="M1058.611,355.217" transform="translate(-1058.611 -355.217)" fill="#29488e" stroke="#000333" stroke-linecap="round" stroke-linejoin="round" stroke-width="6.291"/>
        </g>
      </g>
      <g id="グループ_347-2" data-name="グループ 347" transform="translate(942.097 243.933)">
        <g id="パス_1119-2" data-name="パス 1119">
          <path id="パス_2210" data-name="パス 2210" d="M1033.645,389.539" transform="translate(-1033.645 -389.539)" fill="#29488e" stroke="#000333" stroke-linecap="round" stroke-linejoin="round" stroke-width="6.291"/>
        </g>
      </g>
      <g id="グループ_358" data-name="グループ 358" transform="translate(902.322 166.218)">
        <g id="パス_1137" data-name="パス 1137" transform="translate(0.751 0.74)">
          <path id="パス_2211" data-name="パス 2211" d="M988.029,233.022s2.568,10.831-2.517,16.595c-5.008,5.675-12.807,7.775-20.931,7.591-8.124.184-15.925-1.915-20.93-7.591-5.085-5.764-2.518-16.595-2.518-16.595s16.2-26.31,22.272-27.049,23.055-.739,24.624,27.049" transform="translate(-940.485 -205.781)" fill="#ffedd9"/>
        </g>
        <g id="パス_1138" data-name="パス 1138" transform="translate(0 0)">
          <path id="パス_2212" data-name="パス 2212" d="M962.535,256.931c-6.393,0-14.824-1.438-20.482-7.852-5.277-5.981-2.79-16.8-2.681-17.254a.727.727,0,0,1,.088-.217c1.678-2.723,16.57-26.635,22.812-27.395,4.453-.54,10.893-.243,16.266,4.254,5.462,4.568,8.551,12.449,9.18,23.422.231,1.013,2.428,11.381-2.7,17.189-5.953,6.749-14.982,7.984-21.5,7.841C963.2,256.927,962.87,256.931,962.535,256.931Zm.987-1.488c6.246.142,14.815-1.018,20.393-7.341,4.778-5.414,2.377-15.832,2.353-15.937a.742.742,0,0,1-.019-.129c-.6-10.582-3.514-18.13-8.657-22.437-4.971-4.158-10.98-4.426-15.14-3.92-1.3.157-4.7,2.12-12.9,13.494-4.411,6.117-8.229,12.232-8.769,13.1-.245,1.142-2.124,10.722,2.377,15.824,5.578,6.324,14.153,7.482,20.36,7.342Z" transform="translate(-938.692 -204.014)" fill="#000333"/>
        </g>
      </g>
      <g id="グループ_366" data-name="グループ 366" transform="translate(900.494 161.66)">
        <g id="パス_1146" data-name="パス 1146" transform="translate(0.762 0.737)">
          <path id="パス_2213" data-name="パス 2213" d="M987.08,203.429c7.385,19.388,1.659,30,1.659,30,0-1.477-4.244-7.754-6.553-11.718s-4.525-15.332-4.525-15.332c-4.707,13.481-18.857,18.649-18.857,18.649,3.766-7.478,1.629-16.71,1.629-16.71s-12.738,3.983-22.358,26.961c0,0-5.51-14.5,2.109-26.961.128-.207.256-.414.389-.615V207.7a28.7,28.7,0,0,1,6.764-7.346,27.376,27.376,0,0,1,13.1-5.465" transform="translate(-936.149 -194.891)" fill="#535353"/>
        </g>
        <g id="パス_1147" data-name="パス 1147">
          <path id="パス_2214" data-name="パス 2214" d="M937.02,235h-.013a.741.741,0,0,1-.678-.476c-.23-.606-5.549-14.983,2.168-27.608.123-.2.243-.395.369-.585.009-.018.018-.034.029-.05a29.511,29.511,0,0,1,6.933-7.533,27.886,27.886,0,0,1,13.493-5.614.731.731,0,0,1,.79.667v.011a.739.739,0,0,1-.678.79,26.928,26.928,0,0,0-12.713,5.317,28.041,28.041,0,0,0-6.554,7.109c-.011.021-.023.04-.036.061-.128.2-.253.4-.377.6-5.756,9.419-3.765,20.185-2.619,24.442,9.528-21.408,21.5-25.372,22.021-25.534a.737.737,0,0,1,.925.481c.006.018.011.037.016.056.083.359,1.85,8.229-.91,15.441,3.839-1.845,13.145-7.219,16.721-17.457a.73.73,0,0,1,.75-.494.74.74,0,0,1,.672.6c.022.112,2.218,11.291,4.437,15.1.649,1.114,1.44,2.392,2.277,3.746,1.669,2.7,2.939,4.783,3.669,6.262,1.208-3.7,3.112-13.238-2.38-27.658a.738.738,0,1,1,1.379-.527h0c7.42,19.48,1.86,30.172,1.619,30.617a.739.739,0,0,1-1.389-.351c0-.848-2.5-4.891-4.155-7.567-.842-1.362-1.638-2.649-2.3-3.778-1.7-2.925-3.318-9.571-4.109-13.164C970.957,219.845,958.556,224.5,958,224.7a.739.739,0,0,1-.914-1.026c2.953-5.862,2.135-12.937,1.732-15.354-2.873,1.307-13.122,7.122-21.119,26.223A.739.739,0,0,1,937.02,235Zm51.4-2.59" transform="translate(-934.329 -193.132)" fill="#000333"/>
        </g>
      </g>
      <g id="グループ_367" data-name="グループ 367" transform="translate(925.542 162.397)">
        <g id="パス_1148" data-name="パス 1148">
          <path id="パス_2215" data-name="パス 2215" d="M994.125,194.893" transform="translate(-994.125 -194.893)" fill="#333" stroke="#000333" stroke-linecap="round" stroke-linejoin="round" stroke-width="6.291"/>
        </g>
      </g>
      <g id="グループ_370" data-name="グループ 370" transform="translate(925.117 202.221)">
        <g id="パス_1151" data-name="パス 1151">
          <path id="パス_2216" data-name="パス 2216" d="M995.3,291.732c-1.574.518-2.672.287-1.97-.785s1.2-1.011,2.216-.966,2.311,1.243,1.61,1.8S995.88,291.54,995.3,291.732Z" transform="translate(-993.111 -289.961)" fill="#ffbdad"/>
        </g>
      </g>
      <g id="グループ_371" data-name="グループ 371" transform="translate(926.733 203.7)">
        <g id="楕円形_27" data-name="楕円形 27" transform="translate(0)">
          <ellipse id="楕円形_104" data-name="楕円形 104" cx="0.437" cy="0.481" rx="0.437" ry="0.481" fill="#000333"/>
        </g>
      </g>
      <g id="グループ_392" data-name="グループ 392" transform="translate(905.682 167.863)">
        <g id="パス_1165" data-name="パス 1165" transform="translate(0 0)">
          <path id="パス_2217" data-name="パス 2217" d="M955.487,213.983c-.777,2.925-3.407,4.766-5.864,4.106a4.354,4.354,0,0,1-2.909-2.8v-.005a28.676,28.676,0,0,1,6.764-7.346A5.378,5.378,0,0,1,955.487,213.983Z" transform="translate(-946.714 -207.942)" fill="#868686"/>
        </g>
      </g>
      <g id="グループ_393" data-name="グループ 393" transform="translate(912.74 172.601)">
        <g id="楕円形_32" data-name="楕円形 32" transform="translate(0 0)">
          <ellipse id="楕円形_105" data-name="楕円形 105" cx="2.282" cy="1.92" rx="2.282" ry="1.92" transform="matrix(0.258, -0.966, 0.966, 0.258, 0, 4.41)" fill="#868686"/>
        </g>
      </g>
      <g id="グループ_394" data-name="グループ 394" transform="translate(957.621 176.572)">
        <g id="パス_1166" data-name="パス 1166" transform="translate(0 0)">
          <path id="パス_2218" data-name="パス 2218" d="M1073.736,233.454a1.874,1.874,0,0,1-.886.222,2.5,2.5,0,0,1,0-4.943,1.742,1.742,0,0,1,.531.079A38.1,38.1,0,0,1,1073.736,233.454Z" transform="translate(-1070.705 -228.732)" fill="#868686"/>
        </g>
      </g>
      <g id="グループ_395" data-name="グループ 395" transform="translate(953.816 177.687)">
        <g id="楕円形_33" data-name="楕円形 33" transform="translate(0 0)">
          <ellipse id="楕円形_106" data-name="楕円形 106" cx="1.315" cy="1.077" rx="1.315" ry="1.077" transform="matrix(0.913, -0.408, 0.408, 0.913, 0, 1.074)" fill="#868686"/>
        </g>
      </g>
      <g id="グループ_396" data-name="グループ 396" transform="translate(901.736 203.921)">
        <g id="パス_1167" data-name="パス 1167" transform="translate(0)">
          <path id="パス_2219" data-name="パス 2219" d="M938.031,307.075a.739.739,0,0,1-.629-1.126c2.344-3.82.9-10.967.885-11.039a.739.739,0,0,1,1.447-.3c.066.316,1.581,7.789-1.072,12.111A.738.738,0,0,1,938.031,307.075Z" transform="translate(-937.293 -294.021)" fill="#000333"/>
        </g>
      </g>
      <g id="グループ_397" data-name="グループ 397" transform="translate(923.18 173.043)">
        <g id="パス_1168" data-name="パス 1168" transform="translate(0 0)">
          <path id="パス_2220" data-name="パス 2220" d="M989.222,240.541a.739.739,0,0,1-.455-1.318c10.487-8.176,10.039-18.06,10.034-18.159a.739.739,0,0,1,1.474-.088c.027.434.532,10.735-10.6,19.414A.732.732,0,0,1,989.222,240.541Z" transform="translate(-988.487 -220.307)" fill="#000333"/>
        </g>
      </g>
      <g id="グループ_398" data-name="グループ 398" transform="translate(952.188 170.935)">
        <g id="パス_1169" data-name="パス 1169">
          <path id="パス_2221" data-name="パス 2221" d="M1057.735,215.275" transform="translate(-1057.735 -215.275)" fill="#333" stroke="#000333" stroke-linecap="round" stroke-linejoin="round" stroke-width="6.291"/>
        </g>
      </g>
      <g id="グループ_401" data-name="グループ 401" transform="translate(907.167 207.861)">
        <g id="楕円形_34" data-name="楕円形 34" transform="translate(0)">
          <ellipse id="楕円形_107" data-name="楕円形 107" cx="3.338" cy="1.594" rx="3.338" ry="1.594" fill="#ffbdad"/>
        </g>
      </g>
      <g id="グループ_402" data-name="グループ 402" transform="translate(940.949 207.861)">
        <g id="楕円形_35" data-name="楕円形 35" transform="translate(0)">
          <ellipse id="楕円形_108" data-name="楕円形 108" cx="3.338" cy="1.594" rx="3.338" ry="1.594" fill="#ffbdad"/>
        </g>
      </g>
      <g id="グループ_1751" data-name="グループ 1751" transform="translate(922.435 210.035)">
        <path id="パス_2222" data-name="パス 2222" d="M991.609,310.7a4.435,4.435,0,0,1-1.852-.62,5.959,5.959,0,0,0-.709-.324,2.525,2.525,0,0,0-1.538.292.549.549,0,0,1-.508-.973,3.545,3.545,0,0,1,2.388-.362,6.578,6.578,0,0,1,.861.387,3.8,3.8,0,0,0,1.358.5,3.672,3.672,0,0,0,1.145-.369,6.669,6.669,0,0,1,.759-.295,3.006,3.006,0,0,1,2.457.579.549.549,0,0,1-.681.86,1.912,1.912,0,0,0-1.472-.385,6.091,6.091,0,0,0-.628.248A4.284,4.284,0,0,1,991.609,310.7Z" transform="translate(-986.707 -308.617)" fill="#000931"/>
      </g>
      <g id="グループ_1752" data-name="グループ 1752" transform="translate(911.299 189.34)">
        <path id="パス_2223" data-name="パス 2223" d="M960.123,259.7s2.045.267,5.51.671a10.6,10.6,0,0,0,6.1-1.156s-2.74,2.73-6.246,2.233A13.741,13.741,0,0,1,960.123,259.7Z" transform="translate(-960.123 -259.212)" fill="#000931"/>
      </g>
      <g id="グループ_1756" data-name="グループ 1756" transform="translate(905.566 191.525)">
        <g id="グループ_1753" data-name="グループ 1753" transform="translate(0.085 1.431)">
          <path id="パス_2224" data-name="パス 2224" d="M960.868,273.682a.836.836,0,0,1-.593-.246c-3.523-3.529-10.124-3.915-12.8-3.917a.838.838,0,0,1,0-1.676h0c3.581,0,10.159.579,13.982,4.409a.838.838,0,0,1-.593,1.43Z" transform="translate(-946.64 -267.844)" fill="#000931"/>
        </g>
        <g id="グループ_1754" data-name="グループ 1754" transform="translate(5.444 0)">
          <path id="パス_2225" data-name="パス 2225" d="M961.905,266.822a5.7,5.7,0,0,1-1.265-2.274.128.128,0,0,0-.2-.1,1.945,1.945,0,0,0-.974,1.862Z" transform="translate(-959.433 -264.427)" fill="#000931"/>
        </g>
        <g id="グループ_1755" data-name="グループ 1755" transform="translate(0 0.439)">
          <path id="パス_2226" data-name="パス 2226" d="M949.065,267.48a5.7,5.7,0,0,1-1.762-1.915.128.128,0,0,0-.218-.047,1.944,1.944,0,0,0-.511,2.038Z" transform="translate(-946.438 -265.474)" fill="#000931"/>
        </g>
      </g>
      <g id="グループ_1757" data-name="グループ 1757" transform="translate(930.502 189.34)">
        <path id="パス_2227" data-name="パス 2227" d="M1017.573,259.7s-2.044.267-5.51.671a10.6,10.6,0,0,1-6.1-1.156s2.74,2.73,6.245,2.233A13.742,13.742,0,0,0,1017.573,259.7Z" transform="translate(-1005.966 -259.212)" fill="#000931"/>
      </g>
      <g id="グループ_1761" data-name="グループ 1761" transform="translate(932.692 191.525)">
        <g id="グループ_1758" data-name="グループ 1758" transform="translate(0 1.431)">
          <path id="パス_2228" data-name="パス 2228" d="M1012.032,273.682a.838.838,0,0,1-.593-1.43c3.824-3.83,10.4-4.406,13.983-4.409h0a.838.838,0,0,1,0,1.676c-2.674,0-9.274.388-12.8,3.917A.835.835,0,0,1,1012.032,273.682Z" transform="translate(-1011.194 -267.844)" fill="#000931"/>
        </g>
        <g id="グループ_1759" data-name="グループ 1759" transform="translate(7.235 0)">
          <path id="パス_2229" data-name="パス 2229" d="M1028.466,266.822a5.7,5.7,0,0,0,1.266-2.274.128.128,0,0,1,.2-.1,1.944,1.944,0,0,1,.974,1.862Z" transform="translate(-1028.466 -264.427)" fill="#000931"/>
        </g>
        <g id="グループ_1760" data-name="グループ 1760" transform="translate(12.523 0.439)">
          <path id="パス_2230" data-name="パス 2230" d="M1041.09,267.48a5.7,5.7,0,0,0,1.763-1.915.127.127,0,0,1,.217-.047,1.943,1.943,0,0,1,.511,2.038Z" transform="translate(-1041.09 -265.474)" fill="#000931"/>
        </g>
      </g>
    </g>
  </g>
</svg>
