<svg xmlns="http://www.w3.org/2000/svg" viewBox="0 0 183.52 178.6"><defs><style>.cls-1{fill:#7b5f32;}.cls-2{fill:#000931;}.cls-3{fill:#fcecda;}.cls-3,.cls-4,.cls-6,.cls-9{stroke:#000931;}.cls-3,.cls-6,.cls-9{stroke-linecap:round;stroke-linejoin:round;}.cls-3,.cls-4{stroke-width:3px;}.cls-4,.cls-6,.cls-9{fill:none;}.cls-4{stroke-miterlimit:10;}.cls-5{fill:#fff;}.cls-6{stroke-width:2px;}.cls-7{fill:#ffbdad;}.cls-8{fill:#000333;}.cls-9{stroke-width:2.62px;}.cls-10{fill:#9ab7d9;}</style></defs><title>boy_bad-face</title><g id="レイヤー_2" data-name="レイヤー 2"><g id="_男_表情パターン_顔だけ_" data-name="【男】表情パターン（顔だけ）"><g id="体調悪い時"><g id="顔"><path class="cls-1" d="M162.43,141.15l6-6.42a7.12,7.12,0,0,0,1.76-2.57,7,7,0,0,0-.16-3.52l-4.31-19.46A46.87,46.87,0,0,1,182,111c-4.59-14.59-11.72-28.24-18.81-41.79A63,63,0,0,1,179.07,80c.69-3-1.11-6-2.84-8.58C167.45,58.25,158.59,45,147.3,34l19.2-3.47c-7.62-2.63-15.94-1.37-24-1.68a4.23,4.23,0,0,1-2.06-.45A4.4,4.4,0,0,1,139,26.18a73.34,73.34,0,0,0-16.77-24.7c2.47,6.93-.15,16.26,0,23.62l-3.46-1.42A232.67,232.67,0,0,0,79,7.59,49.83,49.83,0,0,1,93,25.12c-19.94-3.59-41-4.91-60.08,1.83a59.61,59.61,0,0,0,19.28,7.27c-8.29,3.88-16.48,8.1-23.75,13.67s-13.6,12.55-17.34,20.9a46.3,46.3,0,0,0,14.29-3.7c.47,3.86-1.27,7.6-2.89,11.14-6,13.12-11,26.94-12.15,41.33l8.93-6.49q1.64,10.91,3.15,21.81c1.39.07,3.91-2.16,4.56-3.39Z"/><path class="cls-2" d="M163.49,142.21c3.08-3.29,8.54-7,8.33-12-.29-7-3.13-14.61-4.64-21.43l-1.45,1.9a50.63,50.63,0,0,1,15.88,1.74,1.51,1.51,0,0,0,1.85-1.84c-4.75-14.73-11.81-28.47-19-42.15l-2.06,2A67.09,67.09,0,0,1,178,81,1.52,1.52,0,0,0,180.57,80c.43-4.25-1.74-7.38-4-10.8-2.92-4.38-5.88-8.75-8.93-13A177.79,177.79,0,0,0,148.36,33l-.66,2.51L166.89,32c1.54-.28,1.32-2.49,0-2.89a44.23,44.23,0,0,0-13.09-1.77c-2.61,0-5.22.08-7.83.08-3.67,0-5.12-.75-6.72-4.28a76.27,76.27,0,0,0-16-22.71,1.51,1.51,0,0,0-2.51,1.46c2.29,7.56,0,15.51,0,23.22l1.9-1.45c-6.5-2.66-12.69-6-19.16-8.8A247.64,247.64,0,0,0,79.36,6.14C78,5.72,76.71,7.68,77.9,8.65A52.08,52.08,0,0,1,91.73,25.87l1.69-2.2c-20.23-3.57-41.14-4.86-60.88,1.84a1.52,1.52,0,0,0-.35,2.74,65.38,65.38,0,0,0,19.63,7.42l-.36-2.74C34.74,40.8,18,50.67,9.83,68c-.43.9.06,2.4,1.3,2.25a53.72,53.72,0,0,0,14.69-3.75l-1.9-1.45c.25,5.55-2.76,10.39-4.89,15.33-1.6,3.72-3.1,7.48-4.44,11.31a107.83,107.83,0,0,0-5.71,25.83,1.51,1.51,0,0,0,2.26,1.29l8.93-6.48-2.2-.9q1.62,10.91,3.14,21.81c.12.85,1.14,1.18,1.84,1.05a7.18,7.18,0,0,0,3.23-1.6c.46-.37,2.73-2.28,1-1.74a5,5,0,0,1,1.54.13c2.71.33,5.46.47,8.18.71l31.69,2.73,75.71,6.52,18.25,1.57c1.92.16,1.91-2.84,0-3L43.88,129.44,27,128a1.47,1.47,0,0,0-1.29.74,6.18,6.18,0,0,1-3.67,2.71l1.84,1q-1.51-10.9-3.14-21.8a1.5,1.5,0,0,0-2.2-.9l-8.94,6.48,2.26,1.3a108,108,0,0,1,6.84-28.43c2.83-7.53,8.57-15.73,8.2-24,0-.86-.94-1.84-1.9-1.44a50.58,50.58,0,0,1-13.89,3.64l1.29,2.26c8-16.93,24.27-26.36,40.56-34a1.52,1.52,0,0,0-.36-2.75A62.59,62.59,0,0,1,33.7,25.66l-.36,2.74c19.24-6.53,39.57-5.31,59.28-1.84a1.52,1.52,0,0,0,1.7-2.2A53.94,53.94,0,0,0,80,6.53L78.56,9a238.81,238.81,0,0,1,26.78,9.9c5.53,2.45,10.85,5.32,16.45,7.62a1.51,1.51,0,0,0,1.9-1.45c0-8,2.32-16.15-.06-24l-2.5,1.46a74.46,74.46,0,0,1,10.79,13.28,75,75,0,0,1,3.67,6.55c.95,1.91,1.55,4.45,2.89,6.12,2.18,2.71,6.13,1.94,9.23,1.91,6.24-.07,12.34-.28,18.39,1.59V29.1l-19.2,3.47a1.5,1.5,0,0,0-.66,2.5A167.53,167.53,0,0,1,164,56.2c2.4,3.32,4.72,6.7,7,10.1,2.65,3.92,7,8.65,6.55,13.65l2.56-1.06a70.09,70.09,0,0,0-16.17-11A1.51,1.51,0,0,0,161.91,70c7,13.44,14,26.94,18.65,41.43l1.85-1.85a53,53,0,0,0-16.68-1.85,1.53,1.53,0,0,0-1.45,1.9l3.45,15.56c.85,3.85,1,6.43-1.55,9.81a66.64,66.64,0,0,1-4.81,5.14C160.05,141.49,162.17,143.62,163.49,142.21Z"/><path class="cls-3" d="M95.29,49.33s-61-15.33-59,81.18c-9.46,9.46-10.11,29.35,10.43,28.7,14.35,26.08,78.86,21,94.51,1.74,24.75-1.42,20.91-30,11.09-25.75C165.86,36.48,95.29,49.33,95.29,49.33Z"/><line class="cls-4" x1="46.71" y1="159.21" x2="36.28" y2="130.51"/><path class="cls-1" d="M32.32,125a41.1,41.1,0,0,0,9.72-7.7l5.18,13L65,86.12l6.42,17.21c14.73-13.92,30.94-59,39.06-74.14,0,0-132.11,52.07-72.42,73.42Z"/><path class="cls-1" d="M110.51,29.19c41.34,9.52,51,86.33,51,86.33q-.14,11.28-.07,22.56l-13.08-34.33a89.39,89.39,0,0,1-1.45,16.65c-5.65-15-11.45-30.26-21.54-42.69A138.6,138.6,0,0,0,106.53,99.8q-2.15-9.93-4.31-19.86L79.54,93.33"/><path class="cls-2" d="M159.61,115.52q-.12,11.28-.06,22.56l2.94-.4-13.08-34.33a1.5,1.5,0,0,0-2.94.4A96.3,96.3,0,0,1,145.06,120H148c-5.75-15.25-11.71-30.46-21.93-43.35a1.51,1.51,0,0,0-2.12,0,149,149,0,0,0-19,22.39l2.74.36q-2.14-9.93-4.31-19.86a1.52,1.52,0,0,0-2.2-.9L78.44,92l2,2.06,19.88-33.16-2.59-1.52a324.23,324.23,0,0,1-28,43.16l2.74.36-6.42-17.2a1.52,1.52,0,0,0-2.9,0L45.42,130h2.9l-5.18-13a1.52,1.52,0,0,0-2.51-.66,44.47,44.47,0,0,1-9.42,7.47l2.21,1.69A115.12,115.12,0,0,1,39.19,103c.66-1.81-2.24-2.6-2.9-.79a116.38,116.38,0,0,0-5.77,22.43,1.52,1.52,0,0,0,2.21,1.69,47.81,47.81,0,0,0,10-7.94l-2.5-.66,5.17,13a1.52,1.52,0,0,0,2.9,0L66.13,86.52h-2.9l6.43,17.21a1.52,1.52,0,0,0,2.74.36,325.52,325.52,0,0,0,28-43.16,1.5,1.5,0,0,0-2.59-1.52L77.9,92.57a1.51,1.51,0,0,0,2,2.05l22.68-13.39-2.2-.89q2.16,9.93,4.31,19.86a1.52,1.52,0,0,0,2.74.35A145.49,145.49,0,0,1,126,78.77h-2.12c9.87,12.45,15.6,27.3,21.15,42,.47,1.23,2.62,1.6,2.9,0a102.62,102.62,0,0,0,1.51-17l-2.95.4,13.08,34.33c.57,1.5,3,1.4,3-.4q-.06-11.28.06-22.56c0-1.93-3-1.93-3,0Z"/><path class="cls-2" d="M117.06,124.46s-.54,9,0,11.58,4.85,9.5,9.5,9.5,10.16-5.39,10.3-10.54,0-12.89,0-12.89S120.5,122.24,117.06,124.46Z"/><ellipse class="cls-5" cx="126.87" cy="132.97" rx="1.93" ry="3.3"/><path class="cls-2" d="M132.74,112.33l-24.32-8.49s.61,6.47,21.67,8.49"/><path class="cls-6" d="M111.12,129.61c6.87-8.54,20.84-8.91,33.95-7.87"/><path class="cls-2" d="M75.65,124.46s.54,9,0,11.58-4.85,9.5-9.49,9.5S56,140.15,55.85,135s0-12.89,0-12.89S72.22,122.24,75.65,124.46Z"/><ellipse class="cls-5" cx="65.84" cy="132.97" rx="1.93" ry="3.3"/><path class="cls-2" d="M60,112.33l24.32-8.49s-.6,6.47-21.67,8.49"/><path class="cls-6" d="M81.59,129.61c-6.87-8.54-20.84-8.91-33.95-7.87"/><g id="グループ_370" data-name="グループ 370"><path id="パス_1151" data-name="パス 1151" class="cls-7" d="M96.47,149.17c-3.75,1.23-6.37.68-4.7-1.88s2.87-2.41,5.29-2.3,5.52,3,3.85,4.29S97.87,148.71,96.47,149.17Z"/></g><g id="グループ_371" data-name="グループ 371"><ellipse id="楕円形_27" data-name="楕円形 27" class="cls-8" cx="96.15" cy="149.62" rx="1.04" ry="1.15"/></g><line class="cls-3" x1="141.22" y1="160.95" x2="152.31" y2="135.2"/><path class="cls-9" d="M106.15,164.07s-2.31-1.83-4.69-1.15c-1.36.4-3.41,1.64-4.91,1.64-1.81,0-4.16-1.68-5.7-2.19-2-.64-4.69.78-4.69.78"/></g><path class="cls-10" d="M31.23,37.6S15.17,10.33,3.76,17.22C-5.38,26.85,31.23,37.6,31.23,37.6Z"/><path class="cls-10" d="M24.1,43.06S6.31,29.3.35,36.82C-3.38,45.55,24.1,43.06,24.1,43.06Z"/></g></g></g></svg>