<svg xmlns="http://www.w3.org/2000/svg" width="19.484" height="19.581" viewBox="0 0 19.484 19.581">
  <g id="グループ_886" data-name="グループ 886" transform="translate(-327.758 -619)">
    <g id="グループ_885" data-name="グループ 885">
      <g id="グループ_326" data-name="グループ 326" transform="translate(98.258 -223.919)">
        <g id="グループ_324" data-name="グループ 324" transform="translate(230.499 842.919)">
          <path id="パス_1093" data-name="パス 1093" d="M236.083,850.344a.584.584,0,0,1-.561-.743c.071-.25.676-2.228,2.017-2.668a3.682,3.682,0,0,1,1.824-2.585,2.86,2.86,0,0,1,2.825-.283,3.325,3.325,0,0,1,2.857-1.13,3.521,3.521,0,0,1,2.518,1.221,2.242,2.242,0,0,1,1.957.4,2.673,2.673,0,0,1,1.043,1.869c0,.022,0,.044,0,.065a2.957,2.957,0,0,1,1.547.775,3.04,3.04,0,0,1,.79,2.443.583.583,0,1,1-1.164-.068,1.946,1.946,0,0,0-.444-1.544,2.119,2.119,0,0,0-1.439-.5.584.584,0,0,1-.465-.974,1.361,1.361,0,0,0-.6-1.151,1.223,1.223,0,0,0-1.207-.1.583.583,0,0,1-.8-.292,2.157,2.157,0,0,0-1.848-.982,2.228,2.228,0,0,0-2.1,1.035.583.583,0,0,1-.922.129c-.066-.061-.744-.638-1.952.088a2.434,2.434,0,0,0-1.3,2.051.583.583,0,0,1-.582.614c-.668,0-1.267,1.311-1.438,1.909A.583.583,0,0,1,236.083,850.344Zm13.326-3.743h0Z" transform="translate(-235.499 -842.919)" fill="#fc6f6f"/>
        </g>
        <g id="グループ_325" data-name="グループ 325" transform="translate(229.5 851.01)">
          <path id="パス_1094" data-name="パス 1094" d="M243.072,902.991h-7.66a.583.583,0,0,1-.537-.809l.489-1.161a9.773,9.773,0,0,1-5.863-8.938.583.583,0,0,1,.583-.583H248.4a.583.583,0,0,1,.583.583,9.773,9.773,0,0,1-5.863,8.938l.489,1.161a.583.583,0,0,1-.537.809Zm-6.783-1.166h5.9l-.379-.9a.583.583,0,0,1,.339-.775,8.6,8.6,0,0,0,5.643-7.485H230.686a8.6,8.6,0,0,0,5.643,7.485.583.583,0,0,1,.339.775Z" transform="translate(-229.5 -891.5)" fill="#fc6f6f"/>
        </g>
      </g>
    </g>
  </g>
</svg>
