<svg xmlns="http://www.w3.org/2000/svg" width="18.957" height="19.849" viewBox="0 0 18.957 19.849">
  <g id="グループ_884" data-name="グループ 884" transform="translate(-196.146 -618.401)">
    <g id="グループ_323" data-name="グループ 323" transform="translate(164.146 -345.948)">
      <path id="パス_1092" data-name="パス 1092" d="M41.976,984.2A9.976,9.976,0,0,1,40.5,964.356a.6.6,0,0,1,.627.867,8.676,8.676,0,0,0-.93,3.936,8.774,8.774,0,0,0,10.068,8.674.6.6,0,0,1,.627.867A9.934,9.934,0,0,1,41.976,984.2Zm-2.4-18.413a8.771,8.771,0,1,0,9.672,13.346q-.14,0-.279,0a9.986,9.986,0,0,1-9.392-13.35Z" transform="translate(0 0)" fill="#4f69be"/>
    </g>
  </g>
</svg>
