<svg xmlns="http://www.w3.org/2000/svg" width="40.001" height="49.01" viewBox="0 0 40.001 49.01">
  <g id="グループ_15" data-name="グループ 15" transform="translate(-40 -725.99)">
    <path id="交差_2" data-name="交差 2" d="M-4301.81,63.125a9.256,9.256,0,0,1,9.062-7.374h8.1v-.867a2.6,2.6,0,0,1,.2-1.01A19.954,19.954,0,0,1-4302,34.065a19.951,19.951,0,0,1,19.951-19.951A19.951,19.951,0,0,1-4262.1,34.065a19.953,19.953,0,0,1-17.552,19.808,2.613,2.613,0,0,1,.2,1.01v.867h8.385A9.257,9.257,0,0,1-4262,63.125Z" transform="translate(4342 711.876)" fill="#2e2e2e"/>
  </g>
</svg>
