<svg xmlns="http://www.w3.org/2000/svg" width="13" height="35.573" viewBox="0 0 13 35.573">
  <g id="グループ_888" data-name="グループ 888" transform="translate(-333 -735.464)">
    <g id="グループ_887" data-name="グループ 887">
      <g id="グループ_332" data-name="グループ 332" transform="translate(-564.5 49.464)">
        <g id="グループ_327" data-name="グループ 327" transform="translate(897.5 693.445)">
          <path id="パス_1095" data-name="パス 1095" d="M906.127,745.627a2.246,2.246,0,0,0-4.255,0,2.248,2.248,0,0,1-2.245-2.245V731.564a1.536,1.536,0,0,1-2.127-1.418V720.1a2.6,2.6,0,0,1,2.6-2.6h7.8a2.6,2.6,0,0,1,2.6,2.6v10.045a1.536,1.536,0,0,1-2.127,1.418v11.818A2.248,2.248,0,0,1,906.127,745.627Zm-2.955-13.945h1.655v11.7a1.3,1.3,0,1,0,2.6,0V730.146h.945a.591.591,0,0,0,1.182,0V720.1a1.658,1.658,0,0,0-1.655-1.655h-7.8a1.658,1.658,0,0,0-1.655,1.655v10.045a.591.591,0,0,0,1.182,0h.945v13.236a1.3,1.3,0,0,0,2.6,0Z" transform="translate(-897.5 -717.5)" fill="#fff"/>
        </g>
        <g id="グループ_328" data-name="グループ 328" transform="translate(901.771 696.301)">
          <path id="パス_1096" data-name="パス 1096" d="M919.807,729.8c-.8-.6-1.891.236-1.891.236s-1.089-.838-1.891-.236c-.945.709-.473,2.836,1.891,4.018C920.28,732.634,920.752,730.507,919.807,729.8Z" transform="translate(-915.568 -729.58)" fill="#fff"/>
        </g>
        <g id="グループ_329" data-name="グループ 329" transform="translate(900.455 686)">
          <path id="パス_1097" data-name="パス 1097" d="M913.545,693.091a3.545,3.545,0,1,1,3.545-3.545A3.55,3.55,0,0,1,913.545,693.091Zm0-6.146a2.6,2.6,0,1,0,2.6,2.6A2.6,2.6,0,0,0,913.545,686.945Z" transform="translate(-910 -686)" fill="#fff"/>
        </g>
        <g id="グループ_330" data-name="グループ 330" transform="translate(907.443 700.891)">
          <rect id="長方形_167" data-name="長方形 167" width="0.945" height="5.374" transform="translate(0 0)" fill="#fff"/>
        </g>
        <g id="グループ_331" data-name="グループ 331" transform="translate(899.643 700.891)">
          <rect id="長方形_168" data-name="長方形 168" width="0.945" height="5.374" transform="translate(0 0)" fill="#fff"/>
        </g>
      </g>
    </g>
  </g>
</svg>
