<svg xmlns="http://www.w3.org/2000/svg" width="11.401" height="15.244" viewBox="0 0 11.401 15.244">
  <g id="グループ_1033" data-name="グループ 1033" transform="translate(-34.801 -1218.3)">
    <g id="グループ_294" data-name="グループ 294" transform="translate(34.801 1218.3)">
      <g id="グループ_291" data-name="グループ 291" transform="translate(0 3.461)">
        <path id="パス_1064" data-name="パス 1064" d="M811.648,257.523c-.165,1.023-.829,4.417-2.394,5.2a3.051,3.051,0,0,1-3.575-.572,2.764,2.764,0,0,1-1.991.972,2.491,2.491,0,0,1-.293-.019c-.623-.078-1.246-.905-1.851-2.461-.892-2.28-1.758-6.544-.293-8.275a2.2,2.2,0,0,1,2.518-.887,1.624,1.624,0,0,0,.594.066,5,5,0,0,1,.936-.2c.02,0,.041-.007.061-.009a.426.426,0,0,1,.412.2c-.08.2-.153.408-.223.626a.407.407,0,0,1-.09.02c-.165.019-.325.046-.473.077a3.36,3.36,0,0,0-.383.1c-.017.005-.034.01-.051.014a2.29,2.29,0,0,1-.968-.066,1.39,1.39,0,0,0-1.683.6c-.747.883-.907,3.519.228,6.852.6,1.773,1.2,2.454,1.373,2.491a2.1,2.1,0,0,0,1.8-1,.425.425,0,0,1,.7-.024,2.3,2.3,0,0,0,2.869.72c.778-.388,1.555-2.227,1.936-4.576.373-2.3.2-4.063-.175-4.441a1.546,1.546,0,0,0-1.646-.339,2.082,2.082,0,0,1-1.1.017,1.042,1.042,0,0,1-.276-.15.962.962,0,0,0-.237-.126.361.361,0,0,1-.083-.046,3.5,3.5,0,0,1,.005-.7.424.424,0,0,1,.391-.043c.042.017.083.034.122.053a1.864,1.864,0,0,1,.311.185c.122.092.39.039.7-.02a2.385,2.385,0,0,1,2.411.57C812.031,253.14,811.956,255.631,811.648,257.523Z" transform="translate(-800.464 -251.342)" fill="#52b264"/>
      </g>
      <g id="グループ_292" data-name="グループ 292" transform="translate(3.494 4.934)">
        <path id="パス_1065" data-name="パス 1065" d="M826.282,260.527a4.424,4.424,0,0,0-.861-.24,3.651,3.651,0,0,0-.832-.054,3.5,3.5,0,0,0-1.9.655,2.144,2.144,0,0,0-.422-.4,3.2,3.2,0,0,0-.439-.279,1.6,1.6,0,0,0-.57-.211.255.255,0,0,0-.014.51c.18.036,1.011.48,1.133.846a.252.252,0,0,0,.184.168.222.222,0,0,0,.058.007.251.251,0,0,0,.18-.075,3.132,3.132,0,0,1,3.3-.453.255.255,0,1,0,.184-.476Z" transform="translate(-821 -260)" fill="#52b264"/>
      </g>
      <g id="グループ_293" data-name="グループ 293" transform="translate(4.279 0)">
        <path id="パス_1066" data-name="パス 1066" d="M830.56,232.941a.255.255,0,0,1-.26.1,1.353,1.353,0,0,0-.931.187,1.656,1.656,0,0,0-.633,1.142c-.024.131-.043.252-.053.364a2.125,2.125,0,0,0,.077,1.016c.08.2.192.284.281.3a.243.243,0,0,1,.206.175.236.236,0,0,1,.01.109.257.257,0,0,1-.257.223l-.032,0a.849.849,0,0,1-.534-.356.265.265,0,0,1-.019-.029,1.586,1.586,0,0,1-.25-.745,3.5,3.5,0,0,1,.005-.7c.014-.141.034-.289.063-.446a2.141,2.141,0,0,1,.859-1.479,1.751,1.751,0,0,1,.822-.279l-.526-.944a5.078,5.078,0,0,0-2.748,3.092c-.08.2-.153.408-.223.626-.088.272-.167.556-.24.856a1.207,1.207,0,0,1-.087.281.227.227,0,0,1-.15.117.256.256,0,0,1-.294-.374c0-.007,0-.014.005-.022.009-.031.019-.071.031-.121.053-.22.111-.434.172-.64.094-.32.2-.624.313-.912a5.439,5.439,0,0,1,3.259-3.459.254.254,0,0,1,.3.117l.851,1.531A.253.253,0,0,1,830.56,232.941Z" transform="translate(-825.61 -231.002)" fill="#52b264"/>
      </g>
      <circle id="楕円形_20" data-name="楕円形 20" cx="0.681" cy="0.681" r="0.681" transform="translate(1.953 9.689)" fill="#52b264"/>
      <circle id="楕円形_21" data-name="楕円形 21" cx="0.297" cy="0.297" r="0.297" transform="translate(2.847 11.434)" fill="#52b264"/>
    </g>
  </g>
</svg>
