<svg xmlns="http://www.w3.org/2000/svg" width="22.215" height="22.215" viewBox="0 0 22.215 22.215">
  <g id="グループ_883" data-name="グループ 883" transform="translate(-62.073 -617.072)">
    <g id="グループ_322" data-name="グループ 322" transform="translate(198.253 276.252)">
      <g id="グループ_313" data-name="グループ 313" transform="translate(-130.947 346.053)">
        <path id="パス_1083" data-name="パス 1083" d="M-99.126,383.749A5.881,5.881,0,0,1-105,377.874,5.881,5.881,0,0,1-99.126,372a5.881,5.881,0,0,1,5.874,5.874A5.881,5.881,0,0,1-99.126,383.749Zm0-10.406a4.537,4.537,0,0,0-4.532,4.532,4.537,4.537,0,0,0,4.532,4.532,4.537,4.537,0,0,0,4.532-4.532A4.537,4.537,0,0,0-99.126,373.343Z" transform="translate(105 -372)" fill="#ffb100"/>
      </g>
      <g id="グループ_314" data-name="グループ 314" transform="translate(-125.658 340.82)">
        <path id="パス_1084" data-name="パス 1084" d="M-72.905,344.908a.586.586,0,0,1-.586-.586v-2.917a.586.586,0,0,1,.586-.586.586.586,0,0,1,.586.586v2.917A.586.586,0,0,1-72.905,344.908Z" transform="translate(73.491 -340.82)" fill="#ffb100"/>
      </g>
      <g id="グループ_315" data-name="グループ 315" transform="translate(-133.098 343.902)">
        <path id="パス_1085" data-name="パス 1085" d="M-115.17,362.416a.585.585,0,0,1-.414-.172l-2.062-2.062a.586.586,0,0,1,0-.829.586.586,0,0,1,.829,0l2.062,2.062a.586.586,0,0,1,0,.829A.585.585,0,0,1-115.17,362.416Z" transform="translate(117.818 -359.182)" fill="#ffb100"/>
      </g>
      <g id="グループ_316" data-name="グループ 316" transform="translate(-136.18 351.341)">
        <path id="パス_1086" data-name="パス 1086" d="M-132.677,404.681h-2.917a.586.586,0,0,1-.586-.586.586.586,0,0,1,.586-.586h2.917a.586.586,0,0,1,.586.586A.586.586,0,0,1-132.677,404.681Z" transform="translate(136.18 -403.509)" fill="#ffb100"/>
      </g>
      <g id="グループ_317" data-name="グループ 317" transform="translate(-133.098 356.719)">
        <path id="パス_1087" data-name="パス 1087" d="M-117.232,438.783a.584.584,0,0,1-.414-.172.586.586,0,0,1,0-.829l2.062-2.062a.586.586,0,0,1,.829,0,.586.586,0,0,1,0,.829l-2.062,2.062A.584.584,0,0,1-117.232,438.783Z" transform="translate(117.818 -435.549)" fill="#ffb100"/>
      </g>
      <g id="グループ_318" data-name="グループ 318" transform="translate(-125.658 358.946)">
        <path id="パス_1088" data-name="パス 1088" d="M-72.905,452.908a.586.586,0,0,1-.586-.586v-2.917a.586.586,0,0,1,.586-.586.586.586,0,0,1,.586.586v2.917A.586.586,0,0,1-72.905,452.908Z" transform="translate(73.491 -448.82)" fill="#ffb100"/>
      </g>
      <g id="グループ_319" data-name="グループ 319" transform="translate(-120.281 356.719)">
        <path id="パス_1089" data-name="パス 1089" d="M-38.8,438.783a.584.584,0,0,1-.414-.172l-2.062-2.062a.586.586,0,0,1,0-.829.586.586,0,0,1,.829,0l2.062,2.062a.586.586,0,0,1,0,.829A.584.584,0,0,1-38.8,438.783Z" transform="translate(41.451 -435.549)" fill="#ffb100"/>
      </g>
      <g id="グループ_320" data-name="グループ 320" transform="translate(-118.054 351.341)">
        <path id="パス_1090" data-name="パス 1090" d="M-24.677,404.681h-2.917a.586.586,0,0,1-.586-.586.586.586,0,0,1,.586-.586h2.917a.586.586,0,0,1,.586.586A.586.586,0,0,1-24.677,404.681Z" transform="translate(28.18 -403.509)" fill="#ffb100"/>
      </g>
      <g id="グループ_321" data-name="グループ 321" transform="translate(-120.281 343.902)">
        <path id="パス_1091" data-name="パス 1091" d="M-40.865,362.416a.585.585,0,0,1-.414-.172.586.586,0,0,1,0-.829l2.062-2.062a.586.586,0,0,1,.829,0,.586.586,0,0,1,0,.829l-2.062,2.062A.585.585,0,0,1-40.865,362.416Z" transform="translate(41.451 -359.182)" fill="#ffb100"/>
      </g>
    </g>
  </g>
</svg>
