<svg xmlns="http://www.w3.org/2000/svg" viewBox="0 0 246.74 128.66"><defs><style>.cls-1{fill:#a49d86;}.cls-2{fill:#908972;}.cls-3{fill:#5b4221;}.cls-4{fill:#ffd400;}.cls-5{fill:#ffde00;}.cls-6{fill:#f0b800;}</style></defs><title>アセット 3</title><g id="レイヤー_2" data-name="レイヤー 2"><g id="レイヤー_1-2" data-name="レイヤー 1"><path class="cls-1" d="M245.3,45.43c.16,2.09-1.49,11.49-6,13.75-11.24,5.6-22.53,11.12-33.8,16.69l-81.75,40.36c-6.41,3.16-13.09,7.46-20,9.2a68.44,68.44,0,0,1-19.68,2.42c-6.78-.31-14.27-5.5-20.34-8.27l-44-20.12c-4.42-2-15-11.91-17.57-16-4.36-7,7.91-2.92,12-4.69L29.86,72l85.79-36.95,27.89-12c8.38-3.62,18-15.16,27.39-12.86,6.92,1.69,13.8,12.65,20.37,15.37l34.27,14.2C231,42,244.88,39.68,245.3,45.43Z"/><path class="cls-2" d="M231.85,55.92c-10.52,5.25-21.08,10.41-31.63,15.61L123.73,109.3c-6,3-12.25,7-18.7,8.61a64.35,64.35,0,0,1-18.42,2.27c-6.35-.29-12.83-2.6-18.51-5.2-13.72-6.27-35.94-16.81-49.67-23.09C14.3,90,5.34,83.2,3,79.4c-1.74.4-2.44,1.47-.81,4.09,2.54,4.06,13.15,13.94,17.57,16l44,20.12c6.07,2.77,13.56,8,20.34,8.27a68.44,68.44,0,0,0,19.68-2.42c6.9-1.74,13.58-6,20-9.2l81.75-40.36c11.27-5.57,22.56-11.09,33.8-16.69,4.46-2.23,6.12-11.33,6-13.63C241.52,49.25,234.8,54.45,231.85,55.92Z"/><path class="cls-3" d="M246.69,45.05a1.27,1.27,0,0,1-.07-.12.67.67,0,0,0-.06-.12c-2.08-4.92-8.44-4.55-13.1-4.87C219.86,39,201.78,30,189.88,23.4c-8.15-4.51-11.57-13.58-21.61-14.49-8.87-.8-18.27,9.67-25.35,13.33-27.67,14.31-58,25-86.59,37.29L33.75,69.26c-6.74,2.9-15.73,8.63-23.14,9C9.11,78.34.46,77,0,80.38c-.67,5.43,6.78,10.5,10.32,13.74C19,102,30.48,105.69,40.93,110.47,63,120.57,83.61,135.73,108.47,125c30.22-13.1,59.48-29.41,89-44C211.63,74,225.79,67,239.91,60c4.85-2.41,6.56-9.5,6.78-14.45A.69.69,0,0,0,246.69,45.05ZM12.41,80.24c5.87-.3,12.77-5.08,18.07-7.36L66.6,57.32l69.59-30a104.3,104.3,0,0,0,20.05-11.23c15.8-11.2,22.24,3.77,34,10.28,9.35,5.18,20.38,8.47,30.26,12.56,4.38,1.82,19.73,2.39,22.94,6.09a.52.52,0,0,0-.12.17c-3.38,8.36-18.48,13-25.62,16.57q-15.8,7.79-31.58,15.57c-22.21,11-44.62,21.6-66.63,33-14,7.23-27.87,11.22-43.44,6.56-7.94-2.37-15.58-6.75-23.07-10.25C37.85,99.6,17.49,93.71,6,80.83A25.77,25.77,0,0,1,12.41,80.24ZM221.77,66.7,187.65,83.52c-22.81,11.26-45.82,22.19-68.42,33.87-12.51,6.47-27,12.5-41.31,7.84-10.45-3.39-21-10.07-31-14.65C36.3,105.72,24,101.77,14.84,94.51A74.91,74.91,0,0,1,4.55,84.42a2.35,2.35,0,0,1-.77-2c11.89,13,32.27,18.92,47.6,26.08,18.72,8.75,37.33,18,58.11,9,28-12.12,55-27.2,82.35-40.7,13.55-6.68,27.11-13.33,40.63-20.06,3.36-1.67,7.8-4.13,10.79-7.26C240.65,58.86,230.23,62.53,221.77,66.7Z"/><path class="cls-4" d="M198.37,23.21c5.54,13,3.83,28.78-5.25,37.24-7.35,4.34-16.92,11.06-26,9.69-8.94-1.34-16.84-6.49-24.15-11.48-13.35-9.11-22.4-15.36-18.25-35.21,3.89-18.64,30-24,37.73-23.4C173.25.9,193.21,11.16,198.37,23.21Z"/><path class="cls-3" d="M199.75,22.84c-17-32.83-77.42-30.91-77.41,11.39,0,19.4,31.84,36.31,48.14,36.82,8.56.26,20.59-7,26.05-12.86C205.15,48.86,203.77,33.71,199.75,22.84ZM153.81,64.18c-12.36-6.4-27.12-15.74-28.7-30.7-2-18.84,14.22-29.37,30.61-32.26,15.17-2.67,34.41,9.15,41.26,22.36A42.08,42.08,0,0,1,198.72,49C194.3,67.38,168.38,71.73,153.81,64.18Z"/><path class="cls-5" d="M157,67.79c6,2.23,12.37,3.36,16.47-1,7-7.5,8.95-23.8,2.84-31.92-4.85-6.44-10.85-12-18-15.06-22.74-9.93-30.43-6.44-32.77.36-1.9,5.51-10,22.43,7.61,34.82C135.81,56.81,152.61,66.17,157,67.79Z"/><path class="cls-3" d="M180.54,40.66c-3.57-17.43-30.9-29.48-46.9-28-11,1.05-13.46,16.89-12.81,25.48,1.21,16.06,22.49,25.33,35.37,30.6,7.64,2.53,14.37,3.39,19.87-3.28S182.17,48.65,180.54,40.66ZM157.77,66.81a140.31,140.31,0,0,1-23.52-12.68c-12.7-8.37-11.81-21.33-7.33-33.78,4.93-13.71,30.93-.15,37.89,4.7,6.43,4.48,11.86,11,13.45,18.74C181,57,173.1,71.89,157.77,66.81Z"/><path class="cls-6" d="M129.28,26.8c-4.46,15.72,11.7,25.64,23.65,31.84.69.36,3.26-.69,2.24-1.22-11.54-6-27.48-15.74-23.13-31,.23-.81-2.53-.41-2.76.42Z"/><path class="cls-6" d="M136.24,25.62c.67-7.43,15.79.75,18.88,2.45,6.43,3.53,12,10.5,13.09,17.77.16,1.12,2.95.45,2.77-.74C169.35,34.18,159.82,27,150.21,23.16c-4.77-1.92-16-5.7-16.76,2.74-.12,1.29,2.69.82,2.79-.28Z"/><path class="cls-6" d="M161.59,60.91a10.89,10.89,0,0,0,11.14-9c.17-.94-2.61-.45-2.76.39-.54,3-3.06,7.44-6.65,7.21a2.91,2.91,0,0,0-2,.53c-.41.32-.36.81.23.85Z"/><path class="cls-6" d="M154.06,35.34c3.65,2.77,7.08,6.43,8.43,10.9,1.15,3.78-1,7.08-5.14,6.71a14.83,14.83,0,0,1-6.64-2.27c-.64-.41-2.93.72-2.62.92,4.22,2.75,12.2,4.13,16-.08,5.09-5.57-3.24-13.92-7.43-17.1-.59-.45-3,.66-2.62.92Z"/><path class="cls-6" d="M153.61,46.2c-4.63-2.34-9.23-5-12.35-9.21-1.59-2.17-2.46-5.17.1-7a6.36,6.36,0,0,1,6.73.13c.77.49,3.33-.63,2.21-1.35-3.85-2.45-10.93-1.36-13.05,3-1.47,3,1.41,6.51,3.31,8.54,2.94,3.17,7,5.3,10.85,7.22.81.41,3.36-.77,2.2-1.35Z"/><path class="cls-4" d="M156.06,40.63c5.55,13,3.84,28.78-5.24,37.24-7.35,4.34-16.93,11.06-26,9.7S108,81.07,100.66,76.08C87.31,67,78.25,60.72,82.41,40.87c3.89-18.64,30-24,37.72-23.4C131,18.32,150.91,28.58,156.06,40.63Z"/><path class="cls-3" d="M157.45,40.26C140.44,7.43,80,9.35,80,51.65c0,19.4,31.85,36.32,48.14,36.82,8.57.27,20.59-7,26-12.86C162.86,66.28,161.47,51.13,157.45,40.26ZM111.51,81.6c-12.35-6.4-27.12-15.74-28.7-30.7-2-18.84,14.23-29.37,30.62-32.26C128.59,16,147.83,27.79,154.68,41a42,42,0,0,1,1.74,25.38C152,84.8,126.08,89.15,111.51,81.6Z"/><path class="cls-5" d="M114.69,85.22c6,2.22,12.37,3.35,16.47-1,7-7.5,9-23.81,2.84-31.92-4.84-6.44-10.85-12-18-15.06-22.73-9.93-30.43-6.44-32.77.36-1.89,5.51-10,22.43,7.61,34.82C93.51,74.24,110.32,83.59,114.69,85.22Z"/><path class="cls-3" d="M138.24,58.08c-3.57-17.43-30.9-29.48-46.9-27.95-11,1-13.46,16.88-12.8,25.48C79.75,71.67,101,80.92,113.91,86.2c7.63,2.53,14.37,3.39,19.86-3.28S139.88,66.07,138.24,58.08ZM115.48,84.23A140.8,140.8,0,0,1,92,71.55c-12.7-8.37-11.81-21.32-7.33-33.78,4.93-13.71,30.93-.14,37.89,4.71,6.43,4.47,11.87,11,13.45,18.73C138.66,74.4,130.8,89.3,115.48,84.23Z"/><path class="cls-6" d="M87,44.21c-4.47,15.73,11.7,25.65,23.64,31.85.69.36,3.26-.69,2.24-1.21-11.55-6-27.47-15.75-23.13-31,.23-.81-2.52-.41-2.75.41Z"/><path class="cls-6" d="M94,43c.67-7.43,15.79.75,18.88,2.45,6.43,3.53,12,10.5,13.08,17.77.17,1.12,3,.45,2.77-.74-1.63-10.92-11.15-18.09-20.77-21.94-4.77-1.91-16-5.7-16.75,2.74C91,44.61,93.85,44.14,94,43Z"/><path class="cls-6" d="M119.29,78.33a10.88,10.88,0,0,0,11.14-9c.17-.94-2.61-.45-2.76.4-.54,3-3.06,7.43-6.65,7.21a2.85,2.85,0,0,0-2,.52c-.41.33-.36.82.23.85Z"/><path class="cls-6" d="M111.76,52.76c3.65,2.78,7.09,6.43,8.43,10.89,1.15,3.79-1,7.09-5.14,6.72a14.83,14.83,0,0,1-6.64-2.27c-.64-.41-2.93.72-2.61.93,4.22,2.73,12.19,4.11,16-.09,5.07-5.57-3.25-13.92-7.44-17.1-.59-.45-3,.66-2.62.92Z"/><path class="cls-6" d="M111.32,63.62c-4.64-2.34-9.23-4.95-12.36-9.21-1.59-2.17-2.45-5.17.11-7a6.36,6.36,0,0,1,6.73.13c.76.49,3.33-.63,2.2-1.35-3.85-2.45-10.93-1.36-13,3-1.47,3,1.4,6.51,3.3,8.54,2.95,3.17,7,5.3,10.85,7.22.82.41,3.36-.77,2.21-1.35Z"/><path class="cls-4" d="M117.37,60.92c6.26,12.71,5.3,28.28-3.53,36.65-7.25,4.31-16.66,11-26,9.68C78.72,106,70.44,101,62.77,96.09c-14-8.88-23.53-15-20.27-34.53,3-18.35,29.34-23.78,37.21-23.23C90.76,39.11,111.54,49.09,117.37,60.92Z"/><path class="cls-3" d="M118.75,60.55s-.06-.06-.08-.09,0-.06,0-.08c-17.54-30.21-80.17-31.63-78,11.79.49,9.78,8.3,16.08,15.7,21.15,10.54,7.22,21.89,14.49,35,14.81,6.81.17,19.49-5.73,23.82-10.53C124.7,87,124.19,73.1,118.75,60.55Zm-9,38.57c-12.42,7.53-23.51,8.21-35.66,2.34-12.65-6.12-28.32-15.07-30.69-30C40.17,51.12,60.15,39.81,77.78,39.08c13.83-.57,31.41,10.67,38.22,22.26,3.56,8.24,4.77,16,3,24.9A19.19,19.19,0,0,1,109.75,99.12Z"/><path class="cls-5" d="M77.48,105c6.22,2.16,12.73,3.24,16.69-1.09,6.79-7.42,7.94-23.47,1.34-31.41-5.25-6.31-11.62-11.71-19-14.72-23.59-9.64-31.24-6.15-33.28.55-1.67,5.42-9.08,22.11,9.42,34.19C55.42,94.32,73,103.42,77.48,105Z"/><path class="cls-3" d="M100.26,78.71C96.36,62,66.82,47.75,50.74,51,40.25,53.1,38.42,66.42,39.18,75.44,40.58,91.86,63.62,101,76.69,106c5.64,1.75,14.2,4,18.66-1.62C101.17,97,102.35,87.7,100.26,78.71Zm-22,25.3c-8.2-3.15-16.19-7.52-23.8-11.88C41.67,84.8,40,72.23,44.24,59.52,49,45.31,73.31,57,81.54,61.74,89.26,66.15,96,73.26,98.08,82,101.06,94.82,93.22,108.65,78.26,104Z"/><path class="cls-6" d="M47.33,64.82C43.41,80.68,61,90.23,72.9,96c.7.34,3.26-.73,2.24-1.22-11.49-5.56-28.86-15-25.06-30.39.21-.84-2.54-.41-2.75.41Z"/><path class="cls-6" d="M54.32,63.64c.31-7.13,15.46.39,18.3,1.78C79.7,68.9,86.15,75.5,87.82,83.34c.24,1.14,3,.42,2.77-.74C88.22,71.43,78.28,65.08,68.44,61.12c-4.52-1.82-16.54-5.64-16.91,2.79-.06,1.32,2.75.82,2.79-.27Z"/><path class="cls-6" d="M82.11,98.23a10.43,10.43,0,0,0,10.58-8.92c.13-1-2.64-.44-2.76.39C89.49,93,87,97,83.22,96.81c-.94,0-3,1.31-1.11,1.42Z"/><path class="cls-6" d="M72.92,73.1c3.85,2.7,7.65,6.32,9.18,10.88,1.05,3.14-.41,6.48-4,6.47a15.76,15.76,0,0,1-7.79-2.25c-.66-.4-2.91.74-2.61.92,3.91,2.37,12.39,4.25,16,.17,5.22-5.94-3.55-13.93-8.09-17.12-.62-.43-3,.69-2.62.93Z"/><path class="cls-6" d="M73,83.77c-4.84-2.28-9.71-4.83-13.1-9.1-1.61-2-2.71-4.94-.19-6.72,2-1.38,4.91-1.07,6.87.09.79.46,3.34-.68,2.2-1.35-4-2.38-11.13-1.36-13.2,3.2C54.2,73,58,76.75,59.93,78.53,63,81.39,67,83.33,70.81,85.12c.82.39,3.36-.8,2.2-1.35Z"/></g></g></svg>