<svg xmlns="http://www.w3.org/2000/svg" width="42.001" height="34.909" viewBox="0 0 42.001 34.909">
  <g id="グループ_14" data-name="グループ 14" transform="translate(-38.999 -639.166)">
    <g id="レイヤー_2" data-name="レイヤー 2" transform="translate(38.492 638.664)">
      <g id="レイヤー_1" data-name="レイヤー 1" transform="translate(1.508 1.5)">
        <path id="パス_2" data-name="パス 2" d="M41.509,6.808A10.409,10.409,0,0,0,29.665,8.04,14.285,14.285,0,0,0,21.5,4.766H20.281a14.325,14.325,0,0,0-8.169,3.266A12.481,12.481,0,0,0,1.9,1.5s0,8.983,5.722,10.207C-.955,21.918-.955,29.513,10.479,31.96c.819,2.451,1.633,2.451,1.633,2.451a2.9,2.9,0,0,0,2.451-1.633H27.222a2.9,2.9,0,0,0,2.447,1.633s.819,0,1.637-2.451c11.43-2.447,11.43-10.042,2.857-20.253C40.69,10.892,41.509,6.808,41.509,6.808Z" transform="translate(-1.508 -1.5)" fill="#fff" stroke="#2e2e2e" stroke-linejoin="round" stroke-width="2"/>
        <path id="パス_3" data-name="パス 3" d="M44.071,33.68s-.219-4.122-7.35-4.08h-.8c-6.819-.042-7.35,4.08-7.35,4.08C28.24,38,44.273,38,44.071,33.68Z" transform="translate(-17.15 -17.743)" fill="#fff" stroke="#2e2e2e" stroke-linecap="round" stroke-linejoin="round" stroke-width="1"/>
        <rect id="長方形_82" data-name="長方形 82" width="1.962" height="0.979" rx="0.489" transform="translate(15.504 16.409) rotate(-80)" fill="#2e2e2e"/>
        <rect id="長方形_83" data-name="長方形 83" width="0.979" height="1.962" rx="0.489" transform="translate(21.518 14.649) rotate(-10)" fill="#2e2e2e"/>
      </g>
    </g>
  </g>
</svg>
