<svg id="グループ_295" data-name="グループ 295" xmlns="http://www.w3.org/2000/svg" width="19.438" height="12.684" viewBox="0 0 19.438 12.684">
  <g id="グループ_300" data-name="グループ 300" transform="translate(0 1.986)">
    <path id="パス_1071" data-name="パス 1071" d="M875.971,270.578l-.191,0a13.286,13.286,0,0,1-2.3-.239.366.366,0,0,1-.214-.591,5.955,5.955,0,0,0,.748-1.189,9.366,9.366,0,0,1-1.47,1.4.379.379,0,0,1-.334.056,7.119,7.119,0,0,1-2.835-1.567.366.366,0,0,1,0-.5l.627-.681-1.307-.436a.366.366,0,0,1-.227-.477,8.131,8.131,0,0,1,7.994-4.716c5,.149,7.7,2.317,8.519,3.1,2.084-1.941,2.546-1.663,2.724-1.556a.366.366,0,0,1,.164.415,14.24,14.24,0,0,0-.513,2.446,17.311,17.311,0,0,0,.515,2.63.366.366,0,0,1-.489.433,8.963,8.963,0,0,1-2.435-1.41C883.868,268.322,879.762,270.578,875.971,270.578Zm-1.773-.862a13,13,0,0,0,1.6.128c4.141.084,8.972-2.9,9.02-2.93a.366.366,0,0,1,.483.086,5.386,5.386,0,0,0,1.679,1.124,12.211,12.211,0,0,1-.358-2.084,10.438,10.438,0,0,1,.363-1.988,14.074,14.074,0,0,0-1.763,1.462.372.372,0,0,1-.271.1.367.367,0,0,1-.26-.127c-.025-.029-2.618-2.953-8.251-3.122a7.341,7.341,0,0,0-7.128,3.894l1.459.486a.366.366,0,0,1,.154.6l-.755.82a7.282,7.282,0,0,0,2.089,1.091c.56-.451,2.465-2.126,2.465-4.047a.366.366,0,0,1,.732-.023A8,8,0,0,1,874.2,269.716Z" transform="translate(-868.438 -261.628)" fill="#5fb1e3"/>
  </g>
  <g id="グループ_301" data-name="グループ 301" transform="translate(6.818 10.582)">
    <path id="パス_1072" data-name="パス 1072" d="M905.665,309.339a9.655,9.655,0,0,0,4.391-.615c1.844-.878-2.9,1.932-3.689,1.932S905.665,309.339,905.665,309.339Z" transform="translate(-905.662 -308.554)" fill="#5fb1e3"/>
  </g>
  <g id="グループ_302" data-name="グループ 302" transform="translate(5.595 0)">
    <path id="パス_1073" data-name="パス 1073" d="M898.984,252.62s.7-1.918,1.682-1.833,7.335,2.051,7.376,2.488l-.254.681A12.592,12.592,0,0,0,898.984,252.62Z" transform="translate(-898.984 -250.785)" fill="#5fb1e3"/>
  </g>
  <g id="グループ_303" data-name="グループ 303" transform="translate(2.957 4.596)">
    <path id="パス_1074" data-name="パス 1074" d="M885.329,277.372a.747.747,0,1,1,.746-.746A.747.747,0,0,1,885.329,277.372Zm0-1.054a.307.307,0,1,0,.307.307A.308.308,0,0,0,885.329,276.318Z" transform="translate(-884.582 -275.879)" fill="#5fb1e3"/>
  </g>
</svg>
