<svg id="グループ_308" data-name="グループ 308" xmlns="http://www.w3.org/2000/svg" width="14.175" height="14.243" viewBox="0 0 14.175 14.243">
  <g id="グループ_304" data-name="グループ 304" transform="translate(0 2.443)">
    <path id="パス_1075" data-name="パス 1075" d="M689.587,390.3c-3.908,0-7.087-2.647-7.087-5.9s3.179-5.9,7.087-5.9,7.087,2.647,7.087,5.9S693.5,390.3,689.587,390.3Zm0-10.909c-3.417,0-6.2,2.247-6.2,5.009s2.78,5.009,6.2,5.009,6.2-2.247,6.2-5.009S693,379.391,689.587,379.391Z" transform="translate(-682.5 -378.5)" fill="#e6b821"/>
  </g>
  <g id="グループ_305" data-name="グループ 305" transform="translate(6.828 2.591)">
    <rect id="長方形_163" data-name="長方形 163" width="0.445" height="1.633" transform="translate(0)" fill="#e6b821"/>
  </g>
  <g id="グループ_306" data-name="グループ 306" transform="translate(6.382 3.63)">
    <ellipse id="楕円形_22" data-name="楕円形 22" cx="0.742" cy="0.445" rx="0.742" ry="0.445" transform="translate(0 0)" fill="#e6b821"/>
  </g>
  <g id="グループ_307" data-name="グループ 307" transform="translate(6.953 0)">
    <path id="パス_1076" data-name="パス 1076" d="M729.343,364.633a5.08,5.08,0,0,1,2.621-2.449,6.669,6.669,0,0,1,3.562.3s-.445,3.562-6.085,2.82Z" transform="translate(-729.343 -362.041)" fill="#e6b821"/>
  </g>
</svg>
