<?xml version="1.0" encoding="utf-8"?>
<!-- Generator: Adobe Illustrator 23.0.4, SVG Export Plug-In . SVG Version: 6.00 Build 0)  -->
<svg version="1.1" id="レイヤー_1" xmlns="http://www.w3.org/2000/svg" xmlns:xlink="http://www.w3.org/1999/xlink" x="0px"
	 y="0px" viewBox="0 0 116.8 110.1" style="enable-background:new 0 0 116.8 110.1;" xml:space="preserve">
<style type="text/css">
	.st0{fill:#FFFFFF;stroke:#2E2E2E;stroke-width:3;stroke-linejoin:round;}
	.st1{fill:#FFFFFF;stroke:#2E2E2E;stroke-width:2;stroke-linecap:round;stroke-linejoin:round;}
	.st2{fill:#2E2E2E;}
	.st3{enable-background:new    ;}
	.st4{fill:#52B2A2;}
	.st5{fill:#D56D76;}
</style>
<title>logo</title>
<g>
	<g id="レイヤー_1-2">
		<path class="st0" d="M103.1,14.1c0,0-14.5-8.7-28.1,2.9c-9.7-7.8-19.4-7.8-19.4-7.8h-2.9c0,0-9.7,0-19.4,7.7
			C28.6,8,19.4,2.1,9.2,1.5c0,0,0,21.3,13.5,24.2c-20.3,24.2-20.3,42.2,6.8,48c1.9,5.8,3.9,5.8,3.9,5.8c2.5-0.1,4.7-1.6,5.8-3.9h30
			c1.1,2.2,3.3,3.7,5.8,3.9c0,0,1.9,0,3.9-5.8c27.1-5.8,27.1-23.8,6.8-48C101.2,23.8,103.1,14.1,103.1,14.1z"/>
		<path class="st1" d="M72.1,39.3c0,0-0.5-9.8-17.4-9.7h-1.9c-16.2-0.1-17.4,9.7-17.4,9.7C34.6,49.5,72.6,49.5,72.1,39.3z"/>
		<path class="st2" d="M45.3,39.3l0.4-2.3c0.1-0.6,0.7-1.1,1.3-0.9l0,0c0.6,0.1,1.1,0.7,0.9,1.3l-0.4,2.3c-0.1,0.6-0.7,1.1-1.3,0.9
			l0,0C45.6,40.5,45.1,39.9,45.3,39.3z"/>
		<path class="st2" d="M60.5,36L60.5,36c0.6-0.1,1.2,0.3,1.3,0.9l0.4,2.3c0.1,0.6-0.3,1.2-0.9,1.3l0,0c-0.6,0.1-1.2-0.3-1.3-0.9
			l-0.4-2.3C59.4,36.7,59.8,36.1,60.5,36z"/>
		<g class="st3">
			<path class="st4" d="M19.6,104.4l0.1,2.1l-18.3,0.6L1.4,105l7.9-0.3v-4L4.1,101L4,98.9l5.3-0.3v-3.7l-3.8,0.3l-0.1-1.7l-2,4.2
				l-2-0.9L5,89.1l2,0.9l-1.4,3.1l3.8-0.3v-4.4h2.2v4.2l6.9-0.5l0.1,2.1l-7,0.5v3.7l5.8-0.3l0.1,2.1l-5.9,0.3v4.1L19.6,104.4z"/>
		</g>
		<g class="st3">
			<path class="st4" d="M26.5,95.6l-1,1.8l-3.8-2.2l1-1.8L26.5,95.6z M22.4,106.9l3.4-7.6l1.9,0.8l-3.4,7.6L22.4,106.9z M27.9,91.5
				l-1.2,1.7l-3.4-2.4l1.2-1.7L27.9,91.5z M35.3,99.6l3.6-0.3l1.1,1.1l-0.6,7.2l-2.1-0.2l0.1-1l-6,0.3l0.1,1l-2.1,0.2l-0.7-8
				l2.1-0.2l0.4,5.1l6.3-0.3l0.3-3.2l-6.2,0.4l-0.1-1.9l1.6-0.1v-3.2l-5.7,0.4L27.3,95l5.8-0.4v-2.9l-4,0.8l-0.4-1.9l10.5-2l0.4,1.9
				l-4.3,0.8v3.2L41,94l0.1,1.9l-5.9,0.4V99.6z"/>
		</g>
		<g class="st3">
			<path class="st4" d="M42.9,89.5h2.4v10.7h-2.4V89.5z M47.7,107l4.5-18.1l2.4,0.6L50,107.5L47.7,107z"/>
		</g>
		<g class="st3">
			<path class="st4" d="M72.8,90.3l1,2l-13.2,14.6l-1.7-1.6l11.2-12.5l-9,0.8l-0.2-2.3L72.8,90.3z M67.8,100.5l1.5-1.8l7.2,6.1
				l-1.5,1.8L67.8,100.5z M75.9,91.1l-1.3,0.7l-1.4-2.6l1.3-0.7L75.9,91.1z M76.9,88.1l1.4,2.6L77,91.4l-1.4-2.6L76.9,88.1z"/>
		</g>
		<g class="st3">
			<path class="st4" d="M96.8,105.4l-2,1.3l-2-3.1l-12.5,2.9l-1.3-1.7l8.2-15.4l2.1,1.1l-7.1,13.2l9.3-2.1l-2.4-3.7l2-1.3
				L96.8,105.4z"/>
		</g>
		<g class="st3">
			<path class="st5" d="M115.1,101.8l1,1.2l-4.7,4l-1.2-0.5l-0.8-4.8l-2.5,0.9l-2.2,4.4l-1.3-0.7l5.7-11.1l1.3,0.7l-2.5,5l1.9-0.7
				l1,0.6l0.7,4.3L115.1,101.8z"/>
		</g>
		<g class="st3">
			<path class="st5" d="M108.1,92.1l-3.9,0.7l1.6,3.1l-0.7,1l-3-0.2l0.1-1.3l1.7,0.1l-1.3-2.5l-6.4,1.1L96,92.8l5.9-1l-1.3-2.6
				l1.4-0.7l1.5,3l4.3-0.8L108.1,92.1z M98.1,98.4l0.5-1.4l6.2,2.4l-0.5,1.4L98.1,98.4z"/>
		</g>
	</g>
</g>
</svg>
