<svg xmlns="http://www.w3.org/2000/svg" width="136.654" height="113.161" viewBox="0 0 136.654 113.161">
  <g id="グループ_883" data-name="グループ 883" transform="translate(-146.581 -390.92)">
    <g id="グループ_290" data-name="グループ 290" transform="translate(126.381 376.42)">
      <g id="グループ_285" data-name="グループ 285" transform="translate(20.2 14.5)">
        <path id="パス_1060" data-name="パス 1060" d="M154.161,33.576s-20.28-12.168-39.207,4.056c-13.521-10.816-27.04-10.816-27.04-10.816H83.858s-13.521,0-27.04,10.816C44.65,16,23.018,16,23.018,16s0,29.743,18.929,33.8c-28.392,33.8-28.392,58.946,9.464,67.058,2.7,8.111,5.408,8.111,5.408,8.111a9.6,9.6,0,0,0,8.111-5.408h41.911a9.607,9.607,0,0,0,8.113,5.408s2.7,0,5.408-8.111c37.854-8.113,37.854-33.26,9.464-67.058C151.457,47.1,154.161,33.576,154.161,33.576Z" transform="translate(-19.601 -13.904)" fill="none"/>
        <path id="パス_1061" data-name="パス 1061" d="M115.551,127.661a11.671,11.671,0,0,1-9.332-5.408H66.75a11.671,11.671,0,0,1-9.332,5.408c-1.21,0-4.232-.847-7-8.413C34.584,115.639,24.859,108.855,21.5,99.075,17.33,86.915,23.19,70.918,38.92,51.5c-17.192-6.654-17.4-33.687-17.4-34.9a2.1,2.1,0,0,1,2.1-2.1,42.922,42.922,0,0,1,34.4,20.632c13.262-9.7,25.886-9.816,26.441-9.816h4.057c.563,0,13.536.12,27,10.229,19.465-15.366,40.113-3.3,40.323-3.171a2.1,2.1,0,0,1,.977,2.209c-.115.578-2.917,13.452-22.449,17.3C149.856,71.131,155.61,87,151.465,99.075c-3.356,9.781-13.081,16.565-28.912,20.173C119.783,126.814,116.76,127.661,115.551,127.661ZM25.813,18.866c.462,6.758,3.023,26.449,17.171,29.481a2.1,2.1,0,0,1,1.165,3.4c-16,19.053-22.465,34.95-18.683,45.971,2.927,8.529,12,14.482,26.981,17.691A2.1,2.1,0,0,1,54,116.791c1.707,5.123,3.255,6.4,3.673,6.663a7.529,7.529,0,0,0,5.984-4.233,2.1,2.1,0,0,1,1.875-1.158H107.44a2.1,2.1,0,0,1,1.875,1.158,7.527,7.527,0,0,0,5.984,4.232c.422-.265,1.968-1.545,3.673-6.661a2.1,2.1,0,0,1,1.549-1.386c14.976-3.209,24.054-9.162,26.98-17.691,3.782-11.021-2.678-26.918-18.681-45.971a2.1,2.1,0,0,1,1.345-3.427C145.954,46.342,150.844,38.5,152.22,35.2c-4.8-2.311-20.4-8.156-35.3,4.619a2.1,2.1,0,0,1-2.674.045c-12.73-10.184-25.605-10.356-25.734-10.356H84.456c-.124,0-13,.172-25.729,10.356a2.118,2.118,0,0,1-1.709.422,2.1,2.1,0,0,1-1.426-1.031A39.7,39.7,0,0,0,25.813,18.866Z" transform="translate(-20.2 -14.5)" fill="#fff"/>
      </g>
      <g id="グループ_289" data-name="グループ 289" transform="translate(58.663 54.45)">
        <g id="グループ_286" data-name="グループ 286">
          <path id="パス_1062" data-name="パス 1062" d="M100.122,57.617S99.4,43.962,75.787,44.1h-2.7C50.5,43.962,48.747,57.617,48.747,57.617,47.709,71.9,100.8,71.9,100.122,57.617Z" transform="translate(-47.335 -42.699)" fill="none"/>
          <path id="パス_1063" data-name="パス 1063" d="M74.712,70.164c-8.662,0-17.3-1.569-22.329-4.7-4.1-2.547-4.781-5.514-4.633-7.555.087-.685,2.213-14.946,25.738-14.816h3.055c24.31,0,25.34,14.236,25.373,14.845v.007c.1,2.091-.7,5.122-5.074,7.687C91.693,68.658,83.191,70.164,74.712,70.164ZM73.158,45.89c-20.806,0-22.613,12.178-22.629,12.3-.126,1.773.991,3.449,3.329,4.9,8.917,5.542,32.227,5.618,41.569.131,2.538-1.491,3.783-3.217,3.7-5.134-.042-.58-1.143-12.2-22.592-12.2H73.158Z" transform="translate(-47.732 -43.096)" fill="#fff"/>
        </g>
        <g id="グループ_287" data-name="グループ 287" transform="translate(14.979 10.089)">
          <rect id="長方形_156" data-name="長方形 156" width="6.49" height="3.245" rx="1.161" transform="translate(0 6.391) rotate(-80)" fill="#fff"/>
        </g>
        <g id="グループ_288" data-name="グループ 288" transform="translate(34.898 10.089)">
          <rect id="長方形_157" data-name="長方形 157" width="3.245" height="6.49" rx="1.161" transform="translate(0 0.563) rotate(-10)" fill="#fff"/>
        </g>
      </g>
    </g>
  </g>
</svg>
