<svg xmlns="http://www.w3.org/2000/svg" width="18.451" height="47.787" viewBox="0 0 18.451 47.787">
  <g id="グループ_282" data-name="グループ 282" transform="translate(-67.5 -672.106)">
    <g id="グループ_30" data-name="グループ 30" transform="translate(-75.274 428.993)">
      <circle id="楕円形_1" data-name="楕円形 1" cx="9.159" cy="9.159" r="9.159" transform="translate(142.774 243.114)" fill="#d8d8d8"/>
      <rect id="長方形_1" data-name="長方形 1" width="2.389" height="3.053" rx="1.195" transform="translate(150.739 260.636)" fill="#d8d8d8"/>
      <path id="合体_1" data-name="合体 1" d="M11.62,27.069V19.713a5.772,5.772,0,0,1-5.108,0v7.356a1.6,1.6,0,0,1-3.206,0V17.123h.606a5.736,5.736,0,0,1-.606-2.574V5.76a5.76,5.76,0,0,1,11.52,0v8.789a5.735,5.735,0,0,1-.606,2.574h.606v9.946a1.6,1.6,0,0,1-3.206,0Zm3.506-13.54V3.584h3.2V13.53a1.6,1.6,0,1,1-3.2,0ZM0,13.53V3.584H3.206V13.53A1.6,1.6,0,1,1,0,13.53Z" transform="translate(142.834 262.228)" fill="#d8d8d8"/>
      <path id="長方形_6" data-name="長方形 6" d="M4.248,0H9.292a0,0,0,0,1,0,0V4.248a0,0,0,0,1,0,0H0a0,0,0,0,1,0,0v0A4.248,4.248,0,0,1,4.248,0Z" transform="translate(142.774 262.228)" fill="#d8d8d8"/>
      <path id="長方形_7" data-name="長方形 7" d="M0,0H5.044A4.248,4.248,0,0,1,9.292,4.248v0a0,0,0,0,1,0,0H0a0,0,0,0,1,0,0V0A0,0,0,0,1,0,0Z" transform="translate(151.934 262.228)" fill="#d8d8d8"/>
    </g>
  </g>
</svg>
