<svg xmlns="http://www.w3.org/2000/svg" width="142.999" height="175.083" viewBox="0 0 142.999 175.083">
  <g id="グループ_886" data-name="グループ 886" transform="translate(-131 -277)">
    <g id="合体_6" data-name="合体 6" transform="translate(131 277)" fill="none">
      <path d="M67.636,50.9H5a5,5,0,0,1-5-5V5A5,5,0,0,1,5,0H138a5,5,0,0,1,5,5V45.9a5,5,0,0,1-5,5H76.516L72.076,59Z" stroke="none"/>
      <path d="M 72.07637786865234 54.83938980102539 L 74.76246643066406 49.93984985351562 L 75.33182525634766 48.90130996704102 L 76.51620483398438 48.90130996704102 L 137.9997100830078 48.90130996704102 C 139.6536254882812 48.90130996704102 140.9992065429688 47.55572891235352 140.9992065429688 45.90180969238281 L 140.9992065429688 5.000410079956055 C 140.9992065429688 3.345990180969238 139.6536254882812 2.000010251998901 137.9997100830078 2.000010251998901 L 4.999503135681152 2.000010251998901 C 3.345583200454712 2.000010251998901 2.000003337860107 3.345990180969238 2.000003337860107 5.000410079956055 L 2.000003337860107 45.90180969238281 C 2.000003337860107 47.55572891235352 3.345583200454712 48.90130996704102 4.999503135681152 48.90130996704102 L 67.63616180419922 48.90130996704102 L 68.82046508789062 48.90130996704102 L 69.38984680175781 49.93975067138672 L 72.07637786865234 54.83938980102539 M 72.07649993896484 58.99951171875 L 67.63616180419922 50.90130996704102 L 4.999503135681152 50.90130996704102 C 2.238303184509277 50.90130996704102 3.271484274591785e-06 48.66300964355469 3.271484274591785e-06 45.90180969238281 L 3.271484274591785e-06 5.000410079956055 C 3.271484274591785e-06 2.238310098648071 2.238303184509277 1.013732889987295e-05 4.999503135681152 1.013732889987295e-05 L 137.9997100830078 1.013732889987295e-05 C 140.7609100341797 1.013732889987295e-05 142.9992065429688 2.238310098648071 142.9992065429688 5.000410079956055 L 142.9992065429688 45.90180969238281 C 142.9992065429688 48.66300964355469 140.7609100341797 50.90130996704102 137.9997100830078 50.90130996704102 L 76.51620483398438 50.90130996704102 L 72.07649993896484 58.99951171875 Z" stroke="none" fill="#fff"/>
    </g>
    <g id="グループ_290" data-name="グループ 290" transform="translate(120.416 334.417)">
      <g id="グループ_285" data-name="グループ 285" transform="translate(20.2 14.5)">
        <path id="パス_1060" data-name="パス 1060" d="M142.461,32.024s-18.488-11.093-35.744,3.7c-12.326-9.861-24.651-9.861-24.651-9.861h-3.7s-12.326,0-24.651,9.861A37.677,37.677,0,0,0,22.9,16s0,27.116,17.257,30.815c-25.884,30.813-25.884,53.739,8.628,61.135,2.465,7.395,4.93,7.395,4.93,7.395a8.756,8.756,0,0,0,7.395-4.93H99.322a8.758,8.758,0,0,0,7.4,4.93s2.465,0,4.93-7.395c34.511-7.4,34.511-30.322,8.628-61.135C140,44.349,142.461,32.024,142.461,32.024Z" transform="translate(-19.787 -14.09)" fill="none"/>
        <path id="パス_1061" data-name="パス 1061" d="M107.129,117.666a10.64,10.64,0,0,1-8.508-4.93H62.638a10.64,10.64,0,0,1-8.508,4.93c-1.1,0-3.858-.772-6.382-7.67-14.434-3.29-23.3-9.475-26.359-18.391-3.8-11.086,1.537-25.669,15.879-43.377C21.593,42.161,21.4,17.516,21.4,16.41a1.91,1.91,0,0,1,1.91-1.91,39.13,39.13,0,0,1,31.36,18.809c12.091-8.843,23.6-8.949,24.105-8.949h3.7c.513,0,12.34.11,24.616,9.326,17.746-14.009,36.57-3.007,36.761-2.891a1.912,1.912,0,0,1,.89,2.014c-.1.527-2.659,12.264-20.466,15.775C138.4,66.129,143.65,80.593,139.871,91.6c-3.059,8.917-11.925,15.1-26.358,18.391C110.987,116.894,108.231,117.666,107.129,117.666ZM25.317,18.48c.422,6.161,2.756,24.113,15.654,26.877a1.91,1.91,0,0,1,1.062,3.1C27.443,65.823,21.554,80.316,25,90.364c2.668,7.776,10.944,13.2,24.6,16.128a1.91,1.91,0,0,1,1.412,1.263c1.556,4.67,2.968,5.833,3.348,6.074a6.864,6.864,0,0,0,5.455-3.859,1.913,1.913,0,0,1,1.709-1.056H99.734a1.91,1.91,0,0,1,1.709,1.056,6.862,6.862,0,0,0,5.455,3.858c.385-.242,1.795-1.409,3.348-6.073a1.91,1.91,0,0,1,1.412-1.263c13.653-2.926,21.93-8.353,24.6-16.128,3.448-10.048-2.442-24.541-17.031-41.911a1.91,1.91,0,0,1,1.227-3.124c14.395-1.8,18.853-8.951,20.107-11.957-4.374-2.107-18.6-7.436-32.185,4.211a1.914,1.914,0,0,1-2.438.041c-11.605-9.285-23.343-9.442-23.461-9.442H78.78c-.113,0-11.851.157-23.457,9.442a1.931,1.931,0,0,1-1.558.385,1.911,1.911,0,0,1-1.3-.94A36.191,36.191,0,0,0,25.317,18.48Z" transform="translate(-20.2 -14.5)" fill="#fff"/>
      </g>
      <g id="グループ_289" data-name="グループ 289" transform="translate(55.266 50.921)">
        <g id="グループ_286" data-name="グループ 286">
          <path id="パス_1062" data-name="パス 1062" d="M95.583,56.422S94.925,43.974,73.4,44.1H70.932c-20.585-.124-22.186,12.325-22.186,12.325C47.8,69.447,96.2,69.447,95.583,56.422Z" transform="translate(-47.458 -42.822)" fill="none"/>
          <path id="パス_1063" data-name="パス 1063" d="M72.329,67.773c-7.9,0-15.772-1.43-20.357-4.281-3.736-2.322-4.358-5.027-4.223-6.888.079-.624,2.017-13.625,23.464-13.507H74c22.163,0,23.1,12.978,23.132,13.534v.006c.089,1.907-.639,4.669-4.626,7.008C87.81,66.4,80.059,67.773,72.329,67.773Zm-1.416-22.13c-18.968,0-20.615,11.1-20.631,11.216-.115,1.616.9,3.145,3.035,4.469,8.13,5.053,29.381,5.121,37.9.12,2.314-1.359,3.449-2.933,3.373-4.681-.038-.529-1.042-11.124-20.6-11.124H70.912Z" transform="translate(-47.732 -43.096)" fill="#fff"/>
        </g>
        <g id="グループ_287" data-name="グループ 287" transform="translate(13.656 9.198)">
          <rect id="長方形_156" data-name="長方形 156" width="5.916" height="2.958" rx="1.161" transform="translate(0 5.826) rotate(-80)" fill="#fff"/>
        </g>
        <g id="グループ_288" data-name="グループ 288" transform="translate(31.816 9.198)">
          <rect id="長方形_157" data-name="長方形 157" width="2.958" height="5.916" rx="1.161" transform="translate(0 0.514) rotate(-10)" fill="#fff"/>
        </g>
      </g>
    </g>
    <text id="Thank_you_" data-name="Thank you!" transform="translate(148 310)" fill="#fff" font-size="22" font-family="Roboto-Medium, Roboto" font-weight="500"><tspan x="0" y="0">Thank you!</tspan></text>
  </g>
</svg>
