<svg xmlns="http://www.w3.org/2000/svg" xmlns:xlink="http://www.w3.org/1999/xlink" width="33" height="56" viewBox="0 0 33 56">
  <defs>
    <clipPath id="clip-path">
      <rect id="長方形_208" data-name="長方形 208" width="33" height="56" transform="translate(140 666)" fill="#fff" stroke="#707070" stroke-width="1"/>
    </clipPath>
  </defs>
  <g id="マスクグループ_7" data-name="マスクグループ 7" transform="translate(-140 -666)" clip-path="url(#clip-path)">
    <g id="ノーマル" transform="translate(-2501.806 796.588)">
      <g id="体" transform="translate(2643.042 -105.347)">
        <g id="下半身" transform="translate(4.255 29.772)">
          <g id="グループ_1033" data-name="グループ 1033" transform="translate(2.684)">
            <g id="グループ_1032" data-name="グループ 1032">
              <path id="パス_1612" data-name="パス 1612" d="M2691.705,249.756s1.308,10.952,1.588,13.968c.264,2.846,2.456,18.739,2.456,18.739h3.156l1.247-26.566.046.429v-7.139Z" transform="translate(-2691.705 -249.187)" fill="#111"/>
            </g>
          </g>
          <g id="グループ_1035" data-name="グループ 1035" transform="translate(11.214)">
            <g id="グループ_1034" data-name="グループ 1034">
              <path id="パス_1613" data-name="パス 1613" d="M2760.016,249.756s-1.308,10.952-1.588,13.968c-.264,2.846-2.456,18.739-2.456,18.739h-3.155l-1.247-26.566-.046.429v-7.139Z" transform="translate(-2751.523 -249.187)" fill="#111"/>
            </g>
          </g>
          <g id="グループ_1036" data-name="グループ 1036" transform="translate(0 32.464)">
            <path id="パス_1614" data-name="パス 1614" d="M2674.015,481.177h8.414a.613.613,0,0,0,.614-.613v-3.107l-5.961-.594q-.173-.017-.347-.017h0a3.872,3.872,0,0,0-3.489,2.192l-.25.518A1.131,1.131,0,0,0,2674.015,481.177Z" transform="translate(-2672.883 -476.846)"/>
          </g>
          <g id="グループ_1037" data-name="グループ 1037" transform="translate(12.139 32.464)">
            <path id="パス_1615" data-name="パス 1615" d="M2767.035,481.177h-8.414a.613.613,0,0,1-.613-.613v-3.107l5.961-.594c.115-.011.231-.017.346-.017h0a3.872,3.872,0,0,1,3.489,2.192l.249.518A1.131,1.131,0,0,1,2767.035,481.177Z" transform="translate(-2758.008 -476.846)"/>
          </g>
        </g>
        <g id="上半身" transform="translate(0 0)">
          <g id="グループ_1038" data-name="グループ 1038" transform="translate(1.42 24.754)">
            <path id="パス_1616" data-name="パス 1616" d="M2654.558,216.829s-.286,1.163.443,1.3a26.247,26.247,0,0,0,3.35,0l1.509-2.256-1.978-.382Z" transform="translate(-2654.288 -215.279)" fill="#2c4e88"/>
            <path id="パス_1617" data-name="パス 1617" d="M2654.914,217.12a8.1,8.1,0,0,1-1.244-.065.748.748,0,0,1-.5-.336,1.8,1.8,0,0,1-.106-1.227.212.212,0,0,1,.127-.147l3.323-1.336a.21.21,0,0,1,.12-.012l1.979.382a.214.214,0,0,1,.137.329l-1.509,2.256a.215.215,0,0,1-.167.095C2657,217.062,2655.885,217.12,2654.914,217.12Zm-1.46-1.422a1.272,1.272,0,0,0,.072.79.319.319,0,0,0,.223.146,24.155,24.155,0,0,0,3.192,0l1.27-1.9-1.6-.309Z" transform="translate(-2652.997 -213.993)" fill="#000931"/>
          </g>
          <g id="グループ_1039" data-name="グループ 1039" transform="translate(3.273 25.791)">
            <path id="パス_1618" data-name="パス 1618" d="M2667.511,224.426s-.258,4.112,1.8,4.242l-.14-2.892,1.258,1.163.844-4.169Z" transform="translate(-2667.285 -222.556)" fill="#fcecda"/>
            <path id="パス_1619" data-name="パス 1619" d="M2668.016,227.595H2668c-2.244-.142-2.01-4.292-2-4.469a.214.214,0,0,1,.127-.182l3.76-1.656a.214.214,0,0,1,.3.238l-.845,4.169a.214.214,0,0,1-.355.115l-.874-.808.115,2.369a.214.214,0,0,1-.213.224Zm-1.591-4.314a9.442,9.442,0,0,0,.132,1.9c.209,1.13.623,1.784,1.232,1.949l-.127-2.629a.214.214,0,0,1,.359-.167l.979.9.687-3.391Z" transform="translate(-2665.992 -221.27)" fill="#000931"/>
          </g>
          <g id="グループ_1040" data-name="グループ 1040" transform="translate(4.35 3.133)">
            <path id="パス_1620" data-name="パス 1620" d="M2693.629,63.377a6.947,6.947,0,0,1,.747.5,8.759,8.759,0,0,1,1.162,4.357c-.174,1.631.438,18.846.438,18.846s.246,2.651-1.811,2.929-15.061-1.028-15.061-1.028-4.321-2.95-4.53-5.987.592-12.781.592-12.781l2.115-5.763,3.54-1.074Z" transform="translate(-2674.398 -63.234)" fill="#2c4e88"/>
            <path id="パス_1621" data-name="パス 1621" d="M2692.429,89.334c-3.52,0-13.716-1.02-14.194-1.068a.144.144,0,0,1-.066-.024c-.178-.122-4.381-3.024-4.591-6.1-.207-3.013.584-12.7.592-12.8a.142.142,0,0,1,.008-.037l2.115-5.763a.143.143,0,0,1,.093-.087l3.54-1.074a.141.141,0,0,1,.041-.006h12.807a.142.142,0,0,1,.072.02,6.894,6.894,0,0,1,.769.517,8.684,8.684,0,0,1,1.21,4.48c-.171,1.6.433,18.653.439,18.826a4.31,4.31,0,0,1-.139,1.4,2.1,2.1,0,0,1-1.795,1.671A7.415,7.415,0,0,1,2692.429,89.334ZM2678.3,87.986c.77.077,13.028,1.292,14.991,1.025a1.813,1.813,0,0,0,1.556-1.459,4.079,4.079,0,0,0,.131-1.315c-.025-.711-.611-17.251-.438-18.874a8.778,8.778,0,0,0-1.114-4.235,6.332,6.332,0,0,0-.692-.466h-12.747l-3.452,1.047-2.084,5.678c-.04.489-.791,9.813-.59,12.74C2674.055,84.932,2677.923,87.721,2678.3,87.986Z" transform="translate(-2673.543 -62.377)" fill="#000931"/>
          </g>
          <g id="グループ_1041" data-name="グループ 1041" transform="translate(25.237 5.22)">
            <path id="パス_1622" data-name="パス 1622" d="M2820.017,77.007" transform="translate(-2820.017 -77.007)" fill="#2c4e88" stroke="#000931" stroke-linecap="round" stroke-linejoin="round" stroke-width="3"/>
          </g>
          <g id="グループ_1042" data-name="グループ 1042" transform="translate(21.305 10.625)">
            <path id="パス_1623" data-name="パス 1623" d="M2792.443,114.912" transform="translate(-2792.443 -114.912)" fill="#2c4e88" stroke="#000931" stroke-linecap="round" stroke-linejoin="round" stroke-width="3"/>
          </g>
          <g id="グループ_1043" data-name="グループ 1043" transform="translate(0 4.589)">
            <path id="パス_1624" data-name="パス 1624" d="M2653.9,78.908l-.594,3.559v9.058s-4.008,3.332-4.5,3.722-3.045.442-3.592.338-.667-1.747-.667-1.747c.317-1.984,1.266-4.552,1.474-8.717s1.681-9,3.5-10.487l2.527-.55,1.5,1.822" transform="translate(-2644.328 -73.872)" fill="#2c4e88"/>
            <path id="パス_1625" data-name="パス 1625" d="M2644.784,94.56a5.794,5.794,0,0,1-.9-.051c-.657-.125-.81-1.518-.841-1.942a.21.21,0,0,1,0-.049c.1-.617.254-1.275.434-2.037a34.384,34.384,0,0,0,1.038-6.657c.252-5.039,2.016-9.368,3.576-10.642a.214.214,0,0,1,.09-.043l2.527-.55a.212.212,0,0,1,.21.073l1.5,1.822a.214.214,0,0,1-.33.272l-1.416-1.721-2.348.511c-1.654,1.4-3.166,6-3.381,10.3a34.758,34.758,0,0,1-1.049,6.733c-.176.743-.327,1.387-.423,1.981.055.694.268,1.486.492,1.529a9.076,9.076,0,0,0,3.419-.3c.449-.354,3.862-3.19,4.422-3.655V81.18a.243.243,0,0,1,0-.035l.594-3.559a.214.214,0,0,1,.422.07l-.591,3.542v9.041a.213.213,0,0,1-.077.164c-.164.136-4.016,3.338-4.507,3.726a4.069,4.069,0,0,1-1.9.4C2645.424,94.55,2645.086,94.56,2644.784,94.56Z" transform="translate(-2643.042 -72.584)" fill="#000931"/>
          </g>
          <g id="グループ_1044" data-name="グループ 1044" transform="translate(24.221 24.754)">
            <path id="パス_1626" data-name="パス 1626" d="M2819.7,216.829s.286,1.163-.443,1.3a26.247,26.247,0,0,1-3.35,0l-1.509-2.256,1.978-.382Z" transform="translate(-2814.183 -215.279)" fill="#2c4e88"/>
            <path id="パス_1627" data-name="パス 1627" d="M2816.765,217.12c-.971,0-2.086-.058-2.157-.062a.214.214,0,0,1-.167-.095l-1.509-2.256a.214.214,0,0,1,.137-.329l1.978-.382a.211.211,0,0,1,.121.012l3.323,1.336a.212.212,0,0,1,.128.147,1.8,1.8,0,0,1-.106,1.227.75.75,0,0,1-.5.336A8.106,8.106,0,0,1,2816.765,217.12Zm-2.027-.484a24.148,24.148,0,0,0,3.192,0,.319.319,0,0,0,.224-.147,1.286,1.286,0,0,0,.072-.789l-3.157-1.27-1.6.309Z" transform="translate(-2812.897 -213.993)" fill="#000931"/>
          </g>
          <g id="グループ_1045" data-name="グループ 1045" transform="translate(23.954 25.792)">
            <path id="パス_1628" data-name="パス 1628" d="M2816.281,224.426s.526,4.112-1.53,4.242l-.128-2.892-1.127,1.536-.976-4.541Z" transform="translate(-2812.307 -222.556)" fill="#fcecda"/>
            <path id="パス_1629" data-name="パス 1629" d="M2813.465,227.6a.214.214,0,0,1-.214-.2l-.1-2.285-.768,1.046a.214.214,0,0,1-.381-.082l-.976-4.542a.214.214,0,0,1,.3-.241l3.76,1.656a.214.214,0,0,1,.126.169c.014.112.338,2.743-.632,3.918a1.5,1.5,0,0,1-1.1.565Zm-.128-3.32a.211.211,0,0,1,.062.009.213.213,0,0,1,.151.2l.118,2.655a1.076,1.076,0,0,0,.577-.376c.746-.9.6-2.957.55-3.473l-3.264-1.437.788,3.667.846-1.152A.214.214,0,0,1,2813.337,224.276Z" transform="translate(-2811.02 -221.27)" fill="#000931"/>
          </g>
          <g id="グループ_1046" data-name="グループ 1046" transform="translate(21.573 3.54)">
            <path id="パス_1630" data-name="パス 1630" d="M2795.891,72.6l.594,3.559v9.058s4.009,3.332,4.5,3.722,3.046.442,3.593.338.935-1.734.935-1.734c-.29-2.228-1.534-4.565-1.742-8.73s-1.68-9-3.5-10.487l-2.527-1.6-1.927.917" transform="translate(-2795.608 -66.513)" fill="#2c4e88"/>
            <path id="パス_1631" data-name="パス 1631" d="M2802.433,88.252c-.3,0-.639-.01-.968-.031a4.064,4.064,0,0,1-1.9-.4c-.491-.388-4.344-3.59-4.507-3.726a.214.214,0,0,1-.077-.164V74.889l-.592-3.542a.214.214,0,1,1,.422-.07l.595,3.559a.213.213,0,0,1,0,.035V83.83c.559.465,3.973,3.3,4.422,3.655a9.076,9.076,0,0,0,3.42.3c.24-.046.582-.824.758-1.536a18.685,18.685,0,0,0-.607-2.554,25.677,25.677,0,0,1-1.132-6.153c-.216-4.326-1.745-8.951-3.409-10.324l-2.417-1.529-1.821.867a.214.214,0,1,1-.183-.386l1.927-.917a.214.214,0,0,1,.207.012l2.527,1.6.021.015c1.56,1.274,3.324,5.6,3.576,10.642a25,25,0,0,0,1.116,6.058,18.572,18.572,0,0,1,.625,2.655.211.211,0,0,1,0,.077c-.1.414-.47,1.774-1.1,1.895A5.8,5.8,0,0,1,2802.433,88.252Z" transform="translate(-2794.322 -65.227)" fill="#000931"/>
          </g>
          <g id="グループ_1047" data-name="グループ 1047" transform="translate(5.38 27.377)">
            <path id="パス_1632" data-name="パス 1632" d="M2682.433,233.567c-.616.495-1.188,2.213.191,2.733s1.38.156,4.035.6a52.843,52.843,0,0,0,9.423.234c2.187-.13,5.648-.1,5.974-1.171s-.034-1.757-.638-1.737-8.538-.658-8.538-.658l-9.4-.182Z" transform="translate(-2681.631 -233.242)" fill="#2c4e88"/>
            <path id="パス_1633" data-name="パス 1633" d="M2691.458,236.521a38.3,38.3,0,0,1-5.682-.339,18.77,18.77,0,0,0-2.323-.26,4.733,4.733,0,0,1-1.739-.346,1.352,1.352,0,0,1-.922-1.089,2.218,2.218,0,0,1,.692-1.889.144.144,0,0,1,.065-.029l1.05-.182.027,0,9.4.182c.087.007,7.722.658,8.5.658h.029a.785.785,0,0,1,.672.317,1.812,1.812,0,0,1,.107,1.6c-.306,1.006-2.835,1.12-5.066,1.221-.363.016-.713.032-1.035.051C2694.24,236.477,2692.887,236.521,2691.458,236.521Zm-9.822-3.677a1.976,1.976,0,0,0-.562,1.6,1.071,1.071,0,0,0,.741.867,4.453,4.453,0,0,0,1.653.328,19.01,19.01,0,0,1,2.354.263,52.28,52.28,0,0,0,9.391.233c.323-.019.675-.035,1.039-.051,1.924-.087,4.559-.206,4.806-1.019a1.569,1.569,0,0,0-.06-1.348.506.506,0,0,0-.436-.205h-.032c-.8,0-8.2-.631-8.523-.659l-9.374-.181Z" transform="translate(-2680.771 -232.385)" fill="#000931"/>
          </g>
          <g id="グループ_1048" data-name="グループ 1048" transform="translate(4.957 15.753)">
            <path id="パス_1634" data-name="パス 1634" d="M2681.142,154.375c0,1.932.169,3.669-.75,3.669s-2.575-1.737-2.575-3.669a11.01,11.01,0,0,1,.127-2.639c.3-.866.986-.859,1.536-.859C2680.4,150.877,2681.142,152.443,2681.142,154.375Z" transform="translate(-2677.804 -150.877)" fill="#1c3b69"/>
          </g>
          <g id="グループ_1049" data-name="グループ 1049" transform="translate(22.311 16.132)">
            <path id="パス_1635" data-name="パス 1635" d="M2802.826,157.033c0,1.932-.744,3.5-1.662,3.5s-1.662-1.566-1.662-3.5.744-3.5,1.662-3.5c.63,0,1.38-.088,1.662,1A16.149,16.149,0,0,1,2802.826,157.033Z" transform="translate(-2799.502 -153.534)" fill="#1c3b69"/>
          </g>
          <g id="グループ_1050" data-name="グループ 1050" transform="translate(7.739 1.589)">
            <path id="パス_1636" data-name="パス 1636" d="M2698.812,54.695s3.417-1.661,5.483-1.646,6.786.588,7.307.987-3.823,6.48-5.491,6.095-6.9-3.769-6.9-3.769Z" transform="translate(-2698.598 -52.834)" fill="#fcecda"/>
            <path id="パス_1637" data-name="パス 1637" d="M2704.977,59.074a.9.9,0,0,1-.2-.022c-1.685-.39-6.753-3.659-6.968-3.8a.214.214,0,0,1-.092-.13l-.4-1.666a.214.214,0,0,1,.114-.242c.141-.068,3.455-1.668,5.549-1.668h.03c1.882.014,6.808.55,7.435,1.031.238.182.1.571-.07.927C2709.679,54.982,2706.639,59.074,2704.977,59.074Zm-6.865-4.133c.634.406,5.252,3.346,6.76,3.694.215.05.735-.015,1.807-1,1.707-1.572,3.439-4.226,3.466-4.74a33.331,33.331,0,0,0-7.138-.917h-.027a16.027,16.027,0,0,0-5.206,1.552Z" transform="translate(-2697.311 -51.548)" fill="#000931"/>
          </g>
          <g id="グループ_1051" data-name="グループ 1051" transform="translate(4.847 8.846)">
            <path id="パス_1638" data-name="パス 1638" d="M2698.447,103.937a19.954,19.954,0,0,1-.315,7.028l-.316,6.261c.718,2.219,1.712,2.308,1.309,4.485a3.083,3.083,0,0,1-2.12,2.575,28.277,28.277,0,0,1-7.419.957H2688.2a28.282,28.282,0,0,1-7.419-.957,3.084,3.084,0,0,1-2.119-2.575c-.4-2.177.2-2.042.915-4.261l-.018-5.821c-.247-1.683-1.09-4.885-.707-7.691" transform="translate(-2678.317 -103.723)" fill="#2c4e88"/>
            <path id="パス_1639" data-name="パス 1639" d="M2686.621,124.172a28.857,28.857,0,0,1-7.184-.968,3.272,3.272,0,0,1-2.27-2.741,3.677,3.677,0,0,1,.308-2.832,12.462,12.462,0,0,0,.6-1.5l-.017-5.772c-.052-.352-.129-.766-.218-1.245a21.087,21.087,0,0,1-.486-6.491.214.214,0,0,1,.424.058,20.757,20.757,0,0,0,.482,6.355c.091.49.17.913.223,1.276a.212.212,0,0,1,0,.03l.018,5.821a.205.205,0,0,1-.011.066,12.754,12.754,0,0,1-.632,1.582,3.278,3.278,0,0,0-.276,2.574,2.886,2.886,0,0,0,1.957,2.405,28.348,28.348,0,0,0,7.368.952h1.39a28.33,28.33,0,0,0,7.359-.948,2.857,2.857,0,0,0,1.969-2.408,3.073,3.073,0,0,0-.468-2.556,9.046,9.046,0,0,1-.833-1.824.21.21,0,0,1-.01-.077l.317-6.261a.227.227,0,0,1,.007-.044,19.782,19.782,0,0,0,.309-6.956.214.214,0,1,1,.426-.034,20.2,20.2,0,0,1-.315,7.078l-.313,6.2a8.6,8.6,0,0,0,.786,1.707,3.449,3.449,0,0,1,.517,2.845,3.273,3.273,0,0,1-2.282,2.744,28.854,28.854,0,0,1-7.469.962h-1.385Z" transform="translate(-2677.034 -102.437)" fill="#000931"/>
          </g>
          <g id="グループ_1052" data-name="グループ 1052" transform="translate(15.34)">
            <path id="パス_1640" data-name="パス 1640" d="M2752.113,50.611s5.084-5.31,4.928-5.8-.972-1.041-2.881-1.006l-.685-.625a11.17,11.17,0,0,1,1.262-.482c1.035-.358,3.535-1.045,4.2-.733a2.385,2.385,0,0,1,1.258,1.7c.1.659.486.625.694,1.041s.417,1.135,0,1.54-1.874.855-2.637,1.445S2754.23,50.681,2752.113,50.611Z" transform="translate(-2751.899 -41.678)" fill="#2c4e88"/>
            <path id="パス_1641" data-name="パス 1641" d="M2750.917,49.552l-.1,0a.214.214,0,0,1-.147-.362,45.541,45.541,0,0,0,4.868-5.613c-.137-.337-.835-.863-2.662-.828a.223.223,0,0,1-.148-.056l-.686-.625a.214.214,0,0,1,.042-.346,11.118,11.118,0,0,1,1.295-.5c.034-.012,3.44-1.157,4.364-.725a2.6,2.6,0,0,1,1.379,1.861.789.789,0,0,0,.326.562,1.293,1.293,0,0,1,.348.416,1.558,1.558,0,0,1-.042,1.789,4.96,4.96,0,0,1-1.2.673,8.207,8.207,0,0,0-1.452.788C2756.454,47.091,2753.154,49.552,2750.917,49.552Zm2.132-7.233c2.353,0,2.822.881,2.91,1.157.057.178.135.421-2.451,3.289-.834.925-1.684,1.831-2.154,2.328,2.138-.3,5.126-2.563,5.486-2.84a8.47,8.47,0,0,1,1.533-.837,5.006,5.006,0,0,0,1.086-.592c.3-.291.164-.877-.043-1.29a.892.892,0,0,0-.246-.285,1.2,1.2,0,0,1-.468-.819,2.185,2.185,0,0,0-1.137-1.54c-.521-.244-2.721.284-4.043.741-.46.159-.757.271-.943.345l.378.345Zm2.5,1.237Z" transform="translate(-2750.614 -40.404)" fill="#000931"/>
          </g>
          <g id="グループ_1053" data-name="グループ 1053" transform="translate(5.627 0.741)">
            <path id="パス_1642" data-name="パス 1642" d="M2685.874,52.338c1.4.559,7.683,2.742,7.683,2.742s-6.887-4.318-5.822-5.57a6.039,6.039,0,0,1,3.463-1.56c.33-.071-1.221-.848-2.678-.848s-4.615,2.523-4.511,3.321A3.46,3.46,0,0,0,2685.874,52.338Z" transform="translate(-2683.792 -46.888)" fill="#2c4e88"/>
            <path id="パス_1643" data-name="パス 1643" d="M2692.271,54.009a.217.217,0,0,1-.07-.012c-.062-.022-6.3-2.19-7.692-2.745a3.65,3.65,0,0,1-1.989-2.044.2.2,0,0,1-.01-.042c-.034-.262.135-.6.518-1.036.9-1.03,2.992-2.526,4.206-2.526,1.19,0,2.891.579,2.936,1a.251.251,0,0,1-.212.272c-.036.008-.091.017-.162.03a5.561,5.561,0,0,0-3.183,1.459.281.281,0,0,0-.055.246c.189,1.227,4.271,4.029,5.828,5a.214.214,0,0,1-.114.4Zm-9.337-4.916a3.271,3.271,0,0,0,1.734,1.761h0c.933.372,4.081,1.482,6.043,2.169-1.741-1.193-4.4-3.186-4.577-4.35a.713.713,0,0,1,.152-.588,5.606,5.606,0,0,1,3.158-1.554,5.729,5.729,0,0,0-2.211-.5c-.966,0-2.943,1.309-3.884,2.38C2682.977,48.835,2682.936,49.035,2682.933,49.093Z" transform="translate(-2682.505 -45.603)" fill="#000931"/>
          </g>
          <g id="グループ_1054" data-name="グループ 1054" transform="translate(13.585 0.955)">
            <path id="パス_1644" data-name="パス 1644" d="M2742.219,47.1v2.043a4.443,4.443,0,0,1-2.064.364c-1.436,0-1.848-.364-1.848-.364V47.1h3.913" transform="translate(-2738.307 -47.102)" fill="#f6beb0"/>
          </g>
          <g id="グループ_1055" data-name="グループ 1055" transform="translate(12.297 3.738)">
            <path id="パス_1645" data-name="パス 1645" d="M2730.893,67.695a.141.141,0,0,1-.067-.017l-1.473-.79a.143.143,0,1,1,.135-.251l1.472.79a.143.143,0,0,1-.067.268Z" transform="translate(-2729.278 -66.619)" fill="#000931"/>
          </g>
          <g id="グループ_1056" data-name="グループ 1056" transform="translate(16.773 3.738)">
            <path id="パス_1646" data-name="パス 1646" d="M2760.808,67.695a.143.143,0,0,1-.068-.268l1.472-.79a.143.143,0,0,1,.135.251l-1.473.79A.141.141,0,0,1,2760.808,67.695Z" transform="translate(-2760.665 -66.619)" fill="#000931"/>
          </g>
          <g id="グループ_1057" data-name="グループ 1057" transform="translate(14.297 8.67)">
            <path id="パス_1647" data-name="パス 1647" d="M2745.228,105.113a2.407,2.407,0,0,1-.748-.136c-.625-.211-1.231-.633-1.179-1.1a8.249,8.249,0,0,1,.817-2.631.243.243,0,0,1,.153-.037l.833.017a.214.214,0,0,1,.195.136c.179.456,1.053,2.766.655,3.43A.792.792,0,0,1,2745.228,105.113Zm-.883-3.477a11.957,11.957,0,0,0-.619,2.285c-.016.141.315.457.891.651.458.155.875.153.969,0,.206-.342-.233-1.867-.634-2.92Zm-.159-.013h0Zm0,0h0Zm0,0h0Zm0,0h0Zm0,0h0Zm0,0h0Zm0,0h0Z" transform="translate(-2743.298 -101.205)" fill="#000931"/>
          </g>
          <g id="グループ_1058" data-name="グループ 1058" transform="translate(15.226 9.625)">
            <path id="パス_1648" data-name="パス 1648" d="M2750.145,107.909c.261-.053.49.234.5.722s.065.9-.43.774a.557.557,0,0,1-.377-.74C2749.867,108.5,2749.889,107.961,2750.145,107.909Z" transform="translate(-2749.817 -107.903)" fill="#000931"/>
          </g>
          <g id="グループ_1059" data-name="グループ 1059" transform="translate(14.42 11.811)">
            <path id="パス_1649" data-name="パス 1649" d="M2744.394,141.986a.214.214,0,0,1-.214-.2c-.055-1.109.054-5.843.126-8.976.023-.99.042-1.81.05-2.289.034-1.958.24-7.031.241-7.082a.214.214,0,1,1,.427.017c0,.051-.207,5.119-.241,7.072-.009.479-.027,1.3-.05,2.291-.072,3.127-.18,7.852-.126,8.945a.214.214,0,0,1-.2.224Z" transform="translate(-2744.166 -123.231)" fill="#000931"/>
          </g>
          <g id="グループ_1060" data-name="グループ 1060" transform="translate(15.849 12.143)">
            <path id="パス_1650" data-name="パス 1650" d="M2754.4,143.981a.214.214,0,0,1-.214-.212c-.008-.949.011-3.089.033-5.567.043-4.894.1-11.6-.03-12.4a.214.214,0,1,1,.422-.07c.139.835.082,7.286.036,12.47-.023,2.476-.042,4.614-.033,5.559a.214.214,0,0,1-.212.216Z" transform="translate(-2754.184 -125.558)" fill="#000931"/>
          </g>
          <g id="グループ_1061" data-name="グループ 1061" transform="translate(13.222 0.689)">
            <path id="パス_1651" data-name="パス 1651" d="M2735.977,47.464a.214.214,0,0,1-.214-.214v-1.8a.214.214,0,0,1,.428,0v1.8A.214.214,0,0,1,2735.977,47.464Z" transform="translate(-2735.763 -45.236)" fill="#000931"/>
          </g>
          <g id="グループ_1062" data-name="グループ 1062" transform="translate(17.283 0.741)">
            <path id="パス_1652" data-name="パス 1652" d="M2764.456,48a.214.214,0,0,1-.214-.214V45.817a.214.214,0,1,1,.428,0V47.79A.214.214,0,0,1,2764.456,48Z" transform="translate(-2764.242 -45.603)" fill="#000931"/>
          </g>
          <g id="グループ_1063" data-name="グループ 1063" transform="translate(17.542 22.572)">
            <path id="パス_1653" data-name="パス 1653" d="M2772.632,201.684a.623.623,0,0,1-.265.341c-.659.348-1.614-.224-2.551.054a6.848,6.848,0,0,1-3.3,0c-.99-.261-.4-1.285,1.856-1.8s2.045-1.81,3.071-1.546a1.4,1.4,0,0,1,.622.35,8.564,8.564,0,0,0,.485,2.427C2772.581,201.564,2772.606,201.623,2772.632,201.684Z" transform="translate(-2766.058 -198.693)" fill="#1c3b69"/>
          </g>
          <g id="グループ_1064" data-name="グループ 1064" transform="translate(10.735 2.336)">
            <path id="パス_1654" data-name="パス 1654" d="M2718.324,56.788" transform="translate(-2718.324 -56.788)" fill="#2c4e88" stroke="#000931" stroke-linecap="round" stroke-linejoin="round" stroke-width="3"/>
          </g>
        </g>
      </g>
      <g id="顔" transform="translate(2646.311 -129.588)">
        <g id="グループ_1070" data-name="グループ 1070" transform="translate(0 0)">
          <g id="グループ_1066" data-name="グループ 1066" transform="translate(0.214 0.209)">
            <g id="グループ_1065" data-name="グループ 1065">
              <path id="パス_1655" data-name="パス 1655" d="M2689.15-108.207l.856-.915a.991.991,0,0,0,.251-.367.989.989,0,0,0-.023-.5l-.614-2.774a6.663,6.663,0,0,1,2.322.256,36.972,36.972,0,0,0-2.682-5.959,9,9,0,0,1,2.262,1.534,1.654,1.654,0,0,0-.4-1.224,32.658,32.658,0,0,0-4.125-5.327l2.737-.495a11.751,11.751,0,0,0-3.42-.24.592.592,0,0,1-.294-.065.628.628,0,0,1-.213-.317,10.446,10.446,0,0,0-2.391-3.523c.352.989-.021,2.319,0,3.368l-.493-.2a33.25,33.25,0,0,0-5.672-2.3,7.137,7.137,0,0,1,2.006,2.5,16.869,16.869,0,0,0-8.568.262,8.484,8.484,0,0,0,2.749,1.037,18.128,18.128,0,0,0-3.386,1.948,7.935,7.935,0,0,0-2.474,2.981,6.666,6.666,0,0,0,2.039-.527,3.041,3.041,0,0,1-.413,1.587,17.6,17.6,0,0,0-1.732,5.894l1.273-.924q.234,1.554.448,3.11c.2.009.558-.309.651-.484Z" transform="translate(-2667.468 128.124)" fill="#7b5f32"/>
            </g>
          </g>
          <g id="グループ_1069" data-name="グループ 1069">
            <g id="グループ_1068" data-name="グループ 1068">
              <g id="グループ_1067" data-name="グループ 1067">
                <path id="パス_1656" data-name="パス 1656" d="M2688.012-109.311c.3-.325.617-.645.914-.977a1,1,0,0,0,.264-.46,1.509,1.509,0,0,0-.053-.624q-.3-1.352-.6-2.7l-.206.271a6.646,6.646,0,0,1,2.265.248.216.216,0,0,0,.263-.263,37.663,37.663,0,0,0-2.7-6.01l-.293.293a8.977,8.977,0,0,1,2.219,1.5.216.216,0,0,0,.358-.094,1.9,1.9,0,0,0-.445-1.415q-.456-.682-.919-1.36c-.618-.9-1.259-1.781-1.96-2.616-.4-.475-.819-.933-1.261-1.367l-.094.357,2.737-.495c.223-.04.183-.351,0-.413a11.68,11.68,0,0,0-3.413-.245c-.108,0-.218.007-.291-.083a1.263,1.263,0,0,1-.142-.307q-.16-.375-.348-.737a10.428,10.428,0,0,0-.846-1.357,10.865,10.865,0,0,0-1.184-1.361c-.146-.142-.429,0-.358.208.363,1.061-.022,2.224-.008,3.311l.271-.206c-.876-.359-1.708-.816-2.579-1.19a34.035,34.035,0,0,0-3.585-1.308c-.193-.058-.38.221-.208.357a7.1,7.1,0,0,1,1.972,2.456l.242-.314a19.731,19.731,0,0,0-6.8-.223,11.7,11.7,0,0,0-1.881.485.217.217,0,0,0-.051.391,8.812,8.812,0,0,0,2.8,1.058l-.051-.391a13.321,13.321,0,0,0-5.075,3.6,7.037,7.037,0,0,0-.862,1.411c-.059.131.007.34.185.322a7.179,7.179,0,0,0,2.146-.557l-.322-.185a3.744,3.744,0,0,1-.546,1.839c-.267.6-.516,1.2-.737,1.822a15.028,15.028,0,0,0-.862,3.82.215.215,0,0,0,.322.185l1.274-.924-.314-.128q.233,1.554.448,3.11a.214.214,0,0,0,.207.157,1.162,1.162,0,0,0,.836-.59l-.185.106,1.925.166,4.621.4,5.57.48,4.814.415,1.6.137c.248.021.5.057.749.064l.034,0c.274.024.273-.4,0-.428l-1.925-.166-4.621-.4-5.569-.48-4.815-.415-1.6-.137c-.248-.021-.5-.057-.749-.064l-.034,0a.21.21,0,0,0-.185.106c-.08.138-.3.373-.466.378l.206.157q-.215-1.556-.448-3.11a.215.215,0,0,0-.314-.128l-1.273.924.322.185a14.733,14.733,0,0,1,.892-3.83c.226-.622.482-1.233.757-1.836a3.594,3.594,0,0,0,.5-1.815.218.218,0,0,0-.322-.185,6.51,6.51,0,0,1-1.93.5l.184.322c1.1-2.413,3.485-3.777,5.783-4.853a.216.216,0,0,0-.051-.391,8.46,8.46,0,0,1-2.7-1.015l-.051.391a14.855,14.855,0,0,1,6.567-.542c.632.071,1.26.168,1.886.28a.217.217,0,0,0,.241-.314,7.374,7.374,0,0,0-2.039-2.543l-.208.357a33.091,33.091,0,0,1,3.605,1.317c.862.374,1.689.823,2.559,1.18a.215.215,0,0,0,.271-.206c-.016-1.131.37-2.319-.008-3.425l-.357.208a10.351,10.351,0,0,1,1.963,2.631c.126.242.244.49.35.741.094.224.185.453.43.546a2.328,2.328,0,0,0,.795.057c.3,0,.59-.009.885-.012a6,6,0,0,1,1.99.237v-.413l-2.738.495a.216.216,0,0,0-.094.357,23.154,23.154,0,0,1,2.544,3.027c.382.531.752,1.072,1.118,1.615.178.264.361.526.531.795a1.3,1.3,0,0,1,.283.906l.358-.094a9.366,9.366,0,0,0-2.306-1.568.216.216,0,0,0-.293.293,37,37,0,0,1,2.661,5.908l.263-.263a7.013,7.013,0,0,0-2.378-.263.217.217,0,0,0-.207.271l.538,2.427a3.708,3.708,0,0,1,.115.574.575.575,0,0,1-.211.434c-.284.306-.571.61-.857.915C2687.521-109.413,2687.823-109.109,2688.012-109.311Z" transform="translate(-2665.964 129.588)" fill="#000931"/>
              </g>
            </g>
          </g>
        </g>
        <g id="グループ_1076" data-name="グループ 1076" transform="translate(2.793 6.687)">
          <g id="グループ_1073" data-name="グループ 1073">
            <g id="グループ_1071" data-name="グループ 1071" transform="translate(0.211 0.218)">
              <path id="パス_1657" data-name="パス 1657" d="M2696.346-81.039s-8.695-2.185-8.416,11.577c-1.348,1.348-1.442,4.185,1.488,4.092,2.046,3.72,11.244,2.992,13.476.248,3.53-.2,2.982-4.281,1.583-3.672C2706.409-82.871,2696.346-81.039,2696.346-81.039Z" transform="translate(-2687.027 81.166)" fill="#fcecda"/>
            </g>
            <g id="グループ_1072" data-name="グループ 1072">
              <path id="パス_1658" data-name="パス 1658" d="M2694.517-63.916c-.427,0-.854-.018-1.278-.057-2.539-.229-4.382-1.113-5.21-2.493h-.016a2.238,2.238,0,0,1-2.285-1.25,3.087,3.087,0,0,1,.721-3.143c-.09-5.11,1.037-8.634,3.349-10.475a6.542,6.542,0,0,1,5.289-1.235,7.552,7.552,0,0,1,6.121,1.8c2.116,2.026,2.875,5.522,2.255,10.393a.8.8,0,0,1,.591.232,2.124,2.124,0,0,1,.292,2.151,2.825,2.825,0,0,1-2.612,1.771C2700.533-64.845,2697.545-63.916,2694.517-63.916Zm-6.366-2.98a.214.214,0,0,1,.187.111c.724,1.316,2.478,2.164,4.939,2.386,3.352.3,6.948-.65,8.184-2.17a.213.213,0,0,1,.154-.078,2.374,2.374,0,0,0,2.328-1.5,1.7,1.7,0,0,0-.183-1.693.392.392,0,0,0-.464-.073.214.214,0,0,1-.214-.026.215.215,0,0,1-.083-.2c.671-4.887-.031-8.362-2.087-10.33a7.256,7.256,0,0,0-5.794-1.676.211.211,0,0,1-.09,0,6.219,6.219,0,0,0-4.968,1.148c-2.213,1.766-3.283,5.2-3.182,10.217a.211.211,0,0,1-.062.156,2.654,2.654,0,0,0-.7,2.737,1.922,1.922,0,0,0,2.025.99Z" transform="translate(-2685.548 82.696)" fill="#000931"/>
            </g>
          </g>
          <g id="グループ_1075" data-name="グループ 1075" transform="translate(0.914 11.849)">
            <g id="グループ_1074" data-name="グループ 1074" transform="translate(0 0)">
              <rect id="長方形_207" data-name="長方形 207" width="0.428" height="4.354" transform="matrix(0.94, -0.342, 0.342, 0.94, 0, 0.146)" fill="#000931"/>
            </g>
          </g>
        </g>
        <g id="グループ_1081" data-name="グループ 1081" transform="translate(1.957 4.161)">
          <g id="グループ_1078" data-name="グループ 1078">
            <g id="グループ_1077" data-name="グループ 1077">
              <path id="パス_1659" data-name="パス 1659" d="M2681.075-86.739a5.856,5.856,0,0,0,1.386-1.1l.738,1.859,2.54-6.31.917,2.454c2.1-1.986,4.411-8.416,5.569-10.572,0,0-18.838,7.425-10.327,10.47Z" transform="translate(-2679.689 100.407)" fill="#7b5f32"/>
            </g>
          </g>
          <g id="グループ_1080" data-name="グループ 1080" transform="translate(8.119)">
            <g id="グループ_1079" data-name="グループ 1079">
              <path id="パス_1660" data-name="パス 1660" d="M2741.043-100.407c5.9,1.357,7.266,12.311,7.266,12.311q-.02,1.608-.01,3.216l-1.865-4.9a12.7,12.7,0,0,1-.208,2.374,21.388,21.388,0,0,0-3.071-6.087,19.715,19.715,0,0,0-2.679,3.15l-.615-2.832-3.234,1.909" transform="translate(-2736.627 100.407)" fill="#7b5f32"/>
            </g>
          </g>
        </g>
        <g id="グループ_1084" data-name="グループ 1084" transform="translate(3.084 8.366)">
          <g id="グループ_1083" data-name="グループ 1083">
            <g id="グループ_1082" data-name="グループ 1082">
              <path id="パス_1661" data-name="パス 1661" d="M2706-62.812q-.019,1.608-.009,3.216l.42-.057-1.865-4.9a.215.215,0,0,0-.42.057,12.717,12.717,0,0,1-.2,2.318h.413a21.821,21.821,0,0,0-3.127-6.182.216.216,0,0,0-.3,0,20.262,20.262,0,0,0-2.712,3.193l.391.051-.615-2.832a.216.216,0,0,0-.314-.128l-3.234,1.909.293.293,2.484-4.143.351-.585-.369-.216a45.085,45.085,0,0,1-3.989,6.155l.391.051-.916-2.454a.216.216,0,0,0-.413,0l-2.54,6.31h.413l-.738-1.859a.217.217,0,0,0-.357-.094,5.849,5.849,0,0,1-1.343,1.065l.314.242a15.64,15.64,0,0,1,.823-3.2c.1-.258-.317-.37-.413-.114a15.65,15.65,0,0,0-.823,3.2.217.217,0,0,0,.314.242,6.247,6.247,0,0,0,1.429-1.132l-.357-.094.738,1.859a.216.216,0,0,0,.413,0l2.54-6.31h-.413l.916,2.454a.218.218,0,0,0,.391.051,45.106,45.106,0,0,0,3.988-6.155.214.214,0,0,0-.369-.216L2694.7-66.67l-.351.585a.215.215,0,0,0,.292.293l3.234-1.909-.314-.128.615,2.832a.217.217,0,0,0,.391.051,19.742,19.742,0,0,1,2.645-3.107h-.3a21.189,21.189,0,0,1,3.016,5.993c.067.177.371.228.413,0a13.334,13.334,0,0,0,.215-2.431l-.42.057,1.865,4.9a.215.215,0,0,0,.42-.057q-.01-1.608.009-3.216a.214.214,0,0,0-.428,0Z" transform="translate(-2687.591 70.917)" fill="#000931"/>
            </g>
          </g>
        </g>
        <g id="グループ_1086" data-name="グループ 1086" transform="translate(14.989 17.41)">
          <g id="グループ_1085" data-name="グループ 1085" transform="translate(0 0)">
            <path id="パス_1662" data-name="パス 1662" d="M2771.109-7.161a11.494,11.494,0,0,0,0,1.651c.077.374.691,1.354,1.354,1.354a1.693,1.693,0,0,0,1.469-1.5c.019-.735,0-1.839,0-1.839A10.342,10.342,0,0,0,2771.109-7.161Z" transform="translate(-2771.075 7.497)" fill="#000931"/>
          </g>
        </g>
        <g id="グループ_1088" data-name="グループ 1088" transform="translate(16.147 18.489)">
          <g id="グループ_1087" data-name="グループ 1087" transform="translate(0 0)">
            <ellipse id="楕円形_73" data-name="楕円形 73" cx="0.275" cy="0.471" rx="0.275" ry="0.471" fill="#fff"/>
          </g>
        </g>
        <g id="グループ_1090" data-name="グループ 1090" transform="translate(14.195 14.805)">
          <g id="グループ_1089" data-name="グループ 1089" transform="translate(0 0)">
            <path id="パス_1663" data-name="パス 1663" d="M2768.975-25.764l-3.467,1.211s.086-.924,3.09-1.211" transform="translate(-2765.508 25.764)" fill="#000931"/>
          </g>
        </g>
        <g id="グループ_1095" data-name="グループ 1095" transform="translate(14.034 17.157)">
          <g id="グループ_1094" data-name="グループ 1094" transform="translate(0 0)">
            <g id="グループ_1093" data-name="グループ 1093">
              <g id="グループ_1092" data-name="グループ 1092">
                <g id="グループ_1091" data-name="グループ 1091">
                  <path id="パス_1664" data-name="パス 1664" d="M2764.519-7.806a.143.143,0,0,1-.089-.032.143.143,0,0,1-.021-.2c1.051-1.307,3.2-1.314,4.963-1.175a.143.143,0,0,1,.131.153.142.142,0,0,1-.154.131c-1.689-.134-3.751-.133-4.718,1.069A.142.142,0,0,1,2764.519-7.806Z" transform="translate(-2764.376 9.272)" fill="#000931"/>
                </g>
              </g>
            </g>
          </g>
        </g>
        <g id="グループ_1097" data-name="グループ 1097" transform="translate(7.095 17.41)">
          <g id="グループ_1096" data-name="グループ 1096" transform="translate(0 0)">
            <path id="パス_1665" data-name="パス 1665" d="M2718.547-7.161a11.568,11.568,0,0,1,0,1.651c-.077.374-.692,1.354-1.354,1.354a1.694,1.694,0,0,1-1.469-1.5c-.019-.735,0-1.839,0-1.839A10.346,10.346,0,0,1,2718.547-7.161Z" transform="translate(-2715.715 7.497)" fill="#000931"/>
          </g>
        </g>
        <g id="グループ_1099" data-name="グループ 1099" transform="translate(8.252 18.489)">
          <g id="グループ_1098" data-name="グループ 1098" transform="translate(0 0)">
            <ellipse id="楕円形_74" data-name="楕円形 74" cx="0.275" cy="0.471" rx="0.275" ry="0.471" fill="#fff"/>
          </g>
        </g>
        <g id="グループ_1101" data-name="グループ 1101" transform="translate(7.286 14.805)">
          <g id="グループ_1100" data-name="グループ 1100" transform="translate(0 0)">
            <path id="パス_1666" data-name="パス 1666" d="M2717.061-25.764l3.468,1.211s-.086-.924-3.09-1.211" transform="translate(-2717.061 25.764)" fill="#000931"/>
          </g>
        </g>
        <g id="グループ_1106" data-name="グループ 1106" transform="translate(5.789 17.157)">
          <g id="グループ_1105" data-name="グループ 1105" transform="translate(0 0)">
            <g id="グループ_1104" data-name="グループ 1104">
              <g id="グループ_1103" data-name="グループ 1103">
                <g id="グループ_1102" data-name="グループ 1102">
                  <path id="パス_1667" data-name="パス 1667" d="M2711.547-7.8a.143.143,0,0,1-.111-.053c-.967-1.2-3.029-1.2-4.718-1.069a.141.141,0,0,1-.154-.131.143.143,0,0,1,.131-.153c1.76-.139,3.913-.132,4.963,1.175a.143.143,0,0,1-.021.2A.143.143,0,0,1,2711.547-7.8Z" transform="translate(-2706.563 9.27)" fill="#000931"/>
                </g>
              </g>
            </g>
          </g>
        </g>
        <g id="グループ_370" data-name="グループ 370" transform="translate(11.747 20.666)">
          <g id="パス_1151" data-name="パス 1151" transform="translate(0 0)">
            <g id="グループ_1107" data-name="グループ 1107">
              <path id="パス_1668" data-name="パス 1668" d="M2749.086,15.941c-.536.176-.91.1-.671-.267s.409-.344.755-.329.786.423.548.612S2749.285,15.876,2749.086,15.941Z" transform="translate(-2748.342 -15.338)" fill="#ffbdad"/>
            </g>
          </g>
        </g>
        <g id="グループ_371" data-name="グループ 371" transform="translate(12.297 21.17)">
          <g id="楕円形_27" data-name="楕円形 27" transform="translate(0 0)">
            <g id="グループ_1108" data-name="グループ 1108">
              <ellipse id="楕円形_75" data-name="楕円形 75" cx="0.149" cy="0.164" rx="0.149" ry="0.164" fill="#000333"/>
            </g>
          </g>
        </g>
        <g id="グループ_1110" data-name="グループ 1110" transform="translate(11.393 22.474)">
          <g id="グループ_1109" data-name="グループ 1109" transform="translate(0 0)">
            <path id="パス_1669" data-name="パス 1669" d="M2746.947,29.181a2.523,2.523,0,0,1-.979-.161.187.187,0,0,1,.155-.339,2.243,2.243,0,0,0,.823.127,5.024,5.024,0,0,0,1.719-.763.187.187,0,0,1,.2.314A5.3,5.3,0,0,1,2746.947,29.181Z" transform="translate(-2745.86 -28.014)" fill="#000931"/>
          </g>
        </g>
        <g id="グループ_1113" data-name="グループ 1113" transform="translate(18.658 19.063)">
          <g id="グループ_1111" data-name="グループ 1111" transform="translate(0.214 0.214)">
            <line id="線_5" data-name="線 5" y1="3.672" x2="1.582" fill="#fcecda"/>
          </g>
          <g id="グループ_1112" data-name="グループ 1112" transform="translate(0 0)">
            <path id="パス_1670" data-name="パス 1670" d="M2797.016,8.2a.214.214,0,0,1-.2-.3l1.582-3.672a.214.214,0,0,1,.393.169l-1.583,3.672A.213.213,0,0,1,2797.016,8.2Z" transform="translate(-2796.802 -4.095)" fill="#000931"/>
          </g>
        </g>
      </g>
    </g>
  </g>
</svg>
