<svg xmlns="http://www.w3.org/2000/svg" width="38.631" height="32.008" viewBox="0 0 38.631 32.008">
  <g id="ノーマル" transform="translate(-2273.422 -881.646)">
    <g id="グループ_1114" data-name="グループ 1114" transform="translate(2273.422 881.646)">
      <path id="パス_1671" data-name="パス 1671" d="M2314.274,890.1a9.718,9.718,0,0,0-11.052,1.143,13.361,13.361,0,0,0-7.622-3.049h-1.144a13.361,13.361,0,0,0-7.622,3.049,11.65,11.65,0,0,0-9.528-6.1s0,8.384,5.335,9.527c-8,9.527-8,16.616,2.668,18.9.762,2.287,1.524,2.287,1.524,2.287a2.708,2.708,0,0,0,2.287-1.524h11.813a2.708,2.708,0,0,0,2.287,1.524s.762,0,1.524-2.287c10.671-2.286,10.671-9.375,2.667-18.9C2313.512,893.91,2314.274,890.1,2314.274,890.1Z" transform="translate(-2276.29 -884.499)" fill="#ffedd1"/>
      <path id="パス_1672" data-name="パス 1672" d="M2300.354,913.654a3.347,3.347,0,0,1-2.661-1.524h-11.065a3.347,3.347,0,0,1-2.661,1.524c-.351,0-1.225-.24-2.015-2.379-4.466-1.024-7.21-2.945-8.161-5.716-1.178-3.435.46-7.941,4.871-13.405-4.811-1.935-4.869-9.52-4.869-9.861a.646.646,0,0,1,.646-.646,12.153,12.153,0,0,1,9.711,5.791,13.75,13.75,0,0,1,7.438-2.742h1.144a13.8,13.8,0,0,1,7.61,2.869c5.508-4.315,11.336-.908,11.4-.871a.645.645,0,0,1,.3.681c-.032.164-.822,3.789-6.282,4.9,4.336,5.409,5.942,9.874,4.773,13.283-.95,2.77-3.7,4.692-8.161,5.716C2301.58,913.414,2300.706,913.654,2300.354,913.654Zm-25.235-30.665c.14,1.948.882,7.36,4.792,8.2a.646.646,0,0,1,.359,1.047c-4.5,5.355-6.315,9.817-5.256,12.9.818,2.384,3.363,4.05,7.564,4.95a.645.645,0,0,1,.478.428c.459,1.375.873,1.751,1,1.838a2.07,2.07,0,0,0,1.623-1.161.646.646,0,0,1,.578-.357h11.814a.646.646,0,0,1,.578.357,2.07,2.07,0,0,0,1.623,1.161c.125-.088.539-.464,1-1.838a.645.645,0,0,1,.478-.428c4.2-.9,6.746-2.566,7.564-4.95,1.06-3.088-.758-7.55-5.256-12.9a.646.646,0,0,1,.415-1.057c4.336-.542,5.738-2.679,6.15-3.615a8.923,8.923,0,0,0-9.842,1.317.647.647,0,0,1-.824.014,12.873,12.873,0,0,0-7.219-2.907h-1.142a12.874,12.874,0,0,0-7.218,2.907.647.647,0,0,1-.968-.188A11.02,11.02,0,0,0,2275.12,882.989Z" transform="translate(-2273.422 -881.646)" fill="#2e2e2e"/>
    </g>
    <g id="グループ_1118" data-name="グループ 1118" transform="translate(2284.252 892.894)">
      <g id="グループ_1115" data-name="グループ 1115" transform="translate(0 0)">
        <path id="パス_1673" data-name="パス 1673" d="M2349.058,948.876s-.2-3.849-6.86-3.811h-.762c-6.365-.038-6.859,3.811-6.859,3.811C2334.283,952.9,2349.248,952.9,2349.058,948.876Z" transform="translate(-2334.111 -944.604)" fill="#f0d1a0"/>
        <path id="パス_1674" data-name="パス 1674" d="M2339.747,950.327a13.009,13.009,0,0,1-6.33-1.331,2.347,2.347,0,0,1-1.337-2.192.226.226,0,0,1,0-.025c.022-.173.618-4.214,7.222-4.214h.959c6.915,0,7.209,4.074,7.219,4.249v0a2.438,2.438,0,0,1-1.463,2.228A13.373,13.373,0,0,1,2339.747,950.327Zm-6.748-3.44c-.028.488.276.934.905,1.325,2.5,1.553,9.029,1.573,11.647.036.692-.406,1.031-.872,1.009-1.385-.013-.168-.332-3.376-6.3-3.376h-.953C2333.669,943.487,2333.041,946.625,2333,946.886Z" transform="translate(-2332.074 -942.564)" fill="#2e2e2e"/>
      </g>
      <g id="グループ_1116" data-name="グループ 1116" transform="translate(4.29 2.912)">
        <rect id="長方形_209" data-name="長方形 209" width="1.829" height="0.915" rx="0.457" transform="matrix(0.174, -0.985, 0.985, 0.174, 0, 1.801)" fill="#2e2e2e"/>
      </g>
      <g id="グループ_1117" data-name="グループ 1117" transform="translate(9.904 2.912)">
        <rect id="長方形_210" data-name="長方形 210" width="0.915" height="1.829" rx="0.457" transform="translate(0 0.159) rotate(-10)" fill="#2e2e2e"/>
      </g>
    </g>
  </g>
</svg>
