<svg xmlns="http://www.w3.org/2000/svg" xmlns:xlink="http://www.w3.org/1999/xlink" width="32" height="53" viewBox="0 0 32 53">
  <defs>
    <clipPath id="clip-path">
      <rect id="長方形_206" data-name="長方形 206" width="32" height="53" transform="translate(57 662.638)" fill="#fff" stroke="#707070" stroke-width="1"/>
    </clipPath>
  </defs>
  <g id="マスクグループ_6" data-name="マスクグループ 6" transform="translate(-57 -662.638)" clip-path="url(#clip-path)">
    <g id="グループ_1031" data-name="グループ 1031" transform="translate(58.465 663.138)">
      <path id="パス_1171" data-name="パス 1171" d="M1673.356,750.473s1.278,10.7,1.552,13.647c.258,2.78,2.4,18.309,2.4,18.309h3.083l1.219-25.956.045.419v-6.975Z" transform="translate(-1666.826 -701.63)" fill="#000931"/>
      <path id="パス_1172" data-name="パス 1172" d="M1741.473,750.473s-1.278,10.7-1.552,13.647c-.258,2.78-2.4,18.309-2.4,18.309h-3.083l-1.219-25.956-.045.419v-6.975Z" transform="translate(-1718.311 -701.63)" fill="#000931"/>
      <g id="グループ_335" data-name="グループ 335" transform="translate(23.067 15.367)">
        <path id="パス_1098" data-name="パス 1098" d="M1795.625,515.4s-.274,2.342.841,2.872c0,0-2.315,1.042-2.546-.921A1.653,1.653,0,0,1,1795.625,515.4Z" transform="translate(-1793.643 -515.156)" fill="#535353"/>
        <path id="パス_1099" data-name="パス 1099" d="M1793.63,517.275a1.694,1.694,0,0,1-.838-.2,1.5,1.5,0,0,1-.712-1.217,1.934,1.934,0,0,1,.409-1.583,2.227,2.227,0,0,1,1.54-.643.246.246,0,0,1,.244.248.181.181,0,0,1,0,.026c-.07.6-.08,2.25.7,2.621a.245.245,0,0,1,.117.327.242.242,0,0,1-.122.119A3.677,3.677,0,0,1,1793.63,517.275Zm.132-3.12a1.57,1.57,0,0,0-.907.454,1.47,1.47,0,0,0-.287,1.2,1.028,1.028,0,0,0,.466.847,1.876,1.876,0,0,0,1.326.023,3.8,3.8,0,0,1-.6-2.519Z" transform="translate(-1792.048 -513.636)" fill="#000333"/>
      </g>
      <g id="グループ_336" data-name="グループ 336" transform="translate(0.667 2.849)">
        <path id="パス_1100" data-name="パス 1100" d="M1640.04,425.553s-4.045,5.074-6.992,4.383c0,0,2.714,1.842,5.825-1.013S1640.04,425.553,1640.04,425.553Z" transform="translate(-1632.801 -425.307)" fill="#535353"/>
        <path id="パス_1101" data-name="パス 1101" d="M1633.7,429.237a4.491,4.491,0,0,1-2.316-.618.245.245,0,0,1,.194-.442,2.327,2.327,0,0,0,.526.058c2.711,0,6.18-4.309,6.217-4.356a.247.247,0,0,1,.255-.084,1.1,1.1,0,0,1,.751.757c.182.738-.428,1.758-1.815,3.031A5.567,5.567,0,0,1,1633.7,429.237Zm-.937-.581a4.771,4.771,0,0,0,4.417-1.435c1.631-1.5,1.747-2.241,1.67-2.551a.551.551,0,0,0-.263-.338C1637.985,425.06,1635.286,428.154,1632.765,428.656Z" transform="translate(-1631.277 -423.787)" fill="#000333"/>
      </g>
      <g id="グループ_337" data-name="グループ 337" transform="translate(1.355 43.493)">
        <path id="パス_1102" data-name="パス 1102" d="M1638.027,718.458s-.254,1.029.391,1.151a23.177,23.177,0,0,0,2.964,0l1.335-2-1.75-.338Z" transform="translate(-1637.732 -717.03)" fill="#397c71"/>
        <path id="パス_1103" data-name="パス 1103" d="M1637.968,718.39a7.25,7.25,0,0,1-1.114-.058.719.719,0,0,1-.483-.321,1.647,1.647,0,0,1-.1-1.129.246.246,0,0,1,.146-.169l2.941-1.183a.245.245,0,0,1,.139-.013l1.75.338a.245.245,0,0,1,.195.287.248.248,0,0,1-.037.09l-1.334,2a.248.248,0,0,1-.192.109C1639.814,718.339,1638.83,718.39,1637.968,718.39Zm-1.243-1.274a1.046,1.046,0,0,0,.06.628.226.226,0,0,0,.161.1,20.532,20.532,0,0,0,2.782,0l1.061-1.586-1.315-.254Z" transform="translate(-1636.214 -715.511)" fill="#000333"/>
      </g>
      <g id="グループ_338" data-name="グループ 338" transform="translate(3.242 44.411)">
        <path id="パス_1104" data-name="パス 1104" d="M1651.642,725.333s-.668,4,1.151,4.12l.315-2.924,1,1.359.863-4.018Z" transform="translate(-1651.276 -723.623)" fill="#ffedd9"/>
        <path id="パス_1105" data-name="パス 1105" d="M1651.276,728.177h-.016a1.269,1.269,0,0,1-.946-.5c-.885-1.114-.451-3.792-.432-3.9a.245.245,0,0,1,.143-.184l3.327-1.465a.246.246,0,0,1,.339.277l-.863,4.018a.246.246,0,0,1-.438.094l-.623-.847-.247,2.3A.246.246,0,0,1,1651.276,728.177Zm-.929-4.194c-.115.8-.236,2.649.352,3.389a.805.805,0,0,0,.361.268l.287-2.659a.246.246,0,0,1,.442-.119l.674.918.647-3.013Z" transform="translate(-1649.759 -722.102)" fill="#000333"/>
      </g>
      <g id="グループ_340" data-name="グループ 340" transform="translate(3.521 0)">
        <path id="パス_1107" data-name="パス 1107" d="M1674.974,419.972c-1.351,4.728-3.5,6.815-2.025,11.237s-7.965,8.106-7.965,8.106l-11.317-5.956a11.957,11.957,0,0,1,.429-5.861,16.859,16.859,0,0,0,.246-7.711c-.614-2.579-1.043-7.553,2.519-11.36s9.7-4.176,14.37-1.474a8.75,8.75,0,0,1,4.3,6.66,12.617,12.617,0,0,1,.117,1.544A16.581,16.581,0,0,1,1674.974,419.972Z" transform="translate(-1653.273 -404.941)" fill="#535353"/>
        <path id="パス_1108" data-name="パス 1108" d="M1663.47,437.958a.244.244,0,0,1-.114-.029l-11.317-5.956a.245.245,0,0,1-.13-.194,12.206,12.206,0,0,1,.438-5.954,16.664,16.664,0,0,0,.243-7.585c-.5-2.116-1.261-7.48,2.578-11.584,3.521-3.764,9.691-4.4,14.672-1.519a9,9,0,0,1,4.413,6.839,12.943,12.943,0,0,1,.121,1.574,16.924,16.924,0,0,1-.676,4.886,36.128,36.128,0,0,1-1.272,3.581c-1.031,2.585-1.776,4.452-.756,7.511.641,1.923-.578,4-3.525,5.992a26.611,26.611,0,0,1-4.584,2.42A.246.246,0,0,1,1663.47,437.958Zm-11.085-6.357,11.1,5.841c1.009-.414,9.021-3.848,7.719-7.758-1.076-3.229-.263-5.267.766-7.848a35.593,35.593,0,0,0,1.256-3.534h0a16.4,16.4,0,0,0,.657-4.742,12.562,12.562,0,0,0-.117-1.515,8.528,8.528,0,0,0-4.173-6.481c-4.785-2.77-10.7-2.169-14.067,1.429-3.677,3.93-2.944,9.1-2.459,11.135a16.954,16.954,0,0,1-.249,7.838,11.557,11.557,0,0,0-.431,5.635Z" transform="translate(-1651.759 -403.339)" fill="#000333"/>
      </g>
      <g id="グループ_341" data-name="グループ 341" transform="translate(7.242 20.769)">
        <path id="パス_1109" data-name="パス 1109" d="M1681.056,556.141c1.186-.99,2.487-2.038,3.293-1.969a2.354,2.354,0,0,1,1.9,1.865c.045.863-2.016,1.474-2.879,1.636s-3.132,1.278-3.143.242A2.586,2.586,0,0,1,1681.056,556.141Z" transform="translate(-1679.981 -553.923)" fill="#1e1e1e"/>
        <path id="パス_1110" data-name="パス 1110" d="M1679.271,557.078a.923.923,0,0,1-.545-.143.63.63,0,0,1-.257-.535,2.819,2.819,0,0,1,.913-1.961l0,0c1.38-1.152,2.592-2.1,3.471-2.025a2.6,2.6,0,0,1,2.124,2.1c.069,1.287-3.048,1.884-3.078,1.89a7.927,7.927,0,0,0-.855.254A6.451,6.451,0,0,1,1679.271,557.078Zm.433-2.268a2.351,2.351,0,0,0-.744,1.585c0,.105.036.13.051.141.263.188,1.277-.149,1.882-.351a7.971,7.971,0,0,1,.919-.271c1.114-.208,2.708-.818,2.679-1.381a2.138,2.138,0,0,0-1.676-1.634c-.746-.059-2.168,1.123-3.111,1.911Z" transform="translate(-1678.469 -552.406)" fill="#000333"/>
      </g>
      <g id="グループ_342" data-name="グループ 342" transform="translate(21.203 19.254)">
        <path id="パス_1111" data-name="パス 1111" d="M1779.174,545.633a.246.246,0,0,1-.214-.125c-.741-1.315.172-3.715.211-3.816a.246.246,0,0,1,.458.177c-.009.023-.868,2.285-.242,3.4a.246.246,0,0,1-.213.366Z" transform="translate(-1778.67 -541.537)" fill="#000333"/>
      </g>
      <g id="グループ_343" data-name="グループ 343" transform="translate(4.762 24.468)">
        <path id="パス_1112" data-name="パス 1112" d="M1678.151,579.536a5.517,5.517,0,0,1,1.125.444,9.152,9.152,0,0,1,.563,3.855c-.153,1.443.388,16.672.388,16.672s.217,2.345-1.6,2.591-13.323-.91-13.323-.91-3.822-2.61-4.006-5.3.524-11.307.524-11.307l1.87-5.1,3.132-.95Z" transform="translate(-1661.182 -579.455)" fill="#397c71"/>
        <path id="パス_1113" data-name="パス 1113" d="M1677.331,602.715c-3.107,0-12.128-.9-12.551-.945a.081.081,0,0,1-.038-.014c-.158-.108-3.857-2.663-4.043-5.359-.182-2.662.516-11.233.524-11.319a.071.071,0,0,1,0-.021l1.871-5.1a.081.081,0,0,1,.053-.05l3.132-.95a.077.077,0,0,1,.024,0h11.33a.076.076,0,0,1,.023,0,5.216,5.216,0,0,1,1.156.461,8.942,8.942,0,0,1,.591,3.925c-.151,1.421.383,16.508.389,16.66a3.773,3.773,0,0,1-.122,1.227,1.819,1.819,0,0,1-1.551,1.447A6.484,6.484,0,0,1,1677.331,602.715Zm-12.514-1.106c.557.056,11.531,1.145,13.283.908,1.722-.234,1.534-2.48,1.532-2.5-.023-.627-.54-15.256-.388-16.688a9.532,9.532,0,0,0-.536-3.785,5.1,5.1,0,0,0-1.083-.424h-11.307l-3.082.935-1.852,5.05c-.029.354-.7,8.678-.522,11.283.172,2.527,3.678,5.03,3.954,5.223Z" transform="translate(-1660.669 -578.955)" fill="#000333"/>
      </g>
      <g id="グループ_344" data-name="グループ 344" transform="translate(23.196 26.268)">
        <path id="パス_1114" data-name="パス 1114" d="M1792.979,591.879" transform="translate(-1792.979 -591.879)" fill="#29488e" stroke="#000333" stroke-linecap="round" stroke-linejoin="round" stroke-width="6.291"/>
      </g>
      <g id="グループ_345" data-name="グループ 345" transform="translate(21.961 43.861)">
        <path id="パス_1115" data-name="パス 1115" d="M1790.382,721.484a1.431,1.431,0,0,1-.215,1.428,5.368,5.368,0,0,1-3.094.537c-1.382-.215-1.2-1.229-1.2-1.229l1.842-2.3Z" transform="translate(-1785.623 -719.672)" fill="#397c71"/>
        <path id="パス_1116" data-name="パス 1116" d="M1786.206,722.223a4.4,4.4,0,0,1-.678-.05,1.7,1.7,0,0,1-1.186-.633,1.248,1.248,0,0,1-.215-.883.252.252,0,0,1,.05-.11l1.842-2.3a.246.246,0,0,1,.316-.058l2.664,1.566a.245.245,0,0,1,.112.146,1.657,1.657,0,0,1-.3,1.689A5.548,5.548,0,0,1,1786.206,722.223Zm-1.6-1.426a.757.757,0,0,0,.142.464,1.247,1.247,0,0,0,.857.426,5.185,5.185,0,0,0,2.909-.491,1.184,1.184,0,0,0,.149-1.072l-2.392-1.406Z" transform="translate(-1784.115 -718.154)" fill="#000333"/>
      </g>
      <g id="グループ_346" data-name="グループ 346" transform="translate(22.268 45.275)">
        <path id="パス_1117" data-name="パス 1117" d="M1791.33,731.759s-.716,4.7-1.959,4.749c-.33.012.518-2.8.335-3.465-.105-.383-.67,1.426-.813,1.107a18.541,18.541,0,0,1-.812-4.09Z" transform="translate(-1787.835 -729.814)" fill="#ffedd9"/>
        <path id="パス_1118" data-name="パス 1118" d="M1787.85,735.236a.3.3,0,0,1-.225-.1c-.164-.19-.109-.572.1-1.7.062-.326.135-.712.183-1.052-.175.358-.292.539-.495.539h0a.293.293,0,0,1-.263-.183,18.351,18.351,0,0,1-.833-4.168.246.246,0,0,1,.359-.24l3.249,1.7a.246.246,0,0,1,.129.255c-.125.818-.817,4.906-2.193,4.957Zm.29-4.01h.029a.291.291,0,0,1,.256.234,6.133,6.133,0,0,1-.211,2.061c-.073.388-.167.887-.189,1.162.629-.4,1.248-2.655,1.519-4.306l-2.686-1.4a18.974,18.974,0,0,0,.607,3.205c.041-.082.08-.167.113-.234C1787.8,731.472,1787.915,731.226,1788.14,731.226Z" transform="translate(-1786.317 -728.297)" fill="#000333"/>
      </g>
      <g id="グループ_347" data-name="グループ 347" transform="translate(19.718 31.05)">
        <path id="パス_1119" data-name="パス 1119" d="M1768.013,626.2" transform="translate(-1768.013 -626.201)" fill="#29488e" stroke="#000333" stroke-linecap="round" stroke-linejoin="round" stroke-width="6.291"/>
      </g>
      <g id="グループ_348" data-name="グループ 348" transform="translate(19.013 26.014)">
        <path id="パス_1120" data-name="パス 1120" d="M1768.655,591.879c1.55,2.257,1.458,4.375,1.6,6.816s0,5.281,3.347,10.255a1.9,1.9,0,0,1-.806,1.412c-.852.737-.667,1.105-1.159,1.105s-2.979-.123-2.979-.123l-3.938-2.518v-8.843l.46-3.324" transform="translate(-1764.471 -591.625)" fill="#397c71"/>
        <path id="パス_1121" data-name="パス 1121" d="M1770.115,610.144c-.491,0-2.889-.117-2.99-.123a.24.24,0,0,1-.12-.038l-3.938-2.518a.245.245,0,0,1-.114-.207v-8.843a.222.222,0,0,1,0-.034l.46-3.324a.246.246,0,0,1,.488.06v.007l-.457,3.307v8.691l3.769,2.41c.4.019,2.466.119,2.9.119.128,0,.133,0,.266-.206a3.637,3.637,0,0,1,.733-.839,1.827,1.827,0,0,0,.719-1.155c-3.074-4.594-3.207-7.435-3.314-9.72-.01-.2-.019-.4-.029-.593-.016-.285-.029-.565-.042-.842-.1-2.1-.181-3.913-1.511-5.849a.246.246,0,1,1,.394-.294l.011.016c1.41,2.052,1.5,4.02,1.6,6.1.013.275.026.554.042.837.011.2.021.4.029.6.111,2.351.234,5.015,3.275,9.534a.246.246,0,0,1,.042.121,2.13,2.13,0,0,1-.89,1.615,3.155,3.155,0,0,0-.643.737A.722.722,0,0,1,1770.115,610.144Z" transform="translate(-1762.953 -590.055)" fill="#000333"/>
      </g>
      <g id="グループ_349" data-name="グループ 349" transform="translate(0 25.655)">
        <path id="パス_1122" data-name="パス 1122" d="M1637.339,593.5l-.526,3.149v8.014s-3.546,2.948-3.984,3.293a7.8,7.8,0,0,1-3.178.3c-.483-.092-1.4-1.7-1.4-1.7,1.059-.967,1.934-3.869,2.119-7.553s1.487-7.965,3.094-9.278l2.235-.486,1.326,1.612" transform="translate(-1628.001 -588.988)" fill="#397c71"/>
        <path id="パス_1123" data-name="パス 1123" d="M1628.933,607.026a5.786,5.786,0,0,1-.842-.044c-.552-.105-1.344-1.422-1.572-1.824a.245.245,0,0,1,.048-.3c1.046-.956,1.866-3.923,2.039-7.384.175-3.513,1.415-8.011,3.185-9.456a.247.247,0,0,1,.1-.05l2.235-.486a.245.245,0,0,1,.242.084l1.326,1.612a.246.246,0,1,1-.38.312l-1.231-1.5-2.03.442c-1.448,1.242-2.771,5.28-2.96,9.063-.175,3.487-.975,6.416-2.056,7.581a4.272,4.272,0,0,0,1.143,1.423,7.749,7.749,0,0,0,2.98-.251c.392-.309,3.339-2.757,3.891-3.215v-7.9a.269.269,0,0,1,0-.041l.526-3.149a.246.246,0,0,1,.484.081l-.522,3.129v7.994a.244.244,0,0,1-.088.189c-.146.121-3.554,2.954-3.989,3.3A5.845,5.845,0,0,1,1628.933,607.026Z" transform="translate(-1626.487 -587.475)" fill="#000333"/>
      </g>
      <g id="グループ_350" data-name="グループ 350" transform="translate(5.679 46.843)">
        <path id="パス_1124" data-name="パス 1124" d="M1668.388,740.3c-.545.438-1.052,1.957.169,2.418s1.22.138,3.569.53a46.819,46.819,0,0,0,8.336.207c1.934-.114,5-.092,5.285-1.036s-.029-1.554-.564-1.537-7.553-.582-7.553-.582l-8.313-.161Z" transform="translate(-1667.726 -740.056)" fill="#397c71"/>
        <path id="パス_1125" data-name="パス 1125" d="M1676.649,743.127a33.782,33.782,0,0,1-5.018-.3,16.67,16.67,0,0,0-2.06-.23,4.152,4.152,0,0,1-1.525-.3,1.153,1.153,0,0,1-.789-.929,1.94,1.94,0,0,1,.6-1.629.083.083,0,0,1,.037-.017l.929-.161,8.328.16c.076.006,7.029.6,7.549.582a.663.663,0,0,1,.558.263,1.561,1.561,0,0,1,.088,1.379c-.263.86-2.484.96-4.441,1.049-.321.014-.631.029-.916.045C1679.11,743.089,1677.913,743.127,1676.649,743.127Zm-8.707-3.251a1.8,1.8,0,0,0-.521,1.463.989.989,0,0,0,.684.8,3.978,3.978,0,0,0,1.476.292,16.73,16.73,0,0,1,2.078.232,46.244,46.244,0,0,0,8.318.206c.286-.017.6-.031.918-.046,1.715-.078,4.065-.184,4.293-.933a1.409,1.409,0,0,0-.061-1.232.479.479,0,0,0-.422-.2c-.529.016-7.275-.558-7.563-.583l-8.308-.16Z" transform="translate(-1667.245 -739.558)" fill="#000333"/>
      </g>
      <g id="グループ_351" data-name="グループ 351" transform="translate(5.255 35.587)">
        <path id="パス_1126" data-name="パス 1126" d="M1667.156,661.861c0,1.709.15,3.246-.663,3.246s-2.279-1.537-2.279-3.246a9.733,9.733,0,0,1,.112-2.334c.268-.766.872-.76,1.359-.76C1666.5,658.767,1667.156,660.152,1667.156,661.861Z" transform="translate(-1664.201 -658.767)" fill="#236c60"/>
      </g>
      <g id="グループ_352" data-name="グループ 352" transform="translate(20.145 36.851)">
        <path id="パス_1127" data-name="パス 1127" d="M1774.016,670.932c0,1.709-.658,3.094-1.47,3.094s-1.47-1.386-1.47-3.094.658-3.094,1.47-3.094c.557,0,1.221-.078,1.47.884A14.3,14.3,0,0,1,1774.016,670.932Z" transform="translate(-1771.075 -667.836)" fill="#236c60"/>
      </g>
      <g id="グループ_353" data-name="グループ 353" transform="translate(7.66 23)">
        <path id="パス_1128" data-name="パス 1128" d="M1683.234,571.639s3.023-1.47,4.85-1.457,6,.52,6.464.873-3.382,5.733-4.858,5.392-6.1-3.335-6.1-3.335Z" transform="translate(-1682.988 -569.937)" fill="#ffedd9"/>
        <path id="パス_1129" data-name="パス 1129" d="M1688.3,575.19a.83.83,0,0,1-.184-.02c-1.5-.347-5.991-3.245-6.182-3.368a.247.247,0,0,1-.105-.149l-.353-1.474a.245.245,0,0,1,.131-.278,15.03,15.03,0,0,1,4.933-1.482h.027c1.671.012,6.048.493,6.611.924.242.186.113.553-.045.889C1692.514,571.547,1689.8,575.19,1688.3,575.19Zm-6.016-3.747c.627.4,4.632,2.946,5.943,3.248.123.029.5.023,1.288-.643a13.938,13.938,0,0,0,3.3-4.349,30.476,30.476,0,0,0-6.253-.787h-.024a13.979,13.979,0,0,0-4.54,1.348Z" transform="translate(-1681.469 -568.419)" fill="#000333"/>
      </g>
      <g id="グループ_354" data-name="グループ 354" transform="translate(5.125 29.067)">
        <path id="パス_1130" data-name="パス 1130" d="M1680.787,613.937c1.474.783,2.288,3.48,1.257,6.8-.174.558-.5.411-.877,1.911-.2.774.229,2.023.552,3.358a19.507,19.507,0,0,0,1.4,3.313,2.658,2.658,0,0,1-.26,2.734c-.552.812-4.79.8-8.306.847a37.857,37.857,0,0,1-7.492-.847,2.729,2.729,0,0,1-1.875-2.279c-.355-1.928.522-2,1.157-3.968a6.367,6.367,0,0,0,.2-4.005c-.225-.778.015.167-.476-1.069-.685-1.724-1-6.36,1.148-7.039" transform="translate(-1664.846 -613.449)" fill="#397c71"/>
        <path id="パス_1131" data-name="パス 1131" d="M1672.716,631.661a39.14,39.14,0,0,1-7.285-.854,2.953,2.953,0,0,1-2.063-2.473,3.128,3.128,0,0,1,.464-2.555,7.55,7.55,0,0,0,.7-1.533,6.108,6.108,0,0,0,.194-3.861c-.014-.05-.052-.181-.076-.253a2.472,2.472,0,0,1-.393-.794,9.328,9.328,0,0,1-.023-6.1,2.229,2.229,0,0,1,1.325-1.261.246.246,0,0,1,.148.467,1.759,1.759,0,0,0-1.029,1,8.888,8.888,0,0,0,.036,5.71,5.465,5.465,0,0,0,.263.6c.1.058.127.166.222.494a6.663,6.663,0,0,1-.2,4.149,8.086,8.086,0,0,1-.743,1.625,2.646,2.646,0,0,0-.409,2.223,2.493,2.493,0,0,0,1.689,2.083,37.987,37.987,0,0,0,7.433.84l.755-.009c2.916-.034,6.911-.081,7.351-.73a2.4,2.4,0,0,0,.238-2.5l-.013-.025a18.522,18.522,0,0,1-1.4-3.328c-.064-.265-.133-.526-.2-.782a6.139,6.139,0,0,1-.353-2.693,3.742,3.742,0,0,1,.672-1.555,1.055,1.055,0,0,0,.2-.368c1.022-3.29.178-5.808-1.137-6.506a.246.246,0,0,1,.23-.434h0a3.725,3.725,0,0,1,1.693,2.613,8.871,8.871,0,0,1-.317,4.474,1.546,1.546,0,0,1-.283.518,3.26,3.26,0,0,0-.589,1.38,6.1,6.1,0,0,0,.351,2.448c.067.258.136.523.2.791a18.116,18.116,0,0,0,1.354,3.218c.018.034.027.054.029.057a2.89,2.89,0,0,1-.284,2.969c-.544.8-3.422.894-7.751.945l-.754.009C1672.893,631.659,1672.8,631.661,1672.716,631.661Z" transform="translate(-1663.273 -611.966)" fill="#000333"/>
      </g>
      <g id="グループ_355" data-name="グループ 355" transform="translate(14.384 21.594)">
        <path id="パス_1132" data-name="パス 1132" d="M1731.5,567.8s4.5-4.7,4.36-5.127-.86-.921-2.549-.891l-.606-.553a9.949,9.949,0,0,1,1.117-.426c.916-.317,3.128-.925,3.719-.648a2.107,2.107,0,0,1,1.113,1.5c.093.584.43.553.614.921s.369,1,0,1.362-1.658.757-2.333,1.279S1733.369,567.858,1731.5,567.8Z" transform="translate(-1731.249 -559.837)" fill="#397c71"/>
        <path id="パス_1133" data-name="パス 1133" d="M1730.051,566.535h-.088a.245.245,0,0,1-.169-.415,42.646,42.646,0,0,0,4.286-4.925c-.133-.283-.744-.708-2.293-.678a.246.246,0,0,1-.17-.064l-.606-.553a.246.246,0,0,1-.016-.347.237.237,0,0,1,.064-.05,9.846,9.846,0,0,1,1.154-.443c.029-.01,3.051-1.037,3.9-.639a2.361,2.361,0,0,1,1.251,1.689.636.636,0,0,0,.27.464,1.2,1.2,0,0,1,.322.386c.126.253.5,1.119-.049,1.648a4.4,4.4,0,0,1-1.081.606,7.231,7.231,0,0,0-1.273.69C1734.982,564.348,1732.049,566.535,1730.051,566.535Zm1.885-6.512c2.121,0,2.548.809,2.63,1.062.06.189.129.4-2.18,2.964-.675.749-1.362,1.483-1.793,1.94a14.193,14.193,0,0,0,4.663-2.476,7.521,7.521,0,0,1,1.367-.747,4.524,4.524,0,0,0,.946-.513c.243-.236.126-.727-.049-1.076a.729.729,0,0,0-.2-.234,1.114,1.114,0,0,1-.432-.758,1.872,1.872,0,0,0-.974-1.32c-.43-.2-2.349.248-3.535.658-.343.119-.584.207-.748.271l.251.229Z" transform="translate(-1729.725 -558.328)" fill="#000333"/>
      </g>
      <g id="グループ_356" data-name="グループ 356" transform="translate(4.798 20.541)">
        <path id="パス_1134" data-name="パス 1134" d="M1666.222,552.542c-2.279.691-2.308,1.458-2.615,1.95a5.309,5.309,0,0,0-.921,2.487c.092.7.368,1.32.8,1.474a7.554,7.554,0,0,1,1.842.43c.952.43,6.8,2.425,6.8,2.425s-6.582-4.544-6.582-4.85.123-.737.4-.829a1.471,1.471,0,0,0,1.013-.768,2.686,2.686,0,0,1,1.335-1.165c.292-.063-.888-1.153-.888-1.153Z" transform="translate(-1662.433 -552.295)" fill="#397c71"/>
        <path id="パス_1135" data-name="パス 1135" d="M1670.617,560.031a.248.248,0,0,1-.079-.013c-.239-.082-5.867-2-6.819-2.434a3.469,3.469,0,0,0-1.256-.321,2.252,2.252,0,0,1-.566-.1,1.929,1.929,0,0,1-.959-1.673,5.715,5.715,0,0,1,.956-2.649c.041-.065.079-.142.119-.223.255-.513.6-1.216,2.634-1.832a.247.247,0,0,1,.071-.011h1.178a.248.248,0,0,1,.167.065c1.1,1.014,1.034,1.248,1,1.362a.3.3,0,0,1-.229.212,2.53,2.53,0,0,0-1.16,1.019,1.661,1.661,0,0,1-1.129.9l-.034.011c-.111.037-.213.28-.229.53.434.478,4.159,3.117,6.474,4.715a.246.246,0,0,1-.14.448Zm-5.864-8.765c-1.8.551-2.077,1.115-2.3,1.569a2.713,2.713,0,0,1-.142.265,5.113,5.113,0,0,0-.886,2.325c.088.667.338,1.167.637,1.274a1.832,1.832,0,0,0,.447.076,4,4,0,0,1,1.413.362c.61.275,3.307,1.22,5.109,1.843-.55-.385-1.2-.843-1.846-1.3-3.394-2.422-3.394-2.563-3.394-2.741a1.094,1.094,0,0,1,.567-1.062l.035-.012a1.2,1.2,0,0,0,.828-.617,2.948,2.948,0,0,1,1.286-1.227,7.416,7.416,0,0,0-.708-.752Z" transform="translate(-1660.928 -550.772)" fill="#000333"/>
      </g>
      <g id="グループ_357" data-name="グループ 357" transform="translate(12.887 22.496)">
        <path id="パス_1136" data-name="パス 1136" d="M1722.448,566.608a3.936,3.936,0,0,1-1.826.322,2.68,2.68,0,0,1-1.636-.322V564.8h3.461Z" transform="translate(-1718.985 -564.801)" fill="#ffbdad"/>
      </g>
      <g id="グループ_358" data-name="グループ 358" transform="translate(6.489 5.202)">
        <path id="パス_1137" data-name="パス 1137" d="M1690.667,451.5s.854,3.6-.837,5.52c-1.665,1.888-4.26,2.586-6.962,2.525-2.7.062-5.3-.637-6.962-2.525-1.691-1.917-.837-5.52-.837-5.52s5.389-8.751,7.407-9,7.668-.246,8.19,9" transform="translate(-1674.604 -442.197)" fill="#ffedd9"/>
        <path id="パス_1138" data-name="パス 1138" d="M1680.991,458.277a8.9,8.9,0,0,1-6.813-2.612c-1.755-1.989-.928-5.587-.891-5.739a.235.235,0,0,1,.029-.072c.558-.906,5.511-8.859,7.587-9.112a6.986,6.986,0,0,1,5.41,1.415c1.817,1.519,2.844,4.14,3.053,7.79.077.337.808,3.785-.9,5.717-1.98,2.245-4.983,2.656-7.151,2.608C1681.212,458.275,1681.1,458.277,1680.991,458.277Zm.328-.495c2.077.047,4.927-.339,6.783-2.442,1.589-1.8.79-5.266.782-5.3a.263.263,0,0,1-.006-.043c-.2-3.52-1.169-6.03-2.88-7.463a6.507,6.507,0,0,0-5.036-1.3c-.431.052-1.562.7-4.289,4.488-1.467,2.035-2.737,4.069-2.917,4.358-.081.38-.706,3.566.791,5.263,1.855,2.1,4.707,2.488,6.772,2.442Z" transform="translate(-1673.061 -440.677)" fill="#000333"/>
      </g>
      <g id="グループ_359" data-name="グループ 359" transform="translate(13.594 20.163)">
        <path id="パス_1139" data-name="パス 1139" d="M1725.214,548.869a1.365,1.365,0,0,1-1.12-.472.215.215,0,0,1,.351-.248h0a1.161,1.161,0,0,0,1.542,0,.216.216,0,0,1,.3-.045.213.213,0,0,1,.049.3A1.364,1.364,0,0,1,1725.214,548.869Z" transform="translate(-1724.055 -548.057)" fill="#000333"/>
      </g>
      <g id="グループ_360" data-name="グループ 360" transform="translate(11.711 24.919)">
        <path id="パス_1140" data-name="パス 1140" d="M1712.007,583.22a.16.16,0,0,1-.077-.02l-1.3-.7a.164.164,0,0,1,.155-.289h0l1.3.7a.164.164,0,0,1-.078.308Z" transform="translate(-1710.541 -582.193)" fill="#000333"/>
      </g>
      <g id="グループ_361" data-name="グループ 361" transform="translate(15.672 24.919)">
        <path id="パス_1141" data-name="パス 1141" d="M1739.134,583.222a.164.164,0,0,1-.078-.308l1.3-.7a.164.164,0,1,1,.155.289h0l-1.3.7A.163.163,0,0,1,1739.134,583.222Z" transform="translate(-1738.97 -582.195)" fill="#000333"/>
      </g>
      <g id="グループ_362" data-name="グループ 362" transform="translate(13.462 29.265)">
        <path id="パス_1142" data-name="パス 1142" d="M1724.872,616.961a2.166,2.166,0,0,1-.68-.126c-.531-.179-1.134-.558-1.081-1.036a10.117,10.117,0,0,1,.292-1.3c.271-.954.382-1.024.456-1.071a.266.266,0,0,1,.168-.041l.734.015a.246.246,0,0,1,.224.156c.225.573.932,2.489.575,3.084A.753.753,0,0,1,1724.872,616.961Zm-.745-3.079a10.71,10.71,0,0,0-.526,1.971c-.009.076.236.342.75.516.437.146.74.107.792.021a5.771,5.771,0,0,0-.553-2.5Zm-.2-.016,0,0,0,0" transform="translate(-1723.108 -613.388)" fill="#000333"/>
      </g>
      <g id="グループ_363" data-name="グループ 363" transform="translate(14.328 30.166)">
        <path id="パス_1143" data-name="パス 1143" d="M1729.628,619.86c.231-.047.434.207.445.639s.059.794-.38.685a.492.492,0,0,1-.351-.6.438.438,0,0,1,.017-.053C1729.383,620.384,1729.4,619.906,1729.628,619.86Z" transform="translate(-1729.327 -619.854)" fill="#000333"/>
      </g>
      <g id="グループ_364" data-name="グループ 364" transform="translate(13.571 32.049)">
        <path id="パス_1144" data-name="パス 1144" d="M1724.153,650.069a.245.245,0,0,1-.245-.234c-.048-.983.048-5.173.111-7.947.02-.874.037-1.6.044-2.023.029-1.733.212-6.221.214-6.267a.246.246,0,0,1,.491.02c0,.045-.183,4.529-.213,6.256-.007.424-.024,1.15-.044,2.026-.063,2.766-.159,6.945-.112,7.91a.246.246,0,0,1-.233.258h0Z" transform="translate(-1723.894 -633.369)" fill="#000333"/>
      </g>
      <g id="グループ_365" data-name="グループ 365" transform="translate(14.834 32.328)">
        <path id="パス_1145" data-name="パス 1145" d="M1733.206,651.795a.246.246,0,0,1-.246-.243c-.007-.841.01-2.735.03-4.929.038-4.327.091-10.253-.026-10.954a.246.246,0,0,1,.482-.1c0,.006,0,.011,0,.017.124.743.073,6.452.033,11.039-.02,2.191-.037,4.083-.03,4.92a.246.246,0,0,1-.243.248h0Z" transform="translate(-1732.958 -635.375)" fill="#000333"/>
      </g>
      <g id="グループ_366" data-name="グループ 366" transform="translate(5.881 3.686)">
        <path id="パス_1146" data-name="パス 1146" d="M1687.457,434.393c2.456,6.449.552,9.979.552,9.979,0-.491-1.412-2.579-2.18-3.9a24.849,24.849,0,0,1-1.505-5.1c-1.566,4.484-6.272,6.2-6.272,6.2a9.321,9.321,0,0,0,.542-5.558s-4.236,1.325-7.436,8.967c0,0-1.833-4.823.7-8.967.043-.069.085-.138.129-.2v0a9.542,9.542,0,0,1,2.25-2.443,9.108,9.108,0,0,1,4.358-1.818" transform="translate(-1670.264 -431.308)" fill="#535353"/>
        <path id="パス_1147" data-name="パス 1147" d="M1669.592,443.72h0a.246.246,0,0,1-.225-.158c-.077-.2-1.846-4.983.721-9.182.041-.066.081-.131.123-.195l.01-.017a9.825,9.825,0,0,1,2.306-2.506,9.278,9.278,0,0,1,4.488-1.867.243.243,0,0,1,.263.222v0a.246.246,0,0,1-.226.263,8.957,8.957,0,0,0-4.228,1.768,9.333,9.333,0,0,0-2.18,2.364l-.012.02c-.043.065-.084.132-.125.2a10.69,10.69,0,0,0-.871,8.129c3.169-7.12,7.152-8.439,7.324-8.492a.245.245,0,0,1,.308.16l.005.019a9.825,9.825,0,0,1-.3,5.136,10.843,10.843,0,0,0,5.562-5.807.243.243,0,0,1,.25-.164.246.246,0,0,1,.223.2,24.83,24.83,0,0,0,1.476,5.023c.216.37.479.8.757,1.246.556.9.978,1.591,1.221,2.083.4-1.231,1.035-4.4-.792-9.2a.246.246,0,1,1,.459-.175h0c2.468,6.479.619,10.035.539,10.183a.246.246,0,0,1-.462-.117,13.893,13.893,0,0,0-1.382-2.517c-.28-.453-.545-.881-.764-1.256a19.721,19.721,0,0,1-1.367-4.378,11.66,11.66,0,0,1-6.114,5.589.246.246,0,0,1-.3-.341,8.869,8.869,0,0,0,.576-5.107c-.955.435-4.364,2.369-7.024,8.722A.245.245,0,0,1,1669.592,443.72Zm17.1-.861" transform="translate(-1668.697 -429.794)" fill="#000333"/>
      </g>
      <g id="グループ_368" data-name="グループ 368" transform="translate(12.511 22.195)">
        <path id="パス_1149" data-name="パス 1149" d="M1716.529,564.737a.246.246,0,0,1-.246-.246h0V562.9a.246.246,0,0,1,.491-.017.126.126,0,0,1,0,.017v1.593A.246.246,0,0,1,1716.529,564.737Z" transform="translate(-1716.283 -562.644)" fill="#000333"/>
      </g>
      <g id="グループ_369" data-name="グループ 369" transform="translate(16.104 22.258)">
        <path id="パス_1150" data-name="パス 1150" d="M1742.319,565.327a.245.245,0,0,1-.245-.246h0v-1.746a.246.246,0,0,1,.491,0v1.746a.245.245,0,0,1-.245.246Z" transform="translate(-1742.074 -563.098)" fill="#000333"/>
      </g>
      <g id="グループ_370" data-name="グループ 370" transform="translate(14.071 17.176)">
        <path id="パス_1151" data-name="パス 1151" d="M1728.206,527.212c-.524.172-.889.1-.655-.261s.4-.336.737-.321.769.413.536.6S1728.4,527.148,1728.206,527.212Z" transform="translate(-1727.479 -526.623)" fill="#ffbdad"/>
      </g>
      <g id="グループ_371" data-name="グループ 371" transform="translate(14.608 17.669)">
        <ellipse id="楕円形_27" data-name="楕円形 27" cx="0.145" cy="0.16" rx="0.145" ry="0.16" fill="#000333"/>
      </g>
      <g id="グループ_372" data-name="グループ 372" transform="translate(16.39 41.619)">
        <path id="パス_1152" data-name="パス 1152" d="M1749.942,704.708a.555.555,0,0,1-.234.3c-.584.308-1.428-.2-2.257.048a6.059,6.059,0,0,1-2.916,0c-.877-.231-.354-1.137,1.643-1.6s1.809-1.6,2.717-1.367a1.236,1.236,0,0,1,.55.309,7.567,7.567,0,0,0,.429,2.147Z" transform="translate(-1744.125 -702.061)" fill="#236c60"/>
      </g>
      <g id="グループ_373" data-name="グループ 373" transform="translate(16.695 35.659)">
        <path id="パス_1153" data-name="パス 1153" d="M1748.729,661.863c-1.088.2-2.579-1.175-2.4-2s4.076-.76,4.329.138S1749.236,661.771,1748.729,661.863Z" transform="translate(-1746.318 -659.279)" fill="#236c60"/>
      </g>
      <g id="グループ_374" data-name="グループ 374" transform="translate(7.695 35.659)">
        <path id="パス_1154" data-name="パス 1154" d="M1683.674,661.863c1.088.2,2.579-1.175,2.4-2s-4.076-.76-4.329.138S1683.168,661.771,1683.674,661.863Z" transform="translate(-1681.715 -659.279)" fill="#236c60"/>
      </g>
      <g id="グループ_383" data-name="グループ 383" transform="translate(16.884 11.318)">
        <g id="グループ_381" data-name="グループ 381">
          <g id="グループ_375" data-name="グループ 375" transform="translate(1.179)">
            <path id="パス_1155" data-name="パス 1155" d="M1760.639,485.415a2.94,2.94,0,0,0-2.168-.839,3.619,3.619,0,0,0-2.34,1.216,4.936,4.936,0,0,1,2.364-.792A3.727,3.727,0,0,1,1760.639,485.415Z" transform="translate(-1756.131 -484.574)" fill="#000333"/>
          </g>
          <g id="グループ_379" data-name="グループ 379" transform="translate(0 0.903)">
            <g id="グループ_376" data-name="グループ 376" transform="translate(0 0.515)">
              <path id="パス_1156" data-name="パス 1156" d="M1752.56,498.213a.22.22,0,0,1-.114-.407,1.618,1.618,0,0,0,.613-1,1.226,1.226,0,0,0-.181-1.02,1.629,1.629,0,0,0-1.239-.575,4.222,4.222,0,0,0-3.609,1.346.219.219,0,0,1-.285-.334h0a4.642,4.642,0,0,1,3.928-1.45,2.013,2.013,0,0,1,1.559.753,1.683,1.683,0,0,1,.255,1.379,2.046,2.046,0,0,1-.813,1.275A.219.219,0,0,1,1752.56,498.213Z" transform="translate(-1747.669 -494.748)" fill="#000333"/>
            </g>
            <g id="グループ_377" data-name="グループ 377" transform="translate(3.466)">
              <path id="パス_1157" data-name="パス 1157" d="M1772.547,491.777a2.225,2.225,0,0,0,.747-.691.05.05,0,0,1,.065-.028.048.048,0,0,1,.022.017.759.759,0,0,1,.136.81Z" transform="translate(-1772.547 -491.054)" fill="#000333"/>
            </g>
            <g id="グループ_378" data-name="グループ 378" transform="translate(5.05 0.675)">
              <path id="パス_1158" data-name="パス 1158" d="M1783.914,496.325a1.718,1.718,0,0,0,.621-.391.077.077,0,0,1,.135.018,1.817,1.817,0,0,1-.157,1.692Z" transform="translate(-1783.914 -495.901)" fill="#000333"/>
            </g>
          </g>
          <g id="グループ_380" data-name="グループ 380" transform="translate(0.184 1.808)">
            <ellipse id="楕円形_28" data-name="楕円形 28" cx="1.665" cy="2.241" rx="1.665" ry="2.241" transform="translate(0.246 0.246)" fill="#000333"/>
            <path id="パス_1159" data-name="パス 1159" d="M1750.9,502.526a2.573,2.573,0,1,1,1.911-2.486A2.259,2.259,0,0,1,1750.9,502.526Zm0-4.481c-.782,0-1.42.895-1.42,1.995s.637,1.995,1.42,1.995,1.419-.895,1.419-1.995S1751.684,498.045,1750.9,498.045Z" transform="translate(-1748.991 -497.553)" fill="#000333"/>
          </g>
        </g>
        <g id="グループ_382" data-name="グループ 382" transform="translate(1.583 3.419)">
          <ellipse id="楕円形_29" data-name="楕円形 29" cx="0.512" cy="0.876" rx="0.512" ry="0.876" fill="#fff"/>
        </g>
      </g>
      <g id="グループ_391" data-name="グループ 391" transform="translate(6.739 11.318)">
        <g id="グループ_384" data-name="グループ 384" transform="translate(0.256)">
          <path id="パス_1160" data-name="パス 1160" d="M1676.693,485.415a2.94,2.94,0,0,1,2.167-.839,3.62,3.62,0,0,1,2.341,1.216,4.935,4.935,0,0,0-2.364-.792A3.727,3.727,0,0,0,1676.693,485.415Z" transform="translate(-1676.693 -484.574)" fill="#000333"/>
        </g>
        <g id="グループ_388" data-name="グループ 388" transform="translate(0 0.902)">
          <g id="グループ_385" data-name="グループ 385" transform="translate(0.074 0.516)">
            <path id="パス_1161" data-name="パス 1161" d="M1676.364,498.213a.215.215,0,0,1-.113-.032,2.046,2.046,0,0,1-.812-1.275,1.684,1.684,0,0,1,.254-1.379,2.012,2.012,0,0,1,1.559-.753,4.641,4.641,0,0,1,3.928,1.45.219.219,0,1,1-.284.334,4.224,4.224,0,0,0-3.609-1.346,1.629,1.629,0,0,0-1.24.575,1.229,1.229,0,0,0-.181,1.021,1.619,1.619,0,0,0,.614,1,.219.219,0,0,1-.117.406Z" transform="translate(-1675.387 -494.748)" fill="#000333"/>
          </g>
          <g id="グループ_386" data-name="グループ 386" transform="translate(1.445)">
            <path id="パス_1162" data-name="パス 1162" d="M1686.259,491.771a2.23,2.23,0,0,1-.747-.691.05.05,0,0,0-.064-.029.048.048,0,0,0-.023.018.759.759,0,0,0-.136.81Z" transform="translate(-1685.227 -491.047)" fill="#000333"/>
          </g>
          <g id="グループ_387" data-name="グループ 387" transform="translate(0 0.676)">
            <path id="パス_1163" data-name="パス 1163" d="M1675.749,496.325a1.72,1.72,0,0,1-.621-.391.077.077,0,0,0-.108-.018.074.074,0,0,0-.027.036,1.816,1.816,0,0,0,.156,1.692Z" transform="translate(-1674.854 -495.901)" fill="#000333"/>
          </g>
        </g>
        <g id="グループ_389" data-name="グループ 389" transform="translate(1.938 1.808)">
          <ellipse id="楕円形_30" data-name="楕円形 30" cx="1.665" cy="2.241" rx="1.665" ry="2.241" transform="translate(0.245 0.246)" fill="#000333"/>
          <path id="パス_1164" data-name="パス 1164" d="M1690.675,502.526a2.573,2.573,0,1,1,1.911-2.486A2.259,2.259,0,0,1,1690.675,502.526Zm0-4.481c-.782,0-1.419.895-1.419,1.995s.637,1.995,1.419,1.995,1.419-.895,1.419-1.995S1691.457,498.045,1690.675,498.045Z" transform="translate(-1688.764 -497.553)" fill="#000333"/>
        </g>
        <g id="グループ_390" data-name="グループ 390" transform="translate(3.337 3.419)">
          <ellipse id="楕円形_31" data-name="楕円形 31" cx="0.512" cy="0.876" rx="0.512" ry="0.876" fill="#fff"/>
        </g>
      </g>
      <g id="グループ_392" data-name="グループ 392" transform="translate(7.606 5.749)">
        <path id="パス_1165" data-name="パス 1165" d="M1684,446.613a1.7,1.7,0,0,1-1.95,1.366,1.448,1.448,0,0,1-.968-.93v0a9.536,9.536,0,0,1,2.25-2.443A1.788,1.788,0,0,1,1684,446.613Z" transform="translate(-1681.082 -444.604)" fill="#868686"/>
      </g>
      <g id="グループ_393" data-name="グループ 393" transform="translate(9.954 7.325)">
        <ellipse id="楕円形_32" data-name="楕円形 32" cx="0.759" cy="0.639" rx="0.759" ry="0.639" transform="matrix(0.258, -0.966, 0.966, 0.258, 0, 1.467)" fill="#868686"/>
      </g>
      <g id="グループ_394" data-name="グループ 394" transform="translate(24.881 8.646)">
        <path id="パス_1166" data-name="パス 1166" d="M1806.082,466.964a.624.624,0,0,1-.295.074.83.83,0,0,1,0-1.644.577.577,0,0,1,.176.026A12.619,12.619,0,0,1,1806.082,466.964Z" transform="translate(-1805.074 -465.394)" fill="#868686"/>
      </g>
      <g id="グループ_395" data-name="グループ 395" transform="translate(23.616 9.017)">
        <ellipse id="楕円形_33" data-name="楕円形 33" cx="0.437" cy="0.358" rx="0.437" ry="0.358" transform="matrix(0.913, -0.408, 0.408, 0.913, 0, 0.357)" fill="#868686"/>
      </g>
      <g id="グループ_396" data-name="グループ 396" transform="translate(6.294 17.742)">
        <path id="パス_1167" data-name="パス 1167" d="M1671.906,535.025a.246.246,0,0,1-.209-.374c.78-1.271.3-3.648.295-3.672a.246.246,0,0,1,.481-.1c.022.105.526,2.591-.357,4.028A.246.246,0,0,1,1671.906,535.025Z" transform="translate(-1671.661 -530.683)" fill="#000333"/>
      </g>
      <g id="グループ_397" data-name="グループ 397" transform="translate(13.426 7.472)">
        <path id="パス_1168" data-name="パス 1168" d="M1723.1,463.7a.246.246,0,0,1-.152-.438,7.778,7.778,0,0,0,3.337-6.04.246.246,0,0,1,.49-.029c.009.144.177,3.57-3.525,6.457A.246.246,0,0,1,1723.1,463.7Z" transform="translate(-1722.855 -456.969)" fill="#000333"/>
      </g>
      <g id="グループ_398" data-name="グループ 398" transform="translate(23.074 6.771)">
        <path id="パス_1169" data-name="パス 1169" d="M1792.1,451.937" transform="translate(-1792.103 -451.937)" fill="#333" stroke="#000333" stroke-linecap="round" stroke-linejoin="round" stroke-width="6.291"/>
      </g>
      <g id="グループ_399" data-name="グループ 399" transform="translate(22.837 47.976)">
        <path id="パス_1170" data-name="パス 1170" d="M1790.4,747.686" transform="translate(-1790.398 -747.686)" fill="#29488e" stroke="#000333" stroke-linecap="round" stroke-linejoin="round" stroke-width="2.097"/>
      </g>
      <g id="グループ_401" data-name="グループ 401" transform="translate(8.101 19.052)">
        <ellipse id="楕円形_34" data-name="楕円形 34" cx="1.11" cy="0.53" rx="1.11" ry="0.53" fill="#ffbdad"/>
      </g>
      <g id="グループ_402" data-name="グループ 402" transform="translate(19.336 19.052)">
        <ellipse id="楕円形_35" data-name="楕円形 35" cx="1.11" cy="0.53" rx="1.11" ry="0.53" fill="#ffbdad"/>
      </g>
      <path id="パス_1174" data-name="パス 1174" d="M1746.827,981.015h-6.68a.487.487,0,0,1-.487-.487v-2.466l4.732-.472q.137-.014.275-.014h0a3.075,3.075,0,0,1,2.77,1.74l.2.412A.9.9,0,0,1,1746.827,981.015Z" transform="translate(-1723.892 -897.649)" fill="#2f6058"/>
      <path id="パス_1175" data-name="パス 1175" d="M1740.558,981.015h6.68a.487.487,0,0,0,.487-.487v-2.466l-4.732-.472q-.137-.014-.275-.014h0a3.074,3.074,0,0,0-2.77,1.74l-.2.412A.9.9,0,0,0,1740.558,981.015Z" transform="translate(-1733.762 -897.649)" fill="#2f6058"/>
    </g>
  </g>
</svg>
