<svg xmlns="http://www.w3.org/2000/svg" width="24" height="24"><g data-name="グループ 15"><g data-name="brightness_low"><path fill="rgba(0,0,0,0)" d="M0 0h24v24H0z"/><path d="M12 22.485a1.985 1.985 0 01-1.414-.585l-1.9-1.9H6a2 2 0 01-2-2v-2.68l-1.9-1.9a2.005 2.005 0 010-2.83L4 8.69V6a2 2 0 012-2h2.689l1.89-1.9a2.005 2.005 0 012.831 0l1.9 1.9H18a2 2 0 012 2v2.69l1.9 1.89a2 2 0 010 2.83l-1.9 1.9V18a2 2 0 01-2 2h-2.68l-1.9 1.9a1.988 1.988 0 01-1.42.585zM12 6a6 6 0 106 6 6.006 6.006 0 00-6-6z" fill="#fff"/></g></g></svg>