<svg xmlns="http://www.w3.org/2000/svg" width="25" height="25"><g data-name="brightness_low"><path fill="rgba(0,0,0,0)" d="M0 0h25v25H0z"/><path d="M12.506 25a2.366 2.366 0 01-1.686-.7l-2.267-2.263H5.347a2.387 2.387 0 01-2.385-2.384v-3.2L.7 14.193a2.39 2.39 0 010-3.374l2.262-2.266V5.346a2.387 2.387 0 012.385-2.384h3.206L10.807.7a2.39 2.39 0 013.374 0l2.265 2.265h3.207a2.387 2.387 0 012.384 2.384v3.204l2.263 2.254a2.389 2.389 0 010 3.374l-2.265 2.265v3.207a2.387 2.387 0 01-2.384 2.384h-3.2L14.193 24.3a2.369 2.369 0 01-1.687.7zM12.5 5.347a7.153 7.153 0 107.153 7.153A7.161 7.161 0 0012.5 5.347z" fill="#fff"/></g></svg>