<svg version="1.1" id="レイヤー_1" xmlns="http://www.w3.org/2000/svg" x="0" y="0" viewBox="0 0 223.7 228" xml:space="preserve"><style>.st2{fill:#2e2e2e}.st3{fill:#bababa}.st4{fill:none;stroke:#ed3e3b;stroke-width:10;stroke-linecap:round;stroke-miterlimit:10}</style><path d="M220.2 84.9s-31-18.6-59.9 6.2C139.7 74.6 119 74.6 119 74.6h-6.2s-20.6 0-41.3 16.5C53 58.1 20 58.1 20 58.1s0 45.4 28.9 51.6c-43.3 51.6-43.3 90 14.5 102.4 4.1 12.4 8.2 12.4 8.2 12.4 5.3-.3 10.1-3.5 12.4-8.3h64c2.3 4.8 7.1 8 12.4 8.3 0 0 4.1 0 8.2-12.4 57.8-12.4 57.8-50.8 14.4-102.4 33.1-4.1 37.2-24.8 37.2-24.8z" fill="#ffedd1" stroke="#2e2e2e" stroke-width="7" stroke-linejoin="round"/><path d="M154.1 138.7s-1.1-20.8-37.2-20.7h-4.1c-34.5-.2-37.2 20.6-37.2 20.6-1.5 21.9 79.5 21.9 78.5.1z" fill="#f0d1a0" stroke="#2e2e2e" stroke-width="5" stroke-linecap="round" stroke-linejoin="round"/><path class="st2" d="M96.8 138.6l.9-4.9c.2-1.3 1.5-2.2 2.9-2 1.3.2 2.2 1.5 2 2.9l-.9 4.9c-.2 1.3-1.5 2.2-2.9 2-1.4-.3-2.3-1.5-2-2.9zM129.2 131.7c1.3-.2 2.6.7 2.9 2l.9 4.9c.2 1.3-.7 2.6-2 2.9-1.3.2-2.6-.7-2.9-2l-.9-4.9c-.3-1.4.6-2.6 2-2.9z"/><path class="st3" d="M142.4 71.1L154 59.5s43.8 9.1 24.3-32.8c7.7-32.3-41.5-34-40-11.9-20.7 9.7-15.9 32.7 3.5 39.1.5 5.7.7 11.5.6 17.2zM99.9 68.3l1.4-12.7s31.2-15.8-1.2-31.9C89.1.2 58.2 23.1 70 35.9c-7.9 16 6.2 27.7 21.2 22.2 3.1 3.2 6 6.6 8.7 10.2z"/><path class="st4" d="M31.3 39.8s7.8 35.5 42.1 34.9M13.1 46.4S36.6 72.1 5 95.1M65.5 91.7s-26.9-20.6-46.2 14.1"/></svg>