<svg xmlns="http://www.w3.org/2000/svg" viewBox="0 0 209.2 173.35"><defs><style>.cls-3{fill:#2e2e2e}</style></defs><g id="レイヤー_2" data-name="レイヤー 2"><g id="_動物_表情パターン" data-name="【動物】表情パターン"><g id="ノーマル"><path d="M205.7 30.33s-31-18.57-59.86 6.19C125.21 20 104.57 20 104.57 20h-6.2S77.74 20 57.1 36.52C38.52 3.5 5.5 3.5 5.5 3.5s0 45.41 28.89 51.6c-43.34 51.59-43.34 90 14.45 102.37 4.13 12.38 8.26 12.38 8.26 12.38a14.66 14.66 0 0012.38-8.26h64a14.66 14.66 0 0012.38 8.26s4.13 0 8.26-12.38c57.79-12.39 57.79-50.78 14.45-102.37 33-4.1 37.13-24.77 37.13-24.77z" stroke-width="7" fill="#fff" stroke="#2e2e2e" stroke-linejoin="round"/><path d="M139.58 84.06s-1.1-20.84-37.15-20.64h-4.12c-34.47-.2-37.15 20.64-37.15 20.64-1.59 21.81 79.45 21.81 78.42 0z" stroke-linecap="round" stroke-width="5" fill="#fff" stroke="#2e2e2e" stroke-linejoin="round"/><rect class="cls-3" x="80.21" y="79.52" width="9.91" height="4.95" rx="2.48" transform="rotate(-80 85.168 81.994)"/><rect class="cls-3" x="113.1" y="77.04" width="4.95" height="9.91" rx="2.48" transform="rotate(-10 115.547 81.979)"/></g></g></g></svg>