<svg xmlns="http://www.w3.org/2000/svg" viewBox="0 0 203.74 604.61"><defs><clipPath id="clip-path" transform="translate(-8.97 -3.25)"><path fill="none" d="M0 0h219.03v385.27H0z"/></clipPath><style>.cls-3{fill:#000931}.cls-4{fill:#535353}.cls-5{fill:#000333}.cls-6{fill:#397c71}.cls-7{fill:#ffedd9}.cls-9{fill:#236c60}.cls-10{fill:#ffbdad}.cls-11{fill:#fff}.cls-12{fill:#868686}.cls-13{fill:#5b2c2b}</style></defs><g id="レイヤー_2" data-name="レイヤー 2"><g clip-path="url(#clip-path)" id="レイヤー_1-2" data-name="レイヤー 1"><path class="cls-3" d="M55.84 353.82S65 430.62 67 451.77c1.85 20 17.22 131.41 17.22 131.41h22.13l8.75-186.3.32 3v-50.05zM175.22 353.82s-9.18 76.8-11.14 97.95c-1.85 20-17.22 131.41-17.22 131.41h-22.13L116 396.88l-.32 3v-50.05z" transform="translate(-8.97 -3.25)"/><g id="グループ_403" data-name="グループ 403"><g id="グループ_335" data-name="グループ 335"><path id="パス_1098" data-name="パス 1098" class="cls-4" d="M188.76 115.31s-2 16.81 6 20.61c0 0-16.61 7.48-18.28-6.61s12.28-14 12.28-14z" transform="translate(-8.97 -3.25)"/><path id="パス_1099" data-name="パス 1099" class="cls-5" d="M185.89 139.67a12.19 12.19 0 01-6-1.42 10.75 10.75 0 01-5.11-8.73 13.87 13.87 0 012.93-11.36 16 16 0 0111.06-4.61 1.76 1.76 0 011.75 1.78v.18c-.51 4.33-.58 16.15 5 18.82a1.75 1.75 0 01.84 2.34 1.77 1.77 0 01-.87.86 26.5 26.5 0 01-9.6 2.14zm1-22.4a11.33 11.33 0 00-6.52 3.26 10.56 10.56 0 00-2 8.58 7.38 7.38 0 003.34 6.08c2.68 1.51 6.64 1 9.52.16-4.39-4.81-4.5-13.91-4.29-18.08z" transform="translate(-8.97 -3.25)"/></g><g id="グループ_336" data-name="グループ 336"><path id="パス_1100" data-name="パス 1100" class="cls-4" d="M65.72 25.46s-29 36.42-50.19 31.46c0 0 19.49 13.22 41.81-7.27s8.38-24.19 8.38-24.19z" transform="translate(-8.97 -3.25)"/><path id="パス_1101" data-name="パス 1101" class="cls-5" d="M31.17 62.81a32.28 32.28 0 01-16.63-4.43 1.76 1.76 0 011.39-3.18 16 16 0 003.78.42c19.46 0 44.36-30.93 44.62-31.26a1.78 1.78 0 011.83-.61 7.91 7.91 0 015.39 5.44c1.31 5.3-3.08 12.61-13 21.75S38.83 62.81 31.17 62.81zm-6.72-4.16c7.31 1.69 18.94 1.41 31.7-10.3C67.85 37.6 68.68 32.26 68.13 30a3.94 3.94 0 00-1.89-2.43C61.91 32.83 42.54 55 24.45 58.65z" transform="translate(-8.97 -3.25)"/></g><g id="グループ_337" data-name="グループ 337"><path id="パス_1102" data-name="パス 1102" class="cls-6" d="M20.82 325.67s-1.82 7.38 2.8 8.26 21.28 0 21.28 0l9.58-14.32-12.56-2.42z" transform="translate(-8.97 -3.25)"/><path id="パス_1103" data-name="パス 1103" class="cls-5" d="M31.29 336.09a53.36 53.36 0 01-8-.42 5.18 5.18 0 01-3.47-2.31c-1.91-3-.85-7.59-.72-8.1a1.74 1.74 0 011.06-1.26l21.11-8.49a1.76 1.76 0 011-.1l12.56 2.43a1.76 1.76 0 011.4 2.06 2 2 0 01-.27.65l-9.58 14.32a1.77 1.77 0 01-1.37.78c-.47.07-7.53.44-13.72.44zM22.37 327a7.54 7.54 0 00.43 4.5 1.62 1.62 0 001.16.75 146.25 146.25 0 0020 0l7.61-11.38L42.1 319z" transform="translate(-8.97 -3.25)"/></g><g id="グループ_338" data-name="グループ 338"><path id="パス_1104" data-name="パス 1104" class="cls-7" d="M34.87 334.29s-4.8 28.73 8.26 29.56l2.26-21 7.16 9.76 6.2-28.84z" transform="translate(-8.97 -3.25)"/><path id="パス_1105" data-name="パス 1105" class="cls-5" d="M43.13 365.61H43a9.13 9.13 0 01-6.77-3.61c-6.35-8-3.24-27.22-3.1-28a1.76 1.76 0 011-1.33L58 322.16a1.77 1.77 0 012.33.91 1.74 1.74 0 01.11 1.08L54.27 353a1.76 1.76 0 01-3.14.67l-4.47-6.08-1.78 16.48a1.76 1.76 0 01-1.75 1.54zm-6.67-30.1c-.83 5.76-1.69 19 2.53 24.32a5.71 5.71 0 002.59 1.93l2.06-19.08a1.78 1.78 0 011.94-1.57 1.8 1.8 0 011.24.71l4.83 6.59 4.65-21.62z" transform="translate(-8.97 -3.25)"/></g><g id="グループ_340" data-name="グループ 340"><path id="パス_1107" data-name="パス 1107" class="cls-4" d="M190 111.13c-9.7 33.94-25.12 48.92-14.54 80.65S118.3 250 118.3 250l-81.23-42.78c-2.21-22.92-.88-28.6 3.08-42.07s6.17-36.83 1.76-55.35S34.42 55.6 60 28.27s69.64-30 103.14-10.58c18.9 11 28.12 28.49 30.82 47.8a89.53 89.53 0 01.84 11.09 119.13 119.13 0 01-4.8 34.55z" transform="translate(-8.97 -3.25)"/><path id="パス_1108" data-name="パス 1108" class="cls-5" d="M118.3 251.73a1.7 1.7 0 01-.82-.21l-81.23-42.75a1.75 1.75 0 01-.93-1.39c-2.22-23-.92-28.91 3.14-42.73s5.94-36.81 1.74-54.44C36.58 95 31.15 56.52 58.71 27.06 84 .05 128.27-4.54 164 16.16c17.68 10.23 28.63 27.2 31.68 49.08a93 93 0 01.87 11.3 121.68 121.68 0 01-4.85 35.07 259.82 259.82 0 01-9.14 25.7c-7.4 18.55-12.74 32-5.43 53.91 4.61 13.8-4.14 28.67-25.3 43a191.43 191.43 0 01-32.9 17.37 1.74 1.74 0 01-.63.14zm-79.56-45.62L118.4 248c7.24-3 64.75-27.62 55.4-55.68-7.73-23.18-1.89-37.81 5.5-56.34a255.52 255.52 0 009-25.36 118 118 0 004.71-34 89.93 89.93 0 00-.84-10.87C189.3 45 178.94 28.89 162.24 19.22 127.89-.66 85.43 3.65 61.27 29.48 34.88 57.69 40.14 94.77 43.62 109.4c4.55 19.08 2.26 42.54-1.78 56.26-4 13.43-5.13 18.85-3.1 40.44z" transform="translate(-8.97 -3.25)"/></g><g id="グループ_341" data-name="グループ 341"><path id="パス_1109" data-name="パス 1109" d="M68.67 168.23c8.51-7.1 17.85-14.62 23.63-14.13s13.31 7.19 13.64 13.39-14.47 10.58-20.66 11.74-22.48 9.18-22.57 1.77a18.58 18.58 0 015.96-12.77z" transform="translate(-8.97 -3.25)" fill="#1e1e1e"/><path id="パス_1110" data-name="パス 1110" class="cls-5" d="M66.72 185.85a6.63 6.63 0 01-3.92-1A4.52 4.52 0 0161 181a20.2 20.2 0 016.55-14.07c9.91-8.27 18.61-15.1 24.92-14.53s14.85 7.74 15.24 15.05c.5 9.24-21.87 13.52-22.09 13.56a56.91 56.91 0 00-6.14 1.82 46 46 0 01-12.76 3.02zm3.11-16.28a16.86 16.86 0 00-5.35 11.37c0 .76.26.94.37 1 1.89 1.35 9.16-1.07 13.51-2.52a56.07 56.07 0 016.6-1.94c8-1.49 19.44-5.87 19.22-9.91-.28-5.33-7.23-11.32-12-11.72-5.36-.43-15.57 8.06-22.33 13.71z" transform="translate(-8.97 -3.25)"/></g><g id="グループ_342" data-name="グループ 342"><path id="パス_1111" data-name="パス 1111" class="cls-5" d="M164.77 170.85a1.77 1.77 0 01-1.54-.9c-5.32-9.44 1.23-26.66 1.51-27.39a1.77 1.77 0 013.3 1.27c-.07.16-6.24 16.4-1.74 24.39a1.76 1.76 0 01-.67 2.4 1.73 1.73 0 01-.86.23z" transform="translate(-8.97 -3.25)"/></g><g id="グループ_343" data-name="グループ 343"><path id="パス_1112" data-name="パス 1112" class="cls-6" d="M165 179.45a39 39 0 018.07 3.19c1.41 1.22 5.15 17.3 4 27.66s2.78 119.7 2.78 119.7 1.56 16.83-11.49 18.59S72.73 342 72.73 342 45.29 323.3 44 304s3.76-81.16 3.76-81.16l13.42-36.6 22.48-6.81z" transform="translate(-8.97 -3.25)"/><path id="パス_1113" data-name="パス 1113" class="cls-5" d="M162.75 349.4c-22.3 0-87-6.48-90.09-6.78a.63.63 0 01-.27-.1c-1.13-.77-27.68-19.12-29-38.46-1.31-19.11 3.71-80.63 3.76-81.24v-.16l13.45-36.59a.55.55 0 01.38-.36l22.48-6.82a.47.47 0 01.17 0H165a.45.45 0 01.16 0 37.46 37.46 0 018.3 3.31c1.61 1.4 5.36 17.68 4.24 28.17-1.08 10.2 2.75 118.49 2.79 119.58a27.28 27.28 0 01-.87 8.81c-1.7 6-5.55 9.63-11.14 10.38a46.85 46.85 0 01-5.73.26zm-89.82-7.94c4 .4 82.77 8.22 95.34 6.52 12.36-1.68 11-17.8 11-18-.16-4.5-3.88-109.5-2.79-119.78 1.12-10.5-2.81-26.21-3.84-27.16a36.88 36.88 0 00-7.78-3.05H83.7l-22.11 6.72L48.3 223c-.21 2.54-5 62.28-3.75 81 1.23 18.13 26.4 36.1 28.38 37.48z" transform="translate(-8.97 -3.25)"/></g><g id="グループ_345" data-name="グループ 345"><path id="パス_1115" data-name="パス 1115" class="cls-6" d="M200.76 331.07c1.32 4.85.22 8.92-1.54 10.24a38.45 38.45 0 01-22.22 3.86c-9.92-1.54-8.6-8.82-8.6-8.82l13.22-16.52z" transform="translate(-8.97 -3.25)"/><path id="パス_1116" data-name="パス 1116" class="cls-5" d="M181.61 347.27a30.53 30.53 0 01-4.87-.36 12.19 12.19 0 01-8.51-4.54 8.92 8.92 0 01-1.55-6.34 1.69 1.69 0 01.36-.78l13.22-16.53a1.76 1.76 0 012.27-.41l19.12 11.23a1.77 1.77 0 01.81 1c1.37 5 .46 10.14-2.19 12.12a39.75 39.75 0 01-18.66 4.61zM170.12 337a5.44 5.44 0 001 3.33 8.94 8.94 0 006.15 3.06 37.15 37.15 0 0020.88-3.53c.88-.65 2-3.54 1.07-7.69l-17.17-10.09z" transform="translate(-8.97 -3.25)"/></g><g id="グループ_346" data-name="グループ 346"><path id="パス_1117" data-name="パス 1117" class="cls-7" d="M193.89 342.16s-5.15 33.77-14.07 34.09c-2.36.09 3.72-20.1 2.41-24.87-.76-2.75-4.81 10.23-5.84 7.95-3.89-8.7-5.82-29.36-5.82-29.36z" transform="translate(-8.97 -3.25)"/><path id="パス_1118" data-name="パス 1118" class="cls-5" d="M179.81 378a2.15 2.15 0 01-1.62-.74c-1.17-1.37-.78-4.11.75-12.22.44-2.34 1-5.11 1.32-7.55-1.26 2.57-2.1 3.86-3.55 3.86a2.09 2.09 0 01-1.88-1.31c-4-8.87-5.9-29.06-6-29.92a1.75 1.75 0 012.57-1.72l23.33 12.19a1.77 1.77 0 01.92 1.83c-.89 5.87-5.86 35.22-15.74 35.58zm2.08-28.78h.21a2.1 2.1 0 011.83 1.68c.7 2.55-.14 7.51-1.51 14.79-.53 2.78-1.2 6.36-1.36 8.34 4.51-2.88 9-19.06 10.9-30.91l-19.27-10.08a136.31 136.31 0 004.35 23c.3-.59.58-1.2.81-1.68 1.59-3.36 2.42-5.13 4.04-5.13z" transform="translate(-8.97 -3.25)"/></g><g id="グループ_348" data-name="グループ 348"><path id="パス_1120" data-name="パス 1120" class="cls-6" d="M175.47 191.79c11.13 16.2 10.47 31.4 11.46 48.92s0 37.91 24 73.61c0 0 .33 4.85-5.78 10.14s-4.8 7.93-8.32 7.93-21.38-.88-21.38-.88l-28.25-18.07V250l3.3-23.86" transform="translate(-8.97 -3.25)"/><path id="パス_1121" data-name="パス 1121" class="cls-5" d="M196.85 334.15c-3.53 0-20.74-.84-21.47-.88a1.75 1.75 0 01-.86-.28l-28.27-18.07a1.76 1.76 0 01-.81-1.48V250a1 1 0 010-.24l3.29-23.86a1.77 1.77 0 013.51.43L149 250.09v62.38l27 17.3c2.84.14 17.69.86 20.82.86.92 0 1 0 1.91-1.48a26.11 26.11 0 015.26-6 13.1 13.1 0 005.16-8.29c-22.07-33-23-53.36-23.79-69.76-.07-1.44-.13-2.86-.21-4.26-.11-2-.21-4.06-.3-6-.7-15.07-1.3-28.09-10.85-42a1.77 1.77 0 012.83-2.11.83.83 0 00.08.12c10.12 14.73 10.77 28.85 11.46 43.82q.13 3 .3 6 .12 2.12.21 4.29c.79 16.88 1.68 36 23.51 68.43a1.93 1.93 0 01.3.86c0 .24.31 5.8-6.39 11.6a22.46 22.46 0 00-4.62 5.29 5.17 5.17 0 01-4.83 3.01z" transform="translate(-8.97 -3.25)"/></g><g id="グループ_349" data-name="グループ 349"><path id="パス_1122" data-name="パス 1122" class="cls-6" d="M76 219.76l-3.77 22.6v57.52S46.77 321 43.62 323.52s-19.33 2.81-22.8 2.15-10.09-12.23-10.09-12.23c7.61-6.95 13.89-27.77 15.21-54.22s10.67-57.17 22.21-66.59l16-3.49 9.52 11.57" transform="translate(-8.97 -3.25)"/><path id="パス_1123" data-name="パス 1123" class="cls-5" d="M26.53 327.72a42 42 0 01-6-.32c-4-.75-9.65-10.21-11.29-13.09a1.77 1.77 0 01.35-2.17c7.51-6.86 13.39-28.16 14.63-53 1.26-25.22 10.15-57.5 22.86-67.87a1.83 1.83 0 01.74-.36l16-3.49a1.77 1.77 0 011.74.61l9.52 11.57a1.77 1.77 0 01-2.73 2.24l-8.83-10.74L49 194.27c-10.4 8.91-19.89 37.9-21.25 65-1.26 25-7 46.05-14.76 54.41 3.18 5.32 6.88 10 8.21 10.21 6.23 1.19 20-.67 21.39-1.8 2.81-2.22 24-19.79 27.92-23.08v-56.7-.29l3.78-22.6a1.76 1.76 0 013.47.58L74 242.51v57.37a1.75 1.75 0 01-.62 1.36c-1 .86-25.51 21.2-28.63 23.66-2.75 2.15-11.85 2.82-18.22 2.82z" transform="translate(-8.97 -3.25)"/></g><g id="グループ_350" data-name="グループ 350"><path id="パス_1124" data-name="パス 1124" class="cls-6" d="M54.48 341.2c-3.91 3.15-7.55 14.05 1.21 17.36s8.76 1 25.62 3.8 46 2.31 59.83 1.49 35.86-.66 37.94-7.44-.21-11.15-4.05-11-54.22-4.18-54.22-4.18l-59.66-1.15z" transform="translate(-8.97 -3.25)"/><path id="パス_1125" data-name="パス 1125" class="cls-5" d="M117.23 365.09a242.43 242.43 0 01-36-2.15 118.49 118.49 0 00-14.78-1.65 29.77 29.77 0 01-11-2.18 8.28 8.28 0 01-5.66-6.67 13.93 13.93 0 014.28-11.7.66.66 0 01.27-.12l6.66-1.15 59.78 1.14c.55.05 50.45 4.33 54.19 4.18a4.75 4.75 0 014 1.89c1.66 2.16 1.89 5.77.63 9.9-1.89 6.17-17.83 6.89-31.88 7.53-2.3.1-4.53.21-6.57.32-6.26.38-14.85.66-23.92.66zm-62.49-23.33a12.86 12.86 0 00-3.74 10.5 7.09 7.09 0 004.9 5.74 28.57 28.57 0 0010.6 2.1 120.36 120.36 0 0114.91 1.66c16.33 2.73 44.65 2.38 59.7 1.48 2.06-.12 4.28-.22 6.6-.32 12.31-.56 29.17-1.32 30.81-6.7 1.15-3.76 1-7-.44-8.84a3.44 3.44 0 00-3-1.43c-3.79.12-52.21-4-54.28-4.18l-59.63-1.15z" transform="translate(-8.97 -3.25)"/></g><g id="グループ_351" data-name="グループ 351"><path id="パス_1126" data-name="パス 1126" class="cls-9" d="M67.89 280.88c0 12.27 1.07 23.3-4.76 23.3s-16.35-11-16.35-23.3c0-4.91-.49-13.07.8-16.75 1.92-5.5 6.26-5.45 9.75-5.45 5.84 0 10.56 9.94 10.56 22.2z" transform="translate(-8.97 -3.25)"/></g><g id="グループ_352" data-name="グループ 352"><path id="パス_1127" data-name="パス 1127" class="cls-9" d="M174.67 290c0 12.27-4.73 22.21-10.56 22.21s-10.55-9.94-10.55-22.21 4.73-22.2 10.55-22.2c4 0 8.77-.56 10.56 6.34.81 3.12 0 11.98 0 15.86z" transform="translate(-8.97 -3.25)"/></g><g id="グループ_353" data-name="グループ 353"><path id="パス_1128" data-name="パス 1128" class="cls-7" d="M65.72 180.55s21.7-10.55 34.81-10.46 43.09 3.74 46.4 6.27-24.28 41.15-34.87 38.7-43.81-23.94-43.81-23.94z" transform="translate(-8.97 -3.25)"/><path id="パス_1129" data-name="パス 1129" class="cls-5" d="M113 216.92a5.29 5.29 0 01-1.32-.14c-10.77-2.49-43-23.29-44.38-24.17a1.75 1.75 0 01-.75-1.07L64 181a1.76 1.76 0 011-2c.9-.43 22-10.63 35.41-10.63h.19c12 .09 43.41 3.54 47.45 6.63 1.74 1.33.81 4-.32 6.38-4.5 9.4-24 35.54-34.73 35.54zM69.8 190c4.5 2.88 33.25 21.14 42.66 23.31.89.21 3.57.17 9.25-4.61 11.23-9.46 22.93-27.36 23.7-31.22-4.58-2.1-31.64-5.55-44.88-5.65h-.18c-10.77 0-27.81 7.48-32.58 9.68z" transform="translate(-8.97 -3.25)"/></g><g id="グループ_354" data-name="グループ 354"><path id="パス_1130" data-name="パス 1130" class="cls-6" d="M160.18 215.38c10.58 5.62 16.42 25 9 48.78-1.25 4-3.55 2.95-6.29 13.72-1.41 5.55 1.64 14.51 4 24.09 2.18 9 9.94 23.6 10 23.79a19.1 19.1 0 01-1.89 19.62c-4 5.83-34.38 5.75-59.62 6.08s-53.77-6.08-53.77-6.08-10.88-2.52-13.44-16.38 3.75-14.38 8.31-28.48c3-9.28 4.53-18 1.41-28.74-1.62-5.59.11 1.19-3.42-7.68-4.91-12.37-7.18-45.65 8.25-50.52" transform="translate(-8.97 -3.25)"/><path id="パス_1131" data-name="パス 1131" class="cls-5" d="M113.54 353.23a280.44 280.44 0 01-52.29-6.13c-.5-.11-12.07-3-14.8-17.75A22.43 22.43 0 0149.78 311a54.38 54.38 0 005-11c3-9.21 4.37-17.45 1.39-27.72-.1-.36-.37-1.3-.54-1.81a17.77 17.77 0 01-2.82-5.7c-4-10-6-31.55-.16-43.8a16 16 0 019.51-9 1.76 1.76 0 011.06 3.35 12.63 12.63 0 00-7.39 7.21c-5.33 11.22-3.4 31.77.26 41a39 39 0 001.91 4.23c.69.42.92 1.19 1.6 3.55 3.41 11.78 1.33 21.28-1.42 29.78a58.2 58.2 0 01-5.33 11.66c-2.77 4.87-4.44 7.81-2.94 15.95 2.31 12.55 12 14.93 12.12 15 .27.06 28.66 6.35 53.35 6l5.42-.07c20.93-.24 49.6-.58 52.76-5.24a17.24 17.24 0 001.71-17.94l-.09-.17c-2.39-4.62-8.16-16.2-10-23.89-.46-1.91-.95-3.78-1.43-5.62-2-7.76-3.77-14.45-2.53-19.33 1.82-7.19 3.56-9.48 4.82-11.16a7.76 7.76 0 001.47-2.65c7.34-23.61 1.28-41.68-8.16-46.69a1.76 1.76 0 011.65-3.12c5.87 3.12 10.19 9.78 12.15 18.75a63.79 63.79 0 01-2.27 32.11 11.27 11.27 0 01-2 3.72c-1.15 1.52-2.58 3.41-4.22 9.91-1 4 .7 10.59 2.51 17.57.49 1.85 1 3.75 1.45 5.68 1.77 7.31 7.39 18.59 9.72 23.09.13.25.19.39.21.41a20.74 20.74 0 01-2 21.31c-3.9 5.75-24.56 6.42-55.63 6.78l-5.41.07z" transform="translate(-8.97 -3.25)"/></g><g id="グループ_355" data-name="グループ 355"><path id="パス_1132" data-name="パス 1132" class="cls-6" d="M114 215.37s32.29-33.71 31.3-36.8-6.17-6.62-18.3-6.4l-4.35-4a71.93 71.93 0 018-3.06c6.57-2.28 22.45-6.64 26.69-4.65a15.13 15.13 0 018 10.79c.66 4.2 3.08 4 4.4 6.62s2.65 7.21 0 9.77-11.9 5.43-16.75 9.18-25.56 18.99-38.99 18.55z" transform="translate(-8.97 -3.25)"/><path id="パス_1133" data-name="パス 1133" class="cls-5" d="M114.55 217.14h-.63a1.76 1.76 0 01-1.71-1.81 1.82 1.82 0 01.49-1.17c14.29-14.93 29.45-32 30.77-35.35-1-2-5.34-5.08-16.46-4.86a1.77 1.77 0 01-1.22-.46l-4.35-4a1.76 1.76 0 01-.12-2.49 1.6 1.6 0 01.46-.36 70.31 70.31 0 018.28-3.18c.21-.07 21.9-7.44 28-4.58a16.94 16.94 0 019 12.12 4.57 4.57 0 001.94 3.33 8.62 8.62 0 012.3 2.76c.91 1.82 3.57 8-.35 11.83a31.34 31.34 0 01-7.76 4.35 52.68 52.68 0 00-9.13 5c-4.12 3.17-25.17 18.87-39.51 18.87zm13.53-46.74c15.22 0 18.29 5.81 18.88 7.63.43 1.35.92 2.89-15.65 21.27-4.84 5.38-9.77 10.65-12.87 13.93 13.35-2.47 31.26-16.06 33.47-17.77a54 54 0 019.82-5.36 32.52 32.52 0 006.78-3.69c1.75-1.69.91-5.21-.35-7.72a5.35 5.35 0 00-1.46-1.69 8 8 0 01-3.11-5.44 13.44 13.44 0 00-7-9.47c-3.09-1.45-16.86 1.77-25.38 4.72-2.46.85-4.19 1.49-5.37 2l1.81 1.64z" transform="translate(-8.97 -3.25)"/></g><g id="グループ_356" data-name="グループ 356"><path id="パス_1134" data-name="パス 1134" class="cls-6" d="M70.61 152.45c-16.36 5-16.57 10.47-18.78 14s-7.27 12.79-6.61 17.85 2.65 9.47 5.73 10.57 6.39 0 13.22 3.09 48.83 17.4 48.83 17.4-47.24-32.61-47.24-34.81.88-5.29 2.86-6a10.51 10.51 0 007.27-5.51 19.29 19.29 0 019.59-8.36c2.1-.45-6.38-8.28-6.38-8.28z" transform="translate(-8.97 -3.25)"/><path id="パス_1135" data-name="パス 1135" class="cls-5" d="M113 217.13a1.84 1.84 0 01-.57-.09c-1.71-.59-42.11-14.39-48.94-17.47a25 25 0 00-9-2.31 16.49 16.49 0 01-4.06-.73c-3.5-1.25-6.07-5.74-6.89-12-.84-6.46 6.09-17.75 6.87-19a17.91 17.91 0 00.85-1.6c1.83-3.68 4.33-8.72 18.9-13.14a1.82 1.82 0 01.52-.08h8.45a1.79 1.79 0 011.2.47c7.87 7.27 7.41 9 7.19 9.77a2.11 2.11 0 01-1.64 1.52 18.21 18.21 0 00-8.33 7.31 11.87 11.87 0 01-8.1 6.43l-.24.08c-.8.27-1.53 2-1.65 3.81 3.12 3.43 29.86 22.37 46.47 33.84a1.77 1.77 0 01-1 3.22zm-42.13-62.91c-12.89 3.95-14.9 8-16.52 11.26a20.45 20.45 0 01-1 1.91c-2.45 3.91-6.92 12.42-6.36 16.68.63 4.79 2.42 8.38 4.58 9.15a13.31 13.31 0 003.2.54 28.87 28.87 0 0110.15 2.6c4.38 2 23.73 8.75 36.67 13.23-3.95-2.76-8.62-6.05-13.25-9.36C64 182.84 64 181.83 64 180.55c0-3 1.27-6.69 4.07-7.62l.25-.08a8.64 8.64 0 006-4.43 21.15 21.15 0 019.22-8.81 52.77 52.77 0 00-5.08-5.39z" transform="translate(-8.97 -3.25)"/></g><g id="グループ_357" data-name="グループ 357"><path id="パス_1136" data-name="パス 1136" class="cls-10" d="M126.32 177.68s-4 2.31-13.11 2.31-11.74-2.31-11.74-2.31v-13h24.84z" transform="translate(-8.97 -3.25)"/></g><g id="グループ_358" data-name="グループ 358"><path id="パス_1137" data-name="パス 1137" class="cls-7" d="M170.84 107.38s6.13 25.86-6 39.62c-12 13.55-30.57 18.56-50 18.12-19.39.44-38-4.57-50-18.12-12.14-13.76-6-39.62-6-39.62s38.68-62.8 53.17-64.57 55-1.76 58.78 64.57" transform="translate(-8.97 -3.25)"/><path id="パス_1138" data-name="パス 1138" class="cls-5" d="M112.47 166.91c-15.27 0-35.39-3.43-48.9-18.74-12.6-14.28-6.66-40.1-6.4-41.19a1.58 1.58 0 01.21-.52c4-6.5 39.55-63.58 54.46-65.4 10.63-1.29 26-.58 38.83 10.16 13 10.9 20.41 29.72 21.91 55.91.56 2.42 5.8 27.17-6.43 41-14.22 16.11-35.77 19.06-51.33 18.72zm2.35-3.55c14.91.34 35.37-2.43 48.69-17.53 11.4-12.92 5.67-37.79 5.61-38a1.65 1.65 0 010-.31c-1.43-25.26-8.39-43.28-20.67-53.56-11.91-9.96-26.25-10.61-36.18-9.4-3.1.38-11.21 5.06-30.79 32.22C71 91.38 61.83 106 60.54 108.06c-.58 2.72-5.07 25.59 5.68 37.77 13.31 15.1 33.78 17.86 48.6 17.53z" transform="translate(-8.97 -3.25)"/></g><g id="グループ_359" data-name="グループ 359"><path id="パス_1139" data-name="パス 1139" class="cls-5" d="M114.86 153.79a9.81 9.81 0 01-8-3.39 1.54 1.54 0 012.52-1.78 8.33 8.33 0 0011.07 0 1.54 1.54 0 012.5 1.8 9.82 9.82 0 01-8.09 3.37z" transform="translate(-8.97 -3.25)"/></g><g id="グループ_360" data-name="グループ 360"><path id="パス_1140" data-name="パス 1140" class="cls-5" d="M103.55 189.47a1.07 1.07 0 01-.55-.14l-9.35-5a1.16 1.16 0 01-.48-1.59 1.18 1.18 0 011.59-.48l9.35 5a1.17 1.17 0 01-.56 2.21z" transform="translate(-8.97 -3.25)"/></g><g id="グループ_361" data-name="グループ 361"><path id="パス_1141" data-name="パス 1141" class="cls-5" d="M122.63 189.47a1.17 1.17 0 01-.55-2.21l9.35-5a1.18 1.18 0 011.11 2.08l-9.35 5a1.18 1.18 0 01-.56.13z" transform="translate(-8.97 -3.25)"/></g><g id="グループ_362" data-name="グループ 362"><path id="パス_1142" data-name="パス 1142" class="cls-5" d="M118.26 238.94a15.55 15.55 0 01-4.88-.9c-3.82-1.29-8.14-4-7.76-7.44a72.38 72.38 0 012.09-9.31c2-6.85 2.75-7.35 3.28-7.69a1.89 1.89 0 011.21-.29l5.27.1a1.77 1.77 0 011.6 1.12c1.62 4.12 6.69 17.87 4.13 22.13a5.39 5.39 0 01-4.94 2.28zm-5.35-22.09a76.84 76.84 0 00-3.78 14.15c-.06.55 1.7 2.46 5.38 3.7 3.14 1.05 5.31.77 5.68.16 1.07-1.78-1.14-10.47-4-17.94z" transform="translate(-8.97 -3.25)"/></g><g id="グループ_363" data-name="グループ 363"><path id="パス_1143" data-name="パス 1143" class="cls-5" d="M114 219.8c1.66-.33 3.11 1.49 3.2 4.59s.42 5.7-2.73 4.92a3.53 3.53 0 01-2.52-4.32 2.78 2.78 0 01.12-.38c.15-1.05.28-4.48 1.93-4.81z" transform="translate(-8.97 -3.25)"/></g><g id="グループ_364" data-name="グループ 364"><path id="パス_1144" data-name="パス 1144" class="cls-5" d="M108.23 353.14a1.77 1.77 0 01-1.76-1.68c-.34-7 .35-37.13.8-57 .15-6.28.27-11.48.32-14.52.21-12.44 1.52-44.65 1.53-45a1.77 1.77 0 013.53.14c0 .33-1.31 32.51-1.53 44.9-.06 3-.18 8.26-.32 14.54-.45 19.85-1.14 49.85-.8 56.78a1.77 1.77 0 01-1.68 1.85h-.09z" transform="translate(-8.97 -3.25)"/></g><g id="グループ_365" data-name="グループ 365"><path id="パス_1145" data-name="パス 1145" class="cls-5" d="M117.22 353.14a1.76 1.76 0 01-1.76-1.75c-.06-6 .07-19.63.21-35.37.27-31.06.65-73.59-.19-78.62a1.77 1.77 0 113.46-.7v.12c.89 5.33.52 46.31.23 79.23-.14 15.73-.26 29.31-.21 35.31a1.76 1.76 0 01-1.74 1.78z" transform="translate(-8.97 -3.25)"/></g><g id="グループ_366" data-name="グループ 366"><path id="パス_1146" data-name="パス 1146" class="cls-4" d="M174.59 51.84c17.63 46.29 4 71.63 4 71.63 0-3.52-10.13-18.51-15.65-28s-10.8-36.6-10.8-36.6c-11.23 32.18-45 44.52-45 44.52 9-17.85 3.89-39.89 3.89-39.89S80.57 73 57.6 127.89c0 0-13.15-34.61 5-64.36q.46-.75.93-1.47a68.6 68.6 0 0116.18-17.55 65.49 65.49 0 0131.28-13" transform="translate(-8.97 -3.25)"/><path id="パス_1147" data-name="パス 1147" class="cls-5" d="M57.61 129.66a1.78 1.78 0 01-1.61-1.14c-.55-1.45-13.25-35.77 5.17-65.91.3-.47.58-.94.88-1.4l.07-.12a70.67 70.67 0 0116.55-18 66.58 66.58 0 0132.22-13.4 1.74 1.74 0 011.88 1.59 1.77 1.77 0 01-1.62 1.89 64.2 64.2 0 00-30.38 12.74 66.9 66.9 0 00-15.65 17A1.1 1.1 0 0165 63l-.9 1.43c-13.74 22.48-9 48.19-6.25 58.35 22.75-51.11 51.33-60.57 52.57-61a1.76 1.76 0 012.24 1.22v.13c.2.86 4.42 19.65-2.17 36.87 9.17-4.41 31.38-17.24 39.92-41.68a1.74 1.74 0 011.79-1.18 1.76 1.76 0 011.6 1.42c.06.27 5.3 27 10.6 36.05 1.55 2.66 3.43 5.71 5.43 9 4 6.44 7 11.41 8.76 14.94 2.89-8.83 7.43-31.6-5.68-66a1.76 1.76 0 113.29-1.26c17.72 46.5 4.44 72 3.87 73.09a1.77 1.77 0 01-3.32-.84c0-2-6-11.68-9.92-18.06-2-3.25-3.91-6.33-5.48-9-4.07-7-7.92-22.85-9.81-31.43-12.95 28.52-42.55 39.64-43.88 40.12a1.76 1.76 0 01-2.18-2.45c7-14 5.1-30.88 4.13-36.65-6.85 3.12-31.32 17-50.41 62.6a1.78 1.78 0 01-1.59.99z" transform="translate(-8.97 -3.25)"/></g><g id="グループ_368" data-name="グループ 368"><path id="パス_1149" data-name="パス 1149" class="cls-5" d="M100.53 177.57a1.76 1.76 0 01-1.76-1.76v-11.43a1.77 1.77 0 113.53-.12v11.55a1.76 1.76 0 01-1.77 1.76z" transform="translate(-8.97 -3.25)"/></g><g id="グループ_369" data-name="グループ 369"><path id="パス_1150" data-name="パス 1150" class="cls-5" d="M126.32 179a1.76 1.76 0 01-1.76-1.77v-12.52a1.77 1.77 0 013.53 0v12.53a1.77 1.77 0 01-1.77 1.77z" transform="translate(-8.97 -3.25)"/></g><g id="グループ_370" data-name="グループ 370"><path id="パス_1151" data-name="パス 1151" class="cls-10" d="M115.18 130.76c-3.75 1.24-6.38.68-4.7-1.87s2.87-2.42 5.29-2.31 5.52 3 3.85 4.29-3.04-.57-4.44-.11z" transform="translate(-8.97 -3.25)"/></g><g id="グループ_371" data-name="グループ 371"><ellipse id="楕円形_27" data-name="楕円形 27" class="cls-5" cx="105.89" cy="127.96" rx="1.04" ry="1.15"/></g><g id="グループ_372" data-name="グループ 372"><path id="パス_1152" data-name="パス 1152" class="cls-9" d="M168.36 321a4 4 0 01-1.68 2.16c-4.19 2.21-10.25-1.42-16.2.34a43.34 43.34 0 01-20.93 0c-6.29-1.66-2.54-8.16 11.79-11.46s13-11.49 19.5-9.81a8.78 8.78 0 013.95 2.22 54.51 54.51 0 003.08 15.41z" transform="translate(-8.97 -3.25)"/></g><g id="グループ_373" data-name="グループ 373"><path id="パス_1153" data-name="パス 1153" class="cls-9" d="M146.11 277.74c-7.81 1.41-18.51-8.43-17.2-14.38s29.26-5.46 31.08 1-10.24 12.72-13.88 13.38z" transform="translate(-8.97 -3.25)"/></g><g id="グループ_374" data-name="グループ 374"><path id="パス_1154" data-name="パス 1154" class="cls-9" d="M78.26 277.74c7.81 1.41 18.52-8.43 17.2-14.38s-29.26-5.46-31.07 1 10.24 12.72 13.87 13.38z" transform="translate(-8.97 -3.25)"/></g><g id="グループ_383" data-name="グループ 383"><g id="グループ_381" data-name="グループ 381"><g id="グループ_375" data-name="グループ 375"><path id="パス_1155" data-name="パス 1155" class="cls-5" d="M171 90.52a21.07 21.07 0 00-15.56-6c-9.78.35-16.79 8.73-16.79 8.73a35.46 35.46 0 0117-5.69A26.76 26.76 0 01171 90.52z" transform="translate(-8.97 -3.25)"/></g><g id="グループ_379" data-name="グループ 379"><g id="グループ_376" data-name="グループ 376"><path id="パス_1156" data-name="パス 1156" class="cls-5" d="M165.26 119.53a1.57 1.57 0 01-.81-2.92 11.64 11.64 0 004.4-7.18 8.81 8.81 0 00-1.3-7.32 11.73 11.73 0 00-8.9-4.13c-9.22-.73-15.15.49-25.9 9.66a1.57 1.57 0 11-2-2.39c11.49-9.84 18.25-11.19 28.15-10.41 6.35.51 9.59 3.22 11.19 5.41a12 12 0 011.82 9.9 14.69 14.69 0 01-5.83 9.15 1.56 1.56 0 01-.82.23z" transform="translate(-8.97 -3.25)"/></g><g id="グループ_377" data-name="グループ 377"><path id="パス_1157" data-name="パス 1157" class="cls-5" d="M155 96.15s4.33-2.56 5.36-5a.36.36 0 01.46-.2.28.28 0 01.16.12 5.44 5.44 0 011 5.81z" transform="translate(-8.97 -3.25)"/></g><g id="グループ_378" data-name="グループ 378"><path id="パス_1158" data-name="パス 1158" class="cls-5" d="M166.4 98.85a12.28 12.28 0 004.46-2.85.54.54 0 01.77-.12.47.47 0 01.19.25c.83 2.34 2.21 7.85-1.12 12.15z" transform="translate(-8.97 -3.25)"/></g></g><g id="グループ_380" data-name="グループ 380"><ellipse id="楕円形_28" data-name="楕円形 28" class="cls-5" cx="136.22" cy="112.06" rx="11.95" ry="16.08"/><path id="パス_1159" data-name="パス 1159" class="cls-5" d="M145.19 133.16c-7.56 0-13.71-8-13.71-17.85s6.15-17.85 13.71-17.85 13.71 8 13.71 17.85-6.15 17.85-13.71 17.85zm0-32.17c-5.62 0-10.19 6.42-10.19 14.32s4.57 14.32 10.19 14.32 10.19-6.42 10.19-14.32S150.81 101 145.19 101z" transform="translate(-8.97 -3.25)"/></g></g><g id="グループ_382" data-name="グループ 382"><ellipse id="楕円形_29" data-name="楕円形 29" class="cls-11" cx="136.22" cy="112.06" rx="3.67" ry="6.29"/></g></g><g id="グループ_391" data-name="グループ 391"><g id="グループ_384" data-name="グループ 384"><path id="パス_1160" data-name="パス 1160" class="cls-5" d="M59.18 90.52a21.09 21.09 0 0115.56-6c9.78.35 16.8 8.73 16.8 8.73a35.49 35.49 0 00-17-5.69 26.79 26.79 0 00-15.36 2.96z" transform="translate(-8.97 -3.25)"/></g><g id="グループ_388" data-name="グループ 388"><g id="グループ_385" data-name="グループ 385"><path id="パス_1161" data-name="パス 1161" class="cls-5" d="M64.88 119.53a1.58 1.58 0 01-.81-.23 14.66 14.66 0 01-5.83-9.15 12.09 12.09 0 011.83-9.9c1.6-2.19 4.84-4.9 11.19-5.41 9.92-.78 16.66.58 28.19 10.41a1.57 1.57 0 11-2 2.39C86.66 98.47 80.73 97.25 71.5 98a11.67 11.67 0 00-8.89 4.13 8.78 8.78 0 00-1.3 7.32 11.6 11.6 0 004.4 7.18 1.58 1.58 0 01-.84 2.92z" transform="translate(-8.97 -3.25)"/></g><g id="グループ_386" data-name="グループ 386"><path id="パス_1162" data-name="パス 1162" class="cls-5" d="M75.12 96.15s-4.33-2.56-5.36-5a.35.35 0 00-.46-.15.31.31 0 00-.17.13 5.44 5.44 0 00-1 5.81z" transform="translate(-8.97 -3.25)"/></g><g id="グループ_387" data-name="グループ 387"><path id="パス_1163" data-name="パス 1163" class="cls-5" d="M63.76 98.85A12.29 12.29 0 0159.31 96a.56.56 0 00-.78-.12.53.53 0 00-.19.25c-.83 2.34-2.21 7.85 1.12 12.15z" transform="translate(-8.97 -3.25)"/></g></g><g id="グループ_389" data-name="グループ 389"><ellipse id="楕円形_30" data-name="楕円形 30" class="cls-5" cx="75.99" cy="112.06" rx="11.95" ry="16.08"/><path id="パス_1164" data-name="パス 1164" class="cls-5" d="M85 133.16c-7.56 0-13.71-8-13.71-17.85S77.4 97.46 85 97.46s13.72 8 13.72 17.85-6.2 17.85-13.72 17.85zM85 101c-5.61 0-10.19 6.42-10.19 14.32s4.54 14.31 10.19 14.31 10.19-6.42 10.19-14.32S90.58 101 85 101z" transform="translate(-8.97 -3.25)"/></g><g id="グループ_390" data-name="グループ 390"><ellipse id="楕円形_31" data-name="楕円形 31" class="cls-11" cx="75.99" cy="112.06" rx="3.67" ry="6.29"/></g></g><g id="グループ_392" data-name="グループ 392"><path id="パス_1165" data-name="パス 1165" class="cls-12" d="M84.51 58.93c-1.85 7-8.13 11.38-14 9.81a10.42 10.42 0 01-6.94-6.68 68.3 68.3 0 0116.15-17.55 12.84 12.84 0 014.79 14.42z" transform="translate(-8.97 -3.25)"/></g><g id="グループ_393" data-name="グループ 393"><ellipse id="楕円形_32" data-name="楕円形 32" class="cls-12" cx="86.25" cy="62.27" rx="5.45" ry="4.58" transform="rotate(-75.06 79.645 66.49)"/></g><g id="グループ_394" data-name="グループ 394"><path id="パス_1166" data-name="パス 1166" class="cls-12" d="M194.79 76.58a4.42 4.42 0 01-2.11.52 6 6 0 010-11.8 4.2 4.2 0 011.27.19 91.51 91.51 0 01.84 11.09z" transform="translate(-8.97 -3.25)"/></g><g id="グループ_395" data-name="グループ 395"><ellipse id="楕円形_33" data-name="楕円形 33" class="cls-12" cx="182.39" cy="71.59" rx="3.14" ry="2.57" transform="rotate(-24.11 170.293 90.984)"/></g><g id="グループ_396" data-name="グループ 396"><path id="パス_1167" data-name="パス 1167" class="cls-5" d="M55.91 161.75a1.76 1.76 0 01-1.76-1.75 1.73 1.73 0 01.26-.92c5.59-9.12 2.15-26.18 2.11-26.35A1.77 1.77 0 0160 132c.15.75 3.77 18.59-2.57 28.91a1.72 1.72 0 01-1.52.84z" transform="translate(-8.97 -3.25)"/></g><g id="グループ_397" data-name="グループ 397"><path id="パス_1168" data-name="パス 1168" class="cls-5" d="M107.1 105.18a1.76 1.76 0 01-1.76-1.77A1.74 1.74 0 01106 102c25-19.52 24-43.12 24-43.35a1.76 1.76 0 013.52-.21c.07 1 1.27 25.62-25.3 46.34a1.7 1.7 0 01-1.12.4z" transform="translate(-8.97 -3.25)"/></g><g id="グループ_401" data-name="グループ 401"><ellipse id="楕円形_34" data-name="楕円形 34" class="cls-10" cx="66.11" cy="140.55" rx="7.97" ry="3.8"/></g><g id="グループ_402" data-name="グループ 402"><ellipse id="楕円形_35" data-name="楕円形 35" class="cls-10" cx="146.76" cy="140.55" rx="7.97" ry="3.8"/></g></g><path class="cls-13" d="M45 607.86h59a4.3 4.3 0 004.3-4.3v-21.79l-41.8-4.16q-1.21-.12-2.43-.12a27.13 27.13 0 00-24.46 15.37l-1.75 3.63A7.93 7.93 0 0045 607.86zM185.45 607.86h-59a4.3 4.3 0 01-4.3-4.3v-21.79l41.8-4.16c.8-.08 1.62-.12 2.43-.12a27.13 27.13 0 0124.46 15.37l1.75 3.63a7.93 7.93 0 01-7.14 11.37z" transform="translate(-8.97 -3.25)"/></g></g></svg>