<svg xmlns="http://www.w3.org/2000/svg" width="38.631" height="32.008"><g data-name="グループ 1114"><path data-name="パス 1671" d="M37.984 5.601a9.718 9.718 0 00-11.052 1.143 13.361 13.361 0 00-7.622-3.049h-1.144a13.361 13.361 0 00-7.622 3.049 11.65 11.65 0 00-9.528-6.1s0 8.384 5.335 9.527c-8 9.527-8 16.616 2.668 18.9.762 2.287 1.524 2.287 1.524 2.287a2.708 2.708 0 002.287-1.524h11.813a2.708 2.708 0 002.287 1.524s.762 0 1.524-2.287c10.671-2.286 10.671-9.375 2.667-18.9 6.101-.76 6.863-4.57 6.863-4.57z" fill="#ffedd1"/><path data-name="パス 1672" d="M26.932 32.008a3.347 3.347 0 01-2.661-1.524H13.206a3.347 3.347 0 01-2.661 1.524c-.351 0-1.225-.24-2.015-2.379-4.466-1.024-7.21-2.945-8.161-5.716-1.178-3.435.46-7.941 4.871-13.405C.429 8.573.371.988.371.647a.646.646 0 01.646-.646 12.153 12.153 0 019.711 5.791 13.75 13.75 0 017.438-2.742h1.144a13.8 13.8 0 017.61 2.869c5.508-4.315 11.336-.908 11.4-.871a.645.645 0 01.3.681c-.032.164-.822 3.789-6.282 4.9 4.336 5.409 5.942 9.874 4.773 13.283-.95 2.77-3.7 4.692-8.161 5.716-.792 2.14-1.666 2.38-2.018 2.38zM1.697 1.343c.14 1.948.882 7.36 4.792 8.2a.646.646 0 01.359 1.047c-4.5 5.355-6.315 9.817-5.256 12.9.818 2.384 3.363 4.05 7.564 4.95a.645.645 0 01.478.428c.459 1.375.873 1.751 1 1.838a2.07 2.07 0 001.623-1.161.646.646 0 01.578-.357h11.814a.646.646 0 01.578.357 2.07 2.07 0 001.623 1.161c.125-.088.539-.464 1-1.838a.645.645 0 01.478-.428c4.2-.9 6.746-2.566 7.564-4.95 1.06-3.088-.758-7.55-5.256-12.9a.646.646 0 01.415-1.057c4.336-.542 5.738-2.679 6.15-3.615a8.923 8.923 0 00-9.842 1.317.647.647 0 01-.824.014 12.873 12.873 0 00-7.219-2.907h-1.142a12.874 12.874 0 00-7.218 2.907.647.647 0 01-.968-.188 11.02 11.02 0 00-8.29-5.718z" fill="#2e2e2e"/></g><g data-name="グループ 1118"><g data-name="グループ 1115"><path data-name="パス 1673" d="M25.777 15.52s-.2-3.849-6.86-3.811h-.762c-6.365-.038-6.859 3.811-6.859 3.811-.294 4.024 14.671 4.024 14.481 0z" fill="#f0d1a0"/><path data-name="パス 1674" d="M18.503 19.011a13.009 13.009 0 01-6.33-1.331 2.347 2.347 0 01-1.337-2.192.226.226 0 010-.025c.022-.173.618-4.214 7.222-4.214h.959c6.915 0 7.209 4.074 7.219 4.249a2.438 2.438 0 01-1.463 2.228 13.373 13.373 0 01-6.27 1.285zm-6.748-3.44c-.028.488.276.934.905 1.325 2.5 1.553 9.029 1.573 11.647.036.692-.406 1.031-.872 1.009-1.385-.013-.168-.332-3.376-6.3-3.376h-.953c-5.638 0-6.266 3.138-6.307 3.399z" fill="#2e2e2e"/></g><g data-name="グループ 1116"><rect data-name="長方形 209" width="1.829" height=".915" rx=".457" transform="rotate(-79.98 17.07 -1.032)" fill="#2e2e2e"/></g><g data-name="グループ 1117"><rect data-name="長方形 210" width=".915" height="1.829" rx=".457" transform="rotate(-10 92.2 -111.336)" fill="#2e2e2e"/></g></g></svg>