<svg xmlns="http://www.w3.org/2000/svg" viewBox="0 0 182.8 248.48"><defs><style>.cls-1{fill:#535353}.cls-2{fill:#000333}.cls-4{fill:#ffbdad}.cls-5{fill:#fff}.cls-6{fill:#868686}</style></defs><g id="レイヤー_2" data-name="レイヤー 2"><g id="_女_表情パターン_顔だけ_" data-name="【女】表情パターン（顔だけ）"><g id="ノーマル"><g id="グループ_335" data-name="グループ 335"><path id="パス_1098" data-name="パス 1098" class="cls-1" d="M175 112.06s-2 16.81 6 20.62c0 0-16.62 7.48-18.28-6.62s12.28-14 12.28-14z"/><path id="パス_1099" data-name="パス 1099" class="cls-2" d="M172.13 136.42a12.12 12.12 0 01-6-1.42 10.78 10.78 0 01-5.11-8.73 13.92 13.92 0 012.94-11.36A16 16 0 01175 110.3a1.77 1.77 0 011.75 1.78 1.1 1.1 0 010 .18c-.5 4.33-.57 16.15 5 18.82a1.76 1.76 0 010 3.2 26.5 26.5 0 01-9.62 2.14zm.94-22.4a11.28 11.28 0 00-6.51 3.26 10.61 10.61 0 00-2.06 8.58 7.39 7.39 0 003.35 6.08c2.67 1.51 6.63 1 9.52.17-4.4-4.82-4.51-13.92-4.29-18.09z"/></g><g id="グループ_336" data-name="グループ 336"><path id="パス_1100" data-name="パス 1100" class="cls-1" d="M52 22.21S23 58.63 1.81 53.67c0 0 19.48 13.22 41.81-7.27S52 22.21 52 22.21z"/><path id="パス_1101" data-name="パス 1101" class="cls-2" d="M17.4 59.57A32.26 32.26 0 01.78 55.13 1.76 1.76 0 012.17 52a16 16 0 003.83.37c19.46 0 44.35-30.93 44.62-31.26a1.77 1.77 0 011.83-.6 7.84 7.84 0 015.38 5.43c1.31 5.3-3.07 12.62-13 21.75S25.07 59.57 17.4 59.57zm-6.72-4.17c7.32 1.69 18.94 1.41 31.7-10.3C54.09 34.35 54.92 29 54.37 26.79a4 4 0 00-1.89-2.43c-4.33 5.23-23.71 27.43-41.8 31.04z"/></g><g id="グループ_340" data-name="グループ 340"><path id="パス_1107" data-name="パス 1107" class="cls-1" d="M176.24 107.88c-9.69 33.94-25.11 48.92-14.54 80.66s-57.16 58.18-57.16 58.18L23.31 204c-2.21-22.92-.89-28.6 3.07-42.07s6.18-36.83 1.77-55.34S20.66 52.35 46.22 25s69.65-30 103.14-10.58c18.9 11 28.13 28.5 30.83 47.81a89.23 89.23 0 01.81 11.1 118.8 118.8 0 01-4.76 34.55z"/><path id="パス_1108" data-name="パス 1108" class="cls-2" d="M104.54 248.48a1.67 1.67 0 01-.82-.21l-81.23-42.74a1.77 1.77 0 01-.94-1.4c-2.21-23-.92-28.91 3.15-42.73s5.94-36.8 1.74-54.44c-3.62-15.19-9-53.69 18.5-83.15 25.27-27 69.56-31.59 105.31-10.9 17.68 10.23 28.63 27.21 31.68 49.09a91 91 0 01.86 11.3 120.94 120.94 0 01-4.85 35.07 259.76 259.76 0 01-9.13 25.7c-7.4 18.55-12.75 32-5.43 53.91 4.6 13.81-4.14 28.68-25.3 43a192.17 192.17 0 01-32.9 17.37 1.74 1.74 0 01-.64.13zM25 202.86l79.66 41.92c7.24-3 64.75-27.62 55.4-55.68-7.73-23.18-1.89-37.81 5.5-56.33a258.2 258.2 0 009-25.37 117.67 117.67 0 004.72-34 90.09 90.09 0 00-.84-10.88c-2.89-20.76-13.25-36.84-30-46.52C114.13-3.91 71.67.4 47.51 26.23c-26.39 28.21-21.13 65.29-17.65 79.92 4.54 19.08 2.26 42.54-1.79 56.26-3.94 13.43-5.13 18.85-3.09 40.44z"/></g><g id="グループ_342" data-name="グループ 342"><path id="パス_1111" data-name="パス 1111" class="cls-2" d="M151 167.6a1.75 1.75 0 01-1.53-.9c-5.32-9.44 1.23-26.66 1.51-27.39a1.76 1.76 0 013.29 1.27c-.06.17-6.23 16.41-1.73 24.39a1.76 1.76 0 01-.67 2.4 1.74 1.74 0 01-.87.23z"/></g><g id="グループ_358" data-name="グループ 358"><path id="パス_1137" data-name="パス 1137" d="M157.08 104.14s6.13 25.85-6 39.61c-12 13.55-30.58 18.56-50 18.12-19.39.44-38-4.57-50-18.12-12.14-13.76-6-39.61-6-39.61S83.8 41.33 98.29 39.56s55-1.76 58.79 64.58" fill="#ffedd9"/><path id="パス_1138" data-name="パス 1138" class="cls-2" d="M98.7 163.66c-15.26 0-35.39-3.43-48.89-18.74-12.6-14.28-6.66-40.1-6.4-41.19a1.67 1.67 0 01.21-.52c4-6.5 39.55-63.58 54.45-65.4 10.63-1.29 26-.58 38.84 10.16 13 10.9 20.41 29.72 21.91 55.91.55 2.42 5.8 27.17-6.44 41-14.21 16.12-35.76 19.12-51.33 18.76zm2.36-3.55c14.91.34 35.37-2.43 48.68-17.53 11.41-12.92 5.68-37.79 5.62-38a1.54 1.54 0 01-.05-.31C153.89 79 146.93 61 134.65 50.67c-11.87-9.93-26.22-10.57-36.15-9.36-3.09.38-11.21 5.06-30.79 32.22-10.53 14.6-19.64 29.2-20.93 31.28-.59 2.72-5.07 25.59 5.67 37.77 13.32 15.1 33.79 17.87 48.61 17.53z"/></g><g id="グループ_359" data-name="グループ 359"><path id="パス_1139" data-name="パス 1139" class="cls-2" d="M101.1 150.54a9.8 9.8 0 01-8-3.39 1.54 1.54 0 012.52-1.78 8.32 8.32 0 0011.06 0 1.55 1.55 0 012.15-.32 1.52 1.52 0 01.35 2.12 9.8 9.8 0 01-8.08 3.37z"/></g><g id="グループ_366" data-name="グループ 366"><path id="パス_1146" data-name="パス 1146" class="cls-1" d="M160.82 48.6c17.63 46.28 4 71.62 4 71.62 0-3.52-10.13-18.51-15.64-28s-10.8-36.6-10.8-36.6c-11.24 32.18-45 44.52-45 44.52 9-17.85 3.89-39.89 3.89-39.89s-30.47 9.54-53.43 64.39c0 0-13.15-34.61 5-64.36.31-.49.61-1 .93-1.47A68.48 68.48 0 0166 41.26a65.45 65.45 0 0131.27-13"/><path id="パス_1147" data-name="パス 1147" class="cls-2" d="M43.84 126.41a1.79 1.79 0 01-1.62-1.14c-.58-1.45-13.22-35.77 5.15-65.91.29-.47.58-.94.88-1.39a.47.47 0 01.07-.12 70.55 70.55 0 0116.55-18 66.64 66.64 0 0132.21-13.4 1.75 1.75 0 011.92 1.6A1.77 1.77 0 0197.35 30 64.28 64.28 0 0067 42.66a66.86 66.86 0 00-15.64 17l-.09.14c-.31.47-.6.95-.9 1.43-13.74 22.48-9 48.19-6.25 58.35C66.86 68.44 95.45 59 96.69 58.59a1.75 1.75 0 012.2 1.15.74.74 0 010 .14c.2.85 4.42 19.64-2.17 36.86 9.16-4.41 31.38-17.24 39.92-41.68a1.74 1.74 0 011.79-1.18 1.76 1.76 0 011.6 1.42c.05.27 5.3 27 10.59 36.06 1.55 2.66 3.44 5.71 5.44 8.94 4 6.44 7 11.41 8.76 15 2.88-8.84 7.43-31.61-5.68-66a1.76 1.76 0 113.33-1.3c17.71 46.5 4.44 72 3.86 73.09a1.76 1.76 0 01-3.31-.84c0-2-6-11.67-9.92-18.06-2-3.25-3.91-6.33-5.48-9-4.07-7-7.93-22.85-9.81-31.42-13 28.52-42.55 39.63-43.88 40.11a1.76 1.76 0 01-2.27-1 1.8 1.8 0 01.09-1.4c7-14 5.09-30.88 4.13-36.65-6.86 3.12-31.32 17-50.42 62.6a1.78 1.78 0 01-1.62.98z"/></g><g id="グループ_370" data-name="グループ 370"><path id="パス_1151" data-name="パス 1151" class="cls-4" d="M101.42 127.51c-3.76 1.24-6.38.69-4.7-1.87s2.87-2.42 5.29-2.31 5.52 3 3.84 4.29-3.04-.57-4.43-.11z"/></g><g id="グループ_371" data-name="グループ 371"><ellipse id="楕円形_27" data-name="楕円形 27" class="cls-2" cx="101.1" cy="127.96" rx="1.04" ry="1.15"/></g><g id="グループ_383" data-name="グループ 383"><g id="グループ_381" data-name="グループ 381"><g id="グループ_375" data-name="グループ 375"><path id="パス_1155" data-name="パス 1155" class="cls-2" d="M157.21 87.27a21.09 21.09 0 00-15.56-6c-9.78.35-16.8 8.73-16.8 8.73a35.38 35.38 0 0117-5.68 26.7 26.7 0 0115.36 2.95z"/></g><g id="グループ_379" data-name="グループ 379"><g id="グループ_376" data-name="グループ 376"><path id="パス_1156" data-name="パス 1156" class="cls-2" d="M151.5 116.28a1.57 1.57 0 01-1.57-1.58 1.55 1.55 0 01.75-1.34 11.61 11.61 0 004.41-7.18 8.81 8.81 0 00-1.3-7.32 11.73 11.73 0 00-8.9-4.13c-9.23-.73-15.16.5-25.9 9.66a1.57 1.57 0 01-2-2.39c11.54-9.83 18.28-11.19 28.2-10.4 6.35.5 9.59 3.21 11.19 5.4a12.08 12.08 0 011.82 9.9 14.66 14.66 0 01-5.83 9.15 1.59 1.59 0 01-.87.23z"/></g><g id="グループ_377" data-name="グループ 377"><path id="パス_1157" data-name="パス 1157" class="cls-2" d="M141.27 92.9s4.33-2.56 5.36-5a.36.36 0 01.46-.2.38.38 0 01.16.12 5.47 5.47 0 011 5.82z"/></g><g id="グループ_378" data-name="グループ 378"><path id="パス_1158" data-name="パス 1158" class="cls-2" d="M152.64 95.6a12.16 12.16 0 004.45-2.81.56.56 0 01.78-.12.53.53 0 01.19.25c.83 2.35 2.21 7.85-1.12 12.15z"/></g></g><g id="グループ_380" data-name="グループ 380"><ellipse id="楕円形_28" data-name="楕円形 28" class="cls-2" cx="131.43" cy="112.06" rx="11.95" ry="16.08"/><path id="パス_1159" data-name="パス 1159" class="cls-2" d="M131.43 129.91c-7.56 0-13.72-8-13.72-17.85s6.16-17.85 13.72-17.85 13.71 8 13.71 17.85-6.14 17.85-13.71 17.85zm0-32.17c-5.62 0-10.19 6.43-10.19 14.32s4.57 14.32 10.19 14.32 10.18-6.42 10.18-14.32-4.56-14.32-10.18-14.32z"/></g></g><g id="グループ_382" data-name="グループ 382"><ellipse id="楕円形_29" data-name="楕円形 29" class="cls-5" cx="131.43" cy="112.06" rx="3.67" ry="6.29"/></g></g><g id="グループ_391" data-name="グループ 391"><g id="グループ_384" data-name="グループ 384"><path id="パス_1160" data-name="パス 1160" class="cls-2" d="M45.42 87.27a21.07 21.07 0 0115.56-6C70.76 81.6 77.77 90 77.77 90a35.3 35.3 0 00-17-5.68 26.67 26.67 0 00-15.35 2.95z"/></g><g id="グループ_388" data-name="グループ 388"><g id="グループ_385" data-name="グループ 385"><path id="パス_1161" data-name="パス 1161" class="cls-2" d="M51.12 116.28a1.53 1.53 0 01-.81-.23 14.66 14.66 0 01-5.83-9.15A12.08 12.08 0 0146.3 97c1.6-2.19 4.84-4.9 11.19-5.4 9.92-.78 16.67.57 28.2 10.4a1.57 1.57 0 11-2 2.39C72.9 95.23 67 94 57.74 94.73a11.73 11.73 0 00-8.9 4.13 8.81 8.81 0 00-1.3 7.32 11.64 11.64 0 004.46 7.19 1.58 1.58 0 01-.84 2.91z"/></g><g id="グループ_386" data-name="グループ 386"><path id="パス_1162" data-name="パス 1162" class="cls-2" d="M61.35 92.9S57 90.34 56 87.94a.37.37 0 00-.47-.21.4.4 0 00-.16.13 5.45 5.45 0 00-1 5.82z"/></g><g id="グループ_387" data-name="グループ 387"><path id="パス_1163" data-name="パス 1163" class="cls-2" d="M50 95.6a12.28 12.28 0 01-4.46-2.81.56.56 0 00-1 .13c-.82 2.35-2.2 7.85 1.13 12.15z"/></g></g><g id="グループ_389" data-name="グループ 389"><ellipse id="楕円形_30" data-name="楕円形 30" class="cls-2" cx="71.2" cy="112.06" rx="11.95" ry="16.08"/><path id="パス_1164" data-name="パス 1164" class="cls-2" d="M71.2 129.91c-7.56 0-13.71-8-13.71-17.85s6.15-17.85 13.71-17.85 13.71 8 13.71 17.85-6.15 17.85-13.71 17.85zm0-32.17c-5.62 0-10.19 6.43-10.19 14.32s4.57 14.32 10.19 14.32 10.19-6.38 10.19-14.32-4.57-14.32-10.19-14.32z"/></g><g id="グループ_390" data-name="グループ 390"><ellipse id="楕円形_31" data-name="楕円形 31" class="cls-5" cx="71.2" cy="112.06" rx="3.67" ry="6.29"/></g></g><g id="グループ_392" data-name="グループ 392"><path id="パス_1165" data-name="パス 1165" class="cls-6" d="M70.75 55.69c-1.86 7-8.13 11.37-14 9.8a10.43 10.43 0 01-7-6.68A68.83 68.83 0 0166 41.26a12.86 12.86 0 014.75 14.43z"/></g><g id="グループ_393" data-name="グループ 393"><ellipse id="楕円形_32" data-name="楕円形 32" class="cls-6" cx="72.49" cy="59.02" rx="5.45" ry="4.58" transform="rotate(-75.06 72.484 59.022)"/></g><g id="グループ_394" data-name="グループ 394"><path id="パス_1166" data-name="パス 1166" class="cls-6" d="M181 73.33a4.46 4.46 0 01-2.11.53 6 6 0 010-11.8 4.13 4.13 0 011.26.18 91.52 91.52 0 01.85 11.09z"/></g><g id="グループ_395" data-name="グループ 395"><ellipse id="楕円形_33" data-name="楕円形 33" class="cls-6" cx="168.63" cy="68.35" rx="3.14" ry="2.57" transform="rotate(-24.11 168.615 68.348)"/></g><g id="グループ_396" data-name="グループ 396"><path id="パス_1167" data-name="パス 1167" class="cls-2" d="M42.15 158.51a1.77 1.77 0 01-1.51-2.69c5.6-9.12 2.15-26.18 2.12-26.35a1.76 1.76 0 113.45-.72c.16.75 3.78 18.59-2.56 28.91a1.75 1.75 0 01-1.5.85z"/></g><g id="グループ_397" data-name="グループ 397"><path id="パス_1168" data-name="パス 1168" class="cls-2" d="M93.33 101.93a1.76 1.76 0 01-1.08-3.14c25-19.52 24-43.12 24-43.35a1.76 1.76 0 013.52-.21c.06 1 1.27 25.62-25.31 46.34a1.7 1.7 0 01-1.13.36z"/></g><g id="グループ_401" data-name="グループ 401"><ellipse id="楕円形_34" data-name="楕円形 34" class="cls-4" cx="61.32" cy="140.55" rx="7.97" ry="3.8"/></g><g id="グループ_402" data-name="グループ 402"><ellipse id="楕円形_35" data-name="楕円形 35" class="cls-4" cx="141.96" cy="140.55" rx="7.97" ry="3.8"/></g></g></g></g></svg>