<svg xmlns="http://www.w3.org/2000/svg" viewBox="0 0 222.26 636.29"><defs><style>.cls-1{fill:#111}.cls-2,.cls-4{fill:#2c4e88}.cls-2,.cls-3,.cls-4,.cls-7,.cls-8{stroke:#000931;stroke-linecap:round;stroke-linejoin:round}.cls-2,.cls-3,.cls-8{stroke-width:3px}.cls-3{fill:#fcecda}.cls-4,.cls-7{stroke-width:2px}.cls-5{fill:#1c3b69}.cls-7,.cls-8{fill:none}.cls-9{fill:#000931}.cls-10{fill:#7b5f32}</style></defs><g id="レイヤー_2" data-name="レイヤー 2"><g id="_男_表情パターン" data-name="【男】表情パターン"><g id="体調良い時"><g id="体"><g id="下半身"><path class="cls-1" d="M48.66 382.24s9.18 76.81 11.14 97.95C61.65 500.15 77 611.61 77 611.61h22.15l8.75-186.3.32 3v-50.06zM168 382.24s-9.17 76.81-11.14 97.95c-1.85 20-17.22 131.42-17.22 131.42h-22.09l-8.74-186.3-.33 3v-50.06z"/><path d="M37.78 636.29h59a4.3 4.3 0 004.3-4.3V610.2l-41.8-4.2q-1.22-.12-2.43-.12a27.14 27.14 0 00-24.46 15.38l-1.75 3.63a7.93 7.93 0 007.14 11.4zM178.27 636.29h-59A4.3 4.3 0 01115 632v-21.8l41.8-4.17q1.22-.12 2.43-.12a27.14 27.14 0 0124.46 15.38l1.75 3.63a7.93 7.93 0 01-7.17 11.37z"/></g><g id="上半身"><path class="cls-2" d="M11.85 353.93s-2 8.15 3.1 9.13 23.5 0 23.5 0L49 347.24l-13.88-2.68z"/><path class="cls-3" d="M24.53 363.45s-1.81 28.83 12.61 29.74l-1-20.28 8.86 8.16 5.92-29.23z"/><path class="cls-4" d="M165.36 192.44a48.83 48.83 0 015.24 3.56c1.55 1.35 9.36 19.12 8.15 30.56s3.07 132.16 3.07 132.16 1.72 18.58-12.7 20.53S63.5 372 63.5 372s-30.3-20.69-31.76-42 4.15-89.63 4.15-89.63L50.73 200l24.82-7.53z"/><path class="cls-2" d="M67.12 237l-4.17 25v63.52s-28.11 23.37-31.58 26.11-21.37 3.03-25.19 2.3-4.68-12.26-4.68-12.26c2.22-13.91 8.88-31.91 10.34-61.12S23.62 217.41 36.37 207l17.72-3.86 10.51 12.79M208.53 353.93s2 8.15-3.1 9.13-23.49 0-23.49 0l-10.58-15.82 13.87-2.68z"/><path class="cls-3" d="M195.85 363.45s3.69 28.83-10.73 29.74l-.9-20.28-7.9 10.77-6.84-31.84z"/><path class="cls-2" d="M153.27 237l4.16 25v63.52s28.11 23.37 31.58 26.11 21.36 3.1 25.19 2.37 6.56-12.16 6.56-12.16c-2-15.63-10.76-32-12.22-61.22S196.76 217.41 184 207l-17.7-11.21-13.52 6.44"/><path class="cls-4" d="M43.36 363.73C39 367.2 35 379.24 44.7 382.9s9.67 1.1 28.3 4.19 50.75 2.56 66.08 1.65 39.61-.73 41.89-8.22-.24-12.32-4.47-12.18-59.87-4.61-59.87-4.61l-65.9-1.28z"/><path class="cls-5" d="M58.17 304.47c0 13.55 1.18 25.73-5.25 25.73S34.86 318 34.86 304.47c0-5.43-.53-14.44.89-18.51 2.12-6.07 6.91-6 10.77-6 6.48-.02 11.65 10.96 11.65 24.51zM179.77 307.14c0 13.55-5.22 24.53-11.65 24.53s-11.66-11-11.66-24.53 5.22-24.53 11.66-24.53c4.41 0 9.67-.61 11.65 7 .9 3.49 0 13.28 0 17.53z"/><path class="cls-3" d="M55.77 193.66s24-11.65 38.45-11.54 47.59 4.12 51.24 6.92-26.81 45.44-38.46 42.74-48.38-26.44-48.38-26.44z"/><path class="cls-2" d="M175.16 233c1.82 23.12 1.22 36.48-2.21 49.28l-2.22 43.91c5 15.56 12 16.19 9.18 31.45S165 375.7 165 375.7a198.4 198.4 0 01-52 6.71h-9.73a198.52 198.52 0 01-52-6.71s-12-2.78-14.86-18.06 1.38-14.32 6.42-29.88l-.13-40.82c-1.7-11.81-7.65-34.26-4.96-53.94M109.07 232.12s35.66-37.24 34.56-40.65-6.81-7.3-20.2-7.06l-4.81-4.41a81.18 81.18 0 018.86-3.38c7.26-2.51 24.79-7.33 29.48-5.14a16.72 16.72 0 018.82 11.93c.73 4.62 3.41 4.38 4.87 7.3s2.92 8 0 10.8-13.14 6-18.5 10.13-28.23 20.96-43.08 20.48zM54.07 212.89c9.82 3.92 53.88 19.23 53.88 19.23s-48.3-30.28-40.83-39.07 22-10.44 24.28-10.94-8.56-5.94-18.78-5.94S40.25 193.86 41 199.46c0 0 3.24 9.54 13.07 13.43z"/><path d="M122.7 176.17v14.33s-4.4 2.55-14.47 2.55-13-2.55-13-2.55v-14.33h27.47" fill="#f6beb0"/><path class="cls-7" d="M87.24 196.69l10.32 5.54M128.95 196.69l-10.33 5.54"/><path class="cls-8" d="M107 231.78l5.94.12s7.26 18.47 4.7 22.73-16.31-1.1-15.82-5.48 4.18-17.71 5.18-17.37z"/><path class="cls-9" d="M109.07 237c1.83-.37 3.44 1.65 3.53 5.07s.46 6.3-3 5.43-2.83-4-2.65-5.19.33-4.93 2.12-5.31z"/><path class="cls-8" d="M105.65 253.8s-1.45 35.75-1.69 49.63-1.74 68.71-1.23 78.89M112.66 382.32c-.18-20.24 1.42-117.67 0-126.2M94.22 175.8v12.63M122.7 190.01v-13.84"/><path class="cls-5" d="M169.12 348.74a4.4 4.4 0 01-1.85 2.39c-4.62 2.44-11.32-1.58-17.89.37s-16.19 1.82-23.12 0-2.8-9 13-12.65 14.34-12.7 21.54-10.84a9.85 9.85 0 014.36 2.45c.62 7.67 2 13.69 3.4 17z"/></g></g><g id="顔"><path class="cls-10" d="M176.37 141.15l6-6.42a5.19 5.19 0 001.6-6.09l-4.31-19.46A47 47 0 01196 111c-4.6-14.59-11.72-28.24-18.82-41.79A63 63 0 01193 80c.7-3-1.11-6-2.84-8.58C181.38 58.25 172.52 45 161.23 34l19.2-3.47c-7.61-2.63-15.94-1.37-24-1.68a4.26 4.26 0 01-2.06-.45 4.47 4.47 0 01-1.49-2.23 73.05 73.05 0 00-16.77-24.7c2.47 6.93-.15 16.26 0 23.62l-3.45-1.42A232.77 232.77 0 0092.89 7.59 50 50 0 01107 25.12C87 21.53 66 20.21 46.88 27a59.47 59.47 0 0019.27 7.27c-8.29 3.88-16.48 8.1-23.74 13.67S28.8 60.44 25.06 68.79a46.36 46.36 0 0014.3-3.7c.47 3.86-1.28 7.6-2.9 11.14-6 13.12-11 26.94-12.14 41.33l8.93-6.49q1.64 10.91 3.14 21.81c1.39.07 3.91-2.16 4.57-3.39z"/><path class="cls-9" d="M177.43 142.21c3.07-3.29 8.53-7 8.32-12-.29-7-3.13-14.61-4.64-21.43l-1.45 1.9a50.73 50.73 0 0115.89 1.74 1.51 1.51 0 001.84-1.84c-4.75-14.73-11.81-28.47-19-42.15l-2.05 2A67.25 67.25 0 01191.94 81a1.52 1.52 0 002.56-1c.43-4.25-1.74-7.38-4-10.8-2.92-4.38-5.87-8.75-8.93-13A177 177 0 00162.29 33l-.66 2.51 19.2-3.51c1.54-.28 1.31-2.49 0-2.89a44.25 44.25 0 00-13.1-1.77c-2.61 0-5.22.08-7.82.08-3.67 0-5.12-.75-6.72-4.28a76.12 76.12 0 00-16-22.71 1.51 1.51 0 00-2.5 1.46c2.28 7.56 0 15.51-.06 23.22l1.9-1.45c-6.5-2.66-12.68-6-19.16-8.8a247.64 247.64 0 00-24.08-8.72c-1.36-.42-2.64 1.54-1.46 2.51a52 52 0 0113.83 17.22l1.7-2.2c-20.23-3.57-41.14-4.86-60.88 1.84a1.52 1.52 0 00-.36 2.74 65.58 65.58 0 0019.63 7.42l-.35-2.74C48.68 40.8 31.94 50.67 23.76 68c-.42.9.06 2.4 1.3 2.25a53.63 53.63 0 0014.69-3.75l-1.89-1.45c.24 5.55-2.77 10.39-4.9 15.33-1.6 3.72-3.1 7.48-4.43 11.31a107.35 107.35 0 00-5.71 25.83 1.5 1.5 0 002.25 1.29l8.93-6.44-2.2-.9q1.64 10.91 3.14 21.81c.12.85 1.14 1.18 1.85 1.05a7.15 7.15 0 003.22-1.6c.47-.37 2.73-2.28 1-1.74a5.11 5.11 0 011.55.13c2.71.33 5.45.47 8.17.71l31.7 2.73 75.7 6.52 18.26 1.57c1.92.16 1.91-2.84 0-3L57.82 129.44 41 128a1.49 1.49 0 00-1.3.74 6.12 6.12 0 01-3.7 2.7l1.85 1q-1.52-10.9-3.15-21.8a1.5 1.5 0 00-2.2-.9l-8.93 6.48 2.26 1.3a108.38 108.38 0 016.83-28.43c2.84-7.53 8.58-15.73 8.21-24 0-.86-1-1.84-1.9-1.44a50.65 50.65 0 01-13.9 3.64l1.29 2.26c8-16.93 24.27-26.36 40.56-34a1.52 1.52 0 00-.36-2.75 62.54 62.54 0 01-18.91-7.11l-.36 2.74c19.23-6.53 39.57-5.31 59.28-1.84a1.52 1.52 0 001.69-2.2A53.81 53.81 0 0094 6.53L92.5 9a238.81 238.81 0 0126.78 9.9c5.53 2.45 10.85 5.32 16.44 7.62a1.51 1.51 0 001.9-1.45c0-8 2.33-16.15-.05-24l-2.51 1.46a74.46 74.46 0 0110.79 13.28 72.61 72.61 0 013.68 6.55c.95 1.91 1.54 4.45 2.89 6.12 2.17 2.71 6.12 1.94 9.22 1.91 6.25-.06 12.36-.27 18.36 1.61v-2.9l-19.2 3.47a1.51 1.51 0 00-.66 2.5 167.6 167.6 0 0117.8 21.13c2.39 3.32 4.72 6.7 7 10.1 2.67 3.92 7.06 8.7 6.56 13.7l2.56-1.06a69.88 69.88 0 00-16.17-11 1.51 1.51 0 00-2 2.06c7 13.44 14 26.94 18.66 41.43l1.84-1.85a53 53 0 00-16.68-1.85 1.52 1.52 0 00-1.44 1.9l3.44 15.56c.86 3.85 1 6.43-1.55 9.81a66.51 66.51 0 01-4.8 5.14c-1.36 1.35.74 3.48 2.07 2.07z"/><path class="cls-3" d="M109.23 49.33s-61-15.33-59 81.18c-9.45 9.46-10.1 29.35 10.44 28.7 14.34 26.08 78.85 21 94.5 1.74 24.75-1.42 20.91-30 11.1-25.75 13.53-98.72-57.04-85.87-57.04-85.87z"/><path stroke-miterlimit="10" fill="none" stroke-width="3" stroke="#000931" d="M60.65 159.21l-10.44-28.7"/><path class="cls-10" d="M46.25 125a40.71 40.71 0 009.72-7.7l5.18 13L79 86.12l6.42 17.21c14.74-13.92 30.94-59 39.06-74.14 0 0-132.1 52.07-72.42 73.42z"/><path class="cls-10" d="M124.44 29.19c41.34 9.52 50.95 86.33 50.95 86.33q-.13 11.28-.06 22.56l-13.08-34.33a88.56 88.56 0 01-1.46 16.65c-5.64-15-11.45-30.26-21.54-42.69a138 138 0 00-18.78 22.09q-2.16-9.93-4.31-19.86L93.47 93.33"/><path class="cls-9" d="M173.55 115.52q-.13 11.28-.07 22.56l3-.4-13.08-34.33a1.51 1.51 0 00-2.95.4A97.33 97.33 0 01159 120h2.89c-5.75-15.25-11.7-30.46-21.92-43.35a1.51 1.51 0 00-2.12 0 147.8 147.8 0 00-19 22.39l2.74.36-4.32-19.86a1.51 1.51 0 00-2.2-.9L92.37 92l2 2.06 19.93-33.13-2.59-1.52a323.24 323.24 0 01-28 43.16l2.74.36-6.42-17.2a1.51 1.51 0 00-2.89 0L59.36 130h2.89l-5.18-13a1.51 1.51 0 00-2.5-.66 45 45 0 01-9.42 7.47l2.2 1.69a116.57 116.57 0 015.77-22.5c.66-1.81-2.23-2.6-2.89-.79a115.65 115.65 0 00-5.77 22.43 1.52 1.52 0 002.2 1.69 48.13 48.13 0 0010-7.94l-2.51-.66 5.18 13a1.51 1.51 0 002.89 0l17.84-44.21h-2.89l6.42 17.21a1.52 1.52 0 002.74.36 324.52 324.52 0 0028-43.16 1.5 1.5 0 00-2.59-1.52L91.83 92.57a1.51 1.51 0 002.06 2.05l22.68-13.39-2.21-.89 4.32 19.86c.29 1.35 2 1.34 2.74.35A144.91 144.91 0 01140 78.77h-2.12c9.87 12.45 15.6 27.3 21.15 42 .46 1.23 2.61 1.6 2.89 0a101.56 101.56 0 001.51-17l-3 .4 13.09 34.33c.57 1.5 3 1.4 2.94-.4q-.06-11.28.07-22.56a1.5 1.5 0 00-3 0z"/><path class="cls-9" d="M147.17 110.49l-25.31-4.81s3.76-5.3 23 3.48"/><path class="cls-7" d="M125.06 129.61c6.86-8.54 24.74-9.2 33.94 0"/><path class="cls-9" d="M73.41 110.49l25.31-4.81s-3.76-5.3-23 3.48"/><path class="cls-7" d="M95.52 129.61c-6.86-8.54-24-9-32.93 0"/><g id="グループ_370" data-name="グループ 370"><path id="パス_1151" data-name="パス 1151" d="M110.41 149.17c-3.76 1.23-6.38.68-4.7-1.88s2.87-2.41 5.29-2.3 5.51 3 3.84 4.29-3.04-.57-4.43-.11z" fill="#ffbdad"/></g><g id="グループ_371" data-name="グループ 371"><ellipse id="楕円形_27" data-name="楕円形 27" cx="110.09" cy="149.62" rx="1.04" ry="1.15" fill="#000333"/></g><path d="M123.09 158.92s-8.64 5.57-12.76 5.57S98 158.87 98 158.87" stroke-width="2.62" fill="none" stroke-linecap="round" stroke-linejoin="round" stroke="#000931"/><path class="cls-3" d="M155.15 160.95l11.1-25.75"/></g></g></g></g></svg>