<svg xmlns="http://www.w3.org/2000/svg" viewBox="0 0 174.65 178.6"><defs><style>.cls-1{fill:#7b5f32}.cls-2{fill:#000931}.cls-3{fill:#fcecda}.cls-3,.cls-5{stroke:#000931;stroke-linecap:round;stroke-linejoin:round}.cls-3{stroke-width:3px}.cls-5{fill:none;stroke-width:2px}</style></defs><g id="レイヤー_2" data-name="レイヤー 2"><g id="_男_表情パターン_顔だけ_" data-name="【男】表情パターン（顔だけ）"><g id="体調良い時"><path class="cls-1" d="M153.55 141.15l6-6.42a5.23 5.23 0 001.6-6.09l-4.31-19.46a46.87 46.87 0 0116.28 1.8c-4.59-14.59-11.72-28.24-18.81-41.79A63 63 0 01170.19 80c.7-3-1.11-6-2.84-8.58C158.57 58.25 149.71 45 138.42 34l19.2-3.47c-7.61-2.63-15.94-1.37-24-1.68a4.23 4.23 0 01-2.06-.45 4.4 4.4 0 01-1.49-2.23 73.2 73.2 0 00-16.77-24.7c2.47 6.93-.15 16.26 0 23.62l-3.45-1.42A232.77 232.77 0 0070.08 7.59a50 50 0 0114.07 17.53c-20-3.59-41-4.91-60.08 1.83a59.47 59.47 0 0019.27 7.27c-8.29 3.88-16.48 8.1-23.74 13.67S6 60.44 2.25 68.79a46.22 46.22 0 0014.29-3.7c.48 3.86-1.27 7.6-2.89 11.14-6 13.12-11 26.94-12.15 41.33l8.94-6.49q1.63 10.91 3.14 21.81c1.39.07 3.91-2.16 4.56-3.39z"/><path class="cls-2" d="M154.62 142.21c3.07-3.29 8.53-7 8.32-12-.29-7-3.13-14.61-4.64-21.43l-1.45 1.9a50.63 50.63 0 0115.88 1.74 1.51 1.51 0 001.85-1.84c-4.75-14.73-11.81-28.47-19-42.15l-2.05 2A67.25 67.25 0 01169.13 81a1.52 1.52 0 002.56-1c.43-4.25-1.74-7.38-4-10.8-2.92-4.38-5.88-8.75-8.93-13A177 177 0 00139.48 33l-.66 2.51L158 32c1.53-.28 1.31-2.49 0-2.89a44.25 44.25 0 00-13.1-1.77c-2.61 0-5.22.08-7.83.08-3.66 0-5.11-.75-6.71-4.28a76.3 76.3 0 00-16-22.71 1.51 1.51 0 00-2.51 1.46c2.29 7.56 0 15.51 0 23.22l1.9-1.45c-6.5-2.66-12.68-6-19.16-8.8a247.64 247.64 0 00-24.11-8.72c-1.36-.42-2.64 1.54-1.48 2.51a52.08 52.08 0 0113.85 17.22l1.69-2.2c-20.22-3.57-41.13-4.86-60.87 1.84a1.52 1.52 0 00-.36 2.74 65.48 65.48 0 0019.63 7.42l-.36-2.74C25.86 40.8 9.13 50.67 1 68c-.42.9.06 2.4 1.3 2.25a53.63 53.63 0 0014.69-3.75L15 65.09c.25 5.55-2.76 10.39-4.89 15.33-1.6 3.72-3.1 7.48-4.43 11.31A107.37 107.37 0 000 117.56a1.51 1.51 0 002.26 1.29l8.93-6.48-2.2-.9q1.63 10.91 3.14 21.81c.12.85 1.14 1.18 1.85 1.05a7.2 7.2 0 003.22-1.6c.47-.37 2.73-2.28 1-1.74a5 5 0 011.54.13c2.72.33 5.46.47 8.18.71l31.69 2.73 75.71 6.52 18.25 1.57c1.93.16 1.92-2.84 0-3L35 129.44 18.14 128a1.47 1.47 0 00-1.29.74 6.12 6.12 0 01-3.67 2.71l1.84 1q-1.5-10.9-3.14-21.8a1.5 1.5 0 00-2.2-.9l-8.93 6.51 2.25 1.3a108.4 108.4 0 016.84-28.43c2.83-7.53 8.57-15.73 8.2-24 0-.86-.94-1.84-1.89-1.44a50.65 50.65 0 01-13.9 3.64l1.29 2.26c8-16.93 24.27-26.36 40.56-34a1.52 1.52 0 00-.36-2.75 62.69 62.69 0 01-18.92-7.11l-.35 2.74c19.23-6.6 39.53-5.38 59.28-1.91a1.52 1.52 0 001.69-2.2 53.94 53.94 0 00-14.3-17.83L69.68 9a237.37 237.37 0 0126.78 9.9c5.54 2.45 10.86 5.32 16.45 7.62a1.51 1.51 0 001.9-1.45c0-8 2.33-16.15 0-24l-2.51 1.46A74.46 74.46 0 01123 15.82c1.33 2.12 2.56 4.31 3.68 6.55.94 1.91 1.54 4.45 2.88 6.12 2.18 2.71 6.13 1.94 9.23 1.91 6.25-.07 12.34-.28 18.39 1.59V29.1L138 32.57a1.51 1.51 0 00-.66 2.5 167.6 167.6 0 0117.79 21.13c2.39 3.32 4.71 6.7 7 10.1 2.66 3.92 7.05 8.65 6.55 13.65l2.56-1.06a70.09 70.09 0 00-16.17-11A1.51 1.51 0 00153 70c7 13.44 14 26.94 18.66 41.43l1.84-1.85a53 53 0 00-16.68-1.85 1.52 1.52 0 00-1.44 1.9l3.44 15.56c.85 3.85 1 6.43-1.55 9.81a64.74 64.74 0 01-4.81 5.14c-1.28 1.35.83 3.48 2.16 2.07z"/><path class="cls-3" d="M86.42 49.33s-61-15.33-59 81.18C18 140 17.29 159.86 37.84 159.21c14.34 26.08 78.85 21 94.5 1.74 24.75-1.42 20.91-30 11.1-25.75C157 36.48 86.42 49.33 86.42 49.33z"/><path stroke-miterlimit="10" fill="none" stroke-width="3" stroke="#000931" d="M37.84 159.21l-10.44-28.7"/><path class="cls-1" d="M23.44 125a40.9 40.9 0 009.72-7.7l5.18 13 17.81-44.18 6.42 17.21c14.74-13.92 30.94-59 39.06-74.14 0 0-132.1 52.07-72.42 73.42z"/><path class="cls-1" d="M101.63 29.19c41.34 9.52 51 86.33 51 86.33q-.14 11.28-.06 22.56l-13.08-34.33A89.4 89.4 0 01138 120.4c-5.65-15-11.45-30.26-21.54-42.69a138 138 0 00-18.8 22.09l-4.32-19.86-22.68 13.39"/><path class="cls-2" d="M150.74 115.52q-.13 11.28-.07 22.56l3-.4-13.08-34.33c-.58-1.51-2.95-1.4-2.95.4a97.33 97.33 0 01-1.4 16.25h2.89c-5.75-15.25-11.71-30.46-21.92-43.35a1.52 1.52 0 00-2.13 0A148.31 148.31 0 0096 99l2.74.36-4.3-19.82a1.51 1.51 0 00-2.2-.9L69.56 92l2 2.06 19.93-33.13-2.59-1.52a323.24 323.24 0 01-28 43.16l2.74.36-6.42-17.2a1.51 1.51 0 00-2.89 0L36.55 130h2.89l-5.18-13a1.52 1.52 0 00-2.51-.66 44.66 44.66 0 01-9.41 7.47l2.2 1.69a115.84 115.84 0 015.77-22.5c.66-1.81-2.23-2.6-2.89-.79a114.94 114.94 0 00-5.77 22.43 1.52 1.52 0 002.2 1.69 48.13 48.13 0 0010-7.94l-2.51-.66 5.18 13a1.51 1.51 0 002.89 0l17.84-44.21h-2.89l6.42 17.21a1.52 1.52 0 002.74.36 324.52 324.52 0 0028-43.16 1.5 1.5 0 00-2.59-1.52L69 92.57a1.51 1.51 0 002 2.05l22.75-13.39-2.2-.89q2.16 9.93 4.31 19.86a1.52 1.52 0 002.75.35 144.91 144.91 0 0118.55-21.78H115c9.87 12.45 15.61 27.3 21.16 42 .46 1.23 2.61 1.6 2.89 0a101.56 101.56 0 001.51-17l-3 .4 13.08 34.33c.58 1.5 3 1.4 2.95-.4q-.06-11.28.07-22.56a1.5 1.5 0 00-3 0z"/><path class="cls-2" d="M124.36 110.49l-25.31-4.81s3.76-5.3 23 3.48"/><path class="cls-5" d="M102.25 129.61c6.86-8.54 24.74-9.2 33.94 0"/><path class="cls-2" d="M50.6 110.49l25.31-4.81s-3.76-5.3-23 3.48"/><path class="cls-5" d="M72.71 129.61c-6.86-8.54-24-9-32.93 0"/><g id="グループ_370" data-name="グループ 370"><path id="パス_1151" data-name="パス 1151" d="M87.6 149.17c-3.76 1.23-6.38.68-4.7-1.88s2.86-2.41 5.29-2.3 5.51 3 3.84 4.29-3.03-.57-4.43-.11z" fill="#ffbdad"/></g><g id="グループ_371" data-name="グループ 371"><ellipse id="楕円形_27" data-name="楕円形 27" cx="87.28" cy="149.62" rx="1.04" ry="1.15" fill="#000333"/></g><path d="M100.28 158.92s-8.65 5.57-12.76 5.57-12.33-5.62-12.33-5.62" stroke-width="2.62" fill="none" stroke-linecap="round" stroke-linejoin="round" stroke="#000931"/><path class="cls-3" d="M132.34 160.95l11.1-25.75"/></g></g></g></svg>