<svg version="1.1" id="レイヤー_1" xmlns="http://www.w3.org/2000/svg" x="0" y="0" viewBox="0 0 209.2 219" xml:space="preserve"><style>.st2{fill:#2e2e2e}.st3{fill:#ebb1bd}.st4{fill:#e9993c}</style><path d="M205.7 76s-31-18.6-59.9 6.2c-20.6-16.5-41.3-16.5-41.3-16.5h-6.2s-20.6 0-41.3 16.5c-18.6-33-51.6-33-51.6-33s0 45.4 28.9 51.6C-9 152.4-9 190.8 48.8 203.2c4.1 12.4 8.3 12.4 8.3 12.4 5.3-.3 10.1-3.5 12.4-8.2h64c2.3 4.8 7.1 8 12.4 8.2 0 0 4.1 0 8.3-12.4 57.8-12.4 57.8-50.8 14.4-102.4 33-4.2 37.1-24.8 37.1-24.8z" fill="#ffedd1" stroke="#2e2e2e" stroke-width="7" stroke-linejoin="round"/><path d="M139.6 129.7s-1.1-20.8-37.2-20.6h-4.1c-34.5-.2-37.2 20.6-37.2 20.6-1.5 21.8 79.5 21.8 78.5 0z" fill="#f0d1a0" stroke="#2e2e2e" stroke-width="5" stroke-linecap="round" stroke-linejoin="round"/><path class="st2" d="M82.3 129.7l.9-4.9c.2-1.3 1.5-2.2 2.9-2 1.3.2 2.2 1.5 2 2.9l-.9 4.9c-.2 1.3-1.5 2.2-2.9 2-1.3-.3-2.2-1.6-2-2.9zM114.7 122.8c1.3-.2 2.6.7 2.9 2l.9 4.9c.2 1.3-.7 2.6-2 2.9-1.3.2-2.6-.7-2.9-2l-.9-4.9c-.2-1.4.7-2.7 2-2.9z"/><circle class="st3" cx="47" cy="163.1" r="14.1"/><circle class="st3" cx="153.7" cy="163.1" r="14.1"/><path class="st4" d="M141.8 68.6l29.3-62 15.2 16.7zM136 65.5l2.2-63.1-24-2.4z"/></svg>