<svg xmlns="http://www.w3.org/2000/svg" width="33" height="56"><defs><clipPath id="a"><path data-name="長方形 208" transform="translate(140 666)" fill="#fff" stroke="#707070" d="M0 0h33v56H0z"/></clipPath></defs><g data-name="マスクグループ 7" transform="translate(-140 -666)" clip-path="url(#a)"><g data-name="グループ 1033"><g data-name="グループ 1032"><path data-name="パス 1612" d="M148.175 721.582s1.308 10.952 1.588 13.968c.264 2.846 2.456 18.739 2.456 18.739h3.156l1.247-26.566.046.429v-7.139z" fill="#111"/></g></g><g data-name="グループ 1035"><g data-name="グループ 1034"><path data-name="パス 1613" d="M165.198 721.582s-1.308 10.952-1.588 13.968c-.264 2.846-2.456 18.739-2.456 18.739h-3.155l-1.247-26.566-.046.429v-7.139z" fill="#111"/></g></g><g data-name="グループ 1036"><path data-name="パス 1614" d="M146.623 757.808h8.414a.613.613 0 00.614-.613v-3.107l-5.961-.594q-.173-.017-.347-.017a3.872 3.872 0 00-3.489 2.192l-.25.518a1.131 1.131 0 001.019 1.621z"/></g><g data-name="グループ 1037"><path data-name="パス 1615" d="M166.657 757.808h-8.414a.613.613 0 01-.613-.613v-3.107l5.961-.594c.115-.011.231-.017.346-.017a3.872 3.872 0 013.489 2.192l.249.518a1.131 1.131 0 01-1.018 1.621z"/></g><g><g data-name="グループ 1038"><path data-name="パス 1616" d="M142.926 717.545s-.286 1.163.443 1.3a26.247 26.247 0 003.35 0l1.509-2.256-1.978-.382z" fill="#2c4e88"/><path data-name="パス 1617" d="M144.573 719.122a8.1 8.1 0 01-1.244-.065.748.748 0 01-.5-.336 1.8 1.8 0 01-.106-1.227.212.212 0 01.127-.147l3.323-1.336a.21.21 0 01.12-.012l1.979.382a.214.214 0 01.137.329l-1.509 2.256a.215.215 0 01-.167.095c-.074.003-1.189.061-2.16.061zm-1.46-1.422a1.272 1.272 0 00.072.79.319.319 0 00.223.146 24.155 24.155 0 003.192 0l1.27-1.9-1.6-.309z" fill="#000931"/></g><g data-name="グループ 1039"><path data-name="パス 1618" d="M144.735 718.902s-.258 4.112 1.8 4.242l-.14-2.892 1.258 1.163.844-4.169z" fill="#fcecda"/><path data-name="パス 1619" d="M146.533 723.357h-.016c-2.244-.142-2.01-4.292-2-4.469a.214.214 0 01.127-.182l3.76-1.656a.214.214 0 01.3.238l-.845 4.169a.214.214 0 01-.355.115l-.874-.808.115 2.369a.214.214 0 01-.213.224zm-1.591-4.314a9.442 9.442 0 00.132 1.9c.209 1.13.623 1.784 1.232 1.949l-.127-2.629a.214.214 0 01.359-.167l.979.9.687-3.391z" fill="#000931"/></g><g data-name="グループ 1040"><path data-name="パス 1620" d="M164.817 694.517a6.947 6.947 0 01.747.5 8.759 8.759 0 011.162 4.357c-.174 1.631.438 18.846.438 18.846s.246 2.651-1.811 2.929-15.061-1.028-15.061-1.028-4.321-2.95-4.53-5.987.592-12.781.592-12.781l2.115-5.763 3.54-1.074z" fill="#2c4e88"/><path data-name="パス 1621" d="M164.472 721.331c-3.52 0-13.716-1.02-14.194-1.068a.144.144 0 01-.066-.024c-.178-.122-4.381-3.024-4.591-6.1-.207-3.013.584-12.7.592-12.8a.142.142 0 01.008-.037l2.115-5.763a.143.143 0 01.093-.087l3.54-1.074a.141.141 0 01.041-.006h12.807a.142.142 0 01.072.02 6.894 6.894 0 01.769.517 8.684 8.684 0 011.21 4.48c-.171 1.6.433 18.653.439 18.826a4.31 4.31 0 01-.139 1.4 2.1 2.1 0 01-1.795 1.671 7.415 7.415 0 01-.901.045zm-14.129-1.348c.77.077 13.028 1.292 14.991 1.025a1.813 1.813 0 001.556-1.459 4.079 4.079 0 00.131-1.315c-.025-.711-.611-17.251-.438-18.874a8.778 8.778 0 00-1.114-4.235 6.332 6.332 0 00-.692-.466H152.03l-3.452 1.047-2.084 5.678c-.04.489-.791 9.813-.59 12.74.194 2.805 4.062 5.594 4.439 5.859z" fill="#000931"/></g><g data-name="グループ 1043"><path data-name="パス 1624" d="M150.808 700.866l-.594 3.559v9.058s-4.008 3.332-4.5 3.722-3.045.442-3.592.338-.667-1.747-.667-1.747c.317-1.984 1.266-4.552 1.474-8.717s1.681-9 3.5-10.487l2.527-.55 1.5 1.822" fill="#2c4e88"/><path data-name="パス 1625" d="M142.978 717.806a5.794 5.794 0 01-.9-.051c-.657-.125-.81-1.518-.841-1.942a.21.21 0 010-.049c.1-.617.254-1.275.434-2.037a34.384 34.384 0 001.038-6.657c.252-5.039 2.016-9.368 3.576-10.642a.214.214 0 01.09-.043l2.527-.55a.212.212 0 01.21.073l1.5 1.822a.214.214 0 01-.33.272l-1.416-1.721-2.348.511c-1.654 1.4-3.166 6-3.381 10.3a34.758 34.758 0 01-1.049 6.733c-.176.743-.327 1.387-.423 1.981.055.694.268 1.486.492 1.529a9.076 9.076 0 003.419-.3c.449-.354 3.862-3.19 4.422-3.655v-8.954a.243.243 0 010-.035l.594-3.559a.214.214 0 01.422.07l-.591 3.542v9.041a.213.213 0 01-.077.164c-.164.136-4.016 3.338-4.507 3.726a4.069 4.069 0 01-1.9.4c-.321.021-.659.031-.961.031z" fill="#000931"/></g><g data-name="グループ 1044"><path data-name="パス 1626" d="M170.974 717.545s.286 1.163-.443 1.3a26.247 26.247 0 01-3.35 0l-1.509-2.256 1.978-.382z" fill="#2c4e88"/><path data-name="パス 1627" d="M169.325 719.122c-.971 0-2.086-.058-2.157-.062a.214.214 0 01-.167-.095l-1.509-2.256a.214.214 0 01.137-.329l1.978-.382a.211.211 0 01.121.012l3.323 1.336a.212.212 0 01.128.147 1.8 1.8 0 01-.106 1.227.75.75 0 01-.5.336 8.106 8.106 0 01-1.248.066zm-2.027-.484a24.148 24.148 0 003.192 0 .319.319 0 00.224-.147 1.286 1.286 0 00.072-.789l-3.157-1.27-1.6.309z" fill="#000931"/></g><g data-name="グループ 1045"><path data-name="パス 1628" d="M169.164 718.903s.526 4.112-1.53 4.242l-.128-2.892-1.127 1.536-.976-4.541z" fill="#fcecda"/><path data-name="パス 1629" d="M167.635 723.363a.214.214 0 01-.214-.2l-.1-2.285-.768 1.046a.214.214 0 01-.381-.082l-.976-4.542a.214.214 0 01.3-.241l3.76 1.656a.214.214 0 01.126.169c.014.112.338 2.743-.632 3.918a1.5 1.5 0 01-1.1.565zm-.128-3.32a.211.211 0 01.062.009.213.213 0 01.151.2l.118 2.655a1.076 1.076 0 00.577-.376c.746-.9.6-2.957.55-3.473l-3.264-1.437.788 3.667.846-1.152a.214.214 0 01.172-.097z" fill="#000931"/></g><g data-name="グループ 1046"><path data-name="パス 1630" d="M163.092 700.868l.594 3.559v9.058s4.009 3.332 4.5 3.722 3.046.442 3.593.338.935-1.734.935-1.734c-.29-2.228-1.534-4.565-1.742-8.73s-1.68-9-3.5-10.487l-2.527-1.6-1.927.917" fill="#2c4e88"/><path data-name="パス 1631" d="M170.92 717.806c-.3 0-.639-.01-.968-.031a4.064 4.064 0 01-1.9-.4c-.491-.388-4.344-3.59-4.507-3.726a.214.214 0 01-.077-.164v-9.042l-.592-3.542a.214.214 0 11.422-.07l.595 3.559a.213.213 0 010 .035v8.959c.559.465 3.973 3.3 4.422 3.655a9.076 9.076 0 003.42.3c.24-.046.582-.824.758-1.536a18.685 18.685 0 00-.607-2.554 25.677 25.677 0 01-1.132-6.153c-.216-4.326-1.745-8.951-3.409-10.324l-2.417-1.529-1.821.867a.214.214 0 11-.183-.386l1.927-.917a.214.214 0 01.207.012l2.527 1.6.021.015c1.56 1.274 3.324 5.6 3.576 10.642a25 25 0 001.116 6.058 18.572 18.572 0 01.625 2.655.211.211 0 010 .077c-.1.414-.47 1.774-1.1 1.895a5.8 5.8 0 01-.903.045z" fill="#000931"/></g><g data-name="グループ 1047"><path data-name="パス 1632" d="M147.418 718.943c-.616.495-1.188 2.213.191 2.733s1.38.156 4.035.6a52.843 52.843 0 009.423.234c2.187-.13 5.648-.1 5.974-1.171s-.034-1.757-.638-1.737-8.538-.658-8.538-.658l-9.4-.182z" fill="#2c4e88"/><path data-name="パス 1633" d="M157.303 722.754a38.3 38.3 0 01-5.682-.339 18.77 18.77 0 00-2.323-.26 4.733 4.733 0 01-1.739-.346 1.352 1.352 0 01-.922-1.089 2.218 2.218 0 01.692-1.889.144.144 0 01.065-.029l1.05-.182h.027l9.4.182c.087.007 7.722.658 8.5.658h.029a.785.785 0 01.672.317 1.812 1.812 0 01.107 1.6c-.306 1.006-2.835 1.12-5.066 1.221-.363.016-.713.032-1.035.051-.993.061-2.346.105-3.775.105zm-9.822-3.677a1.976 1.976 0 00-.562 1.6 1.071 1.071 0 00.741.867 4.453 4.453 0 001.653.328 19.01 19.01 0 012.354.263 52.28 52.28 0 009.391.233c.323-.019.675-.035 1.039-.051 1.924-.087 4.559-.206 4.806-1.019a1.569 1.569 0 00-.06-1.348.506.506 0 00-.436-.205h-.032c-.8 0-8.2-.631-8.523-.659l-9.374-.181z" fill="#000931"/></g><g data-name="グループ 1048"><path data-name="パス 1634" d="M149.531 710.492c0 1.932.169 3.669-.75 3.669s-2.575-1.737-2.575-3.669a11.01 11.01 0 01.127-2.639c.3-.866.986-.859 1.536-.859.92 0 1.662 1.566 1.662 3.498z" fill="#1c3b69"/></g><g data-name="グループ 1049"><path data-name="パス 1635" d="M166.871 710.872c0 1.932-.744 3.5-1.662 3.5s-1.662-1.566-1.662-3.5.744-3.5 1.662-3.5c.63 0 1.38-.088 1.662 1a16.149 16.149 0 010 2.5z" fill="#1c3b69"/></g><g data-name="グループ 1050"><path data-name="パス 1636" d="M149.189 694.691s3.417-1.661 5.483-1.646 6.786.588 7.307.987-3.823 6.48-5.491 6.095-6.9-3.769-6.9-3.769z" fill="#fcecda"/><path data-name="パス 1637" d="M156.641 700.356a.9.9 0 01-.2-.022c-1.685-.39-6.753-3.659-6.968-3.8a.214.214 0 01-.092-.13l-.4-1.666a.214.214 0 01.114-.242c.141-.068 3.455-1.668 5.549-1.668h.03c1.882.014 6.808.55 7.435 1.031.238.182.1.571-.07.927-.696 1.478-3.736 5.57-5.398 5.57zm-6.865-4.133c.634.406 5.252 3.346 6.76 3.694.215.05.735-.015 1.807-1 1.707-1.572 3.439-4.226 3.466-4.74a33.331 33.331 0 00-7.138-.917h-.027a16.027 16.027 0 00-5.206 1.552z" fill="#000931"/></g><g data-name="グループ 1051"><path data-name="パス 1638" d="M166.213 700.301a19.954 19.954 0 01-.315 7.028l-.316 6.261c.718 2.219 1.712 2.308 1.309 4.485a3.083 3.083 0 01-2.12 2.575 28.277 28.277 0 01-7.419.957h-1.386a28.282 28.282 0 01-7.419-.957 3.084 3.084 0 01-2.119-2.575c-.4-2.177.2-2.042.915-4.261l-.018-5.821c-.247-1.683-1.09-4.885-.707-7.691" fill="#2c4e88"/><path data-name="パス 1639" d="M155.67 721.822a28.857 28.857 0 01-7.184-.968 3.272 3.272 0 01-2.27-2.741 3.677 3.677 0 01.308-2.832 12.462 12.462 0 00.6-1.5l-.017-5.772c-.052-.352-.129-.766-.218-1.245a21.087 21.087 0 01-.486-6.491.214.214 0 01.424.058 20.757 20.757 0 00.482 6.355c.091.49.17.913.223 1.276a.212.212 0 010 .03l.018 5.821a.205.205 0 01-.011.066 12.754 12.754 0 01-.632 1.582 3.278 3.278 0 00-.276 2.574 2.886 2.886 0 001.957 2.405 28.348 28.348 0 007.368.952h1.39a28.33 28.33 0 007.359-.948 2.857 2.857 0 001.969-2.408 3.073 3.073 0 00-.468-2.556 9.046 9.046 0 01-.833-1.824.21.21 0 01-.01-.077l.317-6.261a.227.227 0 01.007-.044 19.782 19.782 0 00.309-6.956.214.214 0 11.426-.034 20.2 20.2 0 01-.315 7.078l-.313 6.2a8.6 8.6 0 00.786 1.707 3.449 3.449 0 01.517 2.845 3.273 3.273 0 01-2.282 2.744 28.854 28.854 0 01-7.469.962h-1.385z" fill="#000931"/></g><g data-name="グループ 1052"><path data-name="パス 1640" d="M156.79 700.174s5.084-5.31 4.928-5.8-.972-1.041-2.881-1.006l-.685-.625a11.17 11.17 0 011.262-.482c1.035-.358 3.535-1.045 4.2-.733a2.385 2.385 0 011.258 1.7c.1.659.486.625.694 1.041s.417 1.135 0 1.54-1.874.855-2.637 1.445-4.022 2.99-6.139 2.92z" fill="#2c4e88"/><path data-name="パス 1641" d="M156.879 700.389h-.1a.214.214 0 01-.147-.362 45.541 45.541 0 004.868-5.613c-.137-.337-.835-.863-2.662-.828a.223.223 0 01-.148-.056l-.686-.625a.214.214 0 01.042-.346 11.118 11.118 0 011.295-.5c.034-.012 3.44-1.157 4.364-.725a2.6 2.6 0 011.379 1.861.789.789 0 00.326.562 1.293 1.293 0 01.348.416 1.558 1.558 0 01-.042 1.789 4.96 4.96 0 01-1.2.673 8.207 8.207 0 00-1.452.788c-.648.505-3.948 2.966-6.185 2.966zm2.132-7.233c2.353 0 2.822.881 2.91 1.157.057.178.135.421-2.451 3.289a140.2 140.2 0 01-2.154 2.328c2.138-.3 5.126-2.563 5.486-2.84a8.47 8.47 0 011.533-.837 5.006 5.006 0 001.086-.592c.3-.291.164-.877-.043-1.29a.892.892 0 00-.246-.285 1.2 1.2 0 01-.468-.819 2.185 2.185 0 00-1.137-1.54c-.521-.244-2.721.284-4.043.741-.46.159-.757.271-.943.345l.378.345zm2.5 1.237z" fill="#000931"/></g><g data-name="グループ 1053"><path data-name="パス 1642" d="M148.945 697.432c1.4.559 7.683 2.742 7.683 2.742s-6.887-4.318-5.822-5.57a6.039 6.039 0 013.463-1.56c.33-.071-1.221-.848-2.678-.848s-4.615 2.523-4.511 3.321a3.46 3.46 0 001.865 1.915z" fill="#2c4e88"/><path data-name="パス 1643" d="M156.629 700.388a.217.217 0 01-.07-.012c-.062-.022-6.3-2.19-7.692-2.745a3.65 3.65 0 01-1.989-2.044.2.2 0 01-.01-.042c-.034-.262.135-.6.518-1.036.9-1.03 2.992-2.526 4.206-2.526 1.19 0 2.891.579 2.936 1a.251.251 0 01-.212.272c-.036.008-.091.017-.162.03a5.561 5.561 0 00-3.183 1.459.281.281 0 00-.055.246c.189 1.227 4.271 4.029 5.828 5a.214.214 0 01-.114.4zm-9.337-4.916a3.271 3.271 0 001.734 1.761c.933.372 4.081 1.482 6.043 2.169-1.741-1.193-4.4-3.186-4.577-4.35a.713.713 0 01.152-.588 5.606 5.606 0 013.158-1.554 5.729 5.729 0 00-2.211-.5c-.966 0-2.943 1.309-3.884 2.38-.372.424-.413.624-.416.682z" fill="#000931"/></g><g data-name="グループ 1054"><path data-name="パス 1644" d="M158.733 692.194v2.043a4.443 4.443 0 01-2.064.364c-1.436 0-1.848-.364-1.848-.364v-2.043h3.913" fill="#f6beb0"/></g><g data-name="グループ 1055"><path data-name="パス 1645" d="M155.148 696.055a.141.141 0 01-.067-.017l-1.473-.79a.143.143 0 11.135-.251l1.472.79a.143.143 0 01-.067.268z" fill="#000931"/></g><g data-name="グループ 1056"><path data-name="パス 1646" d="M158.152 696.055a.143.143 0 01-.068-.268l1.472-.79a.143.143 0 01.135.251l-1.473.79a.141.141 0 01-.066.017z" fill="#000931"/></g><g data-name="グループ 1057"><path data-name="パス 1647" d="M157.463 703.819a2.407 2.407 0 01-.748-.136c-.625-.211-1.231-.633-1.179-1.1a8.249 8.249 0 01.817-2.631.243.243 0 01.153-.037l.833.017a.214.214 0 01.195.136c.179.456 1.053 2.766.655 3.43a.792.792 0 01-.726.321zm-.883-3.477a11.957 11.957 0 00-.619 2.285c-.016.141.315.457.891.651.458.155.875.153.969 0 .206-.342-.233-1.867-.634-2.92zm-.159-.013zm0 0zm0 0zm0 0zm0 0zm0 0zm0 0z" fill="#000931"/></g><g data-name="グループ 1058"><path data-name="パス 1648" d="M156.79 700.872c.261-.053.49.234.5.722s.065.9-.43.774a.557.557 0 01-.377-.74c.029-.165.051-.704.307-.756z" fill="#000931"/></g><g data-name="グループ 1059"><path data-name="パス 1649" d="M155.884 721.807a.214.214 0 01-.214-.2c-.055-1.109.054-5.843.126-8.976.023-.99.042-1.81.05-2.289.034-1.958.24-7.031.241-7.082a.214.214 0 11.427.017c0 .051-.207 5.119-.241 7.072-.009.479-.027 1.3-.05 2.291-.072 3.127-.18 7.852-.126 8.945a.214.214 0 01-.2.224z" fill="#000931"/></g><g data-name="グループ 1060"><path data-name="パス 1650" d="M157.301 721.807a.214.214 0 01-.214-.212c-.008-.949.011-3.089.033-5.567.043-4.894.1-11.6-.03-12.4a.214.214 0 11.422-.07c.139.835.082 7.286.036 12.47a430.434 430.434 0 00-.033 5.559.214.214 0 01-.212.216z" fill="#000931"/></g><g data-name="グループ 1061"><path data-name="パス 1651" d="M154.672 694.158a.214.214 0 01-.214-.214v-1.8a.214.214 0 01.428 0v1.8a.214.214 0 01-.214.214z" fill="#000931"/></g><g data-name="グループ 1062"><path data-name="パス 1652" d="M158.733 694.379a.214.214 0 01-.214-.214v-1.969a.214.214 0 11.428 0v1.973a.214.214 0 01-.214.21z" fill="#000931"/></g><g data-name="グループ 1063"><path data-name="パス 1653" d="M165.352 716.804a.623.623 0 01-.265.341c-.659.348-1.614-.224-2.551.054a6.848 6.848 0 01-3.3 0c-.99-.261-.4-1.285 1.856-1.8s2.045-1.81 3.071-1.546a1.4 1.4 0 01.622.35 8.564 8.564 0 00.485 2.427c.031.054.056.113.082.174z" fill="#1c3b69"/></g></g><g><g data-name="グループ 1070"><g data-name="グループ 1066"><g data-name="グループ 1065"><path data-name="パス 1655" d="M166.401 687.126l.856-.915a.991.991 0 00.251-.367.989.989 0 00-.023-.5l-.614-2.774a6.663 6.663 0 012.322.256 36.972 36.972 0 00-2.682-5.959 9 9 0 012.262 1.534 1.654 1.654 0 00-.4-1.224 32.658 32.658 0 00-4.125-5.327l2.737-.495a11.751 11.751 0 00-3.42-.24.592.592 0 01-.294-.065.628.628 0 01-.213-.317 10.446 10.446 0 00-2.391-3.523c.352.989-.021 2.319 0 3.368l-.493-.2a33.25 33.25 0 00-5.672-2.3 7.137 7.137 0 012.006 2.5 16.869 16.869 0 00-8.568.262 8.484 8.484 0 002.749 1.037 18.128 18.128 0 00-3.386 1.948 7.935 7.935 0 00-2.474 2.981 6.666 6.666 0 002.039-.527 3.041 3.041 0 01-.413 1.587 17.6 17.6 0 00-1.732 5.894l1.273-.924q.234 1.554.448 3.11c.2.009.558-.309.651-.484z" fill="#7b5f32"/></g></g><g data-name="グループ 1069"><g data-name="グループ 1068"><g data-name="グループ 1067"><path data-name="パス 1656" d="M166.553 687.277c.3-.325.617-.645.914-.977a1 1 0 00.264-.46 1.509 1.509 0 00-.053-.624l-.6-2.7-.206.271a6.646 6.646 0 012.265.248.216.216 0 00.263-.263 37.663 37.663 0 00-2.7-6.01l-.293.293a8.977 8.977 0 012.219 1.5.216.216 0 00.358-.094 1.9 1.9 0 00-.445-1.415q-.456-.682-.919-1.36a33.812 33.812 0 00-1.96-2.616c-.4-.475-.819-.933-1.261-1.367l-.094.357 2.737-.495c.223-.04.183-.351 0-.413a11.68 11.68 0 00-3.413-.245c-.108 0-.218.007-.291-.083a1.263 1.263 0 01-.142-.307q-.16-.375-.348-.737a10.428 10.428 0 00-.846-1.357 10.865 10.865 0 00-1.184-1.361c-.146-.142-.429 0-.358.208.363 1.061-.022 2.224-.008 3.311l.271-.206c-.876-.359-1.708-.816-2.579-1.19a34.035 34.035 0 00-3.585-1.308c-.193-.058-.38.221-.208.357a7.1 7.1 0 011.972 2.456l.242-.314a19.731 19.731 0 00-6.8-.223 11.7 11.7 0 00-1.881.485.217.217 0 00-.051.391 8.812 8.812 0 002.8 1.058l-.051-.391a13.321 13.321 0 00-5.075 3.6 7.037 7.037 0 00-.862 1.411c-.059.131.007.34.185.322a7.179 7.179 0 002.146-.557l-.322-.185a3.744 3.744 0 01-.546 1.839c-.267.6-.516 1.2-.737 1.822a15.028 15.028 0 00-.862 3.82.215.215 0 00.322.185l1.274-.924-.314-.128q.233 1.554.448 3.11a.214.214 0 00.207.157 1.162 1.162 0 00.836-.59l-.185.106 1.925.166 4.621.4 5.57.48 4.814.415 1.6.137c.248.021.5.057.749.064h.034c.274.024.273-.4 0-.428l-1.925-.166-4.621-.4-5.569-.48-4.815-.415-1.6-.137c-.248-.021-.5-.057-.749-.064h-.034a.21.21 0 00-.185.106c-.08.138-.3.373-.466.378l.206.157q-.215-1.556-.448-3.11a.215.215 0 00-.314-.128l-1.273.924.322.185a14.733 14.733 0 01.892-3.83 25.03 25.03 0 01.757-1.836 3.594 3.594 0 00.5-1.815.218.218 0 00-.322-.185 6.51 6.51 0 01-1.93.5l.184.322c1.1-2.413 3.485-3.777 5.783-4.853a.216.216 0 00-.051-.391 8.46 8.46 0 01-2.7-1.015l-.051.391a14.855 14.855 0 016.567-.542c.632.071 1.26.168 1.886.28a.217.217 0 00.241-.314 7.374 7.374 0 00-2.039-2.543l-.208.357a33.091 33.091 0 013.605 1.317c.862.374 1.689.823 2.559 1.18a.215.215 0 00.271-.206c-.016-1.131.37-2.319-.008-3.425l-.357.208a10.351 10.351 0 011.963 2.631c.126.242.244.49.35.741.094.224.185.453.43.546a2.328 2.328 0 00.795.057c.3 0 .59-.009.885-.012a6 6 0 011.99.237v-.413l-2.738.495a.216.216 0 00-.094.357 23.154 23.154 0 012.544 3.027c.382.531.752 1.072 1.118 1.615.178.264.361.526.531.795a1.3 1.3 0 01.283.906l.358-.094a9.366 9.366 0 00-2.306-1.568.216.216 0 00-.293.293 37 37 0 012.661 5.908l.263-.263a7.013 7.013 0 00-2.378-.263.217.217 0 00-.207.271l.538 2.427a3.708 3.708 0 01.115.574.575.575 0 01-.211.434c-.284.306-.571.61-.857.915-.196.191.106.495.295.293z" fill="#000931"/></g></g></g></g><g data-name="グループ 1076"><g data-name="グループ 1073"><g data-name="グループ 1071"><path data-name="パス 1657" d="M156.828 674.032s-8.695-2.185-8.416 11.577c-1.348 1.348-1.442 4.185 1.488 4.092 2.046 3.72 11.244 2.992 13.476.248 3.53-.2 2.982-4.281 1.583-3.672 1.932-14.077-8.131-12.245-8.131-12.245z" fill="#fcecda"/></g><g data-name="グループ 1072"><path data-name="パス 1658" d="M156.267 692.467c-.427 0-.854-.018-1.278-.057-2.539-.229-4.382-1.113-5.21-2.493h-.016a2.238 2.238 0 01-2.285-1.25 3.087 3.087 0 01.721-3.143c-.09-5.11 1.037-8.634 3.349-10.475a6.542 6.542 0 015.289-1.235 7.552 7.552 0 016.121 1.8c2.116 2.026 2.875 5.522 2.255 10.393a.8.8 0 01.591.232 2.124 2.124 0 01.292 2.151 2.825 2.825 0 01-2.612 1.771c-1.201 1.377-4.189 2.306-7.217 2.306zm-6.366-2.98a.214.214 0 01.187.111c.724 1.316 2.478 2.164 4.939 2.386 3.352.3 6.948-.65 8.184-2.17a.213.213 0 01.154-.078 2.374 2.374 0 002.328-1.5 1.7 1.7 0 00-.183-1.693.392.392 0 00-.464-.073.214.214 0 01-.214-.026.215.215 0 01-.083-.2c.671-4.887-.031-8.362-2.087-10.33a7.256 7.256 0 00-5.794-1.676.211.211 0 01-.09 0 6.219 6.219 0 00-4.968 1.148c-2.213 1.766-3.283 5.2-3.182 10.217a.211.211 0 01-.062.156 2.654 2.654 0 00-.7 2.737 1.922 1.922 0 002.025.99z" fill="#000931"/></g></g><g data-name="グループ 1075"><g data-name="グループ 1074"><path data-name="長方形 207" fill="#000931" d="M148.212 685.682l.402-.146 1.49 4.092-.403.147z"/></g></g></g><g data-name="グループ 1081"><g data-name="グループ 1078"><g data-name="グループ 1077"><path data-name="パス 1659" d="M147.848 684.829a5.856 5.856 0 001.386-1.1l.738 1.859 2.54-6.31.917 2.454c2.1-1.986 4.411-8.416 5.569-10.572 0 0-18.838 7.425-10.327 10.47z" fill="#7b5f32"/></g></g><g data-name="グループ 1080"><g data-name="グループ 1079"><path data-name="パス 1660" d="M158.997 671.161c5.9 1.357 7.266 12.311 7.266 12.311q-.02 1.608-.01 3.216l-1.865-4.9a12.7 12.7 0 01-.208 2.374 21.388 21.388 0 00-3.071-6.087 19.715 19.715 0 00-2.679 3.15l-.615-2.832-3.234 1.909" fill="#7b5f32"/></g></g></g><g data-name="グループ 1084"><g data-name="グループ 1083"><g data-name="グループ 1082"><path data-name="パス 1661" d="M165.998 683.471q-.019 1.608-.009 3.216l.42-.057-1.865-4.9a.215.215 0 00-.42.057 12.717 12.717 0 01-.2 2.318h.413a21.821 21.821 0 00-3.127-6.182.216.216 0 00-.3 0 20.262 20.262 0 00-2.712 3.193l.391.051-.615-2.832a.216.216 0 00-.314-.128l-3.234 1.909.293.293 2.484-4.143.351-.585-.369-.216a45.085 45.085 0 01-3.989 6.155l.391.051-.916-2.454a.216.216 0 00-.413 0l-2.54 6.31h.413l-.738-1.859a.217.217 0 00-.357-.094 5.849 5.849 0 01-1.343 1.065l.314.242a15.64 15.64 0 01.823-3.2c.1-.258-.317-.37-.413-.114a15.65 15.65 0 00-.823 3.2.217.217 0 00.314.242 6.247 6.247 0 001.429-1.132l-.357-.094.738 1.859a.216.216 0 00.413 0l2.54-6.31h-.413l.916 2.454a.218.218 0 00.391.051 45.106 45.106 0 003.988-6.155.214.214 0 00-.369-.216l-2.486 4.147-.351.585a.215.215 0 00.292.293l3.234-1.909-.314-.128.615 2.832a.217.217 0 00.391.051 19.742 19.742 0 012.645-3.107h-.3a21.189 21.189 0 013.016 5.993c.067.177.371.228.413 0a13.334 13.334 0 00.215-2.431l-.42.057 1.865 4.9a.215.215 0 00.42-.057q-.01-1.608.009-3.216a.214.214 0 00-.428 0z" fill="#000931"/></g></g></g><g data-name="グループ 1086"><g data-name="グループ 1085"><path data-name="パス 1662" d="M159.528 684.746a11.494 11.494 0 000 1.651c.077.374.691 1.354 1.354 1.354a1.693 1.693 0 001.469-1.5c.019-.735 0-1.839 0-1.839a10.342 10.342 0 00-2.823.334z" fill="#000931"/></g></g><g data-name="グループ 1088"><g data-name="グループ 1087"><ellipse data-name="楕円形 73" cx=".275" cy=".471" rx=".275" ry=".471" fill="#fff" transform="translate(160.652 685.489)"/></g></g><g data-name="グループ 1090"><g data-name="グループ 1089"><path data-name="パス 1663" d="M162.167 681.805l-3.467 1.211s.086-.924 3.09-1.211" fill="#000931"/></g></g><g data-name="グループ 1095"><g data-name="グループ 1094"><g data-name="グループ 1093"><g data-name="グループ 1092"><g data-name="グループ 1091"><path data-name="パス 1664" d="M158.682 685.623a.143.143 0 01-.089-.032.143.143 0 01-.021-.2c1.051-1.307 3.2-1.314 4.963-1.175a.143.143 0 01.131.153.142.142 0 01-.154.131c-1.689-.134-3.751-.133-4.718 1.069a.142.142 0 01-.112.054z" fill="#000931"/></g></g></g></g></g><g data-name="グループ 1097"><g data-name="グループ 1096"><path data-name="パス 1665" d="M154.432 684.746a11.568 11.568 0 010 1.651c-.077.374-.692 1.354-1.354 1.354a1.694 1.694 0 01-1.469-1.5c-.019-.735 0-1.839 0-1.839a10.346 10.346 0 012.823.334z" fill="#000931"/></g></g><g data-name="グループ 1099"><g data-name="グループ 1098"><ellipse data-name="楕円形 74" cx=".275" cy=".471" rx=".275" ry=".471" fill="#fff" transform="translate(152.757 685.489)"/></g></g><g data-name="グループ 1101"><g data-name="グループ 1100"><path data-name="パス 1666" d="M151.791 681.805l3.468 1.211s-.086-.924-3.09-1.211" fill="#000931"/></g></g><g data-name="グループ 1106"><g data-name="グループ 1105"><g data-name="グループ 1104"><g data-name="グループ 1103"><g data-name="グループ 1102"><path data-name="パス 1667" d="M155.278 685.627a.143.143 0 01-.111-.053c-.967-1.2-3.029-1.2-4.718-1.069a.141.141 0 01-.154-.131.143.143 0 01.131-.153c1.76-.139 3.913-.132 4.963 1.175a.143.143 0 01-.021.2.143.143 0 01-.09.031z" fill="#000931"/></g></g></g></g></g><g data-name="グループ 370"><g data-name="パス 1151"><g data-name="グループ 1107"><path data-name="パス 1668" d="M156.996 688.269c-.536.176-.91.1-.671-.267s.409-.344.755-.329.786.423.548.612-.433-.081-.632-.016z" fill="#ffbdad"/></g></g></g><g data-name="グループ 371"><g data-name="楕円形 27"><g data-name="グループ 1108"><ellipse data-name="楕円形 75" cx=".149" cy=".164" rx=".149" ry=".164" fill="#000333" transform="translate(156.802 688.17)"/></g></g></g><g data-name="グループ 1110"><g data-name="グループ 1109"><path data-name="パス 1669" d="M156.985 690.641a2.523 2.523 0 01-.979-.161.187.187 0 01.155-.339 2.243 2.243 0 00.823.127 5.024 5.024 0 001.719-.763.187.187 0 01.2.314 5.3 5.3 0 01-1.918.822z" fill="#000931"/></g></g><g data-name="グループ 1113"><g data-name="グループ 1111"><path data-name="線 5" fill="#fcecda" d="M163.377 689.949l1.582-3.672"/></g><g data-name="グループ 1112"><path data-name="パス 1670" d="M163.377 690.168a.214.214 0 01-.2-.3l1.582-3.672a.214.214 0 01.393.169l-1.583 3.672a.213.213 0 01-.192.131z" fill="#000931"/></g></g></g></g></svg>