<svg xmlns="http://www.w3.org/2000/svg" viewBox="0 0 182.8 248.62"><defs><style>.cls-1{fill:#535353}.cls-2{fill:#000333}.cls-4{fill:#ffbdad}.cls-5{fill:#868686}.cls-8{fill:none;stroke:#000931;stroke-linecap:round;stroke-linejoin:round}.cls-7{fill:#000931}.cls-8{stroke-width:4px}.cls-9{fill:#9ab7d9}</style></defs><g id="レイヤー_2" data-name="レイヤー 2"><g id="_女_表情パターン_顔だけ_" data-name="【女】表情パターン（顔だけ）"><g id="体調悪い時"><g id="グループ_335" data-name="グループ 335"><path id="パス_1098" data-name="パス 1098" class="cls-1" d="M175 112.2s-2 16.81 6 20.62c0 0-16.62 7.48-18.28-6.62s12.28-14 12.28-14z"/><path id="パス_1099" data-name="パス 1099" class="cls-2" d="M172.13 136.56a12.12 12.12 0 01-6-1.42 10.78 10.78 0 01-5.11-8.73 13.92 13.92 0 012.94-11.36 16 16 0 0111.04-4.61 1.77 1.77 0 011.75 1.78 1.1 1.1 0 010 .18c-.5 4.33-.57 16.15 5 18.82a1.76 1.76 0 010 3.2 26.5 26.5 0 01-9.62 2.14zm.94-22.4a11.28 11.28 0 00-6.51 3.26 10.61 10.61 0 00-2.06 8.58 7.39 7.39 0 003.35 6.08c2.67 1.51 6.63 1 9.52.17-4.4-4.82-4.51-13.92-4.29-18.09z"/></g><g id="グループ_336" data-name="グループ 336"><path id="パス_1100" data-name="パス 1100" class="cls-1" d="M52 22.35S23 58.77 1.81 53.81c0 0 19.48 13.22 41.81-7.27S52 22.35 52 22.35z"/><path id="パス_1101" data-name="パス 1101" class="cls-2" d="M17.4 59.71A32.26 32.26 0 01.78 55.27a1.76 1.76 0 011.39-3.18 16 16 0 003.83.42c19.46 0 44.35-30.93 44.62-31.26a1.77 1.77 0 011.83-.6 7.84 7.84 0 015.38 5.43c1.31 5.3-3.07 12.62-13 21.75S25.07 59.71 17.4 59.71zm-6.72-4.17C18 57.23 29.62 57 42.38 45.24c11.71-10.75 12.54-16.09 12-18.31a4 4 0 00-1.89-2.43c-4.34 5.23-23.72 27.43-41.81 31.04z"/></g><g id="グループ_340" data-name="グループ 340"><path id="パス_1107" data-name="パス 1107" class="cls-1" d="M176.24 108c-9.69 33.94-25.11 48.92-14.54 80.66s-57.16 58.18-57.16 58.18l-81.23-42.73c-2.21-22.92-.89-28.6 3.07-42.07s6.18-36.83 1.77-55.34-7.49-54.21 18.07-81.54 69.65-30 103.14-10.58c18.9 11 28.13 28.5 30.83 47.81a89.23 89.23 0 01.81 11.08 118.8 118.8 0 01-4.76 34.53z"/><path id="パス_1108" data-name="パス 1108" class="cls-2" d="M104.54 248.62a1.67 1.67 0 01-.82-.21l-81.23-42.74a1.77 1.77 0 01-.94-1.4c-2.21-23-.92-28.91 3.15-42.73s5.94-36.8 1.74-54.44c-3.62-15.19-9-53.69 18.5-83.15 25.27-27 69.56-31.59 105.31-10.9 17.68 10.23 28.63 27.21 31.68 49.08a91 91 0 01.86 11.3 120.94 120.94 0 01-4.85 35.07 259.76 259.76 0 01-9.13 25.7c-7.4 18.55-12.75 32-5.43 53.91 4.6 13.81-4.14 28.68-25.3 43a192.17 192.17 0 01-32.9 17.37 1.74 1.74 0 01-.64.14zM25 203l79.66 41.92c7.24-3 64.75-27.62 55.4-55.68-7.73-23.18-1.89-37.81 5.5-56.33a258.2 258.2 0 009-25.37 117.67 117.67 0 004.72-34 90.09 90.09 0 00-.84-10.88c-2.89-20.76-13.25-36.84-30-46.52C114.13-3.77 71.67.54 47.51 26.37c-26.39 28.21-21.13 65.29-17.65 79.92 4.54 19.08 2.26 42.54-1.79 56.26C24.13 176 22.94 181.4 25 203z"/></g><g id="グループ_342" data-name="グループ 342"><path id="パス_1111" data-name="パス 1111" class="cls-2" d="M151 167.74a1.75 1.75 0 01-1.53-.9c-5.32-9.44 1.23-26.66 1.51-27.39a1.76 1.76 0 013.29 1.27c-.06.17-6.23 16.41-1.73 24.39a1.76 1.76 0 01-.67 2.4 1.74 1.74 0 01-.87.23z"/></g><g id="グループ_358" data-name="グループ 358"><path id="パス_1137" data-name="パス 1137" d="M157.08 104.28s6.13 25.85-6 39.61c-12 13.55-30.58 18.56-50 18.12-19.39.44-38-4.57-50-18.12-12.14-13.76-6-39.61-6-39.61S83.8 41.47 98.29 39.7s55-1.76 58.79 64.58" fill="#ffedd9"/><path id="パス_1138" data-name="パス 1138" class="cls-2" d="M98.7 163.8c-15.26 0-35.39-3.43-48.89-18.74-12.6-14.28-6.66-40.1-6.4-41.19a1.67 1.67 0 01.21-.52c4-6.5 39.55-63.58 54.45-65.4 10.63-1.29 26-.58 38.84 10.16C150 59 157.32 77.83 158.82 104c.55 2.42 5.8 27.17-6.44 41-14.21 16.11-35.76 19.06-51.33 18.72zm2.36-3.55c14.91.34 35.37-2.43 48.68-17.53 11.41-12.92 5.68-37.79 5.62-38a1.54 1.54 0 01-.05-.31c-1.42-25.26-8.38-43.28-20.66-53.56-11.87-9.93-26.22-10.57-36.15-9.36-3.09.38-11.21 5.06-30.79 32.22C57.18 88.27 48.07 102.87 46.78 105c-.59 2.72-5.07 25.59 5.67 37.77 13.32 15.1 33.79 17.87 48.61 17.53z"/></g><g id="グループ_366" data-name="グループ 366"><path id="パス_1146" data-name="パス 1146" class="cls-1" d="M160.82 48.74c17.63 46.28 4 71.62 4 71.62 0-3.52-10.13-18.51-15.64-28s-10.8-36.6-10.8-36.6c-11.24 32.18-45 44.52-45 44.52 9-17.85 3.89-39.89 3.89-39.89s-30.47 9.54-53.43 64.39c0 0-13.15-34.61 5-64.36.31-.49.61-1 .93-1.47A68.48 68.48 0 0166 41.4a65.45 65.45 0 0131.27-13"/><path id="パス_1147" data-name="パス 1147" class="cls-2" d="M43.84 126.55a1.79 1.79 0 01-1.62-1.14C41.64 124 29 89.64 47.37 59.5c.29-.47.58-.94.88-1.39a.47.47 0 01.07-.12A70.55 70.55 0 0164.87 40a66.64 66.64 0 0132.21-13.4A1.75 1.75 0 0199 28.19a1.77 1.77 0 01-1.62 1.89A64.28 64.28 0 0067 42.8a66.86 66.86 0 00-15.64 17l-.09.14c-.31.47-.6 1-.9 1.43-13.74 22.48-9 48.19-6.25 58.35 22.74-51.11 51.33-60.57 52.57-61a1.75 1.75 0 012.2 1.15.74.74 0 010 .14c.2.85 4.42 19.64-2.17 36.86 9.16-4.41 31.38-17.24 39.92-41.68a1.74 1.74 0 011.83-1.19 1.76 1.76 0 011.6 1.42c.05.27 5.3 27 10.59 36.06 1.55 2.66 3.44 5.71 5.44 8.94 4 6.44 7 11.41 8.76 15 2.88-8.84 7.43-31.61-5.68-66a1.76 1.76 0 113.29-1.26c17.71 46.5 4.44 72 3.86 73.09a1.76 1.76 0 01-3.31-.84c0-2-6-11.67-9.92-18.06-2-3.25-3.91-6.33-5.48-9-4.07-7-7.93-22.85-9.81-31.42-13 28.52-42.55 39.63-43.88 40.11a1.76 1.76 0 01-2.27-1 1.8 1.8 0 01.09-1.4c7-14 5.09-30.88 4.13-36.65C89 66 64.56 79.86 45.46 125.46a1.78 1.78 0 01-1.62 1.09z"/></g><g id="グループ_370" data-name="グループ 370"><path id="パス_1151" data-name="パス 1151" class="cls-4" d="M101.42 127.65c-3.76 1.24-6.38.69-4.7-1.87s2.87-2.42 5.29-2.31 5.52 3 3.84 4.29-3.04-.57-4.43-.11z"/></g><g id="グループ_371" data-name="グループ 371"><ellipse id="楕円形_27" data-name="楕円形 27" class="cls-2" cx="101.1" cy="128.1" rx="1.04" ry="1.15"/></g><g id="グループ_392" data-name="グループ 392"><path id="パス_1165" data-name="パス 1165" class="cls-5" d="M70.75 55.83c-1.86 7-8.13 11.37-14 9.8a10.43 10.43 0 01-7-6.68A68.83 68.83 0 0166 41.4a12.86 12.86 0 014.75 14.43z"/></g><g id="グループ_393" data-name="グループ 393"><ellipse id="楕円形_32" data-name="楕円形 32" class="cls-5" cx="72.49" cy="59.16" rx="5.45" ry="4.58" transform="rotate(-75.06 72.484 59.157)"/></g><g id="グループ_394" data-name="グループ 394"><path id="パス_1166" data-name="パス 1166" class="cls-5" d="M181 73.47a4.46 4.46 0 01-2.11.53 6 6 0 010-11.8 4.13 4.13 0 011.26.18 91.52 91.52 0 01.85 11.09z"/></g><g id="グループ_395" data-name="グループ 395"><ellipse id="楕円形_33" data-name="楕円形 33" class="cls-5" cx="168.63" cy="68.49" rx="3.14" ry="2.57" transform="rotate(-24.11 168.608 68.494)"/></g><g id="グループ_396" data-name="グループ 396"><path id="パス_1167" data-name="パス 1167" class="cls-2" d="M42.15 158.65a1.77 1.77 0 01-1.51-2.65c5.6-9.12 2.15-26.18 2.12-26.35a1.76 1.76 0 113.45-.72c.16.75 3.78 18.59-2.56 28.91a1.75 1.75 0 01-1.5.81z"/></g><g id="グループ_397" data-name="グループ 397"><path id="パス_1168" data-name="パス 1168" class="cls-2" d="M93.33 102.07a1.76 1.76 0 01-1.08-3.14c25-19.52 24-43.12 24-43.35a1.76 1.76 0 013.52-.21c.06 1 1.27 25.62-25.31 46.34a1.7 1.7 0 01-1.13.36z"/></g><g id="グループ_401" data-name="グループ 401"><ellipse id="楕円形_34" data-name="楕円形 34" class="cls-4" cx="61.32" cy="140.69" rx="7.97" ry="3.8"/></g><g id="グループ_402" data-name="グループ 402"><ellipse id="楕円形_35" data-name="楕円形 35" class="cls-4" cx="141.96" cy="140.69" rx="7.97" ry="3.8"/></g><path d="M111.1 145.26s-2.31-1.84-4.69-1.15c-1.36.39-3.41 1.63-4.91 1.63-1.81 0-4.16-1.68-5.71-2.18-2-.65-4.68.78-4.68.78" stroke-width="2.62" fill="none" stroke="#000931" stroke-linecap="round" stroke-linejoin="round"/><path class="cls-7" d="M63.21 93.83s4.88.64 13.16 1.6a25.25 25.25 0 0014.55-2.75S84.38 99.19 76 98s-12.79-4.17-12.79-4.17z"/><path class="cls-8" d="M83.7 113.24c-8.48-8.48-23.49-9.93-32-9.93"/><path class="cls-7" d="M68.42 103.61s-2.82-3.22-3-5.43a.3.3 0 00-.47-.23c-.93.65-2.8 2.26-2.33 4.44zM55.8 103.72s-3.5-2.46-4.21-4.57a.31.31 0 00-.52-.11c-.74.85-2.19 2.86-1.22 4.87zM136.77 93.83s-4.88.64-13.16 1.6a25.25 25.25 0 01-14.55-2.75S115.6 99.19 124 98s12.77-4.17 12.77-4.17z"/><path class="cls-8" d="M116.28 113.24c8.48-8.48 23.49-9.93 32-9.93"/><path class="cls-7" d="M131.56 103.61s2.82-3.22 3-5.43a.3.3 0 01.48-.23c.92.65 2.79 2.26 2.32 4.44zM144.18 103.72s3.5-2.46 4.21-4.57a.31.31 0 01.52-.11c.74.85 2.19 2.86 1.22 4.87z"/><path class="cls-9" d="M43.17 21.5S27.1-5.77 15.69 1.12C6.55 10.75 43.17 21.5 43.17 21.5zM36 27s-17.76-13.8-23.72-6.28C8.55 29.44 36 27 36 27z"/></g></g></g></svg>