<svg xmlns="http://www.w3.org/2000/svg" width="105" height="94"><defs><clipPath id="a"><path data-name="長方形 208" transform="translate(-7862 4063.336)" fill="#fff" stroke="#707070" d="M0 0h105v94H0z"/></clipPath></defs><g data-name="マスクグループ 9" transform="translate(7862 -4063.336)" clip-path="url(#a)"><g data-name="グループ 1312"><g data-name="グループ 1311"><path data-name="パス 1784" d="M-7836.935 4229.584s3.973 33.267 4.824 42.427c.8 8.644 7.46 56.921 7.46 56.921h9.585l3.788-80.695.14 1.3v-21.682z" fill="#111"/></g></g><g data-name="グループ 1314"><g data-name="グループ 1313"><path data-name="パス 1785" d="M-7785.227 4229.584s-3.973 33.267-4.824 42.427c-.8 8.644-7.46 56.921-7.46 56.921h-9.585l-3.788-80.695-.14 1.3v-21.682z" fill="#111"/></g></g><g data-name="グループ 1315"><path data-name="パス 1786" d="M-7841.648 4339.624h25.557a1.863 1.863 0 001.863-1.863v-9.437l-18.106-1.8a10.534 10.534 0 00-1.053-.052 11.761 11.761 0 00-10.6 6.659l-.758 1.574a3.434 3.434 0 003.097 4.919z"/></g><g data-name="グループ 1316"><path data-name="パス 1787" d="M-7780.795 4339.624h-25.557a1.863 1.863 0 01-1.863-1.863v-9.437l18.106-1.8a10.537 10.537 0 011.053-.052 11.761 11.761 0 0110.6 6.659l.758 1.574a3.434 3.434 0 01-3.097 4.919z"/></g><g><g data-name="グループ 1317"><path data-name="パス 1788" d="M-7852.88 4217.319s-.87 3.531 1.344 3.953 10.177 0 10.177 0l4.583-6.853-6.009-1.16z" fill="#2c4e88"/><path data-name="パス 1789" d="M-7847.877 4222.109a24.611 24.611 0 01-3.781-.2 2.278 2.278 0 01-1.531-1.02 5.468 5.468 0 01-.323-3.727.649.649 0 01.389-.447l10.094-4.059a.642.642 0 01.365-.035l6.009 1.16a.649.649 0 01.417 1l-4.583 6.852a.651.651 0 01-.505.288c-.214.011-3.6.188-6.551.188zm-4.435-4.318a3.871 3.871 0 00.218 2.4.97.97 0 00.68.444c1.865.355 8.188.078 9.7.006l3.857-5.767-4.86-.938z" fill="#000931"/></g><g data-name="グループ 1318"><path data-name="パス 1790" d="M-7847.387 4221.442s-.783 12.49 5.463 12.885l-.427-8.784 3.821 3.533 2.566-12.662z" fill="#fcecda"/><path data-name="パス 1791" d="M-7841.924 4234.976h-.041c-6.816-.431-6.1-13.037-6.07-13.574a.651.651 0 01.387-.554l11.423-5.029a.65.65 0 01.9.724l-2.566 12.662a.65.65 0 01-1.078.348l-2.654-2.453.35 7.2a.649.649 0 01-.649.681zm-4.831-13.1a28.756 28.756 0 00.4 5.765c.636 3.432 1.894 5.419 3.743 5.921l-.388-7.985a.65.65 0 011.09-.509l2.972 2.748 2.088-10.3z" fill="#000931"/></g><g data-name="グループ 1319"><path data-name="パス 1792" d="M-7786.386 4147.371a21.113 21.113 0 012.27 1.525c.67.584 4.055 8.28 3.528 13.235s1.332 57.245 1.332 57.245.746 8.051-5.5 8.9-45.749-3.124-45.749-3.124-13.125-8.961-13.758-18.185 1.8-38.822 1.8-38.822l6.426-17.507 10.753-3.262z" fill="#2c4e88"/><path data-name="パス 1793" d="M-7787.436 4228.826c-10.691 0-41.663-3.1-43.118-3.243a.436.436 0 01-.2-.073c-.543-.371-13.306-9.187-13.945-18.514-.628-9.151 1.774-38.591 1.8-38.887a.425.425 0 01.025-.114l6.425-17.506a.432.432 0 01.281-.265l10.753-3.262a.438.438 0 01.126-.019h38.9a.436.436 0 01.22.06 21.148 21.148 0 012.335 1.571c.863.752 4.208 8.6 3.675 13.607-.519 4.868 1.315 56.661 1.334 57.184a13.11 13.11 0 01-.424 4.264c-.828 2.951-2.713 4.707-5.452 5.077a22.484 22.484 0 01-2.735.12zm-42.919-4.094c2.337.233 39.573 3.92 45.537 3.114 2.4-.324 3.987-1.815 4.727-4.431a12.47 12.47 0 00.4-4c-.078-2.161-1.856-52.4-1.332-57.33a26.664 26.664 0 00-3.384-12.864 19.2 19.2 0 00-2.1-1.416h-38.718l-10.485 3.181-6.331 17.248c-.12 1.487-2.4 29.807-1.792 38.7.585 8.517 12.334 16.986 13.482 17.792z" fill="#000931"/></g><g data-name="グループ 1322"><path data-name="パス 1796" d="M-7828.94 4166.658l-1.805 10.812v27.519s-12.176 10.121-13.679 11.307-9.251 1.344-10.911 1.028-2.028-5.308-2.028-5.308c.962-6.028 3.846-13.826 4.479-26.477s5.1-27.348 10.624-31.855l7.676-1.67 4.553 5.535" fill="#2c4e88"/><path data-name="パス 1797" d="M-7852.718 4218.111a17.531 17.531 0 01-2.739-.154c-2-.38-2.459-4.61-2.554-5.9a.666.666 0 01.006-.15c.3-1.873.771-3.871 1.317-6.185a104.553 104.553 0 003.154-20.222c.765-15.307 6.123-28.457 10.861-32.326a.651.651 0 01.273-.132l7.676-1.67a.649.649 0 01.64.222l4.553 5.534a.65.65 0 11-1 .826l-4.3-5.229-7.134 1.552c-5.022 4.259-9.615 18.222-10.268 31.287a105.634 105.634 0 01-3.187 20.456c-.533 2.257-.994 4.211-1.286 6.016.167 2.109.815 4.513 1.495 4.643 1.782.339 9.2.039 10.387-.9 1.364-1.077 11.732-9.689 13.432-11.1v-27.21a.642.642 0 01.009-.107l1.805-10.812a.65.65 0 111.282.214l-1.8 10.759v27.461a.65.65 0 01-.234.5c-.5.414-12.2 10.14-13.692 11.317-.777.613-2.714 1.022-5.758 1.215-.996.064-2.021.095-2.938.095z" fill="#000931"/></g><g data-name="グループ 1323"><path data-name="パス 1798" d="M-7767.687 4217.319s.87 3.531-1.344 3.953-10.176 0-10.176 0l-4.583-6.853 6.009-1.16z" fill="#2c4e88"/><path data-name="パス 1799" d="M-7772.69 4222.108c-2.95 0-6.337-.176-6.551-.188a.653.653 0 01-.506-.288l-4.581-6.849a.649.649 0 01.417-1l6.009-1.16a.64.64 0 01.366.035l10.094 4.059a.649.649 0 01.388.447 5.468 5.468 0 01-.323 3.727 2.277 2.277 0 01-1.531 1.02 24.606 24.606 0 01-3.782.197zm-6.158-1.469c1.507.073 7.831.349 9.7-.006a.972.972 0 00.681-.446 3.916 3.916 0 00.217-2.4l-9.591-3.856-4.86.938z" fill="#000931"/></g><g data-name="グループ 1324"><path data-name="パス 1800" d="M-7773.178 4221.442s1.6 12.49-4.647 12.885l-.389-8.784-3.424 4.665-2.964-13.795z" fill="#fcecda"/><path data-name="パス 1801" d="M-7777.825 4234.976a.65.65 0 01-.649-.621l-.308-6.942-2.333 3.178a.65.65 0 01-1.159-.248l-2.963-13.795a.65.65 0 01.9-.731l11.423 5.029a.65.65 0 01.383.512c.043.338 1.028 8.332-1.918 11.9a4.549 4.549 0 01-3.332 1.715zm-.389-10.084a.649.649 0 01.649.621l.357 8.064a3.266 3.266 0 001.754-1.144c2.268-2.748 1.823-8.984 1.67-10.548l-9.915-4.365 2.392 11.137 2.569-3.5a.651.651 0 01.523-.265z" fill="#000931"/></g><g data-name="グループ 1325"><path data-name="パス 1802" d="M-7791.625 4166.66l1.805 10.812v27.515s12.176 10.121 13.678 11.307 9.251 1.344 10.912 1.028 2.841-5.268 2.841-5.268c-.88-6.768-4.659-13.867-5.292-26.517s-5.1-27.348-10.624-31.855l-7.676-4.857-5.854 2.787" fill="#2c4e88"/><path data-name="パス 1803" d="M-7767.847 4218.11c-.918 0-1.942-.031-2.939-.094-3.043-.193-4.981-.6-5.758-1.215-1.491-1.177-13.194-10.9-13.691-11.317a.648.648 0 01-.234-.5v-27.461l-1.8-10.759a.65.65 0 111.282-.214l1.8 10.812a.683.683 0 01.009.107v27.21c1.7 1.413 12.068 10.025 13.432 11.1 1.189.938 8.6 1.238 10.387.9.733-.139 1.77-2.5 2.3-4.664a56.737 56.737 0 00-1.843-7.758 78.1 78.1 0 01-3.438-18.691c-.657-13.141-5.3-27.19-10.356-31.36l-7.339-4.644-5.53 2.633a.65.65 0 11-.558-1.173l5.854-2.787a.651.651 0 01.627.038l7.676 4.857a.647.647 0 01.063.046c4.738 3.869 10.1 17.019 10.862 32.326a75.94 75.94 0 003.39 18.4 56.578 56.578 0 011.9 8.065.639.639 0 01-.012.234c-.3 1.257-1.427 5.389-3.351 5.755a17.528 17.528 0 01-2.733.154z" fill="#000931"/></g><g data-name="グループ 1326"><path data-name="パス 1804" d="M-7839.232 4221.562c-1.871 1.5-3.611 6.722.58 8.3s4.19.474 12.255 1.819 21.981 1.107 28.622.711 17.158-.316 18.146-3.558-.1-5.336-1.937-5.277-25.934-2-25.934-2l-28.543-.552z" fill="#2c4e88"/><path data-name="パス 1805" d="M-7809.213 4233.14a116.215 116.215 0 01-17.255-1.029 56.746 56.746 0 00-7.057-.788 14.394 14.394 0 01-5.28-1.052 4.1 4.1 0 01-2.8-3.31 6.733 6.733 0 012.1-5.736.435.435 0 01.2-.089l3.189-.552a.393.393 0 01.082-.007l28.543.552c.265.022 23.456 2 25.823 2h.088a2.388 2.388 0 012.041.962c.823 1.075.942 2.851.325 4.874-.932 3.056-8.614 3.4-15.392 3.708-1.1.05-2.165.1-3.142.155-3.008.179-7.121.312-11.465.312zm-29.831-11.171a6.005 6.005 0 00-1.707 4.856 3.255 3.255 0 002.251 2.635 13.545 13.545 0 005.021 1 57.653 57.653 0 017.153.8c7.8 1.3 21.332 1.134 28.525.706.982-.059 2.047-.107 3.155-.156 5.845-.264 13.85-.625 14.6-3.1.526-1.726.457-3.256-.184-4.094a1.579 1.579 0 00-1.325-.624h-.1c-2.427 0-24.918-1.918-25.889-2l-28.473-.55z" fill="#000931"/></g><g data-name="グループ 1327"><path data-name="パス 1806" d="M-7832.815 4195.896c0 5.867.512 11.145-2.276 11.145s-7.821-5.278-7.821-11.145c0-2.352-.231-6.256.384-8.016.919-2.631 2.994-2.608 4.664-2.608 2.788 0 5.049 4.756 5.049 10.624z" fill="#1c3b69"/></g><g data-name="グループ 1328"><path data-name="パス 1807" d="M-7780.145 4197.054c0 5.867-2.26 10.624-5.048 10.624s-5.049-4.756-5.049-10.624 2.261-10.624 5.049-10.624c1.913 0 4.192-.267 5.048 3.035.392 1.507 0 5.746 0 7.589z" fill="#1c3b69"/></g><g data-name="グループ 1329"><path data-name="パス 1808" d="M-7833.859 4147.897s10.38-5.047 16.655-5 20.612 1.785 22.193 3-11.612 19.684-16.678 18.513-20.958-11.45-20.958-11.45z" fill="#fcecda"/><path data-name="パス 1809" d="M-7811.219 4165.107a2.713 2.713 0 01-.613-.067c-5.118-1.183-20.512-11.115-21.165-11.537a.652.652 0 01-.279-.394l-1.212-5.06a.65.65 0 01.348-.736c.429-.209 10.581-5.1 16.944-5.066 5.717.042 20.679 1.672 22.584 3.132.722.554.3 1.733-.211 2.815-2.114 4.482-11.348 16.913-16.396 16.913zm-20.854-12.555c1.924 1.234 15.953 10.163 20.533 11.221.651.153 2.232-.044 5.489-3.043 5.185-4.774 10.447-12.836 10.526-14.4-1.868-1.009-15.2-2.74-21.682-2.787h-.082c-5.312 0-13.741 3.752-15.813 4.714z" fill="#000931"/></g><g data-name="グループ 1330"><path data-name="パス 1810" d="M-7782.142 4164.94c.787 10.015.528 15.8-.956 21.347l-.962 19.018c2.182 6.741 5.2 7.011 3.975 13.623s-6.437 7.821-6.437 7.821a85.884 85.884 0 01-22.536 2.907h-4.213a85.882 85.882 0 01-22.536-2.907s-5.218-1.2-6.438-7.821.6-6.2 2.78-12.944l-.054-17.682c-.75-5.113-3.31-14.839-2.146-23.362" fill="#2c4e88"/><path data-name="パス 1811" d="M-7814.17 4230.311a87.666 87.666 0 01-21.82-2.939c-.194-.044-5.611-1.37-6.894-8.327-.872-4.7-.23-6.088.936-8.6a37.974 37.974 0 001.833-4.562l-.054-17.531c-.158-1.071-.393-2.329-.664-3.784-1.015-5.448-2.406-12.909-1.476-19.715a.65.65 0 011.288.176c-.9 6.6.467 13.94 1.466 19.3.277 1.488.517 2.773.679 3.878a.661.661 0 01.007.092l.054 17.682a.645.645 0 01-.032.2 38.9 38.9 0 01-1.922 4.805c-1.121 2.419-1.633 3.523-.837 7.82 1.13 6.128 5.9 7.3 5.945 7.306a85.87 85.87 0 0022.381 2.89h4.222a85.945 85.945 0 0022.353-2.88c.231-.056 4.859-1.224 5.982-7.315.735-3.966-.124-5.477-1.424-7.765a27.568 27.568 0 01-2.53-5.541.652.652 0 01-.031-.233l.962-19.018a.671.671 0 01.021-.135c1.464-5.467 1.718-11.193.937-21.128a.652.652 0 011.3-.1c.79 10.056.531 15.894-.959 21.5l-.952 18.83a26.148 26.148 0 002.387 5.187c1.389 2.445 2.393 4.212 1.571 8.643-1.283 6.956-6.7 8.282-6.931 8.336a87.369 87.369 0 01-22.69 2.923h-4.2q-.461.004-.908.005z" fill="#000931"/></g><g data-name="グループ 1331"><path data-name="パス 1812" d="M-7810.772 4164.555s15.444-16.13 14.97-17.605-2.952-3.163-8.75-3.057l-2.082-1.9a33.867 33.867 0 013.835-1.464c3.146-1.089 10.74-3.175 12.769-2.226a7.241 7.241 0 013.822 5.166c.316 2 1.476 1.9 2.108 3.163s1.265 3.449 0 4.676-5.693 2.6-8.012 4.39-12.225 9.068-18.66 8.857z" fill="#2c4e88"/><path data-name="パス 1813" d="M-7810.496 4165.209h-.293a.649.649 0 01-.448-1.1c7-7.306 14.357-15.594 14.787-17.048-.418-1.024-2.534-2.63-8.087-2.516a.639.639 0 01-.45-.17l-2.082-1.9a.65.65 0 01.127-1.051 33.942 33.942 0 013.932-1.507c.1-.035 10.452-3.514 13.258-2.2a7.907 7.907 0 014.188 5.653 2.391 2.391 0 00.99 1.708 3.927 3.927 0 011.058 1.264c.864 1.729 1.284 4.063-.129 5.433a15.06 15.06 0 01-3.659 2.046 24.933 24.933 0 00-4.409 2.392c-1.963 1.519-11.987 8.996-18.783 8.996zm6.474-21.972c7.146 0 8.572 2.676 8.841 3.514.173.539.41 1.278-7.444 9.989a422.757 422.757 0 01-6.544 7.073c6.493-.9 15.57-7.784 16.662-8.628a25.781 25.781 0 014.657-2.543 15.169 15.169 0 003.3-1.8c.91-.883.5-2.663-.129-3.92a2.737 2.737 0 00-.748-.864 3.655 3.655 0 01-1.421-2.487 6.634 6.634 0 00-3.455-4.679c-1.582-.74-8.265.862-12.282 2.252-1.4.483-2.3.822-2.865 1.047l1.148 1.046zm7.585 3.759z" fill="#000931"/></g><g data-name="グループ 1332"><path data-name="パス 1814" d="M-7834.594 4156.227c4.255 1.7 23.338 8.328 23.338 8.328s-20.92-13.115-17.685-16.92 9.515-4.522 10.518-4.738-3.709-2.576-8.136-2.576-14.019 7.662-13.7 10.087a10.512 10.512 0 005.665 5.819z" fill="#2c4e88"/><path data-name="パス 1815" d="M-7811.256 4165.205a.64.64 0 01-.213-.036c-.191-.066-19.145-6.654-23.366-8.339a11.088 11.088 0 01-6.041-6.211.608.608 0 01-.029-.126c-.1-.795.411-1.825 1.572-3.148 2.747-3.129 9.089-7.673 12.775-7.673 3.614 0 8.782 1.759 8.917 3.035a.763.763 0 01-.645.826c-.108.023-.275.052-.491.09-1.71.3-6.917 1.2-9.668 4.433a.853.853 0 00-.168.747c.575 3.726 12.974 12.237 17.7 15.2a.649.649 0 01-.345 1.2zm-23.1-9.581c2.834 1.131 12.4 4.5 18.357 6.589-5.288-3.624-13.356-9.677-13.9-13.212a2.165 2.165 0 01.462-1.787c2.677-3.147 7.267-4.276 9.594-4.72a17.4 17.4 0 00-6.717-1.523c-2.935 0-8.94 3.976-11.8 7.231-1.131 1.287-1.255 1.893-1.262 2.07a9.936 9.936 0 005.266 5.351z" fill="#000931"/></g><g data-name="グループ 1333"><path data-name="パス 1816" d="M-7804.864 4140.321v6.206s-1.908 1.107-6.27 1.107-5.614-1.107-5.614-1.107v-6.206h11.884" fill="#f6beb0"/></g><g data-name="グループ 1334"><path data-name="パス 1817" d="M-7815.753 4152.041a.429.429 0 01-.2-.052l-4.473-2.4a.433.433 0 11.409-.763l4.473 2.4a.433.433 0 01-.205.814z" fill="#000931"/></g><g data-name="グループ 1335"><path data-name="パス 1818" d="M-7806.629 4152.042a.433.433 0 01-.205-.814l4.473-2.4a.433.433 0 11.41.763l-4.473 2.4a.43.43 0 01-.205.051z" fill="#000931"/></g><g data-name="グループ 1336"><path data-name="パス 1819" d="M-7808.723 4175.626a7.337 7.337 0 01-2.272-.412c-1.9-.64-3.74-1.924-3.581-3.351.141-1.27 1.58-7.419 2.483-7.991a.745.745 0 01.464-.113l2.53.053a.651.651 0 01.591.412c.544 1.386 3.2 8.4 1.988 10.417a2.4 2.4 0 01-2.203.985zm-2.682-10.563a36.492 36.492 0 00-1.88 6.943c-.048.428.958 1.387 2.705 1.976 1.393.47 2.658.465 2.944-.011.623-1.039-.709-5.671-1.928-8.87zm-.483-.038zm0 0zm0 0zm0 0zm0 0zm0 0z" fill="#000931"/></g><g data-name="グループ 1337"><path data-name="パス 1820" d="M-7810.771 4166.676c.793-.161 1.489.712 1.529 2.194s.2 2.728-1.3 2.352a1.69 1.69 0 01-1.146-2.247c.076-.5.142-2.141.917-2.299z" fill="#000931"/></g><g data-name="グループ 1338"><path data-name="パス 1821" d="M-7813.518 4230.266a.65.65 0 01-.648-.618c-.166-3.367.164-17.747.382-27.263.069-3.006.126-5.5.152-6.953.1-5.948.727-21.357.733-21.512a.65.65 0 011.3.052c-.006.155-.628 15.549-.732 21.482-.026 1.455-.083 3.951-.152 6.96-.218 9.5-.547 23.849-.383 27.169a.649.649 0 01-.616.681z" fill="#000931"/></g><g data-name="グループ 1339"><path data-name="パス 1822" d="M-7809.216 4230.267a.649.649 0 01-.649-.644c-.026-2.885.032-9.39.1-16.922.132-14.862.314-35.216-.091-37.639a.65.65 0 111.282-.214c.423 2.535.249 22.125.109 37.865-.067 7.526-.125 14.025-.1 16.9a.65.65 0 01-.644.655z" fill="#000931"/></g><g data-name="グループ 1340"><path data-name="パス 1823" d="M-7817.204 4146.281a.65.65 0 01-.65-.65v-5.469a.65.65 0 111.3 0v5.469a.65.65 0 01-.65.65z" fill="#000931"/></g><g data-name="グループ 1341"><path data-name="パス 1824" d="M-7804.864 4146.967a.65.65 0 01-.65-.65v-6a.65.65 0 111.3 0v6a.65.65 0 01-.65.65z" fill="#000931"/></g><g data-name="グループ 1342"><path data-name="パス 1825" d="M-7784.757 4215.069a1.9 1.9 0 01-.8 1.034c-2 1.057-4.9-.68-7.748.163a20.8 20.8 0 01-10.014 0c-3.008-.793-1.215-3.9 5.639-5.482s6.213-5.5 9.328-4.695a4.246 4.246 0 011.889 1.063 25.988 25.988 0 001.473 7.371c.076.181.155.361.233.546z" fill="#1c3b69"/></g></g><g><g data-name="グループ 1347"><g data-name="グループ 1344"><path data-name="パス 1827" d="M-7781.619 4125.152l2.6-2.78a2.263 2.263 0 00.693-2.64l-1.866-8.426a20.239 20.239 0 017.052.777c-1.989-6.321-5.076-12.23-8.148-18.1a27.319 27.319 0 016.873 4.661c.3-1.31-.481-2.6-1.229-3.718-3.8-5.679-7.643-11.4-12.532-16.179l8.315-1.5c-3.3-1.141-6.9-.594-10.391-.728a1.8 1.8 0 01-.892-.2 1.922 1.922 0 01-.647-.965 31.727 31.727 0 00-7.263-10.7c1.07 3-.064 7.044 0 10.232l-1.5-.614a101.036 101.036 0 00-17.228-6.972 21.677 21.677 0 016.092 7.592c-8.64-1.555-17.746-2.125-26.024.8a25.747 25.747 0 008.349 3.149 55.025 55.025 0 00-10.285 5.919 24.1 24.1 0 00-7.515 9.056 20.227 20.227 0 006.193-1.6c.2 1.671-.551 3.292-1.253 4.822-2.609 5.683-4.771 11.669-5.262 17.9l3.869-2.807q.708 4.719 1.361 9.446c.6.027 1.695-.937 1.978-1.471z" fill="#7b5f32"/></g><g data-name="グループ 1346"><g data-name="グループ 1345"><path data-name="パス 1828" d="M-7781.16 4125.611c1.332-1.423 3.7-3.036 3.607-5.2-.127-3.024-1.358-6.327-2.011-9.279l-.627.822a21.871 21.871 0 016.879.754.655.655 0 00.8-.8c-2.057-6.38-5.115-12.333-8.214-18.256l-.889.889a29.071 29.071 0 016.741 4.559.659.659 0 001.109-.46c.185-1.839-.755-3.2-1.741-4.677a222.524 222.524 0 00-3.869-5.647 76.426 76.426 0 00-8.341-10.033l-.287 1.086 8.315-1.5c.666-.12.569-1.077 0-1.253a19.337 19.337 0 00-5.673-.766c-1.131-.007-2.26.038-3.39.038a2.573 2.573 0 01-2.91-1.857 33.032 33.032 0 00-6.932-9.836.655.655 0 00-1.086.632c.99 3.276-.012 6.72-.023 10.059l.823-.626c-2.815-1.155-5.495-2.621-8.3-3.811a105.71 105.71 0 00-10.425-3.775c-.591-.181-1.146.667-.632 1.086a22.538 22.538 0 015.99 7.461l.734-.955c-8.762-1.544-17.819-2.106-26.369.8a.658.658 0 00-.156 1.188 28.286 28.286 0 008.5 3.214l-.155-1.187c-7.243 3.411-14.492 7.685-18.033 15.208-.185.392.024 1.039.561.978a23.412 23.412 0 006.365-1.625l-.822-.627c.107 2.4-1.2 4.5-2.12 6.639a73.045 73.045 0 00-1.921 4.9 46.6 46.6 0 00-2.474 11.187.653.653 0 00.978.561l3.869-2.807-.955-.389q.706 4.72 1.362 9.446c.051.368.493.511.8.454a3.083 3.083 0 001.4-.693c.2-.161 1.184-.988.426-.754a2.113 2.113 0 01.667.058c1.174.141 2.364.2 3.542.3l13.728 1.182 32.794 2.824 7.905.681c.833.071.828-1.228 0-1.3l-51.35-4.422-7.3-.629a.653.653 0 00-.561.322 2.653 2.653 0 01-1.59 1.172l.8.454q-.656-4.726-1.362-9.446a.652.652 0 00-.954-.388l-3.868 2.807.978.561a46.857 46.857 0 012.962-12.315c1.227-3.259 3.713-6.814 3.553-10.41-.017-.374-.41-.8-.823-.626a22.072 22.072 0 01-6.02 1.579l.561.978c3.453-7.335 10.513-11.419 17.567-14.742a.656.656 0 00-.155-1.188 27.19 27.19 0 01-8.194-3.083l-.155 1.188c8.331-2.828 17.14-2.3 25.678-.8a.659.659 0 00.734-.954 23.349 23.349 0 00-6.193-7.724l-.632 1.086a103 103 0 0111.6 4.286c2.4 1.061 4.7 2.305 7.125 3.3a.654.654 0 00.823-.627c.011-3.473 1.007-6.994-.023-10.4l-1.086.632a32.416 32.416 0 014.673 5.754 31.913 31.913 0 011.593 2.838 14.441 14.441 0 001.25 2.649c.942 1.173 2.655.84 4 .826a25.455 25.455 0 017.964.689v-1.253l-8.315 1.5a.655.655 0 00-.287 1.086 72.574 72.574 0 017.695 9.152c1.038 1.44 2.044 2.9 3.039 4.373 1.151 1.7 3.055 3.746 2.837 5.913l1.109-.459a30.322 30.322 0 00-7-4.763.655.655 0 00-.889.889c3.046 5.825 6.059 11.671 8.082 17.946l.8-.8a22.946 22.946 0 00-7.224-.8.66.66 0 00-.626.823l1.493 6.741c.369 1.665.425 2.781-.674 4.248a28.448 28.448 0 01-2.081 2.224c-.584.612.333 1.533.906.92z" fill="#000931"/></g></g></g><g data-name="グループ 1350"><g data-name="グループ 1348"><path data-name="パス 1829" d="M-7810.7 4085.38s-26.41-6.638-25.563 35.167c-4.1 4.1-4.378 12.711 4.52 12.428 6.214 11.3 34.155 9.088 40.934.755 10.723-.616 9.059-13 4.807-11.154 5.868-42.76-24.698-37.196-24.698-37.196z" fill="#fcecda"/><path data-name="パス 1830" d="M-7812.406 4141.376c-1.3 0-2.6-.055-3.882-.172-7.711-.7-13.31-3.38-15.827-7.572h-.05c-4.6 0-6.32-2.359-6.942-3.8-1.237-2.856-.293-6.911 2.19-9.547-.273-15.521 3.15-26.226 10.173-31.819a19.872 19.872 0 0116.065-3.752c1.342-.215 11.3-1.529 18.593 5.454 6.428 6.154 8.731 16.773 6.849 31.57a2.479 2.479 0 011.794.705c1.386 1.3 1.768 4.111.888 6.532-1.135 3.123-4.019 5.073-7.935 5.379-3.642 4.203-12.718 7.022-21.916 7.022zm-19.338-9.051a.651.651 0 01.57.337c2.2 4 7.527 6.573 15 7.248 10.185.922 21.1-1.975 24.859-6.59a.649.649 0 01.467-.239c4.815-.277 6.5-2.967 7.07-4.545.783-2.155.332-4.306-.557-5.142a1.193 1.193 0 00-1.41-.222.65.65 0 01-.9-.684c2.036-14.835-.094-25.388-6.329-31.367-7.183-6.888-17.505-5.119-17.609-5.1a.641.641 0 01-.274-.009c-.081-.02-8.25-1.971-15.093 3.489-6.721 5.363-9.972 15.8-9.663 31.035a.649.649 0 01-.19.473c-2.272 2.272-3.179 5.846-2.111 8.314.895 2.066 3.026 3.1 6.151 3.006z" fill="#000931"/></g><g data-name="グループ 1349"><path data-name="長方形 209" fill="#000931" d="M-7836.874 4120.769l1.22-.444 4.52 12.428-1.22.444z"/></g></g><g data-name="グループ 1353"><g data-name="グループ 1351"><path data-name="パス 1831" d="M-7837.979 4118.178a17.816 17.816 0 004.211-3.337l2.242 5.647 7.715-19.168 2.783 7.453c6.382-6.032 13.4-25.563 16.917-32.113 0 0-57.22 22.553-31.37 31.8z" fill="#7b5f32"/></g><g data-name="グループ 1352"><path data-name="パス 1832" d="M-7804.111 4076.66c17.907 4.122 22.071 37.394 22.071 37.394q-.059 4.885-.028 9.77l-5.667-14.871a38.48 38.48 0 01-.631 7.212c-2.445-6.49-4.96-13.105-9.329-18.491a59.874 59.874 0 00-8.136 9.568l-1.869-8.6-9.824 5.8" fill="#7b5f32"/></g></g><g data-name="グループ 1355"><g data-name="グループ 1354"><path data-name="パス 1833" d="M-7782.834 4114.054q-.056 4.885-.029 9.77l1.276-.173-5.667-14.871a.653.653 0 00-1.276.173 41.985 41.985 0 01-.608 7.04h1.253c-2.49-6.6-5.07-13.194-9.5-18.778a.657.657 0 00-.919 0 64.489 64.489 0 00-8.238 9.7l1.187.155-1.869-8.6a.655.655 0 00-.954-.388l-9.824 5.8.889.889 8.611-14.363-1.122-.656a140.58 140.58 0 01-12.115 18.7l1.187.155-2.782-7.453a.656.656 0 00-1.253 0l-7.715 19.168h1.253l-2.242-5.647a.658.658 0 00-1.086-.287 19.426 19.426 0 01-4.08 3.236l.955.734a50.264 50.264 0 012.5-9.716c.288-.786-.967-1.125-1.253-.346a50.263 50.263 0 00-2.5 9.716.659.659 0 00.955.734 20.708 20.708 0 004.343-3.438l-1.086-.287 2.242 5.647a.657.657 0 001.253 0l7.715-19.168h-1.253l2.783 7.454a.661.661 0 001.188.155 140.632 140.632 0 0012.116-18.7.65.65 0 00-1.122-.656l-8.613 14.359a.655.655 0 00.889.889l9.824-5.8-.954-.388 1.868 8.6a.658.658 0 001.188.156 62.709 62.709 0 018.035-9.437h-.919c4.275 5.393 6.758 11.827 9.162 18.2.2.533 1.133.7 1.253 0a44.079 44.079 0 00.654-7.385l-1.276.172 5.667 14.871a.653.653 0 001.276-.173q-.027-4.885.029-9.77a.65.65 0 00-1.3 0z" fill="#000931"/></g></g><g data-name="グループ 1356"><path data-name="パス 1834" d="M-7794.267 4111.871l-10.961-2.08s1.629-2.3 9.968 1.507" fill="#000931"/></g><g data-name="グループ 1360"><g data-name="グループ 1359"><g data-name="グループ 1358"><g data-name="グループ 1357"><path data-name="パス 1835" d="M-7803.843 4120.589a.433.433 0 01-.337-.7 9.234 9.234 0 016.782-3.026 11.341 11.341 0 018.565 2.991.433.433 0 11-.613.612 10.487 10.487 0 00-7.905-2.738 8.5 8.5 0 00-6.154 2.7.433.433 0 01-.338.161z" fill="#000931"/></g></g></g></g><g data-name="グループ 1361"><path data-name="パス 1836" d="M-7826.213 4111.871l10.961-2.08s-1.63-2.3-9.968 1.507" fill="#000931"/></g><g data-name="グループ 1365"><g data-name="グループ 1364"><g data-name="グループ 1363"><g data-name="グループ 1362"><path data-name="パス 1837" d="M-7816.636 4120.589a.433.433 0 01-.338-.162 8.1 8.1 0 00-5.951-2.665 10.165 10.165 0 00-7.669 2.7.433.433 0 01-.613-.612 11.038 11.038 0 018.328-2.952 8.96 8.96 0 016.58 2.987.433.433 0 01-.337.7z" fill="#000931"/></g></g></g></g><g data-name="グループ 370"><g data-name="パス 1151"><path data-name="パス 1838" d="M-7810.188 4128.627c-1.628.535-2.764.3-2.037-.812s1.243-1.046 2.292-1 2.389 1.285 1.665 1.859-1.317-.246-1.92-.047z" fill="#ffbdad"/></g></g><g data-name="グループ 371"><g data-name="楕円形 27"><ellipse data-name="楕円形 80" cx=".451" cy=".497" rx=".451" ry=".497" fill="#000333" transform="translate(-7810.779 4128.325)"/></g></g><g data-name="グループ 1366"><path data-name="パス 1839" d="M-7810.222 4135.832c-1.9 0-5.281-2.273-5.66-2.532a.567.567 0 01.64-.936c.95.649 3.7 2.334 5.02 2.334s4.217-1.675 5.22-2.32a.567.567 0 01.614.954c-.397.254-3.94 2.5-5.834 2.5z" fill="#000931"/></g><g data-name="グループ 1367"><path data-name="線 9" fill="#fcecda" d="M-7790.809 4133.73l4.807-11.154"/><path data-name="パス 1840" d="M-7790.809 4134.379a.649.649 0 01-.6-.907l4.807-11.154a.65.65 0 111.193.515l-4.807 11.154a.65.65 0 01-.593.392z" fill="#000931"/></g></g></g></svg>