<svg xmlns="http://www.w3.org/2000/svg" width="107" height="86"><defs><clipPath id="a"><path data-name="長方形 216" transform="translate(-7305 3943)" fill="#fff" stroke="#707070" d="M0 0h107v86H0z"/></clipPath></defs><g data-name="マスクグループ 12" transform="translate(7305 -3943)" clip-path="url(#a)"><g data-name="グループ 335"><g data-name="パス 1098"><path data-name="パス 2155" d="M-7218.628 3992.068s-.825 7.042 2.528 8.635c0 0-6.959 3.133-7.655-2.77s5.127-5.865 5.127-5.865z" fill="#535353"/></g><g data-name="パス 1099"><path data-name="パス 2156" d="M-7219.832 4002.269a5.087 5.087 0 01-2.519-.592 4.51 4.51 0 01-2.14-3.658 5.813 5.813 0 011.23-4.759 6.7 6.7 0 014.631-1.933.74.74 0 01.733.746c0 .026 0 .052-.005.077-.211 1.813-.241 6.764 2.109 7.882a.738.738 0 01-.013 1.34 11.067 11.067 0 01-4.026.897zm.4-9.381a4.726 4.726 0 00-2.729 1.365 4.424 4.424 0 00-.862 3.593 3.09 3.09 0 001.4 2.548 5.64 5.64 0 003.987.069c-1.842-2.017-1.887-5.828-1.8-7.575z" fill="#000333"/></g></g><g data-name="グループ 336"><g data-name="パス 1100"><path data-name="パス 2157" d="M-7270.173 3954.431s-12.16 15.254-21.022 13.177c0 0 8.161 5.539 17.512-3.047s3.51-10.13 3.51-10.13z" fill="#535353"/></g><g data-name="パス 1101"><path data-name="パス 2158" d="M-7284.644 3970.077a13.51 13.51 0 01-6.964-1.859.738.738 0 01.583-1.33 6.951 6.951 0 001.581.176c8.152 0 18.581-12.955 18.693-13.1a.742.742 0 01.766-.254 3.3 3.3 0 012.256 2.276c.548 2.22-1.287 5.285-5.455 9.111-4.219 3.884-8.251 4.98-11.46 4.98zm-2.815-1.746c3.065.709 7.933.592 13.279-4.315 4.9-4.5 5.251-6.738 5.02-7.669a1.654 1.654 0 00-.79-1.016c-1.817 2.188-9.931 11.49-17.51 13.001z" fill="#000333"/></g></g><g data-name="グループ 340"><g data-name="パス 1107"><path data-name="パス 2159" d="M-7218.107 3990.318c-4.062 14.214-10.521 20.491-6.09 33.784s-23.948 24.371-23.948 24.371l-34.023-17.906c-.926-9.6-.369-11.979 1.289-17.621s2.585-15.43.739-23.184-3.136-22.707 7.572-34.154 29.172-12.555 43.2-4.431c7.917 4.584 11.782 11.935 12.914 20.023a38.08 38.08 0 01.351 4.643 49.829 49.829 0 01-2.004 14.475z" fill="#535353"/></g><g data-name="パス 1108"><path data-name="パス 2160" d="M-7248.146 4049.213a.738.738 0 01-.344-.088l-34.025-17.906a.737.737 0 01-.391-.582c-.927-9.618-.385-12.111 1.318-17.9 1.693-5.742 2.487-15.418.728-22.806-1.516-6.362-3.792-22.489 7.751-34.829 10.585-11.316 29.138-13.236 44.113-4.568 7.4 4.286 11.993 11.4 13.27 20.561a39.057 39.057 0 01.362 4.733 50.859 50.859 0 01-2.032 14.69 108.872 108.872 0 01-3.826 10.766c-3.1 7.772-5.34 13.387-2.274 22.582 1.927 5.783-1.737 12.012-10.6 18.016a80.088 80.088 0 01-13.782 7.277.736.736 0 01-.268.054zm-33.328-19.112l33.369 17.56c3.032-1.246 27.124-11.569 23.206-23.324-3.236-9.709-.791-15.837 2.3-23.6a107.531 107.531 0 003.777-10.624 49.34 49.34 0 001.976-14.258 37.746 37.746 0 00-.351-4.555c-1.212-8.7-5.551-15.435-12.548-19.486-14.387-8.329-32.174-6.521-42.295 4.3-11.054 11.816-8.852 27.349-7.393 33.478 1.9 7.994.946 17.819-.749 23.566-1.651 5.627-2.148 7.9-1.3 16.942z" fill="#000333"/></g></g><g data-name="グループ 1746"><g data-name="グループ 1745"><path data-name="パス 2161" d="M-7274.214 4092.057s3.842 32.171 4.665 41.03c.777 8.36 7.214 55.047 7.214 55.047h9.269l3.664-78.038.136 1.259v-20.97z" fill="#000931"/></g></g><g data-name="グループ 1748"><g data-name="グループ 1747"><path data-name="パス 2162" d="M-7224.209 4092.057s-3.842 32.171-4.665 41.03c-.776 8.36-7.214 55.047-7.214 55.047h-9.27l-3.663-78.038-.136 1.259v-20.97z" fill="#000931"/></g></g><g data-name="グループ 1749"><path data-name="パス 2163" d="M-7278.773 4198.474h24.715a1.8 1.8 0 001.8-1.8v-9.132l-17.51-1.745q-.508-.05-1.019-.05a11.374 11.374 0 00-10.248 6.44l-.733 1.523a3.321 3.321 0 002.995 4.764z" fill="#5b2c2b"/></g><g data-name="グループ 1750"><path data-name="パス 2164" d="M-7219.922 4198.474h-24.716a1.8 1.8 0 01-1.8-1.8v-9.132l17.51-1.745q.508-.05 1.018-.05a11.374 11.374 0 0110.248 6.44l.733 1.523a3.321 3.321 0 01-2.993 4.764z" fill="#5b2c2b"/></g><g data-name="グループ 337"><g data-name="パス 1102"><path data-name="パス 2165" d="M-7288.886 4080.265s-.762 3.092 1.176 3.462 8.911 0 8.911 0l4.013-6-5.262-1.015z" fill="#397c71"/></g><g data-name="パス 1103"><path data-name="パス 2166" d="M-7284.497 4084.631a21.73 21.73 0 01-3.349-.176 2.159 2.159 0 01-1.451-.966 4.958 4.958 0 01-.3-3.4.736.736 0 01.439-.509l8.843-3.558a.73.73 0 01.415-.039l5.262 1.015a.738.738 0 01.474 1.135l-4.013 6a.743.743 0 01-.576.327c-.191.015-3.153.171-5.744.171zm-3.738-3.829a3.141 3.141 0 00.181 1.888.68.68 0 00.484.314 61.655 61.655 0 008.364.007l3.189-4.767-3.953-.763z" fill="#000333"/></g></g><g data-name="グループ 338"><g data-name="パス 1104"><path data-name="パス 2167" d="M-7283 4083.873s-2.008 12.035 3.462 12.386l.948-8.793 3 4.085 2.595-12.08z" fill="#ffedd9"/></g><g data-name="パス 1105"><path data-name="パス 2168" d="M-7279.538 4097h-.047a3.813 3.813 0 01-2.844-1.5c-2.661-3.351-1.356-11.4-1.3-11.741a.738.738 0 01.431-.555l10-4.4a.739.739 0 011.02.832l-2.6 12.079a.739.739 0 01-1.317.281l-1.873-2.548-.744 6.9a.737.737 0 01-.726.652zm-2.794-12.609c-.346 2.416-.708 7.964 1.059 10.19a2.416 2.416 0 001.086.806l.862-7.994a.739.739 0 011.33-.358l2.026 2.76 1.946-9.059z" fill="#000333"/></g></g><g data-name="グループ 341"><g data-name="パス 1109"><path data-name="パス 2169" d="M-7268.84 4014.318c3.566-2.977 7.478-6.128 9.9-5.92s5.574 3.012 5.71 5.608-6.061 4.431-8.655 4.919-9.416 3.843-9.451.727a7.777 7.777 0 012.496-5.334z" fill="#1e1e1e"/></g><g data-name="パス 1110"><path data-name="パス 2170" d="M-7269.659 4021.698a2.776 2.776 0 01-1.638-.43 1.894 1.894 0 01-.773-1.609 8.473 8.473 0 012.744-5.895l.013-.011c4.15-3.465 7.8-6.325 10.437-6.089 2.679.229 6.223 3.243 6.386 6.3.206 3.87-9.162 5.663-9.257 5.681a23.77 23.77 0 00-2.569.764 19.422 19.422 0 01-5.343 1.289zm1.3-6.82a7.07 7.07 0 00-2.237 4.764c0 .316.109.392.154.423.791.567 3.838-.448 5.658-1.054a23.922 23.922 0 012.764-.816c3.349-.625 8.142-2.459 8.053-4.15-.119-2.233-3.031-4.744-5.038-4.912-2.243-.178-6.519 3.378-9.353 5.745z" fill="#000333"/></g></g><g data-name="グループ 343"><g data-name="パス 1112"><path data-name="パス 2171" d="M-7228.511 4019.015a16.561 16.561 0 013.383 1.335c.587.511 2.156 7.25 1.695 11.589s1.167 50.127 1.167 50.127.653 7.051-4.817 7.79-40.058-2.735-40.058-2.735-11.493-7.847-12.047-15.925 1.574-34 1.574-34l5.622-15.33 9.416-2.856z" fill="#397c71"/></g><g data-name="パス 1113"><path data-name="パス 2172" d="M-7229.432 4090.207c-9.341 0-36.462-2.713-37.736-2.841a.243.243 0 01-.114-.041c-.473-.323-11.6-8.007-12.154-16.111-.548-8 1.553-33.772 1.574-34.032a.262.262 0 01.014-.064l5.627-15.33a.246.246 0 01.16-.15l9.416-2.856a.241.241 0 01.071-.01h34.064a.237.237 0 01.07.01 15.685 15.685 0 013.475 1.385c.676.59 2.245 7.406 1.777 11.8-.455 4.272 1.151 49.633 1.168 50.091a11.359 11.359 0 01-.367 3.69 5.469 5.469 0 01-4.663 4.349 19.5 19.5 0 01-2.382.11zm-37.623-3.322c1.676.168 34.67 3.444 39.939 2.73 5.176-.7 4.611-7.455 4.605-7.524-.068-1.884-1.625-45.868-1.167-50.175.468-4.4-1.176-10.981-1.611-11.379a15.31 15.31 0 00-3.256-1.274h-34l-9.264 2.811-5.567 15.182c-.088 1.066-2.108 26.09-1.571 33.924.517 7.6 11.058 15.125 11.889 15.7z" fill="#000333"/></g></g><g data-name="グループ 345"><g data-name="パス 1115"><path data-name="パス 2174" d="M-7213.509 4082.527c.553 2.031.092 3.739-.646 4.292a16.137 16.137 0 01-9.3 1.616c-4.154-.646-3.6-3.7-3.6-3.7l5.539-6.92z" fill="#397c71"/></g><g data-name="パス 1116"><path data-name="パス 2175" d="M-7221.532 4089.317a13.361 13.361 0 01-2.04-.151 5.119 5.119 0 01-3.566-1.9 3.75 3.75 0 01-.648-2.654.738.738 0 01.15-.329l5.539-6.922a.739.739 0 01.95-.176l8.011 4.708a.742.742 0 01.338.439c.576 2.108.191 4.248-.915 5.077a16.677 16.677 0 01-7.819 1.908zm-4.813-4.286a2.269 2.269 0 00.425 1.394 3.752 3.752 0 002.575 1.281 15.59 15.59 0 008.747-1.477c.366-.275.841-1.483.448-3.222l-7.192-4.227z" fill="#000333"/></g></g><g data-name="グループ 346"><g data-name="パス 1117"><path data-name="パス 2176" d="M-7216.388 4087.176s-2.154 14.143-5.892 14.278c-.991.037 1.557-8.421 1.007-10.417-.317-1.152-2.013 4.287-2.443 3.329-1.633-3.645-2.441-12.3-2.441-12.3z" fill="#ffedd9"/></g><g data-name="パス 1118"><path data-name="パス 2177" d="M-7222.286 4102.192a.887.887 0 01-.675-.311c-.492-.572-.327-1.719.314-5.119.185-.981.4-2.141.551-3.162-.527 1.076-.878 1.619-1.488 1.619h-.014a.879.879 0 01-.791-.55c-1.669-3.714-2.469-12.174-2.5-12.532a.739.739 0 011.078-.723l9.77 5.108a.737.737 0 01.388.765c-.374 2.46-2.455 14.752-6.595 14.9zm.872-12.056h.088a.878.878 0 01.769.7c.295 1.068-.06 3.146-.635 6.2-.219 1.167-.5 2.666-.568 3.493 1.89-1.206 3.753-7.982 4.568-12.945l-8.075-4.222a56.959 56.959 0 001.825 9.637c.122-.247.243-.5.339-.7.662-1.425 1.012-2.164 1.689-2.164z" fill="#000333"/></g></g><g data-name="グループ 348"><g data-name="パス 1120"><path data-name="パス 2179" d="M-7224.103 4024.184c4.662 6.786 4.385 13.155 4.8 20.494s0 15.878 10.063 30.834c0 0 .14 2.031-2.423 4.247s-2.008 3.323-3.485 3.323-8.955-.369-8.955-.369l-11.841-7.57v-26.588l1.382-9.994" fill="#397c71"/></g><g data-name="パス 1121"><path data-name="パス 2180" d="M-7215.149 4083.819c-1.478 0-8.685-.352-8.991-.371a.728.728 0 01-.361-.115l-11.841-7.57a.738.738 0 01-.341-.622v-26.586a.739.739 0 01.007-.1l1.382-9.993a.739.739 0 111.466.18v.022l-1.375 9.943v26.127l11.332 7.246c1.189.058 7.412.359 8.722.359.385 0 .4-.012.8-.62a10.95 10.95 0 012.2-2.523 5.5 5.5 0 002.161-3.473c-9.243-13.812-9.643-22.353-9.965-29.223-.029-.6-.057-1.2-.088-1.784-.048-.856-.088-1.7-.126-2.531-.292-6.313-.545-11.765-4.545-17.587a.739.739 0 111.183-.885.525.525 0 01.033.049c4.24 6.169 4.514 12.088 4.8 18.355.039.828.078 1.665.126 2.515.033.591.062 1.189.088 1.8.332 7.068.7 15.08 9.847 28.664a.738.738 0 01.124.362c.006.1.133 2.427-2.677 4.855a9.494 9.494 0 00-1.933 2.216 2.172 2.172 0 01-2.028 1.29z" fill="#000333"/></g></g><g data-name="グループ 349"><g data-name="パス 1122"><path data-name="パス 2181" d="M-7265.773 4035.903l-1.581 9.467v24.094s-10.662 8.862-11.978 9.9-8.1 1.176-9.554.9-4.224-5.123-4.224-5.123c3.185-2.908 5.816-11.631 6.37-22.709s4.47-23.948 9.3-27.895l6.721-1.461 3.987 4.847" fill="#397c71"/></g><g data-name="パス 1123"><path data-name="パス 2182" d="M-7286.492 4081.123a17.329 17.329 0 01-2.532-.132c-1.66-.315-4.041-4.276-4.726-5.482a.739.739 0 01.143-.911c3.146-2.872 5.61-11.8 6.13-22.2.527-10.563 4.253-24.085 9.575-28.429a.743.743 0 01.31-.149l6.721-1.462a.738.738 0 01.727.253l3.987 4.847a.739.739 0 11-1.142.938l-3.7-4.5-6.1 1.328c-4.354 3.734-8.331 15.876-8.9 27.248-.527 10.482-2.93 19.291-6.182 22.792 1.331 2.228 2.88 4.172 3.436 4.278 2.611.5 8.357-.28 8.96-.754 1.178-.93 10.038-8.289 11.7-9.668v-23.75a.792.792 0 01.01-.122l1.581-9.467a.739.739 0 011.456.243l-1.571 9.407v24.033a.737.737 0 01-.264.568c-.439.363-10.685 8.88-11.992 9.912-1.148.9-4.958 1.179-7.627 1.179z" fill="#000333"/></g></g><g data-name="グループ 350"><g data-name="パス 1124"><path data-name="パス 2183" d="M-7274.785 4086.774c-1.638 1.318-3.163 5.886.508 7.27s3.67.416 10.731 1.593 19.248.966 25.064.623 15.022-.277 15.891-3.116-.088-4.673-1.7-4.621-22.709-1.75-22.709-1.75l-24.995-.484z" fill="#397c71"/></g><g data-name="パス 1125"><path data-name="パス 2184" d="M-7248.499 4096.778a101.565 101.565 0 01-15.088-.9 50 50 0 00-6.194-.692 12.479 12.479 0 01-4.585-.913 3.467 3.467 0 01-2.372-2.794 5.836 5.836 0 011.793-4.9.244.244 0 01.113-.051l2.792-.483 25.041.48c.227.018 21.133 1.812 22.7 1.751a1.994 1.994 0 011.677.791c.694.906.79 2.418.263 4.147-.79 2.586-7.467 2.888-13.353 3.154-.966.043-1.9.088-2.755.136-2.633.153-6.232.274-10.032.274zm-26.178-9.774a5.4 5.4 0 00-1.567 4.4 2.974 2.974 0 002.056 2.411 11.963 11.963 0 004.437.878 50.466 50.466 0 016.248.7c6.841 1.142 18.7 1 25.009.62.859-.051 1.792-.094 2.762-.137 5.157-.232 12.22-.552 12.907-2.8.48-1.576.414-2.926-.183-3.7a1.443 1.443 0 00-1.27-.6c-1.59.048-21.874-1.678-22.738-1.752l-24.979-.482z" fill="#000333"/></g></g><g data-name="グループ 351"><g data-name="パス 1126"><path data-name="パス 2185" d="M-7269.166 4061.505c0 5.138.449 9.759-1.993 9.759s-6.852-4.621-6.852-9.759c0-2.059-.2-5.478.336-7.019.8-2.3 2.621-2.284 4.085-2.284 2.445.003 4.424 4.166 4.424 9.303z" fill="#236c60"/></g></g><g data-name="グループ 352"><g data-name="パス 1127"><path data-name="パス 2186" d="M-7224.439 4065.31c0 5.137-1.979 9.3-4.42 9.3s-4.421-4.166-4.421-9.3 1.979-9.3 4.421-9.3c1.675 0 3.671-.235 4.42 2.657.342 1.319 0 5.031 0 6.643z" fill="#236c60"/></g></g><g data-name="グループ 353"><g data-name="パス 1128"><path data-name="パス 2187" d="M-7270.076 4019.476s9.09-4.42 14.583-4.379 18.05 1.564 19.434 2.625-10.168 17.236-14.6 16.211-18.352-10.026-18.352-10.026z" fill="#ffedd9"/></g><g data-name="パス 1129"><path data-name="パス 2188" d="M-7250.276 4034.713a2.449 2.449 0 01-.553-.06c-4.51-1.043-18.014-9.756-18.587-10.125a.742.742 0 01-.317-.449l-1.061-4.431a.737.737 0 01.4-.836c.376-.183 9.224-4.455 14.832-4.455h.08c5.025.037 18.184 1.483 19.878 2.778.728.559.341 1.664-.134 2.673-1.87 3.953-10.039 14.905-14.538 14.905zm-18.09-11.266c1.885 1.206 13.927 8.857 17.87 9.767.371.088 1.493.069 3.873-1.933 4.7-3.961 9.6-11.46 9.926-13.077-1.915-.878-13.252-2.324-18.8-2.365h-.073c-4.514 0-11.65 3.133-13.65 4.054z" fill="#000333"/></g></g><g data-name="グループ 354"><g data-name="パス 1130"><path data-name="パス 2189" d="M-7230.507 4034.067c4.431 2.353 6.879 10.462 3.777 20.433-.522 1.678-1.487 1.235-2.635 5.746-.59 2.326.689 6.081 1.661 10.094.914 3.772 4.163 9.883 4.2 9.962a8 8 0 01-.783 8.221c-1.66 2.442-14.4 2.408-24.972 2.548s-22.525-2.548-22.525-2.548-4.568-1.054-5.637-6.852 1.57-6.026 3.481-11.929c1.261-3.891 1.9-7.531.589-12.043-.677-2.339.046.5-1.431-3.214-2.06-5.183-3.011-19.122 3.452-21.164" fill="#397c71"/></g><g data-name="パス 1131"><path data-name="パス 2190" d="M-7250.046 4091.813a117.684 117.684 0 01-21.9-2.569c-.21-.048-5.059-1.235-6.2-7.436a9.409 9.409 0 011.395-7.681 22.72 22.72 0 002.108-4.609c1.251-3.858 1.829-7.309.583-11.61a24.793 24.793 0 00-.228-.76 7.437 7.437 0 01-1.18-2.387c-1.669-4.2-2.5-13.215-.067-18.347a6.7 6.7 0 013.984-3.792.739.739 0 01.445 1.405 5.289 5.289 0 00-3.095 3.018c-2.232 4.7-1.428 13.309.106 17.169a16.669 16.669 0 00.79 1.8c.288.176.382.5.669 1.485 1.43 4.937.559 8.914-.6 12.474a24.281 24.281 0 01-2.233 4.884 7.958 7.958 0 00-1.23 6.684c.966 5.258 5.036 6.254 5.077 6.263.115.026 12.008 2.663 22.349 2.526l2.269-.027c8.768-.1 20.777-.243 22.1-2.2a7.224 7.224 0 00.716-7.512l-.039-.075a55.7 55.7 0 01-4.2-10.007c-.193-.8-.4-1.581-.6-2.353-.848-3.25-1.581-6.052-1.061-8.1a11.257 11.257 0 012.02-4.677 3.19 3.19 0 00.615-1.107c3.075-9.893.535-17.461-3.418-19.561a.739.739 0 11.693-1.305c2.46 1.308 4.269 4.1 5.089 7.855a26.672 26.672 0 01-.952 13.45 4.644 4.644 0 01-.852 1.559 9.8 9.8 0 00-1.77 4.15c-.426 1.676.3 4.437 1.054 7.361.2.776.409 1.572.605 2.377a54.471 54.471 0 004.072 9.676c.053.1.081.162.088.171a8.688 8.688 0 01-.853 8.927c-1.636 2.407-10.289 2.687-23.305 2.84l-2.267.027c-.247.009-.512.014-.777.014z" fill="#000333"/></g></g><g data-name="グループ 355"><g data-name="パス 1132"><path data-name="パス 2191" d="M-7249.859 4034.062s13.523-14.121 13.108-15.416-2.584-2.77-7.662-2.678l-1.823-1.662a29.849 29.849 0 013.358-1.281c2.755-.953 9.4-2.781 11.182-1.95a6.338 6.338 0 013.346 4.523c.278 1.757 1.292 1.662 1.845 2.77s1.108 3.02 0 4.094-4.985 2.275-7.016 3.844-10.706 7.94-16.338 7.756z" fill="#397c71"/></g><g data-name="パス 1133"><path data-name="パス 2192" d="M-7249.623 4034.805h-.263a.738.738 0 01-.509-1.248c5.987-6.254 12.334-13.385 12.888-14.808-.4-.852-2.238-2.128-6.9-2.037a.739.739 0 01-.511-.193l-1.823-1.662a.739.739 0 01.144-1.195 29.52 29.52 0 013.47-1.331c.088-.031 9.173-3.117 11.735-1.921a7.1 7.1 0 013.763 5.077 1.913 1.913 0 00.81 1.395 3.626 3.626 0 01.966 1.159c.38.76 1.493 3.365-.147 4.955a13.2 13.2 0 01-3.25 1.823 21.745 21.745 0 00-3.827 2.075c-1.719 1.334-10.538 7.911-16.546 7.911zm5.67-19.579c6.377 0 7.661 2.433 7.906 3.194.182.568.389 1.212-6.553 8.913a374.924 374.924 0 01-5.39 5.833c5.592-1.035 13.094-6.728 14.02-7.443a22.6 22.6 0 014.11-2.247 13.569 13.569 0 002.843-1.543c.732-.709.379-2.186-.146-3.235a2.216 2.216 0 00-.615-.7 3.345 3.345 0 01-1.3-2.28 5.629 5.629 0 00-2.93-3.969c-1.292-.6-7.062.744-10.629 1.979a64.052 64.052 0 00-2.249.815l.755.689z" fill="#000333"/></g></g><g data-name="グループ 356"><g data-name="パス 1134"><path data-name="パス 2193" d="M-7268.028 4007.706c-6.852 2.078-6.94 4.385-7.864 5.862s-3.046 5.358-2.77 7.478 1.108 3.969 2.4 4.431 2.678 0 5.539 1.292 20.436 7.291 20.436 7.291-19.79-13.663-19.79-14.582.369-2.216 1.2-2.492a4.422 4.422 0 003.047-2.309 8.082 8.082 0 014.014-3.5c.879-.189-2.671-3.466-2.671-3.466z" fill="#397c71"/></g><g data-name="パス 1135"><path data-name="パス 2194" d="M-7250.288 4034.802a.744.744 0 01-.239-.039c-.719-.246-17.64-6.027-20.5-7.319a10.442 10.442 0 00-3.777-.966 6.791 6.791 0 01-1.7-.307c-1.464-.523-2.542-2.4-2.884-5.031-.351-2.706 2.548-7.434 2.875-7.965.122-.2.237-.426.357-.67.765-1.543 1.813-3.655 7.918-5.507a.731.731 0 01.214-.032h3.541a.739.739 0 01.5.2c3.3 3.048 3.108 3.752 3.016 4.093a.89.89 0 01-.69.639 7.6 7.6 0 00-3.486 3.063 4.993 4.993 0 01-3.393 2.693l-.1.034c-.334.111-.641.842-.688 1.593 1.3 1.438 12.506 9.373 19.464 14.177a.739.739 0 01-.42 1.347zm-17.632-26.354c-5.4 1.656-6.242 3.353-6.92 4.718a8.076 8.076 0 01-.429.8c-1.023 1.637-2.9 5.205-2.664 6.99.264 2 1.015 3.509 1.917 3.831a5.517 5.517 0 001.343.227 12.024 12.024 0 014.251 1.087c1.834.828 9.942 3.667 15.36 5.542a780.925 780.925 0 01-5.551-3.922c-10.2-7.282-10.2-7.705-10.2-8.24 0-1.264.533-2.8 1.7-3.193l.106-.035a3.618 3.618 0 002.49-1.854 8.864 8.864 0 013.866-3.69 22.359 22.359 0 00-2.13-2.26z" fill="#000333"/></g></g><g data-name="グループ 357"><g data-name="パス 1136"><path data-name="パス 2195" d="M-7244.69 4018.276s-1.669.966-5.49.966-4.919-.966-4.919-.966v-5.434h10.406z" fill="#ffbdad"/></g></g><g data-name="グループ 360"><g data-name="パス 1140"><path data-name="パス 2196" d="M-7254.229 4023.215a.489.489 0 01-.232-.059l-3.916-2.1a.492.492 0 11.465-.868l3.916 2.1a.492.492 0 01-.234.926z" fill="#000333"/></g></g><g data-name="グループ 361"><g data-name="パス 1141"><path data-name="パス 2197" d="M-7246.235 4023.215a.492.492 0 01-.234-.926l3.917-2.1a.493.493 0 01.466.868l-3.917 2.1a.488.488 0 01-.232.058z" fill="#000333"/></g></g><g data-name="グループ 362"><g data-name="パス 1142"><path data-name="パス 2198" d="M-7248.069 4043.936a6.5 6.5 0 01-2.044-.38c-1.6-.54-3.409-1.679-3.25-3.113a30.335 30.335 0 01.878-3.9c.816-2.867 1.149-3.079 1.371-3.218a.793.793 0 01.507-.125l2.208.046a.737.737 0 01.672.468c.677 1.723 2.8 7.483 1.729 9.271a2.265 2.265 0 01-2.071.951zm-2.241-9.256a32.245 32.245 0 00-1.581 5.926c-.026.227.71 1.03 2.254 1.55 1.312.439 2.225.322 2.38.064.445-.743-.479-4.384-1.661-7.513zm-.589-.047" fill="#000333"/></g></g><g data-name="グループ 363"><g data-name="パス 1143"><path data-name="パス 2199" d="M-7249.861 4035.917c.694-.142 1.3.623 1.339 1.921s.176 2.389-1.142 2.06a1.48 1.48 0 01-1.056-1.808 1.441 1.441 0 01.052-.16c.069-.435.127-1.872.807-2.013z" fill="#000333"/></g></g><g data-name="グループ 364"><g data-name="パス 1144"><path data-name="パス 2200" d="M-7252.267 4091.773a.738.738 0 01-.737-.7c-.146-2.956.143-15.554.335-23.894.06-2.629.111-4.811.132-6.082.088-5.21.637-18.705.642-18.841a.739.739 0 011.476.059c-.005.137-.549 13.616-.641 18.808-.023 1.273-.073 3.457-.133 6.09-.191 8.315-.48 20.882-.336 23.783a.738.738 0 01-.7.775z" fill="#000333"/></g></g><g data-name="グループ 365"><g data-name="パス 1145"><path data-name="パス 2201" d="M-7248.503 4091.773a.739.739 0 01-.739-.732c-.022-2.527.029-8.223.088-14.819.116-13.009.274-30.825-.077-32.933a.739.739 0 011.448-.294c0 .017.006.034.008.051.373 2.235.22 19.4.1 33.189-.059 6.589-.11 12.278-.088 14.793a.739.739 0 01-.732.746h-.006z" fill="#000333"/></g></g><g data-name="グループ 368"><g data-name="パス 1149"><path data-name="パス 2202" d="M-7255.493 4018.23a.738.738 0 01-.739-.739v-4.79a.739.739 0 011.477-.05v4.84a.738.738 0 01-.738.739z" fill="#000333"/></g></g><g data-name="グループ 369"><g data-name="パス 1150"><path data-name="パス 2203" d="M-7244.689 4018.83a.739.739 0 01-.739-.739v-5.25a.739.739 0 011.477 0v5.249a.739.739 0 01-.738.74z" fill="#000333"/></g></g><g data-name="グループ 372"><g data-name="パス 1152"><path data-name="パス 2204" d="M-7227.082 4078.296a1.67 1.67 0 01-.7.906c-1.757.926-4.293-.6-6.786.143a18.208 18.208 0 01-8.768 0c-2.635-.694-1.064-3.417 4.938-4.8s5.44-4.815 8.17-4.111a3.72 3.72 0 011.654.93 22.771 22.771 0 001.291 6.455c.063.157.13.315.201.477z" fill="#236c60"/></g></g><g data-name="グループ 373"><g data-name="パス 1153"><path data-name="パス 2205" d="M-7236.402 4060.188c-3.271.594-7.754-3.531-7.2-6.023s12.254-2.284 13.016.416-4.293 5.327-5.816 5.607z" fill="#236c60"/></g></g><g data-name="グループ 374"><g data-name="パス 1154"><path data-name="パス 2206" d="M-7264.822 4060.188c3.271.594 7.755-3.531 7.2-6.023s-12.255-2.284-13.017.416 4.294 5.327 5.817 5.607z" fill="#236c60"/></g></g><g data-name="グループ 342"><g data-name="パス 1111"><path data-name="パス 2208" d="M-7228.68 4015.332a.739.739 0 01-.644-.376c-2.228-3.953.517-11.168.634-11.473a.739.739 0 011.378.532c-.026.067-2.612 6.87-.726 10.216a.738.738 0 01-.642 1.1z" fill="#000333"/></g></g><g data-name="グループ 358"><g data-name="パス 1137"><path data-name="パス 2211" d="M-7226.137 3988.747s2.568 10.831-2.517 16.595c-5.008 5.675-12.807 7.775-20.931 7.591-8.124.184-15.925-1.915-20.93-7.591-5.085-5.764-2.518-16.595-2.518-16.595s16.2-26.31 22.272-27.049 23.055-.739 24.624 27.049" fill="#ffedd9"/></g><g data-name="パス 1138"><path data-name="パス 2212" d="M-7250.589 4013.683c-6.393 0-14.824-1.438-20.482-7.852-5.277-5.981-2.79-16.8-2.681-17.254a.727.727 0 01.088-.217c1.678-2.723 16.57-26.635 22.812-27.395 4.453-.54 10.893-.243 16.266 4.254 5.462 4.568 8.551 12.449 9.18 23.422.231 1.013 2.428 11.381-2.7 17.189-5.953 6.749-14.982 7.984-21.5 7.841-.318.008-.648.012-.983.012zm.987-1.488c6.246.142 14.815-1.018 20.393-7.341 4.778-5.414 2.377-15.832 2.353-15.937a.742.742 0 01-.019-.129c-.6-10.582-3.514-18.13-8.657-22.437-4.971-4.158-10.98-4.426-15.14-3.92-1.3.157-4.7 2.12-12.9 13.494-4.411 6.117-8.229 12.232-8.769 13.1-.245 1.142-2.124 10.722 2.377 15.824 5.578 6.324 14.153 7.482 20.36 7.342z" fill="#000333"/></g></g><g data-name="グループ 366"><g data-name="パス 1146"><path data-name="パス 2213" d="M-7224.567 3965.483c7.385 19.388 1.659 30 1.659 30 0-1.477-4.244-7.754-6.553-11.718s-4.525-15.332-4.525-15.332c-4.707 13.481-18.857 18.649-18.857 18.649 3.766-7.478 1.629-16.71 1.629-16.71s-12.738 3.983-22.358 26.961c0 0-5.51-14.5 2.109-26.961.128-.207.256-.414.389-.615v-.003a28.7 28.7 0 016.764-7.346 27.376 27.376 0 0113.1-5.465" fill="#535353"/></g><g data-name="パス 1147"><path data-name="パス 2214" d="M-7273.569 3998.076h-.013a.741.741 0 01-.678-.476c-.23-.606-5.549-14.983 2.168-27.608.123-.2.243-.395.369-.585a.408.408 0 01.029-.05 29.511 29.511 0 016.933-7.533 27.886 27.886 0 0113.493-5.614.731.731 0 01.79.667v.011a.739.739 0 01-.678.79 26.928 26.928 0 00-12.713 5.317 28.041 28.041 0 00-6.554 7.109c-.011.021-.023.04-.036.061-.128.2-.253.4-.377.6-5.756 9.419-3.765 20.185-2.619 24.442 9.528-21.408 21.5-25.372 22.021-25.534a.737.737 0 01.925.481.915.915 0 01.016.056c.083.359 1.85 8.229-.91 15.441 3.839-1.845 13.145-7.219 16.721-17.457a.73.73 0 01.75-.494.74.74 0 01.672.6c.022.112 2.218 11.291 4.437 15.1.649 1.114 1.44 2.392 2.277 3.746 1.669 2.7 2.939 4.783 3.669 6.262 1.208-3.7 3.112-13.238-2.38-27.658a.738.738 0 111.379-.527c7.42 19.48 1.86 30.172 1.619 30.617a.739.739 0 01-1.389-.351c0-.848-2.5-4.891-4.155-7.567-.842-1.362-1.638-2.649-2.3-3.778-1.7-2.925-3.318-9.571-4.109-13.164-5.42 11.941-17.821 16.596-18.377 16.796a.739.739 0 01-.914-1.026c2.953-5.862 2.135-12.937 1.732-15.354-2.873 1.307-13.122 7.122-21.119 26.223a.739.739 0 01-.679.457zm51.4-2.59" fill="#000333"/></g></g><g data-name="グループ 370"><g data-name="パス 1151"><path data-name="パス 2216" d="M-7249.448 3998.54c-1.574.518-2.672.287-1.97-.785s1.2-1.011 2.216-.966 2.311 1.243 1.61 1.8-1.276-.241-1.856-.049z" fill="#ffbdad"/></g></g><g data-name="グループ 371"><g data-name="楕円形 27"><ellipse data-name="楕円形 104" cx=".437" cy=".481" rx=".437" ry=".481" fill="#000333" transform="translate(-7250.021 3998.248)"/></g></g><g data-name="グループ 392"><g data-name="パス 1165"><path data-name="パス 2217" d="M-7262.299 3968.452c-.777 2.925-3.407 4.766-5.864 4.106a4.354 4.354 0 01-2.909-2.8v-.005a28.676 28.676 0 016.764-7.346 5.378 5.378 0 012.009 6.045z" fill="#868686"/></g></g><g data-name="グループ 393"><g data-name="楕円形 32"><ellipse data-name="楕円形 105" cx="2.282" cy="1.92" rx="2.282" ry="1.92" transform="rotate(-75.05 -1046.944 6715.509)" fill="#868686"/></g></g><g data-name="グループ 394"><g data-name="パス 1166"><path data-name="パス 2218" d="M-7216.102 3975.842a1.874 1.874 0 01-.886.222 2.5 2.5 0 010-4.943 1.742 1.742 0 01.531.079 38.1 38.1 0 01.355 4.642z" fill="#868686"/></g></g><g data-name="グループ 395"><g data-name="楕円形 33"><ellipse data-name="楕円形 106" cx="1.315" cy="1.077" rx="1.315" ry="1.077" transform="rotate(-24.08 5704.174 18919.61)" fill="#868686"/></g></g><g data-name="グループ 396"><g data-name="パス 1167"><path data-name="パス 2219" d="M-7274.28 4011.523a.739.739 0 01-.629-1.126c2.344-3.82.9-10.967.885-11.039a.739.739 0 011.447-.3c.066.316 1.581 7.789-1.072 12.111a.738.738 0 01-.631.354z" fill="#000333"/></g></g><g data-name="グループ 397"><g data-name="パス 1168"><path data-name="パス 2220" d="M-7252.839 3987.825a.739.739 0 01-.455-1.318c10.487-8.176 10.039-18.06 10.034-18.159a.739.739 0 011.474-.088c.027.434.532 10.735-10.6 19.414a.732.732 0 01-.453.151z" fill="#000333"/></g></g><g data-name="グループ 401"><g data-name="楕円形 34"><ellipse data-name="楕円形 107" cx="3.338" cy="1.594" rx="3.338" ry="1.594" fill="#ffbdad" transform="translate(-7269.587 4002.409)"/></g></g><g data-name="グループ 402"><g data-name="楕円形 35"><ellipse data-name="楕円形 108" cx="3.338" cy="1.594" rx="3.338" ry="1.594" fill="#ffbdad" transform="translate(-7235.805 4002.409)"/></g></g><g data-name="グループ 1751"><path data-name="パス 2222" d="M-7249.417 4006.666a4.435 4.435 0 01-1.852-.62 5.959 5.959 0 00-.709-.324 2.525 2.525 0 00-1.538.292.549.549 0 01-.508-.973 3.545 3.545 0 012.388-.362 6.578 6.578 0 01.861.387 3.8 3.8 0 001.358.5 3.672 3.672 0 001.145-.369 6.669 6.669 0 01.759-.295 3.006 3.006 0 012.457.579.549.549 0 01-.681.86 1.912 1.912 0 00-1.472-.385 6.091 6.091 0 00-.628.248 4.284 4.284 0 01-1.58.462z" fill="#000931"/></g><g data-name="グループ 1752"><path data-name="パス 2223" d="M-7265.455 3984.376s2.045.267 5.51.671a10.6 10.6 0 006.1-1.156s-2.74 2.73-6.246 2.233a13.741 13.741 0 01-5.364-1.748z" fill="#000931"/></g><g data-name="グループ 1756"><g data-name="グループ 1753"><path data-name="パス 2224" d="M-7256.875 3993.342a.836.836 0 01-.593-.246c-3.523-3.529-10.124-3.915-12.8-3.917a.838.838 0 010-1.676c3.581 0 10.159.579 13.982 4.409a.838.838 0 01-.593 1.43z" fill="#000931"/></g><g data-name="グループ 1754"><path data-name="パス 2225" d="M-7263.272 3988.468a5.7 5.7 0 01-1.265-2.274.128.128 0 00-.2-.1 1.945 1.945 0 00-.974 1.862z" fill="#000931"/></g><g data-name="グループ 1755"><path data-name="パス 2226" d="M-7268.561 3988.518a5.7 5.7 0 01-1.762-1.915.128.128 0 00-.218-.047 1.944 1.944 0 00-.511 2.038z" fill="#000931"/></g></g><g data-name="グループ 1757"><path data-name="パス 2227" d="M-7234.645 3984.376s-2.044.267-5.51.671a10.6 10.6 0 01-6.1-1.156s2.74 2.73 6.245 2.233a13.742 13.742 0 005.365-1.748z" fill="#000931"/></g><g data-name="グループ 1761"><g data-name="グループ 1758"><path data-name="パス 2228" d="M-7243.224 3993.342a.838.838 0 01-.593-1.43c3.824-3.83 10.4-4.406 13.983-4.409a.838.838 0 010 1.676c-2.674 0-9.274.388-12.8 3.917a.835.835 0 01-.59.246z" fill="#000931"/></g><g data-name="グループ 1759"><path data-name="パス 2229" d="M-7236.827 3988.468a5.7 5.7 0 001.266-2.274.128.128 0 01.2-.1 1.944 1.944 0 01.974 1.862z" fill="#000931"/></g><g data-name="グループ 1760"><path data-name="パス 2230" d="M-7231.539 3988.518a5.7 5.7 0 001.763-1.915.127.127 0 01.217-.047 1.943 1.943 0 01.511 2.038z" fill="#000931"/></g></g></g></svg>