<svg xmlns="http://www.w3.org/2000/svg" width="105" height="94"><defs><clipPath id="a"><path data-name="長方形 211" transform="translate(-7862 4063.336)" fill="#fff" stroke="#707070" d="M0 0h105v94H0z"/></clipPath></defs><g data-name="マスクグループ 10" transform="translate(7862 -4063.336)" clip-path="url(#a)"><g data-name="グループ 1452"><g data-name="グループ 1451"><path data-name="パス 1900" d="M-7836.136 4228.274s3.924 32.851 4.764 41.9c.793 8.536 7.366 56.21 7.366 56.21h9.465l3.741-79.686.139 1.285v-21.417z" fill="#111"/></g></g><g data-name="グループ 1454"><g data-name="グループ 1453"><path data-name="パス 1901" d="M-7785.074 4228.274s-3.924 32.851-4.764 41.9c-.793 8.536-7.367 56.21-7.367 56.21h-9.465l-3.741-79.686-.139 1.285v-21.417z" fill="#111"/></g></g><g data-name="グループ 1455"><path data-name="パス 1902" d="M-7840.79 4336.938h25.237a1.84 1.84 0 001.841-1.84v-9.319l-17.88-1.782q-.518-.052-1.04-.052a11.614 11.614 0 00-10.464 6.576l-.749 1.555a3.391 3.391 0 003.055 4.862z"/></g><g data-name="グループ 1456"><path data-name="パス 1903" d="M-7780.697 4336.938h-25.238a1.84 1.84 0 01-1.84-1.84v-9.319l17.88-1.782q.519-.052 1.04-.052a11.614 11.614 0 0110.464 6.576l.749 1.555a3.391 3.391 0 01-3.055 4.862z"/></g><g><g data-name="グループ 1457"><path data-name="パス 1904" d="M-7851.882 4216.162s-.859 3.487 1.327 3.9 10.049 0 10.049 0l4.526-6.767-5.934-1.145z" fill="#2c4e88"/><path data-name="パス 1905" d="M-7846.942 4220.889a24.318 24.318 0 01-3.734-.2 2.251 2.251 0 01-1.512-1.008 5.4 5.4 0 01-.318-3.679.64.64 0 01.384-.442l9.968-4.008a.631.631 0 01.361-.035l5.934 1.145a.641.641 0 01.411.987l-4.526 6.767a.642.642 0 01-.5.284c-.21.018-3.554.189-6.468.189zm-4.381-4.264a3.821 3.821 0 00.216 2.368.958.958 0 00.671.439c1.842.35 8.086.077 9.575.005l3.809-5.695-4.8-.926z" fill="#000931"/></g><g data-name="グループ 1458"><path data-name="パス 1906" d="M-7846.458 4220.233s-.774 12.333 5.395 12.724l-.421-8.675 3.773 3.489 2.534-12.5z" fill="#fcecda"/><path data-name="パス 1907" d="M-7841.063 4233.598h-.039c-6.731-.426-6.028-12.875-5.994-13.4a.642.642 0 01.382-.547l11.28-4.966a.642.642 0 01.888.714l-2.534 12.5a.642.642 0 01-1.065.344l-2.62-2.424.345 7.107a.642.642 0 01-.641.673zm-4.771-12.939a28.4 28.4 0 00.395 5.693c.628 3.389 1.871 5.351 3.7 5.847l-.383-7.885a.641.641 0 011.076-.5l2.935 2.714 2.062-10.173z" fill="#000931"/></g><g data-name="グループ 1459"><path data-name="パス 1908" d="M-7786.221 4147.088a20.823 20.823 0 012.242 1.506c.661.577 4 8.176 3.484 13.069s1.315 56.529 1.315 56.529.737 7.951-5.432 8.785-45.177-3.085-45.177-3.085-12.961-8.849-13.586-17.958 1.775-38.337 1.775-38.337l6.345-17.288 10.619-3.221z" fill="#2c4e88"/><path data-name="パス 1909" d="M-7787.252 4227.52c-10.558 0-41.142-3.059-42.579-3.2a.431.431 0 01-.2-.072c-.536-.367-13.14-9.072-13.771-18.283-.62-9.037 1.751-38.108 1.776-38.4a.415.415 0 01.024-.112l6.345-17.288a.43.43 0 01.278-.262l10.619-3.221a.436.436 0 01.124-.018h38.412a.429.429 0 01.217.059 20.9 20.9 0 012.306 1.552c.852.743 4.155 8.491 3.629 13.437-.512 4.807 1.3 55.953 1.317 56.469a12.922 12.922 0 01-.418 4.21c-.817 2.915-2.679 4.648-5.384 5.014a22.22 22.22 0 01-2.695.115zm-42.383-4.043c2.308.23 39.08 3.869 44.967 3.075 2.367-.32 3.937-1.792 4.668-4.375a12.29 12.29 0 00.395-3.946c-.077-2.134-1.833-51.747-1.314-56.614a26.342 26.342 0 00-3.342-12.7 19.018 19.018 0 00-2.076-1.4h-38.234l-10.353 3.136-6.251 17.033c-.119 1.468-2.372 29.434-1.77 38.215.575 8.416 12.177 16.779 13.31 17.576z" fill="#000931"/></g><g data-name="グループ 1462"><path data-name="パス 1912" d="M-7828.242 4166.134l-1.785 10.677v27.171s-12.024 9.994-13.508 11.165-9.135 1.327-10.775 1.015-2-5.242-2-5.242c.95-5.952 3.8-13.653 4.423-26.146s5.041-27.007 10.491-31.457l7.58-1.649 4.5 5.466" fill="#2c4e88"/><path data-name="パス 1913" d="M-7851.723 4216.945a17.372 17.372 0 01-2.7-.152c-1.97-.376-2.428-4.554-2.522-5.825a.659.659 0 01.006-.148c.3-1.85.761-3.824 1.3-6.109a103.157 103.157 0 003.114-19.969c.756-15.116 6.047-28.1 10.726-31.922a.642.642 0 01.27-.13l7.58-1.649a.641.641 0 01.632.219l4.5 5.466a.642.642 0 11-.991.815l-4.247-5.163-7.044 1.532c-4.96 4.206-9.495 17.995-10.14 30.9a104.3 104.3 0 01-3.147 20.2c-.527 2.229-.982 4.159-1.27 5.942.165 2.082.8 4.457 1.476 4.585a29.725 29.725 0 005.286.039c3.045-.194 4.565-.606 4.972-.927 1.347-1.063 11.585-9.569 13.264-10.963v-26.874a.626.626 0 01.009-.106l1.782-10.676a.642.642 0 011.266.211l-1.774 10.624v27.117a.641.641 0 01-.231.493c-.491.408-12.047 10.013-13.52 11.176-.767.605-2.68 1.009-5.686 1.2-.993.061-2.005.094-2.911.094z" fill="#000931"/></g><g data-name="グループ 1463"><path data-name="パス 1914" d="M-7767.753 4216.162s.859 3.487-1.327 3.9-10.049 0-10.049 0l-4.526-6.767 5.934-1.145z" fill="#2c4e88"/><path data-name="パス 1915" d="M-7772.694 4220.89c-2.914 0-6.257-.174-6.469-.186a.642.642 0 01-.5-.284l-4.526-6.767a.642.642 0 01.412-.987l5.934-1.145a.625.625 0 01.361.035l9.968 4.008a.64.64 0 01.384.442 5.4 5.4 0 01-.319 3.679 2.251 2.251 0 01-1.512 1.008 24.318 24.318 0 01-3.733.197zm-6.081-1.451c1.489.072 7.734.345 9.575-.005a.956.956 0 00.671-.439 3.816 3.816 0 00.216-2.368l-9.472-3.808-4.8.926z" fill="#000931"/></g><g data-name="グループ 1464"><path data-name="パス 1916" d="M-7773.177 4220.233s1.58 12.333-4.589 12.724l-.385-8.675-3.381 4.607-2.922-13.622z" fill="#fcecda"/><path data-name="パス 1917" d="M-7777.766 4233.598a.641.641 0 01-.641-.613l-.3-6.855-2.3 3.139a.642.642 0 01-1.145-.245l-2.926-13.623a.641.641 0 01.886-.722l11.28 4.966a.64.64 0 01.378.506c.043.334 1.016 8.228-1.894 11.752a4.492 4.492 0 01-3.291 1.693zm-.384-9.958a.635.635 0 01.186.027.642.642 0 01.454.586l.354 7.964a3.224 3.224 0 001.731-1.13c2.238-2.709 1.8-8.871 1.65-10.417l-9.791-4.311 2.362 11 2.536-3.456a.641.641 0 01.517-.263z" fill="#000931"/></g><g data-name="グループ 1465"><path data-name="パス 1918" d="M-7791.393 4166.134l1.782 10.677v27.171s12.024 9.994 13.508 11.165 9.135 1.327 10.775 1.015 2.805-5.2 2.805-5.2c-.869-6.683-4.6-13.693-5.226-26.186s-5.041-27.007-10.491-31.457l-7.581-4.8-5.781 2.752" fill="#2c4e88"/><path data-name="パス 1919" d="M-7767.912 4216.945c-.906 0-1.919-.031-2.9-.093-3.006-.192-4.919-.6-5.686-1.2-1.473-1.163-13.029-10.768-13.52-11.176a.641.641 0 01-.231-.493v-27.12l-1.774-10.624a.642.642 0 011.266-.211l1.783 10.676a.666.666 0 01.009.106v26.871c1.678 1.394 11.917 9.9 13.264 10.963.407.321 1.926.733 4.971.927a29.711 29.711 0 005.286-.039c.723-.138 1.747-2.47 2.273-4.606a55.926 55.926 0 00-1.82-7.661 77.112 77.112 0 01-3.395-18.458c-.649-12.976-5.233-26.851-10.226-30.968l-7.248-4.586-5.461 2.6a.642.642 0 11-.552-1.159l5.78-2.753a.643.643 0 01.619.037l7.58 4.8a.65.65 0 01.062.045c4.679 3.821 9.97 16.806 10.726 31.922a74.979 74.979 0 003.348 18.172 55.866 55.866 0 011.873 7.964.637.637 0 01-.012.231c-.3 1.242-1.41 5.321-3.309 5.683a17.362 17.362 0 01-2.706.15z" fill="#000931"/></g><g data-name="グループ 1466"><path data-name="パス 1920" d="M-7838.406 4220.352c-1.848 1.485-3.566 6.638.573 8.2s4.138.468 12.1 1.8 21.706 1.093 28.265.7 16.944-.312 17.919-3.513-.1-5.27-1.913-5.211-25.61-1.973-25.61-1.973l-28.187-.545z" fill="#2c4e88"/><path data-name="パス 1921" d="M-7808.76 4231.785a114.82 114.82 0 01-17.04-1.016 56.224 56.224 0 00-6.968-.779 14.21 14.21 0 01-5.215-1.039 4.054 4.054 0 01-2.766-3.268 6.648 6.648 0 012.077-5.665.425.425 0 01.195-.088l3.149-.546c.027 0 .053 0 .082-.006l28.186.545c.262.022 23.163 1.974 25.5 1.974h.087a2.363 2.363 0 012.015.95c.813 1.061.93 2.815.321 4.813-.92 3.018-8.506 3.36-15.2 3.662-1.089.049-2.138.1-3.1.154-2.974.178-7.035.309-11.323.309zm-29.459-11.031a5.929 5.929 0 00-1.686 4.8 3.213 3.213 0 002.223 2.6 13.372 13.372 0 004.96.985 57.035 57.035 0 017.062.789c7.7 1.284 21.065 1.12 28.168.7.969-.058 2.022-.105 3.116-.154 5.772-.261 13.677-.617 14.42-3.057.52-1.7.452-3.216-.181-4.043a1.543 1.543 0 00-1.308-.616c-1.829.071-24.687-1.891-25.66-1.975l-28.118-.543z" fill="#000931"/></g><g data-name="グループ 1467"><path data-name="パス 1922" d="M-7832.069 4195.008c0 5.794.506 11.006-2.248 11.006s-7.723-5.212-7.723-11.006c0-2.322-.228-6.177.379-7.915.907-2.6 2.956-2.575 4.606-2.575 2.754-.003 4.986 4.69 4.986 10.49z" fill="#1c3b69"/></g><g data-name="グループ 1468"><path data-name="パス 1923" d="M-7780.056 4196.148c0 5.794-2.232 10.491-4.985 10.491s-4.986-4.7-4.986-10.491 2.232-10.491 4.986-10.491c1.889 0 4.14-.264 4.985 3 .387 1.488 0 5.673 0 7.491z" fill="#1c3b69"/></g><g data-name="グループ 1469"><path data-name="パス 1924" d="M-7833.095 4147.608s10.251-4.984 16.447-4.938 20.354 1.763 21.916 2.96-11.467 19.438-16.47 18.282-20.7-11.306-20.7-11.306z" fill="#fcecda"/><path data-name="パス 1925" d="M-7810.742 4164.604a2.707 2.707 0 01-.606-.066c-5.053-1.169-20.255-10.976-20.9-11.393a.64.64 0 01-.276-.389l-1.2-5a.641.641 0 01.344-.726c.422-.205 10.363-5 16.643-5h.089c5.646.042 20.421 1.651 22.3 3.093.714.547.295 1.712-.209 2.78-2.081 4.424-11.199 16.701-16.185 16.701zm-20.593-12.4c1.9 1.218 15.753 10.036 20.277 11.081.644.151 2.2-.044 5.42-3 5.121-4.715 10.317-12.676 10.4-14.219-1.844-1-15.01-2.705-21.411-2.752h-.08c-5.243 0-13.569 3.706-15.616 4.655z" fill="#000931"/></g><g data-name="グループ 1470"><path data-name="パス 1926" d="M-7782.029 4164.436c.777 9.89.521 15.6-.944 21.08l-.95 18.78c2.154 6.657 5.135 6.923 3.925 13.453s-6.357 7.723-6.357 7.723a84.809 84.809 0 01-22.254 2.871h-4.161a84.81 84.81 0 01-22.254-2.871s-5.153-1.188-6.357-7.723.591-6.125 2.745-12.782l-.053-17.461c-.74-5.049-3.269-14.654-2.119-23.07" fill="#2c4e88"/><path data-name="パス 1927" d="M-7813.656 4228.991a86.548 86.548 0 01-21.548-2.9c-.191-.043-5.541-1.352-6.808-8.222-.861-4.645-.227-6.012.925-8.495a37.459 37.459 0 001.81-4.5l-.053-17.312c-.156-1.057-.388-2.3-.655-3.735-1-5.38-2.376-12.749-1.458-19.47a.642.642 0 011.272.174c-.89 6.516.461 13.767 1.448 19.061.274 1.469.51 2.738.67 3.829a.6.6 0 01.007.091l.053 17.461a.643.643 0 01-.031.2 38.574 38.574 0 01-1.9 4.746c-1.108 2.389-1.613 3.479-.827 7.722 1.109 6.016 5.678 7.169 5.872 7.215a85.018 85.018 0 0022.1 2.854h4.169a84.721 84.721 0 0022.074-2.845c.228-.055 4.8-1.208 5.907-7.223.726-3.916-.122-5.408-1.406-7.668a27.241 27.241 0 01-2.5-5.472.644.644 0 01-.03-.23l.95-18.78a.639.639 0 01.021-.133c1.445-5.4 1.7-11.054.925-20.864a.642.642 0 111.279-.1c.78 9.931.524 15.7-.947 21.23l-.94 18.594a25.9 25.9 0 002.356 5.109c1.372 2.414 2.363 4.159 1.552 8.534-1.267 6.87-6.617 8.179-6.844 8.231a86.257 86.257 0 01-22.406 2.887h-4.152q-.443.011-.885.011z" fill="#000931"/></g><g data-name="グループ 1471"><path data-name="パス 1928" d="M-7810.296 4164.057s15.251-15.928 14.783-17.385-2.915-3.123-8.641-3.019l-2.056-1.876a33.377 33.377 0 013.787-1.445c3.106-1.075 10.606-3.135 12.61-2.2a7.152 7.152 0 013.774 5.1c.312 1.978 1.457 1.874 2.082 3.123s1.25 3.406 0 4.618-5.622 2.566-7.912 4.336-12.077 8.957-18.427 8.748z" fill="#2c4e88"/><path data-name="パス 1929" d="M-7810.027 4164.703h-.289a.642.642 0 01-.443-1.085c6.908-7.215 14.178-15.4 14.6-16.836-.413-1.01-2.5-2.592-7.985-2.483a.638.638 0 01-.444-.168l-2.056-1.874a.641.641 0 01.126-1.037 33.158 33.158 0 013.883-1.488c.1-.036 10.32-3.471 13.091-2.173a7.811 7.811 0 014.136 5.582 2.362 2.362 0 00.977 1.687 3.875 3.875 0 011.045 1.249c.853 1.706 1.268 4.012-.127 5.365a14.866 14.866 0 01-3.612 2.02 24.634 24.634 0 00-4.354 2.362c-1.939 1.496-11.838 8.879-18.548 8.879zm6.4-21.7c7.056 0 8.462 2.643 8.728 3.469.171.533.4 1.263-7.351 9.865-2.5 2.774-5.05 5.491-6.462 6.985 6.411-.887 15.375-7.687 16.453-8.52a25.428 25.428 0 014.6-2.512 14.991 14.991 0 003.258-1.776c.9-.872.493-2.63-.127-3.87a2.7 2.7 0 00-.739-.854 3.61 3.61 0 01-1.4-2.457 6.552 6.552 0 00-3.412-4.62c-1.561-.729-8.163.852-12.129 2.224-1.379.477-2.27.811-2.83 1.034l1.134 1.033zm7.488 3.712z" fill="#000931"/></g><g data-name="グループ 1472"><path data-name="パス 1930" d="M-7833.825 4155.833c4.2 1.678 23.046 8.224 23.046 8.224s-20.659-12.952-17.464-16.709 9.4-4.466 10.386-4.679-3.662-2.543-8.034-2.543-13.844 7.567-13.531 9.961a10.381 10.381 0 005.597 5.746z" fill="#2c4e88"/><path data-name="パス 1931" d="M-7810.778 4164.699a.634.634 0 01-.21-.036c-.189-.065-18.907-6.57-23.074-8.235a10.949 10.949 0 01-5.966-6.133.626.626 0 01-.03-.125c-.1-.785.406-1.8 1.553-3.109 2.713-3.089 8.975-7.577 12.615-7.577 3.569 0 8.672 1.736 8.806 3a.754.754 0 01-.637.816c-.107.023-.272.052-.486.089-1.69.293-6.83 1.183-9.547 4.377a.842.842 0 00-.166.737c.567 3.679 12.812 12.084 17.482 15.012a.642.642 0 01-.341 1.185zm-28.009-14.747a9.811 9.811 0 005.2 5.284c2.8 1.117 12.241 4.445 18.128 6.507-5.222-3.579-13.19-9.556-13.728-13.047a2.138 2.138 0 01.456-1.764c2.643-3.108 7.177-4.222 9.474-4.661a17.193 17.193 0 00-6.633-1.5c-2.9 0-8.829 3.926-11.651 7.14-1.111 1.269-1.238 1.867-1.246 2.041z" fill="#000931"/></g><g data-name="グループ 1473"><path data-name="パス 1932" d="M-7804.467 4140.126v6.129s-1.884 1.093-6.192 1.093-5.544-1.093-5.544-1.093v-6.129h11.735" fill="#f6beb0"/></g><g data-name="グループ 1474"><path data-name="パス 1933" d="M-7815.218 4151.701a.425.425 0 01-.2-.051l-4.417-2.371a.428.428 0 01.4-.754l4.417 2.371a.428.428 0 01-.2.8z" fill="#000931"/></g><g data-name="グループ 1475"><path data-name="パス 1934" d="M-7806.21 4151.701a.428.428 0 01-.2-.8l4.417-2.371a.428.428 0 11.4.754l-4.417 2.371a.423.423 0 01-.2.046z" fill="#000931"/></g><g data-name="グループ 1476"><path data-name="パス 1935" d="M-7808.277 4174.991a7.236 7.236 0 01-2.245-.407c-1.873-.632-3.692-1.9-3.536-3.309.139-1.255 1.56-7.326 2.452-7.891a.731.731 0 01.458-.111l2.5.052a.642.642 0 01.584.407c.538 1.368 3.158 8.3 1.964 10.287a2.375 2.375 0 01-2.177.972zm-2.649-10.43a36.018 36.018 0 00-1.857 6.855c-.047.423.947 1.37 2.671 1.952 1.376.465 2.626.46 2.908-.01.615-1.026-.7-5.6-1.9-8.759zm-.476-.038zm0 0zm0 0zm0 0zm0 0zm0 0zm0 0z" fill="#000931"/></g><g data-name="グループ 1477"><path data-name="パス 1936" d="M-7810.297 4166.152c.783-.159 1.471.7 1.51 2.167s.2 2.694-1.288 2.323a1.669 1.669 0 01-1.132-2.219c.078-.495.143-2.115.91-2.271z" fill="#000931"/></g><g data-name="グループ 1478"><path data-name="パス 1937" d="M-7813.011 4228.948a.642.642 0 01-.64-.61c-.165-3.327.162-17.537.378-26.94.068-2.961.124-5.416.149-6.849.1-5.873.718-21.09.724-21.243a.642.642 0 111.282.052c-.006.153-.62 15.355-.723 21.214-.025 1.434-.082 3.892-.15 6.856-.216 9.385-.541 23.567-.379 26.848a.642.642 0 01-.609.672z" fill="#000931"/></g><g data-name="グループ 1479"><path data-name="パス 1938" d="M-7808.763 4228.948a.642.642 0 01-.642-.636c-.025-2.849.032-9.272.1-16.71.131-14.677.31-34.778-.089-37.17a.642.642 0 111.266-.211c.418 2.5.246 21.849.107 37.393-.066 7.432-.123 13.849-.1 16.686a.642.642 0 01-.636.648z" fill="#000931"/></g><g data-name="グループ 1480"><path data-name="パス 1939" d="M-7816.649 4146.011a.642.642 0 01-.642-.642v-5.4a.642.642 0 111.283 0v5.4a.642.642 0 01-.641.642z" fill="#000931"/></g><g data-name="グループ 1481"><path data-name="パス 1940" d="M-7804.467 4146.688a.642.642 0 01-.642-.642v-5.92a.642.642 0 111.283 0v5.92a.641.641 0 01-.641.642z" fill="#000931"/></g><g data-name="グループ 1482"><path data-name="パス 1941" d="M-7784.611 4213.945a1.876 1.876 0 01-.794 1.022c-1.977 1.044-4.842-.672-7.651.161a20.546 20.546 0 01-9.889 0c-2.97-.783-1.2-3.854 5.569-5.414s6.135-5.43 9.211-4.636a4.193 4.193 0 011.865 1.049 25.666 25.666 0 001.455 7.279c.079.174.156.351.234.539z" fill="#1c3b69"/></g></g><g><g data-name="グループ 1489"><g data-name="グループ 1485"><g data-name="グループ 1484"><path data-name="パス 1943" d="M-7781.915 4124.957l2.572-2.742a2.233 2.233 0 00.685-2.606l-1.842-8.321a19.988 19.988 0 016.964.767c-1.964-6.241-5.013-12.077-8.046-17.875a26.974 26.974 0 016.787 4.6c.3-1.294-.475-2.568-1.214-3.671-3.755-5.608-7.547-11.261-12.375-15.977l8.211-1.485c-3.256-1.128-6.817-.586-10.261-.719a1.769 1.769 0 01-.88-.194 1.892 1.892 0 01-.639-.952 31.32 31.32 0 00-7.172-10.566c1.057 2.966-.063 6.955 0 10.1l-1.477-.606a99.771 99.771 0 00-17.013-6.885 21.413 21.413 0 016.015 7.5c-8.532-1.535-17.524-2.1-25.7.786a25.419 25.419 0 008.245 3.109 54.375 54.375 0 00-10.157 5.845 23.8 23.8 0 00-7.421 8.943 19.97 19.97 0 006.115-1.582 9.121 9.121 0 01-1.237 4.762c-2.576 5.612-4.712 11.523-5.2 17.678l3.82-2.772q.7 4.66 1.344 9.328c.6.026 1.674-.926 1.953-1.453z" fill="#7b5f32"/></g></g><g data-name="グループ 1488"><g data-name="グループ 1487"><g data-name="グループ 1486"><path data-name="パス 1944" d="M-7781.462 4125.411c1.315-1.406 3.652-3 3.562-5.134-.125-2.986-1.341-6.248-1.986-9.163l-.619.812a21.585 21.585 0 016.793.744.647.647 0 00.789-.789 116.248 116.248 0 00-8.11-18.028l-.878.878a28.718 28.718 0 016.657 4.5.65.65 0 001.1-.453c.183-1.816-.745-3.157-1.719-4.618a216.187 216.187 0 00-3.821-5.576 75.474 75.474 0 00-8.237-9.908l-.283 1.073 8.211-1.485c.657-.119.562-1.064 0-1.237a19.094 19.094 0 00-5.6-.757c-1.116-.007-2.232.038-3.348.038a2.541 2.541 0 01-2.874-1.834 32.618 32.618 0 00-6.845-9.714.646.646 0 00-1.072.624c.977 3.235-.012 6.636-.023 9.933l.812-.619c-2.78-1.14-5.426-2.589-8.2-3.764a104.488 104.488 0 00-10.294-3.727c-.584-.178-1.132.659-.625 1.072a22.261 22.261 0 015.915 7.367l.725-.942c-8.653-1.524-17.6-2.081-26.039.785a.65.65 0 00-.153 1.173 27.927 27.927 0 008.4 3.174l-.153-1.173c-7.152 3.368-14.31 7.59-17.808 15.018-.183.388.024 1.026.554.965a23.085 23.085 0 006.286-1.6l-.812-.619c.105 2.371-1.183 4.443-2.093 6.556a74.58 74.58 0 00-1.9 4.836 46 46 0 00-2.443 11.047.645.645 0 00.965.554l3.82-2.773-.942-.383q.7 4.661 1.344 9.328c.05.363.486.5.789.448a3.048 3.048 0 001.378-.684c.2-.159 1.169-.976.421-.744a2.085 2.085 0 01.659.056c1.16.139 2.334.2 3.5.3l13.556 1.167 32.384 2.789 7.807.672c.823.071.818-1.213 0-1.283l-50.709-4.366-7.212-.621a.645.645 0 00-.554.318 2.617 2.617 0 01-1.569 1.157l.789.448q-.647-4.668-1.344-9.328a.644.644 0 00-.943-.383l-3.828 2.775.966.554a46.275 46.275 0 012.925-12.16c1.211-3.218 3.666-6.728 3.508-10.279-.017-.37-.4-.787-.812-.619a21.781 21.781 0 01-5.945 1.559l.554.965c3.41-7.243 10.381-11.277 17.347-14.557a.648.648 0 00-.153-1.173 26.857 26.857 0 01-8.09-3.042l-.154 1.172c8.227-2.792 16.925-2.271 25.357-.785a.651.651 0 00.725-.943 23.061 23.061 0 00-6.115-7.627l-.625 1.072a101.624 101.624 0 0111.455 4.233c2.367 1.047 4.642 2.276 7.036 3.258a.646.646 0 00.812-.619c.011-3.43.995-6.907-.023-10.275l-1.072.625a32.013 32.013 0 014.615 5.682 31.581 31.581 0 011.573 2.8 14.236 14.236 0 001.235 2.616c.93 1.158 2.621.83 3.947.816a25.161 25.161 0 017.864.681v-1.237l-8.211 1.485a.646.646 0 00-.283 1.072 71.671 71.671 0 017.6 9.037 177.7 177.7 0 013 4.318c1.136 1.678 3.016 3.7 2.8 5.84l1.1-.454a29.964 29.964 0 00-6.916-4.7.647.647 0 00-.878.878 114.257 114.257 0 017.981 17.722l.789-.789a22.643 22.643 0 00-7.134-.79.651.651 0 00-.619.812l1.474 6.656c.364 1.644.419 2.747-.665 4.2a28.165 28.165 0 01-2.055 2.2c-.564.589.341 1.499.907.894z" fill="#000931"/></g></g></g></g><g data-name="グループ 1495"><g data-name="グループ 1492"><g data-name="グループ 1490"><path data-name="パス 1945" d="M-7810.636 4085.682s-26.081-6.555-25.244 34.727c-4.045 4.045-4.324 12.552 4.463 12.273 6.137 11.157 33.729 8.974 40.423.745 10.589-.609 8.945-12.84 4.747-11.015 5.799-42.225-24.389-36.73-24.389-36.73z" fill="#fcecda"/></g><g data-name="グループ 1491"><path data-name="パス 1946" d="M-7812.317 4140.979c-1.281 0-2.563-.056-3.834-.17-7.615-.687-13.143-3.337-15.63-7.478h-.049c-4.54 0-6.241-2.329-6.855-3.748-1.221-2.821-.29-6.825 2.162-9.428-.269-15.327 3.11-25.9 10.046-31.421a19.625 19.625 0 0115.865-3.706c1.326-.212 11.156-1.51 18.36 5.386 6.349 6.077 8.622 16.564 6.764 31.176a2.429 2.429 0 011.772.7c1.369 1.287 1.746 4.06.877 6.451-1.121 3.084-3.968 5.01-7.836 5.313-3.597 4.139-12.561 6.924-21.642 6.925zm-19.1-8.938a.642.642 0 01.563.333c2.172 3.948 7.434 6.49 14.816 7.157 10.058.907 20.84-1.951 24.547-6.508a.641.641 0 01.461-.236c4.755-.273 6.415-2.93 6.982-4.489.773-2.128.328-4.253-.55-5.078a1.178 1.178 0 00-1.393-.219.642.642 0 01-.891-.676c2.011-14.65-.092-25.071-6.25-30.975-7.094-6.8-17.287-5.055-17.389-5.037a.633.633 0 01-.27-.009c-.08-.019-8.146-1.946-14.9 3.445-6.636 5.3-9.847 15.607-9.542 30.647a.641.641 0 01-.188.466c-2.243 2.244-3.14 5.774-2.085 8.21.883 2.039 2.98 3.071 6.074 2.969z" fill="#000931"/></g></g><g data-name="グループ 1494"><g data-name="グループ 1493"><path data-name="長方形 212" fill="#000931" d="M-7836.479 4120.629l1.206-.439 4.467 12.277-1.206.438z"/></g></g></g><g data-name="グループ 1500"><g data-name="グループ 1497"><g data-name="グループ 1496"><path data-name="パス 1947" d="M-7837.572 4118.07a17.586 17.586 0 004.158-3.3l2.214 5.576 7.618-18.929 2.748 7.361c6.3-5.956 13.232-25.244 16.705-31.711 0 0-56.505 22.271-30.977 31.4z" fill="#7b5f32"/></g></g><g data-name="グループ 1499"><g data-name="グループ 1498"><path data-name="パス 1948" d="M-7804.127 4077.071c17.684 4.07 21.795 36.926 21.795 36.926q-.058 4.824-.028 9.648l-5.6-14.685a37.945 37.945 0 01-.623 7.122c-2.414-6.409-4.9-12.941-9.212-18.26a59.128 59.128 0 00-8.035 9.448l-1.845-8.495-9.7 5.727" fill="#7b5f32"/></g></g></g><g data-name="グループ 1503"><g data-name="グループ 1502"><g data-name="グループ 1501"><path data-name="パス 1949" d="M-7783.121 4113.997q-.055 4.824-.028 9.648l1.261-.171-5.6-14.685a.645.645 0 00-1.26.171 41.448 41.448 0 01-.6 6.952h1.237c-2.459-6.523-5.007-13.029-9.377-18.543a.649.649 0 00-.908 0 63.718 63.718 0 00-8.135 9.578l1.172.153-1.845-8.494a.648.648 0 00-.943-.384l-9.7 5.727.878.878 8.5-14.183-1.108-.648a138.787 138.787 0 01-11.964 18.462l1.172.154-2.748-7.361a.648.648 0 00-1.237 0l-7.611 18.926h1.237l-2.214-5.576a.65.65 0 00-1.072-.283 19.154 19.154 0 01-4.028 3.195l.942.725a49.633 49.633 0 012.468-9.594c.284-.777-.955-1.112-1.237-.341a49.64 49.64 0 00-2.468 9.594.651.651 0 00.943.725 20.45 20.45 0 004.288-3.4l-1.072-.283 2.214 5.576a.648.648 0 001.237 0l7.619-18.929h-1.237l2.748 7.36a.652.652 0 001.172.154 138.871 138.871 0 0011.967-18.457.642.642 0 00-1.108-.648l-8.5 14.184a.646.646 0 00.878.878l9.7-5.727-.942-.384 1.845 8.495a.649.649 0 001.173.153 61.953 61.953 0 017.927-9.317h-.908c4.222 5.325 6.674 11.679 9.048 17.977.2.527 1.119.688 1.237 0a43.535 43.535 0 00.646-7.293l-1.26.171 5.6 14.685a.645.645 0 001.26-.17q-.027-4.824.028-9.648a.642.642 0 00-1.283 0z" fill="#000931"/></g></g></g><g data-name="グループ 1505"><g data-name="グループ 1504"><path data-name="パス 1950" d="M-7801.321 4117.821a34.511 34.511 0 000 4.954c.231 1.123 2.074 4.061 4.061 4.061s4.349-2.3 4.406-4.507 0-5.515 0-5.515-7.001.056-8.467 1.007z" fill="#000931"/></g></g><g data-name="グループ 1507"><g data-name="グループ 1506"><ellipse data-name="楕円形 88" cx=".824" cy="1.411" rx=".824" ry="1.411" fill="#fff" transform="translate(-7797.951 4120.05)"/></g></g><g data-name="グループ 1509"><g data-name="グループ 1508"><path data-name="パス 1951" d="M-7794.617 4112.632l-10.4-3.633s.259 2.77 9.269 3.633" fill="#000931"/></g></g><g data-name="グループ 1514"><g data-name="グループ 1513"><g data-name="グループ 1512"><g data-name="グループ 1511"><g data-name="グループ 1510"><path data-name="パス 1952" d="M-7803.862 4120.451a.428.428 0 01-.333-.7c3.151-3.919 9.61-3.942 14.887-3.525a.428.428 0 01-.068.853c-5.065-.4-11.252-.4-14.152 3.208a.428.428 0 01-.334.164z" fill="#000931"/></g></g></g></g></g><g data-name="グループ 1516"><g data-name="グループ 1515"><path data-name="パス 1953" d="M-7819.036 4117.821a34.493 34.493 0 010 4.954c-.23 1.123-2.073 4.061-4.061 4.061s-4.349-2.3-4.407-4.507 0-5.515 0-5.515 6.999.056 8.468 1.007z" fill="#000931"/></g></g><g data-name="グループ 1518"><g data-name="グループ 1517"><ellipse data-name="楕円形 89" cx=".824" cy="1.411" rx=".824" ry="1.411" fill="#fff" transform="translate(-7824.055 4120.05)"/></g></g><g data-name="グループ 1520"><g data-name="グループ 1519"><path data-name="パス 1954" d="M-7825.74 4112.632l10.4-3.633s-.258 2.77-9.268 3.633" fill="#000931"/></g></g><g data-name="グループ 1525"><g data-name="グループ 1524"><g data-name="グループ 1523"><g data-name="グループ 1522"><g data-name="グループ 1521"><path data-name="パス 1955" d="M-7816.494 4120.451a.428.428 0 01-.334-.16c-2.9-3.607-9.087-3.609-14.153-3.208a.428.428 0 01-.068-.853c5.276-.418 11.735-.394 14.887 3.525a.428.428 0 01-.333.7z" fill="#000931"/></g></g></g></g></g><g data-name="グループ 370"><g data-name="パス 1151"><g data-name="グループ 1526"><path data-name="パス 1956" d="M-7810.125 4128.388c-1.607.528-2.729.293-2.011-.8s1.227-1.032 2.263-.986 2.359 1.269 1.644 1.835-1.305-.245-1.896-.049z" fill="#ffbdad"/></g></g></g><g data-name="グループ 371"><g data-name="楕円形 27"><g data-name="グループ 1527"><ellipse data-name="楕円形 90" cx=".446" cy=".491" rx=".446" ry=".491" fill="#000333" transform="translate(-7810.711 4128.091)"/></g></g></g><g data-name="グループ 1530"><g data-name="グループ 1528"><path data-name="線 11" fill="#fcecda" d="M-7790.99 4133.428l4.747-11.015"/></g><g data-name="グループ 1529"><path data-name="パス 1957" d="M-7790.99 4134.069a.641.641 0 01-.589-.9l4.747-11.015a.642.642 0 111.178.508l-4.747 11.015a.64.64 0 01-.589.392z" fill="#000931"/></g></g><g data-name="グループ 1532"><g data-name="グループ 1531"><path data-name="パス 1958" d="M-7810.096 4135.531a4.53 4.53 0 01-1.89-.633 6.232 6.232 0 00-.725-.332 2.618 2.618 0 00-1.573.3.56.56 0 01-.517-.994 3.63 3.63 0 012.439-.369 6.811 6.811 0 01.879.4 3.875 3.875 0 001.385.512 3.734 3.734 0 001.169-.378 6.914 6.914 0 01.776-.3 3.076 3.076 0 012.509.591.561.561 0 01-.7.878 1.963 1.963 0 00-1.5-.393 6.176 6.176 0 00-.641.253 4.384 4.384 0 01-1.611.465z" fill="#000931"/></g></g></g></g></svg>