<svg xmlns="http://www.w3.org/2000/svg" viewBox="0 0 222.26 636.82"><defs><style>.cls-1{fill:#111}.cls-2,.cls-4{fill:#2c4e88}.cls-2,.cls-3,.cls-4,.cls-7,.cls-8{stroke:#000931;stroke-linecap:round;stroke-linejoin:round}.cls-2,.cls-3,.cls-8{stroke-width:3px}.cls-3{fill:#fcecda}.cls-4,.cls-7{stroke-width:2px}.cls-5{fill:#1c3b69}.cls-7,.cls-8{fill:none}.cls-9{fill:#000931}.cls-10{fill:#7b5f32}.cls-12{fill:#fff}</style></defs><g id="レイヤー_2" data-name="レイヤー 2"><g id="_男_表情パターン" data-name="【男】表情パターン"><g id="ノーマル"><g id="体"><g id="下半身"><path class="cls-1" d="M48.66 382.78s9.18 76.8 11.14 98C61.65 500.69 77 612.14 77 612.14h22.15l8.75-186.29.32 3v-50.06zM168 382.78s-9.17 76.8-11.14 98c-1.85 20-17.22 131.41-17.22 131.41h-22.09l-8.74-186.29-.33 3v-50.11z"/><path d="M37.78 636.82h59a4.29 4.29 0 004.3-4.3v-21.79l-41.8-4.16q-1.22-.12-2.43-.12a27.13 27.13 0 00-24.46 15.37l-1.75 3.64a7.92 7.92 0 007.14 11.36zM178.27 636.82h-59a4.29 4.29 0 01-4.3-4.3v-21.79l41.8-4.16q1.22-.12 2.43-.12a27.13 27.13 0 0124.46 15.37l1.75 3.64a7.92 7.92 0 01-7.14 11.36z"/></g><g id="上半身"><path class="cls-2" d="M11.85 354.47s-2 8.15 3.1 9.12 23.5 0 23.5 0L49 347.77l-13.88-2.68z"/><path class="cls-3" d="M24.53 364s-1.81 28.84 12.61 29.75l-1-20.28L45 381.6l5.92-29.23z"/><path class="cls-4" d="M165.36 193a48.83 48.83 0 015.24 3.52c1.55 1.35 9.36 19.11 8.15 30.55s3.07 132.16 3.07 132.16 1.72 18.59-12.7 20.54-105.62-7.23-105.62-7.23-30.3-20.69-31.76-42 4.15-89.62 4.15-89.62l14.84-40.42 24.82-7.5z"/><path class="cls-2" d="M67.12 237.51l-4.17 25V326s-28.11 23.36-31.58 26.1-21.37 3.1-25.19 2.37-4.68-12.26-4.68-12.26c2.22-13.92 8.88-31.92 10.34-61.13S23.62 218 36.37 207.54l17.72-3.85 10.51 12.78M208.53 354.47s2 8.15-3.1 9.12-23.49 0-23.49 0l-10.58-15.82 13.87-2.68z"/><path class="cls-3" d="M195.85 364s3.69 28.84-10.73 29.75l-.9-20.28-7.9 10.77-6.84-31.85z"/><path class="cls-2" d="M153.27 237.51l4.16 25V326s28.11 23.36 31.58 26.1 21.36 3.11 25.19 2.38 6.56-12.17 6.56-12.17c-2-15.62-10.76-32-12.22-61.22S196.76 218 184 207.54l-17.7-11.21-13.52 6.43"/><path class="cls-4" d="M43.36 364.26C39 367.73 35 379.78 44.7 383.43s9.67 1.1 28.29 4.2 50.75 2.56 66.08 1.64 39.61-.73 41.89-8.21-.24-12.32-4.47-12.18-59.87-4.62-59.87-4.62L50.72 363z"/><path class="cls-5" d="M58.17 305c0 13.54 1.18 25.73-5.25 25.73S34.86 318.55 34.86 305c0-5.43-.53-14.45.89-18.51 2.12-6.07 6.91-6 10.77-6 6.48-.01 11.65 10.97 11.65 24.51zM179.77 307.68c0 13.54-5.22 24.52-11.65 24.52s-11.66-11-11.66-24.52 5.22-24.53 11.66-24.53c4.41 0 9.67-.62 11.65 7 .9 3.49 0 13.28 0 17.53z"/><path class="cls-3" d="M55.77 194.2s24-11.65 38.45-11.55 47.59 4.12 51.24 6.92S118.65 235 107 232.31s-48.38-26.43-48.38-26.43z"/><path class="cls-2" d="M175.16 233.54c1.84 23.12 1.22 36.46-2.16 49.28l-2.22 43.91c5 15.56 12 16.18 9.18 31.45S165 376.23 165 376.23a197.91 197.91 0 01-52 6.71h-9.73a198 198 0 01-52-6.71s-12-2.77-14.86-18.05 1.38-14.32 6.42-29.89l-.13-40.82c-1.73-11.8-7.64-34.25-4.95-53.93M109.07 232.65s35.66-37.24 34.56-40.64-6.81-7.31-20.2-7.06l-4.81-4.38a78.11 78.11 0 018.86-3.38c7.26-2.51 24.79-7.33 29.48-5.14a16.72 16.72 0 018.82 11.95c.73 4.63 3.41 4.39 4.87 7.31s2.92 8 0 10.79-13.14 6-18.5 10.14-28.23 20.9-43.08 20.41zM54.07 213.42c9.82 3.93 53.88 19.23 53.88 19.23s-48.3-30.28-40.83-39.06 22-10.44 24.28-10.94-8.56-6-18.78-6S40.25 194.39 41 200c0 0 3.24 9.5 13.07 13.42z"/><path d="M122.7 176.7V191s-4.4 2.56-14.47 2.56-13-2.56-13-2.56v-14.3h27.47" fill="#f6beb0"/><path class="cls-7" d="M87.24 197.22l10.32 5.54M128.95 197.22l-10.33 5.54"/><path class="cls-8" d="M107 232.31l5.94.13s7.26 18.46 4.7 22.72-16.31-1.09-15.82-5.47S106 232 107 232.31z"/><path class="cls-9" d="M109.07 237.55c1.83-.37 3.44 1.64 3.53 5.06s.46 6.3-3 5.44-2.83-4-2.65-5.19.33-4.95 2.12-5.31z"/><path class="cls-8" d="M105.65 254.33S104.2 290.09 104 304s-1.74 68.71-1.23 78.9M112.66 382.86c-.18-20.24 1.42-117.68 0-126.2M94.22 176.34v12.62M122.7 190.55V176.7"/><path class="cls-5" d="M169.12 349.27a4.33 4.33 0 01-1.85 2.39c-4.62 2.44-11.32-1.57-17.89.38s-16.19 1.82-23.12 0-2.8-9 13-12.66 14.34-12.69 21.54-10.84a9.77 9.77 0 014.36 2.46c.62 7.67 2 13.69 3.4 17z"/></g></g><g id="顔"><path class="cls-10" d="M176.48 141.15l6-6.42a5.19 5.19 0 001.6-6.09l-4.3-19.46a46.93 46.93 0 0116.28 1.8c-4.6-14.59-11.72-28.24-18.81-41.79A63.07 63.07 0 01193.11 80c.7-3-1.11-6-2.84-8.58C181.49 58.25 172.63 45 161.34 34l19.2-3.47c-7.61-2.63-15.94-1.37-24-1.68a4.26 4.26 0 01-2.06-.45 4.47 4.47 0 01-1.48-2.22 73.05 73.05 0 00-16.77-24.7c2.47 6.93-.15 16.26 0 23.62l-3.45-1.42A232.77 232.77 0 0093 7.59a50 50 0 0114.07 17.53C87.12 21.53 66.1 20.21 47 27a59.55 59.55 0 0019.27 7.27C58 38.1 49.78 42.32 42.52 47.89s-13.61 12.55-17.35 20.9a46.36 46.36 0 0014.3-3.7c.47 3.86-1.27 7.6-2.9 11.14-6 13.12-11 26.94-12.14 41.33l8.93-6.49Q35 122 36.5 132.88c1.39.07 3.91-2.16 4.57-3.39z"/><path class="cls-9" d="M177.54 142.21c3.07-3.29 8.53-7 8.32-12-.29-7-3.13-14.61-4.64-21.43l-1.44 1.9a50.7 50.7 0 0115.88 1.74 1.51 1.51 0 001.84-1.84c-4.75-14.73-11.81-28.47-19-42.15l-2 2A67.25 67.25 0 01192.05 81a1.52 1.52 0 002.56-1c.43-4.25-1.74-7.38-4-10.8-2.92-4.38-5.87-8.75-8.93-13A177 177 0 00162.4 33l-.66 2.51 19.2-3.51c1.54-.28 1.31-2.49 0-2.89a44.25 44.25 0 00-13.1-1.77c-2.61 0-5.21.08-7.82.08-3.67 0-5.12-.75-6.72-4.28a76.12 76.12 0 00-16-22.71 1.51 1.51 0 00-2.5 1.46c2.28 7.56 0 15.51-.06 23.22l1.9-1.45c-6.5-2.66-12.68-6-19.16-8.8A246.69 246.69 0 0093.4 6.14c-1.4-.42-2.64 1.54-1.46 2.51a52 52 0 0113.83 17.22l1.7-2.2c-20.23-3.57-41.14-4.86-60.88 1.84a1.52 1.52 0 00-.36 2.74 65.53 65.53 0 0019.64 7.42l-.36-2.74C48.79 40.8 32.05 50.67 23.87 68c-.42.9.06 2.4 1.3 2.25a53.79 53.79 0 0014.7-3.75L38 65.09c.24 5.55-2.77 10.39-4.9 15.33-1.6 3.72-3.1 7.48-4.43 11.31a107.35 107.35 0 00-5.71 25.83 1.5 1.5 0 002.25 1.29l8.93-6.48-2.2-.9q1.64 10.91 3.14 21.81c.12.85 1.14 1.18 1.85 1.05a7.1 7.1 0 003.22-1.6c.47-.37 2.73-2.28 1-1.74a5.08 5.08 0 011.54.13c2.71.33 5.45.47 8.17.71l31.7 2.73 75.71 6.52 18.25 1.57c1.92.16 1.91-2.84 0-3L57.93 129.44 41.07 128a1.5 1.5 0 00-1.3.74 6.12 6.12 0 01-3.67 2.71l1.85 1q-1.52-10.9-3.15-21.8a1.5 1.5 0 00-2.2-.9l-8.93 6.48 2.26 1.3a108 108 0 016.84-28.43c2.83-7.53 8.57-15.73 8.2-24 0-.86-.95-1.84-1.9-1.44a50.65 50.65 0 01-13.9 3.64l1.3 2.26c8-16.93 24.27-26.36 40.55-34a1.52 1.52 0 00-.36-2.75 62.54 62.54 0 01-18.91-7.11l-.36 2.74c19.23-6.53 39.57-5.31 59.28-1.84a1.52 1.52 0 001.69-2.2A53.91 53.91 0 0094.07 6.53L92.61 9a238.81 238.81 0 0126.78 9.9c5.53 2.45 10.85 5.32 16.44 7.62a1.51 1.51 0 001.9-1.45c0-8 2.33-16.15 0-24l-2.51 1.46A74.46 74.46 0 01146 15.82a72.61 72.61 0 013.68 6.55c1 1.91 1.55 4.45 2.89 6.12 2.17 2.71 6.13 1.94 9.23 1.91 6.24-.07 12.33-.28 18.38 1.59V29.1l-19.2 3.47a1.51 1.51 0 00-.66 2.5 167.6 167.6 0 0117.73 21.13c2.4 3.32 4.72 6.7 7 10.1 2.66 3.92 7.06 8.65 6.55 13.65l2.56-1.06a69.88 69.88 0 00-16.17-11A1.51 1.51 0 00176 70c7 13.44 14 26.94 18.66 41.43l1.84-1.85a53 53 0 00-16.67-1.85 1.52 1.52 0 00-1.45 1.9l3.44 15.56c.86 3.85 1 6.43-1.55 9.81a66.51 66.51 0 01-4.8 5.14c-1.37 1.35.74 3.48 2.07 2.07z"/><path class="cls-3" d="M109.34 49.33s-61-15.33-59 81.18c-9.45 9.46-10.1 29.35 10.44 28.7 14.34 26.08 78.85 21 94.5 1.74 24.76-1.42 20.91-30 11.1-25.75 13.53-98.72-57.04-85.87-57.04-85.87z"/><path stroke-miterlimit="10" fill="none" stroke-width="3" stroke="#000931" d="M60.76 159.21l-10.44-28.7"/><path class="cls-10" d="M46.36 125a40.71 40.71 0 009.72-7.7l5.18 13 17.81-44.18 6.43 17.21c14.73-13.92 30.93-59 39.05-74.14 0 0-132.1 52.07-72.42 73.42z"/><path class="cls-10" d="M124.55 29.19c41.34 9.52 51 86.33 51 86.33q-.15 11.28-.07 22.56l-13.08-34.33a88.56 88.56 0 01-1.46 16.65c-5.64-15-11.45-30.26-21.54-42.69a138 138 0 00-18.82 22.09q-2.16-9.93-4.31-19.86L93.59 93.33"/><path class="cls-9" d="M173.66 115.52q-.14 11.28-.07 22.56l2.95-.4-13.08-34.33a1.51 1.51 0 00-3 .4 97.33 97.33 0 01-1.4 16.25H162c-5.75-15.25-11.7-30.46-21.92-43.35a1.51 1.51 0 00-2.12 0 147.8 147.8 0 00-19 22.39l2.74.36q-2.16-9.93-4.31-19.86a1.52 1.52 0 00-2.21-.9L92.48 92l2 2.06 19.88-33.16-2.59-1.52a323.24 323.24 0 01-28 43.16l2.75.36-6.43-17.2a1.51 1.51 0 00-2.89 0L59.47 130h2.89l-5.18-13a1.51 1.51 0 00-2.5-.66 45 45 0 01-9.42 7.47l2.2 1.69a116.57 116.57 0 015.77-22.5c.67-1.81-2.23-2.6-2.89-.79a115.65 115.65 0 00-5.77 22.43 1.52 1.52 0 002.2 1.69 48.13 48.13 0 0010-7.94l-2.51-.66 5.18 13a1.51 1.51 0 002.89 0l17.84-44.21h-2.89l6.42 17.21a1.52 1.52 0 002.74.36 324.52 324.52 0 0028-43.16 1.5 1.5 0 00-2.59-1.52L91.94 92.57A1.51 1.51 0 0094 94.62l22.68-13.39-2.21-.89 4.32 19.86a1.52 1.52 0 002.74.35 144.91 144.91 0 0118.55-21.78H138c9.87 12.45 15.6 27.3 21.15 42 .46 1.23 2.61 1.6 2.89 0a101.56 101.56 0 001.51-17l-2.95.4 13.09 34.33c.57 1.5 2.95 1.4 2.94-.4q-.06-11.28.07-22.56a1.5 1.5 0 00-3 0z"/><path class="cls-9" d="M128.27 124.46s-.54 9 0 11.58 4.85 9.5 9.5 9.5 10.16-5.39 10.3-10.54 0-12.89 0-12.89-16.36.13-19.8 2.35z"/><ellipse class="cls-12" cx="138.08" cy="132.97" rx="1.93" ry="3.3"/><path class="cls-9" d="M146.78 103.84l-24.31 8.49s.6-6.47 21.66-8.49"/><path class="cls-7" d="M122.33 129.61c6.87-8.54 20.84-8.91 34-7.87"/><path class="cls-9" d="M92.53 124.46s.54 9 0 11.58-4.85 9.5-9.49 9.5-10.17-5.39-10.31-10.54 0-12.89 0-12.89 16.37.13 19.8 2.35z"/><ellipse class="cls-12" cx="82.72" cy="132.97" rx="1.93" ry="3.3"/><path class="cls-9" d="M74 103.84l24.32 8.49s-.61-6.47-21.67-8.49"/><path class="cls-7" d="M98.47 129.61c-6.87-8.54-20.84-8.91-33.95-7.87"/><g id="グループ_370" data-name="グループ 370"><path id="パス_1151" data-name="パス 1151" d="M110.52 149.17c-3.76 1.23-6.38.68-4.7-1.88s2.87-2.41 5.29-2.3 5.51 3 3.84 4.29-3.04-.57-4.43-.11z" fill="#ffbdad"/></g><g id="グループ_371" data-name="グループ 371"><ellipse id="楕円形_27" data-name="楕円形 27" cx="110.2" cy="149.62" rx="1.04" ry="1.15" fill="#000333"/></g><path d="M123.2 158.92s-8.64 5.57-12.76 5.57a16.39 16.39 0 01-6.31-1" stroke-width="2.62" fill="none" stroke-linecap="round" stroke-linejoin="round" stroke="#000931"/><path class="cls-3" d="M155.26 160.95l11.1-25.75"/></g></g></g></g></svg>