<svg xmlns="http://www.w3.org/2000/svg" width="32" height="53"><defs><clipPath id="a"><path data-name="長方形 211" transform="translate(57 662.638)" fill="#fff" stroke="#707070" d="M0 0h32v53H0z"/></clipPath></defs><g data-name="マスクグループ 8" transform="translate(-57 -662.638)" clip-path="url(#a)"><g data-name="グループ 1119"><path data-name="パス 1675" d="M64.995 711.981s1.278 10.7 1.552 13.647c.258 2.78 2.4 18.309 2.4 18.309h3.083l1.219-25.956.045.419v-6.975z" fill="#000931"/><path data-name="パス 1676" d="M81.627 711.981s-1.278 10.7-1.552 13.647c-.258 2.78-2.4 18.309-2.4 18.309h-3.083l-1.219-25.956-.045.419v-6.975z" fill="#000931"/><g data-name="グループ 335"><path data-name="パス 1098" d="M83.514 678.749s-.274 2.342.841 2.872c0 0-2.315 1.042-2.546-.921a1.653 1.653 0 011.705-1.951z" fill="#535353"/><path data-name="パス 1099" d="M83.114 682.144a1.694 1.694 0 01-.838-.2 1.5 1.5 0 01-.712-1.217 1.934 1.934 0 01.409-1.583 2.227 2.227 0 011.54-.643.246.246 0 01.244.248.181.181 0 010 .026c-.07.6-.08 2.25.7 2.621a.245.245 0 01.117.327.242.242 0 01-.122.119 3.677 3.677 0 01-1.338.302zm.132-3.12a1.57 1.57 0 00-.907.454 1.47 1.47 0 00-.287 1.2 1.028 1.028 0 00.466.847 1.876 1.876 0 001.326.023 3.8 3.8 0 01-.6-2.519z" fill="#000333"/></g><g data-name="グループ 336"><path data-name="パス 1100" d="M66.371 666.233s-4.045 5.074-6.992 4.383c0 0 2.714 1.842 5.825-1.013s1.167-3.37 1.167-3.37z" fill="#535353"/><path data-name="パス 1101" d="M61.555 671.437a4.491 4.491 0 01-2.316-.618.245.245 0 01.194-.442 2.327 2.327 0 00.526.058c2.711 0 6.18-4.309 6.217-4.356a.247.247 0 01.255-.084 1.1 1.1 0 01.751.757c.182.738-.428 1.758-1.815 3.031a5.567 5.567 0 01-3.812 1.654zm-.937-.581a4.771 4.771 0 004.417-1.435c1.631-1.5 1.747-2.241 1.67-2.551a.551.551 0 00-.263-.338c-.602.728-3.301 3.822-5.822 4.324z" fill="#000333"/></g><g data-name="グループ 337"><path data-name="パス 1102" d="M60.115 708.059s-.254 1.029.391 1.151a23.177 23.177 0 002.964 0l1.335-2-1.75-.338z" fill="#397c71"/><path data-name="パス 1103" d="M61.574 709.51a7.25 7.25 0 01-1.114-.058.719.719 0 01-.483-.321 1.647 1.647 0 01-.1-1.129.246.246 0 01.146-.169l2.941-1.183a.245.245 0 01.139-.013l1.75.338a.245.245 0 01.195.287.248.248 0 01-.037.09l-1.334 2a.248.248 0 01-.192.109c-.065-.002-1.049.049-1.911.049zm-1.243-1.274a1.046 1.046 0 00.06.628.226.226 0 00.161.1 20.532 20.532 0 002.782 0l1.061-1.586-1.315-.254z" fill="#000333"/></g><g data-name="グループ 338"><path data-name="パス 1104" d="M62.073 709.259s-.668 4 1.151 4.12l.315-2.924 1 1.359.863-4.018z" fill="#ffedd9"/><path data-name="パス 1105" d="M63.224 713.624h-.016a1.269 1.269 0 01-.946-.5c-.885-1.114-.451-3.792-.432-3.9a.245.245 0 01.143-.184l3.327-1.465a.246.246 0 01.339.277l-.863 4.018a.246.246 0 01-.438.094l-.623-.847-.247 2.3a.246.246 0 01-.244.207zm-.929-4.194c-.115.8-.236 2.649.352 3.389a.805.805 0 00.361.268l.287-2.659a.246.246 0 01.442-.119l.674.918.647-3.013z" fill="#000333"/></g><g data-name="グループ 340"><path data-name="パス 1107" d="M83.687 678.169c-1.351 4.728-3.5 6.815-2.025 11.237s-7.965 8.106-7.965 8.106l-11.317-5.956a11.957 11.957 0 01.429-5.861 16.859 16.859 0 00.246-7.711c-.614-2.579-1.043-7.553 2.519-11.36s9.7-4.176 14.37-1.474a8.75 8.75 0 014.3 6.66 12.617 12.617 0 01.117 1.544 16.581 16.581 0 01-.674 4.815z" fill="#535353"/><path data-name="パス 1108" d="M73.697 697.757a.244.244 0 01-.114-.029l-11.317-5.956a.245.245 0 01-.13-.194 12.206 12.206 0 01.438-5.954 16.664 16.664 0 00.243-7.585c-.5-2.116-1.261-7.48 2.578-11.584 3.521-3.764 9.691-4.4 14.672-1.519a9 9 0 014.413 6.839 12.943 12.943 0 01.121 1.574 16.924 16.924 0 01-.676 4.886 36.128 36.128 0 01-1.272 3.581c-1.031 2.585-1.776 4.452-.756 7.511.641 1.923-.578 4-3.525 5.992a26.611 26.611 0 01-4.584 2.42.246.246 0 01-.091.018zM62.612 691.4l11.1 5.841c1.009-.414 9.021-3.848 7.719-7.758-1.076-3.229-.263-5.267.766-7.848a35.593 35.593 0 001.256-3.534 16.4 16.4 0 00.657-4.742 12.562 12.562 0 00-.117-1.515 8.528 8.528 0 00-4.173-6.481c-4.785-2.77-10.7-2.169-14.067 1.429-3.677 3.93-2.944 9.1-2.459 11.135a16.954 16.954 0 01-.249 7.838 11.557 11.557 0 00-.431 5.635z" fill="#000333"/></g><g data-name="グループ 341"><path data-name="パス 1109" d="M66.782 686.125c1.186-.99 2.487-2.038 3.293-1.969a2.354 2.354 0 011.9 1.865c.045.863-2.016 1.474-2.879 1.636s-3.132 1.278-3.143.242a2.586 2.586 0 01.829-1.774z" fill="#1e1e1e"/><path data-name="パス 1110" d="M66.509 688.579a.923.923 0 01-.545-.143.63.63 0 01-.257-.535 2.819 2.819 0 01.913-1.961c1.38-1.152 2.592-2.1 3.471-2.025a2.6 2.6 0 012.124 2.1c.069 1.287-3.048 1.884-3.078 1.89a7.927 7.927 0 00-.855.254 6.451 6.451 0 01-1.773.42zm.433-2.268a2.351 2.351 0 00-.744 1.585c0 .105.036.13.051.141.263.188 1.277-.149 1.882-.351a7.971 7.971 0 01.919-.271c1.114-.208 2.708-.818 2.679-1.381a2.138 2.138 0 00-1.676-1.634c-.746-.059-2.168 1.123-3.111 1.911z" fill="#000333"/></g><g data-name="グループ 342"><path data-name="パス 1111" d="M80.172 686.488a.246.246 0 01-.214-.125c-.741-1.315.172-3.715.211-3.816a.246.246 0 01.458.177c-.009.023-.868 2.285-.242 3.4a.246.246 0 01-.213.366z" fill="#000333"/></g><g data-name="グループ 343"><path data-name="パス 1112" d="M80.196 687.687a5.517 5.517 0 011.125.444 9.152 9.152 0 01.563 3.855c-.153 1.443.388 16.672.388 16.672s.217 2.345-1.6 2.591-13.323-.91-13.323-.91-3.822-2.61-4.006-5.3.524-11.307.524-11.307l1.87-5.1 3.132-.95z" fill="#397c71"/><path data-name="パス 1113" d="M79.889 711.366c-3.107 0-12.128-.9-12.551-.945a.081.081 0 01-.038-.014c-.158-.108-3.857-2.663-4.043-5.359-.182-2.662.516-11.233.524-11.319a.071.071 0 010-.021l1.871-5.1a.081.081 0 01.053-.05l3.132-.95a.077.077 0 01.024 0h11.33a.076.076 0 01.023 0 5.216 5.216 0 011.156.461 8.942 8.942 0 01.591 3.925c-.151 1.421.383 16.508.389 16.66a3.773 3.773 0 01-.122 1.227 1.819 1.819 0 01-1.551 1.447 6.484 6.484 0 01-.788.038zm-12.514-1.106c.557.056 11.531 1.145 13.283.908 1.722-.234 1.534-2.48 1.532-2.5-.023-.627-.54-15.256-.388-16.688a9.532 9.532 0 00-.536-3.785 5.1 5.1 0 00-1.083-.424H68.876l-3.082.935-1.852 5.05c-.029.354-.7 8.678-.522 11.283.172 2.527 3.678 5.03 3.954 5.223z" fill="#000333"/></g><g data-name="グループ 345"><path data-name="パス 1115" d="M85.185 708.811a1.431 1.431 0 01-.215 1.428 5.368 5.368 0 01-3.094.537c-1.382-.215-1.2-1.229-1.2-1.229l1.842-2.3z" fill="#397c71"/><path data-name="パス 1116" d="M82.517 711.068a4.4 4.4 0 01-.678-.05 1.7 1.7 0 01-1.186-.633 1.248 1.248 0 01-.215-.883.252.252 0 01.05-.11l1.842-2.3a.246.246 0 01.316-.058l2.664 1.566a.245.245 0 01.112.146 1.657 1.657 0 01-.3 1.689 5.548 5.548 0 01-2.605.633zm-1.6-1.426a.757.757 0 00.142.464 1.247 1.247 0 00.857.426 5.185 5.185 0 002.909-.491 1.184 1.184 0 00.149-1.072l-2.392-1.406z" fill="#000333"/></g><g data-name="グループ 346"><path data-name="パス 1117" d="M84.228 710.358s-.716 4.7-1.959 4.749c-.33.012.518-2.8.335-3.465-.105-.383-.67 1.426-.813 1.107a18.541 18.541 0 01-.812-4.09z" fill="#ffedd9"/><path data-name="パス 1118" d="M82.266 715.352a.3.3 0 01-.225-.1c-.164-.19-.109-.572.1-1.7.062-.326.135-.712.183-1.052-.175.358-.292.539-.495.539a.293.293 0 01-.263-.183 18.351 18.351 0 01-.833-4.168.246.246 0 01.359-.24l3.249 1.7a.246.246 0 01.129.255c-.125.818-.817 4.906-2.193 4.957zm.29-4.01h.029a.291.291 0 01.256.234 6.133 6.133 0 01-.211 2.061c-.073.388-.167.887-.189 1.162.629-.4 1.248-2.655 1.519-4.306l-2.686-1.4a18.974 18.974 0 00.607 3.205c.041-.082.08-.167.113-.234.222-.476.337-.722.562-.722z" fill="#000333"/></g><g data-name="グループ 348"><path data-name="パス 1120" d="M81.662 689.406c1.55 2.257 1.458 4.375 1.6 6.816s0 5.281 3.347 10.255a1.9 1.9 0 01-.806 1.412c-.852.737-.667 1.105-1.159 1.105s-2.979-.123-2.979-.123l-3.938-2.518v-8.843l.46-3.324" fill="#397c71"/><path data-name="パス 1121" d="M84.64 709.241c-.491 0-2.889-.117-2.99-.123a.24.24 0 01-.12-.038l-3.938-2.518a.245.245 0 01-.114-.207v-8.843a.222.222 0 010-.034l.46-3.324a.246.246 0 01.488.06v.007l-.457 3.307v8.691l3.769 2.41c.4.019 2.466.119 2.9.119.128 0 .133 0 .266-.206a3.637 3.637 0 01.733-.839 1.827 1.827 0 00.719-1.155c-3.074-4.594-3.207-7.435-3.314-9.72l-.029-.593c-.016-.285-.029-.565-.042-.842-.1-2.1-.181-3.913-1.511-5.849a.246.246 0 11.394-.294l.011.016c1.41 2.052 1.5 4.02 1.6 6.1.013.275.026.554.042.837.011.2.021.4.029.6.111 2.351.234 5.015 3.275 9.534a.246.246 0 01.042.121 2.13 2.13 0 01-.89 1.615 3.155 3.155 0 00-.643.737.722.722 0 01-.68.431z" fill="#000333"/></g><g data-name="グループ 349"><path data-name="パス 1122" d="M67.803 693.305l-.526 3.149v8.014s-3.546 2.948-3.984 3.293a7.8 7.8 0 01-3.178.3c-.483-.092-1.4-1.7-1.4-1.7 1.059-.967 1.934-3.869 2.119-7.553s1.487-7.965 3.094-9.278l2.235-.486 1.326 1.612" fill="#397c71"/><path data-name="パス 1123" d="M60.911 708.344a5.786 5.786 0 01-.842-.044c-.552-.105-1.344-1.422-1.572-1.824a.245.245 0 01.048-.3c1.046-.956 1.866-3.923 2.039-7.384.175-3.513 1.415-8.011 3.185-9.456a.247.247 0 01.1-.05l2.235-.486a.245.245 0 01.242.084l1.326 1.612a.246.246 0 11-.38.312l-1.231-1.5-2.03.442c-1.448 1.242-2.771 5.28-2.96 9.063-.175 3.487-.975 6.416-2.056 7.581a4.272 4.272 0 001.143 1.423 7.749 7.749 0 002.98-.251c.392-.309 3.339-2.757 3.891-3.215v-7.9a.269.269 0 010-.041l.526-3.149a.246.246 0 01.484.081l-.522 3.129v7.994a.244.244 0 01-.088.189c-.146.121-3.554 2.954-3.989 3.3a5.845 5.845 0 01-2.529.39z" fill="#000333"/></g><g data-name="グループ 350"><path data-name="パス 1124" d="M64.806 710.225c-.545.438-1.052 1.957.169 2.418s1.22.138 3.569.53a46.819 46.819 0 008.336.207c1.934-.114 5-.092 5.285-1.036s-.029-1.554-.564-1.537-7.553-.582-7.553-.582l-8.313-.161z" fill="#397c71"/><path data-name="パス 1125" d="M73.548 713.55a33.782 33.782 0 01-5.018-.3 16.67 16.67 0 00-2.06-.23 4.152 4.152 0 01-1.525-.3 1.153 1.153 0 01-.789-.929 1.94 1.94 0 01.6-1.629.083.083 0 01.037-.017l.929-.161 8.328.16c.076.006 7.029.6 7.549.582a.663.663 0 01.558.263 1.561 1.561 0 01.088 1.379c-.263.86-2.484.96-4.441 1.049a74.42 74.42 0 00-.916.045c-.879.05-2.076.088-3.34.088zm-8.707-3.251a1.8 1.8 0 00-.521 1.463.989.989 0 00.684.8 3.978 3.978 0 001.476.292 16.73 16.73 0 012.078.232 46.244 46.244 0 008.318.206c.286-.017.6-.031.918-.046 1.715-.078 4.065-.184 4.293-.933a1.409 1.409 0 00-.061-1.232.479.479 0 00-.422-.2c-.529.016-7.275-.558-7.563-.583l-8.308-.16z" fill="#000333"/></g><g data-name="グループ 351"><path data-name="パス 1126" d="M66.675 701.819c0 1.709.15 3.246-.663 3.246s-2.279-1.537-2.279-3.246a9.733 9.733 0 01.112-2.334c.268-.766.872-.76 1.359-.76.815 0 1.471 1.385 1.471 3.094z" fill="#236c60"/></g><g data-name="グループ 352"><path data-name="パス 1127" d="M81.551 703.085c0 1.709-.658 3.094-1.47 3.094s-1.47-1.386-1.47-3.094.658-3.094 1.47-3.094c.557 0 1.221-.078 1.47.884a14.3 14.3 0 010 2.21z" fill="#236c60"/></g><g data-name="グループ 353"><path data-name="パス 1128" d="M66.371 687.84s3.023-1.47 4.85-1.457 6 .52 6.464.873-3.382 5.733-4.858 5.392-6.1-3.335-6.1-3.335z" fill="#ffedd9"/><path data-name="パス 1129" d="M72.956 692.909a.83.83 0 01-.184-.02c-1.5-.347-5.991-3.245-6.182-3.368a.247.247 0 01-.105-.149l-.353-1.474a.245.245 0 01.131-.278 15.03 15.03 0 014.933-1.482h.027c1.671.012 6.048.493 6.611.924.242.186.113.553-.045.889-.619 1.315-3.333 4.958-4.833 4.958zm-6.016-3.747c.627.4 4.632 2.946 5.943 3.248.123.029.5.023 1.288-.643a13.938 13.938 0 003.3-4.349 30.476 30.476 0 00-6.253-.787h-.024a13.979 13.979 0 00-4.54 1.348z" fill="#000333"/></g><g data-name="グループ 354"><path data-name="パス 1130" d="M79.531 692.693c1.474.783 2.288 3.48 1.257 6.8-.174.558-.5.411-.877 1.911-.2.774.229 2.023.552 3.358a19.507 19.507 0 001.4 3.313 2.658 2.658 0 01-.26 2.734c-.552.812-4.79.8-8.306.847a37.857 37.857 0 01-7.492-.847 2.729 2.729 0 01-1.875-2.279c-.355-1.928.522-2 1.157-3.968a6.367 6.367 0 00.2-4.005c-.225-.778.015.167-.476-1.069-.685-1.724-1-6.36 1.148-7.039" fill="#397c71"/><path data-name="パス 1131" d="M73.033 711.9a39.14 39.14 0 01-7.285-.854 2.953 2.953 0 01-2.063-2.473 3.128 3.128 0 01.464-2.555 7.55 7.55 0 00.7-1.533 6.108 6.108 0 00.194-3.861 7.13 7.13 0 00-.076-.253 2.472 2.472 0 01-.393-.794 9.328 9.328 0 01-.023-6.1 2.229 2.229 0 011.325-1.261.246.246 0 01.148.467 1.759 1.759 0 00-1.029 1 8.888 8.888 0 00.036 5.71 5.465 5.465 0 00.263.6c.1.058.127.166.222.494a6.663 6.663 0 01-.2 4.149 8.086 8.086 0 01-.743 1.625 2.646 2.646 0 00-.409 2.223 2.493 2.493 0 001.689 2.083 37.987 37.987 0 007.433.84l.755-.009c2.916-.034 6.911-.081 7.351-.73a2.4 2.4 0 00.238-2.5l-.013-.025a18.522 18.522 0 01-1.4-3.328c-.064-.265-.133-.526-.2-.782a6.139 6.139 0 01-.353-2.693 3.742 3.742 0 01.672-1.555 1.055 1.055 0 00.2-.368c1.022-3.29.178-5.808-1.137-6.506a.246.246 0 01.23-.434 3.725 3.725 0 011.693 2.613 8.871 8.871 0 01-.317 4.474 1.546 1.546 0 01-.283.518 3.26 3.26 0 00-.589 1.38 6.1 6.1 0 00.351 2.448c.067.258.136.523.2.791a18.116 18.116 0 001.354 3.218l.029.057a2.89 2.89 0 01-.284 2.969c-.544.8-3.422.894-7.751.945l-.754.009c-.068-.001-.161.001-.245.001z" fill="#000333"/></g><g data-name="グループ 355"><path data-name="パス 1132" d="M73.1 692.695s4.5-4.7 4.36-5.127-.86-.921-2.549-.891l-.606-.553a9.949 9.949 0 011.117-.426c.916-.317 3.128-.925 3.719-.648a2.107 2.107 0 011.113 1.5c.093.584.43.553.614.921s.369 1 0 1.362-1.658.757-2.333 1.279-3.566 2.641-5.435 2.583z" fill="#397c71"/><path data-name="パス 1133" d="M73.175 692.939h-.088a.245.245 0 01-.169-.415 42.646 42.646 0 004.286-4.925c-.133-.283-.744-.708-2.293-.678a.246.246 0 01-.17-.064l-.606-.553a.246.246 0 01-.016-.347.237.237 0 01.064-.05 9.846 9.846 0 011.154-.443c.029-.01 3.051-1.037 3.9-.639a2.361 2.361 0 011.251 1.689.636.636 0 00.27.464 1.2 1.2 0 01.322.386c.126.253.5 1.119-.049 1.648a4.4 4.4 0 01-1.081.606 7.231 7.231 0 00-1.273.69c-.571.444-3.504 2.631-5.502 2.631zm1.885-6.512c2.121 0 2.548.809 2.63 1.062.06.189.129.4-2.18 2.964-.675.749-1.362 1.483-1.793 1.94a14.193 14.193 0 004.663-2.476 7.521 7.521 0 011.367-.747 4.524 4.524 0 00.946-.513c.243-.236.126-.727-.049-1.076a.729.729 0 00-.2-.234 1.114 1.114 0 01-.432-.758 1.872 1.872 0 00-.974-1.32c-.43-.2-2.349.248-3.535.658-.343.119-.584.207-.748.271l.251.229z" fill="#000333"/></g><g data-name="グループ 356"><path data-name="パス 1134" d="M67.052 683.926c-2.279.691-2.308 1.458-2.615 1.95a5.309 5.309 0 00-.921 2.487c.092.7.368 1.32.8 1.474a7.554 7.554 0 011.842.43c.952.43 6.8 2.425 6.8 2.425s-6.582-4.544-6.582-4.85.123-.737.4-.829a1.471 1.471 0 001.013-.768 2.686 2.686 0 011.335-1.165c.292-.063-.888-1.153-.888-1.153z" fill="#397c71"/><path data-name="パス 1135" d="M72.952 692.938a.248.248 0 01-.079-.013c-.239-.082-5.867-2-6.819-2.434a3.469 3.469 0 00-1.256-.321 2.252 2.252 0 01-.566-.1 1.929 1.929 0 01-.959-1.673 5.715 5.715 0 01.956-2.649c.041-.065.079-.142.119-.223.255-.513.6-1.216 2.634-1.832a.247.247 0 01.071-.011h1.178a.248.248 0 01.167.065c1.1 1.014 1.034 1.248 1 1.362a.3.3 0 01-.229.212 2.53 2.53 0 00-1.16 1.019 1.661 1.661 0 01-1.129.9l-.034.011c-.111.037-.213.28-.229.53.434.478 4.159 3.117 6.474 4.715a.246.246 0 01-.14.448zm-5.864-8.765c-1.8.551-2.077 1.115-2.3 1.569a2.713 2.713 0 01-.142.265 5.113 5.113 0 00-.886 2.325c.088.667.338 1.167.637 1.274a1.832 1.832 0 00.447.076 4 4 0 011.413.362c.61.275 3.307 1.22 5.109 1.843-.55-.385-1.2-.843-1.846-1.3-3.394-2.422-3.394-2.563-3.394-2.741a1.094 1.094 0 01.567-1.062l.035-.012a1.2 1.2 0 00.828-.617 2.948 2.948 0 011.286-1.227 7.416 7.416 0 00-.708-.752z" fill="#000333"/></g><g data-name="グループ 357"><path data-name="パス 1136" d="M74.815 687.441a3.936 3.936 0 01-1.826.322 2.68 2.68 0 01-1.636-.322v-1.808h3.461z" fill="#ffbdad"/></g><g data-name="グループ 358"><path data-name="パス 1137" d="M81.017 677.643s.854 3.6-.837 5.52c-1.665 1.888-4.26 2.586-6.962 2.525-2.7.062-5.3-.637-6.962-2.525-1.691-1.917-.837-5.52-.837-5.52s5.389-8.751 7.407-9 7.668-.246 8.19 9" fill="#ffedd9"/><path data-name="パス 1138" d="M72.884 685.94a8.9 8.9 0 01-6.813-2.612c-1.755-1.989-.928-5.587-.891-5.739a.235.235 0 01.029-.072c.558-.906 5.511-8.859 7.587-9.112a6.986 6.986 0 015.41 1.415c1.817 1.519 2.844 4.14 3.053 7.79.077.337.808 3.785-.9 5.717-1.98 2.245-4.983 2.656-7.151 2.608-.103.003-.215.005-.324.005zm.328-.495c2.077.047 4.927-.339 6.783-2.442 1.589-1.8.79-5.266.782-5.3a.263.263 0 01-.006-.043c-.2-3.52-1.169-6.03-2.88-7.463a6.507 6.507 0 00-5.036-1.3c-.431.052-1.562.7-4.289 4.488a84.295 84.295 0 00-2.917 4.358c-.081.38-.706 3.566.791 5.263 1.855 2.1 4.707 2.488 6.772 2.442z" fill="#000333"/></g><g data-name="グループ 359"><path data-name="パス 1139" d="M73.218 684.113a1.365 1.365 0 01-1.12-.472.215.215 0 01.351-.248 1.161 1.161 0 001.542 0 .216.216 0 01.3-.045.213.213 0 01.049.3 1.364 1.364 0 01-1.122.465z" fill="#000333"/></g><g data-name="グループ 360"><path data-name="パス 1140" d="M71.642 689.084a.16.16 0 01-.077-.02l-1.3-.7a.164.164 0 01.155-.289l1.3.7a.164.164 0 01-.078.308z" fill="#000333"/></g><g data-name="グループ 361"><path data-name="パス 1141" d="M74.301 689.084a.164.164 0 01-.078-.308l1.3-.7a.164.164 0 11.155.289l-1.3.7a.163.163 0 01-.077.019z" fill="#000333"/></g><g data-name="グループ 362"><path data-name="パス 1142" d="M73.691 695.976a2.166 2.166 0 01-.68-.126c-.531-.179-1.134-.558-1.081-1.036a10.117 10.117 0 01.292-1.3c.271-.954.382-1.024.456-1.071a.266.266 0 01.168-.041l.734.015a.246.246 0 01.224.156c.225.573.932 2.489.575 3.084a.753.753 0 01-.688.319zm-.745-3.079a10.71 10.71 0 00-.526 1.971c-.009.076.236.342.75.516.437.146.74.107.792.021a5.771 5.771 0 00-.553-2.5zm-.2-.016" fill="#000333"/></g><g data-name="グループ 363"><path data-name="パス 1143" d="M73.094 693.31c.231-.047.434.207.445.639s.059.794-.38.685a.492.492 0 01-.351-.6.438.438 0 01.017-.053c.024-.147.041-.625.269-.671z" fill="#000333"/></g><g data-name="グループ 364"><path data-name="パス 1144" d="M72.295 711.887a.245.245 0 01-.245-.234c-.048-.983.048-5.173.111-7.947.02-.874.037-1.6.044-2.023.029-1.733.212-6.221.214-6.267a.246.246 0 01.491.02c0 .045-.183 4.529-.213 6.256-.007.424-.024 1.15-.044 2.026-.063 2.766-.159 6.945-.112 7.91a.246.246 0 01-.233.258z" fill="#000333"/></g><g data-name="グループ 365"><path data-name="パス 1145" d="M73.547 711.886a.246.246 0 01-.246-.243c-.007-.841.01-2.735.03-4.929.038-4.327.091-10.253-.026-10.954a.246.246 0 01.482-.1v.017c.124.743.073 6.452.033 11.039a412.16 412.16 0 00-.03 4.92.246.246 0 01-.243.248z" fill="#000333"/></g><g data-name="グループ 366"><path data-name="パス 1146" d="M81.539 669.909c2.456 6.449.552 9.979.552 9.979 0-.491-1.412-2.579-2.18-3.9a24.849 24.849 0 01-1.505-5.1c-1.566 4.484-6.272 6.2-6.272 6.2a9.321 9.321 0 00.542-5.558s-4.236 1.325-7.436 8.967c0 0-1.833-4.823.7-8.967.043-.069.085-.138.129-.2a9.542 9.542 0 012.25-2.443 9.108 9.108 0 014.358-1.818" fill="#535353"/><path data-name="パス 1147" d="M65.241 680.75a.246.246 0 01-.225-.158c-.077-.2-1.846-4.983.721-9.182.041-.066.081-.131.123-.195l.01-.017a9.825 9.825 0 012.306-2.506 9.278 9.278 0 014.488-1.867.243.243 0 01.263.222.246.246 0 01-.226.263 8.957 8.957 0 00-4.228 1.768 9.333 9.333 0 00-2.18 2.364l-.012.02a5.643 5.643 0 00-.125.2 10.69 10.69 0 00-.871 8.129c3.169-7.12 7.152-8.439 7.324-8.492a.245.245 0 01.308.16l.005.019a9.825 9.825 0 01-.3 5.136 10.843 10.843 0 005.562-5.807.243.243 0 01.25-.164.246.246 0 01.223.2 24.83 24.83 0 001.476 5.023c.216.37.479.8.757 1.246.556.9.978 1.591 1.221 2.083.4-1.231 1.035-4.4-.792-9.2a.246.246 0 11.459-.175c2.468 6.479.619 10.035.539 10.183a.246.246 0 01-.462-.117 13.893 13.893 0 00-1.382-2.517c-.28-.453-.545-.881-.764-1.256a19.721 19.721 0 01-1.367-4.378 11.66 11.66 0 01-6.114 5.589.246.246 0 01-.3-.341 8.869 8.869 0 00.576-5.107c-.955.435-4.364 2.369-7.024 8.722a.245.245 0 01-.239.152zm17.1-.861" fill="#000333"/></g><g data-name="グループ 368"><path data-name="パス 1149" d="M71.222 687.426a.246.246 0 01-.246-.246v-1.591a.246.246 0 01.491-.017.126.126 0 010 .017v1.593a.246.246 0 01-.245.244z" fill="#000333"/></g><g data-name="グループ 369"><path data-name="パス 1150" d="M74.814 687.625a.245.245 0 01-.245-.246v-1.746a.246.246 0 01.491 0v1.746a.245.245 0 01-.245.246z" fill="#000333"/></g><g data-name="グループ 370"><path data-name="パス 1151" d="M73.263 680.903c-.524.172-.889.1-.655-.261s.4-.336.737-.321.769.413.536.6-.424-.082-.618-.018z" fill="#ffbdad"/></g><g data-name="グループ 371"><ellipse data-name="楕円形 27" cx=".145" cy=".16" rx=".145" ry=".16" fill="#000333" transform="translate(73.073 680.807)"/></g><g data-name="グループ 372"><path data-name="パス 1152" d="M80.672 707.404a.555.555 0 01-.234.3c-.584.308-1.428-.2-2.257.048a6.059 6.059 0 01-2.916 0c-.877-.231-.354-1.137 1.643-1.6s1.809-1.6 2.717-1.367a1.236 1.236 0 01.55.309 7.567 7.567 0 00.429 2.147z" fill="#236c60"/></g><g data-name="グループ 373"><path data-name="パス 1153" d="M77.571 701.381c-1.088.2-2.579-1.175-2.4-2s4.076-.76 4.329.138-1.422 1.77-1.929 1.862z" fill="#236c60"/></g><g data-name="グループ 374"><path data-name="パス 1154" d="M68.119 701.381c1.088.2 2.579-1.175 2.4-2s-4.076-.76-4.329.138 1.423 1.77 1.929 1.862z" fill="#236c60"/></g><g data-name="グループ 383"><g data-name="グループ 381"><g data-name="グループ 375"><path data-name="パス 1155" d="M81.036 675.297a2.94 2.94 0 00-2.168-.839 3.619 3.619 0 00-2.34 1.216 4.936 4.936 0 012.364-.792 3.727 3.727 0 012.144.415z" fill="#000333"/></g><g data-name="グループ 379"><g data-name="グループ 376"><path data-name="パス 1156" d="M80.24 679.339a.22.22 0 01-.114-.407 1.618 1.618 0 00.613-1 1.226 1.226 0 00-.181-1.02 1.629 1.629 0 00-1.239-.575 4.222 4.222 0 00-3.609 1.346.22.22 0 01-.285-.334 4.642 4.642 0 013.928-1.45 2.013 2.013 0 011.559.753 1.683 1.683 0 01.255 1.379 2.046 2.046 0 01-.813 1.275.219.219 0 01-.114.033z" fill="#000333"/></g><g data-name="グループ 377"><path data-name="パス 1157" d="M78.815 676.082a2.225 2.225 0 00.747-.691.05.05 0 01.065-.028.048.048 0 01.022.017.759.759 0 01.136.81z" fill="#000333"/></g><g data-name="グループ 378"><path data-name="パス 1158" d="M80.399 676.458a1.718 1.718 0 00.621-.391.077.077 0 01.135.018 1.817 1.817 0 01-.157 1.692z" fill="#000333"/></g></g><g data-name="グループ 380"><path data-name="合体 8" d="M75.533 678.751a2.26 2.26 0 011.911-2.487 2.26 2.26 0 011.911 2.487 2.259 2.259 0 01-1.911 2.486 2.258 2.258 0 01-1.911-2.486z" fill="#000333" stroke="rgba(0,0,0,0)"/></g></g><g data-name="グループ 382"><ellipse data-name="楕円形 29" cx=".512" cy=".876" rx=".512" ry=".876" fill="#fff" transform="translate(76.932 677.875)"/></g></g><g data-name="グループ 391"><g data-name="グループ 384"><path data-name="パス 1160" d="M65.46 675.297a2.94 2.94 0 012.167-.839 3.62 3.62 0 012.341 1.216 4.935 4.935 0 00-2.364-.792 3.727 3.727 0 00-2.144.415z" fill="#000333"/></g><g data-name="グループ 388"><g data-name="グループ 385"><path data-name="パス 1161" d="M66.255 679.339a.215.215 0 01-.113-.032 2.046 2.046 0 01-.812-1.275 1.684 1.684 0 01.254-1.379 2.012 2.012 0 011.559-.753 4.641 4.641 0 013.928 1.45.22.22 0 11-.284.334 4.224 4.224 0 00-3.609-1.346 1.629 1.629 0 00-1.24.575 1.229 1.229 0 00-.181 1.021 1.619 1.619 0 00.614 1 .219.219 0 01-.117.406z" fill="#000333"/></g><g data-name="グループ 386"><path data-name="パス 1162" d="M67.681 676.082a2.23 2.23 0 01-.747-.691.05.05 0 00-.064-.029.048.048 0 00-.023.018.759.759 0 00-.136.81z" fill="#000333"/></g><g data-name="グループ 387"><path data-name="パス 1163" d="M66.099 676.458a1.72 1.72 0 01-.621-.391.077.077 0 00-.108-.018.074.074 0 00-.027.036 1.816 1.816 0 00.156 1.692z" fill="#000333"/></g></g><g data-name="グループ 389"><path data-name="合体 7" d="M67.141 678.75a2.26 2.26 0 011.911-2.486 2.26 2.26 0 011.911 2.486 2.259 2.259 0 01-1.911 2.486 2.259 2.259 0 01-1.911-2.486z" fill="#000333" stroke="rgba(0,0,0,0)"/></g><g data-name="グループ 390"><ellipse data-name="楕円形 31" cx=".512" cy=".876" rx=".512" ry=".876" fill="#fff" transform="translate(68.541 677.875)"/></g></g><g data-name="グループ 392"><path data-name="パス 1165" d="M68.989 670.896a1.7 1.7 0 01-1.95 1.366 1.448 1.448 0 01-.968-.93 9.536 9.536 0 012.25-2.443 1.788 1.788 0 01.668 2.007z" fill="#868686"/></g><g data-name="グループ 393"><ellipse data-name="楕円形 32" cx=".759" cy=".639" rx=".759" ry=".639" transform="rotate(-75.05 471.687 291.483)" fill="#868686"/></g><g data-name="グループ 394"><path data-name="パス 1166" d="M84.354 673.354a.624.624 0 01-.295.074.83.83 0 010-1.644.577.577 0 01.176.026 12.619 12.619 0 01.119 1.544z" fill="#868686"/></g><g data-name="グループ 395"><ellipse data-name="楕円形 33" cx=".437" cy=".358" rx=".437" ry=".358" transform="rotate(-24.08 1617.658 143.763)" fill="#868686"/></g><g data-name="グループ 396"><path data-name="パス 1167" d="M65.004 685.222a.246.246 0 01-.209-.374c.78-1.271.3-3.648.295-3.672a.246.246 0 01.481-.1c.022.105.526 2.591-.357 4.028a.246.246 0 01-.21.118z" fill="#000333"/></g><g data-name="グループ 397"><path data-name="パス 1168" d="M72.136 677.341a.246.246 0 01-.152-.438 7.778 7.778 0 003.337-6.04.246.246 0 01.49-.029c.009.144.177 3.57-3.525 6.457a.246.246 0 01-.15.05z" fill="#000333"/></g><g data-name="グループ 401"><ellipse data-name="楕円形 34" cx="1.11" cy=".53" rx="1.11" ry=".53" fill="#ffbdad" transform="translate(66.566 682.19)"/></g><g data-name="グループ 402"><ellipse data-name="楕円形 35" cx="1.11" cy=".53" rx="1.11" ry=".53" fill="#ffbdad" transform="translate(77.801 682.19)"/></g><path data-name="パス 1677" d="M81.4 746.504h-6.68a.487.487 0 01-.487-.487v-2.466l4.732-.472q.137-.014.275-.014a3.075 3.075 0 012.77 1.74l.2.412a.9.9 0 01-.81 1.287z" fill="#2f6058"/><path data-name="パス 1678" d="M65.261 746.504h6.68a.487.487 0 00.487-.487v-2.466l-4.732-.472q-.137-.014-.275-.014a3.074 3.074 0 00-2.77 1.74l-.2.412a.9.9 0 00.81 1.287z" fill="#2f6058"/></g></g></svg>