<svg xmlns="http://www.w3.org/2000/svg" viewBox="0 0 203.74 623.31"><defs><style>.cls-1{fill:#535353}.cls-2{fill:#000333}.cls-3{fill:#000931}.cls-4{fill:#5b2c2b}.cls-5{fill:#397c71}.cls-6{fill:#ffedd9}.cls-8{fill:#236c60}.cls-9{fill:#ffbdad}.cls-10{fill:#fff}.cls-11{fill:#868686}.cls-13{fill:#bababa}</style></defs><g id="レイヤー_2" data-name="レイヤー 2"><g id="_女_表情パターン" data-name="【女】表情パターン"><g id="怒った時"><g id="グループ_335" data-name="グループ 335"><path id="パス_1098" data-name="パス 1098" class="cls-1" d="M178.54 130.85s-2 16.81 6 20.61c0 0-16.61 7.48-18.27-6.61s12.27-14 12.27-14z"/><path id="パス_1099" data-name="パス 1099" class="cls-2" d="M175.67 155.2a12.21 12.21 0 01-6-1.41 10.77 10.77 0 01-5.11-8.74 13.88 13.88 0 012.93-11.36 16 16 0 0111.06-4.61 1.76 1.76 0 011.75 1.78 1.21 1.21 0 010 .19c-.5 4.33-.58 16.14 5 18.81a1.76 1.76 0 010 3.2 26.29 26.29 0 01-9.63 2.14zm1-22.4a11.34 11.34 0 00-6.51 3.26 10.54 10.54 0 00-2.06 8.58 7.38 7.38 0 003.34 6.08c2.68 1.52 6.64 1 9.52.17-4.39-4.82-4.5-13.91-4.29-18.09z"/></g><g id="グループ_336" data-name="グループ 336"><path id="パス_1100" data-name="パス 1100" class="cls-1" d="M55.5 41s-29 36.41-50.18 31.45c0 0 19.48 13.23 41.8-7.27S55.5 41 55.5 41z"/><path id="パス_1101" data-name="パス 1101" class="cls-2" d="M21 78.35a32.29 32.29 0 01-16.68-4.44 1.76 1.76 0 011.4-3.17 17 17 0 003.77.42c19.46 0 44.36-30.93 44.62-31.27a1.78 1.78 0 011.83-.6 7.87 7.87 0 015.39 5.43c1.31 5.3-3.07 12.62-13 21.75S28.61 78.35 21 78.35zm-6.72-4.17c7.31 1.69 18.94 1.41 31.7-10.3 11.71-10.75 12.53-16.08 12-18.31A3.91 3.91 0 0056 43.15c-4.31 5.22-23.68 27.43-41.77 31.03z"/></g><g id="グループ_340" data-name="グループ 340"><path id="パス_1107" data-name="パス 1107" class="cls-1" d="M179.79 126.67c-9.7 33.93-25.12 48.91-14.54 80.65s-57.17 58.18-57.17 58.18l-81.23-42.75c-2.21-22.92-.88-28.59 3.08-42.06s6.17-36.84 1.76-55.35-7.48-54.21 18.08-81.54 69.64-30 103.14-10.57C171.81 44.17 181 61.72 183.74 81a91.18 91.18 0 01.83 11.08 118.86 118.86 0 01-4.78 34.59z"/><path id="パス_1108" data-name="パス 1108" class="cls-2" d="M108.08 267.26a1.7 1.7 0 01-.82-.21L26 224.31a1.78 1.78 0 01-.93-1.39c-2.22-23-.92-28.91 3.14-42.74s5.94-36.8 1.74-54.44c-3.61-15.19-9-53.68 18.51-83.15 25.27-27 69.56-31.59 105.31-10.9 17.67 10.23 28.63 27.21 31.68 49.08a95 95 0 01.86 11.3 121.63 121.63 0 01-4.85 35.07 259.76 259.76 0 01-9.13 25.7c-7.4 18.56-12.75 32-5.43 53.91 4.6 13.81-4.15 28.68-25.3 43a190.5 190.5 0 01-32.91 17.37 1.56 1.56 0 01-.61.14zm-79.56-45.62l79.66 41.92c7.24-3 64.75-27.62 55.4-55.68-7.72-23.18-1.89-37.81 5.5-56.33a256.43 256.43 0 009-25.36 117.77 117.77 0 004.71-34 90.08 90.08 0 00-.79-10.92c-2.9-20.76-13.26-36.84-30-46.51C117.68 14.87 75.21 19.19 51.05 45c-26.38 28.22-21.13 65.3-17.65 79.93 4.6 19.07 2.26 42.54-1.78 56.26-3.95 13.43-5.13 18.85-3.1 40.45z"/></g><g id="体"><path class="cls-3" d="M46.87 369.27s9.17 76.8 11.14 98c1.85 20 17.22 131.41 17.22 131.41h22.13l8.74-186.3.33 3v-50.1zM166.25 369.27s-9.18 76.8-11.14 98c-1.86 20-17.22 131.41-17.22 131.41h-22.13L107 412.33l-.32 3v-50.05z"/><path class="cls-4" d="M36 623.31h59a4.3 4.3 0 004.3-4.3v-21.79l-41.8-4.16q-1.22-.12-2.43-.12a27.16 27.16 0 00-24.47 15.37L28.84 612A7.93 7.93 0 0036 623.31zM176.48 623.31h-59a4.3 4.3 0 01-4.31-4.3v-21.79l41.8-4.16c.81-.08 1.62-.12 2.44-.12a27.13 27.13 0 0124.46 15.37l1.75 3.64a7.92 7.92 0 01-7.14 11.36z"/><g id="グループ_337" data-name="グループ 337"><path id="パス_1102" data-name="パス 1102" class="cls-5" d="M11.84 341.12s-1.81 7.38 2.81 8.26 21.27 0 21.27 0l9.58-14.32-12.56-2.42z"/><path id="パス_1103" data-name="パス 1103" class="cls-2" d="M22.32 351.54a53.56 53.56 0 01-8-.42 5.18 5.18 0 01-3.46-2.31c-1.91-3-.85-7.59-.73-8.1a1.79 1.79 0 011-1.22L32.29 331a1.8 1.8 0 011-.1l12.56 2.43a1.76 1.76 0 011.4 2.06 2 2 0 01-.25.61l-9.6 14.36a1.77 1.77 0 01-1.37.78c-.46.03-7.52.4-13.71.4zm-8.92-9.14a7.39 7.39 0 00.43 4.5 1.6 1.6 0 001.16.75 146.11 146.11 0 0020 0l7.62-11.38-9.44-1.82z"/></g><g id="グループ_338" data-name="グループ 338"><path id="パス_1104" data-name="パス 1104" class="cls-6" d="M25.89 349.74s-4.79 28.73 8.27 29.57l2.26-21 7.16 9.75 6.19-28.84z"/><path id="パス_1105" data-name="パス 1105" class="cls-2" d="M34.16 381.06h-.11a9.08 9.08 0 01-6.79-3.58c-6.36-8-3.24-27.22-3.1-28a1.73 1.73 0 011-1.32l23.88-10.52a1.77 1.77 0 012.33.91 1.82 1.82 0 01.11 1.08l-6.2 28.83a1.76 1.76 0 01-2.1 1.36 1.81 1.81 0 01-1-.68l-4.5-6.14-1.77 16.5a1.76 1.76 0 01-1.75 1.56zM27.49 351c-.83 5.77-1.69 19 2.53 24.33a5.76 5.76 0 002.59 1.92l2.06-19.08a1.76 1.76 0 013.17-.86l4.84 6.59 4.64-21.62z"/></g><g id="グループ_341" data-name="グループ 341"><path id="パス_1109" data-name="パス 1109" d="M59.7 183.69c8.51-7.11 17.85-14.63 23.63-14.14s13.31 7.19 13.67 13.39-14.51 10.58-20.7 11.74-22.48 9.18-22.56 1.74a18.54 18.54 0 015.96-12.73z" fill="#1e1e1e"/><path id="パス_1110" data-name="パス 1110" class="cls-2" d="M57.74 201.3a6.66 6.66 0 01-3.91-1 4.52 4.52 0 01-1.83-3.87 20.2 20.2 0 016.55-14.07c9.91-8.27 18.61-15.09 24.92-14.53s14.85 7.74 15.24 15c.49 9.24-21.87 13.52-22.1 13.56a57.42 57.42 0 00-6.13 1.82 46 46 0 01-12.74 3.09zm3.11-16.3a16.87 16.87 0 00-5.34 11.37c0 .76.26.94.37 1 1.89 1.36 9.16-1.07 13.51-2.51a55.56 55.56 0 016.6-1.95c8-1.49 19.43-5.87 19.22-9.91-.29-5.33-7.24-11.32-12-11.72-5.35-.43-15.56 8.06-22.33 13.71z"/></g><g id="グループ_343" data-name="グループ 343"><path id="パス_1112" data-name="パス 1112" class="cls-5" d="M156 194.9a39.18 39.18 0 018.07 3.19c1.4 1.22 5.15 17.3 4 27.66s2.78 119.67 2.78 119.67 1.56 16.83-11.5 18.6-95.62-6.53-95.62-6.53-27.44-18.74-28.76-38 3.76-81.16 3.76-81.16l13.42-36.6 22.48-6.81z"/><path id="パス_1113" data-name="パス 1113" class="cls-2" d="M153.77 364.85c-22.3 0-87-6.48-90.08-6.78a.63.63 0 01-.27-.1c-1.13-.77-27.69-19.12-29-38.46-1.31-19.11 3.71-80.62 3.76-81.24a.41.41 0 010-.16l13.43-36.59a.58.58 0 01.39-.36l22.47-6.82a.35.35 0 01.17 0H156a.47.47 0 01.17 0 37.65 37.65 0 018.3 3.31c1.61 1.4 5.36 17.68 4.24 28.17-1.08 10.2 2.75 118.49 2.79 119.58a27 27 0 01-.88 8.81c-1.69 6-5.54 9.63-11.13 10.38a47 47 0 01-5.72.26zM64 356.91c4 .41 82.76 8.23 95.34 6.52 12.36-1.68 11-17.8 11-18-.17-4.5-3.88-109.5-2.79-119.78 1.12-10.5-2.81-26.21-3.85-27.16a36 36 0 00-7.77-3h-81.2l-22.11 6.71-13.29 36.24c-.21 2.54-5 62.28-3.75 81C36.81 337.56 62 355.53 64 356.91z"/></g><g id="グループ_345" data-name="グループ 345"><path id="パス_1115" data-name="パス 1115" class="cls-5" d="M191.79 346.52c1.32 4.85.22 8.92-1.54 10.25a38.52 38.52 0 01-22.25 3.85c-9.92-1.54-8.6-8.82-8.6-8.82l13.22-16.52z"/><path id="パス_1116" data-name="パス 1116" class="cls-2" d="M172.64 362.73a33.05 33.05 0 01-4.87-.36 12.28 12.28 0 01-8.52-4.55 9 9 0 01-1.54-6.33 1.77 1.77 0 01.35-.79l13.23-16.52a1.75 1.75 0 012.27-.42L192.68 345a1.85 1.85 0 01.81 1.05c1.37 5 .45 10.14-2.19 12.12a39.76 39.76 0 01-18.66 4.56zm-11.49-10.24a5.44 5.44 0 001 3.33 8.92 8.92 0 006.15 3.06 37.17 37.17 0 0020.88-3.53c.87-.65 2-3.54 1.07-7.69l-17.17-10.09z"/></g><g id="グループ_346" data-name="グループ 346"><path id="パス_1117" data-name="パス 1117" class="cls-6" d="M184.91 357.62s-5.14 33.76-14.06 34.08c-2.37.09 3.71-20.1 2.4-24.87-.75-2.75-4.8 10.24-5.83 7.95-3.9-8.7-5.83-29.36-5.83-29.36z"/><path id="パス_1118" data-name="パス 1118" class="cls-2" d="M170.83 393.46a2.11 2.11 0 01-1.61-.74c-1.17-1.37-.78-4.11.75-12.22.44-2.34 1-5.11 1.32-7.55-1.26 2.57-2.1 3.86-3.56 3.86a2.1 2.1 0 01-1.89-1.31c-4-8.87-5.89-29.06-6-29.92a1.75 1.75 0 011.59-1.91 1.67 1.67 0 011 .19l23.32 12.19a1.77 1.77 0 01.93 1.83c-.89 5.87-5.86 35.22-15.74 35.58zm2.08-28.78h.21a2.1 2.1 0 011.84 1.68c.7 2.55-.15 7.51-1.52 14.79-.52 2.78-1.2 6.36-1.35 8.34 4.51-2.88 8.95-19.06 10.9-30.91l-19.28-10.07a136.41 136.41 0 004.36 23c.29-.59.58-1.2.81-1.68 1.58-3.39 2.42-5.15 4.03-5.15z"/></g><g id="グループ_348" data-name="グループ 348"><path id="パス_1120" data-name="パス 1120" class="cls-5" d="M166.5 207.24c11.12 16.2 10.46 31.4 11.46 48.92s0 37.91 24 73.61c0 0 .33 4.85-5.79 10.14s-4.79 7.93-8.31 7.93-21.36-.84-21.36-.84l-28.27-18.07v-63.51l3.3-23.86"/><path id="パス_1121" data-name="パス 1121" class="cls-2" d="M187.87 349.6c-3.53 0-20.73-.84-21.46-.88a1.75 1.75 0 01-.86-.28l-28.27-18.07a1.74 1.74 0 01-.81-1.48v-63.47a1.93 1.93 0 010-.24l3.3-23.86a1.76 1.76 0 113.5.43v.05L140 265.54v62.38l27.06 17.3c2.83.14 17.69.86 20.82.86.92 0 .95 0 1.91-1.48a26.11 26.11 0 015.26-6 13.1 13.1 0 005.16-8.29c-22.07-33-23-53.36-23.79-69.76q-.1-2.16-.21-4.26c-.12-2-.21-4-.3-6-.7-15.07-1.3-28.08-10.85-42a1.76 1.76 0 112.82-2.12.83.83 0 01.08.12c10.12 14.73 10.78 28.86 11.47 43.82.09 2 .18 4 .3 6q.12 2.12.21 4.29c.79 16.88 1.68 36 23.51 68.43a1.8 1.8 0 01.29.87c0 .23.32 5.79-6.39 11.59a22.42 22.42 0 00-4.61 5.29 5.18 5.18 0 01-4.87 3.02z"/></g><g id="グループ_349" data-name="グループ 349"><path id="パス_1122" data-name="パス 1122" class="cls-5" d="M67 235.22l-3.77 22.6v57.51S37.79 336.49 34.65 339s-19.34 2.81-22.81 2.15-10.08-12.26-10.08-12.26c7.61-6.95 13.89-27.77 15.21-54.22s10.67-57.16 22.21-66.59l16-3.49 9.52 11.57"/><path id="パス_1123" data-name="パス 1123" class="cls-2" d="M17.56 343.17a42.23 42.23 0 01-6-.32c-4-.75-9.64-10.21-11.28-13.09a1.76 1.76 0 01.34-2.17c7.51-6.86 13.4-28.16 14.64-53 1.26-25.22 10.15-57.5 22.86-67.87a1.69 1.69 0 01.74-.35l16-3.49a1.75 1.75 0 011.74.6l9.52 11.57a1.77 1.77 0 01-2.73 2.24l-8.83-10.74L40 209.72c-10.39 8.91-19.88 37.9-21.24 65-1.26 25-7 46.05-14.76 54.41 3.18 5.32 6.88 10 8.2 10.21 6.24 1.19 20-.67 21.39-1.8 2.82-2.22 24-19.79 27.93-23.08v-56.64a1.51 1.51 0 010-.3l3.77-22.6a1.77 1.77 0 013.48.58L65 258v57.37a1.77 1.77 0 01-.63 1.36c-1 .86-25.5 21.2-28.63 23.66-2.74 2.11-11.81 2.78-18.18 2.78z"/></g><g id="グループ_350" data-name="グループ 350"><path id="パス_1124" data-name="パス 1124" class="cls-5" d="M45.51 356.65C41.6 359.8 38 370.71 46.72 374s8.76 1 25.62 3.8 46 2.31 59.83 1.49 35.86-.66 37.93-7.44-.21-11.15-4-11-54.21-4.18-54.21-4.18l-59.72-1.17z"/><path id="パス_1125" data-name="パス 1125" class="cls-2" d="M108.26 380.54a242.43 242.43 0 01-36-2.15 118.43 118.43 0 00-14.79-1.65 29.76 29.76 0 01-10.94-2.18 8.26 8.26 0 01-5.66-6.67 13.9 13.9 0 014.28-11.7.61.61 0 01.27-.12l6.66-1.15 59.78 1.14c.54.05 50.45 4.33 54.18 4.18a4.77 4.77 0 014 1.89c1.65 2.16 1.88 5.77.63 9.9-1.89 6.17-17.83 6.89-31.88 7.53-2.31.1-4.53.21-6.58.32-6.29.38-14.88.66-23.95.66zm-62.5-23.33a12.89 12.89 0 00-3.76 10.5 7.11 7.11 0 004.91 5.75 28.53 28.53 0 0010.6 2.1 118.49 118.49 0 0114.91 1.67c16.33 2.72 44.65 2.37 59.7 1.48 2.05-.13 4.28-.23 6.6-.33 12.31-.56 29.17-1.32 30.81-6.7 1.15-3.76 1-7-.44-8.84a3.44 3.44 0 00-3-1.43c-3.79.12-52.22-4-54.28-4.18l-59.63-1.15z"/></g><g id="グループ_351" data-name="グループ 351"><path id="パス_1126" data-name="パス 1126" class="cls-8" d="M58.92 296.34c0 12.26 1.07 23.29-4.76 23.29s-16.36-11-16.36-23.29c0-4.92-.48-13.08.81-16.76 1.92-5.5 6.25-5.45 9.75-5.45 5.83 0 10.56 9.94 10.56 22.21z"/></g><g id="グループ_352" data-name="グループ 352"><path id="パス_1127" data-name="パス 1127" class="cls-8" d="M165.69 305.42c0 12.26-4.72 22.2-10.55 22.2s-10.55-9.94-10.55-22.2 4.72-22.21 10.55-22.21c4 0 8.77-.56 10.55 6.34.82 3.16 0 12.02 0 15.87z"/></g><g id="グループ_353" data-name="グループ 353"><path id="パス_1128" data-name="パス 1128" class="cls-6" d="M56.75 196s21.7-10.55 34.81-10.46 43.09 3.74 46.39 6.27-24.27 41.15-34.86 38.7-43.81-23.94-43.81-23.94z"/><path id="パス_1129" data-name="パス 1129" class="cls-2" d="M104 232.38a5.94 5.94 0 01-1.32-.15c-10.76-2.49-43-23.29-44.37-24.17a1.8 1.8 0 01-.76-1.07L55 196.41a1.77 1.77 0 01.95-2c.89-.43 22-10.63 35.4-10.63h.19c12 .09 43.41 3.54 47.46 6.63 1.74 1.33.81 4-.32 6.38-4.42 9.44-23.92 35.59-34.68 35.59zm-43.18-26.9c4.5 2.88 33.25 21.14 42.66 23.31.88.21 3.56.17 9.25-4.61 11.23-9.46 22.92-27.36 23.69-31.22-4.57-2.09-31.63-5.55-44.88-5.64h-.17c-10.78 0-27.81 7.48-32.58 9.67z"/></g><g id="グループ_354" data-name="グループ 354"><path id="パス_1130" data-name="パス 1130" class="cls-5" d="M151.21 230.83c10.58 5.62 16.42 25 9 48.78-1.24 4-3.55 2.95-6.29 13.72-1.41 5.55 1.65 14.51 4 24.09 2.18 9 9.94 23.6 10 23.79a19.1 19.1 0 01-1.87 19.62c-4 5.83-34.38 5.75-59.62 6.08s-53.77-6.08-53.77-6.08-10.91-2.51-13.46-16.36S43 330.09 47.51 316c3-9.29 4.53-18 1.41-28.75-1.62-5.59.11 1.19-3.42-7.68-4.92-12.37-7.18-45.65 8.24-50.52"/><path id="パス_1131" data-name="パス 1131" class="cls-2" d="M104.57 368.68a280.34 280.34 0 01-52.29-6.13c-.5-.11-12.08-2.95-14.81-17.75a22.51 22.51 0 013.33-18.34 53.87 53.87 0 005-11c3-9.21 4.36-17.45 1.39-27.72-.1-.36-.38-1.3-.55-1.81a18 18 0 01-2.81-5.7c-4-10-6-31.55-.16-43.8a16 16 0 019.51-9.05 1.76 1.76 0 011.06 3.35 12.6 12.6 0 00-7.39 7.21c-5.33 11.22-3.41 31.77.25 41a41 41 0 001.9 4.27c.69.42.91 1.2 1.6 3.55C54 298.54 52 308 49.2 316.54a57.65 57.65 0 01-5.33 11.66c-2.77 4.87-4.44 7.81-2.93 15.95 2.3 12.56 12 14.94 12.12 15 .27.06 28.66 6.35 53.35 6l5.42-.07c20.93-.24 49.6-.58 52.76-5.24a17.26 17.26 0 001.71-17.93l-.1-.18c-2.39-4.62-8.15-16.2-10-23.89-.46-1.91-.95-3.78-1.43-5.62-2-7.76-3.78-14.44-2.54-19.33 1.83-7.19 3.57-9.48 4.83-11.16a7.76 7.76 0 001.47-2.65c7.34-23.61 1.27-41.68-8.16-46.69a1.76 1.76 0 111.65-3.12c5.87 3.12 10.19 9.78 12.15 18.75a63.68 63.68 0 01-2.28 32.11 11 11 0 01-2 3.72c-1.15 1.52-2.58 3.41-4.23 9.91-1 4 .71 10.59 2.52 17.57.48 1.85 1 3.75 1.45 5.68 1.77 7.31 7.39 18.59 9.72 23.1a4.17 4.17 0 00.21.4 20.74 20.74 0 01-2 21.31c-3.9 5.75-24.56 6.42-55.64 6.78l-5.41.07z"/></g><g id="グループ_355" data-name="グループ 355"><path id="パス_1132" data-name="パス 1132" class="cls-5" d="M105 230.82s32.28-33.71 31.29-36.8-6.17-6.61-18.29-6.39l-4.35-4a71.19 71.19 0 018-3.06c6.57-2.28 22.45-6.64 26.69-4.65a15.13 15.13 0 018 10.79c.66 4.2 3.08 4 4.4 6.62s2.65 7.21 0 9.77-11.9 5.43-16.75 9.18-25.54 18.98-38.99 18.54z"/><path id="パス_1133" data-name="パス 1133" class="cls-2" d="M105.57 232.59H105a1.76 1.76 0 01-1.22-3c14.29-14.93 29.44-31.95 30.77-35.35-1-2-5.35-5.08-16.46-4.86a1.79 1.79 0 01-1.23-.46l-4.35-4a1.76 1.76 0 01-.11-2.49 1.47 1.47 0 01.46-.36 72.11 72.11 0 018.28-3.18c.21-.07 21.9-7.44 28-4.58a16.94 16.94 0 019 12.12 4.57 4.57 0 001.86 3.37 8.65 8.65 0 012.31 2.76c.91 1.82 3.57 8-.35 11.83a31.7 31.7 0 01-7.76 4.36 52.42 52.42 0 00-9.14 4.95c-4.06 3.19-25.14 18.89-39.49 18.89zm13.54-46.74c15.22 0 18.29 5.81 18.87 7.63.44 1.36.93 2.89-15.64 21.28a884.41 884.41 0 01-12.87 13.92c13.35-2.47 31.26-16.06 33.47-17.77a54.29 54.29 0 019.81-5.36 32.14 32.14 0 006.79-3.69c1.75-1.69.9-5.21-.35-7.72a5.12 5.12 0 00-1.47-1.67 8 8 0 01-3.1-5.45 13.44 13.44 0 00-7-9.47c-3.09-1.45-16.86 1.77-25.38 4.72-2.46.85-4.19 1.49-5.37 1.95l1.8 1.64z"/></g><g id="グループ_356" data-name="グループ 356"><path id="パス_1134" data-name="パス 1134" class="cls-5" d="M61.64 167.9c-16.36 5-16.57 10.47-18.78 14s-7.27 12.79-6.61 17.85 2.64 9.47 5.73 10.57 6.39 0 13.22 3.09 48.8 17.41 48.8 17.41S56.74 198.2 56.74 196s.89-5.29 2.87-5.95a10.53 10.53 0 007.27-5.51 19.29 19.29 0 019.59-8.36c2.09-.45-6.38-8.28-6.38-8.28z"/><path id="パス_1135" data-name="パス 1135" class="cls-2" d="M104 232.59a1.8 1.8 0 01-.57-.1c-1.73-.59-42.12-14.39-48.95-17.49a25 25 0 00-9-2.31 16 16 0 01-4.08-.69c-3.5-1.25-6.07-5.74-6.89-12-.84-6.46 6.08-17.75 6.87-19a17.91 17.91 0 00.85-1.6c1.83-3.68 4.33-8.72 18.9-13.14a1.81 1.81 0 01.51-.08h8.46a1.75 1.75 0 011.19.47c7.88 7.27 7.42 9 7.2 9.77a2.11 2.11 0 01-1.65 1.52 18.1 18.1 0 00-8.32 7.32 11.92 11.92 0 01-8.1 6.43l-.25.08c-.79.26-1.52 2-1.64 3.8 3.12 3.43 29.86 22.32 46.47 33.79a1.78 1.78 0 01.45 2.46 1.8 1.8 0 01-1.46.76zm-42.1-62.92c-12.9 4-14.9 8-16.52 11.27-.33.66-.63 1.28-1 1.9-2.45 3.91-6.92 12.42-6.36 16.68.63 4.79 2.42 8.38 4.57 9.15a13 13 0 003.21.54 28.87 28.87 0 0110.15 2.6c4.38 2 23.73 8.75 36.67 13.23-3.95-2.76-8.62-6-13.26-9.36C55 198.29 55 197.28 55 196c0-3 1.28-6.7 4.07-7.63l.26-.08a8.63 8.63 0 005.94-4.43 21.15 21.15 0 019.23-8.8 54.07 54.07 0 00-5.08-5.4z"/></g><g id="グループ_357" data-name="グループ 357"><path id="パス_1136" data-name="パス 1136" class="cls-9" d="M117.35 193.13s-4 2.31-13.11 2.31-11.74-2.31-11.74-2.31v-13h24.84z"/></g><g id="グループ_360" data-name="グループ 360"><path id="パス_1140" data-name="パス 1140" class="cls-2" d="M94.58 204.92a1.08 1.08 0 01-.56-.14l-9.35-5a1.18 1.18 0 111.12-2.08l9.34 5a1.17 1.17 0 01-.55 2.21z"/></g><g id="グループ_361" data-name="グループ 361"><path id="パス_1141" data-name="パス 1141" class="cls-2" d="M113.66 204.92a1.17 1.17 0 01-1.18-1.17 1.2 1.2 0 01.62-1l9.36-5a1.17 1.17 0 011.59.48 1.18 1.18 0 01-.48 1.59l-9.35 5a1.08 1.08 0 01-.56.1z"/></g><g id="グループ_362" data-name="グループ 362"><path id="パス_1142" data-name="パス 1142" class="cls-2" d="M109.28 254.39a15.37 15.37 0 01-4.88-.9c-3.81-1.29-8.13-4-7.76-7.43a73.89 73.89 0 012.1-9.32c2-6.85 2.74-7.35 3.27-7.69a1.92 1.92 0 011.21-.29l5.27.11a1.76 1.76 0 011.61 1.13c1.61 4.12 6.69 17.87 4.12 22.14a5.38 5.38 0 01-4.94 2.25zm-5.35-22.09a77.61 77.61 0 00-3.77 14.14c-.06.55 1.7 2.46 5.38 3.7 3.13 1.05 5.31.77 5.68.16 1.06-1.78-1.14-10.47-4-17.94z"/></g><g id="グループ_363" data-name="グループ 363"><path id="パス_1143" data-name="パス 1143" class="cls-2" d="M105 235.26c1.65-.34 3.11 1.48 3.19 4.58s.42 5.7-2.72 4.92a3.53 3.53 0 01-2.52-4.32 2.78 2.78 0 01.12-.38c.17-1.06.31-4.48 1.93-4.8z"/></g><g id="グループ_364" data-name="グループ 364"><path id="パス_1144" data-name="パス 1144" class="cls-2" d="M99.26 368.59a1.77 1.77 0 01-1.76-1.68c-.35-7.05.34-37.13.8-57 .15-6.27.27-11.48.32-14.52.21-12.44 1.52-44.65 1.53-45a1.76 1.76 0 013.52.15c0 .32-1.31 32.5-1.52 44.89-.06 3-.18 8.26-.32 14.54-.46 19.86-1.15 49.85-.8 56.78a1.78 1.78 0 01-1.68 1.85h-.09z"/></g><g id="グループ_365" data-name="グループ 365"><path id="パス_1145" data-name="パス 1145" class="cls-2" d="M108.25 368.59a1.77 1.77 0 01-1.77-1.75c0-6 .07-19.63.21-35.37.28-31.06.66-73.59-.18-78.62a1.77 1.77 0 113.46-.7.5.5 0 000 .12c.89 5.33.52 46.31.23 79.23-.14 15.73-.26 29.31-.21 35.31a1.76 1.76 0 01-1.75 1.78z"/></g><g id="グループ_368" data-name="グループ 368"><path id="パス_1149" data-name="パス 1149" class="cls-2" d="M91.56 193a1.76 1.76 0 01-1.76-1.77v-11.4a1.76 1.76 0 113.52-.12v11.55a1.77 1.77 0 01-1.76 1.74z"/></g><g id="グループ_369" data-name="グループ 369"><path id="パス_1150" data-name="パス 1150" class="cls-2" d="M117.35 194.46a1.76 1.76 0 01-1.76-1.77v-12.53a1.76 1.76 0 013.52 0v12.53a1.76 1.76 0 01-1.76 1.77z"/></g><g id="グループ_372" data-name="グループ 372"><path id="パス_1152" data-name="パス 1152" class="cls-8" d="M159.39 336.42a4 4 0 01-1.68 2.16c-4.2 2.21-10.25-1.42-16.2.34a43.34 43.34 0 01-20.93 0c-6.29-1.66-2.54-8.16 11.79-11.46s13-11.49 19.5-9.81a8.78 8.78 0 013.95 2.22 54.1 54.1 0 003.08 15.41z"/></g><g id="グループ_373" data-name="グループ 373"><path id="パス_1153" data-name="パス 1153" class="cls-8" d="M137.14 293.19c-7.81 1.42-18.51-8.43-17.2-14.38s29.26-5.45 31.07 1-10.24 12.72-13.87 13.38z"/></g><g id="グループ_374" data-name="グループ 374"><path id="パス_1154" data-name="パス 1154" class="cls-8" d="M69.29 293.19c7.81 1.42 18.51-8.43 17.2-14.38s-29.26-5.45-31.08 1 10.25 12.72 13.88 13.38z"/></g></g><g id="グループ_342" data-name="グループ 342"><path id="パス_1111" data-name="パス 1111" class="cls-2" d="M154.55 186.38a1.75 1.75 0 01-1.54-.9c-5.32-9.43 1.24-26.66 1.52-27.38a1.76 1.76 0 013.29 1.27c-.07.16-6.24 16.4-1.74 24.39a1.76 1.76 0 01-.67 2.4 1.83 1.83 0 01-.86.22z"/></g><g id="グループ_358" data-name="グループ 358"><path id="パス_1137" data-name="パス 1137" class="cls-6" d="M160.62 122.92s6.13 25.86-6 39.61c-12 13.55-30.57 18.57-50 18.13-19.39.44-38-4.58-50-18.13-12.14-13.75-6-39.61-6-39.61s38.68-62.81 53.17-64.57 55-1.77 58.78 64.57"/><path id="パス_1138" data-name="パス 1138" class="cls-2" d="M102.25 182.44c-15.27 0-35.39-3.43-48.9-18.74-12.6-14.28-6.66-40.1-6.4-41.19a1.67 1.67 0 01.21-.52c4-6.5 39.56-63.58 54.46-65.39 10.63-1.29 26-.58 38.83 10.15 13 10.91 20.41 29.72 21.92 55.92.55 2.41 5.79 27.16-6.44 41-14.21 16.11-35.77 19.06-51.33 18.72-.77.05-1.55.05-2.35.05zm2.35-3.55c14.91.34 35.37-2.43 48.69-17.52 11.4-12.93 5.67-37.8 5.61-38.05a1.55 1.55 0 010-.31c-1.43-25.26-8.39-43.28-20.67-53.56-11.91-9.92-26.23-10.56-36.18-9.35-3.1.37-11.21 5.06-30.79 32.21-10.53 14.6-19.65 29.2-20.94 31.28-.58 2.73-5.07 25.59 5.68 37.78 13.31 15.09 33.78 17.86 48.6 17.52z"/></g><g id="グループ_366" data-name="グループ 366"><path id="パス_1146" data-name="パス 1146" class="cls-1" d="M164.37 67.38c17.63 46.28 4 71.63 4 71.63 0-3.53-10.13-18.52-15.64-28s-10.81-36.6-10.81-36.6c-11.23 32.18-45 44.52-45 44.52 9-17.85 3.89-39.89 3.89-39.89S70.4 88.55 47.43 143.4c0 0-13.15-34.61 5-64.36.3-.49.61-1 .93-1.47A68.44 68.44 0 0169.49 60a65.37 65.37 0 0131.28-13"/><path id="パス_1147" data-name="パス 1147" class="cls-2" d="M47.39 145.19a1.76 1.76 0 01-1.62-1.14c-.55-1.44-13.25-35.77 5.17-65.9.3-.48.59-1 .89-1.4l.06-.12a70.57 70.57 0 0116.56-18 66.6 66.6 0 0132.21-13.4 1.75 1.75 0 011.88 1.6 1.76 1.76 0 01-1.61 1.89 64.29 64.29 0 00-30.38 12.72 67.08 67.08 0 00-15.65 17l-.08.15c-.31.46-.61.94-.9 1.42-13.75 22.49-9 48.19-6.26 58.35 22.75-51.11 51.33-60.57 52.57-61a1.75 1.75 0 012.21 1.14v.14c.2.85 4.41 19.64-2.18 36.86 9.17-4.4 31.39-17.23 39.92-41.68a1.74 1.74 0 011.82-1.15 1.76 1.76 0 011.61 1.42c0 .27 5.29 27 10.59 36.05 1.55 2.66 3.44 5.71 5.43 8.94 4 6.45 7 11.42 8.76 15 2.89-8.84 7.43-31.6-5.68-66a1.76 1.76 0 013.29-1.34c17.72 46.51 4.44 72 3.87 73.09a1.77 1.77 0 01-3.32-.84c0-2-6-11.67-9.91-18.06-2-3.25-3.92-6.32-5.49-9-4.07-7-7.92-22.85-9.81-31.42-12.93 28.49-42.54 39.61-43.87 40.1a1.77 1.77 0 01-2.26-1.06 1.73 1.73 0 01.08-1.39c7-14 5.1-30.89 4.14-36.66-6.86 3.12-31.33 17-50.43 62.6a1.75 1.75 0 01-1.61 1.09z"/></g><g id="グループ_370" data-name="グループ 370"><path id="パス_1151" data-name="パス 1151" class="cls-9" d="M105 146.29c-3.76 1.24-6.38.69-4.71-1.87s2.87-2.41 5.29-2.31 5.52 3 3.85 4.29-3.07-.56-4.43-.11z"/></g><g id="グループ_371" data-name="グループ 371"><ellipse id="楕円形_27" data-name="楕円形 27" class="cls-2" cx="104.64" cy="146.75" rx="1.04" ry="1.15"/></g><g id="グループ_383" data-name="グループ 383"><g id="グループ_381" data-name="グループ 381"><g id="グループ_379" data-name="グループ 379"><g id="グループ_376" data-name="グループ 376"><path id="パス_1156" data-name="パス 1156" class="cls-2" d="M155 135.06a1.57 1.57 0 01-1.57-1.57 1.59 1.59 0 01.76-1.35 11.65 11.65 0 004.4-7.17 8.83 8.83 0 00-1.3-7.33 11.68 11.68 0 00-8.9-4.12c-9.22-.74-15.15.49-25.9 9.66a1.57 1.57 0 01-2-2.4c11.53-9.83 18.28-11.18 28.19-10.4 6.35.5 9.59 3.22 11.19 5.4a12.09 12.09 0 011.83 9.9 14.68 14.68 0 01-5.84 9.15 1.56 1.56 0 01-.86.23z"/></g><g id="グループ_377" data-name="グループ 377"><path id="パス_1157" data-name="パス 1157" class="cls-2" d="M144.81 111.69s4.33-2.57 5.36-5a.37.37 0 01.47-.2.44.44 0 01.15.12 5.46 5.46 0 011 5.82z"/></g><g id="グループ_378" data-name="グループ 378"><path id="パス_1158" data-name="パス 1158" class="cls-2" d="M156.18 114.38a12.39 12.39 0 004.46-2.8.55.55 0 01.77-.13.52.52 0 01.2.26c.82 2.34 2.2 7.84-1.13 12.14z"/></g></g><g id="グループ_380" data-name="グループ 380"><ellipse id="楕円形_28" data-name="楕円形 28" class="cls-2" cx="134.97" cy="130.85" rx="11.95" ry="16.08"/><path id="パス_1159" data-name="パス 1159" class="cls-2" d="M135 148.69c-7.56 0-13.71-8-13.71-17.85S127.41 113 135 113s13.72 8 13.72 17.84-6.18 17.85-13.72 17.85zm0-32.17c-5.61 0-10.19 6.43-10.19 14.32s4.58 14.32 10.19 14.32 10.19-6.42 10.19-14.32-4.6-14.32-10.19-14.32z"/></g></g><g id="グループ_382" data-name="グループ 382"><ellipse id="楕円形_29" data-name="楕円形 29" class="cls-10" cx="134.97" cy="130.85" rx="3.67" ry="6.29"/></g></g><g id="グループ_391" data-name="グループ 391"><g id="グループ_388" data-name="グループ 388"><g id="グループ_385" data-name="グループ 385"><path id="パス_1161" data-name="パス 1161" class="cls-2" d="M54.66 135.06a1.58 1.58 0 01-.81-.23 14.68 14.68 0 01-5.85-9.15 12.09 12.09 0 011.83-9.9c1.6-2.19 4.84-4.9 11.19-5.4 9.92-.78 16.67.57 28.19 10.4a1.57 1.57 0 11-2 2.4c-10.75-9.17-16.68-10.4-25.91-9.67a11.72 11.72 0 00-8.89 4.13 8.83 8.83 0 00-1.3 7.33 11.64 11.64 0 004.4 7.18 1.58 1.58 0 01.51 2.17 1.59 1.59 0 01-1.35.74z"/></g><g id="グループ_386" data-name="グループ 386"><path id="パス_1162" data-name="パス 1162" class="cls-2" d="M64.9 111.69s-4.33-2.57-5.36-5a.36.36 0 00-.46-.21.37.37 0 00-.17.13 5.45 5.45 0 00-1 5.82z"/></g><g id="グループ_387" data-name="グループ 387"><path id="パス_1163" data-name="パス 1163" class="cls-2" d="M53.54 114.38a12.27 12.27 0 01-4.45-2.8.55.55 0 00-.77-.13.52.52 0 00-.2.26c-.83 2.34-2.2 7.84 1.12 12.14z"/></g></g><g id="グループ_389" data-name="グループ 389"><ellipse id="楕円形_30" data-name="楕円形 30" class="cls-2" cx="74.74" cy="130.85" rx="11.95" ry="16.08"/><path id="パス_1164" data-name="パス 1164" class="cls-2" d="M74.74 148.69c-7.56 0-13.71-8-13.71-17.85S67.18 113 74.74 113s13.72 8 13.72 17.84-6.15 17.85-13.72 17.85zm0-32.17c-5.61 0-10.18 6.43-10.18 14.32s4.57 14.32 10.18 14.32 10.19-6.42 10.19-14.32-4.57-14.32-10.19-14.32z"/></g><g id="グループ_390" data-name="グループ 390"><ellipse id="楕円形_31" data-name="楕円形 31" class="cls-10" cx="74.74" cy="130.85" rx="3.67" ry="6.29"/></g></g><g id="グループ_392" data-name="グループ 392"><path id="パス_1165" data-name="パス 1165" class="cls-11" d="M74.29 74.47c-1.85 7-8.13 11.38-14 9.8a10.4 10.4 0 01-6.95-6.67A68.44 68.44 0 0169.5 60.05a12.82 12.82 0 014.79 14.42z"/></g><g id="グループ_393" data-name="グループ 393"><ellipse id="楕円形_32" data-name="楕円形 32" class="cls-11" cx="76.03" cy="77.8" rx="5.45" ry="4.58" transform="rotate(-75.06 76.024 77.805)"/></g><g id="グループ_394" data-name="グループ 394"><path id="パス_1166" data-name="パス 1166" class="cls-11" d="M184.58 92.11a4.47 4.47 0 01-2.12.53 6 6 0 010-11.8 3.91 3.91 0 011.27.19 91.21 91.21 0 01.85 11.08z"/></g><g id="グループ_395" data-name="グループ 395"><ellipse id="楕円形_33" data-name="楕円形 33" class="cls-11" cx="172.17" cy="87.13" rx="3.14" ry="2.57" transform="rotate(-24.11 172.17 87.125)"/></g><g id="グループ_396" data-name="グループ 396"><path id="パス_1167" data-name="パス 1167" class="cls-2" d="M45.69 177.29a1.77 1.77 0 01-1.5-2.69c5.59-9.12 2.15-26.18 2.11-26.35a1.77 1.77 0 013.46-.72c.15.76 3.77 18.6-2.56 28.92a1.77 1.77 0 01-1.51.84z"/></g><g id="グループ_397" data-name="グループ 397"><path id="パス_1168" data-name="パス 1168" class="cls-2" d="M96.88 120.72a1.77 1.77 0 01-1.09-3.15c25-19.52 24-43.11 23.95-43.35a1.76 1.76 0 013.52-.21c.07 1 1.27 25.63-25.3 46.35a1.82 1.82 0 01-1.08.36z"/></g><g id="グループ_401" data-name="グループ 401"><ellipse id="楕円形_34" data-name="楕円形 34" class="cls-9" cx="64.86" cy="159.33" rx="7.97" ry="3.8"/></g><g id="グループ_402" data-name="グループ 402"><ellipse id="楕円形_35" data-name="楕円形 35" class="cls-9" cx="145.51" cy="159.33" rx="7.97" ry="3.8"/></g><path d="M110.58 165.59a6.65 6.65 0 00-11.54 0" fill="none" stroke="#000931" stroke-linecap="round" stroke-linejoin="round" stroke-width="2.62"/><path class="cls-3" d="M63.72 99.67a83.57 83.57 0 0113.53 5.77c7.3 4 14 7.87 14 7.87a61 61 0 01-14.44-4.83 54.73 54.73 0 01-13.09-8.81zM145.1 99.67a83.57 83.57 0 00-13.53 5.77c-7.3 4-14 7.87-14 7.87a61 61 0 0014.43-4.83 54.73 54.73 0 0013.1-8.81z"/><path class="cls-13" d="M48.23 35.62V27S67.91 14.11 45 5.77C35.9-9.09 17 8.55 25.77 16.23 21.68 27.5 32 34.29 41.61 29.46a78.58 78.58 0 016.62 6.16z"/><path class="cls-13" d="M36.29 49l-4.19-5.23s5.72-17.47-12.3-11.41C7 27.75 4 47.76 13.13 48.14c3 8.87 12.62 8 16.12.35a62 62 0 017.04.51z"/></g></g></g></svg>