<svg xmlns="http://www.w3.org/2000/svg" width="107" height="86"><defs><clipPath id="a"><path data-name="長方形 186" transform="translate(-7305 3943)" fill="#fff" stroke="#707070" d="M0 0h107v86H0z"/></clipPath></defs><g data-name="マスクグループ 1" transform="translate(7305 -3943)" clip-path="url(#a)"><g data-name="グループ 747"><g data-name="グループ 681"><path data-name="パス 1249" d="M-7219.309 3991.096s-.807 6.883 2.471 8.44c0 0-6.8 3.063-7.483-2.707s5.012-5.733 5.012-5.733z" fill="#535353"/><path data-name="パス 1250" d="M-7220.484 4001.068a4.97 4.97 0 01-2.463-.579 4.41 4.41 0 01-2.092-3.575 5.683 5.683 0 011.206-4.651 6.544 6.544 0 014.527-1.888.723.723 0 01.712.806c-.206 1.772-.236 6.612 2.064 7.7a.722.722 0 01-.013 1.31 10.807 10.807 0 01-3.941.877zm.388-9.17a4.619 4.619 0 00-2.667 1.334 4.324 4.324 0 00-.842 3.512 3.021 3.021 0 001.369 2.488 5.508 5.508 0 003.9.068c-1.803-1.969-1.847-5.694-1.76-7.402z" fill="#000333"/></g><g data-name="グループ 682"><path data-name="パス 1251" d="M-7269.691 3954.306s-11.887 14.91-20.55 12.88c0 0 7.978 5.414 17.118-2.978s3.432-9.902 3.432-9.902z" fill="#535353"/><path data-name="パス 1252" d="M-7283.839 3969.601a13.2 13.2 0 01-6.808-1.817.722.722 0 01.57-1.3 6.789 6.789 0 001.549.174c7.969 0 18.163-12.664 18.272-12.8a.725.725 0 01.749-.248 3.226 3.226 0 012.205 2.225c.536 2.17-1.258 5.166-5.333 8.906-4.126 3.788-8.067 4.859-11.204 4.86zm-2.752-1.706c3 .693 7.755.579 12.98-4.218 4.794-4.4 5.132-6.586 4.908-7.5a1.616 1.616 0 00-.775-.994c-1.778 2.142-9.705 11.236-17.113 12.712z" fill="#000333"/></g><g data-name="グループ 683"><path data-name="パス 1253" d="M-7288.076 4077.231s-.745 3.023 1.15 3.384 8.711 0 8.711 0l3.923-5.865-5.143-.993z" fill="#397c71"/><path data-name="パス 1254" d="M-7283.782 4081.497a21.264 21.264 0 01-3.275-.173 2.112 2.112 0 01-1.419-.947 4.852 4.852 0 01-.3-3.319.72.72 0 01.432-.5l8.64-3.474a.715.715 0 01.406-.039l5.143.993a.722.722 0 01.463 1.11l-3.923 5.866a.725.725 0 01-.562.32c-.184.012-3.078.163-5.605.163zm-3.654-3.743a3.069 3.069 0 00.177 1.845.665.665 0 00.473.307 60.326 60.326 0 008.177.007l3.117-4.66-3.867-.746z" fill="#000333"/></g><g data-name="グループ 684"><path data-name="パス 1255" d="M-7282.324 4080.76s-1.963 11.767 3.384 12.1l.927-8.6 2.931 3.993 2.536-11.808z" fill="#ffedd9"/><path data-name="パス 1256" d="M-7278.94 4093.587h-.046a3.729 3.729 0 01-2.781-1.47c-2.6-3.276-1.325-11.144-1.269-11.477a.721.721 0 01.421-.542l9.778-4.3a.722.722 0 011 .813l-2.54 11.806a.722.722 0 01-1.288.275l-1.83-2.494-.728 6.747a.722.722 0 01-.717.642zm-2.731-12.326c-.338 2.361-.692 7.785 1.035 9.959a2.365 2.365 0 001.062.788l.843-7.817a.722.722 0 011.3-.349l1.98 2.7 1.9-8.855z" fill="#000333"/></g><g data-name="グループ 685"><path data-name="パス 1257" d="M-7218.797 3989.386c-3.971 13.894-10.285 20.03-5.953 33.025s-23.409 23.823-23.409 23.823l-33.263-17.504c-.9-9.385-.361-11.709 1.261-17.225s2.527-15.083.722-22.663-3.066-22.2 7.4-33.386 28.515-12.273 42.232-4.332c7.739 4.481 11.517 11.666 12.619 19.573a37.3 37.3 0 01.346 4.538 48.719 48.719 0 01-1.955 14.151z" fill="#535353"/><path data-name="パス 1258" d="M-7248.159 4046.955a.72.72 0 01-.336-.083l-33.261-17.5a.721.721 0 01-.382-.569c-.907-9.4-.377-11.838 1.287-17.5 1.655-5.612 2.431-15.071.712-22.292-1.481-6.218-3.706-21.984 7.577-34.046 10.347-11.061 28.482-12.938 43.12-4.463 7.238 4.19 11.723 11.141 12.972 20.1a38.152 38.152 0 01.354 4.626 49.722 49.722 0 01-1.986 14.36 106.443 106.443 0 01-3.739 10.523c-3.031 7.6-5.22 13.086-2.224 22.074 1.884 5.653-1.7 11.742-10.36 17.611a78.281 78.281 0 01-13.472 7.113.723.723 0 01-.262.046zm-32.579-18.682l32.619 17.166c2.965-1.218 26.514-11.309 22.684-22.8-3.163-9.49-.773-15.481 2.252-23.066a105.038 105.038 0 003.692-10.385 48.243 48.243 0 001.931-13.938 36.807 36.807 0 00-.34-4.452c-1.185-8.5-5.426-15.088-12.266-19.048-14.063-8.142-31.45-6.375-41.343 4.2-10.805 11.551-8.653 26.734-7.227 32.725 1.861 7.814.925 17.418-.732 23.035-1.617 5.502-2.103 7.722-1.27 16.563z" fill="#000333"/></g><g data-name="グループ 686"><path data-name="パス 1259" d="M-7268.482 4012.768c3.485-2.91 7.309-5.99 9.678-5.787s5.448 2.944 5.584 5.482-5.922 4.331-8.46 4.8-9.2 3.756-9.238.711a7.6 7.6 0 012.436-5.206z" fill="#1e1e1e"/><path data-name="パス 1260" d="M-7269.283 4019.981a2.712 2.712 0 01-1.6-.42 1.85 1.85 0 01-.756-1.573 8.281 8.281 0 012.683-5.762l.013-.011c4.057-3.387 7.62-6.183 10.2-5.951 2.619.224 6.083 3.171 6.243 6.162.2 3.783-8.956 5.536-9.048 5.553a23.108 23.108 0 00-2.512.747 18.991 18.991 0 01-5.223 1.255zm1.273-6.667a6.91 6.91 0 00-2.187 4.657c0 .309.106.383.15.413.774.553 3.752-.437 5.531-1.029a23.343 23.343 0 012.7-.8c3.273-.611 7.96-2.407 7.872-4.057-.117-2.183-2.963-4.633-4.924-4.8-2.191-.173-6.371 3.302-9.142 5.613z" fill="#000333"/></g><g data-name="グループ 687"><path data-name="パス 1261" d="M-7229.133 4013.837a.721.721 0 01-.629-.368c-2.177-3.864.505-10.917.62-11.215a.722.722 0 011.347.52c-.026.066-2.553 6.716-.71 9.986a.722.722 0 01-.628 1.076z" fill="#000333"/></g><g data-name="グループ 688"><path data-name="パス 1262" d="M-7229.059 4017.359a16.218 16.218 0 013.307 1.3c.573.5 2.107 7.087 1.656 11.329s1.141 49 1.141 49 .638 6.892-4.708 7.615-39.16-2.674-39.16-2.674-11.234-7.671-11.776-15.566 1.539-33.23 1.539-33.23l5.5-14.985 9.2-2.792z" fill="#397c71"/><path data-name="パス 1263" d="M-7229.961 4086.948c-9.131 0-35.642-2.652-36.887-2.777a.24.24 0 01-.112-.04c-.463-.316-11.337-7.827-11.881-15.749-.536-7.823 1.518-33.012 1.539-33.266a.259.259 0 01.014-.063l5.5-14.985a.24.24 0 01.156-.147l9.2-2.792a.226.226 0 01.07-.011h33.3a.232.232 0 01.068.01 15.323 15.323 0 013.4 1.354c.66.577 2.195 7.239 1.737 11.536-.444 4.176 1.126 48.518 1.142 48.965a11.093 11.093 0 01-.359 3.61 5.346 5.346 0 01-4.558 4.252 19.064 19.064 0 01-2.329.103zm-36.777-3.25c1.638.164 33.891 3.366 39.041 2.669 5.06-.684 4.507-7.288 4.5-7.354-.066-1.842-1.588-44.837-1.14-49.046.458-4.3-1.15-10.733-1.575-11.123a14.95 14.95 0 00-3.183-1.245h-33.227l-9.056 2.747-5.448 14.842c-.085 1.042-2.061 25.5-1.536 33.161.51 7.425 10.813 14.782 11.623 15.347z" fill="#000333"/></g><g data-name="グループ 690"><path data-name="パス 1265" d="M-7214.395 4079.442c.542 1.985.09 3.654-.631 4.2a15.776 15.776 0 01-9.094 1.58c-4.061-.632-3.52-3.612-3.52-3.612l5.414-6.765z" fill="#397c71"/><path data-name="パス 1266" d="M-7222.238 4086.078a13.015 13.015 0 01-1.994-.148 5 5 0 01-3.485-1.861 3.665 3.665 0 01-.633-2.594.725.725 0 01.146-.322l5.414-6.766a.722.722 0 01.929-.171l7.83 4.6a.724.724 0 01.331.433c.563 2.065.187 4.152-.895 4.963a16.3 16.3 0 01-7.643 1.866zm-4.7-4.19a2.218 2.218 0 00.415 1.363 3.67 3.67 0 002.518 1.252 15.239 15.239 0 008.549-1.444c.358-.269.823-1.45.438-3.149l-7.03-4.132z" fill="#000333"/></g><g data-name="グループ 691"><path data-name="パス 1267" d="M-7217.207 4083.984s-2.105 13.822-5.759 13.957c-.969.036 1.522-8.232.985-10.183-.31-1.126-1.968 4.191-2.388 3.254-1.6-3.563-2.387-12.021-2.387-12.021z" fill="#ffedd9"/><path data-name="パス 1268" d="M-7222.976 4098.663a.869.869 0 01-.66-.3c-.481-.559-.319-1.68.307-5 .18-.959.395-2.093.538-3.092-.512 1.052-.858 1.582-1.454 1.582h-.01a.857.857 0 01-.777-.538c-1.627-3.63-2.414-11.9-2.447-12.25a.722.722 0 011.054-.707l9.549 4.993a.721.721 0 01.379.748c-.366 2.407-2.4 14.42-6.446 14.57zm.852-11.785h.083a.858.858 0 01.752.685c.287 1.044-.059 3.076-.621 6.057-.215 1.14-.491 2.606-.555 3.414 1.848-1.179 3.669-7.8 4.461-12.654l-7.893-4.127a55.7 55.7 0 001.785 9.42c.119-.242.237-.492.331-.69.653-1.382.995-2.105 1.653-2.105z" fill="#000333"/></g><g data-name="グループ 693"><path data-name="パス 1270" d="M-7224.752 4022.412c4.557 6.632 4.287 12.859 4.693 20.033s0 15.521 9.836 30.14c0 0 .136 1.985-2.368 4.151s-1.963 3.249-3.407 3.249-8.753-.361-8.753-.361l-11.574-7.4v-25.989l1.35-9.769" fill="#397c71"/><path data-name="パス 1271" d="M-7215.999 4080.706c-1.445 0-8.49-.347-8.789-.362a.712.712 0 01-.353-.113l-11.574-7.4a.722.722 0 01-.333-.608v-25.989a.745.745 0 01.007-.1l1.35-9.769a.722.722 0 111.43.2l-1.344 9.72v25.543l11.079 7.083c1.162.057 7.246.35 8.526.35.376 0 .391-.011.781-.606a10.7 10.7 0 012.153-2.467 5.371 5.371 0 002.113-3.394c-9.035-13.5-9.426-21.85-9.741-28.565-.028-.59-.055-1.171-.088-1.744-.047-.837-.086-1.661-.123-2.474-.285-6.171-.533-11.5-4.443-17.191a.722.722 0 111.19-.818c4.144 6.031 4.412 11.816 4.7 17.942.038.809.076 1.627.123 2.459.033.578.06 1.163.088 1.758.325 6.909.691 14.74 9.626 28.019a.723.723 0 01.121.354c.006.1.129 2.372-2.616 4.746a9.271 9.271 0 00-1.89 2.166 2.123 2.123 0 01-1.993 1.26z" fill="#000333"/></g><g data-name="グループ 694"><path data-name="パス 1272" d="M-7265.483 4033.867l-1.545 9.254v23.552s-10.422 8.663-11.708 9.678-7.918 1.15-9.34.88-4.129-5.008-4.129-5.008c3.113-2.843 5.685-11.37 6.227-22.2s4.369-23.409 9.094-27.267l6.57-1.429 3.9 4.738" fill="#397c71"/><path data-name="パス 1273" d="M-7285.737 4078.069a16.932 16.932 0 01-2.475-.129c-1.622-.308-3.946-4.18-4.62-5.359a.722.722 0 01.14-.891c3.075-2.808 5.484-11.529 5.992-21.7.516-10.325 4.158-23.543 9.358-27.789a.722.722 0 01.3-.146l6.57-1.429a.721.721 0 01.711.247l3.9 4.738a.722.722 0 01-1.115.917l-3.617-4.4-5.966 1.3c-4.256 3.649-8.144 15.519-8.7 26.635-.513 10.247-2.864 18.857-6.043 22.28 1.3 2.178 2.816 4.078 3.359 4.182 2.552.487 8.17-.274 8.757-.737 1.151-.909 9.813-8.1 11.434-9.45v-23.217a.771.771 0 01.01-.119l1.545-9.254a.722.722 0 011.424.238l-1.535 9.2v23.492a.721.721 0 01-.26.555c-.426.354-10.445 8.68-11.723 9.69-1.112.873-4.836 1.146-7.446 1.146z" fill="#000333"/></g><g data-name="グループ 695"><path data-name="パス 1274" d="M-7274.293 4083.593c-1.6 1.286-3.091 5.754.5 7.107s3.587.406 10.49 1.557 18.815.947 24.5.609 14.687-.27 15.533-3.045-.089-4.568-1.659-4.517-22.2-1.71-22.2-1.71l-24.432-.473z" fill="#397c71"/><path data-name="パス 1275" d="M-7248.598 4093.373a99.349 99.349 0 01-14.748-.879 48.911 48.911 0 00-6.054-.677 12.2 12.2 0 01-4.481-.892 3.389 3.389 0 01-2.315-2.731 5.7 5.7 0 011.753-4.789.238.238 0 01.11-.049l2.73-.473 24.477.469c.222.018 20.658 1.772 22.186 1.711a1.948 1.948 0 011.639.773 4.59 4.59 0 01.257 4.054c-.771 2.528-7.3 2.823-13.056 3.083-.945.042-1.855.083-2.693.133-2.575.153-6.091.267-9.805.267zm-25.591-9.554a5.276 5.276 0 00-1.532 4.3 2.908 2.908 0 002.01 2.356 11.692 11.692 0 004.337.862 49.3 49.3 0 016.107.682c6.687 1.115 18.283.973 24.446.606.84-.05 1.752-.091 2.7-.134 5.041-.228 11.945-.539 12.617-2.742a4.143 4.143 0 00-.179-3.622 1.41 1.41 0 00-1.241-.584c-1.554.048-21.384-1.64-22.227-1.712l-24.416-.472z" fill="#000333"/></g><g data-name="グループ 696"><path data-name="パス 1276" d="M-7268.801 4058.894c0 5.023.438 9.54-1.948 9.54s-6.694-4.517-6.694-9.54c0-2.013-.2-5.355.329-6.861.787-2.252 2.563-2.233 3.993-2.233 2.381 0 4.32 4.07 4.32 9.094z" fill="#236c60"/></g><g data-name="グループ 697"><path data-name="パス 1277" d="M-7225.08 4062.612c0 5.022-1.935 9.094-4.321 9.094s-4.321-4.072-4.321-9.094 1.935-9.094 4.321-9.094c1.638 0 3.588-.229 4.321 2.6.335 1.29 0 4.918 0 6.494z" fill="#236c60"/></g><g data-name="グループ 698"><path data-name="パス 1278" d="M-7269.691 4017.81s8.885-4.32 14.256-4.28 17.643 1.529 19 2.566-9.94 16.848-14.276 15.846-17.939-9.8-17.939-9.8z" fill="#ffedd9"/><path data-name="パス 1279" d="M-7250.337 4032.705a2.4 2.4 0 01-.541-.059c-4.408-1.019-17.609-9.536-18.169-9.9a.725.725 0 01-.31-.438l-1.038-4.331a.722.722 0 01.387-.817c.367-.179 9.017-4.354 14.5-4.354h.078c4.911.036 17.779 1.449 19.431 2.715.712.546.333 1.627-.131 2.612-1.827 3.865-9.808 14.572-14.207 14.572zm-17.683-11.013c1.842 1.179 13.614 8.657 17.468 9.547.363.086 1.458.068 3.786-1.892 4.6-3.872 9.388-11.2 9.7-12.782-1.872-.856-12.953-2.272-18.376-2.312h-.069c-4.413 0-11.388 3.063-13.342 3.963z" fill="#000333"/></g><g data-name="グループ 699"><path data-name="パス 1280" d="M-7231.012 4032.071c4.331 2.3 6.724 10.227 3.692 19.973-.51 1.641-1.454 1.207-2.573 5.617-.577 2.274.673 5.945 1.624 9.867.894 3.687 4.069 9.661 4.1 9.738a7.811 7.811 0 01-.766 8.036c-1.622 2.387-14.077 2.354-24.41 2.488s-22.018-2.488-22.018-2.488-4.466-1.03-5.51-6.694 1.535-5.891 3.4-11.661c1.233-3.8 1.853-7.362.576-11.772-.662-2.286.045.49-1.4-3.142-2.014-5.066-2.943-18.692 3.375-20.687" fill="#397c71"/><path data-name="パス 1281" d="M-7250.111 4088.517a115.036 115.036 0 01-21.409-2.511c-.205-.048-4.945-1.207-6.062-7.269a9.2 9.2 0 011.364-7.509 22.229 22.229 0 002.06-4.504c1.222-3.771 1.787-7.144.569-11.349a26.762 26.762 0 00-.223-.743 7.276 7.276 0 01-1.153-2.333c-1.633-4.108-2.448-12.919-.066-17.935a6.547 6.547 0 013.894-3.707.722.722 0 01.435 1.377 5.169 5.169 0 00-3.025 2.95c-2.182 4.6-1.4 13.009.1 16.782a16.23 16.23 0 00.769 1.757c.282.17.374.488.653 1.451a19.582 19.582 0 01-.583 12.195 23.745 23.745 0 01-2.17 4.769 7.769 7.769 0 00-1.2 6.534c.948 5.14 4.923 6.114 4.963 6.123.112.025 11.738 2.6 21.846 2.47l2.218-.027c8.571-.1 20.31-.238 21.605-2.145a7.063 7.063 0 00.7-7.344l-.039-.073a54.558 54.558 0 01-4.1-9.782c-.189-.78-.39-1.549-.586-2.3-.829-3.174-1.544-5.916-1.037-7.915a10.922 10.922 0 011.979-4.572 3.122 3.122 0 00.6-1.082c3.008-9.67.523-17.069-3.341-19.121a.722.722 0 01.677-1.276c2.407 1.278 4.173 4.005 4.974 7.678a26.075 26.075 0 01-.931 13.147 4.534 4.534 0 01-.833 1.524 9.585 9.585 0 00-1.73 4.057c-.416 1.639.288 4.338 1.034 7.2.2.758.4 1.536.592 2.324a53.268 53.268 0 003.981 9.458c.052.1.079.158.083.166a8.491 8.491 0 01-.834 8.726c-1.6 2.353-10.058 2.627-22.781 2.776l-2.215.027c-.259.004-.519.006-.778.006z" fill="#000333"/></g><g data-name="グループ 700"><path data-name="パス 1282" d="M-7249.929 4032.067s13.219-13.806 12.814-15.07-2.527-2.707-7.49-2.617l-1.783-1.624a29.14 29.14 0 013.283-1.252c2.693-.932 9.193-2.718 10.93-1.906a6.2 6.2 0 013.271 4.421c.271 1.715 1.263 1.624 1.8 2.707s1.083 2.952 0 4-4.873 2.224-6.858 3.758-10.462 7.763-15.967 7.583z" fill="#397c71"/><path data-name="パス 1283" d="M-7249.697 4032.796h-.255a.722.722 0 01-.5-1.22c5.852-6.113 12.057-13.084 12.6-14.475-.391-.833-2.187-2.08-6.74-1.991a.721.721 0 01-.5-.189l-1.782-1.624a.722.722 0 01.141-1.168 28.861 28.861 0 013.392-1.3c.089-.03 8.966-3.047 11.472-1.877a6.945 6.945 0 013.678 4.962 1.868 1.868 0 00.792 1.363 3.543 3.543 0 01.946 1.134c.371.743 1.459 3.289-.143 4.843a12.9 12.9 0 01-3.178 1.783 21.251 21.251 0 00-3.741 2.028c-1.69 1.299-10.31 7.731-16.182 7.731zm5.542-19.139c6.233 0 7.489 2.378 7.728 3.122.178.556.38 1.185-6.406 8.712-1.983 2.2-4 4.359-5.269 5.7 5.467-1.012 12.8-6.577 13.7-7.275a22.123 22.123 0 014.018-2.2 13.284 13.284 0 002.779-1.509c.715-.693.37-2.136-.143-3.161a2.164 2.164 0 00-.6-.689 3.271 3.271 0 01-1.271-2.228 5.5 5.5 0 00-2.864-3.88c-1.263-.591-6.9.728-10.388 1.934a59.234 59.234 0 00-2.2.8l.737.673zm6.333 3.349z" fill="#000333"/></g><g data-name="グループ 701"><path data-name="パス 1284" d="M-7267.688 4006.304c-6.695 2.031-6.785 4.286-7.687 5.73s-2.978 5.234-2.707 7.31 1.083 3.88 2.346 4.331 2.617 0 5.414 1.263 19.977 7.129 19.977 7.129-19.345-13.355-19.345-14.258.361-2.166 1.173-2.436a4.32 4.32 0 002.978-2.256 7.9 7.9 0 013.924-3.425c.858-.185-2.611-3.388-2.611-3.388z" fill="#397c71"/><path data-name="パス 1285" d="M-7250.346 4032.79a.73.73 0 01-.233-.038c-.7-.24-17.243-5.892-20.04-7.155a10.205 10.205 0 00-3.7-.941 6.647 6.647 0 01-1.664-.3c-1.43-.511-2.484-2.349-2.819-4.918-.345-2.645 2.487-7.267 2.811-7.786.119-.191.232-.416.35-.655.748-1.508 1.773-3.573 7.74-5.383a.718.718 0 01.209-.031h3.462a.723.723 0 01.49.191c3.226 2.98 3.038 3.669 2.948 4a.87.87 0 01-.675.624 7.432 7.432 0 00-3.408 2.994 4.88 4.88 0 01-3.311 2.637l-.1.033c-.326.109-.626.822-.673 1.557 1.275 1.406 12.224 9.162 19.027 13.858a.722.722 0 01-.41 1.316zm-17.234-25.761c-5.28 1.619-6.1 3.278-6.764 4.612-.135.271-.262.527-.419.779-1 1.6-2.831 5.087-2.6 6.833.256 1.96.991 3.43 1.874 3.745a5.39 5.39 0 001.313.222 11.756 11.756 0 014.155 1.063c1.793.81 9.718 3.585 15.014 5.418a739.376 739.376 0 01-5.426-3.834c-9.975-7.119-9.975-7.532-9.975-8.054 0-1.236.521-2.74 1.667-3.122l.1-.034a3.538 3.538 0 002.435-1.812 8.659 8.659 0 013.778-3.607 21.876 21.876 0 00-2.082-2.209zm-1.466 10.487" fill="#000333"/></g><g data-name="グループ 702"><path data-name="パス 1286" d="M-7244.876 4016.64s-1.633.948-5.367.948-4.8-.948-4.8-.948v-5.312h10.172z" fill="#ffbdad"/></g><g data-name="グループ 703"><path data-name="パス 1287" d="M-7226.648 3987.851s2.51 10.588-2.46 16.222c-4.894 5.548-12.519 7.6-20.46 7.42-7.941.18-15.566-1.872-20.46-7.42-4.971-5.634-2.461-16.222-2.461-16.222s15.838-25.718 21.771-26.44 22.536-.722 24.07 26.44" fill="#ffedd9"/><path data-name="パス 1288" d="M-7250.546 4012.221c-6.249 0-14.49-1.406-20.021-7.675-5.158-5.847-2.727-16.419-2.621-16.866a.7.7 0 01.088-.212c1.64-2.663 16.2-26.036 22.3-26.778 4.353-.528 10.646-.237 15.9 4.159 5.339 4.467 8.358 12.169 8.974 22.9.226.99 2.373 11.124-2.636 16.8-5.82 6.6-14.646 7.8-21.018 7.665q-.477.007-.966.007zm.964-1.454c6.105.139 14.482-1 19.935-7.176 4.67-5.292 2.324-15.476 2.3-15.579a.728.728 0 01-.018-.125c-.584-10.344-3.431-17.723-8.462-21.932-4.859-4.064-10.731-4.327-14.8-3.832-1.267.154-4.59 2.072-12.607 13.19-4.312 5.979-8.044 11.957-8.572 12.809-.24 1.119-2.077 10.481 2.324 15.469 5.449 6.186 13.83 7.318 19.898 7.181z" fill="#000333"/></g><g data-name="グループ 704"><path data-name="パス 1289" d="M-7249.568 4006.853a4.011 4.011 0 01-3.291-1.388.63.63 0 011.028-.73 3.412 3.412 0 004.531-.007.634.634 0 01.878-.132.626.626 0 01.144.869 4.01 4.01 0 01-3.29 1.388z" fill="#000333"/></g><g data-name="グループ 705"><path data-name="パス 1290" d="M-7254.197 4021.467a.477.477 0 01-.227-.057l-3.829-2.055a.481.481 0 01.455-.848l3.828 2.055a.481.481 0 01-.228.9z" fill="#000333"/></g><g data-name="グループ 706"><path data-name="パス 1291" d="M-7246.386 4021.467a.481.481 0 01-.229-.9l3.829-2.055a.481.481 0 01.455.848l-3.829 2.055a.476.476 0 01-.226.052z" fill="#000333"/></g><g data-name="グループ 707"><path data-name="パス 1292" d="M-7248.178 4041.719a6.346 6.346 0 01-2-.371c-1.563-.528-3.332-1.641-3.177-3.044a29.737 29.737 0 01.862-3.816c.8-2.8 1.123-3.01 1.339-3.147a.777.777 0 01.5-.122l2.158.045a.722.722 0 01.657.458c.662 1.684 2.738 7.315 1.69 9.063a2.213 2.213 0 01-2.029.934zm-2.191-9.048a31.566 31.566 0 00-1.549 5.793c-.025.222.7 1.007 2.2 1.516 1.283.433 2.175.314 2.326.063.435-.726-.468-4.286-1.623-7.345zm-.575-.045zm0 0zm0 0z" fill="#000333"/></g><g data-name="グループ 708"><path data-name="パス 1293" d="M-7249.929 4033.883c.679-.138 1.274.609 1.309 1.878s.169 2.335-1.117 2.014a1.447 1.447 0 01-.981-1.923c.067-.429.123-1.833.789-1.969z" fill="#000333"/></g><g data-name="グループ 709"><path data-name="パス 1294" d="M-7252.28 4088.481a.722.722 0 01-.72-.686c-.143-2.889.14-15.2.327-23.354.059-2.57.108-4.7.13-5.946.09-5.093.622-18.284.628-18.417a.722.722 0 111.442.058c0 .133-.537 13.308-.626 18.385-.022 1.245-.071 3.379-.13 5.954-.187 8.128-.469 20.412-.329 23.249a.722.722 0 01-.685.757z" fill="#000333"/></g><g data-name="グループ 710"><path data-name="パス 1295" d="M-7248.6 4088.48a.722.722 0 01-.722-.716c-.022-2.471.028-8.039.086-14.485.113-12.716.268-30.132-.076-32.192a.722.722 0 111.424-.238c.365 2.185.215 18.962.1 32.443-.058 6.44-.107 12-.086 14.459a.722.722 0 01-.715.729z" fill="#000333"/></g><g data-name="グループ 711"><path data-name="パス 1296" d="M-7225.112 3965.109c7.219 18.952 1.622 29.329 1.622 29.329 0-1.444-4.149-7.58-6.406-11.454s-4.423-14.987-4.423-14.987c-4.6 13.177-18.433 18.231-18.433 18.231 3.682-7.311 1.593-16.334 1.593-16.334s-12.451 3.893-21.854 26.354c0 0-5.385-14.173 2.06-26.354.125-.2.25-.4.38-.6a28.044 28.044 0 016.608-7.181 26.761 26.761 0 0112.807-5.342" fill="#535353"/><path data-name="パス 1297" d="M-7273.013 3996.97h-.007a.723.723 0 01-.663-.465c-.225-.592-5.424-14.646 2.119-26.987.12-.194.238-.385.36-.572a.778.778 0 01.028-.049 28.85 28.85 0 016.777-7.364 27.261 27.261 0 0113.189-5.487.714.714 0 01.775.663.722.722 0 01-.663.776 26.321 26.321 0 00-12.426 5.2 27.412 27.412 0 00-6.407 6.949l-.035.059c-.126.191-.247.387-.369.584-5.628 9.207-3.681 19.731-2.561 23.891 9.313-20.927 21.019-24.8 21.526-24.959a.721.721 0 01.919.526c.081.35 1.809 8.044-.889 15.094 3.752-1.8 12.849-7.056 16.344-17.065a.714.714 0 01.734-.482.723.723 0 01.657.582c.021.11 2.168 11.037 4.338 14.762a164.853 164.853 0 002.226 3.661c1.633 2.639 2.872 4.675 3.586 6.121 1.181-3.619 3.043-12.94-2.326-27.036a.722.722 0 111.349-.514c7.254 19.042 1.818 29.493 1.583 29.928a.722.722 0 01-1.357-.343c0-.829-2.444-4.781-4.062-7.4-.824-1.331-1.6-2.589-2.246-3.695-1.666-2.859-3.244-9.355-4.017-12.868-5.3 11.681-17.423 16.228-17.967 16.427a.722.722 0 01-.893-1c2.886-5.73 2.087-12.646 1.693-15.009-2.808 1.278-12.827 6.962-20.644 25.633a.722.722 0 01-.671.439zm50.245-2.531z" fill="#000333"/></g><g data-name="グループ 713"><path data-name="パス 1299" d="M-7255.435 4016.592a.722.722 0 01-.722-.722v-4.681a.722.722 0 111.444 0v4.681a.722.722 0 01-.722.722z" fill="#000333"/></g><g data-name="グループ 714"><path data-name="パス 1300" d="M-7244.875 4017.178a.722.722 0 01-.722-.722v-5.132a.722.722 0 011.444 0v5.132a.722.722 0 01-.722.722z" fill="#000333"/></g><g data-name="グループ 715"><path data-name="パス 1301" d="M-7249.436 3997.423c-1.539.506-2.612.28-1.926-.768s1.174-.988 2.166-.942 2.258 1.215 1.574 1.757-1.24-.234-1.814-.047z" fill="#ffbdad"/></g><g data-name="グループ 716"><ellipse data-name="楕円形 37" cx=".426" cy=".47" rx=".426" ry=".47" transform="translate(-7249.994 3997.138)" fill="#000333"/></g><g data-name="グループ 717"><path data-name="パス 1302" d="M-7227.663 4075.306a1.628 1.628 0 01-.688.885c-1.713.9-4.2-.582-6.632.14a17.8 17.8 0 01-8.571 0c-2.575-.679-1.04-3.34 4.827-4.692s5.318-4.707 7.984-4.018a3.636 3.636 0 011.617.91 22.252 22.252 0 001.261 6.309c.067.153.135.307.202.466z" fill="#236c60"/></g><g data-name="グループ 718"><path data-name="パス 1303" d="M-7236.774 4057.604c-3.2.581-7.58-3.452-7.038-5.888s11.979-2.233 12.724.406-4.197 5.212-5.686 5.482z" fill="#236c60"/></g><g data-name="グループ 719"><path data-name="パス 1304" d="M-7264.554 4057.604c3.2.581 7.58-3.452 7.039-5.888s-11.979-2.233-12.724.406 4.196 5.212 5.685 5.482z" fill="#236c60"/></g><g data-name="グループ 728"><g data-name="グループ 726"><g data-name="グループ 720"><path data-name="パス 1305" d="M-7226.593 3980.94a8.64 8.64 0 00-6.371-2.465c-4.006.145-6.878 3.574-6.878 3.574a14.5 14.5 0 016.948-2.328 10.955 10.955 0 016.301 1.219z" fill="#000333"/></g><g data-name="グループ 724"><g data-name="グループ 721"><path data-name="パス 1306" d="M-7228.931 3992.822a.645.645 0 01-.334-1.2 4.759 4.759 0 001.8-2.938 3.61 3.61 0 00-.533-3 4.787 4.787 0 00-3.642-1.69c-3.778-.3-6.206.2-10.607 3.956a.644.644 0 11-.836-.98c4.72-4.027 7.486-4.58 11.545-4.26a5.916 5.916 0 014.581 2.214 4.944 4.944 0 01.748 4.052 6.013 6.013 0 01-2.388 3.748.643.643 0 01-.334.098z" fill="#000333"/></g><g data-name="グループ 722"><path data-name="パス 1307" d="M-7233.119 3983.251a6.551 6.551 0 002.194-2.031.146.146 0 01.253-.034 2.232 2.232 0 01.4 2.381z" fill="#000333"/></g><g data-name="グループ 723"><path data-name="パス 1308" d="M-7228.465 3984.355a5.048 5.048 0 001.825-1.15.227.227 0 01.4.054c.338.959.9 3.213-.46 4.972z" fill="#000333"/></g></g><g data-name="グループ 725" transform="translate(-7242.765 3983.789)" fill="#000333"><ellipse data-name="楕円形 38" cx="4.893" cy="6.585" rx="4.893" ry="6.585" transform="translate(.722 .722)"/><path data-name="パス 1309" d="M5.615 14.614C2.515 14.614 0 11.336 0 7.307S2.519 0 5.615 0s5.615 3.278 5.615 7.307-2.52 7.307-5.615 7.307zm0-13.171c-2.3 0-4.172 2.63-4.172 5.863s1.872 5.863 4.172 5.863 4.172-2.63 4.172-5.863-1.871-5.862-4.172-5.862z"/></g></g><g data-name="グループ 727"><ellipse data-name="楕円形 39" cx="1.504" cy="2.575" rx="1.504" ry="2.575" fill="#fff" transform="translate(-7238.653 3988.522)"/></g></g><g data-name="グループ 736"><g data-name="グループ 729"><path data-name="パス 1310" d="M-7272.369 3980.94a8.642 8.642 0 016.372-2.465c4.005.145 6.878 3.574 6.878 3.574a14.5 14.5 0 00-6.948-2.328 10.956 10.956 0 00-6.302 1.219z" fill="#000333"/></g><g data-name="グループ 733"><g data-name="グループ 730"><path data-name="パス 1311" d="M-7270.033 3992.822a.631.631 0 01-.331-.093 6.011 6.011 0 01-2.388-3.747 4.942 4.942 0 01.748-4.053 5.914 5.914 0 014.581-2.214c4.062-.319 6.825.234 11.545 4.26a.644.644 0 11-.836.98c-4.4-3.754-6.83-4.256-10.607-3.956a4.786 4.786 0 00-3.643 1.69 3.611 3.611 0 00-.533 3 4.761 4.761 0 001.8 2.94.645.645 0 01-.34 1.193z" fill="#000333"/></g><g data-name="グループ 731"><path data-name="パス 1312" d="M-7265.843 3983.251a6.552 6.552 0 01-2.194-2.031.147.147 0 00-.254-.034 2.233 2.233 0 00-.4 2.381z" fill="#000333"/></g><g data-name="グループ 732"><path data-name="パス 1313" d="M-7270.493 3984.355a5.048 5.048 0 01-1.824-1.15.227.227 0 00-.4.054c-.339.959-.9 3.213.461 4.972z" fill="#000333"/></g></g><g data-name="グループ 734" transform="translate(-7267.427 3983.789)" fill="#000333"><ellipse data-name="楕円形 40" cx="4.893" cy="6.585" rx="4.893" ry="6.585" transform="translate(.722 .722)"/><path data-name="パス 1314" d="M5.616 14.614c-3.1 0-5.615-3.278-5.615-7.307S2.52 0 5.616 0s5.615 3.278 5.615 7.307-2.519 7.307-5.615 7.307zm0-13.171c-2.3 0-4.172 2.63-4.172 5.863s1.872 5.863 4.172 5.863 4.172-2.63 4.172-5.863-1.872-5.862-4.172-5.862z"/></g><g data-name="グループ 735"><ellipse data-name="楕円形 41" cx="1.504" cy="2.575" rx="1.504" ry="2.575" fill="#fff" transform="translate(-7263.315 3988.522)"/></g></g><g data-name="グループ 737"><path data-name="パス 1315" d="M-7261.997 3968.012c-.76 2.859-3.33 4.659-5.732 4.014a4.257 4.257 0 01-2.844-2.734 28.042 28.042 0 016.608-7.181 5.257 5.257 0 011.968 5.901z" fill="#868686"/></g><g data-name="グループ 738"><ellipse data-name="楕円形 42" cx="2.231" cy="1.877" rx="2.231" ry="1.877" transform="rotate(-75.057 -1046.913 6713.754)" fill="#868686"/></g><g data-name="グループ 739"><path data-name="パス 1316" d="M-7216.838 3975.235a1.834 1.834 0 01-.866.217 2.44 2.44 0 010-4.832 1.7 1.7 0 01.52.077 37.311 37.311 0 01.346 4.538z" fill="#868686"/></g><g data-name="グループ 740"><ellipse data-name="楕円形 43" cx="1.286" cy="1.053" rx="1.286" ry="1.053" transform="rotate(-24.108 5690.306 18899.976)" fill="#868686"/></g><g data-name="グループ 741"><path data-name="パス 1317" d="M-7273.708 4010.113a.722.722 0 01-.615-1.1c2.291-3.735.88-10.72.865-10.791a.722.722 0 011.414-.294c.064.309 1.543 7.614-1.049 11.839a.721.721 0 01-.615.346z" fill="#000333"/></g><g data-name="グループ 742"><path data-name="パス 1318" d="M-7252.749 3986.948a.722.722 0 01-.445-1.291c10.252-7.993 9.813-17.654 9.808-17.751a.722.722 0 011.441-.088c.027.424.52 10.494-10.361 18.977a.719.719 0 01-.443.153z" fill="#000333"/></g><g data-name="グループ 745"><ellipse data-name="楕円形 44" cx="3.263" cy="1.558" rx="3.263" ry="1.558" transform="translate(-7269.119 4001.205)" fill="#ffbdad"/></g><g data-name="グループ 746"><ellipse data-name="楕円形 45" cx="3.263" cy="1.558" rx="3.263" ry="1.558" transform="translate(-7236.099 4001.205)" fill="#ffbdad"/></g></g></g></svg>