<svg xmlns="http://www.w3.org/2000/svg" viewBox="0 0 209.2 219.01"><defs><style>.cls-3{fill:#2e2e2e}.cls-4{fill:#ebb1bd}.cls-5{fill:#e9993c}</style></defs><g id="レイヤー_2" data-name="レイヤー 2"><g id="_動物_表情パターン" data-name="【動物】表情パターン"><g id="体調良い時"><path d="M205.7 76s-31-18.58-59.86 6.19c-20.63-16.51-41.27-16.51-41.27-16.51h-6.2s-20.63 0-41.27 16.51c-18.58-33-51.6-33-51.6-33s0 45.4 28.89 51.59c-43.34 51.6-43.34 90 14.45 102.37 4.13 12.38 8.26 12.38 8.26 12.38a14.66 14.66 0 0012.38-8.25h64a14.66 14.66 0 0012.38 8.25s4.13 0 8.26-12.38c57.79-12.38 57.79-50.77 14.45-102.37C201.57 96.63 205.7 76 205.7 76z" stroke-width="7" fill="#fff" stroke="#2e2e2e" stroke-linejoin="round"/><path d="M139.58 129.73s-1.1-20.85-37.15-20.64h-4.12c-34.47-.21-37.15 20.64-37.15 20.64-1.59 21.8 79.45 21.8 78.42 0z" stroke-linecap="round" stroke-width="5" fill="#fff" stroke="#2e2e2e" stroke-linejoin="round"/><rect class="cls-3" x="80.21" y="125.18" width="9.91" height="4.95" rx="2.48" transform="rotate(-80 85.171 127.66)"/><rect class="cls-3" x="113.1" y="122.71" width="4.95" height="9.91" rx="2.48" transform="rotate(-10 115.583 127.649)"/><circle class="cls-4" cx="47" cy="163.06" r="14.13"/><circle class="cls-4" cx="153.72" cy="163.06" r="14.13"/><path class="cls-5" d="M141.75 68.56l29.39-61.97 15.19 16.7-44.58 45.27zM136.02 65.46l2.17-63.07L114.22 0l21.8 65.46z"/></g></g></g></svg>