<svg xmlns="http://www.w3.org/2000/svg" width="107" height="86"><defs><clipPath id="a"><path data-name="長方形 218" transform="translate(-7305 3943)" fill="#fff" stroke="#707070" d="M0 0h107v86H0z"/></clipPath></defs><g data-name="グループ 1849" transform="translate(7305 -3943)" clip-path="url(#a)"><g data-name="グループ 335"><g data-name="パス 1098"><path data-name="パス 2463" d="M-7217.511 3991.332s-.849 7.25 2.6 8.89c0 0-7.166 3.227-7.882-2.852s5.282-6.038 5.282-6.038z" fill="#535353"/></g><g data-name="パス 1099"><path data-name="パス 2464" d="M-7218.749 4001.835a5.231 5.231 0 01-2.594-.609 4.646 4.646 0 01-2.2-3.767 5.987 5.987 0 011.266-4.9 6.893 6.893 0 014.769-1.99.761.761 0 01.755.768.707.707 0 010 .08c-.217 1.867-.249 6.965 2.171 8.115a.76.76 0 01-.014 1.38 11.374 11.374 0 01-4.153.923zm.409-9.659a4.868 4.868 0 00-2.809 1.406 4.554 4.554 0 00-.888 3.7 3.183 3.183 0 001.443 2.623 5.808 5.808 0 004.106.072c-1.9-2.077-1.943-6-1.851-7.8z" fill="#000333"/></g></g><g data-name="グループ 336"><g data-name="パス 1100"><path data-name="パス 2465" d="M-7270.582 3952.582s-12.521 15.706-21.646 13.568c0 0 8.4 5.7 18.031-3.137s3.615-10.431 3.615-10.431z" fill="#535353"/></g><g data-name="パス 1101"><path data-name="パス 2466" d="M-7285.484 3968.687a13.908 13.908 0 01-7.171-1.914.76.76 0 01.6-1.369 7.158 7.158 0 001.628.181c8.394 0 19.132-13.34 19.247-13.484a.763.763 0 01.789-.261 3.4 3.4 0 012.323 2.344c.564 2.286-1.326 5.441-5.617 9.382-4.344 3.995-8.495 5.121-11.799 5.121zm-2.9-1.8c3.156.73 8.169.609 13.673-4.443 5.05-4.636 5.407-6.938 5.169-7.9a1.7 1.7 0 00-.814-1.046c-1.866 2.261-10.225 11.84-18.028 13.394z" fill="#000333"/></g></g><g data-name="グループ 340"><g data-name="パス 1107"><path data-name="パス 2467" d="M-7216.975 3989.53c-4.182 14.636-10.833 21.1-6.271 34.787s-24.658 25.094-24.658 25.094l-35.036-18.437c-.953-9.886-.38-12.334 1.328-18.144s2.662-15.888.76-23.872-3.229-23.381 7.8-35.167 30.037-12.927 44.485-4.562c8.152 4.72 12.132 12.289 13.3 20.618a39.319 39.319 0 01.362 4.78 51.317 51.317 0 01-2.07 14.903z" fill="#535353"/></g><g data-name="パス 1108"><path data-name="パス 2468" d="M-7247.902 4050.171a.76.76 0 01-.355-.091l-35.035-18.437a.76.76 0 01-.4-.6c-.955-9.9-.4-12.469 1.356-18.431 1.743-5.912 2.561-15.875.75-23.482-1.561-6.55-3.9-23.156 7.981-35.862 10.9-11.652 30-13.628 45.421-4.7 7.624 4.414 12.348 11.735 13.663 21.171a40.138 40.138 0 01.373 4.873 52.355 52.355 0 01-2.092 15.125 112.013 112.013 0 01-3.939 11.085c-3.192 8-5.5 13.784-2.342 23.253 1.985 5.954-1.788 12.368-10.913 18.55a82.486 82.486 0 01-14.191 7.493.767.767 0 01-.277.053zm-34.316-19.679l34.359 18.081c3.122-1.282 27.929-11.912 23.894-24.016-3.332-10-.814-16.307 2.372-24.3a110.643 110.643 0 003.89-10.939 50.811 50.811 0 002.034-14.681 38.8 38.8 0 00-.362-4.69c-1.248-8.955-5.715-15.892-12.92-20.064-14.813-8.577-33.128-6.715-43.548 4.424-11.381 12.166-9.115 28.16-7.613 34.471 1.96 8.231.974 18.347-.77 24.264-1.7 5.793-2.213 8.132-1.335 17.444z" fill="#000333"/></g></g><g data-name="グループ 1851"><g data-name="グループ 1850"><path data-name="パス 2469" d="M-7274.784 4094.193s3.957 33.126 4.8 42.247c.8 8.608 7.428 56.679 7.428 56.679h9.544l3.772-80.352.14 1.3v-21.595z" fill="#000931"/></g></g><g data-name="グループ 1853"><g data-name="グループ 1852"><path data-name="パス 2470" d="M-7223.296 4094.193s-3.956 33.126-4.8 42.247c-.8 8.608-7.428 56.679-7.428 56.679h-9.545l-3.775-80.351-.14 1.3v-21.596z" fill="#000931"/></g></g><g data-name="グループ 1854"><path data-name="パス 2471" d="M-7279.479 4203.767h25.448a1.856 1.856 0 001.856-1.856v-9.4l-18.029-1.8a10.51 10.51 0 00-1.049-.052 11.712 11.712 0 00-10.552 6.631l-.755 1.568a3.419 3.419 0 003.081 4.909z" fill="#5b2c2b"/></g><g data-name="グループ 1855"><path data-name="パス 2472" d="M-7218.883 4203.767h-25.45a1.856 1.856 0 01-1.856-1.856v-9.4l18.029-1.8q.523-.052 1.048-.052a11.712 11.712 0 0110.552 6.631l.755 1.568a3.419 3.419 0 01-3.078 4.909z" fill="#5b2c2b"/></g><g data-name="グループ 337"><g data-name="パス 1102"><path data-name="パス 2473" d="M-7289.891 4082.052s-.784 3.184 1.211 3.564 9.176 0 9.176 0l4.132-6.178-5.418-1.046z" fill="#397c71"/></g><g data-name="パス 1103"><path data-name="パス 2474" d="M-7285.372 4086.545a22.426 22.426 0 01-3.449-.181 2.225 2.225 0 01-1.494-1 5.106 5.106 0 01-.313-3.5.759.759 0 01.452-.524l9.105-3.663a.752.752 0 01.428-.041l5.418 1.045a.759.759 0 01.488 1.168l-4.132 6.179a.764.764 0 01-.593.336c-.196.022-3.242.181-5.91.181zm-3.849-3.943a3.231 3.231 0 00.186 1.943.7.7 0 00.5.324 63.552 63.552 0 008.612.007l3.284-4.909-4.07-.786z" fill="#000333"/></g></g><g data-name="グループ 338"><g data-name="パス 1104"><path data-name="パス 2475" d="M-7283.832 4085.769s-2.068 12.392 3.564 12.754l.976-9.053 3.087 4.206 2.672-12.438z" fill="#ffedd9"/></g><g data-name="パス 1105"><path data-name="パス 2476" d="M-7280.267 4099.28h-.049a3.927 3.927 0 01-2.929-1.546c-2.74-3.45-1.4-11.739-1.337-12.089a.759.759 0 01.443-.571l10.3-4.534a.761.761 0 011.05.857l-2.672 12.437a.761.761 0 01-1.357.289l-1.928-2.623-.767 7.107a.759.759 0 01-.754.673zm-2.877-12.983c-.356 2.487-.729 8.2 1.091 10.493a2.489 2.489 0 001.118.83l.888-8.231a.761.761 0 011.369-.368l2.086 2.842 2-9.327z" fill="#000333"/></g></g><g data-name="グループ 341"><g data-name="パス 1109"><path data-name="パス 2477" d="M-7269.251 4014.153c3.671-3.066 7.7-6.309 10.194-6.1s5.739 3.1 5.879 5.774-6.241 4.562-8.912 5.065-9.7 3.957-9.731.749a8.007 8.007 0 012.57-5.488z" fill="#1e1e1e"/></g><g data-name="パス 1110"><path data-name="パス 2478" d="M-7270.095 4021.747a2.858 2.858 0 01-1.687-.442 1.95 1.95 0 01-.8-1.657 8.724 8.724 0 012.826-6.069l.014-.012c4.273-3.567 8.027-6.512 10.747-6.269 2.759.236 6.407 3.339 6.576 6.491.212 3.984-9.434 5.831-9.531 5.849a24.462 24.462 0 00-2.646.787 19.984 19.984 0 01-5.499 1.322zm1.341-7.023a7.28 7.28 0 00-2.3 4.906c0 .326.112.4.158.435.814.584 3.952-.461 5.826-1.086a24.663 24.663 0 012.847-.839c3.448-.643 8.384-2.533 8.292-4.274-.123-2.3-3.121-4.884-5.187-5.057-2.31-.182-6.712 3.478-9.631 5.915z" fill="#000333"/></g></g><g data-name="グループ 343"><g data-name="パス 1112"><path data-name="パス 2479" d="M-7227.725 4018.986a17.073 17.073 0 013.483 1.375c.6.527 2.22 7.465 1.745 11.934s1.2 51.613 1.2 51.613.672 7.259-4.96 8.021-41.246-2.816-41.246-2.816-11.834-8.08-12.4-16.4 1.621-35 1.621-35l5.789-15.785 9.7-2.94z" fill="#397c71"/></g><g data-name="パス 1113"><path data-name="パス 2480" d="M-7228.674 4092.288c-9.618 0-37.543-2.793-38.855-2.925a.256.256 0 01-.118-.043c-.487-.333-11.94-8.245-12.515-16.589-.565-8.241 1.6-34.774 1.621-35.041a.276.276 0 01.014-.066l5.793-15.785a.252.252 0 01.165-.154l9.7-2.941a.235.235 0 01.073-.011h35.074a.243.243 0 01.073.011 16.148 16.148 0 013.578 1.426c.7.607 2.312 7.626 1.83 12.151-.468 4.4 1.186 51.1 1.2 51.577a11.693 11.693 0 01-.378 3.8 5.631 5.631 0 01-4.8 4.478 20.079 20.079 0 01-2.455.112zm-38.74-3.423c1.726.173 35.7 3.546 41.124 2.811 5.33-.724 4.748-7.677 4.742-7.747-.07-1.94-1.673-47.228-1.2-51.663.482-4.529-1.211-11.306-1.659-11.716a15.73 15.73 0 00-3.353-1.312h-35.005l-9.539 2.895-5.732 15.633c-.091 1.1-2.171 26.864-1.617 34.93.532 7.821 11.386 15.573 12.241 16.168z" fill="#000333"/></g></g><g data-name="グループ 345"><g data-name="パス 1115"><path data-name="パス 2482" d="M-7212.28 4084.381c.57 2.091.095 3.849-.665 4.419a16.616 16.616 0 01-9.579 1.664c-4.277-.666-3.708-3.805-3.708-3.805l5.7-7.126z" fill="#397c71"/></g><g data-name="パス 1116"><path data-name="パス 2483" d="M-7220.541 4091.371a13.694 13.694 0 01-2.1-.155 5.274 5.274 0 01-3.672-1.96 3.861 3.861 0 01-.667-2.732.761.761 0 01.154-.339l5.7-7.127a.761.761 0 01.979-.181l8.249 4.847a.764.764 0 01.348.452c.594 2.171.2 4.374-.942 5.228a17.177 17.177 0 01-8.049 1.967zm-4.956-4.413a2.337 2.337 0 00.438 1.436 3.864 3.864 0 002.652 1.319 16.052 16.052 0 009.006-1.52c.377-.283.867-1.527.461-3.318l-7.405-4.353z" fill="#000333"/></g></g><g data-name="グループ 346"><g data-name="パス 1117"><path data-name="パス 2484" d="M-7215.245 4089.167s-2.218 14.562-6.067 14.7c-1.02.038 1.6-8.671 1.037-10.727-.327-1.186-2.073 4.414-2.515 3.428-1.681-3.752-2.514-12.663-2.514-12.663z" fill="#ffedd9"/></g><g data-name="パス 1118"><path data-name="パス 2485" d="M-7221.317 4104.629a.915.915 0 01-.7-.32c-.507-.589-.336-1.77.323-5.271.19-1.01.416-2.2.567-3.256-.542 1.108-.9 1.667-1.532 1.667h-.015a.9.9 0 01-.814-.566c-1.719-3.824-2.543-12.535-2.577-12.9a.761.761 0 011.11-.744l10.059 5.259a.76.76 0 01.4.788c-.385 2.533-2.528 15.19-6.79 15.347zm.9-12.414h.09a.9.9 0 01.792.723c.3 1.1-.062 3.24-.654 6.38-.226 1.2-.518 2.745-.585 3.6 1.947-1.242 3.864-8.218 4.7-13.329l-8.314-4.347a58.642 58.642 0 001.879 9.922c.126-.254.25-.518.349-.724.683-1.465 1.043-2.225 1.741-2.225z" fill="#000333"/></g></g><g data-name="グループ 348"><g data-name="パス 1120"><path data-name="パス 2487" d="M-7223.188 4024.308c4.8 6.986 4.516 13.545 4.943 21.1s0 16.349 10.361 31.748c0 0 .144 2.091-2.495 4.373s-2.068 3.422-3.588 3.422-9.221-.38-9.221-.38l-12.192-7.8v-27.369l1.422-10.291" fill="#397c71"/></g><g data-name="パス 1121"><path data-name="パス 2488" d="M-7213.968 4085.711c-1.522 0-8.943-.361-9.257-.382a.745.745 0 01-.372-.118l-12.192-7.794a.76.76 0 01-.351-.641v-27.375a.763.763 0 01.007-.1l1.422-10.29a.761.761 0 011.51.186v.022l-1.416 10.238v26.907l11.668 7.461c1.224.06 7.632.369 8.981.369.4 0 .412-.012.823-.638a11.272 11.272 0 012.269-2.6 5.658 5.658 0 002.225-3.576c-9.517-14.222-9.929-23.016-10.26-30.09-.03-.621-.058-1.233-.091-1.837-.05-.882-.091-1.749-.129-2.606-.3-6.5-.561-12.113-4.68-18.108a.761.761 0 111.218-.911.55.55 0 01.034.05c4.365 6.352 4.647 12.446 4.946 18.9.04.852.08 1.714.129 2.59.035.609.063 1.225.091 1.852.342 7.278.723 15.527 10.139 29.514a.76.76 0 01.128.373c.006.1.137 2.5-2.756 5a9.775 9.775 0 00-1.99 2.282 2.235 2.235 0 01-2.096 1.322z" fill="#000333"/></g></g><g data-name="グループ 349"><g data-name="パス 1122"><path data-name="パス 2489" d="M-7266.093 4036.374l-1.628 9.748v24.808s-10.978 9.124-12.333 10.195-8.34 1.211-9.837.926-4.349-5.275-4.349-5.275c3.28-2.995 5.989-11.977 6.558-23.382s4.6-24.658 9.579-28.722l6.92-1.5 4.106 4.99" fill="#397c71"/></g><g data-name="パス 1123"><path data-name="パス 2490" d="M-7287.426 4082.934a17.841 17.841 0 01-2.607-.135c-1.709-.325-4.161-4.4-4.867-5.645a.76.76 0 01.147-.938c3.239-2.958 5.776-12.145 6.312-22.86.542-10.876 4.38-24.8 9.859-29.272a.764.764 0 01.32-.154l6.921-1.505a.759.759 0 01.749.261l4.106 4.99a.761.761 0 01-1.176.966l-3.81-4.63-6.285 1.368c-4.484 3.844-8.578 16.346-9.164 28.055-.542 10.794-3.016 19.863-6.365 23.469 1.37 2.295 2.966 4.3 3.537 4.405 2.688.513 8.605-.289 9.226-.777 1.213-.957 10.336-8.535 12.044-9.954v-24.457a.787.787 0 01.01-.125l1.628-9.748a.761.761 0 011.5.251l-1.617 9.686v24.746a.756.756 0 01-.271.584c-.452.374-11 9.144-12.348 10.207-1.178.925-5.101 1.212-7.849 1.212z" fill="#000333"/></g></g><g data-name="グループ 350"><g data-name="パス 1124"><path data-name="パス 2491" d="M-7275.369 4088.753c-1.687 1.357-3.256 6.06.523 7.486s3.778.428 11.049 1.64 19.819 1 25.807.641 15.467-.285 16.362-3.209-.09-4.811-1.747-4.758-23.382-1.8-23.382-1.8l-25.737-.5z" fill="#397c71"/></g><g data-name="パス 1125"><path data-name="パス 2492" d="M-7248.306 4099.054a104.643 104.643 0 01-15.535-.926 51.474 51.474 0 00-6.378-.713 12.859 12.859 0 01-4.721-.94 3.571 3.571 0 01-2.442-2.877 6.009 6.009 0 011.846-5.044.253.253 0 01.116-.053l2.875-.5 25.783.494c.234.019 21.76 1.866 23.37 1.8a2.051 2.051 0 011.727.814c.715.932.814 2.49.271 4.27-.814 2.663-7.688 2.973-13.749 3.247-1 .044-1.954.091-2.837.14-2.708.168-6.414.288-10.326.288zm-26.955-10.063a5.556 5.556 0 00-1.613 4.529 3.062 3.062 0 002.117 2.482 12.318 12.318 0 004.568.9 51.849 51.849 0 016.433.719c7.044 1.176 19.259 1.025 25.751.638.885-.052 1.845-.1 2.844-.141 5.31-.24 12.583-.568 13.29-2.888.495-1.623.426-3.013-.188-3.814a1.485 1.485 0 00-1.307-.615c-1.637.05-22.523-1.728-23.412-1.8l-25.719-.5z" fill="#000333"/></g></g><g data-name="グループ 351"><g data-name="パス 1126"><path data-name="パス 2493" d="M-7269.588 4062.737c0 5.291.462 10.048-2.052 10.048s-7.055-4.758-7.055-10.048c0-2.12-.208-5.641.346-7.227.828-2.371 2.7-2.352 4.206-2.352 2.522 0 4.555 4.288 4.555 9.579z" fill="#236c60"/></g></g><g data-name="グループ 352"><g data-name="パス 1127"><path data-name="パス 2494" d="M-7223.534 4066.652c0 5.29-2.037 9.579-4.551 9.579s-4.552-4.289-4.552-9.579 2.038-9.579 4.552-9.579c1.725 0 3.78-.242 4.551 2.736.353 1.362 0 5.184 0 6.843z" fill="#236c60"/></g></g><g data-name="グループ 353"><g data-name="パス 1128"><path data-name="パス 2495" d="M-7270.524 4019.46s9.359-4.551 15.015-4.509 18.585 1.61 20.011 2.7-10.47 17.747-15.038 16.692-18.9-10.323-18.9-10.323z" fill="#ffedd9"/></g><g data-name="パス 1129"><path data-name="パス 2496" d="M-7250.14 4035.149a2.548 2.548 0 01-.569-.062c-4.643-1.074-18.548-10.045-19.139-10.426a.764.764 0 01-.326-.462l-1.093-4.562a.76.76 0 01.407-.861c.387-.188 9.5-4.587 15.271-4.587h.082c5.173.038 18.723 1.527 20.467 2.86.75.575.351 1.713-.138 2.751-1.916 4.072-10.327 15.349-14.962 15.349zm-18.626-11.6c1.941 1.242 14.34 9.119 18.4 10.056.382.091 1.538.072 3.988-1.99 4.844-4.079 9.889-11.8 10.221-13.465-1.971-.9-13.645-2.393-19.356-2.436h-.075c-4.648 0-12 3.226-14.054 4.174z" fill="#000333"/></g></g><g data-name="グループ 354"><g data-name="パス 1130"><path data-name="パス 2497" d="M-7229.781 4034.483c4.562 2.423 7.083 10.772 3.889 21.039-.537 1.729-1.531 1.272-2.713 5.917-.608 2.4.709 6.262 1.71 10.394.942 3.884 4.287 10.176 4.321 10.258a8.232 8.232 0 01-.807 8.465c-1.709 2.515-14.828 2.479-25.713 2.623s-23.193-2.623-23.193-2.623-4.7-1.086-5.8-7.055 1.616-6.2 3.584-12.283c1.3-4.006 1.952-7.754.607-12.4-.7-2.409.047.517-1.474-3.309-2.121-5.337-3.1-19.689 3.555-21.792" fill="#397c71"/></g><g data-name="パス 1131"><path data-name="パス 2498" d="M-7249.899 4093.941a121.17 121.17 0 01-22.551-2.645c-.217-.05-5.209-1.272-6.386-7.657a9.688 9.688 0 011.436-7.909 23.394 23.394 0 002.171-4.746c1.288-3.972 1.883-7.526.6-11.954a24.413 24.413 0 00-.235-.782 7.667 7.667 0 01-1.215-2.458c-1.718-4.327-2.579-13.608-.069-18.892a6.9 6.9 0 014.1-3.9.761.761 0 01.458 1.447 5.445 5.445 0 00-3.187 3.107c-2.3 4.841-1.47 13.7.109 17.678a17.1 17.1 0 00.814 1.85c.3.181.393.514.688 1.529 1.473 5.083.575 9.178-.614 12.844a24.977 24.977 0 01-2.3 5.029c-1.194 2.1-1.915 3.371-1.266 6.882 1 5.413 5.186 6.44 5.228 6.449.118.027 12.364 2.742 23.011 2.6l2.337-.028c9.028-.106 21.393-.251 22.757-2.261a7.438 7.438 0 00.737-7.735l-.041-.077c-1.031-1.99-3.517-6.987-4.32-10.3-.2-.821-.411-1.628-.617-2.422-.873-3.347-1.628-6.231-1.093-8.338a11.59 11.59 0 012.08-4.816 3.284 3.284 0 00.633-1.14c3.166-10.186.551-17.979-3.52-20.141a.761.761 0 01.713-1.344c2.533 1.347 4.4 4.219 5.24 8.088a27.463 27.463 0 01-.98 13.849 4.772 4.772 0 01-.877 1.6 10.1 10.1 0 00-1.823 4.273c-.439 1.726.3 4.569 1.086 7.579.208.8.421 1.618.623 2.448a56.1 56.1 0 004.193 9.963c.054.106.083.166.09.176a8.946 8.946 0 01-.879 9.192c-1.684 2.478-10.594 2.767-24 2.924l-2.334.028c-.251.005-.524.01-.797.01z" fill="#000333"/></g></g><g data-name="グループ 355"><g data-name="パス 1132"><path data-name="パス 2499" d="M-7249.708 4034.479s13.924-14.54 13.5-15.873-2.661-2.852-7.889-2.757l-1.877-1.711a30.736 30.736 0 013.458-1.319c2.837-.982 9.683-2.864 11.513-2.007a6.525 6.525 0 013.445 4.657c.286 1.809 1.331 1.711 1.9 2.852s1.141 3.11 0 4.216-5.133 2.343-7.224 3.958-11.027 8.174-16.826 7.984z" fill="#397c71"/></g><g data-name="パス 1133"><path data-name="パス 2500" d="M-7249.465 4035.244h-.271a.76.76 0 01-.524-1.285c6.164-6.439 12.7-13.782 13.27-15.247-.413-.877-2.3-2.191-7.1-2.1a.759.759 0 01-.526-.2l-1.877-1.711a.761.761 0 01-.05-1.075.749.749 0 01.2-.155 30.41 30.41 0 013.573-1.371c.091-.031 9.445-3.209 12.083-1.977a7.314 7.314 0 013.875 5.227 1.97 1.97 0 00.834 1.437 3.734 3.734 0 011 1.194c.391.782 1.538 3.464-.151 5.1a13.6 13.6 0 01-3.347 1.878 22.352 22.352 0 00-3.941 2.137c-1.781 1.376-10.866 8.148-17.048 8.148zm5.838-20.16c6.566 0 7.888 2.505 8.141 3.289.187.585.4 1.248-6.748 9.177a382.09 382.09 0 01-5.55 6.006c5.758-1.065 13.483-6.928 14.436-7.664a23.289 23.289 0 014.232-2.313 13.991 13.991 0 002.927-1.589c.754-.73.39-2.25-.15-3.33a2.272 2.272 0 00-.633-.724 3.445 3.445 0 01-1.338-2.347 5.8 5.8 0 00-3.017-4.088c-1.331-.622-7.271.766-10.944 2.038a64.293 64.293 0 00-2.316.839l.777.709z" fill="#000333"/></g></g><g data-name="グループ 356"><g data-name="パス 1134"><path data-name="パス 2501" d="M-7268.415 4007.341c-7.056 2.139-7.146 4.514-8.1 6.036s-3.136 5.517-2.852 7.7 1.141 4.087 2.471 4.562 2.757 0 5.7 1.331 21.042 7.507 21.042 7.507-20.377-14.068-20.377-15.015.38-2.281 1.236-2.566a4.553 4.553 0 003.137-2.377 8.322 8.322 0 014.133-3.607c.9-.194-2.75-3.569-2.75-3.569z" fill="#397c71"/></g><g data-name="パス 1135"><path data-name="パス 2502" d="M-7250.149 4035.24a.768.768 0 01-.246-.041c-.74-.254-18.163-6.206-21.11-7.536a10.745 10.745 0 00-3.889-1 6.99 6.99 0 01-1.752-.316c-1.507-.538-2.617-2.475-2.97-5.18-.362-2.786 2.623-7.655 2.961-8.2.125-.2.244-.439.368-.69.788-1.589 1.867-3.764 8.153-5.67a.768.768 0 01.221-.032h3.646a.763.763 0 01.515.2c3.4 3.139 3.2 3.864 3.1 4.214a.916.916 0 01-.711.657 7.83 7.83 0 00-3.59 3.154 5.142 5.142 0 01-3.494 2.773l-.106.034c-.344.115-.659.867-.708 1.64 1.343 1.481 12.877 9.651 20.042 14.6a.761.761 0 01-.433 1.387zm-18.155-27.135c-5.561 1.7-6.427 3.452-7.125 4.858a8.39 8.39 0 01-.441.82c-1.054 1.686-2.985 5.359-2.743 7.2.271 2.064 1.045 3.613 1.974 3.944a5.677 5.677 0 001.383.235 12.372 12.372 0 014.377 1.12c1.888.853 10.236 3.776 15.815 5.706a820.225 820.225 0 01-5.715-4.038c-10.507-7.5-10.507-7.934-10.507-8.484 0-1.3.549-2.886 1.755-3.288l.109-.036a3.726 3.726 0 002.564-1.909 9.122 9.122 0 013.98-3.8 23.03 23.03 0 00-2.193-2.327z" fill="#000333"/></g></g><g data-name="グループ 357"><g data-name="パス 1136"><path data-name="パス 2503" d="M-7244.385 4018.224s-1.719.995-5.653.995-5.065-.995-5.065-.995v-5.6h10.715z" fill="#ffbdad"/></g></g><g data-name="グループ 360"><g data-name="パス 1140"><path data-name="パス 2504" d="M-7254.206 4023.309a.5.5 0 01-.239-.061l-4.032-2.164a.507.507 0 11.479-.894l4.032 2.165a.506.506 0 01-.241.953z" fill="#000333"/></g></g><g data-name="グループ 361"><g data-name="パス 1141"><path data-name="パス 2505" d="M-7245.976 4023.309a.506.506 0 01-.241-.953l4.033-2.165a.507.507 0 11.48.894l-4.033 2.164a.5.5 0 01-.239.06z" fill="#000333"/></g></g><g data-name="グループ 362"><g data-name="パス 1142"><path data-name="パス 2506" d="M-7247.864 4044.646a6.692 6.692 0 01-2.1-.391c-1.646-.555-3.51-1.729-3.347-3.206a31.281 31.281 0 01.9-4.019c.84-2.952 1.183-3.17 1.411-3.314a.82.82 0 01.522-.128l2.273.047a.76.76 0 01.692.482c.7 1.775 2.885 7.7 1.78 9.546a2.332 2.332 0 01-2.131.983zm-2.308-9.531a33.232 33.232 0 00-1.628 6.1c-.026.234.731 1.06 2.321 1.6 1.351.452 2.291.331 2.45.066.458-.765-.493-4.515-1.711-7.736zm-.606-.048" fill="#000333"/></g></g><g data-name="グループ 363"><g data-name="パス 1143"><path data-name="パス 2507" d="M-7249.709 4036.391c.715-.145 1.342.641 1.378 1.978s.181 2.459-1.176 2.121a1.524 1.524 0 01-1.087-1.861 1.452 1.452 0 01.054-.165c.071-.45.131-1.93.831-2.073z" fill="#000333"/></g></g><g data-name="グループ 364"><g data-name="パス 1144"><path data-name="パス 2508" d="M-7252.187 4093.901a.76.76 0 01-.759-.724c-.15-3.043.147-16.015.345-24.6.062-2.707.114-4.953.136-6.263.091-5.365.656-19.259.661-19.4a.761.761 0 011.52.061c-.006.14-.566 14.02-.66 19.366-.024 1.312-.075 3.559-.137 6.271-.2 8.562-.494 21.5-.346 24.489a.761.761 0 01-.722.8z" fill="#000333"/></g></g><g data-name="グループ 365"><g data-name="パス 1145"><path data-name="パス 2509" d="M-7248.311 4093.901a.761.761 0 01-.76-.753c-.023-2.6.03-8.467.09-15.258.12-13.395.283-31.74-.079-33.909a.761.761 0 011.491-.3c0 .017.006.035.009.052.384 2.3.226 19.974.1 34.173-.061 6.784-.113 12.641-.09 15.231a.761.761 0 01-.754.768h-.006z" fill="#000333"/></g></g><g data-name="グループ 368"><g data-name="パス 1149"><path data-name="パス 2510" d="M-7255.508 4018.178a.761.761 0 01-.761-.761v-4.931a.761.761 0 111.52-.052v4.983a.76.76 0 01-.759.761z" fill="#000333"/></g></g><g data-name="グループ 369"><g data-name="パス 1150"><path data-name="パス 2511" d="M-7244.384 4018.795a.761.761 0 01-.761-.76v-5.406a.761.761 0 011.52 0v5.4a.76.76 0 01-.76.761z" fill="#000333"/></g></g><g data-name="グループ 372"><g data-name="パス 1152"><path data-name="パス 2512" d="M-7226.256 4080.024a1.718 1.718 0 01-.724.933c-1.809.954-4.42-.613-6.987.148a18.759 18.759 0 01-9.028 0c-2.713-.715-1.095-3.519 5.084-4.943s5.6-4.958 8.412-4.233a3.829 3.829 0 011.7.958 23.421 23.421 0 001.329 6.646c.073.162.143.324.214.491z" fill="#236c60"/></g></g><g data-name="グループ 373"><g data-name="パス 1153"><path data-name="パス 2513" d="M-7235.851 4061.378c-3.368.612-7.984-3.636-7.417-6.2s12.618-2.352 13.4.428-4.415 5.487-5.983 5.772z" fill="#236c60"/></g></g><g data-name="グループ 374"><g data-name="パス 1154"><path data-name="パス 2514" d="M-7265.114 4061.378c3.368.612 7.984-3.636 7.417-6.2s-12.619-2.352-13.4.428 4.417 5.487 5.983 5.772z" fill="#236c60"/></g></g><g data-name="グループ 342"><g data-name="パス 1111"><path data-name="パス 2516" d="M-7227.86 4015.284a.759.759 0 01-.663-.387c-2.294-4.07.532-11.5.653-11.813a.761.761 0 011.419.548c-.027.07-2.689 7.074-.748 10.52a.759.759 0 01-.661 1.133z" fill="#000333"/></g></g><g data-name="グループ 358"><g data-name="パス 1137"><path data-name="パス 2519" d="M-7225.242 3987.914s2.644 11.152-2.591 17.087c-5.155 5.843-13.187 8.006-21.552 7.816-8.365.19-16.4-1.972-21.551-7.816-5.237-5.934-2.593-17.087-2.593-17.087s16.683-27.09 22.932-27.851 23.738-.76 25.354 27.851" fill="#ffedd9"/></g><g data-name="パス 1138"><path data-name="パス 2520" d="M-7250.419 4013.588c-6.583 0-15.263-1.481-21.089-8.085-5.433-6.159-2.872-17.3-2.76-17.765a.746.746 0 01.09-.223c1.728-2.8 17.061-27.425 23.488-28.207 4.585-.556 11.216-.249 16.749 4.381 5.624 4.7 8.8 12.818 9.452 24.117.238 1.043 2.5 11.718-2.777 17.7-6.13 6.949-15.427 8.221-22.139 8.074-.33.002-.669.008-1.014.008zm1.016-1.532c6.431.146 15.255-1.049 21-7.559 4.919-5.575 2.448-16.3 2.422-16.41a.728.728 0 01-.019-.132c-.615-10.9-3.618-18.668-8.914-23.1-5.119-4.281-11.306-4.558-15.589-4.036-1.335.162-4.835 2.183-13.28 13.894-4.541 6.3-8.473 12.6-9.029 13.492-.252 1.176-2.187 11.039 2.448 16.294 5.743 6.512 14.572 7.7 20.964 7.56z" fill="#000333"/></g></g><g data-name="グループ 366"><g data-name="パス 1146"><path data-name="パス 2521" d="M-7223.626 3963.958c7.6 19.963 1.708 30.894 1.708 30.894 0-1.521-4.37-7.984-6.748-12.066s-4.659-15.787-4.659-15.787c-4.847 13.881-19.416 19.2-19.416 19.2 3.877-7.7 1.678-17.206 1.678-17.206s-13.115 4.1-23.021 27.76c0 0-5.673-14.93 2.171-27.76.132-.213.264-.426.4-.633v-.006a29.529 29.529 0 016.965-7.564 28.187 28.187 0 0113.49-5.627" fill="#535353"/></g><g data-name="パス 1147"><path data-name="パス 2522" d="M-7274.08 3997.519h-.012a.762.762 0 01-.7-.49c-.237-.624-5.714-15.427 2.232-28.427.127-.2.251-.406.38-.6a.591.591 0 01.03-.052 30.387 30.387 0 017.139-7.757 28.717 28.717 0 0113.893-5.78.752.752 0 01.813.687v.012a.761.761 0 01-.7.814 27.724 27.724 0 00-13.089 5.474 28.876 28.876 0 00-6.749 7.319.717.717 0 01-.037.062c-.132.2-.26.408-.388.615-5.927 9.7-3.877 20.784-2.7 25.166 9.81-22.043 22.14-26.124 22.674-26.29a.758.758 0 01.952.5.626.626 0 01.016.058c.086.369 1.905 8.473-.937 15.9 3.953-1.9 13.536-7.433 17.217-17.975a.752.752 0 01.772-.509.762.762 0 01.692.613c.023.116 2.284 11.626 4.569 15.55.668 1.147 1.482 2.463 2.344 3.857 1.719 2.78 3.026 4.924 3.778 6.447 1.244-3.813 3.2-13.631-2.45-28.479a.76.76 0 111.42-.543c7.641 20.058 1.915 31.067 1.667 31.525a.761.761 0 01-1.43-.362c0-.874-2.575-5.036-4.278-7.792-.867-1.4-1.687-2.727-2.365-3.889-1.755-3.012-3.417-9.855-4.231-13.554-5.583 12.3-18.353 17.1-18.926 17.3a.76.76 0 01-.94-1.056c3.04-6.036 2.2-13.321 1.784-15.81-2.958 1.346-13.511 7.334-21.746 27a.76.76 0 01-.694.466zm52.925-2.666" fill="#000333"/></g></g><g data-name="グループ 370"><g data-name="パス 1151"><path data-name="パス 2524" d="M-7249.247 3997.995c-1.621.533-2.751.295-2.028-.809s1.237-1.041 2.282-1 2.379 1.28 1.658 1.851-1.311-.24-1.912-.042z" fill="#ffbdad"/></g></g><g data-name="グループ 371"><g data-name="楕円形 27"><ellipse data-name="楕円形 136" cx=".45" cy=".495" rx=".45" ry=".495" fill="#000333" transform="translate(-7249.834 3997.695)"/></g></g><g data-name="グループ 392"><g data-name="パス 1165"><path data-name="パス 2525" d="M-7262.476 3967.015c-.8 3.011-3.508 4.907-6.037 4.228a4.485 4.485 0 01-3-2.879v-.006a29.544 29.544 0 016.965-7.564 5.538 5.538 0 012.072 6.221z" fill="#868686"/></g></g><g data-name="グループ 393"><g data-name="楕円形 32"><ellipse data-name="楕円形 137" cx="2.35" cy="1.977" rx="2.35" ry="1.977" transform="rotate(-75.05 -1047.933 6714.985)" fill="#868686"/></g></g><g data-name="グループ 394"><g data-name="パス 1166"><path data-name="パス 2526" d="M-7214.91 3974.625a1.93 1.93 0 01-.913.228 2.57 2.57 0 010-5.09 1.781 1.781 0 01.547.082 39.293 39.293 0 01.366 4.78z" fill="#868686"/></g></g><g data-name="グループ 395"><g data-name="楕円形 33"><ellipse data-name="楕円形 138" cx="1.354" cy="1.109" rx="1.354" ry="1.109" transform="rotate(-24.08 5701.64 18916.644)" fill="#868686"/></g></g><g data-name="グループ 396"><g data-name="パス 1167"><path data-name="パス 2527" d="M-7274.813 4011.363a.76.76 0 01-.647-1.159c2.413-3.934.927-11.292.912-11.366a.761.761 0 111.49-.31c.068.326 1.628 8.021-1.1 12.471a.759.759 0 01-.655.364z" fill="#000333"/></g></g><g data-name="グループ 397"><g data-name="パス 1168"><path data-name="パス 2528" d="M-7252.735 3986.963a.761.761 0 01-.469-1.357c10.8-8.419 10.337-18.6 10.331-18.7a.761.761 0 011.518-.091c.028.447.547 11.053-10.913 19.99a.762.762 0 01-.467.158z" fill="#000333"/></g></g><g data-name="グループ 401"><g data-name="楕円形 34"><ellipse data-name="楕円形 139" cx="3.437" cy="1.641" rx="3.437" ry="1.641" fill="#ffbdad" transform="translate(-7269.98 4001.979)"/></g></g><g data-name="グループ 402"><g data-name="楕円形 35"><ellipse data-name="楕円形 140" cx="3.437" cy="1.641" rx="3.437" ry="1.641" fill="#ffbdad" transform="translate(-7235.197 4001.979)"/></g></g><g data-name="グループ 1859"><g data-name="グループ 1856"><path data-name="パス 2530" d="M-7256.891 3991.811a.86.86 0 01-.61-.253c-4.408-4.408-8.936-4.539-13.1-.379a.863.863 0 01-1.22-1.22c4.887-4.887 10.405-4.752 15.536.379a.863.863 0 01-.61 1.472z" fill="#000931"/></g><g data-name="グループ 1857"><path data-name="パス 2531" d="M-7263.478 3987.625a5.871 5.871 0 01-1.3-2.342.131.131 0 00-.206-.1 2 2 0 00-1 1.917z" fill="#000931"/></g><g data-name="グループ 1858"><path data-name="パス 2532" d="M-7269.543 3989.968a5.869 5.869 0 01-2.5-.959.131.131 0 00-.222.056 2 2 0 00.461 2.114z" fill="#000931"/></g></g><g data-name="グループ 1863"><g data-name="グループ 1860"><path data-name="パス 2533" d="M-7241.812 3991.811a.863.863 0 01-.61-1.473c2.5-2.5 5.1-3.819 7.735-3.922 2.722-.107 5.344 1.086 7.8 3.542a.863.863 0 01-1.22 1.22c-2.1-2.1-4.294-3.122-6.513-3.038-2.186.085-4.4 1.235-6.583 3.417a.86.86 0 01-.609.254z" fill="#000931"/></g><g data-name="グループ 1861"><path data-name="パス 2534" d="M-7235.225 3987.625a5.878 5.878 0 001.3-2.342.131.131 0 01.206-.1 2 2 0 011 1.917z" fill="#000931"/></g><g data-name="グループ 1862"><path data-name="パス 2535" d="M-7229.161 3989.968a5.872 5.872 0 002.5-.959.131.131 0 01.222.056 2 2 0 01-.461 2.114z" fill="#000931"/></g></g><g data-name="グループ 375"><g data-name="パス 1155"><path data-name="パス 2536" d="M-7226.784 3981.715a9.1 9.1 0 00-6.71-2.6c-4.22.153-7.245 3.765-7.245 3.765a15.274 15.274 0 017.318-2.452 11.538 11.538 0 016.637 1.287z" fill="#000333"/></g></g><g data-name="グループ 384"><g data-name="パス 1160"><path data-name="パス 2537" d="M-7275.003 3981.715a9.1 9.1 0 016.712-2.6c4.219.153 7.245 3.765 7.245 3.765a15.277 15.277 0 00-7.319-2.452 11.542 11.542 0 00-6.638 1.287z" fill="#000333"/></g></g><g data-name="グループ 1864"><path data-name="パス 2538" d="M-7249.551 4006.349c-5.436 0-5.5-2.679-5.5-2.794a.565.565 0 011.13 0s.157 1.664 4.369 1.664 4.368-1.664 4.369-1.681a.574.574 0 01.582-.538.557.557 0 01.547.555c.003.115-.057 2.794-5.497 2.794z" fill="#000931"/></g></g></svg>