<svg xmlns="http://www.w3.org/2000/svg" viewBox="0 0 222.26 636.73"><defs><style>.cls-1{fill:#111}.cls-2,.cls-4{fill:#2c4e88}.cls-2,.cls-3,.cls-4,.cls-7,.cls-8{stroke:#000931;stroke-linecap:round;stroke-linejoin:round}.cls-2,.cls-3,.cls-8{stroke-width:3px}.cls-3{fill:#fcecda}.cls-4,.cls-7{stroke-width:2px}.cls-5{fill:#1c3b69}.cls-7,.cls-8{fill:none}.cls-9{fill:#000931}.cls-10{fill:#7b5f32}.cls-12{fill:#fff}.cls-16{fill:#9ab7d9}</style></defs><g id="レイヤー_2" data-name="レイヤー 2"><g id="_男_表情パターン" data-name="【男】表情パターン"><g id="体調悪い時"><g id="体"><g id="下半身"><path class="cls-1" d="M48.66 382.69s9.18 76.8 11.14 97.95C61.65 500.59 77 612.05 77 612.05h22.15l8.75-186.3.32 3v-50.06zM168 382.69s-9.17 76.8-11.14 97.95c-1.85 19.95-17.22 131.41-17.22 131.41h-22.09l-8.74-186.3-.33 3v-50.06z"/><path d="M37.78 636.73h59a4.3 4.3 0 004.3-4.3v-21.79l-41.8-4.17q-1.22-.12-2.43-.12a27.14 27.14 0 00-24.46 15.38l-1.75 3.63a7.93 7.93 0 007.14 11.37zM178.27 636.73h-59a4.3 4.3 0 01-4.3-4.3v-21.79l41.8-4.17q1.22-.12 2.43-.12a27.14 27.14 0 0124.46 15.38l1.75 3.63a7.93 7.93 0 01-7.14 11.37z"/></g><g id="上半身"><path class="cls-2" d="M11.85 354.37s-2 8.15 3.1 9.13 23.5 0 23.5 0L49 347.68 35.15 345z"/><path class="cls-3" d="M24.53 363.89s-1.81 28.83 12.61 29.74l-1-20.28 8.86 8.16 5.92-29.23z"/><path class="cls-4" d="M165.36 192.88a50.48 50.48 0 015.24 3.52c1.55 1.35 9.36 19.12 8.15 30.56s3.07 132.16 3.07 132.16 1.72 18.58-12.7 20.53-105.62-7.21-105.62-7.21-30.3-20.69-31.76-42 4.15-89.63 4.15-89.63l14.84-40.41 24.82-7.54z"/><path class="cls-2" d="M67.12 237.41l-4.17 25v63.52S34.84 349.26 31.37 352 10 355.1 6.18 354.37 1.5 342.12 1.5 342.12C3.72 328.2 10.38 310.2 11.84 281s11.78-63.14 24.53-73.54l17.72-3.86 10.51 12.77M208.53 354.37s2 8.15-3.1 9.13-23.49 0-23.49 0l-10.58-15.82 13.87-2.68z"/><path class="cls-3" d="M195.85 363.89s3.69 28.83-10.73 29.74l-.9-20.28-7.9 10.77-6.84-31.84z"/><path class="cls-2" d="M153.27 237.41l4.16 25v63.52S185.54 349.26 189 352s21.36 3.1 25.19 2.37 6.56-12.16 6.56-12.16c-2-15.63-10.76-32-12.22-61.22s-11.77-63.14-24.53-73.54l-17.7-11.22-13.52 6.44"/><path class="cls-4" d="M43.36 364.17C39 367.64 35 379.69 44.7 383.34s9.67 1.09 28.29 4.2 50.75 2.55 66.08 1.64 39.61-.73 41.89-8.22-.24-12.32-4.47-12.18-59.87-4.61-59.87-4.61l-65.9-1.28z"/><path class="cls-5" d="M58.17 304.91c0 13.55 1.18 25.73-5.25 25.73s-18.06-12.18-18.06-25.73c0-5.43-.53-14.44.89-18.5 2.12-6.08 6.91-6 10.77-6 6.48-.03 11.65 10.96 11.65 24.5zM179.77 307.58c0 13.55-5.22 24.53-11.65 24.53s-11.66-11-11.66-24.53 5.22-24.53 11.66-24.53c4.41 0 9.67-.61 11.65 7 .9 3.49 0 13.28 0 17.53z"/><path class="cls-3" d="M55.77 194.1s24-11.65 38.45-11.54 47.59 4.12 51.24 6.92-26.81 45.44-38.46 42.74-48.38-26.44-48.38-26.44z"/><path class="cls-2" d="M175.16 233.44c1.82 23.13 1.22 36.48-2.21 49.29l-2.22 43.9c5 15.56 12 16.19 9.18 31.45S165 376.14 165 376.14a198.4 198.4 0 01-52 6.71h-9.73a198.52 198.52 0 01-52-6.71s-12-2.78-14.86-18.06 1.38-14.32 6.42-29.88l-.13-40.82c-1.73-11.81-7.64-34.26-4.95-53.94M109.07 232.56s35.66-37.24 34.56-40.65-6.81-7.3-20.2-7.06l-4.81-4.38a81.18 81.18 0 018.86-3.38c7.26-2.51 24.79-7.33 29.48-5.14a16.74 16.74 0 018.82 11.93c.73 4.62 3.41 4.38 4.87 7.3s2.92 8 0 10.8-13.14 6-18.5 10.13-28.23 20.89-43.08 20.45zM54.07 213.33c9.82 3.92 53.88 19.23 53.88 19.23s-48.3-30.28-40.83-39.07 22-10.44 24.28-10.93-8.56-5.95-18.78-5.95S40.25 194.3 41 199.9c0 0 3.24 9.51 13.07 13.43z"/><path d="M122.7 176.61v14.33s-4.4 2.55-14.47 2.55-13-2.55-13-2.55v-14.33h27.47" fill="#f6beb0"/><path class="cls-7" d="M87.24 197.13l10.32 5.54M128.95 197.13l-10.33 5.54"/><path class="cls-8" d="M107 232.22l5.94.12s7.26 18.47 4.7 22.73-16.31-1.1-15.82-5.48 4.18-17.71 5.18-17.37z"/><path class="cls-9" d="M109.07 237.45c1.83-.37 3.44 1.65 3.53 5.07s.46 6.3-3 5.43-2.83-4-2.65-5.19.33-4.94 2.12-5.31z"/><path class="cls-8" d="M105.65 254.24S104.2 290 104 303.87s-1.74 68.71-1.23 78.89M112.66 382.76c-.18-20.24 1.42-117.67 0-126.19M94.22 176.24v12.63M122.7 190.45v-13.84"/><path class="cls-5" d="M169.12 349.18a4.4 4.4 0 01-1.85 2.39c-4.62 2.44-11.32-1.57-17.89.37s-16.19 1.82-23.12 0-2.8-9 13-12.65 14.34-12.7 21.54-10.84a9.85 9.85 0 014.36 2.45c.62 7.67 2 13.7 3.4 17z"/></g></g><g id="顔"><path class="cls-10" d="M175.42 141.15l6-6.42a7 7 0 001.76-2.57 6.92 6.92 0 00-.16-3.52l-4.31-19.46A46.87 46.87 0 01195 111c-4.59-14.59-11.72-28.24-18.81-41.79A63 63 0 01192.06 80c.7-3-1.11-6-2.84-8.58C180.44 58.25 171.58 45 160.29 34l19.2-3.47c-7.62-2.63-15.94-1.37-24-1.68a4.23 4.23 0 01-2.06-.45 4.4 4.4 0 01-1.43-2.22 73.34 73.34 0 00-16.77-24.7c2.47 6.93-.15 16.26 0 23.62l-3.46-1.42A232.34 232.34 0 0092 7.59a49.83 49.83 0 0114 17.53c-19.94-3.59-41-4.91-60.08 1.83a59.61 59.61 0 0019.28 7.27c-8.29 3.88-16.48 8.1-23.74 13.67s-13.6 12.55-17.34 20.9a46.3 46.3 0 0014.29-3.7c.47 3.86-1.27 7.6-2.89 11.14-6 13.12-11 26.94-12.15 41.33l8.93-6.49q1.64 10.91 3.15 21.81c1.39.07 3.91-2.16 4.56-3.39z"/><path class="cls-9" d="M176.48 142.21c3.08-3.29 8.54-7 8.33-12-.29-7-3.13-14.61-4.64-21.43l-1.45 1.9a50.63 50.63 0 0115.88 1.74 1.51 1.51 0 001.85-1.84c-4.75-14.73-11.81-28.47-19-42.15l-2.06 2A67.09 67.09 0 01191 81a1.52 1.52 0 002.56-1c.43-4.25-1.74-7.38-4-10.8-2.92-4.38-5.88-8.75-8.93-13A177.79 177.79 0 00161.35 33l-.66 2.51L179.88 32c1.54-.28 1.32-2.49 0-2.89a44.19 44.19 0 00-13.09-1.77c-2.61 0-5.22.08-7.83.08-3.67 0-5.12-.75-6.72-4.28a76.27 76.27 0 00-16-22.71 1.51 1.51 0 00-2.51 1.46c2.29 7.56 0 15.51 0 23.22l1.9-1.45c-6.5-2.66-12.69-6-19.16-8.8a247.64 247.64 0 00-24.12-8.72C91 5.72 89.7 7.68 90.89 8.65a52.08 52.08 0 0113.83 17.22l1.69-2.2c-20.23-3.57-41.14-4.86-60.87 1.84a1.52 1.52 0 00-.36 2.74 65.38 65.38 0 0019.63 7.42l-.36-2.74C47.73 40.8 31 50.67 22.82 68c-.43.9.06 2.4 1.3 2.25a53.72 53.72 0 0014.69-3.75l-1.9-1.45c.25 5.55-2.76 10.39-4.89 15.33-1.6 3.72-3.1 7.48-4.44 11.31a107.83 107.83 0 00-5.71 25.83 1.51 1.51 0 002.26 1.29l8.93-6.48-2.2-.9q1.62 10.91 3.14 21.81c.12.85 1.14 1.18 1.84 1.05a7.18 7.18 0 003.23-1.6c.46-.37 2.73-2.28 1-1.74a5 5 0 011.54.13c2.71.33 5.46.47 8.18.71l31.69 2.73 75.71 6.52 18.25 1.57c1.93.16 1.91-2.84 0-3L56.87 129.44 40 128a1.47 1.47 0 00-1.29.74 6.18 6.18 0 01-3.67 2.71l1.84 1q-1.52-10.9-3.14-21.8a1.5 1.5 0 00-2.2-.9l-8.93 6.48 2.25 1.3A108 108 0 0131.7 89.1c2.83-7.53 8.57-15.73 8.2-24 0-.86-.94-1.84-1.9-1.44a50.58 50.58 0 01-13.89 3.64l1.29 2.26c8-16.93 24.27-26.36 40.56-34a1.52 1.52 0 00-.36-2.75 62.59 62.59 0 01-18.92-7.11l-.36 2.74c19.24-6.53 39.57-5.31 59.28-1.84a1.52 1.52 0 001.7-2.2A53.94 53.94 0 0093 6.53L91.55 9a238.09 238.09 0 0126.78 9.9c5.54 2.45 10.85 5.32 16.45 7.62a1.51 1.51 0 001.9-1.45c0-8 2.32-16.15-.05-24l-2.51 1.46a71.86 71.86 0 0114.46 19.83c.95 1.91 1.55 4.45 2.89 6.12 2.18 2.71 6.13 1.94 9.23 1.91 6.3-.06 12.3-.27 18.39 1.61v-2.9l-19.2 3.47a1.5 1.5 0 00-.66 2.5A167.53 167.53 0 01177 56.2c2.4 3.32 4.72 6.7 7 10.1 2.65 3.92 7.05 8.65 6.55 13.65l2.56-1.06a70.09 70.09 0 00-16.17-11 1.51 1.51 0 00-2 2.06c7 13.44 14 26.94 18.65 41.43l1.85-1.85a53 53 0 00-16.68-1.85 1.53 1.53 0 00-1.45 1.9l3.45 15.56c.85 3.85 1 6.43-1.55 9.81a66.64 66.64 0 01-4.81 5.14c-1.4 1.4.76 3.53 2.08 2.12z"/><path class="cls-3" d="M108.29 49.33s-61-15.33-59 81.18c-9.46 9.46-10.11 29.35 10.43 28.7 14.35 26.08 78.86 21 94.51 1.74 24.75-1.42 20.91-30 11.09-25.75 13.53-98.72-57.03-85.87-57.03-85.87z"/><path stroke-miterlimit="10" fill="none" stroke-width="3" stroke="#000931" d="M59.7 159.21l-10.43-28.7"/><path class="cls-10" d="M45.31 125a41.1 41.1 0 009.72-7.7l5.18 13L78 86.12l6.42 17.21c14.73-13.92 30.94-59 39.06-74.14 0 0-132.11 52.07-72.42 73.42z"/><path class="cls-10" d="M123.5 29.19c41.34 9.52 50.95 86.33 50.95 86.33q-.13 11.28-.06 22.56l-13.09-34.33a89.39 89.39 0 01-1.45 16.65c-5.65-15-11.45-30.26-21.54-42.69a138 138 0 00-18.78 22.09l-4.32-19.86-22.68 13.39"/><path class="cls-9" d="M172.6 115.52q-.12 11.28-.06 22.56l3-.4-13.14-34.33a1.5 1.5 0 00-2.94.4 96.3 96.3 0 01-1.41 16.25H161c-5.8-15.25-11.76-30.46-22-43.35a1.51 1.51 0 00-2.12 0 149 149 0 00-19 22.39l2.75.36-4.32-19.86a1.51 1.51 0 00-2.2-.9L91.43 92l2 2.06 19.88-33.16-2.59-1.52a324.23 324.23 0 01-28 43.16l2.74.36-6.42-17.2a1.52 1.52 0 00-2.9 0L58.41 130h2.9l-5.18-13a1.52 1.52 0 00-2.51-.66 44.47 44.47 0 01-9.42 7.47l2.21 1.69a115.12 115.12 0 015.77-22.5c.66-1.81-2.24-2.6-2.9-.79a116.38 116.38 0 00-5.77 22.43 1.52 1.52 0 002.21 1.69 47.81 47.81 0 0010-7.94l-2.5-.66 5.17 13a1.52 1.52 0 002.9 0l17.83-44.21h-2.9l6.43 17.21a1.52 1.52 0 002.74.36 324.52 324.52 0 0028-43.16 1.5 1.5 0 00-2.59-1.52L90.89 92.57a1.51 1.51 0 002 2.05l22.68-13.39-2.2-.89q2.16 9.93 4.31 19.86a1.52 1.52 0 002.74.35A145.49 145.49 0 01139 78.77h-2.1c9.87 12.45 15.6 27.3 21.15 42 .47 1.23 2.62 1.6 2.9 0a102.62 102.62 0 001.51-17l-3 .4 13.08 34.33c.58 1.5 3 1.4 2.95-.4q-.06-11.28.06-22.56c0-1.93-3-1.93-3 0z"/><path class="cls-9" d="M130.05 124.46s-.53 9 0 11.58 4.85 9.5 9.5 9.5 10.16-5.39 10.3-10.54 0-12.89 0-12.89-16.36.13-19.8 2.35z"/><ellipse class="cls-12" cx="139.86" cy="132.97" rx="1.93" ry="3.3"/><path class="cls-9" d="M145.73 112.33l-24.32-8.49s.61 6.47 21.67 8.49"/><path class="cls-7" d="M124.11 129.61c6.87-8.54 20.84-8.91 34-7.87"/><path class="cls-9" d="M88.64 124.46s.54 9 0 11.58-4.85 9.5-9.49 9.5S69 140.15 68.84 135s0-12.89 0-12.89 16.37.13 19.8 2.35z"/><ellipse class="cls-12" cx="78.83" cy="132.97" rx="1.93" ry="3.3"/><path class="cls-9" d="M73 112.33l24.31-8.49s-.6 6.47-21.67 8.49"/><path class="cls-7" d="M94.58 129.61c-6.87-8.54-20.84-8.91-33.95-7.87"/><g id="グループ_370" data-name="グループ 370"><path id="パス_1151" data-name="パス 1151" d="M109.47 149.17c-3.76 1.23-6.38.68-4.71-1.88s2.87-2.41 5.29-2.3 5.52 3 3.85 4.29-3.04-.57-4.43-.11z" fill="#ffbdad"/></g><g id="グループ_371" data-name="グループ 371"><ellipse id="楕円形_27" data-name="楕円形 27" cx="109.14" cy="149.62" rx="1.04" ry="1.15" fill="#000333"/></g><path class="cls-3" d="M154.21 160.95l11.09-25.75"/><path d="M119.14 164.07s-2.31-1.83-4.69-1.15c-1.36.4-3.41 1.64-4.91 1.64-1.81 0-4.16-1.68-5.7-2.19-2-.64-4.69.78-4.69.78" stroke-width="2.62" fill="none" stroke-linecap="round" stroke-linejoin="round" stroke="#000931"/></g><path class="cls-16" d="M44.23 37.6S28.16 10.33 16.75 17.22C7.61 26.85 44.23 37.6 44.23 37.6zM37.09 43.06S19.3 29.3 13.34 36.82c-3.73 8.73 23.75 6.24 23.75 6.24z"/></g></g></g></svg>