<svg xmlns="http://www.w3.org/2000/svg" viewBox="0 0 203.74 604.95"><defs><style>.cls-1{fill:#535353}.cls-2{fill:#000333}.cls-3{fill:#000931}.cls-4{fill:#5b2c2b}.cls-5{fill:#397c71}.cls-6{fill:#ffedd9}.cls-8{fill:#236c60}.cls-9{fill:#ffbdad}.cls-10{fill:#868686}.cls-12{fill:none;stroke:#000931;stroke-linecap:round;stroke-linejoin:round;stroke-width:4px}.cls-13{fill:#9ab7d9}</style></defs><g id="レイヤー_2" data-name="レイヤー 2"><g id="_女_表情パターン" data-name="【女】表情パターン"><g id="体調悪い時"><g id="グループ_335" data-name="グループ 335"><path id="パス_1098" data-name="パス 1098" class="cls-1" d="M179.56 112.2s-2 16.81 6 20.62c0 0-16.61 7.48-18.27-6.62s12.27-14 12.27-14z"/><path id="パス_1099" data-name="パス 1099" class="cls-2" d="M176.69 136.56a12.11 12.11 0 01-6-1.42 10.75 10.75 0 01-5.11-8.73 13.88 13.88 0 012.93-11.36 16 16 0 0111.06-4.61 1.76 1.76 0 011.75 1.78 1.09 1.09 0 010 .18c-.5 4.33-.58 16.15 5 18.82a1.75 1.75 0 01.84 2.34 1.77 1.77 0 01-.87.86 26.5 26.5 0 01-9.6 2.14zm.95-22.4a11.28 11.28 0 00-6.51 3.26 10.54 10.54 0 00-2.06 8.58 7.38 7.38 0 003.34 6.08c2.68 1.51 6.64 1 9.52.17-4.39-4.82-4.5-13.92-4.29-18.09z"/></g><g id="グループ_336" data-name="グループ 336"><path id="パス_1100" data-name="パス 1100" class="cls-1" d="M56.52 22.35s-29 36.42-50.18 31.46c0 0 19.48 13.22 41.8-7.27s8.38-24.19 8.38-24.19z"/><path id="パス_1101" data-name="パス 1101" class="cls-2" d="M22 59.71a32.29 32.29 0 01-16.66-4.44 1.76 1.76 0 011.4-3.18 15.91 15.91 0 003.77.42c19.46 0 44.36-30.93 44.62-31.26a1.78 1.78 0 011.83-.6 7.86 7.86 0 015.39 5.43c1.31 5.3-3.07 12.62-13 21.75S29.63 59.71 22 59.71zm-6.72-4.17C22.56 57.23 34.19 57 47 45.24c11.71-10.75 12.53-16.09 12-18.31a3.93 3.93 0 00-1.88-2.43c-4.41 5.23-23.78 27.43-41.87 31.04z"/></g><g id="グループ_340" data-name="グループ 340"><path id="パス_1107" data-name="パス 1107" class="cls-1" d="M180.81 108c-9.7 33.94-25.12 48.92-14.54 80.66s-57.17 58.18-57.17 58.18l-81.23-42.73C25.66 181.19 27 175.51 31 162s6.17-36.83 1.76-55.34-7.53-54.17 18.03-81.5 69.64-30 103.14-10.58c18.9 11 28.12 28.5 30.83 47.81a91.18 91.18 0 01.83 11.08 118.79 118.79 0 01-4.78 34.53z"/><path id="パス_1108" data-name="パス 1108" class="cls-2" d="M109.1 248.62a1.7 1.7 0 01-.82-.21l-81.23-42.74a1.79 1.79 0 01-.93-1.4c-2.22-23-.92-28.91 3.14-42.73s5.94-36.8 1.74-54.44C27.39 91.91 22 53.41 49.51 24 74.78-3 119.07-7.59 154.82 13.1c17.67 10.23 28.63 27.21 31.68 49.08a95 95 0 01.86 11.3 121.63 121.63 0 01-4.85 35.07 259.76 259.76 0 01-9.13 25.7c-7.4 18.55-12.75 32-5.43 53.91 4.6 13.81-4.15 28.68-25.3 43a191.89 191.89 0 01-32.91 17.37 1.74 1.74 0 01-.64.09zM29.54 203l79.66 41.92c7.24-3 64.75-27.62 55.4-55.68-7.72-23.18-1.89-37.81 5.5-56.33a255.7 255.7 0 009-25.37 117.66 117.66 0 004.71-34 90.08 90.08 0 00-.81-10.91c-2.9-20.76-13.26-36.84-30-46.52C118.7-3.77 76.23.54 52.07 26.37c-26.38 28.21-21.13 65.29-17.65 79.92 4.55 19.08 2.26 42.54-1.78 56.26-3.95 13.45-5.13 18.85-3.1 40.45z"/></g><g id="体"><path class="cls-3" d="M46.87 350.9S56 427.7 58 448.85c1.85 20 17.22 131.41 17.22 131.41h22.14L106.1 394l.33 3v-50.09zM166.25 350.9s-9.18 76.8-11.14 98c-1.86 20-17.22 131.41-17.22 131.41h-22.13L107 394l-.32 3v-50.09z"/><path class="cls-4" d="M36 605h59a4.31 4.31 0 004.3-4.31v-21.83l-41.8-4.17q-1.22-.12-2.43-.12a27.18 27.18 0 00-24.47 15.37l-1.75 3.64A7.93 7.93 0 0036 605zM176.48 605h-59a4.31 4.31 0 01-4.31-4.31v-21.83l41.8-4.17c.81-.08 1.62-.12 2.44-.12a27.15 27.15 0 0124.46 15.37l1.75 3.64a7.93 7.93 0 01-7.14 11.42z"/><g id="グループ_337" data-name="グループ 337"><path id="パス_1102" data-name="パス 1102" class="cls-5" d="M11.84 322.75S10 330.13 14.65 331s21.27 0 21.27 0l9.58-14.33-12.56-2.42z"/><path id="パス_1103" data-name="パス 1103" class="cls-2" d="M22.32 333.17a51 51 0 01-8-.42 5.17 5.17 0 01-3.46-2.3c-1.91-3-.85-7.59-.73-8.11a1.77 1.77 0 011-1.21l21.11-8.5a1.79 1.79 0 011-.09L45.85 315a1.76 1.76 0 011.15 2.67L37.4 332a1.77 1.77 0 01-1.37.78c-.46.02-7.52.39-13.71.39zM13.4 324a7.43 7.43 0 00.43 4.51 1.63 1.63 0 001.16.75 147.72 147.72 0 0020 0l7.62-11.38-9.44-1.82z"/></g><g id="グループ_338" data-name="グループ 338"><path id="パス_1104" data-name="パス 1104" class="cls-6" d="M25.89 331.37s-4.79 28.73 8.27 29.57l2.26-21 7.16 9.75 6.19-28.84z"/><path id="パス_1105" data-name="パス 1105" class="cls-2" d="M34.16 362.69h-.11a9.05 9.05 0 01-6.79-3.58c-6.36-8-3.24-27.22-3.1-28a1.75 1.75 0 011-1.32l23.88-10.51a1.77 1.77 0 012.33.9 1.82 1.82 0 01.11 1.08l-6.2 28.84a1.77 1.77 0 01-2.1 1.35 1.72 1.72 0 01-1-.68l-4.48-6.08-1.77 16.47a1.76 1.76 0 01-1.77 1.53zm-6.67-30.1c-.83 5.77-1.69 19 2.53 24.33a5.76 5.76 0 002.59 1.92l2.06-19.08a1.76 1.76 0 013.17-.85l4.84 6.59 4.64-21.63z"/></g><g id="グループ_341" data-name="グループ 341"><path id="パス_1109" data-name="パス 1109" d="M59.7 165.32c8.51-7.11 17.85-14.63 23.63-14.13s13.31 7.19 13.67 13.38-14.51 10.58-20.7 11.75-22.48 9.17-22.56 1.73a18.56 18.56 0 015.96-12.73z" fill="#1e1e1e"/><path id="パス_1110" data-name="パス 1110" class="cls-2" d="M57.74 182.93a6.59 6.59 0 01-3.91-1 4.49 4.49 0 01-1.83-3.86A20.18 20.18 0 0158.54 164c9.91-8.27 18.61-15.1 24.92-14.54s14.85 7.75 15.24 15c.49 9.24-21.87 13.52-22.1 13.56a57.47 57.47 0 00-6.13 1.83 46.36 46.36 0 01-12.73 3.08zm3.11-16.28A16.89 16.89 0 0055.51 178c0 .75.26.93.37 1 1.89 1.35 9.16-1.07 13.51-2.52a57.49 57.49 0 016.6-2c8-1.49 19.43-5.87 19.22-9.91-.29-5.33-7.24-11.32-12-11.72-5.35-.42-15.56 8.06-22.33 13.71z"/></g><g id="グループ_343" data-name="グループ 343"><path id="パス_1112" data-name="パス 1112" class="cls-5" d="M156 176.53a39.76 39.76 0 018.07 3.19c1.4 1.22 5.15 17.31 4 27.67s2.78 119.66 2.78 119.66 1.56 16.83-11.5 18.6-95.62-6.53-95.62-6.53S36.32 320.39 35 301.1s3.76-81.16 3.76-81.16l13.42-36.59 22.48-6.82z"/><path id="パス_1113" data-name="パス 1113" class="cls-2" d="M153.77 346.48c-22.3 0-87-6.47-90.08-6.78a.52.52 0 01-.27-.1c-1.13-.77-27.69-19.11-29-38.46-1.31-19.1 3.71-80.62 3.76-81.24a.4.4 0 010-.15l13.43-36.6a.61.61 0 01.39-.36L74.48 176h81.69a37.65 37.65 0 018.3 3.31c1.61 1.41 5.36 17.68 4.24 28.17-1.08 10.2 2.75 118.49 2.79 119.59a26.92 26.92 0 01-.88 8.8c-1.69 6-5.54 9.63-11.13 10.39a47 47 0 01-5.72.22zM64 338.55c4 .4 82.76 8.22 95.34 6.52 12.36-1.68 11-17.8 11-18-.17-4.49-3.88-109.49-2.79-119.78 1.12-10.5-2.81-26.21-3.85-27.16a36 36 0 00-7.77-3h-81.2l-22.11 6.71-13.29 36.23c-.21 2.55-5 62.29-3.75 81C36.81 319.19 62 337.17 64 338.55z"/></g><g id="グループ_345" data-name="グループ 345"><path id="パス_1115" data-name="パス 1115" class="cls-5" d="M191.79 328.15c1.32 4.85.22 8.93-1.54 10.25a38.61 38.61 0 01-22.25 3.86c-9.92-1.55-8.6-8.83-8.6-8.83l13.22-16.52z"/><path id="パス_1116" data-name="パス 1116" class="cls-2" d="M172.64 344.36a33.05 33.05 0 01-4.87-.36 12.24 12.24 0 01-8.52-4.55 9 9 0 01-1.54-6.33 1.77 1.77 0 01.35-.79l13.23-16.52a1.77 1.77 0 012.27-.42l19.12 11.24a1.82 1.82 0 01.81 1.05c1.37 5 .45 10.14-2.19 12.12a39.75 39.75 0 01-18.66 4.56zm-11.49-10.23a5.44 5.44 0 001 3.33 9 9 0 006.15 3.05 37.25 37.25 0 0020.89-3.51c.87-.66 2-3.54 1.07-7.69l-17.17-10.1z"/></g><g id="グループ_346" data-name="グループ 346"><path id="パス_1117" data-name="パス 1117" class="cls-6" d="M184.91 339.25s-5.14 33.76-14.06 34.09c-2.37.08 3.71-20.11 2.4-24.87-.75-2.75-4.8 10.23-5.83 7.94-3.9-8.7-5.83-29.36-5.83-29.36z"/><path id="パス_1118" data-name="パス 1118" class="cls-2" d="M170.83 375.09a2.11 2.11 0 01-1.61-.74c-1.17-1.36-.78-4.1.75-12.22.44-2.34 1-5.11 1.32-7.55-1.26 2.57-2.1 3.87-3.56 3.87a2.13 2.13 0 01-1.89-1.31c-4-8.87-5.89-29.07-6-29.92a1.77 1.77 0 012.57-1.73l23.32 12.2a1.76 1.76 0 01.93 1.82c-.89 5.87-5.86 35.22-15.74 35.58zm2.08-28.78h.21A2.1 2.1 0 01175 348c.7 2.55-.15 7.51-1.52 14.79-.52 2.79-1.2 6.37-1.35 8.34 4.51-2.88 8.95-19.05 10.9-30.9l-19.28-10.08a136 136 0 004.36 23l.81-1.67c1.54-3.4 2.38-5.17 3.99-5.17z"/></g><g id="グループ_348" data-name="グループ 348"><path id="パス_1120" data-name="パス 1120" class="cls-5" d="M166.5 188.87c11.12 16.2 10.5 31.41 11.5 48.93s0 37.9 24 73.61c0 0 .33 4.84-5.79 10.13s-4.79 7.94-8.31 7.94-21.38-.88-21.38-.88l-28.27-18.08v-63.47l3.3-23.86"/><path id="パス_1121" data-name="パス 1121" class="cls-2" d="M187.87 331.24c-3.53 0-20.73-.84-21.46-.89a1.74 1.74 0 01-.86-.27L137.28 312a1.77 1.77 0 01-.81-1.49v-63.46a1.93 1.93 0 010-.24l3.3-23.86a1.76 1.76 0 013.5.43v.06L140 247.17v62.39l27.06 17.29c2.83.14 17.69.86 20.82.86.92 0 .95 0 1.91-1.48a25.86 25.86 0 015.26-6 13.15 13.15 0 005.16-8.29c-22.07-33-23-53.37-23.79-69.77-.07-1.44-.14-2.85-.21-4.25-.12-2.05-.21-4.06-.3-6.05-.7-15.07-1.3-28.08-10.85-42a1.76 1.76 0 112.82-2.11.44.44 0 01.08.11c10.12 14.73 10.78 28.86 11.47 43.82.09 2 .18 4 .3 6 .08 1.42.15 2.84.21 4.3.79 16.87 1.68 36 23.51 68.43a1.73 1.73 0 01.29.86c0 .23.32 5.79-6.39 11.59a22.62 22.62 0 00-4.61 5.29 5.21 5.21 0 01-4.87 3.08z"/></g><g id="グループ_349" data-name="グループ 349"><path id="パス_1122" data-name="パス 1122" class="cls-5" d="M67 216.85l-3.77 22.6V297s-25.46 21.15-28.6 23.63-19.34 2.81-22.81 2.15-10.06-12.26-10.06-12.26c7.61-6.94 13.89-27.77 15.21-54.21s10.67-57.17 22.21-66.59l16-3.49 9.52 11.57"/><path id="パス_1123" data-name="パス 1123" class="cls-2" d="M17.56 324.8a42.22 42.22 0 01-6-.31c-4-.76-9.64-10.21-11.28-13.09a1.78 1.78 0 01.34-2.18c7.51-6.86 13.4-28.16 14.64-53 1.26-25.21 10.15-57.49 22.86-67.86a1.71 1.71 0 01.74-.36l16-3.49a1.77 1.77 0 011.74.6l9.52 11.57a1.77 1.77 0 11-2.73 2.24l-8.83-10.74L40 191.35c-10.39 8.92-19.88 37.9-21.24 65-1.26 25-7 46.05-14.76 54.41 3.18 5.32 6.88 10 8.2 10.21 6.24 1.19 20-.66 21.39-1.8 2.82-2.22 24-19.78 27.93-23.08v-56.64a1.37 1.37 0 010-.29l3.77-22.6a1.77 1.77 0 013.48.58L65 239.59V297a1.75 1.75 0 01-.63 1.35c-1 .87-25.5 21.2-28.63 23.67-2.74 2.11-11.81 2.78-18.18 2.78z"/></g><g id="グループ_350" data-name="グループ 350"><path id="パス_1124" data-name="パス 1124" class="cls-5" d="M45.51 338.29c-3.91 3.14-7.55 14 1.21 17.35s8.76 1 25.62 3.81 46 2.3 59.83 1.48 35.86-.66 37.93-7.44-.21-11.15-4-11-54.21-4.17-54.21-4.17l-59.67-1.16z"/><path id="パス_1125" data-name="パス 1125" class="cls-2" d="M108.26 362.17a242.43 242.43 0 01-36-2.15 122.32 122.32 0 00-14.79-1.65 29.76 29.76 0 01-10.94-2.18 8.26 8.26 0 01-5.66-6.67 13.89 13.89 0 014.28-11.69.45.45 0 01.27-.12l6.66-1.16 59.78 1.15c.54 0 50.45 4.32 54.18 4.18a4.76 4.76 0 014 1.88c1.65 2.17 1.88 5.78.63 9.9-1.89 6.18-17.83 6.9-31.88 7.53-2.31.11-4.53.21-6.58.33-6.29.37-14.88.65-23.95.65zm-62.5-23.33a12.89 12.89 0 00-3.76 10.5 7.11 7.11 0 004.91 5.75 28.53 28.53 0 0010.6 2.1 120.37 120.37 0 0114.91 1.67c16.33 2.73 44.65 2.37 59.7 1.48 2.05-.12 4.28-.22 6.6-.33 12.31-.55 29.17-1.31 30.81-6.69 1.15-3.77 1-7-.44-8.85a3.45 3.45 0 00-3-1.42c-3.79.11-52.22-4-54.28-4.18l-59.63-1.16z"/></g><g id="グループ_351" data-name="グループ 351"><path id="パス_1126" data-name="パス 1126" class="cls-8" d="M58.92 278c0 12.27 1.07 23.3-4.76 23.3S37.8 290.24 37.8 278c0-4.92-.48-13.08.81-16.76 1.92-5.5 6.25-5.45 9.75-5.45 5.83-.03 10.56 9.91 10.56 22.21z"/></g><g id="グループ_352" data-name="グループ 352"><path id="パス_1127" data-name="パス 1127" class="cls-8" d="M165.69 287.05c0 12.26-4.72 22.21-10.55 22.21s-10.55-9.95-10.55-22.21 4.72-22.21 10.55-22.21c4 0 8.77-.56 10.55 6.34.82 3.16 0 12.02 0 15.87z"/></g><g id="グループ_353" data-name="グループ 353"><path id="パス_1128" data-name="パス 1128" class="cls-6" d="M56.75 177.63s21.7-10.55 34.81-10.45 43.09 3.73 46.39 6.26-24.27 41.15-34.86 38.7-43.81-23.93-43.81-23.93z"/><path id="パス_1129" data-name="パス 1129" class="cls-2" d="M104 214a5.94 5.94 0 01-1.32-.15c-10.76-2.48-43-23.28-44.37-24.17a1.77 1.77 0 01-.76-1.07L55 178a1.76 1.76 0 01.95-2c.89-.44 22-10.64 35.4-10.64h.19C103.57 165.5 135 169 139 172c1.74 1.34.81 4-.32 6.38C134.26 187.86 114.76 214 104 214zm-43.18-26.9c4.5 2.88 33.25 21.14 42.66 23.32.88.21 3.56.16 9.25-4.62 11.23-9.45 22.92-27.35 23.69-31.21-4.57-2.1-31.63-5.55-44.88-5.65h-.17c-10.78 0-27.81 7.48-32.58 9.68z"/></g><g id="グループ_354" data-name="グループ 354"><path id="パス_1130" data-name="パス 1130" class="cls-5" d="M151.21 212.46c10.58 5.62 16.42 25 9 48.78-1.24 4-3.55 2.95-6.29 13.72-1.41 5.55 1.65 14.52 4 24.1 2.18 9 9.94 23.59 10 23.78a19.12 19.12 0 01-1.87 19.63c-4 5.83-34.38 5.74-59.62 6.08s-53.77-6.08-53.77-6.08S41.75 340 39.2 326.11s3.75-14.39 8.31-28.48c3-9.29 4.53-18 1.41-28.75-1.62-5.58.11 1.2-3.42-7.67-4.92-12.38-7.18-45.65 8.24-50.53"/><path id="パス_1131" data-name="パス 1131" class="cls-2" d="M104.57 350.32a282 282 0 01-52.29-6.13c-.5-.12-12.08-2.95-14.81-17.76a22.49 22.49 0 013.33-18.33 53.71 53.71 0 005-11c3-9.21 4.36-17.45 1.39-27.71-.1-.36-.38-1.3-.55-1.82a17.8 17.8 0 01-2.81-5.69c-4-10-6-31.55-.16-43.8a16 16 0 019.55-9.08 1.77 1.77 0 011.06 3.36 12.61 12.61 0 00-7.39 7.2c-5.33 11.22-3.41 31.77.25 41a42 42 0 001.86 4.29c.69.42.91 1.19 1.6 3.54 3.4 11.79 1.4 21.28-1.4 29.78a57.65 57.65 0 01-5.33 11.66c-2.77 4.87-4.44 7.82-2.93 16 2.3 12.55 12 14.93 12.12 14.95.27.06 28.66 6.36 53.35 6l5.42-.06c20.93-.25 49.6-.58 52.76-5.25a17.26 17.26 0 001.71-17.93l-.1-.18c-2.39-4.61-8.15-16.2-10-23.89-.46-1.9-.95-3.77-1.43-5.61-2-7.76-3.78-14.45-2.54-19.33 1.83-7.19 3.57-9.49 4.83-11.17a7.63 7.63 0 001.47-2.64c7.34-23.62 1.27-41.69-8.16-46.7a1.76 1.76 0 111.63-3.12c5.87 3.12 10.19 9.78 12.15 18.75a63.69 63.69 0 01-2.28 32.11 11.07 11.07 0 01-2 3.72c-1.15 1.52-2.58 3.4-4.23 9.9-1 4 .71 10.6 2.52 17.57.48 1.86 1 3.76 1.45 5.68 1.77 7.32 7.39 18.59 9.72 23.1.12.24.19.39.21.41a20.74 20.74 0 01-2 21.31c-3.9 5.74-24.56 6.41-55.64 6.78l-5.41.06c-.66.01-1.29.03-1.92.03z"/></g><g id="グループ_355" data-name="グループ 355"><path id="パス_1132" data-name="パス 1132" class="cls-5" d="M105 212.45s32.28-33.71 31.29-36.8-6.16-6.65-18.29-6.39l-4.35-4a71.19 71.19 0 018-3.06c6.57-2.27 22.45-6.64 26.69-4.65a15.14 15.14 0 018 10.8c.66 4.19 3.08 4 4.4 6.61s2.65 7.21 0 9.78-11.9 5.43-16.75 9.17-25.54 18.98-38.99 18.54z"/><path id="パス_1133" data-name="パス 1133" class="cls-2" d="M105.57 214.23H105a1.77 1.77 0 01-1.71-1.82 1.74 1.74 0 01.49-1.16c14.29-14.93 29.44-32 30.77-35.35-1-2-5.35-5.08-16.46-4.87a1.75 1.75 0 01-1.23-.46l-4.35-4a1.76 1.76 0 01-.11-2.49 1.84 1.84 0 01.46-.36 72.11 72.11 0 018.28-3.18c.21-.07 21.9-7.44 28-4.58a17 17 0 019 12.12 4.57 4.57 0 001.93 3.33 8.58 8.58 0 012.31 2.77c.91 1.81 3.57 8-.35 11.83a31.66 31.66 0 01-7.76 4.35 52.42 52.42 0 00-9.14 5c-4.13 3.17-25.21 18.87-39.56 18.87zm13.54-46.74c15.22 0 18.29 5.81 18.87 7.62.44 1.36.93 2.9-15.64 21.28a884.41 884.41 0 01-12.87 13.92c13.35-2.47 31.26-16.06 33.47-17.76a54.33 54.33 0 019.81-5.37 32.55 32.55 0 006.79-3.68c1.75-1.69.9-5.22-.35-7.72a5.15 5.15 0 00-1.47-1.68 8 8 0 01-3.1-5.44 13.46 13.46 0 00-7-9.48c-3.09-1.44-16.86 1.78-25.38 4.73-2.46.85-4.19 1.48-5.37 1.94l1.8 1.65z"/></g><g id="グループ_356" data-name="グループ 356"><path id="パス_1134" data-name="パス 1134" class="cls-5" d="M61.64 149.54c-16.36 5-16.57 10.46-18.78 14s-7.27 12.79-6.61 17.85S38.89 190.86 42 192s6.39 0 13.22 3.08S104 212.45 104 212.45s-47.25-32.62-47.25-34.81.89-5.29 2.87-5.95a10.56 10.56 0 007.27-5.51 19.36 19.36 0 019.59-8.37c2.09-.45-6.38-8.27-6.38-8.27z"/><path id="パス_1135" data-name="パス 1135" class="cls-2" d="M104 214.22a1.56 1.56 0 01-.57-.1c-1.72-.58-42.11-14.38-48.94-17.47a25 25 0 00-9-2.31 16 16 0 01-4.06-.73c-3.5-1.24-6.07-5.73-6.89-12-.84-6.46 6.08-17.74 6.87-19 .29-.47.56-1 .85-1.6 1.83-3.69 4.33-8.73 18.9-13.15a1.79 1.79 0 01.51-.07h8.43a1.74 1.74 0 011.19.46c7.88 7.28 7.42 9 7.2 9.77a2.13 2.13 0 01-1.65 1.53 18.08 18.08 0 00-8.32 7.31 11.92 11.92 0 01-8.1 6.43l-.25.08c-.79.27-1.52 2-1.64 3.8 3.12 3.41 29.86 22.36 46.47 33.83a1.76 1.76 0 01-1 3.21zm-42.1-62.91c-12.9 3.95-14.9 8-16.52 11.26a20.27 20.27 0 01-1 1.9c-2.45 3.91-6.92 12.43-6.36 16.69.63 4.78 2.42 8.37 4.57 9.14a13 13 0 003.21.55 28.64 28.64 0 0110.15 2.59c4.38 2 23.73 8.76 36.67 13.23-3.95-2.76-8.62-6-13.26-9.36C55 179.92 55 178.92 55 177.64c0-3 1.28-6.69 4.07-7.62l.26-.09a8.64 8.64 0 005.94-4.42 21.17 21.17 0 019.23-8.81 55.18 55.18 0 00-5.08-5.4z"/></g><g id="グループ_357" data-name="グループ 357"><path id="パス_1136" data-name="パス 1136" class="cls-9" d="M117.35 174.77s-4 2.3-13.11 2.3-11.74-2.3-11.74-2.3v-13h24.84z"/></g><g id="グループ_360" data-name="グループ 360"><path id="パス_1140" data-name="パス 1140" class="cls-2" d="M94.58 186.56a1.19 1.19 0 01-.56-.14l-9.35-5a1.18 1.18 0 111.12-2.07l9.34 5a1.16 1.16 0 01.49 1.58 1.19 1.19 0 01-1 .63z"/></g><g id="グループ_361" data-name="グループ 361"><path id="パス_1141" data-name="パス 1141" class="cls-2" d="M113.66 186.56a1.17 1.17 0 01-.56-2.21l9.36-5a1.17 1.17 0 111.11 2.07l-9.35 5a1.19 1.19 0 01-.56.14z"/></g><g id="グループ_362" data-name="グループ 362"><path id="パス_1142" data-name="パス 1142" class="cls-2" d="M109.28 236a15.67 15.67 0 01-4.88-.91c-3.81-1.29-8.13-4-7.76-7.43a74.28 74.28 0 012.1-9.32c2-6.84 2.74-7.35 3.27-7.68a1.86 1.86 0 011.21-.3l5.27.11a1.75 1.75 0 011.61 1.12c1.61 4.11 6.69 17.86 4.12 22.13a5.41 5.41 0 01-4.94 2.28zm-5.35-22.1a77.5 77.5 0 00-3.77 14.15c-.06.54 1.7 2.45 5.38 3.7 3.13 1.05 5.31.77 5.68.15 1.06-1.77-1.14-10.47-4-17.94z"/></g><g id="グループ_363" data-name="グループ 363"><path id="パス_1143" data-name="パス 1143" class="cls-2" d="M105 216.89c1.65-.34 3.11 1.49 3.19 4.59s.42 5.7-2.72 4.91a3.52 3.52 0 01-2.52-4.31 2.4 2.4 0 01.12-.38c.17-1.05.31-4.48 1.93-4.81z"/></g><g id="グループ_364" data-name="グループ 364"><path id="パス_1144" data-name="パス 1144" class="cls-2" d="M99.26 350.23a1.77 1.77 0 01-1.76-1.68c-.35-7.06.34-37.13.8-57 .15-6.28.27-11.49.32-14.52.21-12.44 1.52-44.66 1.53-45a1.76 1.76 0 013.52.14c0 .32-1.31 32.5-1.52 44.9-.06 3-.18 8.25-.32 14.54-.46 19.85-1.15 49.85-.8 56.77a1.77 1.77 0 01-1.68 1.85z"/></g><g id="グループ_365" data-name="グループ 365"><path id="パス_1145" data-name="パス 1145" class="cls-2" d="M108.25 350.23a1.77 1.77 0 01-1.77-1.75c0-6 .07-19.63.21-35.38.28-31.05.66-73.59-.18-78.62a1.77 1.77 0 113.46-.7.5.5 0 000 .12c.89 5.34.52 46.31.23 79.23-.14 15.73-.26 29.31-.21 35.32a1.76 1.76 0 01-1.75 1.78z"/></g><g id="グループ_368" data-name="グループ 368"><path id="パス_1149" data-name="パス 1149" class="cls-2" d="M91.56 174.66a1.76 1.76 0 01-1.76-1.76v-11.44a1.76 1.76 0 113.52-.12v11.56a1.76 1.76 0 01-1.76 1.76z"/></g><g id="グループ_369" data-name="グループ 369"><path id="パス_1150" data-name="パス 1150" class="cls-2" d="M117.35 176.09a1.76 1.76 0 01-1.76-1.76V161.8a1.76 1.76 0 013.52 0v12.53a1.76 1.76 0 01-1.76 1.76z"/></g><g id="グループ_372" data-name="グループ 372"><path id="パス_1152" data-name="パス 1152" class="cls-8" d="M159.39 318.05a4 4 0 01-1.68 2.16c-4.2 2.21-10.25-1.42-16.2.35a43.59 43.59 0 01-20.93 0c-6.29-1.66-2.54-8.16 11.79-11.47s13-11.49 19.5-9.81a8.88 8.88 0 013.95 2.22 54.1 54.1 0 003.08 15.41z"/></g><g id="グループ_373" data-name="グループ 373"><path id="パス_1153" data-name="パス 1153" class="cls-8" d="M137.14 274.82c-7.81 1.42-18.51-8.43-17.2-14.38s29.26-5.45 31.07 1-10.24 12.72-13.87 13.38z"/></g><g id="グループ_374" data-name="グループ 374"><path id="パス_1154" data-name="パス 1154" class="cls-8" d="M69.29 274.82c7.81 1.42 18.51-8.43 17.2-14.38s-29.26-5.45-31.08 1 10.25 12.72 13.88 13.38z"/></g></g><g id="グループ_342" data-name="グループ 342"><path id="パス_1111" data-name="パス 1111" class="cls-2" d="M155.57 167.74a1.75 1.75 0 01-1.54-.9c-5.32-9.44 1.24-26.66 1.52-27.39a1.76 1.76 0 013.29 1.27c-.07.17-6.24 16.41-1.74 24.39a1.76 1.76 0 01-.67 2.4 1.73 1.73 0 01-.86.23z"/></g><g id="グループ_358" data-name="グループ 358"><path id="パス_1137" data-name="パス 1137" class="cls-6" d="M161.64 104.28s6.13 25.85-6 39.61c-11.95 13.55-30.57 18.56-50 18.12-19.39.44-38-4.57-50-18.12-12.14-13.76-6-39.61-6-39.61s38.73-62.81 53.22-64.58 55-1.76 58.78 64.58"/><path id="パス_1138" data-name="パス 1138" class="cls-2" d="M103.27 163.8c-15.27 0-35.39-3.43-48.9-18.74-12.6-14.28-6.66-40.1-6.4-41.19a1.67 1.67 0 01.21-.52c4-6.5 39.56-63.58 54.46-65.4 10.63-1.29 26-.58 38.83 10.16 13 10.9 20.41 29.72 21.92 55.91.55 2.42 5.79 27.17-6.44 41-14.21 16.11-35.77 19.06-51.33 18.72zm2.35-3.55c14.91.34 35.37-2.43 48.69-17.53 11.4-12.92 5.67-37.79 5.61-38a1.55 1.55 0 010-.31c-1.43-25.26-8.39-43.28-20.67-53.56-11.87-9.93-26.21-10.57-36.14-9.36-3.1.38-11.21 5.06-30.79 32.22C61.75 88.27 52.63 102.87 51.34 105c-.58 2.72-5.07 25.59 5.68 37.77 13.31 15.1 33.78 17.87 48.6 17.53z"/></g><g id="グループ_366" data-name="グループ 366"><path id="パス_1146" data-name="パス 1146" class="cls-1" d="M165.39 48.74c17.63 46.28 4 71.62 4 71.62 0-3.52-10.13-18.51-15.64-28s-10.81-36.6-10.81-36.6c-11.23 32.18-45 44.52-45 44.52 9-17.85 3.89-39.89 3.89-39.89s-30.46 9.54-53.43 64.39c0 0-13.15-34.61 5-64.36.3-.49.61-1 .93-1.47A68.44 68.44 0 0170.51 41.4a65.49 65.49 0 0131.28-13"/><path id="パス_1147" data-name="パス 1147" class="cls-2" d="M48.41 126.55a1.79 1.79 0 01-1.62-1.14c-.58-1.41-13.28-35.77 5.14-65.91.3-.47.59-.94.89-1.39l.06-.12A70.41 70.41 0 0169.44 40a66.6 66.6 0 0132.21-13.4 1.74 1.74 0 011.88 1.59 1.76 1.76 0 01-1.61 1.89A64.19 64.19 0 0071.57 42.8a67.08 67.08 0 00-15.65 17s-.05.1-.08.14c-.31.47-.61 1-.9 1.43-13.75 22.48-9 48.19-6.26 58.35 22.75-51.11 51.33-60.57 52.57-61a1.76 1.76 0 012.21 1.15v.14c.2.85 4.41 19.64-2.18 36.86 9.17-4.41 31.39-17.24 39.92-41.68A1.74 1.74 0 01143 54a1.78 1.78 0 011.61 1.42c.05.27 5.29 27 10.59 36.06 1.55 2.66 3.44 5.71 5.43 8.94 4 6.44 7 11.41 8.76 15 2.89-8.84 7.43-31.61-5.68-66A1.76 1.76 0 11167 48.1c17.72 46.5 4.44 72 3.87 73.09a1.77 1.77 0 01-3.32-.84c0-2-6-11.67-9.91-18.06-2-3.25-3.92-6.33-5.49-9-4.07-7-7.92-22.85-9.81-31.42-12.91 28.5-42.52 39.61-43.85 40.13a1.76 1.76 0 01-2.18-2.45c7-14 5.1-30.88 4.14-36.65C93.59 66 69.12 79.86 50 125.46a1.78 1.78 0 01-1.59 1.09z"/></g><g id="グループ_370" data-name="グループ 370"><path id="パス_1151" data-name="パス 1151" class="cls-9" d="M106 127.65c-3.76 1.24-6.38.69-4.71-1.87s2.87-2.42 5.29-2.31 5.52 3 3.85 4.29-3.05-.57-4.43-.11z"/></g><g id="グループ_371" data-name="グループ 371"><ellipse id="楕円形_27" data-name="楕円形 27" class="cls-2" cx="105.66" cy="128.1" rx="1.04" ry="1.15"/></g><g id="グループ_392" data-name="グループ 392"><path id="パス_1165" data-name="パス 1165" class="cls-10" d="M75.31 55.83c-1.85 7-8.13 11.37-14 9.8a10.41 10.41 0 01-7-6.68A68.65 68.65 0 0170.52 41.4a12.84 12.84 0 014.79 14.43z"/></g><g id="グループ_393" data-name="グループ 393"><ellipse id="楕円形_32" data-name="楕円形 32" class="cls-10" cx="77.05" cy="59.16" rx="5.45" ry="4.58" transform="rotate(-75.06 77.045 59.162)"/></g><g id="グループ_394" data-name="グループ 394"><path id="パス_1166" data-name="パス 1166" class="cls-10" d="M185.6 73.47a4.47 4.47 0 01-2.12.53 6 6 0 010-11.8 4.19 4.19 0 011.27.18 91.52 91.52 0 01.85 11.09z"/></g><g id="グループ_395" data-name="グループ 395"><ellipse id="楕円形_33" data-name="楕円形 33" class="cls-10" cx="173.19" cy="68.49" rx="3.14" ry="2.57" transform="rotate(-24.11 173.187 68.492)"/></g><g id="グループ_396" data-name="グループ 396"><path id="パス_1167" data-name="パス 1167" class="cls-2" d="M46.71 158.65a1.77 1.77 0 01-1.5-2.69c5.59-9.12 2.15-26.18 2.11-26.35a1.77 1.77 0 113.46-.72c.15.75 3.77 18.59-2.56 28.91a1.76 1.76 0 01-1.51.85z"/></g><g id="グループ_397" data-name="グループ 397"><path id="パス_1168" data-name="パス 1168" class="cls-2" d="M97.9 102.07a1.76 1.76 0 01-1.76-1.77 1.79 1.79 0 01.67-1.37c25-19.52 24-43.12 24-43.35a1.76 1.76 0 013.52-.21c.07 1 1.27 25.62-25.3 46.34a1.7 1.7 0 01-1.13.36z"/></g><g id="グループ_401" data-name="グループ 401"><ellipse id="楕円形_34" data-name="楕円形 34" class="cls-9" cx="65.88" cy="140.69" rx="7.97" ry="3.8"/></g><g id="グループ_402" data-name="グループ 402"><ellipse id="楕円形_35" data-name="楕円形 35" class="cls-9" cx="146.53" cy="140.69" rx="7.97" ry="3.8"/></g><path d="M115.66 145.26s-2.31-1.84-4.69-1.15c-1.36.39-3.41 1.63-4.91 1.63-1.81 0-4.16-1.68-5.7-2.18-2-.65-4.69.78-4.69.78" stroke-width="2.62" fill="none" stroke="#000931" stroke-linecap="round" stroke-linejoin="round"/><path class="cls-3" d="M67.78 93.83s4.88.64 13.15 1.6a25.3 25.3 0 0014.56-2.75S89 99.19 80.58 98s-12.8-4.17-12.8-4.17z"/><path class="cls-12" d="M88.26 113.24c-8.47-8.48-23.49-9.93-32-9.93"/><path class="cls-3" d="M73 103.61s-2.82-3.22-3-5.43a.3.3 0 00-.48-.23c-.92.65-2.8 2.26-2.33 4.44zM60.36 103.72s-3.49-2.46-4.2-4.57a.31.31 0 00-.52-.11c-.75.85-2.19 2.86-1.22 4.87zM141.33 93.83s-4.88.64-13.15 1.6a25.3 25.3 0 01-14.56-2.75s6.54 6.51 14.91 5.33 12.8-4.18 12.8-4.18z"/><path class="cls-12" d="M120.85 113.24c8.47-8.48 23.49-9.93 32-9.93"/><path class="cls-3" d="M136.12 103.61s2.82-3.22 3-5.43a.3.3 0 01.48-.23c.93.65 2.8 2.26 2.33 4.44zM148.75 103.72s3.49-2.46 4.2-4.57a.31.31 0 01.52-.11c.75.85 2.19 2.86 1.22 4.87z"/><path class="cls-13" d="M47.73 21.5S31.67-5.77 20.26 1.12C11.12 10.75 47.73 21.5 47.73 21.5zM40.6 27s-17.8-13.8-23.76-6.28C13.12 29.44 40.6 27 40.6 27z"/></g></g></g></svg>