<svg xmlns="http://www.w3.org/2000/svg" width="107" height="86"><defs><clipPath id="a"><path data-name="長方形 217" transform="translate(-7305 3943)" fill="#fff" stroke="#707070" d="M0 0h107v86H0z"/></clipPath></defs><g data-name="マスクグループ 13" transform="translate(7305 -3943)" clip-path="url(#a)"><g data-name="グループ 335"><g data-name="パス 1098"><path data-name="パス 2307" d="M-7220.293 3989.994s-.792 6.765 2.429 8.3c0 0-6.686 3.01-7.354-2.661s4.925-5.639 4.925-5.639z" fill="#535353"/></g><g data-name="パス 1099"><path data-name="パス 2308" d="M-7221.45 3999.795a4.887 4.887 0 01-2.42-.569 4.334 4.334 0 01-2.056-3.514 5.587 5.587 0 011.182-4.572 6.434 6.434 0 014.45-1.857.711.711 0 01.7.717.67.67 0 010 .074c-.2 1.742-.232 6.5 2.025 7.572a.709.709 0 01-.013 1.288 10.63 10.63 0 01-3.868.861zm.382-9.013a4.538 4.538 0 00-2.621 1.312 4.249 4.249 0 00-.828 3.452 2.97 2.97 0 001.346 2.448 5.419 5.419 0 003.831.066c-1.769-1.938-1.813-5.6-1.727-7.277z" fill="#000333"/></g></g><g data-name="グループ 336"><g data-name="パス 1100"><path data-name="パス 2309" d="M-7269.812 3953.835s-11.683 14.655-20.2 12.659c0 0 7.84 5.322 16.825-2.927s3.375-9.732 3.375-9.732z" fill="#535353"/></g><g data-name="パス 1101"><path data-name="パス 2310" d="M-7283.717 3968.867a12.976 12.976 0 01-6.691-1.786.709.709 0 01.56-1.278 6.675 6.675 0 001.519.169c7.832 0 17.852-12.447 17.959-12.581a.711.711 0 01.736-.244 3.17 3.17 0 012.168 2.186c.526 2.133-1.237 5.077-5.241 8.754-4.053 3.722-7.926 4.78-11.01 4.78zm-2.705-1.677c2.945.681 7.622.569 12.758-4.146 4.712-4.325 5.045-6.473 4.823-7.368a1.589 1.589 0 00-.759-.977c-1.745 2.103-9.541 11.04-16.822 12.491z" fill="#000333"/></g></g><g data-name="グループ 340"><g data-name="パス 1107"><path data-name="パス 2311" d="M-7219.793 3988.315c-3.9 13.656-10.108 19.686-5.851 32.458s-23.006 23.411-23.006 23.411l-32.69-17.2c-.889-9.224-.355-11.508 1.239-16.929s2.483-14.824.71-22.274-3.013-21.816 7.275-32.812 28.027-12.062 41.507-4.257c7.606 4.4 11.32 11.466 12.407 19.237a36.672 36.672 0 01.338 4.46 47.887 47.887 0 01-1.929 13.906z" fill="#535353"/></g><g data-name="パス 1108"><path data-name="パス 2312" d="M-7248.65 4044.894a.7.7 0 01-.331-.084l-32.69-17.2a.708.708 0 01-.375-.559c-.891-9.24-.371-11.635 1.266-17.2 1.627-5.516 2.389-14.812.7-21.91-1.456-6.112-3.643-21.606 7.447-33.462 10.169-10.872 27.994-12.716 42.38-4.389 7.114 4.119 11.522 10.95 12.749 19.754a37.462 37.462 0 01.348 4.547 48.873 48.873 0 01-1.952 14.113 104.681 104.681 0 01-3.675 10.343c-2.979 7.467-5.131 12.861-2.185 21.7 1.852 5.556-1.669 11.54-10.182 17.308a76.937 76.937 0 01-13.241 6.991.7.7 0 01-.259.048zm-32.02-18.361l32.059 16.871c2.913-1.2 26.059-11.115 22.295-22.408-3.109-9.327-.759-15.215 2.213-22.67a103.172 103.172 0 003.629-10.207 47.417 47.417 0 001.9-13.7 36.186 36.186 0 00-.338-4.376c-1.165-8.356-5.333-14.828-12.055-18.721-13.821-8-30.91-6.266-40.633 4.128-10.62 11.352-8.5 26.275-7.1 32.163 1.829 7.68.909 17.119-.719 22.64-1.587 5.406-2.065 7.588-1.246 16.277z" fill="#000333"/></g></g><g data-name="グループ 1832"><g data-name="グループ 1831"><path data-name="パス 2313" d="M-7273.285 4085.947s3.691 30.908 4.482 39.419c.746 8.032 6.93 52.886 6.93 52.886h8.906l3.518-74.974.131 1.209v-20.147z" fill="#000931"/></g></g><g data-name="グループ 1834"><g data-name="グループ 1833"><path data-name="パス 2314" d="M-7225.244 4085.947s-3.692 30.908-4.482 39.419c-.746 8.032-6.931 52.886-6.931 52.886h-8.905l-3.52-74.974-.13 1.209v-20.147z" fill="#000931"/></g></g><g data-name="グループ 1835"><path data-name="パス 2315" d="M-7277.665 4188.184h23.745a1.731 1.731 0 001.731-1.731v-8.768l-16.823-1.676a9.79 9.79 0 00-.978-.049 10.927 10.927 0 00-9.845 6.187l-.7 1.463a3.191 3.191 0 002.87 4.574z" fill="#5b2c2b"/></g><g data-name="グループ 1836"><path data-name="パス 2316" d="M-7221.126 4188.184h-23.743a1.732 1.732 0 01-1.732-1.731v-8.768l16.823-1.676a9.8 9.8 0 01.979-.049 10.927 10.927 0 019.845 6.187l.7 1.463a3.191 3.191 0 01-2.872 4.574z" fill="#5b2c2b"/></g><g data-name="グループ 337"><g data-name="パス 1102"><path data-name="パス 2317" d="M-7287.381 4074.617s-.732 2.971 1.13 3.326 8.561 0 8.561 0l3.855-5.765-5.055-.976z" fill="#397c71"/></g><g data-name="パス 1103"><path data-name="パス 2318" d="M-7283.165 4078.81a20.882 20.882 0 01-3.218-.169 2.075 2.075 0 01-1.394-.928 4.766 4.766 0 01-.292-3.262.708.708 0 01.422-.489l8.5-3.418a.706.706 0 01.4-.038l5.056.976a.71.71 0 01.456 1.091l-3.855 5.765a.713.713 0 01-.553.314c-.19.01-3.033.158-5.522.158zm-3.591-3.679a3.023 3.023 0 00.174 1.814.656.656 0 00.465.3 59.308 59.308 0 008.036.006l3.063-4.58-3.8-.733z" fill="#000333"/></g></g><g data-name="グループ 338"><g data-name="パス 1104"><path data-name="パス 2319" d="M-7281.727 4078.085s-1.929 11.563 3.326 11.9l.91-8.447 2.881 3.925 2.493-11.605z" fill="#ffedd9"/></g><g data-name="パス 1105"><path data-name="パス 2320" d="M-7278.401 4090.692h-.047a3.666 3.666 0 01-2.733-1.442c-2.556-3.219-1.3-10.953-1.247-11.28a.708.708 0 01.413-.532l9.61-4.231a.71.71 0 01.98.8l-2.493 11.6a.71.71 0 01-1.266.27l-1.8-2.447-.715 6.631a.71.71 0 01-.702.631zm-2.685-12.114c-.332 2.321-.681 7.651 1.018 9.79a2.324 2.324 0 001.043.775l.829-7.68a.71.71 0 011.278-.344l1.946 2.652 1.869-8.7z" fill="#000333"/></g></g><g data-name="グループ 341"><g data-name="パス 1109"><path data-name="パス 2321" d="M-7268.123 4011.259c3.426-2.86 7.184-5.887 9.512-5.688s5.355 2.894 5.486 5.388-5.823 4.257-8.315 4.726-9.046 3.692-9.08.7a7.472 7.472 0 012.397-5.126z" fill="#1e1e1e"/></g><g data-name="パス 1110"><path data-name="パス 2322" d="M-7268.91 4018.349a2.666 2.666 0 01-1.574-.413 1.818 1.818 0 01-.743-1.546 8.139 8.139 0 012.637-5.663l.012-.011c3.987-3.329 7.49-6.076 10.027-5.849 2.574.221 5.979 3.116 6.136 6.056.2 3.718-8.8 5.441-8.893 5.458a22.687 22.687 0 00-2.469.734 18.681 18.681 0 01-5.133 1.234zm1.252-6.553a6.791 6.791 0 00-2.15 4.578c0 .3.105.376.148.406.76.545 3.688-.43 5.436-1.013a22.924 22.924 0 012.656-.783c3.218-.6 7.823-2.363 7.737-3.988-.115-2.145-2.913-4.558-4.84-4.719-2.155-.171-6.263 3.245-8.987 5.52z" fill="#000333"/></g></g><g data-name="グループ 343"><g data-name="パス 1112"><path data-name="パス 2323" d="M-7229.377 4015.772a15.97 15.97 0 013.25 1.283c.564.491 2.071 6.965 1.628 11.134s1.121 48.158 1.121 48.158.627 6.774-4.627 7.484-38.485-2.628-38.485-2.628-11.041-7.539-11.573-15.3 1.512-32.662 1.512-32.662l5.4-14.728 9.047-2.744z" fill="#397c71"/></g><g data-name="パス 1113"><path data-name="パス 2324" d="M-7230.263 4084.168c-8.975 0-35.031-2.606-36.255-2.729a.231.231 0 01-.11-.04c-.455-.31-11.14-7.693-11.677-15.478-.527-7.689 1.492-32.446 1.512-32.7a.266.266 0 01.013-.062l5.412-14.722a.237.237 0 01.154-.144l9.047-2.744a.23.23 0 01.068-.01h32.721a.238.238 0 01.068.01 15.058 15.058 0 013.342 1.329c.649.566 2.158 7.115 1.708 11.338-.436 4.1 1.106 47.684 1.122 48.125a10.89 10.89 0 01-.353 3.545 5.254 5.254 0 01-4.48 4.179 18.741 18.741 0 01-2.292.103zm-36.146-3.193c1.61.161 33.309 3.308 38.371 2.623 4.973-.675 4.43-7.163 4.424-7.228-.065-1.811-1.561-44.067-1.121-48.205.45-4.226-1.13-10.55-1.548-10.932a14.706 14.706 0 00-3.129-1.224h-32.656l-8.9 2.7-5.349 14.586c-.084 1.024-2.025 25.066-1.509 32.593.5 7.3 10.624 14.531 11.422 15.086z" fill="#000333"/></g></g><g data-name="グループ 345"><g data-name="パス 1115"><path data-name="パス 2326" d="M-7214.965 4076.79c.532 1.951.089 3.592-.62 4.124a15.5 15.5 0 01-8.938 1.552c-3.991-.621-3.46-3.55-3.46-3.55l5.321-6.649z" fill="#397c71"/></g><g data-name="パス 1116"><path data-name="パス 2327" d="M-7222.671 4083.313a12.786 12.786 0 01-1.96-.145 4.919 4.919 0 01-3.426-1.829 3.6 3.6 0 01-.622-2.55.712.712 0 01.143-.316l5.321-6.65a.71.71 0 01.913-.169l7.7 4.523a.709.709 0 01.325.422c.554 2.025.184 4.082-.879 4.878a16.028 16.028 0 01-7.515 1.836zm-4.624-4.118a2.18 2.18 0 00.409 1.339 3.607 3.607 0 002.475 1.231 14.978 14.978 0 008.4-1.419c.352-.264.808-1.425.43-3.1l-6.91-4.061z" fill="#000333"/></g></g><g data-name="グループ 346"><g data-name="パス 1117"><path data-name="パス 2328" d="M-7217.731 4081.256s-2.07 13.588-5.661 13.718c-.952.036 1.5-8.09.968-10.008-.3-1.106-1.935 4.119-2.347 3.2-1.569-3.5-2.346-11.816-2.346-11.816z" fill="#ffedd9"/></g><g data-name="パス 1118"><path data-name="パス 2329" d="M-7223.397 4095.682a.855.855 0 01-.649-.3c-.472-.55-.314-1.652.3-4.918.177-.943.388-2.057.529-3.038-.507 1.034-.844 1.555-1.43 1.555h-.013a.844.844 0 01-.76-.528c-1.6-3.568-2.372-11.7-2.4-12.04a.71.71 0 011.035-.695l9.386 4.908a.709.709 0 01.372.735c-.359 2.363-2.359 14.173-6.336 14.32zm.837-11.583h.084a.844.844 0 01.738.675c.283 1.026-.058 3.023-.61 5.953-.211 1.121-.483 2.561-.546 3.356 1.816-1.159 3.605-7.668 4.389-12.437l-7.758-4.056a54.774 54.774 0 001.754 9.258c.117-.237.233-.483.326-.675.633-1.364.973-2.077 1.623-2.077z" fill="#000333"/></g></g><g data-name="グループ 348"><g data-name="パス 1120"><path data-name="パス 2331" d="M-7225.142 4020.738c4.479 6.519 4.213 12.638 4.612 19.689s0 15.255 9.668 29.623c0 0 .134 1.951-2.328 4.08s-1.929 3.193-3.348 3.193-8.6-.354-8.6-.354l-11.376-7.273v-25.544l1.328-9.6" fill="#397c71"/></g><g data-name="パス 1121"><path data-name="パス 2332" d="M-7216.54 4078.031c-1.421 0-8.344-.338-8.638-.356a.7.7 0 01-.347-.111l-11.376-7.273a.708.708 0 01-.328-.6v-25.54a.8.8 0 01.007-.1l1.328-9.6a.71.71 0 011.409.173v.021l-1.323 9.558v25.1l10.887 6.962c1.142.056 7.122.345 8.38.345.369 0 .384-.011.768-.6a10.508 10.508 0 012.118-2.424 5.276 5.276 0 002.076-3.336c-8.88-13.27-9.264-21.476-9.574-28.075-.028-.58-.054-1.15-.085-1.714-.046-.823-.084-1.632-.121-2.432-.28-6.065-.523-11.3-4.367-16.9a.71.71 0 111.136-.85c.012.015.022.031.032.047 4.073 5.927 4.336 11.613 4.615 17.634.037.8.074 1.6.121 2.416.032.568.059 1.143.085 1.728.319 6.79.675 14.488 9.461 27.539a.713.713 0 01.119.348c.006.094.128 2.331-2.572 4.664a9.121 9.121 0 00-1.856 2.129 2.087 2.087 0 01-1.955 1.247z" fill="#000333"/></g></g><g data-name="グループ 349"><g data-name="パス 1122"><path data-name="パス 2333" d="M-7265.176 4031.996l-1.519 9.1v23.147s-10.243 8.514-11.507 9.512-7.783 1.13-9.179.864-4.057-4.922-4.057-4.922c3.06-2.795 5.588-11.175 6.12-21.818s4.294-23.007 8.937-26.8l6.457-1.4 3.831 4.656" fill="#397c71"/></g><g data-name="パス 1123"><path data-name="パス 2334" d="M-7285.082 4075.446a16.6 16.6 0 01-2.432-.127c-1.594-.3-3.882-4.108-4.54-5.267a.709.709 0 01.138-.875c3.022-2.76 5.39-11.332 5.889-21.33.506-10.148 4.086-23.139 9.2-27.312a.707.707 0 01.3-.144l6.457-1.4a.709.709 0 01.7.243l3.828 4.647a.71.71 0 11-1.1.9l-3.556-4.322-5.864 1.276c-4.183 3.587-8 15.252-8.55 26.177-.506 10.071-2.814 18.533-5.939 21.9 1.279 2.141 2.767 4.008 3.3 4.11 2.508.478 8.03-.269 8.608-.725 1.132-.893 9.644-7.964 11.237-9.288v-22.816a.767.767 0 01.01-.118l1.519-9.1a.71.71 0 011.4.234l-1.509 9.037v23.089a.709.709 0 01-.253.545c-.422.349-10.266 8.532-11.522 9.523-1.096.87-4.756 1.143-7.321 1.143z" fill="#000333"/></g></g><g data-name="グループ 350"><g data-name="パス 1124"><path data-name="パス 2335" d="M-7273.832 4080.87c-1.574 1.266-3.038 5.654.488 6.984s3.525.4 10.31 1.53 18.492.928 24.079.6 14.432-.266 15.267-2.993-.084-4.489-1.63-4.439-21.817-1.681-21.817-1.681l-24.013-.465z" fill="#397c71"/></g><g data-name="パス 1125"><path data-name="パス 2336" d="M-7248.58 4090.482a97.635 97.635 0 01-14.5-.864 48.041 48.041 0 00-5.951-.665 12 12 0 01-4.4-.877 3.331 3.331 0 01-2.279-2.685 5.607 5.607 0 011.723-4.707.234.234 0 01.108-.049l2.683-.464 24.057.461c.219.018 20.3 1.741 21.806 1.682a1.913 1.913 0 011.611.759 4.509 4.509 0 01.253 3.985c-.759 2.484-7.174 2.774-12.828 3.03-.928.041-1.823.085-2.646.131-2.528.149-5.986.263-9.637.263zm-25.15-9.39a5.185 5.185 0 00-1.506 4.226 2.857 2.857 0 001.976 2.316 11.5 11.5 0 004.263.844 48.477 48.477 0 016 .671c6.573 1.1 17.97.956 24.027.6.825-.049 1.722-.091 2.653-.132 4.955-.224 11.74-.53 12.4-2.695a4.072 4.072 0 00-.175-3.559 1.386 1.386 0 00-1.219-.574c-1.528.046-21.015-1.612-21.845-1.683l-24-.463z" fill="#000333"/></g></g><g data-name="グループ 351"><g data-name="パス 1126"><path data-name="パス 2337" d="M-7268.436 4056.594c0 4.936.431 9.376-1.915 9.376s-6.583-4.439-6.583-9.376c0-1.978-.194-5.263.323-6.743.773-2.213 2.519-2.195 3.924-2.195 2.349.001 4.251 4.002 4.251 8.938z" fill="#236c60"/></g></g><g data-name="グループ 352"><g data-name="パス 1127"><path data-name="パス 2338" d="M-7225.465 4060.249c0 4.936-1.9 8.937-4.247 8.937s-4.247-4-4.247-8.937 1.9-8.938 4.247-8.938c1.609 0 3.527-.225 4.247 2.553.329 1.271 0 4.837 0 6.385z" fill="#236c60"/></g></g><g data-name="グループ 353"><g data-name="パス 1128"><path data-name="パス 2339" d="M-7269.311 4016.215s8.732-4.246 14.01-4.207 17.341 1.5 18.671 2.522-9.769 16.559-14.031 15.575-17.631-9.632-17.631-9.632z" fill="#ffedd9"/></g><g data-name="パス 1129"><path data-name="パス 2340" d="M-7250.289 4030.855a2.38 2.38 0 01-.531-.058c-4.333-1-17.306-9.372-17.857-9.727a.713.713 0 01-.305-.431l-1.019-4.257a.709.709 0 01.38-.8c.361-.175 8.862-4.28 14.249-4.28h.077c4.828.035 17.47 1.425 19.1 2.669.7.537.327 1.6-.129 2.568-1.794 3.794-9.642 14.316-13.965 14.316zm-17.378-10.822c1.81 1.159 13.38 8.509 17.168 9.383.356.084 1.435.066 3.721-1.857 4.52-3.806 9.227-11.01 9.537-12.563-1.84-.844-12.731-2.233-18.061-2.273h-.07c-4.337 0-11.193 3.01-13.114 3.895z" fill="#000333"/></g></g><g data-name="グループ 354"><g data-name="パス 1130"><path data-name="パス 2341" d="M-7231.296 4030.232c4.257 2.261 6.609 10.052 3.629 19.631-.5 1.613-1.429 1.186-2.532 5.52-.567 2.235.662 5.843 1.6 9.7.879 3.624 4 9.5 4.032 9.571a7.681 7.681 0 01-.753 7.9c-1.594 2.346-13.835 2.313-23.992 2.448a109.4 109.4 0 01-21.64-2.448s-4.389-1.013-5.416-6.583 1.508-5.79 3.344-11.461c1.212-3.738 1.821-7.236.566-11.57-.651-2.248.044.482-1.375-3.088-1.979-4.979-2.892-18.372 3.317-20.333" fill="#397c71"/></g><g data-name="パス 1131"><path data-name="パス 2342" d="M-7250.067 4085.711a113.059 113.059 0 01-21.042-2.468c-.2-.047-4.86-1.187-5.959-7.144a9.039 9.039 0 011.341-7.38 21.859 21.859 0 002.025-4.428c1.2-3.707 1.757-7.022.559-11.154-.042-.145-.151-.523-.219-.73a7.147 7.147 0 01-1.134-2.293c-1.6-4.038-2.406-12.7-.065-17.627a6.434 6.434 0 013.827-3.643.71.71 0 01.428 1.351 5.079 5.079 0 00-2.973 2.9c-2.144 4.517-1.371 12.786.1 16.495a15.961 15.961 0 00.759 1.727c.277.169.367.479.642 1.426a19.236 19.236 0 01-.573 11.984 23.338 23.338 0 01-2.145 4.693 7.643 7.643 0 00-1.182 6.422c.928 5.051 4.838 6.009 4.877 6.017.111.025 11.536 2.559 21.471 2.427l2.18-.026c8.424-.1 19.962-.234 21.234-2.11a6.942 6.942 0 00.688-7.218l-.038-.072a53.57 53.57 0 01-4.031-9.614c-.185-.767-.383-1.519-.575-2.26-.815-3.123-1.519-5.814-1.019-7.78a10.817 10.817 0 011.945-4.495 3.068 3.068 0 00.591-1.063c2.954-9.5.514-16.775-3.284-18.793a.71.71 0 01.665-1.254c2.363 1.257 4.1 3.936 4.889 7.547a25.628 25.628 0 01-.915 12.922 4.452 4.452 0 01-.819 1.5 9.414 9.414 0 00-1.7 3.987c-.41 1.611.283 4.263 1.013 7.072.194.745.393 1.51.582 2.284a52.346 52.346 0 003.913 9.3c.051.1.078.155.085.163a8.347 8.347 0 01-.819 8.576c-1.572 2.312-9.886 2.582-22.391 2.729l-2.177.026c-.244-.001-.499.004-.754.004z" fill="#000333"/></g></g><g data-name="グループ 355"><g data-name="パス 1132"><path data-name="パス 2343" d="M-7249.891 4030.229s13-13.568 12.6-14.814-2.483-2.661-7.361-2.572l-1.752-1.6a28.625 28.625 0 013.226-1.231c2.647-.916 9.035-2.672 10.743-1.873a6.088 6.088 0 013.214 4.345c.267 1.688 1.242 1.6 1.772 2.661s1.064 2.9 0 3.933-4.789 2.186-6.741 3.693-10.287 7.635-15.701 7.458z" fill="#397c71"/></g><g data-name="パス 1133"><path data-name="パス 2344" d="M-7249.66 4030.942h-.253a.709.709 0 01-.49-1.2c5.752-6.008 11.85-12.859 12.382-14.227-.385-.819-2.149-2.044-6.624-1.957a.71.71 0 01-.491-.186l-1.751-1.6a.71.71 0 01.138-1.148 28.369 28.369 0 013.333-1.279c.084-.029 8.813-2.995 11.275-1.845a6.825 6.825 0 013.616 4.877 1.835 1.835 0 00.778 1.34 3.483 3.483 0 01.928 1.114c.365.73 1.435 3.232-.141 4.76a12.684 12.684 0 01-3.123 1.752 20.889 20.889 0 00-3.677 1.993c-1.655 1.287-10.128 7.606-15.9 7.606zm5.447-18.811c6.126 0 7.36 2.338 7.6 3.069.175.546.374 1.165-6.3 8.563a333.025 333.025 0 01-5.179 5.6c5.373-.994 12.58-6.464 13.47-7.151a21.782 21.782 0 013.949-2.158 13.04 13.04 0 002.731-1.483c.7-.681.364-2.1-.14-3.108a2.131 2.131 0 00-.591-.675 3.212 3.212 0 01-1.249-2.19 5.408 5.408 0 00-2.815-3.814c-1.242-.581-6.785.715-10.212 1.9-.992.343-1.688.6-2.161.784l.725.662z" fill="#000333"/></g></g><g data-name="グループ 356"><g data-name="パス 1134"><path data-name="パス 2345" d="M-7267.344 4004.907c-6.583 2-6.667 4.212-7.555 5.632s-2.927 5.148-2.661 7.184 1.064 3.813 2.306 4.257 2.572 0 5.321 1.241 19.634 7 19.634 7-19.013-13.121-19.013-14.001.355-2.128 1.153-2.394a4.245 4.245 0 002.927-2.218 7.763 7.763 0 013.857-3.366c.844-.181-2.567-3.331-2.567-3.331z" fill="#397c71"/></g><g data-name="パス 1135"><path data-name="パス 2346" d="M-7250.3 4030.939a.718.718 0 01-.229-.038c-.69-.236-16.948-5.79-19.7-7.032a10.036 10.036 0 00-3.629-.928 6.527 6.527 0 01-1.635-.295c-1.406-.5-2.442-2.309-2.771-4.833-.338-2.6 2.448-7.143 2.762-7.652a7.43 7.43 0 00.343-.644c.735-1.483 1.742-3.512 7.608-5.291a.714.714 0 01.206-.031h3.4a.71.71 0 01.481.188c3.171 2.929 2.986 3.606 2.9 3.932a.856.856 0 01-.664.614 7.3 7.3 0 00-3.35 2.943 4.8 4.8 0 01-3.26 2.588l-.1.032c-.32.107-.615.809-.661 1.53 1.254 1.382 12.015 9.005 18.7 13.621a.71.71 0 01-.4 1.294zm-16.939-25.319c-5.189 1.591-6 3.222-6.648 4.533a7.872 7.872 0 01-.412.765c-.983 1.573-2.785 5-2.559 6.715.253 1.926.975 3.371 1.842 3.681a5.3 5.3 0 001.29.219 11.56 11.56 0 014.084 1.045c1.762.8 9.551 3.523 14.757 5.325a727.717 727.717 0 01-5.333-3.768c-9.8-7-9.8-7.4-9.8-7.916 0-1.215.512-2.693 1.638-3.068l.1-.034a3.479 3.479 0 002.393-1.78 8.509 8.509 0 013.713-3.545 21.443 21.443 0 00-2.046-2.172z" fill="#000333"/></g></g><g data-name="グループ 357"><g data-name="パス 1136"><path data-name="パス 2347" d="M-7244.922 4015.062s-1.6.928-5.275.928-4.726-.928-4.726-.928v-5.22h10z" fill="#ffbdad"/></g></g><g data-name="グループ 360"><g data-name="パス 1140"><path data-name="パス 2348" d="M-7254.085 4019.807a.472.472 0 01-.224-.056l-3.762-2.02a.473.473 0 11.447-.833l3.763 2.019a.473.473 0 01-.224.889z" fill="#000333"/></g></g><g data-name="グループ 361"><g data-name="パス 1141"><path data-name="パス 2349" d="M-7246.406 4019.806a.472.472 0 01-.224-.889l3.763-2.019a.473.473 0 11.448.833l-3.763 2.02a.467.467 0 01-.224.055z" fill="#000333"/></g></g><g data-name="グループ 362"><g data-name="パス 1142"><path data-name="パス 2350" d="M-7248.168 4039.714a6.24 6.24 0 01-1.964-.365c-1.536-.518-3.276-1.613-3.123-2.991a29.2 29.2 0 01.844-3.75c.784-2.755 1.1-2.958 1.317-3.092a.762.762 0 01.487-.12l2.121.044a.709.709 0 01.646.45c.651 1.656 2.692 7.189 1.661 8.907a2.175 2.175 0 01-1.989.917zm-2.153-8.893a31.051 31.051 0 00-1.519 5.693c-.024.219.683.989 2.166 1.489 1.261.422 2.138.309 2.286.062.428-.714-.46-4.212-1.6-7.219zm-.565-.045" fill="#000333"/></g></g><g data-name="グループ 363"><g data-name="パス 1143"><path data-name="パス 2351" d="M-7249.888 4032.013c.667-.136 1.253.6 1.286 1.846s.169 2.295-1.1 1.979a1.422 1.422 0 01-1.015-1.737 1.5 1.5 0 01.05-.154c.073-.421.125-1.802.779-1.934z" fill="#000333"/></g></g><g data-name="グループ 364"><g data-name="パス 1144"><path data-name="パス 2352" d="M-7252.2 4085.674a.709.709 0 01-.708-.675c-.14-2.84.138-14.943.322-22.956.058-2.526.106-4.622.128-5.843.084-5.006.612-17.971.617-18.1a.71.71 0 011.418.058c-.005.131-.528 13.081-.615 18.069-.022 1.224-.07 3.321-.128 5.851-.183 7.989-.461 20.062-.323 22.849a.709.709 0 01-.673.744z" fill="#000333"/></g></g><g data-name="グループ 365"><g data-name="パス 1145"><path data-name="パス 2353" d="M-7248.584 4085.674a.71.71 0 01-.71-.7c-.021-2.428.028-7.9.085-14.237.111-12.5.263-29.615-.074-31.639a.71.71 0 011.391-.282c0 .016.006.032.008.048.359 2.147.211 18.636.094 31.886-.057 6.33-.105 11.8-.085 14.211a.709.709 0 01-.7.716h-.006z" fill="#000333"/></g></g><g data-name="グループ 368"><g data-name="パス 1149"><path data-name="パス 2354" d="M-7255.3 4015.018a.71.71 0 01-.71-.71v-4.6a.71.71 0 011.419-.048.456.456 0 010 .048v4.6a.709.709 0 01-.709.71z" fill="#000333"/></g></g><g data-name="グループ 369"><g data-name="パス 1150"><path data-name="パス 2355" d="M-7244.921 4015.595a.71.71 0 01-.71-.71v-5.043a.71.71 0 011.419 0v5.043a.71.71 0 01-.709.711z" fill="#000333"/></g></g><g data-name="グループ 372"><g data-name="パス 1152"><path data-name="パス 2356" d="M-7228.005 4072.725a1.6 1.6 0 01-.675.87c-1.688.889-4.125-.572-6.519.137a17.493 17.493 0 01-8.424 0c-2.532-.666-1.022-3.283 4.744-4.612s5.227-4.626 7.849-3.95a3.575 3.575 0 011.589.894 21.871 21.871 0 001.24 6.2c.063.153.13.305.196.461z" fill="#236c60"/></g></g><g data-name="グループ 373"><g data-name="パス 1153"><path data-name="パス 2357" d="M-7236.959 4055.328c-3.142.57-7.45-3.393-6.92-5.787s11.773-2.195 12.505.4-4.121 5.121-5.585 5.387z" fill="#236c60"/></g></g><g data-name="グループ 374"><g data-name="パス 1154"><path data-name="パス 2358" d="M-7264.262 4055.328c3.142.57 7.45-3.393 6.92-5.787s-11.774-2.195-12.506.4 4.122 5.121 5.586 5.387z" fill="#236c60"/></g></g><g data-name="グループ 342"><g data-name="パス 1111"><path data-name="パス 2360" d="M-7229.95 4012.346a.709.709 0 01-.619-.361c-2.14-3.8.5-10.729.609-11.022a.71.71 0 011.324.512c-.025.065-2.509 6.6-.7 9.815a.709.709 0 01-.617 1.058z" fill="#000333"/></g></g><g data-name="グループ 358"><g data-name="パス 1137"><path data-name="パス 2363" d="M-7227.508 3986.804s2.467 10.406-2.418 15.944c-4.81 5.452-12.3 7.47-20.109 7.293-7.805.177-15.3-1.84-20.108-7.293-4.886-5.538-2.419-15.944-2.419-15.944s15.566-25.277 21.4-25.987 22.149-.71 23.657 25.987" fill="#ffedd9"/></g><g data-name="パス 1138"><path data-name="パス 2364" d="M-7250.999 4010.76c-6.143 0-14.242-1.382-19.678-7.543-5.07-5.747-2.68-16.138-2.576-16.577a.7.7 0 01.084-.208c1.612-2.616 15.919-25.589 21.916-26.319 4.278-.519 10.465-.233 15.628 4.087 5.248 4.389 8.215 11.96 8.819 22.5.222.973 2.333 10.934-2.591 16.514-5.719 6.484-14.394 7.671-20.657 7.533-.307.01-.624.013-.945.013zm.948-1.43c6 .137 14.234-.978 19.593-7.053 4.589-5.2 2.284-15.211 2.26-15.311a.713.713 0 01-.018-.123c-.574-10.167-3.376-17.419-8.317-21.556-4.776-3.994-10.55-4.253-14.546-3.766-1.246.151-4.512 2.036-12.391 12.964-4.237 5.876-7.906 11.752-8.425 12.588-.235 1.1-2.041 10.3 2.284 15.2 5.359 6.076 13.6 7.188 19.56 7.054z" fill="#000333"/></g></g><g data-name="グループ 366"><g data-name="パス 1146"><path data-name="パス 2365" d="M-7225.999 3964.453c7.1 18.628 1.594 28.826 1.594 28.826 0-1.419-4.077-7.45-6.3-11.258s-4.347-14.73-4.347-14.73c-4.522 12.951-18.117 17.918-18.117 17.918 3.618-7.185 1.566-16.054 1.566-16.054s-12.237 3.827-21.48 25.9c0 0-5.293-13.931 2.026-25.9.123-.2.246-.4.374-.591v-.006a27.548 27.548 0 016.5-7.057 26.3 26.3 0 0112.587-5.251" fill="#535353"/></g><g data-name="パス 1147"><path data-name="パス 2366" d="M-7273.077 3995.767h-.012a.711.711 0 01-.652-.457c-.221-.582-5.332-14.4 2.083-26.524.118-.191.234-.379.355-.562a.515.515 0 01.028-.048 28.348 28.348 0 016.661-7.238 26.8 26.8 0 0112.963-5.393.7.7 0 01.759.641v.011a.71.71 0 01-.652.76 25.868 25.868 0 00-12.213 5.107 26.941 26.941 0 00-6.3 6.829 25.372 25.372 0 00-.397.632c-5.53 9.049-3.617 19.393-2.516 23.482 9.154-20.568 20.658-24.376 21.156-24.531a.708.708 0 01.888.462.544.544 0 01.015.054c.08.344 1.778 7.905-.875 14.834 3.688-1.772 12.629-6.936 16.064-16.772a.7.7 0 01.721-.474.71.71 0 01.646.572c.021.108 2.131 10.847 4.263 14.509.623 1.07 1.383 2.3 2.187 3.6 1.6 2.595 2.823 4.595 3.525 6.016 1.161-3.557 2.99-12.718-2.286-26.572a.71.71 0 111.325-.506c7.129 18.715 1.787 28.987 1.555 29.415a.71.71 0 01-1.334-.338c0-.815-2.4-4.7-3.992-7.27a176.526 176.526 0 01-2.207-3.629c-1.638-2.81-3.189-9.2-3.948-12.647-5.21 11.478-17.124 15.951-17.659 16.145a.71.71 0 01-.878-.986c2.836-5.631 2.052-12.429 1.664-14.752-2.76 1.256-12.607 6.843-20.29 25.193a.71.71 0 01-.647.437zm49.382-2.488" fill="#000333"/></g></g><g data-name="グループ 370"><g data-name="パス 1151"><path data-name="パス 2368" d="M-7249.906 3996.212c-1.512.5-2.567.275-1.892-.754s1.155-.971 2.13-.928 2.22 1.194 1.547 1.727-1.225-.23-1.785-.045z" fill="#ffbdad"/></g></g><g data-name="グループ 371"><g data-name="楕円形 27"><ellipse data-name="楕円形 118" cx=".419" cy=".462" rx=".419" ry=".462" fill="#000333" transform="translate(-7250.454 3995.932)"/></g></g><g data-name="グループ 383"><g data-name="グループ 381"><g data-name="グループ 379"><g data-name="グループ 376"><g data-name="パス 1156"><path data-name="パス 2369" d="M-7229.752 3991.692a.634.634 0 01-.328-1.176 4.677 4.677 0 001.772-2.887 3.544 3.544 0 00-.524-2.947 4.7 4.7 0 00-3.58-1.661c-3.713-.3-6.1.2-10.424 3.887a.633.633 0 01-.822-.964c4.642-3.957 7.357-4.5 11.346-4.187a5.813 5.813 0 014.5 2.176 4.858 4.858 0 01.735 3.983 5.907 5.907 0 01-2.347 3.683.628.628 0 01-.328.093z" fill="#000333"/></g></g><g data-name="グループ 377"><g data-name="パス 1157"><path data-name="パス 2370" d="M-7233.869 3982.284a6.432 6.432 0 002.157-2 .143.143 0 01.186-.081.145.145 0 01.063.048 2.194 2.194 0 01.392 2.341z" fill="#000333"/></g></g><g data-name="グループ 378"><g data-name="パス 1158"><path data-name="パス 2371" d="M-7229.294 3983.369a4.964 4.964 0 001.793-1.13.223.223 0 01.39.053 5.249 5.249 0 01-.452 4.886z" fill="#000333"/></g></g></g><g data-name="グループ 380"><g data-name="楕円形 28"><ellipse data-name="楕円形 119" cx="4.81" cy="6.472" rx="4.81" ry="6.472" fill="#000333" transform="translate(-7242.639 3983.522)"/></g><g data-name="パス 1159"><path data-name="パス 2372" d="M-7237.83 3997.176c-3.042 0-5.519-3.222-5.519-7.182s2.476-7.182 5.519-7.182 5.519 3.221 5.519 7.182-2.475 7.182-5.519 7.182zm0-12.945c-2.26 0-4.1 2.585-4.1 5.763s1.84 5.763 4.1 5.763 4.1-2.585 4.1-5.763-1.839-5.764-4.1-5.764z" fill="#000333"/></g></g></g><g data-name="グループ 382"><g data-name="楕円形 29"><ellipse data-name="楕円形 120" cx="1.478" cy="2.53" rx="1.478" ry="2.53" fill="#fff" transform="translate(-7239.307 3987.464)"/></g></g></g><g data-name="グループ 391"><g data-name="グループ 388"><g data-name="グループ 385"><g data-name="パス 1161"><path data-name="パス 2373" d="M-7270.149 3991.691a.618.618 0 01-.326-.091 5.908 5.908 0 01-2.347-3.683 4.858 4.858 0 01.735-3.983 5.81 5.81 0 014.5-2.176c3.993-.314 6.708.231 11.346 4.187a.633.633 0 11-.822.964c-4.325-3.69-6.713-4.183-10.424-3.888a4.7 4.7 0 00-3.58 1.661 3.549 3.549 0 00-.524 2.948 4.68 4.68 0 001.772 2.89.634.634 0 01-.338 1.172z" fill="#000333"/></g></g><g data-name="グループ 386"><g data-name="パス 1162"><path data-name="パス 2374" d="M-7266.03 3982.284a6.44 6.44 0 01-2.156-2 .144.144 0 00-.185-.085.142.142 0 00-.068.052 2.2 2.2 0 00-.393 2.341z" fill="#000333"/></g></g><g data-name="グループ 387"><g data-name="パス 1163"><path data-name="パス 2375" d="M-7270.6 3983.369a4.957 4.957 0 01-1.792-1.13.223.223 0 00-.39.053 5.246 5.246 0 00.452 4.886z" fill="#000333"/></g></g></g><g data-name="グループ 389"><g data-name="楕円形 30"><ellipse data-name="楕円形 121" cx="4.81" cy="6.472" rx="4.81" ry="6.472" fill="#000333" transform="translate(-7266.878 3983.522)"/></g><g data-name="パス 1164"><path data-name="パス 2376" d="M-7262.068 3997.176c-3.042 0-5.519-3.222-5.519-7.182s2.476-7.182 5.519-7.182 5.52 3.221 5.52 7.182-2.477 7.182-5.52 7.182zm0-12.945c-2.26 0-4.1 2.585-4.1 5.763s1.84 5.763 4.1 5.763 4.1-2.585 4.1-5.763-1.844-5.764-4.1-5.764z" fill="#000333"/></g></g><g data-name="グループ 390"><g data-name="楕円形 31"><ellipse data-name="楕円形 122" cx="1.478" cy="2.53" rx="1.478" ry="2.53" fill="#fff" transform="translate(-7263.547 3987.464)"/></g></g></g><g data-name="グループ 392"><g data-name="パス 1165"><path data-name="パス 2377" d="M-7262.249 3967.306c-.747 2.809-3.273 4.578-5.633 3.945a4.185 4.185 0 01-2.8-2.687 27.556 27.556 0 016.5-7.057 5.167 5.167 0 011.933 5.799z" fill="#868686"/></g></g><g data-name="グループ 393"><g data-name="楕円形 32"><ellipse data-name="楕円形 123" cx="2.193" cy="1.845" rx="2.193" ry="1.845" transform="rotate(-75.05 -1047.711 6714.798)" fill="#868686"/></g></g><g data-name="グループ 394"><g data-name="パス 1166"><path data-name="パス 2378" d="M-7217.866 3974.405a1.8 1.8 0 01-.852.213 2.4 2.4 0 010-4.749 1.661 1.661 0 01.51.076 36.677 36.677 0 01.342 4.46z" fill="#868686"/></g></g><g data-name="グループ 395"><g data-name="楕円形 33"><ellipse data-name="楕円形 124" cx="1.263" cy="1.035" rx="1.263" ry="1.035" transform="rotate(-24.08 5700.291 18922.45)" fill="#868686"/></g></g><g data-name="グループ 396"><g data-name="パス 1167"><path data-name="パス 2379" d="M-7273.761 4008.684a.71.71 0 01-.6-1.081c2.252-3.67.865-10.536.851-10.605a.71.71 0 011.39-.289c.063.3 1.519 7.483-1.031 11.636a.709.709 0 01-.61.339z" fill="#000333"/></g></g><g data-name="グループ 397"><g data-name="パス 1168"><path data-name="パス 2380" d="M-7253.161 3985.917a.71.71 0 01-.437-1.266c10.076-7.856 9.645-17.351 9.64-17.447a.71.71 0 011.416-.085c.026.417.511 10.313-10.183 18.652a.7.7 0 01-.436.146z" fill="#000333"/></g></g><g data-name="グループ 401"><g data-name="楕円形 34"><ellipse data-name="楕円形 125" cx="3.207" cy="1.531" rx="3.207" ry="1.531" fill="#ffbdad" transform="translate(-7269.251 3999.929)"/></g></g><g data-name="グループ 402"><g data-name="楕円形 35"><ellipse data-name="楕円形 126" cx="3.207" cy="1.531" rx="3.207" ry="1.531" fill="#ffbdad" transform="translate(-7236.796 3999.929)"/></g></g><g data-name="グループ 1837"><path data-name="パス 2382" d="M-7247.644 4004.503a.527.527 0 01-.471-.289 2.154 2.154 0 00-3.7 0 .527.527 0 11-.944-.469 3.2 3.2 0 015.588 0 .527.527 0 01-.471.761z" fill="#000931"/></g><g data-name="グループ 1838"><path data-name="パス 2383" d="M-7266.506 3977.447a33.84 33.84 0 015.446 2.323 323.609 323.609 0 015.633 3.168 24.644 24.644 0 01-5.81-1.947 22.06 22.06 0 01-5.269-3.544z" fill="#000931"/></g><g data-name="グループ 1839"><path data-name="パス 2384" d="M-7233.752 3977.447a33.836 33.836 0 00-5.447 2.323 323.609 323.609 0 00-5.633 3.168 24.645 24.645 0 005.81-1.947 22.069 22.069 0 005.27-3.544z" fill="#000931"/></g></g></svg>