<svg version="1.1" id="レイヤー_1" xmlns="http://www.w3.org/2000/svg" x="0" y="0" viewBox="0 0 209.2 173.4" xml:space="preserve"><style>.st2{fill:#2e2e2e}</style><path d="M205.7 30.3s-31-18.6-59.9 6.2C125.2 20 104.6 20 104.6 20h-6.2s-20.6 0-41.3 16.5c-18.6-33-51.6-33-51.6-33s0 45.4 28.9 51.6C-9 106.7-9 145.1 48.8 157.5c4.1 12.4 8.3 12.4 8.3 12.4 5.3-.3 10.1-3.5 12.4-8.3h64c2.3 4.8 7.1 8 12.4 8.3 0 0 4.1 0 8.3-12.4 57.8-12.4 57.8-50.8 14.4-102.4 33-4.1 37.1-24.8 37.1-24.8z" fill="#ffedd1" stroke="#2e2e2e" stroke-width="7" stroke-linejoin="round"/><path d="M139.6 84.1s-1.1-20.8-37.2-20.6h-4.1c-34.5-.2-37.2 20.6-37.2 20.6-1.5 21.8 79.5 21.8 78.5 0z" fill="#f0d1a0" stroke="#2e2e2e" stroke-width="5" stroke-linecap="round" stroke-linejoin="round"/><path class="st2" d="M82.3 84l.9-4.9c.2-1.3 1.5-2.2 2.9-2 1.3.2 2.2 1.5 2 2.9l-.9 4.9c-.2 1.3-1.5 2.2-2.9 2-1.3-.3-2.2-1.5-2-2.9zM114.7 77.1c1.3-.2 2.6.7 2.9 2l.9 4.9c.2 1.3-.7 2.6-2 2.9-1.3.2-2.6-.7-2.9-2l-.9-4.9c-.2-1.4.7-2.7 2-2.9z"/></svg>