<svg xmlns="http://www.w3.org/2000/svg" viewBox="0 0 209.2 229.17"><defs><style>.cls-5{stroke-linecap:round}.cls-3{fill:#2e2e2e}.cls-4{fill:#9ab7d9}.cls-5{fill:none;stroke:#809cb2;stroke-miterlimit:10;stroke-width:8px}</style></defs><g id="レイヤー_2" data-name="レイヤー 2"><g id="_動物_表情パターン" data-name="【動物】表情パターン"><g id="体調悪い時"><path d="M205.7 86.15s-31-18.57-59.86 6.2c-20.63-16.52-41.27-16.52-41.27-16.52h-6.2s-20.63 0-41.27 16.52c-18.58-33-51.6-33-51.6-33s0 45.41 28.89 51.6c-43.34 51.6-43.34 90 14.45 102.37 4.13 12.38 8.26 12.38 8.26 12.38a14.66 14.66 0 0012.38-8.25h64a14.66 14.66 0 0012.38 8.25s4.13 0 8.26-12.38c57.79-12.38 57.79-50.77 14.45-102.37 33-4.16 37.13-24.8 37.13-24.8z" stroke-width="7" fill="#fff" stroke="#2e2e2e" stroke-linejoin="round"/><path d="M139.58 139.88s-1.1-20.84-37.15-20.64h-4.12c-34.47-.2-37.15 20.64-37.15 20.64-1.59 21.81 79.45 21.81 78.42 0z" stroke-width="5" stroke-linecap="round" fill="#fff" stroke="#2e2e2e" stroke-linejoin="round"/><rect class="cls-3" x="80.21" y="135.34" width="9.91" height="4.95" rx="2.48" transform="rotate(-80 85.166 137.82)"/><rect class="cls-3" x="113.1" y="132.87" width="4.95" height="9.91" rx="2.48" transform="rotate(-10 115.555 137.84)"/><path class="cls-4" d="M88.92 65.07S85.54-1.69 57.44 0C30.91 9.12 88.92 65.07 88.92 65.07zM72.57 71S52.73 27.83 34.22 36.07C18.7 48.76 72.57 71 72.57 71z"/><path class="cls-5" d="M139.59 62.49v42.53M154.59 62.49v50.02M169.59 62.49v60.24"/></g></g></g></svg>