<svg xmlns="http://www.w3.org/2000/svg" viewBox="0 0 182.8 267.26"><defs><style>.cls-1{fill:#535353}.cls-2{fill:#000333}.cls-4{fill:#ffbdad}.cls-5{fill:#fff}.cls-6{fill:#868686}.cls-8{fill:#000931}.cls-9{fill:#bababa}</style></defs><g id="レイヤー_2" data-name="レイヤー 2"><g id="_女_表情パターン_顔だけ_" data-name="【女】表情パターン（顔だけ）"><g id="怒った時"><g id="グループ_335" data-name="グループ 335"><path id="パス_1098" data-name="パス 1098" class="cls-1" d="M175 130.85s-2 16.81 6 20.61c0 0-16.62 7.48-18.28-6.61s12.28-14 12.28-14z"/><path id="パス_1099" data-name="パス 1099" class="cls-2" d="M172.13 155.2a12.22 12.22 0 01-6-1.41 10.79 10.79 0 01-5.11-8.74 13.92 13.92 0 012.94-11.36 16 16 0 0111.04-4.61 1.78 1.78 0 011.75 1.78 1.23 1.23 0 010 .19c-.5 4.33-.57 16.14 5 18.81a1.77 1.77 0 01.84 2.35 1.75 1.75 0 01-.87.85 26.29 26.29 0 01-9.59 2.14zm.94-22.4a11.34 11.34 0 00-6.51 3.26 10.61 10.61 0 00-2.06 8.58 7.39 7.39 0 003.35 6.08c2.67 1.52 6.63 1 9.52.17-4.4-4.82-4.51-13.91-4.29-18.09z"/></g><g id="グループ_336" data-name="グループ 336"><path id="パス_1100" data-name="パス 1100" class="cls-1" d="M52 41S23 77.41 1.81 72.45c0 0 19.48 13.23 41.81-7.27S52 41 52 41z"/><path id="パス_1101" data-name="パス 1101" class="cls-2" d="M17.4 78.35A32.26 32.26 0 01.78 73.91a1.76 1.76 0 011.39-3.17 17.17 17.17 0 003.83.42c19.46 0 44.35-30.93 44.62-31.27a1.77 1.77 0 011.83-.6 7.86 7.86 0 015.38 5.43c1.31 5.3-3.07 12.62-13 21.75S25.07 78.35 17.4 78.35zm-6.72-4.17c7.32 1.69 18.94 1.41 31.7-10.3 11.71-10.75 12.54-16.08 12-18.31a4 4 0 00-1.89-2.42c-4.34 5.22-23.72 27.43-41.81 31.03z"/></g><g id="グループ_340" data-name="グループ 340"><path id="パス_1107" data-name="パス 1107" class="cls-1" d="M176.24 126.67c-9.69 33.93-25.11 48.91-14.54 80.65s-57.16 58.18-57.16 58.18l-81.23-42.75c-2.21-22.92-.89-28.59 3.07-42.06s6.18-36.84 1.77-55.35-7.49-54.21 18.07-81.54 69.65-30 103.14-10.57c18.9 10.94 28.13 28.49 30.83 47.8a89.23 89.23 0 01.81 11.08 118.87 118.87 0 01-4.76 34.56z"/><path id="パス_1108" data-name="パス 1108" class="cls-2" d="M104.54 267.26a1.67 1.67 0 01-.82-.21l-81.23-42.74a1.77 1.77 0 01-.94-1.39c-2.21-23-.92-28.91 3.15-42.74s5.94-36.8 1.74-54.44c-3.62-15.19-9-53.68 18.5-83.15 25.27-27 69.56-31.59 105.31-10.9 17.68 10.23 28.63 27.21 31.68 49.08a91 91 0 01.86 11.3 120.94 120.94 0 01-4.85 35.07 259.76 259.76 0 01-9.13 25.7c-7.4 18.56-12.75 32-5.43 53.91 4.6 13.81-4.14 28.68-25.3 43a190.78 190.78 0 01-32.9 17.37 1.56 1.56 0 01-.64.14zM25 221.64l79.66 41.92c7.24-3 64.75-27.62 55.4-55.68-7.73-23.18-1.89-37.81 5.5-56.33a259 259 0 009-25.36 117.78 117.78 0 004.72-34 90.09 90.09 0 00-.84-10.88c-2.89-20.76-13.25-36.84-30-46.51C114.13 14.87 71.67 19.19 47.51 45c-26.39 28.22-21.13 65.3-17.65 79.93 4.54 19.09 2.26 42.54-1.79 56.26-3.94 13.43-5.13 18.81-3.07 40.45z"/></g><g id="グループ_342" data-name="グループ 342"><path id="パス_1111" data-name="パス 1111" class="cls-2" d="M151 186.38a1.75 1.75 0 01-1.53-.9c-5.32-9.43 1.23-26.66 1.51-27.38a1.76 1.76 0 013.29 1.27c-.06.16-6.23 16.4-1.73 24.39a1.76 1.76 0 01-.67 2.4 1.84 1.84 0 01-.87.22z"/></g><g id="グループ_358" data-name="グループ 358"><path id="パス_1137" data-name="パス 1137" d="M157.08 122.92s6.13 25.86-6 39.61c-12 13.55-30.58 18.57-50 18.13-19.39.44-38-4.58-50-18.13-12.14-13.75-6-39.61-6-39.61S83.8 60.11 98.29 58.35s55-1.77 58.79 64.57" fill="#ffedd9"/><path id="パス_1138" data-name="パス 1138" class="cls-2" d="M98.7 182.44c-15.26 0-35.39-3.43-48.89-18.74-12.6-14.28-6.66-40.1-6.4-41.19a1.67 1.67 0 01.21-.52c4-6.5 39.55-63.58 54.45-65.39 10.63-1.29 26-.58 38.84 10.15 13 10.91 20.41 29.72 21.91 55.92.55 2.41 5.8 27.16-6.44 41-14.21 16.11-35.76 19.06-51.33 18.72-.76.05-1.55.05-2.35.05zm2.36-3.55c14.91.34 35.37-2.43 48.68-17.52 11.41-12.93 5.68-37.8 5.62-38.05a1.54 1.54 0 01-.05-.31c-1.42-25.26-8.38-43.28-20.66-53.56-11.87-9.92-26.22-10.56-36.15-9.35-3.09.37-11.21 5.06-30.79 32.21-10.53 14.6-19.64 29.2-20.93 31.28-.59 2.73-5.07 25.59 5.67 37.78 13.32 15.09 33.79 17.86 48.61 17.52z"/></g><g id="グループ_366" data-name="グループ 366"><path id="パス_1146" data-name="パス 1146" class="cls-1" d="M160.82 67.38c17.63 46.28 4 71.63 4 71.63 0-3.53-10.13-18.52-15.64-28s-10.8-36.6-10.8-36.6c-11.24 32.18-45 44.52-45 44.52 9-17.85 3.89-39.89 3.89-39.89s-30.47 9.53-53.43 64.38c0 0-13.15-34.61 5-64.36.31-.49.61-1 .93-1.47A68.48 68.48 0 0166 60a65.34 65.34 0 0131.22-13"/><path id="パス_1147" data-name="パス 1147" class="cls-2" d="M43.84 145.19a1.76 1.76 0 01-1.62-1.14c-.55-1.44-13.24-35.77 5.18-65.9.29-.48.58-1 .88-1.4a.75.75 0 01.07-.12 70.71 70.71 0 0116.55-18 66.64 66.64 0 0132.21-13.4A1.76 1.76 0 0199 46.84a1.77 1.77 0 01-1.62 1.89A64.38 64.38 0 0067 61.44a66.86 66.86 0 00-15.64 17l-.09.15c-.31.46-.6.94-.9 1.42-13.74 22.49-9 48.19-6.25 58.35 22.74-51.11 51.33-60.57 52.57-61a1.75 1.75 0 012.2 1.14.74.74 0 010 .14c.2.85 4.42 19.64-2.17 36.86 9.16-4.4 31.38-17.23 39.92-41.68a1.73 1.73 0 011.79-1.17 1.75 1.75 0 011.6 1.42c.05.27 5.3 27 10.59 36.05 1.55 2.66 3.44 5.71 5.44 8.94 4 6.45 7 11.42 8.76 15 2.88-8.84 7.43-31.6-5.68-66a1.76 1.76 0 013.29-1.26c17.71 46.51 4.44 72 3.86 73.09A1.76 1.76 0 01163 139c0-2-6-11.67-9.92-18.06-2-3.25-3.91-6.32-5.48-9-4.07-7-7.93-22.85-9.81-31.42-13 28.52-42.55 39.63-43.88 40.12a1.76 1.76 0 01-2.18-2.45c7-14 5.09-30.89 4.13-36.66-6.86 3.12-31.32 17-50.42 62.6a1.75 1.75 0 01-1.6 1.06z"/></g><g id="グループ_370" data-name="グループ 370"><path id="パス_1151" data-name="パス 1151" class="cls-4" d="M101.42 146.29c-3.76 1.24-6.38.69-4.7-1.87s2.87-2.41 5.29-2.31 5.52 3 3.84 4.29-3.04-.56-4.43-.11z"/></g><g id="グループ_371" data-name="グループ 371"><ellipse id="楕円形_27" data-name="楕円形 27" class="cls-2" cx="101.1" cy="146.75" rx="1.04" ry="1.15"/></g><g id="グループ_383" data-name="グループ 383"><g id="グループ_381" data-name="グループ 381"><g id="グループ_379" data-name="グループ 379"><g id="グループ_376" data-name="グループ 376"><path id="パス_1156" data-name="パス 1156" class="cls-2" d="M151.5 135.06a1.58 1.58 0 01-.82-2.92 11.62 11.62 0 004.41-7.17 8.83 8.83 0 00-1.3-7.33 11.68 11.68 0 00-8.9-4.12c-9.23-.74-15.16.49-25.9 9.66a1.58 1.58 0 01-2-2.4c11.54-9.83 18.28-11.18 28.2-10.4 6.35.5 9.59 3.22 11.19 5.4a12.08 12.08 0 011.82 9.9 14.66 14.66 0 01-5.83 9.15 1.59 1.59 0 01-.87.23z"/></g><g id="グループ_377" data-name="グループ 377"><path id="パス_1157" data-name="パス 1157" class="cls-2" d="M141.27 111.69s4.33-2.57 5.36-5a.36.36 0 01.46-.2.48.48 0 01.16.12 5.47 5.47 0 011 5.82z"/></g><g id="グループ_378" data-name="グループ 378"><path id="パス_1158" data-name="パス 1158" class="cls-2" d="M152.64 114.38a12.27 12.27 0 004.45-2.8.56.56 0 01.78-.13.51.51 0 01.19.26c.83 2.34 2.21 7.84-1.12 12.14z"/></g></g><g id="グループ_380" data-name="グループ 380"><ellipse id="楕円形_28" data-name="楕円形 28" class="cls-2" cx="131.43" cy="130.85" rx="11.95" ry="16.08"/><path id="パス_1159" data-name="パス 1159" class="cls-2" d="M131.43 148.69c-7.56 0-13.72-8-13.72-17.85S123.87 113 131.43 113s13.71 8 13.71 17.84-6.14 17.85-13.71 17.85zm0-32.17c-5.62 0-10.19 6.43-10.19 14.32s4.57 14.32 10.19 14.32 10.18-6.42 10.18-14.32-4.56-14.32-10.18-14.32z"/></g></g><g id="グループ_382" data-name="グループ 382"><ellipse id="楕円形_29" data-name="楕円形 29" class="cls-5" cx="131.43" cy="130.85" rx="3.67" ry="6.29"/></g></g><g id="グループ_391" data-name="グループ 391"><g id="グループ_388" data-name="グループ 388"><g id="グループ_385" data-name="グループ 385"><path id="パス_1161" data-name="パス 1161" class="cls-2" d="M51.12 135.06a1.53 1.53 0 01-.81-.23 14.64 14.64 0 01-5.83-9.15 12.08 12.08 0 011.82-9.9c1.6-2.19 4.84-4.9 11.19-5.4 9.92-.78 16.67.57 28.2 10.4a1.58 1.58 0 01-2 2.4C72.9 114 67 112.78 57.74 113.51a11.73 11.73 0 00-8.9 4.13 8.83 8.83 0 00-1.3 7.33 11.61 11.61 0 004.46 7.18 1.57 1.57 0 01-.84 2.91z"/></g><g id="グループ_386" data-name="グループ 386"><path id="パス_1162" data-name="パス 1162" class="cls-2" d="M61.35 111.69s-4.32-2.57-5.35-5a.37.37 0 00-.47-.21.4.4 0 00-.16.13 5.46 5.46 0 00-1 5.82z"/></g><g id="グループ_387" data-name="グループ 387"><path id="パス_1163" data-name="パス 1163" class="cls-2" d="M50 114.38a12.39 12.39 0 01-4.46-2.8.55.55 0 00-.77-.13.52.52 0 00-.2.26c-.82 2.34-2.2 7.84 1.13 12.14z"/></g></g><g id="グループ_389" data-name="グループ 389"><ellipse id="楕円形_30" data-name="楕円形 30" class="cls-2" cx="71.2" cy="130.85" rx="11.95" ry="16.08"/><path id="パス_1164" data-name="パス 1164" class="cls-2" d="M71.2 148.69c-7.56 0-13.71-8-13.71-17.85S63.64 113 71.2 113s13.71 8 13.71 17.84-6.15 17.85-13.71 17.85zm0-32.17c-5.62 0-10.2 6.48-10.2 14.32s4.57 14.32 10.19 14.32 10.19-6.42 10.19-14.32-4.56-14.32-10.18-14.32z"/></g><g id="グループ_390" data-name="グループ 390"><ellipse id="楕円形_31" data-name="楕円形 31" class="cls-5" cx="71.2" cy="130.85" rx="3.67" ry="6.29"/></g></g><g id="グループ_392" data-name="グループ 392"><path id="パス_1165" data-name="パス 1165" class="cls-6" d="M70.75 74.47c-1.86 7-8.13 11.38-14 9.8a10.42 10.42 0 01-7-6.67A68.62 68.62 0 0166 60.05a12.84 12.84 0 014.75 14.42z"/></g><g id="グループ_393" data-name="グループ 393"><ellipse id="楕円形_32" data-name="楕円形 32" class="cls-6" cx="72.49" cy="77.8" rx="5.45" ry="4.58" transform="rotate(-75.06 72.483 77.806)"/></g><g id="グループ_394" data-name="グループ 394"><path id="パス_1166" data-name="パス 1166" class="cls-6" d="M181 92.11a4.46 4.46 0 01-2.11.53 6 6 0 010-11.8 3.85 3.85 0 011.26.19 91.21 91.21 0 01.85 11.08z"/></g><g id="グループ_395" data-name="グループ 395"><ellipse id="楕円形_33" data-name="楕円形 33" class="cls-6" cx="168.63" cy="87.13" rx="3.14" ry="2.57" transform="rotate(-24.11 168.62 87.126)"/></g><g id="グループ_396" data-name="グループ 396"><path id="パス_1167" data-name="パス 1167" class="cls-2" d="M42.15 177.29a1.77 1.77 0 01-1.51-2.69c5.6-9.12 2.15-26.18 2.12-26.35a1.76 1.76 0 113.45-.72c.16.76 3.78 18.6-2.56 28.92a1.77 1.77 0 01-1.5.84z"/></g><g id="グループ_397" data-name="グループ 397"><path id="パス_1168" data-name="パス 1168" class="cls-2" d="M93.33 120.72a1.77 1.77 0 01-1.08-3.15c25-19.52 24-43.11 24-43.35a1.76 1.76 0 013.52-.21c.06 1 1.27 25.63-25.31 46.35a1.82 1.82 0 01-1.13.36z"/></g><g id="グループ_401" data-name="グループ 401"><ellipse id="楕円形_34" data-name="楕円形 34" class="cls-4" cx="61.32" cy="159.33" rx="7.97" ry="3.8"/></g><g id="グループ_402" data-name="グループ 402"><ellipse id="楕円形_35" data-name="楕円形 35" class="cls-4" cx="141.96" cy="159.33" rx="7.97" ry="3.8"/></g><path d="M107 165.59a6.65 6.65 0 00-11.54 0" fill="none" stroke="#000931" stroke-linecap="round" stroke-linejoin="round" stroke-width="2.62"/><path class="cls-8" d="M60.17 99.67a83.57 83.57 0 0113.53 5.77c7.31 4 14 7.87 14 7.87a61.14 61.14 0 01-14.44-4.83 55 55 0 01-13.09-8.81zM141.56 99.67a83.57 83.57 0 00-13.56 5.77c-7.31 4-14 7.87-14 7.87a61.14 61.14 0 0014.44-4.83 55 55 0 0013.12-8.81z"/><path class="cls-9" d="M44.68 35.62V27S64.37 14.11 41.5 5.77C32.35-9.09 13.4 8.55 22.22 16.23c-4.08 11.27 6.26 18.06 15.85 13.23a79.23 79.23 0 016.61 6.16z"/><path class="cls-9" d="M32.74 49l-4.19-5.25s5.72-17.45-12.29-11.39C3.43 27.75.46 47.76 9.59 48.14c3 8.87 12.62 8 16.12.35a62 62 0 017.03.51z"/></g></g></g></svg>