<svg xmlns="http://www.w3.org/2000/svg" width="105" height="94"><defs><clipPath id="a"><path data-name="長方形 214" transform="translate(-7862 4063.336)" fill="#fff" stroke="#707070" d="M0 0h105v94H0z"/></clipPath></defs><g data-name="マスクグループ 11" transform="translate(7862 -4063.336)" clip-path="url(#a)"><g data-name="グループ 1594"><g data-name="グループ 1593"><path data-name="パス 2020" d="M-7835.843 4230.238s3.934 32.944 4.777 42.015c.8 8.56 7.387 56.368 7.387 56.368h9.492l3.752-79.91.139 1.289v-21.474z" fill="#111"/></g></g><g data-name="グループ 1596"><g data-name="グループ 1595"><path data-name="パス 2021" d="M-7784.636 4230.238s-3.935 32.944-4.777 42.015c-.8 8.56-7.387 56.368-7.387 56.368h-9.492l-3.752-79.91-.139 1.289v-21.474z" fill="#111"/></g></g><g data-name="グループ 1597"><path data-name="パス 2022" d="M-7840.509 4339.206h25.308a1.845 1.845 0 001.845-1.845v-9.345l-17.93-1.787q-.52-.052-1.043-.052a11.646 11.646 0 00-10.494 6.594l-.751 1.559a3.4 3.4 0 003.065 4.876z"/></g><g data-name="グループ 1598"><path data-name="パス 2023" d="M-7780.247 4339.206h-25.308a1.845 1.845 0 01-1.845-1.845v-9.345l17.93-1.787c.346-.035.695-.052 1.043-.052a11.646 11.646 0 0110.494 6.594l.751 1.559a3.4 3.4 0 01-3.065 4.876z"/></g><g><g data-name="グループ 1599"><path data-name="パス 2024" d="M-7851.631 4218.093s-.861 3.5 1.331 3.915 10.077 0 10.077 0l4.539-6.786-5.951-1.148z" fill="#2c4e88"/><path data-name="パス 2025" d="M-7846.676 4222.837a24.375 24.375 0 01-3.744-.2 2.257 2.257 0 01-1.516-1.011 5.416 5.416 0 01-.32-3.69.642.642 0 01.385-.443l10-4.02a.637.637 0 01.362-.035l5.951 1.148a.644.644 0 01.413.99l-4.539 6.786a.644.644 0 01-.5.285c-.217.015-3.57.19-6.492.19zm-4.393-4.276a3.827 3.827 0 00.217 2.375.959.959 0 00.673.441c1.847.351 8.108.077 9.6.005l3.82-5.711-4.813-.929z" fill="#000931"/></g><g data-name="グループ 1600"><path data-name="パス 2026" d="M-7846.191 4222.175s-.776 12.368 5.41 12.76l-.422-8.7 3.784 3.5 2.541-12.539z" fill="#fcecda"/><path data-name="パス 2027" d="M-7840.782 4235.578h-.041c-6.75-.427-6.044-12.911-6.011-13.442a.644.644 0 01.383-.549l11.312-4.981a.644.644 0 01.89.717l-2.542 12.54a.643.643 0 01-1.067.344l-2.628-2.43.346 7.127a.643.643 0 01-.643.675zm-4.784-12.975a28.47 28.47 0 00.4 5.708c.63 3.4 1.876 5.366 3.707 5.863l-.384-7.907a.644.644 0 011.08-.5l2.943 2.722 2.068-10.2z" fill="#000931"/></g><g data-name="グループ 1601"><path data-name="パス 2028" d="M-7785.784 4148.821a20.906 20.906 0 012.248 1.51c.663.578 4.016 8.2 3.494 13.106s1.319 56.688 1.319 56.688.739 7.973-5.447 8.81-45.3-3.094-45.3-3.094-13-8.874-13.624-18.009 1.78-38.444 1.78-38.444l6.363-17.337 10.648-3.23z" fill="#2c4e88"/><path data-name="パス 2029" d="M-7786.821 4229.484c-10.588 0-41.257-3.067-42.7-3.212a.437.437 0 01-.2-.072c-.537-.368-13.177-9.1-13.81-18.334-.621-9.062 1.756-38.215 1.781-38.509a.424.424 0 01.025-.113l6.363-17.337a.429.429 0 01.278-.263l10.649-3.23a.435.435 0 01.124-.018h38.523a.431.431 0 01.218.059 20.922 20.922 0 012.312 1.556c.855.746 4.166 8.515 3.639 13.475-.513 4.821 1.3 56.11 1.321 56.628a12.954 12.954 0 01-.419 4.222c-.82 2.922-2.687 4.661-5.4 5.028a22.291 22.291 0 01-2.704.12zm-42.5-4.054c2.315.23 39.189 3.886 45.094 3.084 2.373-.321 3.948-1.8 4.681-4.388a12.336 12.336 0 00.4-3.957c-.077-2.14-1.838-51.892-1.319-56.773a26.411 26.411 0 00-3.351-12.74 19.088 19.088 0 00-2.082-1.4h-38.346l-10.383 3.15-6.269 17.081c-.12 1.472-2.379 29.516-1.775 38.322.579 8.434 12.213 16.82 13.35 17.62z" fill="#000931"/></g><g data-name="グループ 1604"><path data-name="パス 2032" d="M-7827.924 4167.924l-1.785 10.706v27.248s-12.058 10.022-13.546 11.2-9.161 1.331-10.805 1.018-2.007-5.257-2.007-5.257c.952-5.969 3.809-13.691 4.435-26.22s5.055-27.082 10.52-31.545l7.6-1.654 4.509 5.481" fill="#2c4e88"/><path data-name="パス 2033" d="M-7851.472 4218.878a17.425 17.425 0 01-2.712-.152c-1.976-.377-2.436-4.567-2.529-5.841a.638.638 0 01.006-.149c.3-1.855.764-3.834 1.3-6.125a103.452 103.452 0 003.124-20.026c.758-15.158 6.064-28.179 10.756-32.012a.644.644 0 01.27-.13l7.6-1.654a.643.643 0 01.634.22l4.509 5.481a.643.643 0 11-.993.818l-4.259-5.178-7.059 1.532c-4.974 4.218-9.522 18.045-10.169 30.983a104.62 104.62 0 01-3.156 20.256c-.528 2.235-.985 4.17-1.274 5.958.166 2.088.807 4.47 1.481 4.6 1.764.335 9.109.038 10.286-.891 1.35-1.066 11.618-9.6 13.3-10.993v-26.945a.677.677 0 01.009-.106l1.788-10.706a.643.643 0 011.269.212l-1.779 10.654v27.195a.643.643 0 01-.232.495c-.493.41-12.081 10.041-13.558 11.207-.769.607-2.687 1.012-5.7 1.2-.993.066-2.003.097-2.912.097z" fill="#000931"/></g><g data-name="グループ 1605"><path data-name="パス 2034" d="M-7767.265 4218.093s.861 3.5-1.331 3.915-10.078 0-10.078 0l-4.538-6.786 5.951-1.148z" fill="#2c4e88"/><path data-name="パス 2035" d="M-7772.221 4222.837c-2.922 0-6.275-.175-6.488-.186a.644.644 0 01-.5-.285l-4.538-6.786a.643.643 0 01.413-.99l5.951-1.148a.637.637 0 01.362.035l10 4.02a.642.642 0 01.385.443 5.415 5.415 0 01-.319 3.69 2.258 2.258 0 01-1.516 1.011 24.368 24.368 0 01-3.75.196zm-6.1-1.455c1.493.072 7.755.346 9.6-.005a.96.96 0 00.673-.441 3.828 3.828 0 00.217-2.375l-9.5-3.819-4.813.929z" fill="#000931"/></g><g data-name="グループ 1606"><path data-name="パス 2036" d="M-7772.705 4222.175s1.584 12.368-4.6 12.76l-.386-8.7-3.39 4.62-2.934-13.66z" fill="#fcecda"/><path data-name="パス 2037" d="M-7777.307 4235.577a.644.644 0 01-.643-.615l-.3-6.874-2.31 3.148a.643.643 0 01-1.147-.245l-2.935-13.661a.644.644 0 01.888-.724l11.313 4.981a.644.644 0 01.379.507c.043.335 1.018 8.251-1.9 11.785a4.5 4.5 0 01-3.3 1.7zm-.386-9.986a.633.633 0 01.187.027.644.644 0 01.456.587l.354 7.986a3.231 3.231 0 001.736-1.132c2.244-2.717 1.8-8.9 1.654-10.446l-9.819-4.323 2.37 11.029 2.543-3.466a.642.642 0 01.519-.261z" fill="#000931"/></g><g data-name="グループ 1607"><path data-name="パス 2038" d="M-7790.972 4167.923l1.787 10.707v27.248s12.058 10.022 13.546 11.2 9.161 1.331 10.805 1.018 2.813-5.216 2.813-5.216c-.872-6.7-4.614-13.732-5.241-26.26s-5.055-27.082-10.52-31.545l-7.6-4.81-5.8 2.76" fill="#2c4e88"/><path data-name="パス 2039" d="M-7767.424 4218.877c-.909 0-1.924-.03-2.911-.093-3.014-.192-4.932-.6-5.7-1.2-1.477-1.166-13.066-10.8-13.558-11.207a.644.644 0 01-.232-.495v-27.199l-1.778-10.654a.643.643 0 011.269-.212l1.787 10.706a.67.67 0 01.009.106v26.946c1.683 1.4 11.951 9.927 13.3 10.993 1.177.93 8.521 1.228 10.286.891.724-.138 1.752-2.477 2.28-4.619a56.161 56.161 0 00-1.824-7.683 77.312 77.312 0 01-3.4-18.51c-.651-13.013-5.247-26.926-10.255-31.055l-7.268-4.6-5.477 2.608a.643.643 0 11-.553-1.162l5.8-2.76a.641.641 0 01.62.037l7.6 4.81a.584.584 0 01.063.045c4.692 3.832 10 16.853 10.756 32.012a75.212 75.212 0 003.357 18.223 56.023 56.023 0 011.879 7.986.642.642 0 01-.012.232c-.3 1.245-1.413 5.336-3.318 5.7a17.427 17.427 0 01-2.72.154z" fill="#000931"/></g><g data-name="グループ 1608"><path data-name="パス 2040" d="M-7838.116 4222.295c-1.853 1.489-3.576 6.656.574 8.222s4.15.47 12.136 1.8 21.767 1.1 28.344.7 16.991-.313 17.97-3.523-.1-5.284-1.919-5.226-25.682-1.979-25.682-1.979l-28.266-.547z" fill="#2c4e88"/><path data-name="パス 2041" d="M-7808.384 4233.76a115.2 115.2 0 01-17.092-1.019 56.453 56.453 0 00-6.987-.781 14.232 14.232 0 01-5.23-1.042 4.065 4.065 0 01-2.774-3.277 6.667 6.667 0 012.082-5.681.426.426 0 01.2-.088l3.158-.547a.47.47 0 01.081-.006l28.266.547c.266.022 23.884 2.017 25.659 1.979a2.358 2.358 0 012.021.953c.815 1.064.932 2.823.322 4.826-.922 3.026-8.529 3.369-15.24 3.672-1.093.049-2.146.1-3.114.154-2.982.178-7.053.31-11.352.31zm-29.545-11.062a5.945 5.945 0 00-1.69 4.808 3.221 3.221 0 002.229 2.609 13.386 13.386 0 004.974.988 57.2 57.2 0 017.082.791c7.721 1.287 21.124 1.124 28.248.7.972-.058 2.029-.105 3.126-.155 5.787-.261 13.713-.619 14.459-3.066.521-1.709.453-3.225-.182-4.054a1.562 1.562 0 00-1.312-.618h-.1c-2.4 0-24.676-1.9-25.637-1.982l-28.2-.544z" fill="#000931"/></g><g data-name="グループ 1609"><path data-name="パス 2042" d="M-7831.762 4196.877c0 5.81.507 11.037-2.254 11.037s-7.745-5.226-7.745-11.037c0-2.329-.228-6.194.38-7.938.91-2.605 2.965-2.583 4.619-2.583 2.758-.003 5 4.711 5 10.521z" fill="#1c3b69"/></g><g data-name="グループ 1610"><path data-name="パス 2043" d="M-7779.601 4198.023c0 5.81-2.239 10.521-5 10.521s-5-4.71-5-10.521 2.238-10.521 5-10.521c1.9 0 4.152-.265 5 3.005.385 1.495 0 5.693 0 7.516z" fill="#1c3b69"/></g><g data-name="グループ 1611"><path data-name="パス 2044" d="M-7832.792 4149.347s10.28-5 16.493-4.952 20.412 1.768 21.977 2.969-11.5 19.492-16.516 18.333-20.754-11.338-20.754-11.338z" fill="#fcecda"/><path data-name="パス 2045" d="M-7810.375 4166.39a2.713 2.713 0 01-.607-.066c-5.068-1.172-20.313-11.007-20.959-11.425a.644.644 0 01-.277-.39l-1.2-5.011a.644.644 0 01.344-.728c.423-.206 10.393-5.017 16.69-5.017h.089c5.662.041 20.479 1.656 22.365 3.1.715.549.3 1.717-.209 2.787-2.093 4.436-11.237 16.75-16.236 16.75zm-20.651-12.433c1.9 1.221 15.8 10.064 20.334 11.113.646.151 2.21-.044 5.435-3.013 5.135-4.728 10.345-12.711 10.424-14.258-1.849-1-15.052-2.713-21.471-2.76h-.08c-5.258 0-13.608 3.716-15.661 4.668z" fill="#000931"/></g><g data-name="グループ 1612"><path data-name="パス 2046" d="M-7781.58 4166.222c.779 9.918.523 15.646-.948 21.139l-.952 18.833c2.16 6.676 5.149 6.943 3.936 13.491s-6.375 7.745-6.375 7.745a85.047 85.047 0 01-22.317 2.879h-4.172a85.048 85.048 0 01-22.317-2.879s-5.167-1.191-6.375-7.745.592-6.142 2.753-12.818l-.054-17.51c-.742-5.064-3.278-14.695-2.125-23.135" fill="#2c4e88"/><path data-name="パス 2047" d="M-7813.297 4230.958a86.8 86.8 0 01-21.608-2.91c-.192-.043-5.557-1.356-6.827-8.246-.863-4.658-.227-6.029.928-8.519a37.668 37.668 0 001.814-4.517l-.053-17.361c-.157-1.059-.389-2.306-.657-3.745-1.006-5.4-2.383-12.785-1.462-19.525a.643.643 0 111.275.175c-.893 6.534.462 13.805 1.452 19.115.275 1.473.511 2.745.672 3.839a.6.6 0 01.007.091l.054 17.51a.646.646 0 01-.031.2 38.529 38.529 0 01-1.9 4.759c-1.111 2.4-1.618 3.489-.829 7.744 1.119 6.068 5.839 7.224 5.887 7.235a85.33 85.33 0 0022.164 2.862h4.18a85.318 85.318 0 0022.136-2.853c.228-.055 4.811-1.212 5.923-7.244.728-3.927-.123-5.424-1.409-7.689a27.309 27.309 0 01-2.506-5.487.64.64 0 01-.03-.231l.952-18.833a.643.643 0 01.021-.133c1.449-5.415 1.7-11.085.927-20.922a.643.643 0 011.283-.1c.783 9.958.525 15.74-.95 21.29l-.942 18.647a25.917 25.917 0 002.364 5.136c1.376 2.421 2.37 4.171 1.556 8.559-1.27 6.889-6.636 8.2-6.863 8.255a86.85 86.85 0 01-22.469 2.895h-4.164q-.452.003-.895.003z" fill="#000931"/></g><g data-name="グループ 1613"><path data-name="パス 2048" d="M-7809.929 4165.842s15.294-15.973 14.825-17.434-2.923-3.132-8.665-3.028l-2.062-1.879a33.525 33.525 0 013.8-1.449c3.115-1.078 10.636-3.144 12.645-2.2a7.171 7.171 0 013.785 5.116c.313 1.983 1.461 1.879 2.088 3.132s1.253 3.416 0 4.631-5.638 2.573-7.935 4.348-12.113 8.972-18.481 8.763z" fill="#2c4e88"/><path data-name="パス 2049" d="M-7809.659 4166.489h-.291a.643.643 0 01-.443-1.088c6.927-7.235 14.218-15.443 14.644-16.883-.413-1.013-2.511-2.6-8.008-2.49a.654.654 0 01-.445-.168l-2.062-1.879a.643.643 0 01.126-1.041 33.463 33.463 0 013.895-1.492c.1-.035 10.347-3.482 13.128-2.179a7.832 7.832 0 014.147 5.6 2.368 2.368 0 00.98 1.692 3.89 3.89 0 011.048 1.253c.856 1.711 1.272 4.023-.127 5.38a14.885 14.885 0 01-3.622 2.025 24.679 24.679 0 00-4.366 2.37c-1.947 1.496-11.874 8.9-18.604 8.9zm6.413-21.758c7.077 0 8.488 2.65 8.754 3.479.172.534.406 1.266-7.371 9.893a404.102 404.102 0 01-6.481 7c6.429-.889 15.418-7.709 16.5-8.544a25.434 25.434 0 014.613-2.519 15.047 15.047 0 003.267-1.781c.9-.875.495-2.638-.127-3.881a2.708 2.708 0 00-.741-.856 3.62 3.62 0 01-1.407-2.463 6.57 6.57 0 00-3.421-4.633c-1.566-.732-8.186.854-12.162 2.23a68.19 68.19 0 00-2.838 1.037l1.137 1.036zm7.511 3.722z" fill="#000931"/></g><g data-name="グループ 1614"><path data-name="パス 2050" d="M-7833.522 4157.593c4.214 1.683 23.111 8.248 23.111 8.248s-20.718-12.988-17.513-16.756 9.423-4.478 10.416-4.692-3.673-2.551-8.057-2.551-13.883 7.588-13.57 9.989a10.409 10.409 0 005.613 5.762z" fill="#2c4e88"/><path data-name="パス 2051" d="M-7810.412 4166.485a.647.647 0 01-.211-.036c-.189-.066-18.959-6.589-23.138-8.258a10.982 10.982 0 01-5.983-6.15.6.6 0 01-.029-.125c-.1-.788.407-1.807 1.557-3.118 2.72-3.1 9-7.6 12.65-7.6 3.58 0 8.7 1.742 8.831 3.005a.757.757 0 01-.639.818c-.107.023-.273.052-.487.089-1.694.293-6.849 1.186-9.573 4.39a.845.845 0 00-.166.739c.57 3.691 12.848 12.119 17.531 15.055a.643.643 0 01-.342 1.189zm-28.087-14.787a9.843 9.843 0 005.215 5.3c2.806 1.12 12.275 4.458 18.179 6.525-5.237-3.589-13.227-9.583-13.767-13.084a2.142 2.142 0 01.458-1.769c2.65-3.116 7.2-4.235 9.5-4.675a17.244 17.244 0 00-6.652-1.507c-2.906 0-8.852 3.937-11.683 7.161-1.119 1.273-1.24 1.874-1.25 2.049z" fill="#000931"/></g><g data-name="グループ 1615"><path data-name="パス 2052" d="M-7804.083 4141.843v6.146s-1.89 1.1-6.209 1.1-5.559-1.1-5.559-1.1v-6.146h11.768" fill="#f6beb0"/></g><g data-name="グループ 1616"><path data-name="パス 2053" d="M-7814.866 4153.45a.425.425 0 01-.2-.051l-4.429-2.377a.429.429 0 11.405-.756l4.429 2.377a.429.429 0 01-.2.807z" fill="#000931"/></g><g data-name="グループ 1617"><path data-name="パス 2054" d="M-7805.831 4153.449a.429.429 0 01-.2-.807l4.43-2.377a.429.429 0 11.405.756l-4.429 2.377a.426.426 0 01-.206.051z" fill="#000931"/></g><g data-name="グループ 1618"><path data-name="パス 2055" d="M-7807.905 4176.806a7.256 7.256 0 01-2.252-.408c-1.878-.634-3.7-1.906-3.546-3.318.14-1.259 1.565-7.346 2.459-7.914a.732.732 0 01.459-.111l2.5.052a.644.644 0 01.586.408c.539 1.372 3.167 8.318 1.969 10.316a2.382 2.382 0 01-2.175.975zm-2.656-10.459a36.092 36.092 0 00-1.862 6.875c-.047.423.949 1.373 2.679 1.956 1.38.466 2.633.462 2.916-.009.616-1.029-.7-5.616-1.909-8.785zm-.479-.038zm0 0zm0 0zm0 0zm0 0zm0 0z" fill="#000931"/></g><g data-name="グループ 1619"><path data-name="パス 2056" d="M-7809.928 4167.943c.785-.16 1.475.7 1.514 2.173s.2 2.7-1.292 2.33a1.673 1.673 0 01-1.135-2.225c.077-.497.142-2.122.913-2.278z" fill="#000931"/></g><g data-name="グループ 1620"><path data-name="パス 2057" d="M-7812.65 4230.914a.643.643 0 01-.642-.612c-.165-3.335.162-17.576.378-27 .069-2.977.125-5.445.15-6.885.1-5.89.72-21.149.726-21.3a.644.644 0 111.286.052c-.006.153-.622 15.4-.725 21.273-.025 1.441-.082 3.912-.15 6.891-.216 9.405-.542 23.618-.38 26.907a.644.644 0 01-.611.674z" fill="#000931"/></g><g data-name="グループ 1621"><path data-name="パス 2058" d="M-7808.391 4230.911a.643.643 0 01-.643-.638c-.025-2.857.032-9.3.1-16.756.131-14.718.311-34.876-.09-37.275a.643.643 0 011.269-.212c.419 2.511.247 21.911.108 37.5-.067 7.452-.124 13.888-.1 16.733a.644.644 0 01-.638.649z" fill="#000931"/></g><g data-name="グループ 1622"><path data-name="パス 2059" d="M-7816.301 4147.745a.644.644 0 01-.643-.643v-5.415a.644.644 0 011.287 0v5.415a.643.643 0 01-.644.643z" fill="#000931"/></g><g data-name="グループ 1623"><path data-name="パス 2060" d="M-7804.083 4148.424a.643.643 0 01-.643-.643v-5.937a.644.644 0 111.287 0v5.937a.644.644 0 01-.644.643z" fill="#000931"/></g><g data-name="グループ 1624"><path data-name="パス 2061" d="M-7784.17 4215.865a1.884 1.884 0 01-.8 1.024c-1.982 1.047-4.855-.673-7.673.162a20.6 20.6 0 01-9.916 0c-2.979-.785-1.2-3.864 5.584-5.429s6.153-5.445 9.237-4.649a4.207 4.207 0 011.871 1.052 25.758 25.758 0 001.458 7.3c.083.178.161.356.239.54z" fill="#1c3b69"/></g></g><g><g data-name="グループ 1631"><g data-name="グループ 1627"><g data-name="グループ 1626"><path data-name="パス 2063" d="M-7781.345 4126.604l2.576-2.753a2.24 2.24 0 00.686-2.614l-1.847-8.344a20.045 20.045 0 016.983.769c-1.97-6.259-5.027-12.111-8.068-17.925a27.037 27.037 0 016.806 4.615c.3-1.3-.477-2.575-1.217-3.682-3.766-5.624-7.568-11.292-12.409-16.022l8.234-1.489c-3.265-1.13-6.836-.588-10.289-.721a1.77 1.77 0 01-.883-.195 1.9 1.9 0 01-.641-.955 31.408 31.408 0 00-7.192-10.6c1.059 2.975-.063 6.975 0 10.132l-1.482-.608a100.052 100.052 0 00-17.061-6.9 21.473 21.473 0 016.032 7.518c-8.556-1.539-17.573-2.1-25.77.788a25.5 25.5 0 008.268 3.118 54.488 54.488 0 00-10.185 5.861 23.872 23.872 0 00-7.442 8.968 20.024 20.024 0 006.133-1.586 9.146 9.146 0 01-1.241 4.775c-2.583 5.627-4.725 11.555-5.21 17.728l3.831-2.78q.7 4.673 1.348 9.354c.6.027 1.678-.928 1.959-1.457z" fill="#7b5f32"/></g></g><g data-name="グループ 1630"><g data-name="グループ 1629"><g data-name="グループ 1628"><path data-name="パス 2064" d="M-7780.89 4127.058c1.319-1.41 3.662-3.006 3.572-5.148-.126-2.994-1.344-6.266-1.992-9.188l-.62.815a21.634 21.634 0 016.812.746.649.649 0 00.791-.792 116.578 116.578 0 00-8.133-18.079l-.88.881a28.794 28.794 0 016.675 4.515.652.652 0 001.1-.455c.184-1.821-.747-3.166-1.724-4.631a217.395 217.395 0 00-3.831-5.592 75.659 75.659 0 00-8.26-9.935l-.284 1.075 8.234-1.489c.659-.119.563-1.067 0-1.241a19.162 19.162 0 00-5.617-.759c-1.119-.007-2.238.038-3.357.038a2.547 2.547 0 01-2.882-1.839 32.711 32.711 0 00-6.865-9.74.648.648 0 00-1.075.626c.981 3.245-.012 6.655-.023 9.961l.815-.621c-2.788-1.143-5.441-2.6-8.219-3.774a104.77 104.77 0 00-10.323-3.737c-.585-.179-1.135.661-.626 1.075a22.316 22.316 0 015.932 7.389l.727-.945c-8.677-1.529-17.646-2.086-26.113.788a.652.652 0 00-.154 1.176 27.994 27.994 0 008.421 3.183l-.154-1.176c-7.172 3.378-14.351 7.611-17.858 15.06-.183.389.024 1.029.555.968a23.156 23.156 0 006.3-1.609l-.815-.62c.106 2.377-1.186 4.455-2.1 6.574a72.69 72.69 0 00-1.9 4.85 46.122 46.122 0 00-2.45 11.079.647.647 0 00.968.555l3.83-2.78-.945-.385q.7 4.674 1.348 9.354c.051.364.488.506.791.449a3.05 3.05 0 001.382-.685c.2-.16 1.173-.978.422-.746a2.091 2.091 0 01.661.057c1.163.139 2.341.2 3.508.3l13.594 1.171 32.475 2.8 7.829.674c.825.071.82-1.216 0-1.287l-50.851-4.379-7.232-.623a.647.647 0 00-.556.319 2.627 2.627 0 01-1.574 1.161l.791.449q-.649-4.681-1.348-9.354a.646.646 0 00-.945-.385l-3.831 2.78.968.556a46.4 46.4 0 012.933-12.195c1.215-3.227 3.677-6.747 3.518-10.308-.017-.371-.406-.79-.815-.62a21.858 21.858 0 01-5.961 1.563l.555.969c3.42-7.263 10.41-11.309 17.4-14.6a.65.65 0 00-.154-1.176 26.924 26.924 0 01-8.114-3.053l-.154 1.176c8.249-2.8 16.972-2.278 25.428-.788a.653.653 0 00.727-.945 23.119 23.119 0 00-6.133-7.648l-.626 1.075a101.954 101.954 0 0111.487 4.244c2.374 1.05 4.655 2.283 7.056 3.267a.647.647 0 00.814-.62c.011-3.44 1-6.926-.023-10.3l-1.075.626a32.091 32.091 0 014.627 5.7 31.574 31.574 0 011.578 2.81 14.308 14.308 0 001.239 2.623c.932 1.161 2.629.832 3.958.818a25.22 25.22 0 017.886.683v-1.241l-8.234 1.489a.648.648 0 00-.284 1.075 71.84 71.84 0 017.62 9.063 172.199 172.199 0 013.009 4.33c1.139 1.682 3.025 3.71 2.809 5.856l1.1-.455a30.057 30.057 0 00-6.936-4.716.649.649 0 00-.881.881 114.54 114.54 0 018 17.771l.792-.791a22.724 22.724 0 00-7.154-.792.654.654 0 00-.621.815l1.478 6.675c.365 1.649.421 2.754-.667 4.207a28.269 28.269 0 01-2.061 2.2c-.56.597.348 1.509.915.902z" fill="#000931"/></g></g></g></g><g data-name="グループ 1637"><g data-name="グループ 1634"><g data-name="グループ 1632"><path data-name="パス 2065" d="M-7810.143 4087.218s-26.154-6.572-25.315 34.828c-4.056 4.056-4.336 12.587 4.475 12.308 6.154 11.189 33.823 9 40.537.747 10.618-.61 8.97-12.876 4.76-11.045 5.812-42.348-24.457-36.838-24.457-36.838z" fill="#fcecda"/></g><g data-name="グループ 1633"><path data-name="パス 2066" d="M-7811.832 4142.67c-1.284 0-2.57-.055-3.844-.17-7.636-.69-13.18-3.347-15.674-7.5h-.05c-4.552 0-6.258-2.336-6.874-3.758-1.224-2.828-.29-6.843 2.168-9.454-.27-15.37 3.119-25.971 10.075-31.509a19.679 19.679 0 0115.909-3.716c1.329-.214 11.187-1.515 18.412 5.4 6.366 6.094 8.646 16.611 6.783 31.264a2.45 2.45 0 011.776.7c1.373 1.291 1.751 4.072.879 6.469-1.124 3.093-3.979 5.024-7.857 5.327-3.607 4.154-12.595 6.946-21.703 6.947zm-19.15-8.963a.644.644 0 01.564.333c2.178 3.96 7.454 6.509 14.857 7.177 10.086.912 20.9-1.956 24.617-6.526a.64.64 0 01.462-.236c4.768-.274 6.433-2.938 7-4.5.775-2.134.328-4.265-.552-5.092a1.181 1.181 0 00-1.4-.22.644.644 0 01-.894-.678c2.017-14.691-.092-25.142-6.268-31.063-7.114-6.82-17.335-5.07-17.437-5.051a.641.641 0 01-.271-.009c-.081-.021-8.171-1.952-14.946 3.455-6.655 5.311-9.875 15.651-9.57 30.733a.642.642 0 01-.188.468c-2.249 2.25-3.148 5.789-2.091 8.233.886 2.046 2.988 3.076 6.091 2.977z" fill="#000931"/></g></g><g data-name="グループ 1636"><g data-name="グループ 1635"><path data-name="長方形 215" fill="#000931" d="M-7836.062 4122.263l1.21-.44 4.479 12.31-1.21.44z"/></g></g></g><g data-name="グループ 1642"><g data-name="グループ 1639"><g data-name="グループ 1638"><path data-name="パス 2067" d="M-7837.158 4119.697a17.63 17.63 0 004.17-3.3l2.221 5.592 7.64-18.982 2.756 7.381c6.319-5.973 13.269-25.314 16.753-31.8 0 0-56.665 22.333-31.065 31.493z" fill="#7b5f32"/></g></g><g data-name="グループ 1641"><g data-name="グループ 1640"><path data-name="パス 2068" d="M-7803.618 4078.583c17.733 4.082 21.856 37.03 21.856 37.03q-.059 4.837-.028 9.675l-5.612-14.726a38.05 38.05 0 01-.624 7.142c-2.421-6.427-4.911-12.977-9.238-18.311a59.282 59.282 0 00-8.057 9.475l-1.85-8.518-9.729 5.744" fill="#7b5f32"/></g></g></g><g data-name="グループ 1645"><g data-name="グループ 1644"><g data-name="グループ 1643"><path data-name="パス 2069" d="M-7782.553 4115.613q-.055 4.837-.028 9.675l1.264-.171-5.613-14.723a.647.647 0 00-1.264.171 41.565 41.565 0 01-.6 6.972h1.241c-2.466-6.541-5.021-13.066-9.4-18.6a.649.649 0 00-.91 0 63.85 63.85 0 00-8.158 9.6l1.176.154-1.85-8.518a.649.649 0 00-.945-.384l-9.728 5.744.88.88 8.528-14.223-1.111-.649a139.267 139.267 0 01-12 18.514l1.176.154-2.758-7.378a.65.65 0 00-1.241 0l-7.64 18.982h1.241l-2.221-5.592a.652.652 0 00-1.075-.284 19.222 19.222 0 01-4.04 3.2l.945.727a49.761 49.761 0 012.475-9.621c.286-.779-.958-1.115-1.241-.342a49.778 49.778 0 00-2.475 9.621.653.653 0 00.945.727 20.522 20.522 0 004.3-3.405l-1.075-.284 2.22 5.592a.65.65 0 001.241 0l7.641-18.979h-1.241l2.756 7.381a.654.654 0 001.176.154 139.217 139.217 0 0012-18.514.644.644 0 00-1.111-.649l-8.528 14.223a.648.648 0 00.88.88l9.728-5.744-.945-.384 1.85 8.518a.651.651 0 001.176.154 62.122 62.122 0 017.957-9.344h-.91c4.233 5.34 6.692 11.711 9.073 18.027.2.528 1.122.69 1.241 0a43.674 43.674 0 00.648-7.313l-1.264.171 5.612 14.726a.647.647 0 001.264-.171q-.026-4.838.028-9.675a.644.644 0 00-1.287 0z" fill="#000931"/></g></g></g><g data-name="グループ 1647"><g data-name="グループ 1646"><path data-name="パス 2070" d="M-7800.806 4119.447a34.659 34.659 0 000 4.968c.231 1.126 2.079 4.072 4.072 4.072s4.361-2.31 4.419-4.52 0-5.531 0-5.531-7.018.058-8.491 1.011z" fill="#000931"/></g></g><g data-name="グループ 1649"><g data-name="グループ 1648"><ellipse data-name="楕円形 92" cx=".827" cy="1.415" rx=".827" ry="1.415" fill="#fff" transform="translate(-7797.425 4121.682)"/></g></g><g data-name="グループ 1651"><g data-name="グループ 1650"><path data-name="パス 2071" d="M-7795.947 4110.529l-9.132 6.219s-.468-2.75 8.035-5.925" fill="#000931"/></g></g><g data-name="グループ 1656"><g data-name="グループ 1655"><g data-name="グループ 1654"><g data-name="グループ 1653"><g data-name="グループ 1652"><path data-name="パス 2072" d="M-7803.353 4122.084a.429.429 0 01-.334-.7c3.16-3.93 9.637-3.953 14.928-3.534a.429.429 0 01-.068.855c-5.08-.4-11.284-.4-14.192 3.217a.428.428 0 01-.334.162z" fill="#000931"/></g></g></g></g></g><g data-name="グループ 1658"><g data-name="グループ 1657"><path data-name="パス 2073" d="M-7818.569 4119.447a34.659 34.659 0 010 4.968c-.231 1.126-2.079 4.072-4.072 4.072s-4.361-2.31-4.419-4.52 0-5.531 0-5.531 7.018.058 8.491 1.011z" fill="#000931"/></g></g><g data-name="グループ 1660"><g data-name="グループ 1659"><ellipse data-name="楕円形 93" cx=".827" cy="1.415" rx=".827" ry="1.415" fill="#fff" transform="translate(-7823.603 4121.682)"/></g></g><g data-name="グループ 1662"><g data-name="グループ 1661"><path data-name="パス 2074" d="M-7823.428 4110.529l9.132 6.219s.468-2.75-8.035-5.925" fill="#000931"/></g></g><g data-name="グループ 1667"><g data-name="グループ 1666"><g data-name="グループ 1665"><g data-name="グループ 1664"><g data-name="グループ 1663"><path data-name="パス 2075" d="M-7816.022 4122.085a.429.429 0 01-.335-.16c-2.908-3.617-9.112-3.619-14.192-3.217a.429.429 0 11-.068-.855c5.291-.419 11.769-.4 14.929 3.534a.429.429 0 01-.334.7z" fill="#000931"/></g></g></g></g></g><g data-name="グループ 370"><g data-name="パス 1151"><g data-name="グループ 1668"><path data-name="パス 2076" d="M-7809.637 4130.045c-1.612.53-2.737.293-2.017-.8s1.231-1.035 2.27-.989 2.366 1.273 1.649 1.84-1.305-.248-1.902-.051z" fill="#ffbdad"/></g></g></g><g data-name="グループ 371"><g data-name="楕円形 27"><g data-name="グループ 1669"><ellipse data-name="楕円形 94" cx=".447" cy=".492" rx=".447" ry=".492" fill="#000333" transform="translate(-7810.221 4129.746)"/></g></g></g><g data-name="グループ 1671"><g data-name="グループ 1670"><path data-name="パス 2077" d="M-7813.594 4137.96a.561.561 0 01-.382-.974c.095-.088 2.345-2.148 4.307-2.148 2.012 0 3.721 2.121 3.793 2.211a.562.562 0 01-.878.7c-.015-.018-1.446-1.787-2.915-1.787-1.262 0-2.986 1.335-3.544 1.849a.557.557 0 01-.381.149z" fill="#000931"/></g></g><g data-name="グループ 1674"><g data-name="グループ 1672"><path data-name="線 13" fill="#fcecda" d="M-7790.445 4135.098l4.76-11.046"/></g><g data-name="グループ 1673"><path data-name="パス 2078" d="M-7790.446 4135.742a.643.643 0 01-.591-.9l4.76-11.045a.643.643 0 111.181.51l-4.76 11.045a.643.643 0 01-.59.39z" fill="#000931"/></g></g></g></g></svg>