<svg data-name="グループ 295" xmlns="http://www.w3.org/2000/svg" width="19.438" height="12.684"><g data-name="グループ 300"><path data-name="パス 1071" d="M7.533 10.936h-.191a13.286 13.286 0 01-2.3-.239.366.366 0 01-.214-.591 5.955 5.955 0 00.748-1.189 9.366 9.366 0 01-1.47 1.4.379.379 0 01-.334.056A7.119 7.119 0 01.937 8.806a.366.366 0 010-.5l.627-.681-1.307-.436a.366.366 0 01-.227-.477 8.131 8.131 0 017.994-4.716c5 .149 7.7 2.317 8.519 3.1 2.084-1.941 2.546-1.663 2.724-1.556a.366.366 0 01.164.415 14.24 14.24 0 00-.513 2.446 17.311 17.311 0 00.515 2.63.366.366 0 01-.489.433 8.963 8.963 0 01-2.435-1.41c-1.079.626-5.185 2.882-8.976 2.882zm-1.773-.862a13 13 0 001.6.128c4.141.084 8.972-2.9 9.02-2.93a.366.366 0 01.483.086 5.386 5.386 0 001.679 1.124 12.211 12.211 0 01-.358-2.084 10.438 10.438 0 01.363-1.988 14.074 14.074 0 00-1.763 1.462.372.372 0 01-.271.1.367.367 0 01-.26-.127c-.025-.029-2.618-2.953-8.251-3.122A7.341 7.341 0 00.874 6.617l1.459.486a.366.366 0 01.154.6l-.755.82a7.282 7.282 0 002.089 1.091c.56-.451 2.465-2.126 2.465-4.047a.366.366 0 01.732-.023 8 8 0 01-1.256 4.53z" fill="#5fb1e3"/></g><g data-name="グループ 301"><path data-name="パス 1072" d="M6.821 11.367a9.655 9.655 0 004.391-.615c1.844-.878-2.9 1.932-3.689 1.932s-.702-1.317-.702-1.317z" fill="#5fb1e3"/></g><g data-name="グループ 302"><path data-name="パス 1073" d="M5.595 1.835s.7-1.918 1.682-1.833 7.335 2.051 7.376 2.488l-.254.681a12.592 12.592 0 00-8.804-1.336z" fill="#5fb1e3"/></g><g data-name="グループ 303"><path data-name="パス 1074" d="M3.704 6.089a.747.747 0 11.746-.746.747.747 0 01-.746.746zm0-1.054a.307.307 0 10.307.307.308.308 0 00-.307-.307z" fill="#5fb1e3"/></g></svg>