<svg xmlns="http://www.w3.org/2000/svg" viewBox="0 0 246.74 128.66"><defs><style>.cls-3{fill:#5b4221}.cls-4{fill:#ffd400}.cls-5{fill:#ffde00}.cls-6{fill:#f0b800}</style></defs><g id="レイヤー_2" data-name="レイヤー 2"><g id="レイヤー_1-2" data-name="レイヤー 1"><path d="M245.3 45.43c.16 2.09-1.49 11.49-6 13.75-11.24 5.6-22.53 11.12-33.8 16.69l-81.75 40.36c-6.41 3.16-13.09 7.46-20 9.2a68.44 68.44 0 01-19.68 2.42c-6.78-.31-14.27-5.5-20.34-8.27l-44-20.12c-4.42-2-15-11.91-17.57-16-4.36-7 7.91-2.92 12-4.69L29.86 72l85.79-36.95 27.89-12c8.38-3.62 18-15.16 27.39-12.86 6.92 1.69 13.8 12.65 20.37 15.37l34.27 14.2c5.43 2.24 19.31-.08 19.73 5.67z" fill="#a49d86"/><path d="M231.85 55.92c-10.52 5.25-21.08 10.41-31.63 15.61l-76.49 37.77c-6 3-12.25 7-18.7 8.61a64.35 64.35 0 01-18.42 2.27c-6.35-.29-12.83-2.6-18.51-5.2-13.72-6.27-35.94-16.81-49.67-23.09C14.3 90 5.34 83.2 3 79.4c-1.74.4-2.44 1.47-.81 4.09 2.54 4.06 13.15 13.94 17.57 16l44 20.12c6.07 2.77 13.56 8 20.34 8.27a68.44 68.44 0 0019.68-2.42c6.9-1.74 13.58-6 20-9.2l81.75-40.36c11.27-5.57 22.56-11.09 33.8-16.69 4.46-2.23 6.12-11.33 6-13.63-3.81 3.67-10.53 8.87-13.48 10.34z" fill="#908972"/><path class="cls-3" d="M246.69 45.05a1.27 1.27 0 01-.07-.12.67.67 0 00-.06-.12c-2.08-4.92-8.44-4.55-13.1-4.87-13.6-.94-31.68-9.94-43.58-16.54-8.15-4.51-11.57-13.58-21.61-14.49-8.87-.8-18.27 9.67-25.35 13.33-27.67 14.31-58 25-86.59 37.29l-22.58 9.73c-6.74 2.9-15.73 8.63-23.14 9C9.11 78.34.46 77 0 80.38c-.67 5.43 6.78 10.5 10.32 13.74C19 102 30.48 105.69 40.93 110.47 63 120.57 83.61 135.73 108.47 125c30.22-13.1 59.48-29.41 89-44 14.16-7 28.32-14 42.44-21 4.85-2.41 6.56-9.5 6.78-14.45a.69.69 0 000-.5zM12.41 80.24c5.87-.3 12.77-5.08 18.07-7.36L66.6 57.32l69.59-30a104.3 104.3 0 0020.05-11.23c15.8-11.2 22.24 3.77 34 10.28 9.35 5.18 20.38 8.47 30.26 12.56 4.38 1.82 19.73 2.39 22.94 6.09a.52.52 0 00-.12.17c-3.38 8.36-18.48 13-25.62 16.57l-31.58 15.57c-22.21 11-44.62 21.6-66.63 33-14 7.23-27.87 11.22-43.44 6.56-7.94-2.37-15.58-6.75-23.07-10.25C37.85 99.6 17.49 93.71 6 80.83a25.77 25.77 0 016.41-.59zM221.77 66.7l-34.12 16.82c-22.81 11.26-45.82 22.19-68.42 33.87-12.51 6.47-27 12.5-41.31 7.84-10.45-3.39-21-10.07-31-14.65-10.62-4.86-22.92-8.81-32.08-16.07A74.91 74.91 0 014.55 84.42a2.35 2.35 0 01-.77-2c11.89 13 32.27 18.92 47.6 26.08 18.72 8.75 37.33 18 58.11 9 28-12.12 55-27.2 82.35-40.7 13.55-6.68 27.11-13.33 40.63-20.06 3.36-1.67 7.8-4.13 10.79-7.26-2.61 9.38-13.03 13.05-21.49 17.22z"/><path class="cls-4" d="M198.37 23.21c5.54 13 3.83 28.78-5.25 37.24-7.35 4.34-16.92 11.06-26 9.69-8.94-1.34-16.84-6.49-24.15-11.48-13.35-9.11-22.4-15.36-18.25-35.21 3.89-18.64 30-24 37.73-23.4 10.8.85 30.76 11.11 35.92 23.16z"/><path class="cls-3" d="M199.75 22.84c-17-32.83-77.42-30.91-77.41 11.39 0 19.4 31.84 36.31 48.14 36.82 8.56.26 20.59-7 26.05-12.86 8.62-9.33 7.24-24.48 3.22-35.35zm-45.94 41.34c-12.36-6.4-27.12-15.74-28.7-30.7-2-18.84 14.22-29.37 30.61-32.26 15.17-2.67 34.41 9.15 41.26 22.36A42.08 42.08 0 01198.72 49c-4.42 18.38-30.34 22.73-44.91 15.18z"/><path class="cls-5" d="M157 67.79c6 2.23 12.37 3.36 16.47-1 7-7.5 8.95-23.8 2.84-31.92-4.85-6.44-10.85-12-18-15.06-22.74-9.93-30.43-6.44-32.77.36-1.9 5.51-10 22.43 7.61 34.82 2.66 1.82 19.46 11.18 23.85 12.8z"/><path class="cls-3" d="M180.54 40.66c-3.57-17.43-30.9-29.48-46.9-28-11 1.05-13.46 16.89-12.81 25.48 1.21 16.06 22.49 25.33 35.37 30.6 7.64 2.53 14.37 3.39 19.87-3.28s6.1-16.81 4.47-24.8zm-22.77 26.15a140.31 140.31 0 01-23.52-12.68c-12.7-8.37-11.81-21.33-7.33-33.78 4.93-13.71 30.93-.15 37.89 4.7 6.43 4.48 11.86 11 13.45 18.74C181 57 173.1 71.89 157.77 66.81z"/><path class="cls-6" d="M129.28 26.8c-4.46 15.72 11.7 25.64 23.65 31.84.69.36 3.26-.69 2.24-1.22-11.54-6-27.48-15.74-23.13-31 .23-.81-2.53-.41-2.76.42zM136.24 25.62c.67-7.43 15.79.75 18.88 2.45 6.43 3.53 12 10.5 13.09 17.77.16 1.12 2.95.45 2.77-.74-1.63-10.92-11.16-18.1-20.77-21.94-4.77-1.92-16-5.7-16.76 2.74-.12 1.29 2.69.82 2.79-.28zM161.59 60.91a10.89 10.89 0 0011.14-9c.17-.94-2.61-.45-2.76.39-.54 3-3.06 7.44-6.65 7.21a2.91 2.91 0 00-2 .53c-.41.32-.36.81.23.85z"/><path class="cls-6" d="M154.06 35.34c3.65 2.77 7.08 6.43 8.43 10.9 1.15 3.78-1 7.08-5.14 6.71a14.83 14.83 0 01-6.64-2.27c-.64-.41-2.93.72-2.62.92 4.22 2.75 12.2 4.13 16-.08 5.09-5.57-3.24-13.92-7.43-17.1-.59-.45-3 .66-2.62.92z"/><path class="cls-6" d="M153.61 46.2c-4.63-2.34-9.23-5-12.35-9.21-1.59-2.17-2.46-5.17.1-7a6.36 6.36 0 016.73.13c.77.49 3.33-.63 2.21-1.35-3.85-2.45-10.93-1.36-13.05 3-1.47 3 1.41 6.51 3.31 8.54 2.94 3.17 7 5.3 10.85 7.22.81.41 3.36-.77 2.2-1.35z"/><path class="cls-4" d="M156.06 40.63c5.55 13 3.84 28.78-5.24 37.24-7.35 4.34-16.93 11.06-26 9.7s-16.82-6.5-24.16-11.49C87.31 67 78.25 60.72 82.41 40.87c3.89-18.64 30-24 37.72-23.4 10.87.85 30.78 11.11 35.93 23.16z"/><path class="cls-3" d="M157.45 40.26C140.44 7.43 80 9.35 80 51.65c0 19.4 31.85 36.32 48.14 36.82 8.57.27 20.59-7 26-12.86 8.72-9.33 7.33-24.48 3.31-35.35zM111.51 81.6c-12.35-6.4-27.12-15.74-28.7-30.7-2-18.84 14.23-29.37 30.62-32.26 15.16-2.64 34.4 9.15 41.25 22.36a42 42 0 011.74 25.38C152 84.8 126.08 89.15 111.51 81.6z"/><path class="cls-5" d="M114.69 85.22c6 2.22 12.37 3.35 16.47-1 7-7.5 9-23.81 2.84-31.92-4.84-6.44-10.85-12-18-15.06-22.73-9.93-30.43-6.44-32.77.36-1.89 5.51-10 22.43 7.61 34.82 2.67 1.82 19.48 11.17 23.85 12.8z"/><path class="cls-3" d="M138.24 58.08c-3.57-17.43-30.9-29.48-46.9-27.95-11 1-13.46 16.88-12.8 25.48C79.75 71.67 101 80.92 113.91 86.2c7.63 2.53 14.37 3.39 19.86-3.28s6.11-16.85 4.47-24.84zm-22.76 26.15A140.8 140.8 0 0192 71.55c-12.7-8.37-11.81-21.32-7.33-33.78 4.93-13.71 30.93-.14 37.89 4.71 6.43 4.47 11.87 11 13.45 18.73 2.65 13.19-5.21 28.09-20.53 23.02z"/><path class="cls-6" d="M87 44.21c-4.47 15.73 11.7 25.65 23.64 31.85.69.36 3.26-.69 2.24-1.21-11.55-6-27.47-15.75-23.13-31 .23-.81-2.52-.41-2.75.41zM94 43c.67-7.43 15.79.75 18.88 2.45 6.43 3.53 12 10.5 13.08 17.77.17 1.12 3 .45 2.77-.74-1.63-10.92-11.15-18.09-20.77-21.94-4.77-1.91-16-5.7-16.75 2.74-.21 1.33 2.64.86 2.79-.28zM119.29 78.33a10.88 10.88 0 0011.14-9c.17-.94-2.61-.45-2.76.4-.54 3-3.06 7.43-6.65 7.21a2.85 2.85 0 00-2 .52c-.41.33-.36.82.23.85z"/><path class="cls-6" d="M111.76 52.76c3.65 2.78 7.09 6.43 8.43 10.89 1.15 3.79-1 7.09-5.14 6.72a14.83 14.83 0 01-6.64-2.27c-.64-.41-2.93.72-2.61.93 4.22 2.73 12.19 4.11 16-.09 5.07-5.57-3.25-13.92-7.44-17.1-.59-.45-3 .66-2.62.92z"/><path class="cls-6" d="M111.32 63.62c-4.64-2.34-9.23-4.95-12.36-9.21-1.59-2.17-2.45-5.17.11-7a6.36 6.36 0 016.73.13c.76.49 3.33-.63 2.2-1.35-3.85-2.45-10.93-1.36-13 3-1.47 3 1.4 6.51 3.3 8.54 2.95 3.17 7 5.3 10.85 7.22.82.41 3.36-.77 2.21-1.35z"/><path class="cls-4" d="M117.37 60.92c6.26 12.71 5.3 28.28-3.53 36.65-7.25 4.31-16.66 11-26 9.68-9.12-1.25-17.4-6.25-25.07-11.16-14-8.88-23.53-15-20.27-34.53 3-18.35 29.34-23.78 37.21-23.23 11.05.78 31.83 10.76 37.66 22.59z"/><path class="cls-3" d="M118.75 60.55s-.06-.06-.08-.09 0-.06 0-.08c-17.54-30.21-80.17-31.63-78 11.79.49 9.78 8.3 16.08 15.7 21.15 10.54 7.22 21.89 14.49 35 14.81 6.81.17 19.49-5.73 23.82-10.53 9.51-10.6 9-24.5 3.56-37.05zm-9 38.57c-12.42 7.53-23.51 8.21-35.66 2.34-12.65-6.12-28.32-15.07-30.69-30-3.23-20.34 16.75-31.65 34.38-32.38 13.83-.57 31.41 10.67 38.22 22.26 3.56 8.24 4.77 16 3 24.9a19.19 19.19 0 01-9.25 12.88z"/><path class="cls-5" d="M77.48 105c6.22 2.16 12.73 3.24 16.69-1.09 6.79-7.42 7.94-23.47 1.34-31.41-5.25-6.31-11.62-11.71-19-14.72-23.59-9.64-31.24-6.15-33.28.55-1.67 5.42-9.08 22.11 9.42 34.19 2.77 1.8 20.35 10.9 24.83 12.48z"/><path class="cls-3" d="M100.26 78.71C96.36 62 66.82 47.75 50.74 51c-10.49 2.1-12.32 15.42-11.56 24.44C40.58 91.86 63.62 101 76.69 106c5.64 1.75 14.2 4 18.66-1.62 5.82-7.38 7-16.68 4.91-25.67zm-22 25.3c-8.2-3.15-16.19-7.52-23.8-11.88C41.67 84.8 40 72.23 44.24 59.52 49 45.31 73.31 57 81.54 61.74 89.26 66.15 96 73.26 98.08 82c2.98 12.82-4.86 26.65-19.82 22z"/><path class="cls-6" d="M47.33 64.82C43.41 80.68 61 90.23 72.9 96c.7.34 3.26-.73 2.24-1.22-11.49-5.56-28.86-15-25.06-30.39.21-.84-2.54-.41-2.75.41zM54.32 63.64c.31-7.13 15.46.39 18.3 1.78 7.08 3.48 13.53 10.08 15.2 17.92.24 1.14 3 .42 2.77-.74-2.37-11.17-12.31-17.52-22.15-21.48-4.52-1.82-16.54-5.64-16.91 2.79-.06 1.32 2.75.82 2.79-.27zM82.11 98.23a10.43 10.43 0 0010.58-8.92c.13-1-2.64-.44-2.76.39-.44 3.3-2.93 7.3-6.71 7.11-.94 0-3 1.31-1.11 1.42z"/><path class="cls-6" d="M72.92 73.1c3.85 2.7 7.65 6.32 9.18 10.88 1.05 3.14-.41 6.48-4 6.47a15.76 15.76 0 01-7.79-2.25c-.66-.4-2.91.74-2.61.92 3.91 2.37 12.39 4.25 16 .17 5.22-5.94-3.55-13.93-8.09-17.12-.62-.43-3 .69-2.62.93z"/><path class="cls-6" d="M73 83.77c-4.84-2.28-9.71-4.83-13.1-9.1-1.61-2-2.71-4.94-.19-6.72 2-1.38 4.91-1.07 6.87.09.79.46 3.34-.68 2.2-1.35-4-2.38-11.13-1.36-13.2 3.2C54.2 73 58 76.75 59.93 78.53c3.07 2.86 7.07 4.8 10.88 6.59.82.39 3.36-.8 2.2-1.35z"/></g></g></svg>