<svg xmlns="http://www.w3.org/2000/svg" width="13" height="35.573"><g data-name="グループ 888"><g data-name="グループ 887"><g data-name="グループ 332"><g data-name="グループ 327"><path data-name="パス 1095" d="M8.627 35.572a2.246 2.246 0 00-4.255 0 2.248 2.248 0 01-2.245-2.245V21.509A1.536 1.536 0 010 20.091V10.045a2.6 2.6 0 012.6-2.6h7.8a2.6 2.6 0 012.6 2.6V20.09a1.536 1.536 0 01-2.127 1.418v11.818a2.248 2.248 0 01-2.246 2.246zM5.672 21.627h1.655v11.7a1.3 1.3 0 102.6 0V20.091h.945a.591.591 0 001.182 0V10.045a1.658 1.658 0 00-1.655-1.655h-7.8a1.658 1.658 0 00-1.655 1.655V20.09a.591.591 0 001.182 0h.945v13.236a1.3 1.3 0 002.6 0z" fill="#fff"/></g><g data-name="グループ 328"><path data-name="パス 1096" d="M8.51 10.521c-.8-.6-1.891.236-1.891.236s-1.089-.838-1.891-.236c-.945.709-.473 2.836 1.891 4.018 2.364-1.184 2.836-3.311 1.891-4.018z" fill="#fff"/></g><g data-name="グループ 329"><path data-name="パス 1097" d="M6.5 7.091a3.545 3.545 0 113.545-3.545A3.55 3.55 0 016.5 7.091zm0-6.146a2.6 2.6 0 102.6 2.6 2.6 2.6 0 00-2.6-2.6z" fill="#fff"/></g><g data-name="グループ 330"><path data-name="長方形 167" fill="#fff" d="M9.943 14.891h.945v5.374h-.945z"/></g><g data-name="グループ 331"><path data-name="長方形 168" fill="#fff" d="M2.143 14.891h.945v5.374h-.945z"/></g></g></g></g></svg>