<svg xmlns="http://www.w3.org/2000/svg" viewBox="0 0 186.12 172.7"><defs><style>.cls-2{fill:#5b4221}.cls-4{fill:#ffd400}.cls-5{fill:#fffaae}</style></defs><g id="レイヤー_2" data-name="レイヤー 2"><g id="レイヤー_1-2" data-name="レイヤー 1"><path d="M184.73 86.69c1.24 21.6-11.38 43.17-16.53 50.19-9.2 12.53-21.2 23.18-54.67 33.12-21 6.23-59-3.38-68.47-8.74C27 151.05 14.51 134.53 6.3 115.58s-4.82-38.13.34-57.44C11.23 40.94 32.45 19.08 64 6.21c34.79-14.21 69.08.69 90 15.9 8.87 6.4 28.89 32.43 30.73 64.58z" fill="#fcfaf5"/><path class="cls-2" d="M157.88 23.72C140.13 6.63 111-1.21 87.07.15S39.66 15.88 22.68 31.82C3.71 49.63-2.61 77.51.94 102.74c3.37 23.92 24.09 50.65 45.93 60.5 18 8.13 41.36 11.12 60.85 8.57 42.82-5.6 79.11-41.27 78.39-85.5-1.88-22.95-11.44-46.41-28.23-62.59zm-55.47 147.51c-44.95 3.67-84.69-21.16-97.74-64.83-6.38-21.35.12-50 13.8-67.39C37.85 14.35 72-1.38 103 1.81c45.48 4.69 76.75 40.94 80.39 85.25.68 45.16-37.09 80.6-80.98 84.17z"/><path class="cls-2" d="M85.76 23.44c-15.11 1.53-31.43 10.7-42.35 21C28.89 58 23.48 75.7 24.83 95.56c2.49 36.58 43.78 58.83 77.08 53.76 32.48-4.93 59.69-28.55 59.63-63.09C158 46.75 125.6 19.41 85.76 23.44zM93 148.34c-31.28-.87-56.61-18.27-64.73-49.34-11.09-42.45 34.25-78.74 73.25-74.15 32.84 3.86 54.38 30.44 57.25 62.15.06 35.51-30.77 62.31-65.77 61.34z"/><path d="M42.22 135.58c11.18 5.64 22.8 1.93 33.18-5.26 8-5.55 16.58-4.49 25.3-7.42 13.22-4.44 22.79-16.44 36.67-19 9.35-1.73 22.15-6.44 25.14-16.32 3.08-10.23 1-21.71-2.94-31.39-5.65-13.76-20.74-26.21-35.19-29a34.56 34.56 0 00-22 3c-6.47 3.25-9.57 9.7-15.62 13-5.1 2.79-10.12 3.52-15.84 4.5-6.36 1.09-13 .37-19.27 2.08A81.82 81.82 0 0036.8 55.9C28.36 60.26 23 71.59 20.67 80.37c-5 19.2 1.33 41.43 17.94 53a30.55 30.55 0 003.61 2.21z" fill="#fff"/><path class="cls-2" d="M135.67 30.09c-9.82-5.17-24.55-6.07-34.33 0a43.48 43.48 0 00-8.17 6.62c-8 8.06-18.57 10.42-29.35 11.08-7.34.45-13.72 1.4-20.5 4.44C9.44 67.41 9.93 117.44 40.91 136c12.88 5.31 24.28 1.58 35.55-5.69 8.75-5.64 19.51-4.15 28.56-8.66 12.32-6.15 21.46-14.29 35.36-18 13.63-3.61 23.12-9.47 24.91-24.35 2.54-20.96-12.05-39.96-29.62-49.21zm26.85 50c-.26 14.8-12.41 20.18-25.26 23.39-10.43 2.6-18.5 8.66-27.45 14.4-10.37 6.66-18.06 4.89-27.9 8.74-12.81 5-20.52 15.84-38.38 8.48C17.65 119.57 12.75 82 32.89 59.6c12-13.3 34.33-9.42 50.18-14.29 17.05-5.24 18-23 43.51-16.79 15.4 3.77 27.63 17.49 33 31.76a53.25 53.25 0 012.94 19.82z"/><path class="cls-4" d="M76.24 99.75c-3.46 7-10.3 12.42-18.53 12.35-6.86-.07-14.9-2.81-18.05-9-4.46-8.87-4.47-21.47 4.14-27.6 11.15-8 23-6.45 30.26 1.67 5.73 6.45 5.74 15.37 2.18 22.58z"/><path class="cls-2" d="M64.29 69.83c-11-3.2-24.47 3.91-28.09 14.58a21.71 21.71 0 0013.06 27.46c11.55 4.06 22.71-1.64 28.31-12 5.59-12.69.43-26.04-13.28-30.04zM49 109.32c-8.68-3-11.27-12.9-10.75-21.15.75-12.66 15.34-19.08 26.43-15.86 12 3.51 14.69 17.12 10.23 27.27-5.43 9.99-15.21 13.5-25.91 9.74z"/><path class="cls-5" d="M46.43 95.3c6.42-.83 9.13-18.74 1-17-2.26.47-4 3.37-4.71 5.37C41.8 86.12 41.3 96 46.43 95.3z"/><path class="cls-4" d="M139.31 75.6c-3.46 7-10.3 12.42-18.53 12.34-6.86-.07-13.71-3.66-16.86-9.9-4.46-8.83-5.72-20.66 2.94-26.7 8.22-5.72 23-6.45 30.26 1.68 5.74 6.45 5.75 15.37 2.19 22.58z"/><path class="cls-2" d="M128.68 46.75c-9.84-2.88-22.69.79-27.89 9.9-6 10.51 1.41 25.61 11.2 30.52 11.17 5.61 23.25-1.48 28.65-11.4 5.28-12.03 1.24-25.17-11.96-29.02zM110.3 83.39c-7.36-4.73-9.85-16.91-7.53-24.79 3-10.29 17.45-12 26.08-9.43 11.58 3.38 13.32 16.7 9.13 26.26-5.7 10.48-17.21 14.68-27.68 7.96z"/><path class="cls-5" d="M110.1 70.43c6.42-.82 9.12-18.73 1-17-2.25.48-4 3.36-4.71 5.36-.92 2.47-1.39 12.3 3.71 11.64z"/></g></g></svg>