<svg xmlns="http://www.w3.org/2000/svg" width="11.401" height="15.244"><g data-name="グループ 1033"><g data-name="グループ 294"><g data-name="グループ 291"><path data-name="パス 1064" d="M11.184 9.642c-.165 1.023-.829 4.417-2.394 5.2a3.051 3.051 0 01-3.575-.572 2.764 2.764 0 01-1.991.972 2.491 2.491 0 01-.293-.019c-.623-.078-1.246-.905-1.851-2.461-.892-2.28-1.758-6.544-.293-8.275A2.2 2.2 0 013.305 3.6a1.624 1.624 0 00.594.066 5 5 0 01.936-.2c.02 0 .041-.007.061-.009a.426.426 0 01.412.2c-.08.2-.153.408-.223.626a.407.407 0 01-.09.02 5.252 5.252 0 00-.473.077 3.36 3.36 0 00-.383.1l-.051.014a2.29 2.29 0 01-.968-.066 1.39 1.39 0 00-1.683.6c-.747.883-.907 3.519.228 6.852.6 1.773 1.2 2.454 1.373 2.491a2.1 2.1 0 001.8-1 .425.425 0 01.7-.024 2.3 2.3 0 002.869.72c.778-.388 1.555-2.227 1.936-4.576.373-2.3.2-4.063-.175-4.441a1.546 1.546 0 00-1.646-.339 2.082 2.082 0 01-1.1.017 1.042 1.042 0 01-.276-.15.962.962 0 00-.237-.126.361.361 0 01-.083-.046 3.5 3.5 0 01.005-.7.424.424 0 01.391-.043c.042.017.083.034.122.053a1.864 1.864 0 01.311.185c.122.092.39.039.7-.02a2.385 2.385 0 012.411.57c.801.808.726 3.299.418 5.191z" fill="#52b264"/></g><g data-name="グループ 292"><path data-name="パス 1065" d="M8.776 5.461a4.424 4.424 0 00-.861-.24 3.651 3.651 0 00-.832-.054 3.5 3.5 0 00-1.9.655 2.144 2.144 0 00-.422-.4 3.2 3.2 0 00-.439-.279 1.6 1.6 0 00-.57-.211.255.255 0 00-.014.51c.18.036 1.011.48 1.133.846a.252.252 0 00.184.168.222.222 0 00.058.007.251.251 0 00.18-.075 3.132 3.132 0 013.3-.453.255.255 0 10.184-.476z" fill="#52b264"/></g><g data-name="グループ 293"><path data-name="パス 1066" d="M9.229 1.939a.255.255 0 01-.26.1 1.353 1.353 0 00-.931.187 1.656 1.656 0 00-.633 1.142 4.052 4.052 0 00-.053.364 2.125 2.125 0 00.077 1.016c.08.2.192.284.281.3a.243.243 0 01.206.175.236.236 0 01.01.109.257.257 0 01-.257.223h-.032a.849.849 0 01-.534-.356.265.265 0 01-.019-.029 1.586 1.586 0 01-.25-.745 3.5 3.5 0 01.005-.7c.014-.141.034-.289.063-.446A2.141 2.141 0 017.761 1.8a1.751 1.751 0 01.822-.279L8.057.577a5.078 5.078 0 00-2.748 3.092c-.08.2-.153.408-.223.626-.088.272-.167.556-.24.856a1.207 1.207 0 01-.087.281.227.227 0 01-.15.117.256.256 0 01-.294-.374c0-.007 0-.014.005-.022a12.887 12.887 0 01.203-.761c.094-.32.2-.624.313-.912A5.439 5.439 0 018.095.021a.254.254 0 01.3.117l.851 1.531a.253.253 0 01-.017.27z" fill="#52b264"/></g><circle data-name="楕円形 20" cx=".681" cy=".681" r=".681" transform="translate(1.953 9.689)" fill="#52b264"/><circle data-name="楕円形 21" cx=".297" cy=".297" r=".297" transform="translate(2.847 11.434)" fill="#52b264"/></g></g></svg>