<svg data-name="グループ 308" xmlns="http://www.w3.org/2000/svg" width="14.175" height="14.243"><g data-name="グループ 304"><path data-name="パス 1075" d="M7.087 14.243C3.179 14.243 0 11.596 0 8.343s3.179-5.9 7.087-5.9 7.087 2.647 7.087 5.9-3.174 5.9-7.087 5.9zm0-10.909c-3.417 0-6.2 2.247-6.2 5.009s2.78 5.009 6.2 5.009 6.2-2.247 6.2-5.009-2.787-5.009-6.2-5.009z" fill="#e6b821"/></g><g data-name="グループ 305"><path data-name="長方形 163" fill="#e6b821" d="M6.828 2.591h.445v1.633h-.445z"/></g><g data-name="グループ 306"><ellipse data-name="楕円形 22" cx=".742" cy=".445" rx=".742" ry=".445" transform="translate(6.382 3.63)" fill="#e6b821"/></g><g data-name="グループ 307"><path data-name="パス 1076" d="M6.953 2.592A5.08 5.08 0 019.574.143a6.669 6.669 0 013.562.3s-.445 3.562-6.085 2.82z" fill="#e6b821"/></g></svg>