<svg xmlns="http://www.w3.org/2000/svg" width="19.484" height="19.581"><g data-name="グループ 886"><g data-name="グループ 885"><g data-name="グループ 326"><g data-name="グループ 324"><path data-name="パス 1093" d="M1.583 7.425a.584.584 0 01-.561-.743c.071-.25.676-2.228 2.017-2.668a3.682 3.682 0 011.824-2.585 2.86 2.86 0 012.825-.283 3.325 3.325 0 012.857-1.13 3.521 3.521 0 012.518 1.221 2.242 2.242 0 011.957.4 2.673 2.673 0 011.043 1.869v.065a2.957 2.957 0 011.547.775 3.04 3.04 0 01.79 2.443.583.583 0 11-1.164-.068 1.946 1.946 0 00-.444-1.544 2.119 2.119 0 00-1.439-.5.584.584 0 01-.465-.974 1.361 1.361 0 00-.6-1.151 1.223 1.223 0 00-1.207-.1.583.583 0 01-.8-.292 2.157 2.157 0 00-1.848-.982 2.228 2.228 0 00-2.1 1.035.583.583 0 01-.922.129c-.066-.061-.744-.638-1.952.088a2.434 2.434 0 00-1.3 2.051.583.583 0 01-.582.614c-.668 0-1.267 1.311-1.438 1.909a.583.583 0 01-.556.421zm13.326-3.743z" fill="#fc6f6f"/></g><g data-name="グループ 325"><path data-name="パス 1094" d="M13.572 19.582h-7.66a.583.583 0 01-.537-.809l.489-1.161A9.773 9.773 0 01.001 8.674a.583.583 0 01.583-.583H18.9a.583.583 0 01.583.583 9.773 9.773 0 01-5.863 8.938l.489 1.161a.583.583 0 01-.537.809zm-6.783-1.166h5.9l-.379-.9a.583.583 0 01.339-.775 8.6 8.6 0 005.643-7.485H1.186a8.6 8.6 0 005.643 7.485.583.583 0 01.339.775z" fill="#fc6f6f"/></g></g></g></g></svg>