<svg xmlns="http://www.w3.org/2000/svg" viewBox="0 0 186.12 172.7"><defs><style>.cls-2{fill:#5b4221}</style></defs><g id="レイヤー_2" data-name="レイヤー 2"><g id="レイヤー_1-2" data-name="レイヤー 1"><path d="M184.73 86.69c1.24 21.6-11.37 43.17-16.53 50.19-9.2 12.53-21.2 23.18-54.67 33.12-21 6.23-59-3.38-68.47-8.74C27 151.05 14.52 134.53 6.3 115.58s-4.82-38.13.34-57.44C11.23 40.94 32.45 19.08 64 6.21c34.79-14.21 69.08.69 90 15.9 8.87 6.4 28.89 32.43 30.73 64.58z" fill="#fcfaf5"/><path class="cls-2" d="M157.88 23.72C140.13 6.63 111-1.21 87.07.15S39.66 15.88 22.68 31.82C3.71 49.63-2.61 77.51.94 102.74c3.38 23.92 24.09 50.65 45.93 60.5 18 8.13 41.36 11.12 60.85 8.57 42.82-5.6 79.11-41.27 78.39-85.5-1.88-22.95-11.44-46.41-28.23-62.59zm-55.47 147.51c-44.95 3.67-84.69-21.16-97.74-64.83-6.38-21.35.12-50 13.8-67.39C37.85 14.35 72-1.38 103 1.81c45.48 4.69 76.75 40.94 80.39 85.25.68 45.16-37.09 80.6-80.98 84.17z"/><path class="cls-2" d="M85.76 23.44c-15.11 1.53-31.42 10.7-42.34 21C28.89 58 23.48 75.7 24.83 95.56c2.5 36.58 43.78 58.83 77.08 53.76 32.48-4.93 59.69-28.55 59.63-63.09C158 46.75 125.6 19.41 85.76 23.44zM93 148.34c-31.26-.87-56.59-18.27-64.7-49.33-11.1-42.46 34.24-78.75 73.24-74.16 32.82 3.86 54.36 30.44 57.23 62.15.06 35.51-30.77 62.31-65.77 61.34z"/><path d="M140 86.06l-.3-.64c-3.53-7.26-9.26-13.12-15-18.64-7.3-7-14.34-13.87-22.94-19.22-7.91-4.93-16.19-9.36-24.44-13.7A51 51 0 0057.39 28c-5.3-.5-9.31-2.5-12.77 2.69-1.83 2.73-3.51 5.43-4.1 9.15-1.89 11.95.38 22.95 3.48 34.39 2.25 8.32 4.5 16.55 7.91 24.47 3.51 8.17 7.92 13.49 14.13 19.6 7.67 7.54 21.22 14.3 31.38 17.73 4.47 1.52 9.42 1.77 14 2.88 5.54 1.34 12.3 4.89 18.09 3.58 8-1.79 14.47-16.94 15.39-24.1a61.77 61.77 0 00-4.9-32.33z" fill="#ffd400"/><path class="cls-2" d="M141.35 85.69c-6.48-13.71-20-24.57-31.58-34-14.19-11.5-33.55-22.29-51.89-24.64-33.95-4.36-14.79 51.88-9 68 10.81 30 43.53 43.54 72.85 48.06s26.43-40.97 19.62-57.42zm-3.58 47.95c-5.75 10.3-16.8 6.12-25.85 4.3-26.38-5.3-49.7-17.54-60.24-43.6a170.4 170.4 0 01-9.91-37.48c-1.17-7.67-1-16.18 2.42-23.27 5.19-10.7 25.82-1.91 32 1 22.65 10.88 51.24 28.13 62.43 51.8 4.48 10.83 6.64 22.53 4.54 34.21-.87 4.64-3.16 9.01-5.39 13.04z"/><path d="M85.15 104.56a7.67 7.67 0 002.24-5.34c-.09-5.69-5.09-9.38-.16-14.25 3.32-3.28 9.59-6.61 8.14-12.25-1.57-6.09-8.87-5.47-13.62-4.2C73.91 70.61 71 76.19 67.4 83.18c-3 5.87-4.56 14-12.42 14.71-5.13.49-5.92-4.22-9.31-6.41-5.9-3.81-7.38 5.1-7.26 9.73.18 7.53 6 17.37 11.39 22.41 5.49 4.64 28.69 19.41 29.53 4.64.42-4.64-4.64-7.59-4.22-11.81.55-5.45 6.65-8.09 10.04-11.89z" fill="#e60012" stroke="#5b4221" stroke-miterlimit="10"/></g></g></svg>