<svg xmlns="http://www.w3.org/2000/svg" width="42.001" height="34.909"><g data-name="グループ 14"><g data-name="レイヤー 2"><g data-name="レイヤー 1" transform="translate(1.001 .998)"><path data-name="パス 2" d="M40.001 5.308A10.409 10.409 0 0028.157 6.54a14.285 14.285 0 00-8.165-3.274h-1.219a14.325 14.325 0 00-8.169 3.266A12.481 12.481 0 00.392 0s0 8.983 5.722 10.207C-2.463 20.418-2.463 28.013 8.971 30.46c.819 2.451 1.633 2.451 1.633 2.451a2.9 2.9 0 002.451-1.633h12.659a2.9 2.9 0 002.447 1.633s.819 0 1.637-2.451c11.43-2.447 11.43-10.042 2.857-20.253 6.527-.815 7.346-4.899 7.346-4.899z" fill="#fff" stroke="#2e2e2e" stroke-linejoin="round" stroke-width="2"/><path data-name="パス 3" d="M26.921 15.937s-.219-4.122-7.35-4.08h-.8c-6.819-.042-7.35 4.08-7.35 4.08-.331 4.32 15.702 4.32 15.5 0z" fill="#fff" stroke="#2e2e2e" stroke-linecap="round" stroke-linejoin="round"/><rect data-name="長方形 82" width="1.962" height=".979" rx=".489" transform="rotate(-80 17.53 -1.034)" fill="#2e2e2e"/><rect data-name="長方形 83" width=".979" height="1.962" rx=".489" transform="rotate(-10 94.478 -115.651)" fill="#2e2e2e"/></g></g></g></svg>