<svg xmlns="http://www.w3.org/2000/svg" width="22.215" height="22.215"><g data-name="グループ 883"><g data-name="グループ 322"><g data-name="グループ 313"><path data-name="パス 1083" d="M11.107 16.982a5.881 5.881 0 01-5.874-5.875 5.881 5.881 0 015.874-5.874 5.881 5.881 0 015.874 5.874 5.881 5.881 0 01-5.874 5.875zm0-10.406a4.537 4.537 0 00-4.532 4.532 4.537 4.537 0 004.532 4.532 4.537 4.537 0 004.532-4.532 4.537 4.537 0 00-4.532-4.532z" fill="#ffb100"/></g><g data-name="グループ 314"><path data-name="パス 1084" d="M11.108 4.088a.586.586 0 01-.586-.586V.585a.586.586 0 01.586-.586.586.586 0 01.586.586v2.917a.586.586 0 01-.586.586z" fill="#ffb100"/></g><g data-name="グループ 315"><path data-name="パス 1085" d="M5.73 6.316a.585.585 0 01-.414-.172L3.254 4.082a.586.586 0 010-.829.586.586 0 01.829 0l2.062 2.062a.586.586 0 010 .829.585.585 0 01-.415.172z" fill="#ffb100"/></g><g data-name="グループ 316"><path data-name="パス 1086" d="M3.503 11.693H.586A.586.586 0 010 11.107a.586.586 0 01.586-.586h2.917a.586.586 0 01.586.586.586.586 0 01-.586.586z" fill="#ffb100"/></g><g data-name="グループ 317"><path data-name="パス 1087" d="M3.668 19.133a.584.584 0 01-.414-.172.586.586 0 010-.829l2.062-2.062a.586.586 0 01.829 0 .586.586 0 010 .829l-2.062 2.062a.584.584 0 01-.415.172z" fill="#ffb100"/></g><g data-name="グループ 318"><path data-name="パス 1088" d="M11.108 22.214a.586.586 0 01-.586-.586v-2.917a.586.586 0 01.586-.586.586.586 0 01.586.586v2.917a.586.586 0 01-.586.586z" fill="#ffb100"/></g><g data-name="グループ 319"><path data-name="パス 1089" d="M18.55 19.133a.584.584 0 01-.414-.172l-2.062-2.062a.586.586 0 010-.829.586.586 0 01.829 0l2.062 2.062a.586.586 0 010 .829.584.584 0 01-.415.172z" fill="#ffb100"/></g><g data-name="グループ 320"><path data-name="パス 1090" d="M21.629 11.693h-2.917a.586.586 0 01-.586-.586.586.586 0 01.586-.586h2.917a.586.586 0 01.586.586.586.586 0 01-.586.586z" fill="#ffb100"/></g><g data-name="グループ 321"><path data-name="パス 1091" d="M16.485 6.316a.585.585 0 01-.414-.172.586.586 0 010-.829l2.062-2.062a.586.586 0 01.829 0 .586.586 0 010 .829L16.9 6.144a.585.585 0 01-.415.172z" fill="#ffb100"/></g></g></g></svg>