<svg version="1.1" id="レイヤー_1" xmlns="http://www.w3.org/2000/svg" x="0" y="0" viewBox="0 0 116.8 110.1" xml:space="preserve"><style>.st2{fill:#2e2e2e}.st3{enable-background:new}.st4{fill:#52b2a2}.st5{fill:#d56d76}</style><g id="レイヤー_1-2"><path d="M103.1 14.1S88.6 5.4 75 17c-9.7-7.8-19.4-7.8-19.4-7.8h-2.9s-9.7 0-19.4 7.7C28.6 8 19.4 2.1 9.2 1.5c0 0 0 21.3 13.5 24.2-20.3 24.2-20.3 42.2 6.8 48 1.9 5.8 3.9 5.8 3.9 5.8 2.5-.1 4.7-1.6 5.8-3.9h30c1.1 2.2 3.3 3.7 5.8 3.9 0 0 1.9 0 3.9-5.8 27.1-5.8 27.1-23.8 6.8-48 15.5-1.9 17.4-11.6 17.4-11.6z" fill="#fff" stroke="#2e2e2e" stroke-width="3" stroke-linejoin="round"/><path d="M72.1 39.3s-.5-9.8-17.4-9.7h-1.9c-16.2-.1-17.4 9.7-17.4 9.7-.8 10.2 37.2 10.2 36.7 0z" fill="#fff" stroke="#2e2e2e" stroke-width="2" stroke-linecap="round" stroke-linejoin="round"/><path class="st2" d="M45.3 39.3l.4-2.3c.1-.6.7-1.1 1.3-.9.6.1 1.1.7.9 1.3l-.4 2.3c-.1.6-.7 1.1-1.3.9-.6-.1-1.1-.7-.9-1.3zM60.5 36c.6-.1 1.2.3 1.3.9l.4 2.3c.1.6-.3 1.2-.9 1.3-.6.1-1.2-.3-1.3-.9l-.4-2.3c-.2-.6.2-1.2.9-1.3z"/><g class="st3"><path class="st4" d="M19.6 104.4l.1 2.1-18.3.6V105l7.9-.3v-4l-5.2.3-.1-2.1 5.3-.3v-3.7l-3.8.3-.1-1.7-2 4.2-2-.9L5 89.1l2 .9-1.4 3.1 3.8-.3v-4.4h2.2v4.2l6.9-.5.1 2.1-7 .5v3.7l5.8-.3.1 2.1-5.9.3v4.1l8-.2z"/></g><g class="st3"><path class="st4" d="M26.5 95.6l-1 1.8-3.8-2.2 1-1.8 3.8 2.2zm-4.1 11.3l3.4-7.6 1.9.8-3.4 7.6-1.9-.8zm5.5-15.4l-1.2 1.7-3.4-2.4 1.2-1.7 3.4 2.4zm7.4 8.1l3.6-.3 1.1 1.1-.6 7.2-2.1-.2.1-1-6 .3.1 1-2.1.2-.7-8 2.1-.2.4 5.1 6.3-.3.3-3.2-6.2.4-.1-1.9 1.6-.1v-3.2l-5.7.4-.1-1.9 5.8-.4v-2.9l-4 .8-.4-1.9 10.5-2 .4 1.9-4.3.8v3.2L41 94l.1 1.9-5.9.4v3.3z"/></g><g class="st3"><path class="st4" d="M42.9 89.5h2.4v10.7h-2.4V89.5zm4.8 17.5l4.5-18.1 2.4.6-4.6 18-2.3-.5z"/></g><g class="st3"><path class="st4" d="M72.8 90.3l1 2-13.2 14.6-1.7-1.6 11.2-12.5-9 .8-.2-2.3 11.9-1zm-5 10.2l1.5-1.8 7.2 6.1-1.5 1.8-7.2-6.1zm8.1-9.4l-1.3.7-1.4-2.6 1.3-.7 1.4 2.6zm1-3l1.4 2.6-1.3.7-1.4-2.6 1.3-.7z"/></g><g class="st3"><path class="st4" d="M96.8 105.4l-2 1.3-2-3.1-12.5 2.9-1.3-1.7 8.2-15.4 2.1 1.1-7.1 13.2 9.3-2.1-2.4-3.7 2-1.3 5.7 8.8z"/></g><g class="st3"><path class="st5" d="M115.1 101.8l1 1.2-4.7 4-1.2-.5-.8-4.8-2.5.9-2.2 4.4-1.3-.7 5.7-11.1 1.3.7-2.5 5 1.9-.7 1 .6.7 4.3 3.6-3.3z"/></g><g class="st3"><path class="st5" d="M108.1 92.1l-3.9.7 1.6 3.1-.7 1-3-.2.1-1.3 1.7.1-1.3-2.5-6.4 1.1-.2-1.3 5.9-1-1.3-2.6 1.4-.7 1.5 3 4.3-.8.3 1.4zm-10 6.3l.5-1.4 6.2 2.4-.5 1.4-6.2-2.4z"/></g></g></svg>