<svg xmlns="http://www.w3.org/2000/svg" width="18.451" height="47.787"><g data-name="グループ 282"><g data-name="グループ 30" transform="translate(-142.774 -243.113)" fill="#d8d8d8"><circle data-name="楕円形 1" cx="9.159" cy="9.159" r="9.159" transform="translate(142.774 243.114)"/><rect data-name="長方形 1" width="2.389" height="3.053" rx="1.195" transform="translate(150.739 260.636)"/><path data-name="合体 1" d="M154.454 289.297v-7.356a5.772 5.772 0 01-5.108 0v7.356a1.603 1.603 0 01-3.206 0v-9.946h.606a5.736 5.736 0 01-.606-2.574v-8.789a5.76 5.76 0 0111.52 0v8.789a5.735 5.735 0 01-.606 2.574h.606v9.946a1.603 1.603 0 01-3.206 0zm3.506-13.54v-9.945h3.2v9.946a1.6 1.6 0 11-3.2 0zm-15.126.001v-9.946h3.206v9.946a1.603 1.603 0 11-3.206 0z"/><path data-name="長方形 6" d="M147.022 262.228h5.044v4.248h-9.292a4.248 4.248 0 014.248-4.248z"/><path data-name="長方形 7" d="M151.934 262.228h5.044a4.248 4.248 0 014.248 4.248h-9.292v-4.248z"/></g></g></svg>