<svg xmlns="http://www.w3.org/2000/svg" width="142.999" height="175.083"><g data-name="グループ 886"><g data-name="合体 6" fill="none"><path d="M67.636 50.9H5a5 5 0 01-5-5V5a5 5 0 015-5h133a5 5 0 015 5v40.9a5 5 0 01-5 5H76.516l-4.44 8.1z"/><path d="M72.076 54.84l2.686-4.9.57-1.039H138c1.654 0 3-1.345 3-3v-40.9C141 3.345 139.653 2 138 2H5C3.346 2 2 3.346 2 5v40.902c0 1.654 1.346 3 3 3h63.82l.57 1.038 2.686 4.9m0 4.16l-4.44-8.099H5a5 5 0 01-5-5v-40.9A5 5 0 015 0h133a5 5 0 015 5v40.902a5 5 0 01-5 5H76.516L72.076 59z" fill="#fff"/></g><g data-name="グループ 290"><g data-name="グループ 285"><path data-name="パス 1060" d="M132.29 89.851s-18.488-11.093-35.744 3.7C84.22 83.69 71.895 83.69 71.895 83.69h-3.7s-12.326 0-24.651 9.861a37.677 37.677 0 00-30.815-19.724s0 27.116 17.257 30.815c-25.884 30.813-25.884 53.739 8.628 61.135 2.465 7.395 4.93 7.395 4.93 7.395a8.756 8.756 0 007.395-4.93h38.212a8.758 8.758 0 007.4 4.93s2.465 0 4.93-7.395c34.511-7.4 34.511-30.322 8.628-61.135 19.72-2.466 22.181-14.791 22.181-14.791z" fill="none"/><path data-name="パス 1061" d="M96.545 175.083a10.64 10.64 0 01-8.508-4.93H52.054a10.64 10.64 0 01-8.508 4.93c-1.1 0-3.858-.772-6.382-7.67-14.434-3.29-23.3-9.475-26.359-18.391-3.8-11.086 1.537-25.669 15.879-43.377-15.675-6.067-15.868-30.712-15.868-31.818a1.91 1.91 0 011.91-1.91 39.13 39.13 0 0131.36 18.809c12.091-8.843 23.6-8.949 24.105-8.949h3.7c.513 0 12.34.11 24.616 9.326 17.746-14.009 36.57-3.007 36.761-2.891a1.912 1.912 0 01.89 2.014c-.1.527-2.659 12.264-20.466 15.775 14.124 17.545 19.374 32.009 15.595 43.016-3.059 8.917-11.925 15.1-26.358 18.391-2.526 6.903-5.282 7.675-6.384 7.675zM14.733 75.897c.422 6.161 2.756 24.113 15.654 26.877a1.91 1.91 0 011.062 3.1c-14.59 17.366-20.479 31.859-17.033 41.907 2.668 7.776 10.944 13.2 24.6 16.128a1.91 1.91 0 011.412 1.263c1.556 4.67 2.968 5.833 3.348 6.074a6.864 6.864 0 005.455-3.859 1.913 1.913 0 011.709-1.056h38.21a1.91 1.91 0 011.709 1.056 6.862 6.862 0 005.455 3.858c.385-.242 1.795-1.409 3.348-6.073a1.91 1.91 0 011.412-1.263c13.653-2.926 21.93-8.353 24.6-16.128 3.448-10.048-2.442-24.541-17.031-41.911a1.91 1.91 0 011.227-3.124c14.395-1.8 18.853-8.951 20.107-11.957-4.374-2.107-18.6-7.436-32.185 4.211a1.914 1.914 0 01-2.438.041c-11.605-9.285-23.343-9.442-23.461-9.442h-3.697c-.113 0-11.851.157-23.457 9.442a1.931 1.931 0 01-1.558.385 1.911 1.911 0 01-1.3-.94 36.191 36.191 0 00-27.148-18.589z" fill="#fff"/></g><g data-name="グループ 289"><g data-name="グループ 286"><path data-name="パス 1062" d="M92.807 121.938s-.658-12.448-22.183-12.322h-2.468c-20.585-.124-22.186 12.325-22.186 12.325-.946 13.022 47.454 13.022 46.837-.003z" fill="none"/><path data-name="パス 1063" d="M69.279 133.015c-7.9 0-15.772-1.43-20.357-4.281-3.736-2.322-4.358-5.027-4.223-6.888.079-.624 2.017-13.625 23.464-13.507h2.787c22.163 0 23.1 12.978 23.132 13.534v.006c.089 1.907-.639 4.669-4.626 7.008-4.696 2.755-12.447 4.128-20.177 4.128zm-1.416-22.13c-18.968 0-20.615 11.1-20.631 11.216-.115 1.616.9 3.145 3.035 4.469 8.13 5.053 29.381 5.121 37.9.12 2.314-1.359 3.449-2.933 3.373-4.681-.038-.529-1.042-11.124-20.6-11.124h-3.078z" fill="#fff"/></g><g data-name="グループ 287"><rect data-name="長方形 156" width="5.916" height="2.958" rx="1.161" transform="rotate(-80 102.678 26.919)" fill="#fff"/></g><g data-name="グループ 288"><rect data-name="長方形 157" width="2.958" height="5.916" rx="1.161" transform="rotate(-10 712.908 -378.163)" fill="#fff"/></g></g></g><text data-name="Thank you!" transform="translate(17 33)" fill="#fff" font-size="22" font-family="Roboto-Medium, Roboto" font-weight="500"><tspan x="0" y="0">Thank you!</tspan></text></g></svg>