<svg xmlns="http://www.w3.org/2000/svg" width="136.654" height="113.161"><g data-name="グループ 883"><g data-name="グループ 290"><g data-name="グループ 285"><path data-name="パス 1060" d="M134.56 19.672s-20.28-12.168-39.207 4.056c-13.521-10.816-27.04-10.816-27.04-10.816h-4.056s-13.521 0-27.04 10.816C25.049 2.096 3.417 2.096 3.417 2.096s0 29.743 18.929 33.8c-28.392 33.8-28.392 58.946 9.464 67.058 2.7 8.111 5.408 8.111 5.408 8.111a9.6 9.6 0 008.111-5.408H87.24a9.607 9.607 0 008.113 5.408s2.7 0 5.408-8.111c37.854-8.113 37.854-33.26 9.464-67.058 21.631-2.7 24.335-16.224 24.335-16.224z" fill="none"/><path data-name="パス 1061" d="M95.351 113.161a11.671 11.671 0 01-9.332-5.408H46.55a11.671 11.671 0 01-9.332 5.408c-1.21 0-4.232-.847-7-8.413C14.384 101.139 4.659 94.355 1.3 84.575-2.87 72.415 2.99 56.418 18.72 37 1.528 30.346 1.32 3.313 1.32 2.1A2.1 2.1 0 013.42 0a42.922 42.922 0 0134.4 20.632c13.262-9.7 25.886-9.816 26.441-9.816h4.057c.563 0 13.536.12 27 10.229 19.465-15.366 40.113-3.3 40.323-3.171a2.1 2.1 0 01.977 2.209c-.115.578-2.917 13.452-22.449 17.3 15.487 19.248 21.241 35.117 17.096 47.192-3.356 9.781-13.081 16.565-28.912 20.173-2.77 7.566-5.793 8.413-7.002 8.413zM5.613 4.366c.462 6.758 3.023 26.449 17.171 29.481a2.1 2.1 0 011.165 3.4C7.949 56.3 1.484 72.197 5.266 83.218c2.927 8.529 12 14.482 26.981 17.691a2.1 2.1 0 011.553 1.382c1.707 5.123 3.255 6.4 3.673 6.663a7.529 7.529 0 005.984-4.233 2.1 2.1 0 011.875-1.158H87.24a2.1 2.1 0 011.875 1.158 7.527 7.527 0 005.984 4.232c.422-.265 1.968-1.545 3.673-6.661a2.1 2.1 0 011.549-1.386c14.976-3.209 24.054-9.162 26.98-17.691 3.782-11.021-2.678-26.918-18.681-45.971a2.1 2.1 0 011.345-3.427C125.754 31.842 130.644 24 132.02 20.7c-4.8-2.311-20.4-8.156-35.3 4.619a2.1 2.1 0 01-2.674.045C81.316 15.18 68.441 15.008 68.312 15.008h-4.056c-.124 0-13 .172-25.729 10.356a2.118 2.118 0 01-1.709.422 2.1 2.1 0 01-1.426-1.031A39.7 39.7 0 005.613 4.366z" fill="#fff"/></g><g data-name="グループ 289"><g data-name="グループ 286"><path data-name="パス 1062" d="M91.25 54.868s-.722-13.655-24.335-13.517h-2.7c-22.587-.138-24.34 13.517-24.34 13.517-1.038 14.283 52.053 14.283 51.375 0z" fill="none"/><path data-name="パス 1063" d="M65.443 67.018c-8.662 0-17.3-1.569-22.329-4.7-4.1-2.547-4.781-5.514-4.633-7.555.087-.685 2.213-14.946 25.738-14.816h3.055c24.31 0 25.34 14.236 25.373 14.845v.007c.1 2.091-.7 5.122-5.074 7.687-5.149 3.026-13.651 4.532-22.13 4.532zm-1.554-24.274c-20.806 0-22.613 12.178-22.629 12.3-.126 1.773.991 3.449 3.329 4.9 8.917 5.542 32.227 5.618 41.569.131 2.538-1.491 3.783-3.217 3.7-5.134-.042-.58-1.143-12.2-22.592-12.2h-3.377z" fill="#fff"/></g><g data-name="グループ 287"><rect data-name="長方形 156" width="6.49" height="3.245" rx="1.161" transform="rotate(-80 60.346 -3.63)" fill="#fff"/></g><g data-name="グループ 288"><rect data-name="長方形 157" width="3.245" height="6.49" rx="1.161" transform="rotate(-10 325.872 -393.959)" fill="#fff"/></g></g></g></g></svg>