<svg xmlns="http://www.w3.org/2000/svg" viewBox="0 0 209.2 226.41"><defs><style>.cls-1,.cls-2{fill:#fff;stroke-linejoin:round;}.cls-1,.cls-2,.cls-5{stroke:#2e2e2e;}.cls-1{stroke-width:7px;}.cls-2{stroke-linecap:round;stroke-width:5px;}.cls-3{fill:#2e2e2e;}.cls-4{fill:#ebb1bd;}.cls-5{fill:#e9993c;stroke-miterlimit:10;stroke-width:3px;}</style></defs><title>animal_good_1</title><g id="レイヤー_2" data-name="レイヤー 2"><g id="_動物_表情パターン" data-name="【動物】表情パターン"><g id="体調良い時"><path class="cls-1" d="M205.7,83.39s-31-18.58-59.86,6.19c-20.63-16.51-41.27-16.51-41.27-16.51h-6.2s-20.63,0-41.27,16.51c-18.58-33-51.6-33-51.6-33s0,45.4,28.89,51.59c-43.34,51.6-43.34,90,14.45,102.37,4.13,12.39,8.26,12.39,8.26,12.39a14.66,14.66,0,0,0,12.38-8.26h64a14.66,14.66,0,0,0,12.38,8.26s4.13,0,8.26-12.39c57.79-12.38,57.79-50.77,14.45-102.37C201.57,104,205.7,83.39,205.7,83.39Z"/><path class="cls-2" d="M139.58,137.12s-1.1-20.85-37.15-20.64H98.31c-34.47-.21-37.15,20.64-37.15,20.64C59.57,158.93,140.61,158.93,139.58,137.12Z"/><rect class="cls-3" x="80.21" y="132.58" width="9.91" height="4.95" rx="2.48" transform="translate(-62.62 195.47) rotate(-80)"/><rect class="cls-3" x="113.1" y="130.1" width="4.95" height="9.91" rx="2.48" transform="translate(-21.7 22.12) rotate(-10)"/><circle class="cls-4" cx="47" cy="170.45" r="14.13"/><circle class="cls-4" cx="153.72" cy="170.45" r="14.13"/><polygon class="cls-5" points="147.42 70.28 176.81 8.31 192 25.01 147.42 70.28"/><polygon class="cls-5" points="138.85 67.19 141.02 4.12 117.06 1.72 138.85 67.19"/></g></g></g></svg>