<svg xmlns="http://www.w3.org/2000/svg" viewBox="0 0 209.2 230.67"><defs><style>.cls-1,.cls-2{fill:#fff;stroke-linejoin:round;}.cls-1,.cls-2,.cls-4{stroke:#2e2e2e;}.cls-1{stroke-width:7px;}.cls-2,.cls-5{stroke-linecap:round;}.cls-2{stroke-width:5px;}.cls-3{fill:#2e2e2e;}.cls-4{fill:#9ab7d9;stroke-width:3px;}.cls-4,.cls-5{stroke-miterlimit:10;}.cls-5{fill:none;stroke:#809cb2;stroke-width:8px;}</style></defs><title>animal_bad_1</title><g id="レイヤー_2" data-name="レイヤー 2"><g id="_動物_表情パターン" data-name="【動物】表情パターン"><g id="体調悪い時"><path class="cls-1" d="M205.7,87.65s-31-18.57-59.86,6.2c-20.63-16.52-41.27-16.52-41.27-16.52h-6.2s-20.63,0-41.27,16.52c-18.58-33-51.6-33-51.6-33s0,45.41,28.89,51.6c-43.34,51.6-43.34,90,14.45,102.37,4.13,12.38,8.26,12.38,8.26,12.38a14.66,14.66,0,0,0,12.38-8.25h64a14.66,14.66,0,0,0,12.38,8.25s4.13,0,8.26-12.38c57.79-12.38,57.79-50.77,14.45-102.37C201.57,108.29,205.7,87.65,205.7,87.65Z"/><path class="cls-2" d="M139.58,141.38s-1.1-20.84-37.15-20.64H98.31c-34.47-.2-37.15,20.64-37.15,20.64C59.57,163.19,140.61,163.19,139.58,141.38Z"/><rect class="cls-3" x="80.21" y="136.84" width="9.91" height="4.95" rx="2.48" transform="translate(-66.83 199) rotate(-80)"/><rect class="cls-3" x="113.1" y="134.37" width="4.95" height="9.91" rx="2.48" transform="translate(-22.44 22.19) rotate(-10)"/><path class="cls-4" d="M88.92,66.57S85.54-.19,57.44,1.53C30.91,10.62,88.92,66.57,88.92,66.57Z"/><path class="cls-4" d="M72.57,72.5S52.73,29.33,34.22,37.57C18.7,50.26,72.57,72.5,72.57,72.5Z"/><line class="cls-5" x1="139.59" y1="63.99" x2="139.59" y2="106.52"/><line class="cls-5" x1="154.59" y1="63.99" x2="154.59" y2="114.01"/><line class="cls-5" x1="169.59" y1="63.99" x2="169.59" y2="124.23"/></g></g></g></svg>