<svg xmlns="http://www.w3.org/2000/svg" viewBox="0 0 223.68 229.46"><defs><style>.cls-1,.cls-2{fill:#fff;stroke-linejoin:round;}.cls-1,.cls-2,.cls-4{stroke:#2e2e2e;}.cls-1{stroke-width:7px;}.cls-2,.cls-5{stroke-linecap:round;}.cls-2{stroke-width:5px;}.cls-3{fill:#2e2e2e;}.cls-4{fill:#bababa;stroke-width:3px;}.cls-4,.cls-5{stroke-miterlimit:10;}.cls-5{fill:none;stroke:#ed3e3b;stroke-width:10px;}</style></defs><title>animal_angry_1</title><g id="レイヤー_2" data-name="レイヤー 2"><g id="_動物_表情パターン" data-name="【動物】表情パターン"><g id="怒った時"><path class="cls-1" d="M220.18,86.44s-31-18.57-59.85,6.19c-20.64-16.51-41.28-16.51-41.28-16.51h-6.19s-20.64,0-41.28,16.51c-18.57-33-51.6-33-51.6-33s0,45.41,28.9,51.6c-43.34,51.6-43.34,90,14.45,102.37C67.45,226,71.58,226,71.58,226A14.65,14.65,0,0,0,84,217.7h64A14.67,14.67,0,0,0,160.33,226s4.13,0,8.25-12.38c57.79-12.39,57.79-50.77,14.45-102.37C216.05,107.08,220.18,86.44,220.18,86.44Z"/><path class="cls-2" d="M154.07,140.17s-1.11-20.84-37.15-20.64h-4.13c-34.47-.2-37.15,20.64-37.15,20.64C74.06,162,155.1,162,154.07,140.17Z"/><rect class="cls-3" x="94.7" y="135.63" width="9.91" height="4.95" rx="2.48" transform="translate(-53.66 212.26) rotate(-80)"/><rect class="cls-3" x="127.58" y="133.15" width="4.95" height="9.91" rx="2.48" transform="translate(-22.01 24.68) rotate(-10)"/><path class="cls-4" d="M142.42,72.59,154,61s43.83,9.12,24.28-32.84c7.68-32.29-41.52-34-40-11.86C117.63,26,122.41,49,141.8,55.42A149.69,149.69,0,0,1,142.42,72.59Z"/><path class="cls-4" d="M99.91,69.76l1.42-12.7s31.19-15.8-1.19-31.88C89.09,1.73,58.2,24.64,70,37.43c-7.89,16,6.25,27.7,21.2,22.15A116.86,116.86,0,0,1,99.91,69.76Z"/><path class="cls-5" d="M31.33,41.31s7.81,35.53,42.12,34.93"/><path class="cls-5" d="M13.06,47.91S36.52,73.65,5,96.57"/><path class="cls-5" d="M65.48,93.16S38.61,72.59,19.26,107.25"/></g></g></g></svg>