<svg xmlns="http://www.w3.org/2000/svg" viewBox="0 0 222.26 466.83"><defs><style>.cls-1{fill:#111;}.cls-2,.cls-4{fill:#2c4e88;}.cls-2,.cls-3,.cls-4,.cls-7,.cls-8{stroke:#000931;stroke-linecap:round;stroke-linejoin:round;}.cls-2,.cls-3,.cls-8{stroke-width:3px;}.cls-3{fill:#fcecda;}.cls-4,.cls-7{stroke-width:2px;}.cls-5{fill:#1c3b69;}.cls-6{fill:#f6beb0;}.cls-7,.cls-8{fill:none;}.cls-9{fill:#000931;}</style></defs><title>boy-body</title><g id="レイヤー_2" data-name="レイヤー 2"><g id="男"><g id="男体"><g id="下半身"><path class="cls-1" d="M48.66,212.79s9.18,76.8,11.14,98C61.65,330.69,77,442.15,77,442.15H99.15l8.75-186.3.32,3V208.8Z"/><path class="cls-1" d="M168,212.79s-9.17,76.8-11.14,98c-1.85,19.95-17.22,131.41-17.22,131.41H117.55l-8.74-186.3-.33,3V208.8Z"/><path d="M37.78,466.83h59a4.3,4.3,0,0,0,4.3-4.3V440.74l-41.8-4.16q-1.22-.12-2.43-.12h0a27.13,27.13,0,0,0-24.46,15.37l-1.75,3.63A7.93,7.93,0,0,0,37.78,466.83Z"/><path d="M178.27,466.83h-59a4.3,4.3,0,0,1-4.3-4.3V440.74l41.8-4.16q1.22-.12,2.43-.12h0a27.13,27.13,0,0,1,24.46,15.37l1.75,3.63A7.93,7.93,0,0,1,178.27,466.83Z"/></g><g id="上半身"><path class="cls-2" d="M11.85,184.47s-2,8.16,3.1,9.13,23.5,0,23.5,0L49,177.78,35.15,175.1Z"/><path class="cls-3" d="M24.53,194s-1.81,28.83,12.61,29.75l-1-20.28L45,211.61l5.92-29.23Z"/><path class="cls-4" d="M165.36,23a48.83,48.83,0,0,1,5.24,3.52c1.55,1.34,9.36,19.11,8.15,30.55s3.07,132.16,3.07,132.16,1.72,18.59-12.7,20.54S63.5,202.54,63.5,202.54s-30.3-20.68-31.76-42,4.15-89.63,4.15-89.63L50.73,30.52,75.55,23Z"/><path class="cls-2" d="M67.12,67.51,63,92.47V156s-28.11,23.36-31.58,26.1S10,185.2,6.18,184.47,1.5,172.22,1.5,172.22c2.22-13.92,8.88-31.92,10.34-61.13S23.62,48,36.37,37.55L54.09,33.7,64.6,46.47"/><path class="cls-2" d="M208.53,184.47s2,8.16-3.1,9.13-23.49,0-23.49,0l-10.58-15.82,13.87-2.68Z"/><path class="cls-3" d="M195.85,194s3.69,28.83-10.73,29.75l-.9-20.28-7.9,10.77-6.84-31.85Z"/><path class="cls-2" d="M153.27,67.51l4.16,25V156s28.11,23.36,31.58,26.1,21.36,3.1,25.19,2.37,6.56-12.16,6.56-12.16c-2-15.62-10.76-32-12.22-61.22S196.76,48,184,37.55L166.3,26.34l-13.52,6.43"/><path class="cls-4" d="M43.36,194.27C39,197.74,35,209.79,44.7,213.44s9.67,1.09,28.29,4.2,50.75,2.55,66.08,1.64,39.61-.73,41.89-8.21-.24-12.32-4.47-12.19-59.87-4.61-59.87-4.61L50.72,193Z"/><path class="cls-5" d="M58.17,135c0,13.55,1.18,25.73-5.25,25.73S34.86,148.56,34.86,135c0-5.43-.53-14.44.89-18.5,2.12-6.08,6.91-6,10.77-6C53,110.49,58.17,121.47,58.17,135Z"/><path class="cls-5" d="M179.77,137.68c0,13.55-5.22,24.53-11.65,24.53s-11.66-11-11.66-24.53,5.22-24.52,11.66-24.52c4.41,0,9.67-.62,11.65,7C180.67,123.65,179.77,133.43,179.77,137.68Z"/><path class="cls-3" d="M55.77,24.2s24-11.65,38.45-11.54,47.59,4.12,51.24,6.92S118.65,65,107,62.32,58.57,35.89,58.57,35.89Z"/><path class="cls-2" d="M175.16,63.55C177,86.67,176.38,100,173,112.83l-2.22,43.9c5,15.57,12,16.19,9.18,31.46S165,206.24,165,206.24A197.91,197.91,0,0,1,113,213h-9.73a198,198,0,0,1-52-6.71s-12-2.78-14.86-18.05,1.38-14.32,6.42-29.89l-.13-40.82c-1.73-11.8-7.64-34.26-4.95-53.93"/><path class="cls-2" d="M109.07,62.66S144.73,25.42,143.63,22s-6.81-7.3-20.2-7l-4.81-4.39a80.52,80.52,0,0,1,8.86-3.37C134.74,4.68,152.27-.13,157,2.06A16.72,16.72,0,0,1,165.78,14c.73,4.63,3.41,4.38,4.87,7.3s2.92,8,0,10.8-13.14,6-18.5,10.13S123.92,63.15,109.07,62.66Z"/><path class="cls-2" d="M54.07,43.43C63.89,47.35,108,62.66,108,62.66S59.65,32.38,67.12,23.6s22-10.44,24.28-10.94S82.84,6.71,72.62,6.71,40.25,24.4,41,30C41,30,44.24,39.51,54.07,43.43Z"/><path class="cls-6" d="M122.7,6.71V21s-4.4,2.56-14.47,2.56-13-2.56-13-2.56V6.71H122.7"/><line class="cls-7" x1="87.24" y1="27.23" x2="97.56" y2="32.77"/><line class="cls-7" x1="128.95" y1="27.23" x2="118.62" y2="32.77"/><path class="cls-8" d="M107,62.32l5.94.12s7.26,18.47,4.7,22.73-16.31-1.09-15.82-5.47S106,62,107,62.32Z"/><path class="cls-9" d="M109.07,67.56c1.83-.38,3.44,1.64,3.53,5.06s.46,6.3-3,5.43-2.83-4-2.65-5.18S107.28,67.92,109.07,67.56Z"/><path class="cls-8" d="M105.65,84.34S104.2,120.1,104,134s-1.74,68.71-1.23,78.89"/><path class="cls-8" d="M112.66,212.86c-.18-20.23,1.42-117.67,0-126.19"/><line class="cls-8" x1="94.22" y1="6.35" x2="94.22" y2="18.97"/><line class="cls-8" x1="122.7" y1="20.55" x2="122.7" y2="6.71"/><path class="cls-5" d="M169.12,179.28a4.36,4.36,0,0,1-1.85,2.39c-4.62,2.44-11.32-1.57-17.89.38s-16.19,1.81-23.12,0-2.8-9,13-12.66,14.34-12.7,21.54-10.84a9.85,9.85,0,0,1,4.36,2.45c.62,7.68,2,13.7,3.4,17Z"/></g></g></g></g></svg>