<svg xmlns="http://www.w3.org/2000/svg" viewBox="0 0 183.12 194.8"><defs><style>.cls-1{fill:#7b5f32;}.cls-2{fill:#000931;}.cls-3{fill:#fcecda;}.cls-3,.cls-4,.cls-6,.cls-9{stroke:#000931;}.cls-3,.cls-6,.cls-9{stroke-linecap:round;stroke-linejoin:round;}.cls-3,.cls-4{stroke-width:3px;}.cls-4,.cls-6,.cls-9{fill:none;}.cls-4{stroke-miterlimit:10;}.cls-5{fill:#fff;}.cls-6{stroke-width:2px;}.cls-7{fill:#ffbdad;}.cls-8{fill:#000333;}.cls-9{stroke-width:2.62px;}.cls-10{fill:#bababa;}</style></defs><title>boy_angry-face</title><g id="レイヤー_2" data-name="レイヤー 2"><g id="_男_表情パターン_顔だけ_" data-name="【男】表情パターン（顔だけ）"><g id="怒った時"><g id="顔"><path class="cls-1" d="M162,157.35l6-6.42a5.23,5.23,0,0,0,1.6-6.09l-4.31-19.45a46.68,46.68,0,0,1,16.28,1.79C177,112.59,169.89,99,162.8,85.39a63.16,63.16,0,0,1,15.86,10.76c.7-3-1.11-6-2.83-8.58-8.78-13.11-17.65-26.33-28.93-37.35l19.19-3.47c-7.61-2.64-15.94-1.37-24-1.68a4.11,4.11,0,0,1-2.06-.46,4.46,4.46,0,0,1-1.5-2.22,73.31,73.31,0,0,0-16.76-24.71c2.47,6.94-.15,16.26,0,23.62l-3.46-1.41a233.53,233.53,0,0,0-39.77-16.1A50.15,50.15,0,0,1,92.62,41.32c-19.94-3.59-41-4.9-60.08,1.84a59.52,59.52,0,0,0,19.28,7.27c-8.29,3.87-16.48,8.1-23.75,13.66S14.47,76.65,10.72,85A46.93,46.93,0,0,0,25,81.3c.47,3.86-1.27,7.6-2.89,11.13-6,13.12-11,26.94-12.15,41.33l8.93-6.48q1.64,10.89,3.14,21.81c1.4.06,3.92-2.17,4.57-3.4Z"/><path class="cls-2" d="M163.09,158.41c3.08-3.28,8.54-7,8.33-12-.3-7-3.14-14.61-4.64-21.42l-1.45,1.9a50.37,50.37,0,0,1,15.88,1.74,1.52,1.52,0,0,0,1.85-1.85c-4.75-14.73-11.81-28.47-19-42.14l-2.05,2A67.21,67.21,0,0,1,177.6,97.21a1.52,1.52,0,0,0,2.56-1.06c.43-4.24-1.74-7.38-4-10.79-2.93-4.39-5.88-8.75-8.94-13A176.4,176.4,0,0,0,148,49.16l-.66,2.5,19.19-3.47c1.54-.27,1.32-2.48,0-2.89a44.9,44.9,0,0,0-13.09-1.77c-2.61,0-5.22.09-7.83.09-3.67,0-5.12-.75-6.72-4.29a76.27,76.27,0,0,0-16-22.71,1.51,1.51,0,0,0-2.51,1.46c2.29,7.57,0,15.52,0,23.22l1.9-1.44c-6.5-2.67-12.69-6-19.17-8.8A241.39,241.39,0,0,0,79,22.35c-1.37-.42-2.65,1.54-1.46,2.5A52.12,52.12,0,0,1,91.33,42.08L93,39.87C72.79,36.31,51.88,35,32.14,41.71a1.52,1.52,0,0,0-.36,2.74,65.27,65.27,0,0,0,19.64,7.42l-.36-2.74C34.34,57,17.6,66.87,9.43,84.24c-.43.91.05,2.4,1.29,2.26a54.52,54.52,0,0,0,14.7-3.75l-1.9-1.45c.25,5.54-2.77,10.39-4.89,15.33-1.6,3.72-3.11,7.48-4.44,11.3a107.46,107.46,0,0,0-5.71,25.83,1.51,1.51,0,0,0,2.26,1.3l8.93-6.48-2.21-.9q1.63,10.89,3.15,21.81c.11.84,1.13,1.18,1.84,1a7.08,7.08,0,0,0,3.22-1.59c.47-.38,2.74-2.28,1-1.74a4.75,4.75,0,0,1,1.54.13c2.71.32,5.46.47,8.18.7l31.69,2.73,75.71,6.52L162,158.85c1.92.17,1.91-2.83,0-3L43.48,145.64l-16.86-1.45a1.55,1.55,0,0,0-1.3.74,6.08,6.08,0,0,1-3.67,2.71l1.85,1.05Q22,137.77,20.36,126.88a1.52,1.52,0,0,0-2.21-.9l-8.93,6.49,2.26,1.29a108,108,0,0,1,6.84-28.43c2.83-7.52,8.57-15.73,8.2-24,0-.87-.95-1.84-1.9-1.45a51,51,0,0,1-13.9,3.65L12,85.76c8-16.94,24.27-26.37,40.55-34A1.51,1.51,0,0,0,52.22,49,62.88,62.88,0,0,1,33.3,41.86l-.36,2.74c19.23-6.53,39.57-5.31,59.28-1.83a1.53,1.53,0,0,0,1.7-2.21,53.94,53.94,0,0,0-14.3-17.83l-1.46,2.51a238.75,238.75,0,0,1,26.78,9.89c5.53,2.45,10.85,5.33,16.45,7.62.92.38,1.89-.57,1.9-1.45,0-8,2.32-16.14-.06-24l-2.5,1.46A75.27,75.27,0,0,1,131.51,32a71.27,71.27,0,0,1,3.68,6.55c.95,1.91,1.55,4.44,2.89,6.11,2.17,2.71,6.13,1.94,9.23,1.91,6.24-.06,12.34-.27,18.38,1.59V45.3L146.5,48.77a1.51,1.51,0,0,0-.66,2.51A167.66,167.66,0,0,1,163.6,72.41c2.4,3.32,4.72,6.7,7,10.09,2.65,3.92,7,8.65,6.54,13.65l2.57-1.06a70.27,70.27,0,0,0-16.17-11,1.52,1.52,0,0,0-2.06,2.05c7,13.45,14,26.95,18.66,41.43l1.85-1.84a52.78,52.78,0,0,0-16.68-1.85,1.52,1.52,0,0,0-1.45,1.9l3.45,15.56c.85,3.84,1,6.42-1.56,9.81a64.48,64.48,0,0,1-4.8,5.13C159.65,157.7,161.77,159.83,163.09,158.41Z"/><path class="cls-3" d="M94.89,65.53s-61-15.32-59,81.19c-9.46,9.45-10.11,29.34,10.43,28.69,14.35,26.09,78.85,21,94.5,1.74,24.76-1.42,20.92-30,11.1-25.75C165.46,52.69,94.89,65.53,94.89,65.53Z"/><line class="cls-4" x1="46.31" y1="175.41" x2="35.88" y2="146.72"/><path class="cls-1" d="M31.91,141.25a41.21,41.21,0,0,0,9.73-7.7l5.17,13,17.81-44.25,6.43,17.21c14.73-13.93,30.93-59,39.05-74.14,0,0-132.1,52.07-72.42,73.42Z"/><path class="cls-1" d="M110.1,45.4c41.35,9.52,51,86.33,51,86.33q-.13,11.28-.07,22.55L147.91,120a88.56,88.56,0,0,1-1.46,16.65c-5.64-15-11.45-30.25-21.53-42.69A138.52,138.52,0,0,0,106.13,116q-2.16-9.93-4.31-19.86L79.14,109.53"/><path class="cls-2" d="M159.21,131.73q-.12,11.28-.06,22.55l2.94-.4L149,119.55a1.51,1.51,0,0,0-2.95.4,96.2,96.2,0,0,1-1.4,16.25h2.89c-5.74-15.24-11.7-30.46-21.92-43.35a1.52,1.52,0,0,0-2.12,0,149.53,149.53,0,0,0-19,22.4l2.74.35q-2.16-9.93-4.31-19.86a1.51,1.51,0,0,0-2.2-.89L78,108.24l2.06,2.05L100,77.13l-2.59-1.51a325.52,325.52,0,0,1-28,43.16l2.74.36-6.43-17.21a1.51,1.51,0,0,0-2.89,0L45,146.18h2.89l-5.17-13a1.53,1.53,0,0,0-2.51-.67A44.72,44.72,0,0,1,30.81,140l2.2,1.7a116.38,116.38,0,0,1,5.77-22.43c.67-1.82-2.23-2.6-2.89-.8a116.57,116.57,0,0,0-5.77,22.43,1.52,1.52,0,0,0,2.2,1.69,47.75,47.75,0,0,0,10-7.93l-2.51-.67L45,147a1.51,1.51,0,0,0,2.89,0l17.81-44.25H62.83l6.43,17.2a1.52,1.52,0,0,0,2.74.36,324.23,324.23,0,0,0,28-43.16,1.5,1.5,0,0,0-2.59-1.51L77.5,108.78a1.51,1.51,0,0,0,2,2l22.68-13.39-2.2-.9q2.14,9.93,4.31,19.86c.29,1.36,2.06,1.34,2.74.36A145,145,0,0,1,125.63,95h-2.12c9.87,12.45,15.6,27.31,21.15,42,.47,1.23,2.62,1.61,2.89,0a101.47,101.47,0,0,0,1.51-17l-2.94.4,13.08,34.33c.57,1.51,3,1.4,3-.4q-.08-11.28.06-22.55a1.5,1.5,0,0,0-3,0Z"/><path class="cls-2" d="M116.66,140.67s-.54,9,0,11.58,4.85,9.49,9.49,9.49,10.17-5.38,10.31-10.54,0-12.89,0-12.89S120.09,138.44,116.66,140.67Z"/><ellipse class="cls-5" cx="126.47" cy="149.18" rx="1.93" ry="3.3"/><path class="cls-2" d="M128,119.88,106.7,134.37s-1.09-6.41,18.73-13.81"/><path class="cls-6" d="M110.72,145.82c6.87-8.54,20.84-8.91,33.95-7.87"/><path class="cls-2" d="M75.25,140.67s.54,9,0,11.58-4.85,9.49-9.5,9.49-10.16-5.38-10.3-10.54,0-12.89,0-12.89S71.81,138.44,75.25,140.67Z"/><ellipse class="cls-5" cx="65.44" cy="149.18" rx="1.93" ry="3.3"/><path class="cls-2" d="M63.92,119.88l21.29,14.49S86.3,128,66.48,120.56"/><path class="cls-6" d="M81.19,145.82c-6.87-8.54-20.84-8.91-33.95-7.87"/><g id="グループ_370" data-name="グループ 370"><path id="パス_1151" data-name="パス 1151" class="cls-7" d="M96.07,165.37c-3.76,1.24-6.38.69-4.7-1.87s2.87-2.41,5.29-2.31,5.52,3,3.85,4.29S97.47,164.91,96.07,165.37Z"/></g><g id="グループ_371" data-name="グループ 371"><ellipse id="楕円形_27" data-name="楕円形 27" class="cls-8" cx="95.75" cy="165.82" rx="1.04" ry="1.15"/></g><path class="cls-9" d="M103.82,182.52s-3.71-4.66-7.82-4.66-9.15,4.66-9.15,4.66"/><line class="cls-3" x1="140.81" y1="177.15" x2="151.91" y2="151.4"/></g><path class="cls-10" d="M40.39,35.62V27S60.08,14.11,37.2,5.77C28.06-9.09,9.11,8.55,17.93,16.23,13.84,27.5,24.18,34.29,33.77,29.46A78.58,78.58,0,0,1,40.39,35.62Z"/><path class="cls-10" d="M28.45,49l-4.19-5.25S30,26.3,12,32.36C-.87,27.75-3.83,47.76,5.29,48.14c3,8.87,12.62,8,16.12.35A62,62,0,0,1,28.45,49Z"/></g></g></g></svg>