<svg xmlns="http://www.w3.org/2000/svg" viewBox="0 0 226.45 668.68"><defs><style>.cls-1{fill:#111;}.cls-2,.cls-4{fill:#2c4e88;}.cls-11,.cls-15,.cls-16,.cls-2,.cls-3,.cls-4,.cls-7,.cls-8{stroke:#000931;}.cls-15,.cls-2,.cls-3,.cls-4,.cls-7,.cls-8{stroke-linecap:round;stroke-linejoin:round;}.cls-11,.cls-16,.cls-2,.cls-3,.cls-8{stroke-width:3px;}.cls-3{fill:#fcecda;}.cls-4,.cls-7{stroke-width:2px;}.cls-5{fill:#1c3b69;}.cls-6{fill:#f6beb0;}.cls-11,.cls-15,.cls-7,.cls-8{fill:none;}.cls-9{fill:#000931;}.cls-10{fill:#7b5f32;}.cls-11,.cls-16{stroke-miterlimit:10;}.cls-12{fill:#fff;}.cls-13{fill:#ffbdad;}.cls-14{fill:#000333;}.cls-15{stroke-width:2.62px;}.cls-16{fill:#bababa;}</style></defs><title>boy_good_1</title><g id="レイヤー_2" data-name="レイヤー 2"><g id="_男_表情パターン" data-name="【男】表情パターン"><g id="怒った時"><g id="体"><g id="下半身"><path class="cls-1" d="M52.85,414.63S62,491.44,64,512.58C65.85,532.54,81.21,644,81.21,644h22.13l8.75-186.29.32,3V410.64Z"/><path class="cls-1" d="M172.23,414.63s-9.17,76.81-11.14,98c-1.85,20-17.22,131.41-17.22,131.41H121.74L113,457.7l-.33,3V410.64Z"/><path d="M42,668.68h59a4.31,4.31,0,0,0,4.31-4.31V642.59l-41.81-4.17c-.8-.08-1.62-.12-2.43-.12h0a27.15,27.15,0,0,0-24.46,15.37l-1.75,3.64A7.93,7.93,0,0,0,42,668.68Z"/><path d="M182.46,668.68h-59a4.3,4.3,0,0,1-4.3-4.31V642.59l41.8-4.17q1.22-.12,2.43-.12h0a27.18,27.18,0,0,1,24.47,15.37l1.75,3.64A7.94,7.94,0,0,1,182.46,668.68Z"/></g><g id="上半身"><path class="cls-2" d="M16,386.32s-2,8.15,3.1,9.13,23.5,0,23.5,0l10.58-15.82L39.35,377Z"/><path class="cls-3" d="M28.72,395.84s-1.81,28.83,12.62,29.74l-1-20.28,8.82,8.16,5.93-29.23Z"/><path class="cls-4" d="M169.55,224.83a47.82,47.82,0,0,1,5.24,3.52c1.55,1.35,9.37,19.12,8.15,30.56S186,391.06,186,391.06s1.73,18.59-12.7,20.54S67.7,404.39,67.7,404.39s-30.31-20.69-31.77-42,4.15-89.63,4.15-89.63l14.84-40.42,24.82-7.53Z"/><path class="cls-2" d="M71.31,269.36l-4.17,25v63.52S39,381.21,35.56,384s-21.35,3.1-25.19,2.37-4.68-12.26-4.68-12.26c2.22-13.91,8.88-31.92,10.34-61.12S27.82,249.8,40.56,239.4l17.72-3.86,10.51,12.78"/><path class="cls-2" d="M212.72,386.32s2,8.15-3.1,9.13-23.49,0-23.49,0l-10.58-15.82L189.42,377Z"/><path class="cls-3" d="M200,395.84s3.7,28.83-10.72,29.74l-.9-20.28-7.91,10.77-6.84-31.84Z"/><path class="cls-2" d="M157.46,269.36l4.16,25v63.52S189.74,381.21,193.2,384s21.36,3.1,25.19,2.37S225,374.16,225,374.16c-2-15.63-10.75-32-12.21-61.22S201,249.8,188.21,239.4l-17.72-11.22L157,234.62"/><path class="cls-4" d="M47.55,396.12c-4.32,3.47-8.34,15.51,1.34,19.16s9.67,1.1,28.29,4.2,50.75,2.56,66.08,1.65,39.61-.73,41.89-8.22-.24-12.32-4.47-12.18-59.87-4.61-59.87-4.61l-65.9-1.28Z"/><path class="cls-5" d="M62.36,336.86c0,13.54,1.19,25.73-5.25,25.73S39.05,350.4,39.05,336.86c0-5.43-.53-14.44.89-18.51,2.12-6.07,6.91-6,10.77-6C57.15,312.33,62.36,323.31,62.36,336.86Z"/><path class="cls-5" d="M184,339.53c0,13.54-5.22,24.53-11.65,24.53s-11.66-11-11.66-24.53S165.87,315,172.31,315c4.41,0,9.68-.62,11.65,7C184.87,325.49,184,335.28,184,339.53Z"/><path class="cls-3" d="M60,226.05s24-11.65,38.45-11.55,47.59,4.13,51.24,6.93-26.81,45.44-38.5,42.74-48.39-26.44-48.39-26.44Z"/><path class="cls-2" d="M179.35,265.39c1.82,23.12,1.22,36.48-2.21,49.28l-2.22,43.91c5,15.56,12,16.19,9.18,31.45s-14.86,18.06-14.86,18.06a198.52,198.52,0,0,1-52,6.71h-9.73a198.4,198.4,0,0,1-52-6.71S43.41,405.31,40.59,390,42,375.71,47,360.15l-.12-40.82c-1.73-11.81-7.65-34.26-5-53.94"/><path class="cls-2" d="M113.26,264.5s35.66-37.23,34.56-40.64-6.81-7.3-20.2-7.06l-4.8-4.38a77,77,0,0,1,8.85-3.38c7.26-2.51,24.79-7.33,29.48-5.14A16.72,16.72,0,0,1,170,215.83c.73,4.62,3.41,4.38,4.87,7.3s2.92,8,0,10.79-13.14,6-18.5,10.14S128.11,265,113.26,264.5Z"/><path class="cls-2" d="M58.26,245.28c9.82,3.92,53.88,19.22,53.88,19.22s-48.3-30.28-40.83-39.06,22-10.44,24.28-10.94-8.56-5.94-18.78-5.94-32.37,17.69-31.64,23.29C45.17,231.85,48.43,241.35,58.26,245.28Z"/><path class="cls-6" d="M126.89,208.56v14.33s-4.4,2.55-14.47,2.55-13-2.55-13-2.55V208.56h27.43"/><line class="cls-7" x1="91.43" y1="229.08" x2="101.75" y2="234.62"/><line class="cls-7" x1="133.14" y1="229.08" x2="122.82" y2="234.62"/><path class="cls-8" d="M111.15,264.17l5.93.12s7.26,18.47,4.7,22.73-16.3-1.1-15.82-5.48S110.15,263.83,111.15,264.17Z"/><path class="cls-9" d="M113.26,269.4c1.83-.37,3.44,1.65,3.53,5.07s.46,6.3-3,5.43-2.83-4-2.65-5.19S111.47,269.77,113.26,269.4Z"/><path class="cls-8" d="M109.84,286.19s-1.44,35.75-1.69,49.63-1.73,68.7-1.23,78.89"/><path class="cls-8" d="M116.85,414.71c-.18-20.24,1.42-117.67,0-126.2"/><line class="cls-8" x1="98.41" y1="208.19" x2="98.41" y2="220.82"/><line class="cls-8" x1="126.89" y1="222.4" x2="126.89" y2="208.56"/><path class="cls-5" d="M173.31,381.13a4.34,4.34,0,0,1-1.85,2.38c-4.62,2.44-11.32-1.57-17.89.38s-16.19,1.82-23.12,0-2.8-9,13-12.65,14.35-12.7,21.54-10.84a9.85,9.85,0,0,1,4.36,2.45c.62,7.67,2,13.69,3.4,17Z"/></g></g><g id="顔"><path class="cls-10" d="M179.9,173l6-6.42a5.23,5.23,0,0,0,1.6-6.09l-4.31-19.45a46.68,46.68,0,0,1,16.28,1.79c-4.59-14.59-11.72-28.24-18.81-41.79a63.13,63.13,0,0,1,15.87,10.76c.69-3-1.12-6-2.84-8.58-8.78-13.11-17.65-26.33-28.93-37.36L184,62.42c-7.61-2.63-15.94-1.37-24-1.68a4,4,0,0,1-2.06-.45,4.48,4.48,0,0,1-1.5-2.23,73.27,73.27,0,0,0-16.76-24.7c2.47,6.93-.15,16.26,0,23.62l-3.46-1.42A233.49,233.49,0,0,0,96.43,39.47,50.06,50.06,0,0,1,110.49,57c-19.94-3.59-41-4.91-60.08,1.83A59.29,59.29,0,0,0,69.69,66.1C61.4,70,53.21,74.2,45.94,79.77s-13.6,12.56-17.35,20.9A46.62,46.62,0,0,0,42.89,97c.47,3.85-1.27,7.6-2.89,11.13-6,13.12-11,26.94-12.15,41.33L36.78,143q1.63,10.89,3.14,21.8c1.4.07,3.92-2.16,4.57-3.39Z"/><path class="cls-9" d="M181,174.09c3.08-3.29,8.54-7,8.33-12-.3-7-3.14-14.61-4.64-21.42l-1.45,1.9a50.08,50.08,0,0,1,15.88,1.74,1.52,1.52,0,0,0,1.85-1.85c-4.75-14.73-11.81-28.47-19-42.15l-2.05,2.06a66.89,66.89,0,0,1,15.56,10.52,1.53,1.53,0,0,0,2.57-1.06c.42-4.25-1.75-7.38-4-10.8-2.93-4.38-5.88-8.74-8.94-13a176.36,176.36,0,0,0-19.25-23.17l-.66,2.51,19.19-3.47c1.54-.28,1.32-2.49,0-2.89a44.56,44.56,0,0,0-13.09-1.77c-2.61,0-5.22.09-7.83.09-3.67,0-5.12-.76-6.72-4.29a76.27,76.27,0,0,0-16-22.71,1.51,1.51,0,0,0-2.51,1.46c2.29,7.56,0,15.51-.05,23.22l1.9-1.45c-6.5-2.66-12.69-6.05-19.17-8.79A244,244,0,0,0,96.83,38c-1.37-.41-2.65,1.54-1.46,2.51A52.08,52.08,0,0,1,109.2,57.75l1.69-2.2C90.66,52,69.75,50.69,50,57.39a1.52,1.52,0,0,0-.36,2.74,65.53,65.53,0,0,0,19.64,7.42l-.36-2.74C52.21,72.68,35.47,82.55,27.3,99.92c-.43.9.05,2.4,1.29,2.25a53.79,53.79,0,0,0,14.7-3.75L41.39,97c.25,5.54-2.77,10.38-4.89,15.32-1.6,3.72-3.1,7.49-4.44,11.31a107.83,107.83,0,0,0-5.71,25.83,1.51,1.51,0,0,0,2.26,1.29l8.93-6.48-2.21-.89q1.64,10.89,3.15,21.8c.11.85,1.13,1.18,1.84,1.05a7,7,0,0,0,3.22-1.6c.47-.37,2.74-2.28,1-1.74a5,5,0,0,1,1.54.13c2.71.33,5.46.47,8.18.71l31.69,2.73L161.65,173l18.25,1.57c1.92.16,1.91-2.84,0-3L61.35,161.32l-16.86-1.45a1.52,1.52,0,0,0-1.3.74,6.12,6.12,0,0,1-3.67,2.71l1.85,1.05q-1.51-10.92-3.14-21.81a1.51,1.51,0,0,0-2.21-.9l-8.93,6.48,2.26,1.3A108,108,0,0,1,36.19,121c2.83-7.52,8.57-15.73,8.2-24,0-.87-1-1.84-1.9-1.45a50.65,50.65,0,0,1-13.9,3.64l1.3,2.26c8-16.93,24.27-26.36,40.55-34a1.51,1.51,0,0,0-.35-2.74,62.88,62.88,0,0,1-18.92-7.12l-.36,2.74C70,53.75,90.38,55,110.09,58.44a1.52,1.52,0,0,0,1.7-2.2,53.94,53.94,0,0,0-14.3-17.83L96,40.92a236.81,236.81,0,0,1,26.78,9.89c5.53,2.45,10.85,5.32,16.45,7.62.92.38,1.89-.57,1.9-1.45,0-8,2.32-16.15-.06-24l-2.5,1.46A75.57,75.57,0,0,1,149.38,47.7a71.43,71.43,0,0,1,3.68,6.56c.95,1.91,1.55,4.44,2.89,6.11,2.17,2.71,6.13,1.94,9.23,1.91,6.24-.07,12.34-.28,18.38,1.59V61l-19.19,3.47a1.51,1.51,0,0,0-.66,2.51,167.43,167.43,0,0,1,17.76,21.12c2.4,3.33,4.72,6.7,7,10.1,2.65,3.92,7,8.65,6.55,13.65l2.56-1.06a70.31,70.31,0,0,0-16.17-11,1.52,1.52,0,0,0-2.06,2.06c7,13.44,14,26.94,18.66,41.43l1.85-1.85a53.06,53.06,0,0,0-16.68-1.84,1.52,1.52,0,0,0-1.45,1.89L185.2,157c.85,3.84,1,6.42-1.56,9.8a64.61,64.61,0,0,1-4.8,5.14C177.52,173.38,179.64,175.5,181,174.09Z"/><path class="cls-3" d="M112.76,81.21s-61-15.33-59,81.19c-9.46,9.45-10.11,29.34,10.43,28.69,14.35,26.08,78.85,21,94.5,1.74,24.76-1.42,20.92-30,11.1-25.75C183.33,68.36,112.76,81.21,112.76,81.21Z"/><line class="cls-11" x1="64.18" y1="191.09" x2="53.75" y2="162.4"/><path class="cls-10" d="M49.78,156.93a41.25,41.25,0,0,0,9.73-7.71l5.17,13L82.49,118l6.43,17.2c14.73-13.92,30.93-59,39.05-74.13,0,0-132.1,52.06-72.42,73.42Z"/><path class="cls-10" d="M128,61.08c41.35,9.51,51,86.33,51,86.33q-.13,11.26-.07,22.55l-13.08-34.33a88.56,88.56,0,0,1-1.46,16.65c-5.64-15-11.45-30.25-21.53-42.69A138.52,138.52,0,0,0,124,131.68q-2.16-9.93-4.31-19.86L97,125.21"/><path class="cls-9" d="M177.08,147.41Q177,158.67,177,170l2.94-.4-13.08-34.33a1.51,1.51,0,0,0-2.95.4,96.28,96.28,0,0,1-1.4,16.25h2.89c-5.74-15.25-11.7-30.46-21.92-43.35a1.52,1.52,0,0,0-2.12,0,149.45,149.45,0,0,0-19,22.39l2.74.36q-2.16-9.93-4.31-19.86a1.51,1.51,0,0,0-2.2-.89L95.9,123.92,98,126l19.88-33.16-2.59-1.52a325,325,0,0,1-28,43.17l2.74.35-6.43-17.2a1.51,1.51,0,0,0-2.89,0L62.89,161.86h2.89l-5.17-13a1.52,1.52,0,0,0-2.51-.66,44.72,44.72,0,0,1-9.42,7.47l2.2,1.7a116.19,116.19,0,0,1,5.77-22.43c.67-1.82-2.23-2.6-2.89-.8A116.38,116.38,0,0,0,48,156.53a1.52,1.52,0,0,0,2.21,1.69,48,48,0,0,0,10-7.94l-2.51-.66,5.18,13a1.51,1.51,0,0,0,2.89,0L83.59,118.4H80.7l6.43,17.21a1.52,1.52,0,0,0,2.74.36,324.88,324.88,0,0,0,28-43.16,1.5,1.5,0,0,0-2.59-1.52L95.37,124.45a1.51,1.51,0,0,0,2,2.06l22.68-13.39-2.2-.9q2.14,9.93,4.31,19.86c.29,1.36,2.06,1.34,2.74.36a145.07,145.07,0,0,1,18.55-21.79h-2.12c9.87,12.45,15.6,27.3,21.15,42,.47,1.23,2.62,1.61,2.89,0a101.56,101.56,0,0,0,1.51-17.05L164,136l13.08,34.33c.57,1.5,3,1.4,3-.4q-.08-11.28.06-22.55a1.5,1.5,0,0,0-3,0Z"/><path class="cls-9" d="M134.53,156.34s-.54,9,0,11.58,4.85,9.5,9.5,9.5,10.16-5.39,10.3-10.54,0-12.89,0-12.89S138,154.12,134.53,156.34Z"/><ellipse class="cls-12" cx="144.34" cy="164.86" rx="1.93" ry="3.3"/><path class="cls-9" d="M145.86,135.55l-21.29,14.5s-1.09-6.41,18.73-13.81"/><path class="cls-7" d="M128.59,161.49c6.87-8.54,20.84-8.9,33.95-7.87"/><path class="cls-9" d="M93.12,156.34s.54,9,0,11.58-4.85,9.5-9.5,9.5S73.46,172,73.32,166.88s0-12.89,0-12.89S89.68,154.12,93.12,156.34Z"/><ellipse class="cls-12" cx="83.31" cy="164.86" rx="1.93" ry="3.3"/><path class="cls-9" d="M81.79,135.55l21.29,14.5s1.09-6.41-18.73-13.81"/><path class="cls-7" d="M99.06,161.49c-6.87-8.54-20.84-8.9-33.95-7.87"/><g id="グループ_370" data-name="グループ 370"><path id="パス_1151" data-name="パス 1151" class="cls-13" d="M113.94,181.05c-3.75,1.24-6.38.68-4.7-1.87s2.87-2.42,5.29-2.31,5.52,3,3.85,4.29S115.34,180.59,113.94,181.05Z"/></g><g id="グループ_371" data-name="グループ 371"><ellipse id="楕円形_27" data-name="楕円形 27" class="cls-14" cx="113.62" cy="181.5" rx="1.04" ry="1.15"/></g><path class="cls-15" d="M121.69,198.19s-3.71-4.65-7.82-4.65-9.15,4.65-9.15,4.65"/><line class="cls-3" x1="158.68" y1="192.83" x2="169.78" y2="167.08"/></g><path class="cls-16" d="M55.59,49.2V37.67S82,20.39,51.32,9.23C39.07-10.68,13.69,13,25.51,23.23,20,38.33,33.89,47.42,46.73,41A105.88,105.88,0,0,1,55.59,49.2Z"/><path class="cls-16" d="M39.6,73.07,34,66s7.67-23.4-16.46-15.28C.34,44.58-3.63,71.37,8.59,71.89c4,11.87,16.9,10.67,21.59.47A82.8,82.8,0,0,1,39.6,73.07Z"/></g></g></g></svg>