<svg xmlns="http://www.w3.org/2000/svg" viewBox="0 0 245.76 644.15"><defs><style>.cls-1{fill:#111;}.cls-2,.cls-4{fill:#2c4e88;}.cls-11,.cls-15,.cls-16,.cls-2,.cls-3,.cls-4,.cls-7,.cls-8{stroke:#000931;}.cls-15,.cls-2,.cls-3,.cls-4,.cls-7,.cls-8{stroke-linecap:round;stroke-linejoin:round;}.cls-11,.cls-16,.cls-2,.cls-3,.cls-8{stroke-width:3px;}.cls-3{fill:#fcecda;}.cls-4,.cls-7{stroke-width:2px;}.cls-5{fill:#1c3b69;}.cls-6{fill:#f6beb0;}.cls-11,.cls-15,.cls-7,.cls-8{fill:none;}.cls-9{fill:#000931;}.cls-10{fill:#7b5f32;}.cls-11,.cls-16{stroke-miterlimit:10;}.cls-12{fill:#fff;}.cls-13{fill:#ffbdad;}.cls-14{fill:#000333;}.cls-15{stroke-width:2.62px;}.cls-16{fill:#9ab7d9;}</style></defs><title>boy_bad_1</title><g id="レイヤー_2" data-name="レイヤー 2"><g id="_男_表情パターン" data-name="【男】表情パターン"><g id="体調悪い時"><g id="体"><g id="下半身"><path class="cls-1" d="M72.16,390.1s9.18,76.81,11.14,97.95c1.85,20,17.22,131.41,17.22,131.41h22.13l8.75-186.29.32,3V386.11Z"/><path class="cls-1" d="M191.54,390.1s-9.17,76.81-11.14,97.95c-1.85,20-17.22,131.41-17.22,131.41H141.05l-8.74-186.29-.33,3V386.11Z"/><path d="M61.28,644.15h59a4.3,4.3,0,0,0,4.3-4.31V618.06l-41.8-4.17q-1.22-.12-2.43-.12h0a27.15,27.15,0,0,0-24.46,15.37l-1.75,3.64A7.93,7.93,0,0,0,61.28,644.15Z"/><path d="M201.77,644.15h-59a4.3,4.3,0,0,1-4.3-4.31V618.06l41.8-4.17q1.22-.12,2.43-.12h0a27.15,27.15,0,0,1,24.46,15.37l1.75,3.64A7.93,7.93,0,0,1,201.77,644.15Z"/></g><g id="上半身"><path class="cls-2" d="M35.35,361.79s-2,8.15,3.1,9.13,23.5,0,23.5,0L72.53,355.1l-13.88-2.68Z"/><path class="cls-3" d="M48,371.31s-1.81,28.83,12.61,29.74l-1-20.28,8.82,8.16L74.4,359.7Z"/><path class="cls-4" d="M188.86,200.3a48.83,48.83,0,0,1,5.24,3.52c1.55,1.35,9.36,19.12,8.15,30.56s3.07,132.15,3.07,132.15,1.72,18.59-12.7,20.54S87,379.86,87,379.86s-30.3-20.69-31.76-42,4.15-89.63,4.15-89.63l14.84-40.42,24.82-7.53Z"/><path class="cls-2" d="M90.62,244.83l-4.17,25v63.52s-28.11,23.37-31.58,26.11-21.36,3.1-25.19,2.37S25,349.53,25,349.53c2.22-13.91,8.88-31.92,10.34-61.12s11.78-63.14,24.53-73.54L77.59,211,88.1,223.79"/><path class="cls-2" d="M232,361.79s2,8.15-3.1,9.13-23.49,0-23.49,0L194.86,355.1l13.87-2.68Z"/><path class="cls-3" d="M219.35,371.31s3.69,28.83-10.73,29.74l-.9-20.28-7.9,10.77L193,359.7Z"/><path class="cls-2" d="M176.77,244.83l4.16,25v63.52s28.11,23.37,31.58,26.11,21.36,3.1,25.19,2.37,6.56-12.16,6.56-12.16c-2-15.63-10.76-32-12.22-61.22s-11.78-63.14-24.52-73.54l-17.73-11.22-13.51,6.44"/><path class="cls-4" d="M66.86,371.59c-4.32,3.47-8.34,15.51,1.34,19.16s9.67,1.1,28.29,4.2,50.75,2.56,66.08,1.65,39.61-.73,41.89-8.22-.24-12.32-4.47-12.18-59.87-4.61-59.87-4.61l-65.9-1.28Z"/><path class="cls-5" d="M81.67,312.33c0,13.54,1.18,25.73-5.25,25.73s-18.06-12.19-18.06-25.73c0-5.43-.53-14.44.89-18.51,2.12-6.07,6.91-6,10.77-6C76.45,287.8,81.67,298.78,81.67,312.33Z"/><path class="cls-5" d="M203.27,315c0,13.54-5.22,24.53-11.65,24.53S180,328.54,180,315s5.22-24.53,11.66-24.53c4.41,0,9.67-.62,11.65,7C204.17,301,203.27,310.75,203.27,315Z"/><path class="cls-3" d="M79.27,201.52s24-11.65,38.45-11.55,47.59,4.13,51.24,6.93-26.81,45.44-38.51,42.74S82.07,213.2,82.07,213.2Z"/><path class="cls-2" d="M198.66,240.86c1.82,23.12,1.22,36.48-2.21,49.28l-2.22,43.91c5,15.56,12,16.19,9.18,31.45s-14.87,18.06-14.87,18.06a198.4,198.4,0,0,1-52,6.71h-9.73a198.52,198.52,0,0,1-52-6.71s-12-2.78-14.86-18.06,1.38-14.32,6.42-29.88l-.13-40.82c-1.73-11.81-7.64-34.26-4.95-53.94"/><path class="cls-2" d="M132.57,240s35.66-37.23,34.56-40.64-6.81-7.3-20.2-7.06l-4.81-4.38a76.87,76.87,0,0,1,8.86-3.38c7.26-2.51,24.79-7.33,29.48-5.14a16.72,16.72,0,0,1,8.82,11.93c.73,4.62,3.41,4.38,4.87,7.3s2.92,8,0,10.79-13.15,6-18.5,10.14S147.42,240.46,132.57,240Z"/><path class="cls-2" d="M77.57,220.75c9.82,3.92,53.88,19.22,53.88,19.22s-48.3-30.28-40.83-39.06,22-10.44,24.28-10.94S106.34,184,96.12,184s-32.37,17.69-31.64,23.29C64.48,207.32,67.74,216.82,77.57,220.75Z"/><path class="cls-6" d="M146.2,184v14.33s-4.4,2.55-14.47,2.55-13-2.55-13-2.55V184H146.2"/><line class="cls-7" x1="110.74" y1="204.55" x2="121.06" y2="210.09"/><line class="cls-7" x1="152.45" y1="204.55" x2="142.12" y2="210.09"/><path class="cls-8" d="M130.45,239.64l5.94.12s7.26,18.47,4.7,22.73-16.31-1.1-15.82-5.48S129.46,239.3,130.45,239.64Z"/><path class="cls-9" d="M132.57,244.87c1.83-.37,3.44,1.65,3.53,5.07s.46,6.3-3,5.43-2.83-4-2.65-5.19S130.78,245.24,132.57,244.87Z"/><path class="cls-8" d="M129.15,261.66s-1.45,35.75-1.69,49.63-1.74,68.71-1.23,78.89"/><path class="cls-8" d="M136.16,390.18c-.18-20.24,1.42-117.67,0-126.2"/><line class="cls-8" x1="117.72" y1="183.66" x2="117.72" y2="196.29"/><line class="cls-8" x1="146.2" y1="197.87" x2="146.2" y2="184.03"/><path class="cls-5" d="M192.62,356.6a4.34,4.34,0,0,1-1.85,2.38c-4.62,2.45-11.32-1.57-17.89.38s-16.19,1.82-23.12,0-2.8-9,13-12.65,14.34-12.7,21.54-10.84a9.85,9.85,0,0,1,4.36,2.45c.62,7.67,2,13.69,3.4,17Z"/></g></g><g id="顔"><path class="cls-10" d="M198.92,148.56l6-6.41a7,7,0,0,0,1.76-2.58,7,7,0,0,0-.16-3.52l-4.31-19.45a46.63,46.63,0,0,1,16.28,1.79c-4.59-14.59-11.72-28.23-18.81-41.78a63,63,0,0,1,15.87,10.76c.7-3-1.11-6-2.84-8.59-8.78-13.11-17.64-26.32-28.93-37.35L203,38c-7.62-2.64-15.94-1.37-24-1.68a4.13,4.13,0,0,1-2.06-.46,4.38,4.38,0,0,1-1.49-2.22A73.34,73.34,0,0,0,158.68,8.9c2.47,6.93-.15,16.26,0,23.62l-3.46-1.42A233.2,233.2,0,0,0,115.45,15a50,50,0,0,1,14.06,17.53c-19.94-3.59-41-4.9-60.08,1.84a59.61,59.61,0,0,0,19.28,7.27C80.42,45.51,72.23,49.74,65,55.3S51.36,67.86,47.62,76.21a46.58,46.58,0,0,0,14.29-3.7c.47,3.86-1.27,7.6-2.89,11.13C53,96.76,48,110.58,46.87,125l8.93-6.48Q57.44,129.4,59,140.3c1.39.06,3.91-2.16,4.56-3.4Z"/><path class="cls-9" d="M200,149.63c3.08-3.29,8.54-7,8.33-12-.29-7-3.13-14.6-4.64-21.42l-1.45,1.9a50.63,50.63,0,0,1,15.88,1.74A1.51,1.51,0,0,0,220,118c-4.75-14.73-11.81-28.48-19-42.15l-2.06,2.05A67.09,67.09,0,0,1,214.5,88.43a1.52,1.52,0,0,0,2.56-1.06c.43-4.25-1.74-7.38-4-10.8-2.92-4.38-5.88-8.75-8.93-13a177.13,177.13,0,0,0-19.26-23.16l-.66,2.51,19.19-3.47c1.54-.28,1.32-2.49,0-2.9a44.85,44.85,0,0,0-13.09-1.77c-2.61,0-5.22.09-7.83.09-3.67,0-5.12-.75-6.72-4.29a76.39,76.39,0,0,0-16-22.71,1.51,1.51,0,0,0-2.51,1.46c2.29,7.57,0,15.52,0,23.23l1.9-1.45c-6.5-2.67-12.69-6.05-19.16-8.8a245,245,0,0,0-24.07-8.71c-1.37-.42-2.65,1.54-1.46,2.51a52,52,0,0,1,13.83,17.22l1.69-2.2C109.68,27.52,88.77,26.22,69,32.92a1.52,1.52,0,0,0-.36,2.74,65.13,65.13,0,0,0,19.63,7.43L88,40.34C71.23,48.22,54.5,58.09,46.32,75.45c-.43.91.06,2.4,1.3,2.26A53.72,53.72,0,0,0,62.31,74l-1.9-1.45c.25,5.54-2.76,10.39-4.89,15.33-1.6,3.72-3.1,7.48-4.44,11.31A107.86,107.86,0,0,0,45.37,125a1.51,1.51,0,0,0,2.26,1.3l8.93-6.48-2.2-.9Q56,129.79,57.5,140.7c.12.85,1.14,1.18,1.84,1.05a7.29,7.29,0,0,0,3.23-1.6c.46-.37,2.73-2.28,1-1.74a4.73,4.73,0,0,1,1.54.13c2.71.33,5.46.47,8.18.7L105,142l75.71,6.52,18.25,1.57c1.93.17,1.91-2.83,0-3L80.37,136.86,63.51,135.4a1.5,1.5,0,0,0-1.29.75,6.16,6.16,0,0,1-3.67,2.7l1.84,1.05q-1.52-10.9-3.14-21.81a1.5,1.5,0,0,0-2.2-.89l-8.94,6.48L48.37,125a108.19,108.19,0,0,1,6.84-28.43c2.83-7.52,8.57-15.73,8.2-24,0-.86-.94-1.84-1.9-1.44a51.3,51.3,0,0,1-13.89,3.64L48.91,77c8-16.93,24.27-26.37,40.56-34a1.52,1.52,0,0,0-.36-2.74,62.62,62.62,0,0,1-18.92-7.12l-.36,2.75c19.24-6.53,39.57-5.31,59.28-1.84a1.52,1.52,0,0,0,1.7-2.2,53.87,53.87,0,0,0-14.3-17.84l-1.46,2.51a236.86,236.86,0,0,1,26.78,9.9c5.54,2.44,10.85,5.32,16.45,7.61a1.51,1.51,0,0,0,1.9-1.44c0-8,2.32-16.15-.05-24L157.62,10a71.86,71.86,0,0,1,14.46,19.83c.95,1.91,1.55,4.45,2.89,6.12,2.18,2.7,6.13,1.94,9.23,1.9,6.25-.06,12.34-.27,18.39,1.6v-2.9L183.39,40a1.51,1.51,0,0,0-.66,2.51,167.53,167.53,0,0,1,17.76,21.13c2.4,3.32,4.72,6.7,7,10.09,2.65,3.93,7.05,8.65,6.55,13.66l2.56-1.06a70.09,70.09,0,0,0-16.17-11,1.51,1.51,0,0,0-2,2c7,13.45,14,27,18.65,41.43L218.9,117a52.75,52.75,0,0,0-16.68-1.85,1.53,1.53,0,0,0-1.45,1.9l3.45,15.56c.85,3.85,1,6.42-1.55,9.81a66.5,66.5,0,0,1-4.81,5.13C196.54,148.91,198.66,151,200,149.63Z"/><path class="cls-3" d="M131.79,56.74s-61-15.32-59,81.19c-9.46,9.46-10.11,29.35,10.43,28.69,14.35,26.09,78.86,21,94.51,1.75,24.75-1.43,20.91-30,11.09-25.75C202.35,43.9,131.79,56.74,131.79,56.74Z"/><line class="cls-11" x1="83.2" y1="166.62" x2="72.77" y2="137.93"/><path class="cls-10" d="M68.81,132.46a41.1,41.1,0,0,0,9.72-7.7l5.18,13,17.81-44.25,6.42,17.21c14.73-13.93,30.94-59,39.06-74.14,0,0-132.11,52.07-72.42,73.42Z"/><path class="cls-10" d="M147,36.61C188.34,46.13,198,122.94,198,122.94q-.13,11.28-.06,22.56L184.8,111.16a89.5,89.5,0,0,1-1.45,16.66c-5.65-15-11.45-30.26-21.54-42.69A138.16,138.16,0,0,0,143,107.22q-2.15-9.93-4.31-19.86L116,100.75"/><path class="cls-9" d="M196.1,122.94Q196,134.22,196,145.5l3-.4L185.9,110.77c-.57-1.51-2.94-1.4-2.94.39a96.32,96.32,0,0,1-1.41,16.26h2.9C178.7,112.17,172.74,97,162.52,84.07a1.5,1.5,0,0,0-2.12,0,149,149,0,0,0-19,22.39l2.74.36Q142,96.89,139.81,87a1.52,1.52,0,0,0-2.2-.9L114.93,99.45l2,2,19.88-33.16-2.59-1.51a324.88,324.88,0,0,1-28,43.16l2.74.36-6.42-17.21a1.52,1.52,0,0,0-2.9,0L81.91,137.4h2.9l-5.18-13a1.52,1.52,0,0,0-2.51-.66,44.78,44.78,0,0,1-9.42,7.47l2.21,1.69a115.12,115.12,0,0,1,5.77-22.43c.66-1.81-2.24-2.6-2.9-.8A116.57,116.57,0,0,0,67,132.06a1.53,1.53,0,0,0,2.21,1.7,47.81,47.81,0,0,0,10-7.94l-2.5-.66,5.17,13a1.52,1.52,0,0,0,2.9,0l17.81-44.25h-2.9l6.43,17.21a1.52,1.52,0,0,0,2.74.36,325,325,0,0,0,28-43.17,1.5,1.5,0,0,0-2.59-1.51L114.39,100a1.51,1.51,0,0,0,2,2.05l22.68-13.39-2.2-.9q2.16,9.93,4.31,19.86A1.52,1.52,0,0,0,144,108a145,145,0,0,1,18.55-21.78H160.4c9.87,12.45,15.6,27.3,21.15,42,.47,1.24,2.62,1.61,2.9,0A102.43,102.43,0,0,0,186,111.16l-3,.4,13.08,34.33c.58,1.51,3,1.4,2.95-.39q-.06-11.28.06-22.56c0-1.93-3-1.93-3,0Z"/><path class="cls-9" d="M153.55,131.88s-.54,9,0,11.58,4.85,9.49,9.5,9.49,10.16-5.38,10.3-10.53,0-12.9,0-12.9S157,129.66,153.55,131.88Z"/><ellipse class="cls-12" cx="163.36" cy="140.39" rx="1.93" ry="3.3"/><path class="cls-9" d="M169.23,119.75l-24.32-8.49s.61,6.47,21.67,8.49"/><path class="cls-7" d="M147.61,137c6.87-8.54,20.84-8.91,33.95-7.87"/><path class="cls-9" d="M112.14,131.88s.54,9,0,11.58-4.85,9.49-9.49,9.49-10.17-5.38-10.31-10.53,0-12.9,0-12.9S108.71,129.66,112.14,131.88Z"/><ellipse class="cls-12" cx="102.33" cy="140.39" rx="1.93" ry="3.3"/><path class="cls-9" d="M96.47,119.75l24.31-8.49s-.6,6.47-21.67,8.49"/><path class="cls-7" d="M118.08,137c-6.87-8.54-20.84-8.91-33.95-7.87"/><g id="グループ_370" data-name="グループ 370"><path id="パス_1151" data-name="パス 1151" class="cls-13" d="M133,156.59c-3.76,1.23-6.38.68-4.71-1.88s2.87-2.41,5.29-2.3,5.52,3,3.85,4.29S134.36,156.13,133,156.59Z"/></g><g id="グループ_371" data-name="グループ 371"><ellipse id="楕円形_27" data-name="楕円形 27" class="cls-14" cx="132.64" cy="157.04" rx="1.04" ry="1.15"/></g><line class="cls-3" x1="177.71" y1="168.37" x2="188.8" y2="142.62"/><path class="cls-15" d="M142.64,171.49s-2.31-1.84-4.69-1.15c-1.36.39-3.41,1.64-4.91,1.64-1.81,0-4.16-1.68-5.7-2.19-2-.64-4.69.78-4.69.78"/></g><path class="cls-16" d="M64.89,45.13S32.29-10.22,9.13,3.76C-9.41,23.32,64.89,45.13,64.89,45.13Z"/><path class="cls-16" d="M50.41,56.21S14.3,28.29,2.21,43.54C-5.36,61.26,50.41,56.21,50.41,56.21Z"/></g></g></g></svg>