<svg xmlns="http://www.w3.org/2000/svg" viewBox="0 0 211.53 640.76"><defs><style>.cls-1{fill:#535353;}.cls-2{fill:#000333;}.cls-3{fill:#000931;}.cls-4{fill:#5b2c2b;}.cls-5{fill:#397c71;}.cls-6{fill:#ffedd9;}.cls-7{fill:#1e1e1e;}.cls-8{fill:#236c60;}.cls-9{fill:#ffbdad;}.cls-10{fill:#fff;}.cls-11{fill:#868686;}.cls-12{fill:none;stroke:#000931;stroke-linecap:round;stroke-linejoin:round;stroke-width:2.62px;}.cls-13{fill:#bababa;stroke:#000333;stroke-miterlimit:10;stroke-width:3px;}</style></defs><title>girl_bad_2</title><g id="レイヤー_2" data-name="レイヤー 2"><g id="_女_表情パターン" data-name="【女】表情パターン"><g id="怒った時"><g id="グループ_335" data-name="グループ 335"><path id="パス_1098" data-name="パス 1098" class="cls-1" d="M186.33,148.3s-2,16.81,6,20.61c0,0-16.62,7.48-18.28-6.61S186.33,148.3,186.33,148.3Z"/><path id="パス_1099" data-name="パス 1099" class="cls-2" d="M183.46,172.65a12.14,12.14,0,0,1-6-1.41,10.78,10.78,0,0,1-5.1-8.73,13.86,13.86,0,0,1,2.93-11.36,16,16,0,0,1,11.06-4.62,1.77,1.77,0,0,1,1.75,1.78c0,.07,0,.13,0,.19-.51,4.33-.58,16.15,5,18.81a1.76,1.76,0,0,1,0,3.2A26.29,26.29,0,0,1,183.46,172.65Zm.95-22.39a11.24,11.24,0,0,0-6.52,3.26,10.55,10.55,0,0,0-2,8.57,7.35,7.35,0,0,0,3.34,6.08c2.68,1.52,6.64,1,9.52.17-4.4-4.82-4.51-13.91-4.29-18.08Z"/></g><g id="グループ_336" data-name="グループ 336"><path id="パス_1100" data-name="パス 1100" class="cls-1" d="M63.29,58.45s-29,36.41-50.19,31.46c0,0,19.48,13.22,41.81-7.28S63.29,58.45,63.29,58.45Z"/><path id="パス_1101" data-name="パス 1101" class="cls-2" d="M28.74,95.8a32.27,32.27,0,0,1-16.63-4.44,1.76,1.76,0,0,1,1.39-3.17,17.17,17.17,0,0,0,3.78.42c19.46,0,44.36-30.93,44.62-31.26a1.76,1.76,0,0,1,1.83-.61,7.89,7.89,0,0,1,5.39,5.43c1.3,5.3-3.08,12.62-13,21.75S36.4,95.8,28.74,95.8ZM22,91.63c7.32,1.7,18.94,1.42,31.7-10.3C65.42,70.59,66.25,65.25,65.7,63a4,4,0,0,0-1.89-2.43C59.48,65.82,40.11,88,22,91.63Z"/></g><g id="グループ_340" data-name="グループ 340"><path id="パス_1107" data-name="パス 1107" class="cls-1" d="M187.58,144.12c-9.7,33.93-25.12,48.92-14.54,80.65S115.87,283,115.87,283L34.64,240.2c-2.21-22.92-.88-28.59,3.08-42.06s6.17-36.84,1.76-55.35S32,88.58,57.56,61.26s69.64-30,103.13-10.58c18.9,10.94,28.13,28.49,30.83,47.8a89.37,89.37,0,0,1,.84,11.08A119.2,119.2,0,0,1,187.58,144.12Z"/><path id="パス_1108" data-name="パス 1108" class="cls-2" d="M115.87,284.72a1.78,1.78,0,0,1-.82-.21L33.82,241.76a1.74,1.74,0,0,1-.93-1.39c-2.22-23-.92-28.91,3.14-42.73s5.94-36.81,1.74-54.45C34.15,128,28.72,89.51,56.28,60.05c25.26-27,69.55-31.6,105.3-10.91,17.68,10.24,28.63,27.21,31.68,49.09a92.82,92.82,0,0,1,.87,11.3,121.61,121.61,0,0,1-4.85,35.06,259.82,259.82,0,0,1-9.14,25.7c-7.4,18.56-12.75,32-5.43,53.91,4.6,13.81-4.14,28.68-25.3,43a190,190,0,0,1-32.9,17.37A1.75,1.75,0,0,1,115.87,284.72ZM36.31,239.09,116,281c7.24-3,64.75-27.62,55.4-55.68-7.73-23.17-1.89-37.8,5.5-56.33a256.43,256.43,0,0,0,9-25.36h0a118.07,118.07,0,0,0,4.71-34,89.77,89.77,0,0,0-.84-10.87C186.87,78,176.51,61.88,159.81,52.21,125.46,32.32,83,36.64,58.84,62.47c-26.39,28.2-21.13,65.28-17.65,79.92,4.55,19.08,2.26,42.53-1.79,56.25-3.94,13.44-5.13,18.86-3.09,40.45Z"/></g><g id="体"><path class="cls-3" d="M54.66,386.72s9.17,76.8,11.13,97.95C67.65,504.63,83,616.08,83,616.08h22.12l8.75-186.29.32,3V382.73Z"/><path class="cls-3" d="M174,386.72s-9.17,76.8-11.13,97.95c-1.86,20-17.23,131.41-17.23,131.41H123.55L114.8,429.79l-.32,3V382.73Z"/><path class="cls-4" d="M43.77,640.76h59a4.3,4.3,0,0,0,4.3-4.3V614.68l-41.8-4.17q-1.22-.12-2.43-.12h0a27.15,27.15,0,0,0-24.47,15.37l-1.75,3.64A7.92,7.92,0,0,0,43.77,640.76Z"/><path class="cls-4" d="M184.26,640.76h-59a4.3,4.3,0,0,1-4.3-4.3V614.68l41.8-4.17q1.22-.12,2.43-.12h0a27.16,27.16,0,0,1,24.47,15.37l1.75,3.64A7.93,7.93,0,0,1,184.26,640.76Z"/><g id="グループ_337" data-name="グループ 337"><path id="パス_1102" data-name="パス 1102" class="cls-5" d="M19.63,358.57s-1.82,7.38,2.81,8.27,21.27,0,21.27,0l9.58-14.33-12.56-2.42Z"/><path id="パス_1103" data-name="パス 1103" class="cls-2" d="M30.11,369a51,51,0,0,1-8-.42,5.13,5.13,0,0,1-3.46-2.31c-1.91-3-.86-7.59-.73-8.1a1.81,1.81,0,0,1,1-1.22l21.11-8.49a1.68,1.68,0,0,1,1-.09l12.57,2.42a1.77,1.77,0,0,1,1.13,2.71l-9.58,14.33a1.78,1.78,0,0,1-1.38.78C43.36,368.62,36.29,369,30.11,369Zm-8.93-9.14a7.51,7.51,0,0,0,.44,4.51,1.66,1.66,0,0,0,1.15.75,147.87,147.87,0,0,0,20,0l7.61-11.38-9.43-1.82Z"/></g><g id="グループ_338" data-name="グループ 338"><path id="パス_1104" data-name="パス 1104" class="cls-6" d="M33.68,367.19S28.89,395.92,42,396.76l2.26-21,7.16,9.75,6.19-28.84Z"/><path id="パス_1105" data-name="パス 1105" class="cls-2" d="M42,398.51h-.12A9.09,9.09,0,0,1,35,394.93c-6.35-8-3.23-27.22-3.1-28a1.78,1.78,0,0,1,1-1.32l23.88-10.51a1.76,1.76,0,0,1,2.43,2l-6.19,28.84a1.78,1.78,0,0,1-2.1,1.35,1.81,1.81,0,0,1-1.05-.68l-4.47-6.08L43.7,397A1.77,1.77,0,0,1,42,398.51Zm-6.67-30.1c-.83,5.77-1.69,19,2.52,24.33a5.84,5.84,0,0,0,2.6,1.92l2.06-19.08a1.76,1.76,0,0,1,3.17-.85l4.84,6.58,4.64-21.62Z"/></g><g id="グループ_341" data-name="グループ 341"><path id="パス_1109" data-name="パス 1109" class="cls-7" d="M67.48,201.14C76,194,85.34,186.51,91.12,187s13.31,7.2,13.63,13.39S90.28,211,84.09,212.14s-22.48,9.17-22.56,1.73A18.59,18.59,0,0,1,67.48,201.14Z"/><path id="パス_1110" data-name="パス 1110" class="cls-2" d="M65.53,218.75a6.57,6.57,0,0,1-3.91-1,4.54,4.54,0,0,1-1.85-3.84,20.27,20.27,0,0,1,6.56-14.08l0,0c9.9-8.27,18.61-15.1,24.91-14.54s14.86,7.74,15.25,15.05c.49,9.24-21.87,13.52-22.1,13.56a54.62,54.62,0,0,0-6.13,1.83A46.36,46.36,0,0,1,65.53,218.75Zm3.11-16.28a16.87,16.87,0,0,0-5.34,11.38c0,.75.26.93.37,1,1.88,1.36,9.16-1.06,13.5-2.51a58.7,58.7,0,0,1,6.6-2c8-1.49,19.44-5.87,19.23-9.91-.29-5.33-7.24-11.32-12-11.72-5.36-.43-15.56,8.06-22.33,13.71Z"/></g><g id="グループ_343" data-name="グループ 343"><path id="パス_1112" data-name="パス 1112" class="cls-5" d="M163.76,212.35a39.27,39.27,0,0,1,8.08,3.19c1.4,1.22,5.15,17.31,4,27.67s2.79,119.66,2.79,119.66,1.56,16.83-11.5,18.6-95.63-6.53-95.63-6.53-27.43-18.74-28.75-38,3.75-81.16,3.75-81.16L60,219.17l22.48-6.82Z"/><path id="パス_1113" data-name="パス 1113" class="cls-2" d="M161.56,382.3c-22.3,0-87-6.47-90.08-6.78a.56.56,0,0,1-.28-.1c-1.13-.77-27.68-19.11-29-38.46-1.31-19.11,3.71-80.62,3.76-81.24a.4.4,0,0,1,0-.15L59.41,219a.59.59,0,0,1,.38-.36l22.48-6.82.17,0h81.32l.17,0a37.38,37.38,0,0,1,8.29,3.31c1.62,1.41,5.37,17.68,4.25,28.17-1.09,10.2,2.75,118.49,2.79,119.58a27.25,27.25,0,0,1-.88,8.81c-1.69,6-5.54,9.63-11.13,10.38A45.07,45.07,0,0,1,161.56,382.3Zm-89.82-7.93c4,.4,82.77,8.22,95.35,6.51,12.36-1.67,11-17.79,11-18-.16-4.5-3.88-109.5-2.78-119.78,1.12-10.5-2.81-26.21-3.85-27.16a36.23,36.23,0,0,0-7.77-3H82.52L60.4,219.65,47.11,255.89c-.21,2.55-5,62.29-3.75,81C44.6,355,69.76,373,71.75,374.36Z"/></g><g id="グループ_345" data-name="グループ 345"><path id="パス_1115" data-name="パス 1115" class="cls-5" d="M199.57,364c1.32,4.85.22,8.93-1.54,10.25a38.5,38.5,0,0,1-22.21,3.85c-9.91-1.54-8.59-8.82-8.59-8.82l13.22-16.52Z"/><path id="パス_1116" data-name="パス 1116" class="cls-2" d="M180.42,380.18a33.05,33.05,0,0,1-4.87-.36,12.24,12.24,0,0,1-8.51-4.55,9,9,0,0,1-1.54-6.33,1.77,1.77,0,0,1,.35-.79l13.22-16.52a1.76,1.76,0,0,1,2.27-.42l19.13,11.24a1.73,1.73,0,0,1,.8,1.05c1.38,5,.46,10.14-2.18,12.12A39.94,39.94,0,0,1,180.42,380.18ZM168.93,370a5.4,5.4,0,0,0,1,3.32,8.92,8.92,0,0,0,6.15,3.06A37.25,37.25,0,0,0,197,372.81c.87-.66,2-3.54,1.07-7.7L180.88,355Z"/></g><g id="グループ_346" data-name="グループ 346"><path id="パス_1117" data-name="パス 1117" class="cls-6" d="M192.7,375.07s-5.14,33.76-14.06,34.08c-2.37.09,3.71-20.1,2.4-24.87-.76-2.74-4.81,10.24-5.83,8-3.9-8.7-5.83-29.36-5.83-29.36Z"/><path id="パス_1118" data-name="パス 1118" class="cls-2" d="M178.62,410.91a2.11,2.11,0,0,1-1.61-.74c-1.18-1.36-.78-4.1.75-12.22.44-2.34,1-5.11,1.31-7.55-1.25,2.57-2.09,3.87-3.55,3.87h0A2.1,2.1,0,0,1,173.6,393c-4-8.86-5.89-29.06-6-29.91a1.77,1.77,0,0,1,2.57-1.73l23.32,12.2a1.75,1.75,0,0,1,.93,1.82c-.9,5.87-5.87,35.22-15.75,35.58Zm2.08-28.78h.21a2.11,2.11,0,0,1,1.84,1.68c.7,2.55-.15,7.51-1.52,14.79-.52,2.79-1.2,6.37-1.36,8.34,4.52-2.88,9-19.05,10.91-30.9L171.5,366a136.22,136.22,0,0,0,4.36,23l.81-1.67C178.25,383.9,179.08,382.13,180.7,382.13Z"/></g><g id="グループ_348" data-name="グループ 348"><path id="パス_1120" data-name="パス 1120" class="cls-5" d="M174.28,224.69c11.13,16.2,10.47,31.41,11.46,48.93s0,37.9,24,73.6c0,0,.33,4.85-5.79,10.14s-4.79,7.93-8.32,7.93-21.38-.88-21.38-.88L146,346.34V282.87l3.3-23.86"/><path id="パス_1121" data-name="パス 1121" class="cls-2" d="M195.66,367.05c-3.53,0-20.73-.83-21.46-.88a1.69,1.69,0,0,1-.87-.28l-28.26-18.07a1.75,1.75,0,0,1-.82-1.48V282.87a1.94,1.94,0,0,1,0-.24l3.3-23.86a1.76,1.76,0,0,1,3.5.43v.05L147.78,283v62.38l27.05,17.3c2.84.14,17.7.86,20.83.86.91,0,1,0,1.9-1.48a25.9,25.9,0,0,1,5.27-6,13.1,13.1,0,0,0,5.15-8.29c-22.06-33-23-53.37-23.78-69.77-.07-1.44-.14-2.85-.21-4.26-.12-2-.21-4-.3-6-.7-15.07-1.3-28.08-10.85-42a1.76,1.76,0,1,1,2.82-2.11,1,1,0,0,1,.08.11c10.12,14.73,10.77,28.86,11.47,43.82.09,2,.18,4,.3,6,.08,1.41.14,2.84.21,4.3.79,16.87,1.67,36,23.51,68.42a1.8,1.8,0,0,1,.29.87c0,.23.32,5.79-6.39,11.59a22.62,22.62,0,0,0-4.61,5.29A5.18,5.18,0,0,1,195.66,367.05Z"/></g><g id="グループ_349" data-name="グループ 349"><path id="パス_1122" data-name="パス 1122" class="cls-5" d="M74.81,252.67,71,275.27v57.52s-25.45,21.15-28.59,23.63-19.34,2.81-22.81,2.15S9.55,346.34,9.55,346.34c7.6-6.94,13.88-27.77,15.2-54.21S35.42,235,47,225.54l16-3.49,9.52,11.57"/><path id="パス_1123" data-name="パス 1123" class="cls-2" d="M25.35,360.62a40.82,40.82,0,0,1-6.05-.32c-4-.75-9.65-10.2-11.28-13.08A1.77,1.77,0,0,1,8.36,345c7.51-6.86,13.39-28.16,14.63-53,1.26-25.21,10.16-57.5,22.86-67.87a1.87,1.87,0,0,1,.74-.35l16-3.49a1.77,1.77,0,0,1,1.74.6l9.51,11.57a1.76,1.76,0,1,1-2.72,2.24L62.33,224l-14.57,3.17c-10.39,8.92-19.89,37.9-21.24,65.05-1.26,25-7,46-14.76,54.41,3.18,5.32,6.88,10,8.2,10.21,6.23,1.19,19.95-.67,21.39-1.8,2.81-2.22,24-19.79,27.92-23.08V275.27a1.36,1.36,0,0,1,0-.29l3.77-22.6a1.77,1.77,0,0,1,3.48.58L72.8,275.41v57.38a1.77,1.77,0,0,1-.63,1.35c-1,.87-25.51,21.2-28.63,23.66C40.81,360,31.72,360.62,25.35,360.62Z"/></g><g id="グループ_350" data-name="グループ 350"><path id="パス_1124" data-name="パス 1124" class="cls-5" d="M53.29,374.11c-3.91,3.14-7.55,14.05,1.22,17.35s8.76,1,25.61,3.8,45.95,2.31,59.84,1.49,35.86-.66,37.93-7.44-.21-11.15-4-11-54.21-4.18-54.21-4.18L60,373Z"/><path id="パス_1125" data-name="パス 1125" class="cls-2" d="M116.05,398a242.27,242.27,0,0,1-36-2.15,120.35,120.35,0,0,0-14.79-1.65A29.72,29.72,0,0,1,54.3,392a8.29,8.29,0,0,1-5.67-6.67,13.94,13.94,0,0,1,4.28-11.69.57.57,0,0,1,.27-.13l6.67-1.15,59.78,1.15c.54,0,50.45,4.32,54.18,4.18a4.74,4.74,0,0,1,4,1.88c1.66,2.16,1.89,5.78.63,9.9-1.88,6.18-17.82,6.9-31.87,7.53-2.31.1-4.53.21-6.58.33C133.71,397.71,125.12,398,116.05,398Zm-62.5-23.33a12.89,12.89,0,0,0-3.74,10.5,7.08,7.08,0,0,0,4.91,5.75A28.52,28.52,0,0,0,65.31,393a120.75,120.75,0,0,1,14.92,1.67c16.33,2.72,44.65,2.37,59.7,1.48,2-.12,4.28-.23,6.59-.33,12.31-.55,29.18-1.32,30.82-6.69,1.14-3.77,1-7-.44-8.85a3.42,3.42,0,0,0-3-1.42c-3.8.11-52.22-4-54.28-4.19L60,373.53Z"/></g><g id="グループ_351" data-name="グループ 351"><path id="パス_1126" data-name="パス 1126" class="cls-8" d="M66.71,313.79c0,12.26,1.07,23.29-4.76,23.29s-16.36-11-16.36-23.29c0-4.92-.48-13.08.8-16.76,1.93-5.5,6.26-5.45,9.76-5.45C62,291.58,66.71,301.52,66.71,313.79Z"/></g><g id="グループ_352" data-name="グループ 352"><path id="パス_1127" data-name="パス 1127" class="cls-8" d="M173.48,322.87c0,12.26-4.72,22.21-10.55,22.21s-10.55-9.95-10.55-22.21,4.72-22.21,10.55-22.21c4,0,8.76-.56,10.55,6.34C174.3,310.16,173.48,319,173.48,322.87Z"/></g><g id="グループ_353" data-name="グループ 353"><path id="パス_1128" data-name="パス 1128" class="cls-6" d="M64.53,213.45S86.23,202.9,99.35,203s43.09,3.73,46.39,6.26-24.27,41.15-34.86,38.7S67.07,224,67.07,224Z"/><path id="パス_1129" data-name="パス 1129" class="cls-2" d="M111.8,249.83a5.87,5.87,0,0,1-1.32-.15c-10.76-2.49-43-23.28-44.37-24.17a1.77,1.77,0,0,1-.76-1.07l-2.53-10.58a1.76,1.76,0,0,1,.94-2c.9-.44,22-10.64,35.41-10.64h.19c12,.09,43.41,3.54,47.45,6.63,1.74,1.34.82,4-.32,6.38C142,223.68,122.54,249.83,111.8,249.83Zm-43.18-26.9c4.5,2.88,33.24,21.14,42.66,23.32.88.21,3.56.16,9.24-4.62,11.23-9.45,22.93-27.35,23.7-31.21-4.57-2.1-31.63-5.55-44.88-5.65h-.17c-10.78,0-27.81,7.48-32.59,9.68Z"/></g><g id="グループ_354" data-name="グループ 354"><path id="パス_1130" data-name="パス 1130" class="cls-5" d="M159,248.28c10.58,5.62,16.43,25,9,48.78-1.24,4-3.55,2.95-6.29,13.72-1.41,5.55,1.64,14.52,4,24.1,2.18,9,9.93,23.59,10,23.78a19.05,19.05,0,0,1-1.87,19.62c-4,5.83-34.37,5.75-59.61,6.09s-53.77-6.09-53.77-6.09S49.54,375.77,47,361.93s3.75-14.39,8.31-28.48c3-9.29,4.52-18,1.41-28.75-1.62-5.59.1,1.2-3.42-7.67-4.92-12.38-7.19-45.65,8.24-50.53"/><path id="パス_1131" data-name="パス 1131" class="cls-2" d="M112.35,386.14A281.19,281.19,0,0,1,60.07,380c-.5-.11-12.08-2.94-14.81-17.75a22.48,22.48,0,0,1,3.33-18.34,54.46,54.46,0,0,0,5-11c3-9.21,4.36-17.45,1.39-27.71-.11-.36-.38-1.3-.55-1.82a17.77,17.77,0,0,1-2.82-5.7c-4-10-6-31.54-.16-43.8a16,16,0,0,1,9.51-9,1.77,1.77,0,0,1,1.07,3.36,12.59,12.59,0,0,0-7.39,7.2c-5.33,11.22-3.41,31.77.25,41a43,43,0,0,0,1.89,4.29c.69.42.91,1.19,1.59,3.54C61.83,316,59.75,325.49,57,334a58.2,58.2,0,0,1-5.33,11.66c-2.77,4.87-4.44,7.82-2.94,16,2.31,12.55,12,14.93,12.12,14.95.28.06,28.67,6.36,53.36,6l5.41-.07c20.93-.24,49.6-.58,52.77-5.24a17.26,17.26,0,0,0,1.71-17.93l-.1-.18c-2.39-4.61-8.15-16.2-10-23.89-.46-1.9-.95-3.77-1.43-5.61-2-7.76-3.77-14.45-2.53-19.34,1.83-7.18,3.57-9.48,4.82-11.16a7.55,7.55,0,0,0,1.47-2.64c7.34-23.62,1.28-41.69-8.16-46.7a1.76,1.76,0,0,1-.73-2.38,1.78,1.78,0,0,1,2.39-.74h0c5.87,3.13,10.19,9.78,12.14,18.76a63.57,63.57,0,0,1-2.27,32.11,11.16,11.16,0,0,1-2,3.72c-1.15,1.52-2.58,3.4-4.23,9.9-1,4,.71,10.59,2.52,17.57.48,1.86,1,3.76,1.44,5.68,1.77,7.32,7.39,18.59,9.72,23.1l.21.4a20.75,20.75,0,0,1-2,21.32c-3.91,5.74-24.57,6.41-55.64,6.78l-5.41.06C113.62,386.12,113,386.14,112.35,386.14Z"/></g><g id="グループ_355" data-name="グループ 355"><path id="パス_1132" data-name="パス 1132" class="cls-5" d="M112.8,248.27s32.28-33.71,31.29-36.8-6.17-6.61-18.29-6.39l-4.35-4a71,71,0,0,1,8-3.06c6.58-2.27,22.45-6.64,26.7-4.65a15.11,15.11,0,0,1,8,10.8c.67,4.19,3.09,4,4.41,6.61s2.64,7.21,0,9.77-11.9,5.44-16.75,9.18S126.24,248.71,112.8,248.27Z"/><path id="パス_1133" data-name="パス 1133" class="cls-2" d="M113.36,250.05h-.63a1.76,1.76,0,0,1-1.7-1.82,1.68,1.68,0,0,1,.49-1.16c14.29-14.93,29.44-32,30.76-35.36-.95-2-5.34-5.07-16.46-4.86a1.77,1.77,0,0,1-1.22-.46l-4.35-4a1.77,1.77,0,0,1-.12-2.49,2,2,0,0,1,.46-.36,72.26,72.26,0,0,1,8.29-3.18c.21-.07,21.9-7.44,28-4.58a17,17,0,0,1,9,12.12,4.57,4.57,0,0,0,1.93,3.33,8.58,8.58,0,0,1,2.31,2.77c.9,1.81,3.56,8-.35,11.82A31.38,31.38,0,0,1,162,226.2a51.7,51.7,0,0,0-9.14,5C148.76,234.35,127.7,250.05,113.36,250.05Zm13.54-46.74c15.22,0,18.28,5.8,18.87,7.62.43,1.36.93,2.9-15.64,21.28-4.85,5.37-9.78,10.64-12.87,13.92,13.35-2.47,31.26-16.06,33.47-17.77a54.23,54.23,0,0,1,9.81-5.36,32.55,32.55,0,0,0,6.79-3.68c1.74-1.7.9-5.22-.35-7.72a5.39,5.39,0,0,0-1.47-1.68,8,8,0,0,1-3.1-5.44,13.43,13.43,0,0,0-7-9.48c-3.08-1.44-16.86,1.78-25.37,4.72-2.47.86-4.2,1.49-5.37,1.95l1.8,1.64Z"/></g><g id="グループ_356" data-name="グループ 356"><path id="パス_1134" data-name="パス 1134" class="cls-5" d="M69.42,185.35c-16.35,5-16.56,10.47-18.77,14S43.38,212.14,44,217.2s2.64,9.47,5.73,10.58,6.39,0,13.22,3.08,48.79,17.41,48.79,17.41-47.25-32.62-47.25-34.81.88-5.29,2.87-6A10.56,10.56,0,0,0,74.67,202a19.33,19.33,0,0,1,9.58-8.37c2.1-.45-6.37-8.27-6.37-8.27Z"/><path id="パス_1135" data-name="パス 1135" class="cls-2" d="M111.78,250a1.56,1.56,0,0,1-.57-.1c-1.72-.58-42.12-14.38-48.95-17.47a24.94,24.94,0,0,0-9-2.31,16.12,16.12,0,0,1-4.07-.73c-3.49-1.25-6.06-5.74-6.88-12-.84-6.46,6.08-17.75,6.86-19,.29-.47.57-1,.86-1.6,1.82-3.69,4.32-8.73,18.9-13.15a1.81,1.81,0,0,1,.51-.08h8.45a1.77,1.77,0,0,1,1.2.47c7.88,7.28,7.42,9,7.2,9.77a2.15,2.15,0,0,1-1.65,1.53,18.08,18.08,0,0,0-8.32,7.31,12,12,0,0,1-8.1,6.43l-.25.08c-.8.26-1.53,2-1.64,3.8,3.11,3.43,29.85,22.38,46.46,33.84a1.77,1.77,0,0,1-1,3.22Zm-42.1-62.92c-12.89,4-14.9,8-16.51,11.27a18.25,18.25,0,0,1-1,1.9c-2.44,3.91-6.92,12.43-6.36,16.69.63,4.78,2.43,8.37,4.58,9.14a12.93,12.93,0,0,0,3.21.55,28.54,28.54,0,0,1,10.14,2.59c4.38,2,23.74,8.76,36.67,13.23-3.94-2.76-8.61-6.05-13.25-9.36-24.36-17.39-24.36-18.4-24.36-19.67,0-3,1.27-6.69,4.07-7.63l.25-.08a8.66,8.66,0,0,0,6-4.42,21.12,21.12,0,0,1,9.23-8.81,53,53,0,0,0-5.09-5.4Z"/></g><g id="グループ_357" data-name="グループ 357"><path id="パス_1136" data-name="パス 1136" class="cls-9" d="M125.14,210.59s-4,2.3-13.11,2.3-11.74-2.3-11.74-2.3v-13h24.84Z"/></g><g id="グループ_360" data-name="グループ 360"><path id="パス_1140" data-name="パス 1140" class="cls-2" d="M102.37,222.38a1.19,1.19,0,0,1-.56-.14l-9.35-5a1.17,1.17,0,0,1,1.11-2.07h0l9.35,5a1.17,1.17,0,0,1,.48,1.59,1.14,1.14,0,0,1-1,.62Z"/></g><g id="グループ_361" data-name="グループ 361"><path id="パス_1141" data-name="パス 1141" class="cls-2" d="M121.45,222.38a1.17,1.17,0,0,1-.56-2.21l9.35-5a1.17,1.17,0,0,1,1.11,2.07h0l-9.35,5A1.18,1.18,0,0,1,121.45,222.38Z"/></g><g id="グループ_362" data-name="グループ 362"><path id="パス_1142" data-name="パス 1142" class="cls-2" d="M117.07,271.85a15.67,15.67,0,0,1-4.88-.91c-3.82-1.29-8.14-4-7.76-7.43a74.28,74.28,0,0,1,2.1-9.32c2-6.84,2.74-7.35,3.27-7.68a1.86,1.86,0,0,1,1.21-.3l5.27.11a1.74,1.74,0,0,1,1.6,1.12c1.62,4.11,6.69,17.86,4.13,22.13A5.42,5.42,0,0,1,117.07,271.85Zm-5.35-22.1A76.7,76.7,0,0,0,108,263.9c-.06.54,1.69,2.45,5.38,3.7,3.13,1,5.31.76,5.68.15,1.06-1.77-1.14-10.47-4-17.94Z"/></g><g id="グループ_363" data-name="グループ 363"><path id="パス_1143" data-name="パス 1143" class="cls-2" d="M112.79,252.71c1.66-.34,3.12,1.48,3.2,4.58s.42,5.71-2.73,4.92a3.54,3.54,0,0,1-2.52-4.31c0-.13.08-.26.13-.39C111,256.47,111.17,253,112.79,252.71Z"/></g><g id="グループ_364" data-name="グループ 364"><path id="パス_1144" data-name="パス 1144" class="cls-2" d="M107.05,386a1.75,1.75,0,0,1-1.76-1.67c-.35-7.06.34-37.14.8-57.05.14-6.27.26-11.48.32-14.52.2-12.43,1.52-44.65,1.53-45a1.76,1.76,0,0,1,3.52.14c0,.32-1.31,32.5-1.53,44.9-.05,3-.17,8.25-.31,14.54-.46,19.85-1.15,49.85-.81,56.77a1.76,1.76,0,0,1-1.67,1.85h-.09Z"/></g><g id="グループ_365" data-name="グループ 365"><path id="パス_1145" data-name="パス 1145" class="cls-2" d="M116,386a1.77,1.77,0,0,1-1.77-1.74c0-6,.07-19.63.21-35.38.28-31.06.66-73.59-.18-78.62a1.76,1.76,0,1,1,3.45-.7.5.5,0,0,1,0,.12c.89,5.34.53,46.31.24,79.23-.14,15.73-.27,29.31-.21,35.32a1.77,1.77,0,0,1-1.75,1.78h0Z"/></g><g id="グループ_368" data-name="グループ 368"><path id="パス_1149" data-name="パス 1149" class="cls-2" d="M99.35,210.48a1.77,1.77,0,0,1-1.77-1.77h0V197.28a1.77,1.77,0,0,1,3.53-.12v11.55A1.76,1.76,0,0,1,99.35,210.48Z"/></g><g id="グループ_369" data-name="グループ 369"><path id="パス_1150" data-name="パス 1150" class="cls-2" d="M125.14,211.91a1.76,1.76,0,0,1-1.77-1.76h0V197.61a1.77,1.77,0,0,1,3.53,0v12.53a1.76,1.76,0,0,1-1.76,1.77Z"/></g><g id="グループ_372" data-name="グループ 372"><path id="パス_1152" data-name="パス 1152" class="cls-8" d="M167.17,353.87A4,4,0,0,1,165.5,356c-4.2,2.21-10.25-1.42-16.2.34a43.34,43.34,0,0,1-20.93,0c-6.3-1.65-2.54-8.15,11.78-11.46s13-11.49,19.51-9.81a9,9,0,0,1,4,2.22,54.1,54.1,0,0,0,3.08,15.41C166.84,353.1,167,353.48,167.17,353.87Z"/></g><g id="グループ_373" data-name="グループ 373"><path id="パス_1153" data-name="パス 1153" class="cls-8" d="M144.92,310.64c-7.8,1.42-18.51-8.43-17.19-14.38s29.25-5.45,31.07,1S148.56,310,144.92,310.64Z"/></g><g id="グループ_374" data-name="グループ 374"><path id="パス_1154" data-name="パス 1154" class="cls-8" d="M77.08,310.64c7.81,1.42,18.51-8.43,17.2-14.38s-29.26-5.45-31.08,1S73.44,310,77.08,310.64Z"/></g></g><g id="グループ_342" data-name="グループ 342"><path id="パス_1111" data-name="パス 1111" class="cls-2" d="M162.34,203.83a1.76,1.76,0,0,1-1.54-.89c-5.32-9.44,1.23-26.66,1.51-27.39a1.76,1.76,0,0,1,3.29,1.27c-.06.16-6.23,16.4-1.73,24.39a1.76,1.76,0,0,1-.67,2.4,1.73,1.73,0,0,1-.86.23Z"/></g><g id="グループ_358" data-name="グループ 358"><path id="パス_1137" data-name="パス 1137" class="cls-6" d="M168.41,140.37s6.13,25.86-6,39.62c-12,13.54-30.57,18.56-50,18.12-19.39.44-38-4.57-50-18.12-12.14-13.76-6-39.62-6-39.62S95.13,77.56,109.62,75.8s55-1.77,58.79,64.57"/><path id="パス_1138" data-name="パス 1138" class="cls-2" d="M110,199.9c-15.26,0-35.38-3.44-48.89-18.75-12.6-14.28-6.66-40.1-6.4-41.19a1.62,1.62,0,0,1,.21-.51c4-6.51,39.55-63.59,54.46-65.4,10.63-1.29,26-.58,38.83,10.15,13,10.91,20.41,29.72,21.91,55.92.55,2.42,5.8,27.17-6.44,41-14.21,16.12-35.76,19.06-51.32,18.72C111.62,199.89,110.83,199.9,110,199.9Zm2.36-3.56c14.91.34,35.37-2.43,48.68-17.52,11.41-12.93,5.68-37.8,5.62-38a1.54,1.54,0,0,1,0-.3c-1.43-25.26-8.39-43.29-20.67-53.57-11.87-9.92-26.21-10.56-36.14-9.35-3.1.37-11.22,5.06-30.79,32.21C68.52,124.36,59.4,139,58.11,141c-.58,2.73-5.07,25.6,5.68,37.78,13.31,15.1,33.78,17.86,48.6,17.53Z"/></g><g id="グループ_366" data-name="グループ 366"><path id="パス_1146" data-name="パス 1146" class="cls-1" d="M172.16,84.83c17.63,46.29,4,71.63,4,71.63,0-3.53-10.13-18.51-15.65-28s-10.8-36.6-10.8-36.6c-11.24,32.19-45,44.53-45,44.53,9-17.86,3.89-39.9,3.89-39.9S78.14,106,55.17,160.88c0,0-13.15-34.62,5-64.37l.93-1.46v0A68.44,68.44,0,0,1,77.28,77.5a65.29,65.29,0,0,1,31.28-13"/><path id="パス_1147" data-name="パス 1147" class="cls-2" d="M55.17,162.64h0a1.75,1.75,0,0,1-1.62-1.13C53,160.06,40.28,125.74,58.7,95.6c.3-.48.58-.94.88-1.4l.07-.12a70.51,70.51,0,0,1,16.55-18,66.59,66.59,0,0,1,32.21-13.4,1.74,1.74,0,0,1,1.89,1.59v0a1.76,1.76,0,0,1-1.62,1.89A64.3,64.3,0,0,0,78.34,78.89a66.9,66.9,0,0,0-15.65,17L62.6,96l-.9,1.42c-13.74,22.49-9,48.19-6.25,58.35,22.74-51.1,51.33-60.57,52.57-60.95A1.76,1.76,0,0,1,110.23,96l0,.13c.2.86,4.42,19.64-2.17,36.86,9.17-4.4,31.38-17.23,39.92-41.67a1.73,1.73,0,0,1,1.79-1.18,1.76,1.76,0,0,1,1.6,1.42c.06.27,5.3,26.95,10.6,36.05,1.55,2.66,3.43,5.71,5.43,8.94,4,6.45,7,11.42,8.76,14.95,2.88-8.84,7.43-31.6-5.68-66a1.76,1.76,0,1,1,3.29-1.25h0c17.72,46.5,4.44,72,3.87,73.09a1.77,1.77,0,0,1-3.32-.84c0-2-6-11.68-9.92-18.07-2-3.25-3.91-6.32-5.48-9-4.07-7-7.92-22.84-9.81-31.42-12.95,28.52-42.55,39.64-43.88,40.12a1.76,1.76,0,0,1-2.18-2.45c7-14,5.1-30.89,4.13-36.66-6.86,3.12-31.32,17-50.41,62.6A1.77,1.77,0,0,1,55.17,162.64Z"/></g><g id="グループ_370" data-name="グループ 370"><path id="パス_1151" data-name="パス 1151" class="cls-9" d="M112.75,163.75c-3.76,1.23-6.38.68-4.7-1.88s2.87-2.41,5.29-2.3,5.52,3,3.85,4.29S114.15,163.29,112.75,163.75Z"/></g><g id="グループ_371" data-name="グループ 371"><ellipse id="楕円形_27" data-name="楕円形 27" class="cls-2" cx="112.43" cy="164.2" rx="1.04" ry="1.15"/></g><g id="グループ_383" data-name="グループ 383"><g id="グループ_381" data-name="グループ 381"><g id="グループ_379" data-name="グループ 379"><g id="グループ_376" data-name="グループ 376"><path id="パス_1156" data-name="パス 1156" class="cls-2" d="M162.83,152.52a1.58,1.58,0,0,1-.81-2.93,11.59,11.59,0,0,0,4.4-7.17,8.81,8.81,0,0,0-1.3-7.32,11.66,11.66,0,0,0-8.9-4.13c-9.23-.73-15.15.49-25.9,9.66a1.57,1.57,0,1,1-2-2.4h0c11.53-9.83,18.28-11.18,28.19-10.4,6.35.5,9.59,3.22,11.19,5.41a12.06,12.06,0,0,1,1.82,9.89,14.64,14.64,0,0,1-5.83,9.15A1.51,1.51,0,0,1,162.83,152.52Z"/></g><g id="グループ_377" data-name="グループ 377"><path id="パス_1157" data-name="パス 1157" class="cls-2" d="M152.6,129.14s4.33-2.56,5.36-5a.35.35,0,0,1,.46-.21.48.48,0,0,1,.16.12,5.46,5.46,0,0,1,1,5.82Z"/></g><g id="グループ_378" data-name="グループ 378"><path id="パス_1158" data-name="パス 1158" class="cls-2" d="M164,131.84a12.43,12.43,0,0,0,4.45-2.81.56.56,0,0,1,.78-.13.53.53,0,0,1,.19.26c.83,2.34,2.21,7.85-1.12,12.14Z"/></g></g><g id="グループ_380" data-name="グループ 380"><ellipse id="楕円形_28" data-name="楕円形 28" class="cls-2" cx="142.76" cy="148.3" rx="11.95" ry="16.08"/><path id="パス_1159" data-name="パス 1159" class="cls-2" d="M142.76,166.14c-7.56,0-13.71-8-13.71-17.84s6.15-17.85,13.71-17.85,13.71,8,13.71,17.85S150.32,166.14,142.76,166.14Zm0-32.16c-5.62,0-10.19,6.42-10.19,14.32s4.57,14.31,10.19,14.31S153,156.19,153,148.3,148.38,134,142.76,134Z"/></g></g><g id="グループ_382" data-name="グループ 382"><ellipse id="楕円形_29" data-name="楕円形 29" class="cls-10" cx="142.76" cy="148.3" rx="3.67" ry="6.29"/></g></g><g id="グループ_391" data-name="グループ 391"><g id="グループ_388" data-name="グループ 388"><g id="グループ_385" data-name="グループ 385"><path id="パス_1161" data-name="パス 1161" class="cls-2" d="M62.45,152.51a1.57,1.57,0,0,1-.81-.22,14.69,14.69,0,0,1-5.83-9.16,12.06,12.06,0,0,1,1.83-9.89c1.6-2.19,4.84-4.91,11.18-5.41,9.93-.78,16.67.57,28.2,10.4a1.57,1.57,0,0,1-2,2.4c-10.75-9.17-16.68-10.4-25.91-9.66a11.66,11.66,0,0,0-8.89,4.12,8.84,8.84,0,0,0-1.31,7.33,11.61,11.61,0,0,0,4.41,7.18,1.57,1.57,0,0,1,.5,2.17,1.54,1.54,0,0,1-1.34.74Z"/></g><g id="グループ_386" data-name="グループ 386"><path id="パス_1162" data-name="パス 1162" class="cls-2" d="M72.69,129.14s-4.33-2.56-5.36-5a.37.37,0,0,0-.63-.09,5.46,5.46,0,0,0-1,5.82Z"/></g><g id="グループ_387" data-name="グループ 387"><path id="パス_1163" data-name="パス 1163" class="cls-2" d="M61.33,131.84A12.43,12.43,0,0,1,56.88,129a.56.56,0,0,0-.78-.13.53.53,0,0,0-.19.26C55.08,131.5,53.7,137,57,141.3Z"/></g></g><g id="グループ_389" data-name="グループ 389"><ellipse id="楕円形_30" data-name="楕円形 30" class="cls-2" cx="82.53" cy="148.3" rx="11.95" ry="16.08"/><path id="パス_1164" data-name="パス 1164" class="cls-2" d="M82.53,166.14c-7.56,0-13.71-8-13.71-17.84S75,130.45,82.53,130.45s13.72,8,13.72,17.85S90.09,166.14,82.53,166.14Zm0-32.16c-5.61,0-10.19,6.42-10.19,14.32s4.58,14.31,10.19,14.31,10.19-6.42,10.19-14.31S88.15,134,82.53,134Z"/></g><g id="グループ_390" data-name="グループ 390"><ellipse id="楕円形_31" data-name="楕円形 31" class="cls-10" cx="82.53" cy="148.3" rx="3.67" ry="6.29"/></g></g><g id="グループ_392" data-name="グループ 392"><path id="パス_1165" data-name="パス 1165" class="cls-11" d="M82.08,91.92c-1.86,7-8.13,11.38-14,9.8a10.36,10.36,0,0,1-6.94-6.67h0A68.44,68.44,0,0,1,77.28,77.5,12.84,12.84,0,0,1,82.08,91.92Z"/></g><g id="グループ_393" data-name="グループ 393"><ellipse id="楕円形_32" data-name="楕円形 32" class="cls-11" cx="83.82" cy="95.26" rx="5.45" ry="4.58" transform="translate(-29.83 151.68) rotate(-75.06)"/></g><g id="グループ_394" data-name="グループ 394"><path id="パス_1166" data-name="パス 1166" class="cls-11" d="M192.36,109.56a4.43,4.43,0,0,1-2.11.53,6,6,0,0,1,0-11.8,4.2,4.2,0,0,1,1.27.19A91.19,91.19,0,0,1,192.36,109.56Z"/></g><g id="グループ_395" data-name="グループ 395"><ellipse id="楕円形_33" data-name="楕円形 33" class="cls-11" cx="179.96" cy="104.58" rx="3.14" ry="2.57" transform="translate(-27.02 82.63) rotate(-24.11)"/></g><g id="グループ_396" data-name="グループ 396"><path id="パス_1167" data-name="パス 1167" class="cls-2" d="M53.48,194.74A1.75,1.75,0,0,1,51.72,193a1.79,1.79,0,0,1,.26-.93c5.59-9.12,2.15-26.18,2.11-26.35a1.76,1.76,0,0,1,3.45-.72c.16.76,3.78,18.6-2.56,28.92A1.77,1.77,0,0,1,53.48,194.74Z"/></g><g id="グループ_397" data-name="グループ 397"><path id="パス_1168" data-name="パス 1168" class="cls-2" d="M104.66,138.17a1.77,1.77,0,0,1-1.08-3.15c25-19.52,24-43.11,24-43.35a1.76,1.76,0,0,1,3.52-.21c.06,1,1.27,25.63-25.3,46.35A1.78,1.78,0,0,1,104.66,138.17Z"/></g><g id="グループ_401" data-name="グループ 401"><ellipse id="楕円形_34" data-name="楕円形 34" class="cls-9" cx="72.65" cy="176.79" rx="7.97" ry="3.8"/></g><g id="グループ_402" data-name="グループ 402"><ellipse id="楕円形_35" data-name="楕円形 35" class="cls-9" cx="153.3" cy="176.79" rx="7.97" ry="3.8"/></g><path class="cls-12" d="M118.37,183a6.65,6.65,0,0,0-11.54,0"/><path class="cls-3" d="M71.5,117.12A84.94,84.94,0,0,1,85,122.89c7.3,4,14,7.88,14,7.88a61.35,61.35,0,0,1-14.43-4.84A54.92,54.92,0,0,1,71.5,117.12Z"/><path class="cls-3" d="M152.89,117.12a84.63,84.63,0,0,0-13.53,5.77c-7.31,4-14,7.88-14,7.88a61.49,61.49,0,0,0,14.44-4.84A54.73,54.73,0,0,0,152.89,117.12Z"/><path class="cls-13" d="M56.54,47.54V36.42S82,19.73,52.43,9C40.6-10.25,16.11,12.55,27.51,22.48,22.23,37.05,35.6,45.83,48,39.58A102.1,102.1,0,0,1,56.54,47.54Z"/><path class="cls-13" d="M38.28,70.54l-5.43-6.79S40.25,41.17,17,49C.38,43-3.46,68.9,8.34,69.4c3.88,11.47,16.32,10.31,20.84.45A80.86,80.86,0,0,1,38.28,70.54Z"/></g></g></g></svg>