<svg xmlns="http://www.w3.org/2000/svg" viewBox="0 0 203.74 604.88"><defs><style>.cls-1{fill:#535353;}.cls-2{fill:#000333;}.cls-3{fill:#000931;}.cls-4{fill:#5b2c2b;}.cls-5{fill:#397c71;}.cls-6{fill:#ffedd9;}.cls-7{fill:#1e1e1e;}.cls-8{fill:#236c60;}.cls-9{fill:#ffbdad;}.cls-10{fill:#fff;}.cls-11{fill:#868686;}</style></defs><title>girl_normal</title><g id="レイヤー_2" data-name="レイヤー 2"><g id="_女_表情パターン" data-name="【女】表情パターン"><g id="ノーマル"><g id="グループ_335" data-name="グループ 335"><path id="パス_1098" data-name="パス 1098" class="cls-1" d="M179,112.06s-2,16.81,6,20.62c0,0-16.62,7.48-18.28-6.62S179,112.06,179,112.06Z"/><path id="パス_1099" data-name="パス 1099" class="cls-2" d="M176.17,136.42a12.12,12.12,0,0,1-6-1.42,10.78,10.78,0,0,1-5.11-8.73A13.92,13.92,0,0,1,168,114.91,16,16,0,0,1,179,110.3a1.77,1.77,0,0,1,1.75,1.78,1.1,1.1,0,0,1,0,.18c-.5,4.33-.57,16.15,5,18.82a1.76,1.76,0,0,1,0,3.2A26.5,26.5,0,0,1,176.17,136.42Zm1-22.4a11.27,11.27,0,0,0-6.52,3.26,10.61,10.61,0,0,0-2.06,8.58,7.39,7.39,0,0,0,3.35,6.08c2.67,1.51,6.63,1,9.52.17-4.4-4.82-4.51-13.92-4.29-18.09Z"/></g><g id="グループ_336" data-name="グループ 336"><path id="パス_1100" data-name="パス 1100" class="cls-1" d="M56,22.21S27,58.63,5.81,53.67c0,0,19.48,13.22,41.81-7.27S56,22.21,56,22.21Z"/><path id="パス_1101" data-name="パス 1101" class="cls-2" d="M21.44,59.57A32.26,32.26,0,0,1,4.82,55.13,1.76,1.76,0,0,1,6.21,52a16,16,0,0,0,3.78.42c19.46,0,44.35-30.93,44.62-31.26a1.77,1.77,0,0,1,1.83-.6,7.84,7.84,0,0,1,5.38,5.43c1.31,5.3-3.07,12.62-13,21.75S29.11,59.57,21.44,59.57ZM14.72,55.4c7.32,1.69,18.94,1.41,31.7-10.3C58.13,34.35,59,29,58.41,26.79a4,4,0,0,0-1.89-2.43C52.19,29.59,32.82,51.79,14.72,55.4Z"/></g><g id="グループ_340" data-name="グループ 340"><path id="パス_1107" data-name="パス 1107" class="cls-1" d="M180.28,107.88c-9.69,33.94-25.11,48.92-14.54,80.66s-57.16,58.18-57.16,58.18L27.35,204c-2.21-22.92-.88-28.6,3.07-42.07s6.18-36.83,1.77-55.34S24.7,52.35,50.27,25s69.64-30,103.13-10.58c18.9,11,28.13,28.5,30.83,47.81a89.23,89.23,0,0,1,.84,11.08A118.8,118.8,0,0,1,180.28,107.88Z"/><path id="パス_1108" data-name="パス 1108" class="cls-2" d="M108.58,248.48a1.67,1.67,0,0,1-.82-.21L26.53,205.53a1.77,1.77,0,0,1-.94-1.4c-2.21-23-.92-28.91,3.15-42.73s5.94-36.8,1.74-54.44c-3.62-15.19-9-53.69,18.5-83.15,25.27-27,69.56-31.59,105.31-10.9C172,23.14,182.92,40.12,186,62a93,93,0,0,1,.87,11.3A121.29,121.29,0,0,1,182,108.36a259.76,259.76,0,0,1-9.13,25.7c-7.4,18.55-12.75,32-5.43,53.91,4.6,13.81-4.14,28.68-25.3,43a192.17,192.17,0,0,1-32.9,17.37A1.74,1.74,0,0,1,108.58,248.48ZM29,202.86l79.66,41.92c7.24-3,64.75-27.62,55.4-55.68-7.73-23.18-1.89-37.81,5.5-56.33a258.2,258.2,0,0,0,9-25.37h0a117.67,117.67,0,0,0,4.72-34,90.09,90.09,0,0,0-.84-10.88C179.58,41.73,169.22,25.65,152.52,16,118.17-3.91,75.71.4,51.55,26.23,25.16,54.44,30.42,91.52,33.9,106.15c4.54,19.08,2.26,42.54-1.79,56.26C28.17,175.84,27,181.26,29,202.85Z"/></g><g id="体"><path class="cls-3" d="M46.87,350.84s9.17,76.8,11.14,98c1.85,20,17.22,131.41,17.22,131.41H97.36l8.74-186.29.33,3V346.85Z"/><path class="cls-3" d="M166.25,350.84s-9.18,76.8-11.14,98c-1.86,20-17.22,131.41-17.22,131.41H115.76L107,393.91l-.32,3V346.85Z"/><path class="cls-4" d="M36,604.88H95a4.3,4.3,0,0,0,4.3-4.3V578.79l-41.8-4.16q-1.22-.12-2.43-.12h0a27.16,27.16,0,0,0-24.47,15.37l-1.75,3.64A7.93,7.93,0,0,0,36,604.88Z"/><path class="cls-4" d="M176.48,604.88h-59a4.3,4.3,0,0,1-4.31-4.3V578.79l41.8-4.16c.81-.08,1.62-.12,2.44-.12h0a27.13,27.13,0,0,1,24.46,15.37l1.75,3.64A7.92,7.92,0,0,1,176.48,604.88Z"/><g id="グループ_337" data-name="グループ 337"><path id="パス_1102" data-name="パス 1102" class="cls-5" d="M11.84,322.69S10,330.07,14.65,331s21.27,0,21.27,0l9.58-14.33-12.56-2.42Z"/><path id="パス_1103" data-name="パス 1103" class="cls-2" d="M22.32,333.11a51,51,0,0,1-8-.42,5.18,5.18,0,0,1-3.46-2.31c-1.91-3-.85-7.59-.73-8.1a1.81,1.81,0,0,1,1-1.22l21.11-8.49a1.71,1.71,0,0,1,1-.09l12.56,2.42a1.77,1.77,0,0,1,1.4,2.06,2,2,0,0,1-.27.65L37.4,331.93a1.75,1.75,0,0,1-1.37.78C35.57,332.74,28.51,333.11,22.32,333.11ZM13.4,324a7.39,7.39,0,0,0,.43,4.5,1.64,1.64,0,0,0,1.16.76,147.72,147.72,0,0,0,20,0l7.62-11.38L33.13,316Z"/></g><g id="グループ_338" data-name="グループ 338"><path id="パス_1104" data-name="パス 1104" class="cls-6" d="M25.89,331.31S21.1,360,34.16,360.88l2.26-21,7.16,9.75,6.19-28.84Z"/><path id="パス_1105" data-name="パス 1105" class="cls-2" d="M34.16,362.63h-.11a9.05,9.05,0,0,1-6.79-3.58c-6.36-8-3.24-27.22-3.1-28a1.73,1.73,0,0,1,1-1.32l23.88-10.52a1.78,1.78,0,0,1,2.33.91,1.82,1.82,0,0,1,.11,1.08L45.3,350a1.76,1.76,0,0,1-3.14.67l-4.48-6.09-1.77,16.48A1.76,1.76,0,0,1,34.16,362.63Zm-6.67-30.1c-.83,5.77-1.69,19,2.53,24.33a5.76,5.76,0,0,0,2.59,1.92l2.06-19.08a1.77,1.77,0,0,1,3.17-.86l4.84,6.59,4.64-21.62Z"/></g><g id="グループ_341" data-name="グループ 341"><path id="パス_1109" data-name="パス 1109" class="cls-7" d="M59.7,165.26c8.51-7.11,17.85-14.63,23.63-14.14S96.64,158.31,97,164.51,82.49,175.09,76.3,176.26,53.82,185.43,53.74,178A18.56,18.56,0,0,1,59.7,165.26Z"/><path id="パス_1110" data-name="パス 1110" class="cls-2" d="M57.74,182.87a6.59,6.59,0,0,1-3.91-1A4.52,4.52,0,0,1,52,178a20.22,20.22,0,0,1,6.55-14.07l0,0c9.91-8.28,18.61-15.1,24.92-14.54s14.85,7.74,15.24,15c.49,9.24-21.87,13.52-22.1,13.56a55.25,55.25,0,0,0-6.13,1.83A46.36,46.36,0,0,1,57.74,182.87Zm3.11-16.28A16.87,16.87,0,0,0,55.51,178c0,.76.26.94.37,1,1.89,1.36,9.16-1.07,13.51-2.51a57.49,57.49,0,0,1,6.6-2c8-1.49,19.43-5.87,19.22-9.91-.29-5.33-7.24-11.32-12-11.72-5.35-.43-15.56,8.06-22.33,13.71Z"/></g><g id="グループ_343" data-name="グループ 343"><path id="パス_1112" data-name="パス 1112" class="cls-5" d="M156,176.47a39.18,39.18,0,0,1,8.07,3.19c1.4,1.22,5.15,17.3,4,27.66S170.88,327,170.88,327s1.56,16.83-11.5,18.6-95.62-6.53-95.62-6.53S36.32,320.32,35,301s3.76-81.16,3.76-81.16l13.42-36.59,22.48-6.82Z"/><path id="パス_1113" data-name="パス 1113" class="cls-2" d="M153.77,346.42c-22.3,0-87-6.47-90.08-6.78a.52.52,0,0,1-.27-.1c-1.13-.77-27.69-19.11-29-38.46-1.31-19.11,3.71-80.62,3.76-81.24a.45.45,0,0,1,0-.16l13.43-36.59a.61.61,0,0,1,.39-.36l22.47-6.82a.52.52,0,0,1,.17,0H156l.17,0a37.65,37.65,0,0,1,8.3,3.31c1.61,1.41,5.36,17.68,4.24,28.17-1.08,10.2,2.75,118.49,2.79,119.58a27,27,0,0,1-.88,8.81c-1.69,6-5.54,9.63-11.13,10.38A45.07,45.07,0,0,1,153.77,346.42ZM64,338.49c4,.4,82.76,8.22,95.34,6.51,12.36-1.67,11-17.79,11-18-.17-4.5-3.88-109.5-2.79-119.78,1.12-10.5-2.81-26.21-3.85-27.16a36,36,0,0,0-7.77-3H74.73l-22.11,6.71L39.33,220c-.21,2.55-5,62.29-3.75,81C36.81,319.13,62,337.1,64,338.48Z"/></g><g id="グループ_345" data-name="グループ 345"><path id="パス_1115" data-name="パス 1115" class="cls-5" d="M191.79,328.09c1.32,4.85.22,8.93-1.54,10.25A38.52,38.52,0,0,1,168,342.19c-9.92-1.54-8.6-8.82-8.6-8.82l13.22-16.52Z"/><path id="パス_1116" data-name="パス 1116" class="cls-2" d="M172.64,344.3a33.05,33.05,0,0,1-4.87-.36,12.28,12.28,0,0,1-8.52-4.55,9,9,0,0,1-1.54-6.33,1.77,1.77,0,0,1,.35-.79l13.23-16.52a1.75,1.75,0,0,1,2.27-.42l19.12,11.24a1.8,1.8,0,0,1,.81,1c1.37,5,.45,10.15-2.19,12.13A39.87,39.87,0,0,1,172.64,344.3Zm-11.49-10.23a5.39,5.39,0,0,0,1,3.32,8.92,8.92,0,0,0,6.15,3.06,37.25,37.25,0,0,0,20.88-3.52c.87-.66,2-3.54,1.07-7.7l-17.17-10.09Z"/></g><g id="グループ_346" data-name="グループ 346"><path id="パス_1117" data-name="パス 1117" class="cls-6" d="M184.91,339.19s-5.14,33.76-14.06,34.08c-2.37.09,3.71-20.1,2.4-24.87-.75-2.75-4.8,10.24-5.83,8-3.9-8.7-5.83-29.36-5.83-29.36Z"/><path id="パス_1118" data-name="パス 1118" class="cls-2" d="M170.83,375a2.11,2.11,0,0,1-1.61-.74c-1.17-1.37-.78-4.1.75-12.22.44-2.34,1-5.11,1.32-7.55-1.26,2.57-2.1,3.87-3.56,3.87h0a2.12,2.12,0,0,1-1.89-1.32c-4-8.86-5.89-29.06-6-29.91a1.77,1.77,0,0,1,2.57-1.73l23.32,12.19a1.77,1.77,0,0,1,.93,1.83c-.89,5.87-5.86,35.22-15.74,35.58Zm2.08-28.78h.21a2.1,2.1,0,0,1,1.84,1.68c.7,2.55-.15,7.51-1.52,14.79-.52,2.79-1.2,6.36-1.35,8.34,4.51-2.88,8.95-19.06,10.9-30.9l-19.28-10.08a136.22,136.22,0,0,0,4.36,23c.29-.59.58-1.2.81-1.68C170.46,348,171.3,346.25,172.91,346.25Z"/></g><g id="グループ_348" data-name="グループ 348"><path id="パス_1120" data-name="パス 1120" class="cls-5" d="M166.5,188.81C177.62,205,177,220.22,178,237.73s0,37.91,24,73.61c0,0,.33,4.85-5.79,10.14s-4.79,7.93-8.31,7.93-21.38-.88-21.38-.88l-28.27-18.07V247l3.3-23.86"/><path id="パス_1121" data-name="パス 1121" class="cls-2" d="M187.87,331.17c-3.53,0-20.73-.84-21.46-.88a1.75,1.75,0,0,1-.86-.28l-28.27-18.07a1.74,1.74,0,0,1-.81-1.48V247a1.93,1.93,0,0,1,0-.24l3.3-23.86a1.76,1.76,0,0,1,3.5.43v.05L140,247.11v62.38l27.06,17.3c2.83.14,17.69.86,20.82.86.92,0,.95,0,1.91-1.48a26.11,26.11,0,0,1,5.26-6,13.1,13.1,0,0,0,5.16-8.29c-22.07-33-23-53.36-23.79-69.76q-.1-2.16-.21-4.26c-.12-2-.21-4.05-.3-6-.7-15.07-1.3-28.08-10.85-42a1.76,1.76,0,1,1,2.82-2.12.83.83,0,0,1,.08.12c10.12,14.73,10.78,28.86,11.47,43.82.09,2,.18,4,.3,6q.12,2.12.21,4.29c.79,16.88,1.68,36,23.51,68.43a1.8,1.8,0,0,1,.29.87c0,.23.32,5.79-6.39,11.59a22.62,22.62,0,0,0-4.61,5.29A5.18,5.18,0,0,1,187.87,331.17Z"/></g><g id="グループ_349" data-name="グループ 349"><path id="パス_1122" data-name="パス 1122" class="cls-5" d="M67,216.79l-3.77,22.6V296.9s-25.46,21.16-28.6,23.64-19.34,2.81-22.81,2.15S1.76,310.46,1.76,310.46c7.61-6.95,13.89-27.77,15.21-54.21s10.67-57.17,22.21-66.6l16-3.49,9.52,11.57"/><path id="パス_1123" data-name="パス 1123" class="cls-2" d="M17.56,324.74a42.23,42.23,0,0,1-6-.32c-4-.75-9.64-10.21-11.28-13.09a1.77,1.77,0,0,1,.34-2.17c7.51-6.86,13.4-28.16,14.64-53,1.26-25.22,10.15-57.5,22.86-67.87a1.81,1.81,0,0,1,.74-.35l16-3.49a1.77,1.77,0,0,1,1.74.6l9.52,11.57a1.77,1.77,0,0,1-2.73,2.24l-8.83-10.74L40,191.29c-10.39,8.91-19.88,37.9-21.24,65-1.26,25-7,46.05-14.76,54.41,3.18,5.32,6.88,10,8.2,10.21,6.24,1.19,20-.67,21.39-1.8,2.82-2.22,24-19.79,27.93-23.08V239.39a1.37,1.37,0,0,1,0-.29l3.77-22.6a1.77,1.77,0,0,1,3.48.58L65,239.53V296.9a1.77,1.77,0,0,1-.63,1.36c-1,.87-25.5,21.2-28.63,23.66C33,324.07,23.93,324.74,17.56,324.74Z"/></g><g id="グループ_350" data-name="グループ 350"><path id="パス_1124" data-name="パス 1124" class="cls-5" d="M45.51,338.23c-3.91,3.14-7.55,14,1.21,17.35s8.76,1,25.62,3.8,46,2.31,59.83,1.49,35.86-.66,37.93-7.44-.21-11.15-4-11-54.21-4.18-54.21-4.18l-59.67-1.15Z"/><path id="パス_1125" data-name="パス 1125" class="cls-2" d="M108.26,362.11a242.43,242.43,0,0,1-36-2.15,118.43,118.43,0,0,0-14.79-1.65,29.76,29.76,0,0,1-10.94-2.18,8.26,8.26,0,0,1-5.66-6.67,13.91,13.91,0,0,1,4.28-11.7.61.61,0,0,1,.27-.12l6.66-1.15,59.78,1.14c.54.05,50.45,4.33,54.18,4.18a4.79,4.79,0,0,1,4,1.89c1.65,2.16,1.88,5.77.63,9.9-1.89,6.18-17.83,6.9-31.88,7.53-2.31.1-4.53.21-6.58.33C125.92,361.83,117.33,362.11,108.26,362.11Zm-62.5-23.33A12.89,12.89,0,0,0,42,349.28,7.11,7.11,0,0,0,46.93,355a28.53,28.53,0,0,0,10.6,2.1,118.49,118.49,0,0,1,14.91,1.67c16.33,2.72,44.65,2.37,59.7,1.48,2.05-.12,4.28-.23,6.6-.33,12.31-.56,29.17-1.32,30.81-6.7,1.15-3.76,1-7-.44-8.84a3.44,3.44,0,0,0-3-1.43c-3.79.12-52.22-4-54.28-4.18l-59.63-1.15Z"/></g><g id="グループ_351" data-name="グループ 351"><path id="パス_1126" data-name="パス 1126" class="cls-8" d="M58.92,277.91c0,12.26,1.07,23.29-4.76,23.29s-16.36-11-16.36-23.29c0-4.92-.48-13.08.81-16.76,1.92-5.5,6.25-5.45,9.75-5.45C54.19,255.7,58.92,265.64,58.92,277.91Z"/></g><g id="グループ_352" data-name="グループ 352"><path id="パス_1127" data-name="パス 1127" class="cls-8" d="M165.69,287c0,12.26-4.72,22.21-10.55,22.21s-10.55-9.95-10.55-22.21,4.72-22.21,10.55-22.21c4,0,8.77-.56,10.55,6.34C166.51,274.28,165.69,283.14,165.69,287Z"/></g><g id="グループ_353" data-name="グループ 353"><path id="パス_1128" data-name="パス 1128" class="cls-6" d="M56.75,177.57S78.45,167,91.56,167.11s43.09,3.74,46.39,6.27-24.27,41.15-34.86,38.7-43.81-23.93-43.81-23.93Z"/><path id="パス_1129" data-name="パス 1129" class="cls-2" d="M104,214a5.94,5.94,0,0,1-1.32-.15c-10.76-2.49-43-23.29-44.37-24.17a1.8,1.8,0,0,1-.76-1.07L55,178a1.76,1.76,0,0,1,.95-2c.89-.44,22-10.64,35.4-10.64h.19c12,.09,43.41,3.54,47.46,6.63,1.74,1.34.81,4-.32,6.38C134.26,187.8,114.76,214,104,214Zm-43.18-26.9c4.5,2.88,33.25,21.14,42.66,23.32.88.2,3.56.16,9.25-4.62,11.23-9.45,22.92-27.36,23.69-31.22-4.57-2.09-31.63-5.55-44.88-5.64h-.17c-10.78,0-27.81,7.48-32.58,9.67Z"/></g><g id="グループ_354" data-name="グループ 354"><path id="パス_1130" data-name="パス 1130" class="cls-5" d="M151.21,212.4c10.58,5.62,16.42,25,9,48.78-1.24,4-3.55,2.95-6.29,13.72-1.41,5.55,1.65,14.52,4,24.1,2.18,9,9.94,23.59,10,23.78a19.1,19.1,0,0,1-1.87,19.62c-4,5.83-34.38,5.75-59.62,6.09s-53.77-6.09-53.77-6.09-10.91-2.51-13.46-16.35,3.75-14.39,8.31-28.48c3-9.29,4.53-18,1.41-28.75-1.62-5.59.11,1.2-3.42-7.68-4.92-12.37-7.18-45.65,8.24-50.52"/><path id="パス_1131" data-name="パス 1131" class="cls-2" d="M104.57,350.26a281.19,281.19,0,0,1-52.29-6.14c-.5-.11-12.08-2.95-14.81-17.75A22.51,22.51,0,0,1,40.8,308a53.87,53.87,0,0,0,5-11c3-9.21,4.36-17.45,1.39-27.72-.1-.36-.38-1.3-.55-1.81a17.75,17.75,0,0,1-2.81-5.7c-4-10-6-31.55-.16-43.8A16,16,0,0,1,53.22,209a1.76,1.76,0,0,1,1.06,3.35,12.6,12.6,0,0,0-7.39,7.21c-5.33,11.22-3.41,31.77.25,41a42.14,42.14,0,0,0,1.89,4.3c.69.41.91,1.19,1.6,3.54C54,280.12,52,289.61,49.2,298.11a57.65,57.65,0,0,1-5.33,11.66c-2.77,4.87-4.44,7.81-2.93,16,2.3,12.55,12,14.93,12.12,14.95.27.06,28.66,6.36,53.35,6l5.42-.07c20.93-.24,49.6-.58,52.76-5.24a17.26,17.26,0,0,0,1.71-17.93l-.1-.18c-2.39-4.62-8.15-16.2-10-23.89-.46-1.9-.95-3.77-1.43-5.62-2-7.76-3.78-14.44-2.54-19.33,1.83-7.18,3.57-9.48,4.83-11.16a7.72,7.72,0,0,0,1.47-2.64c7.34-23.62,1.27-41.69-8.16-46.7a1.76,1.76,0,1,1,1.65-3.12h0c5.87,3.13,10.19,9.78,12.15,18.76a63.64,63.64,0,0,1-2.28,32.1,11,11,0,0,1-2,3.72c-1.15,1.52-2.58,3.41-4.23,9.91-1,4,.71,10.59,2.52,17.57.48,1.85,1,3.75,1.45,5.68,1.77,7.31,7.39,18.59,9.72,23.1a4.17,4.17,0,0,0,.21.4,20.73,20.73,0,0,1-2,21.31c-3.9,5.75-24.56,6.42-55.64,6.78l-5.41.07C105.83,350.24,105.2,350.26,104.57,350.26Z"/></g><g id="グループ_355" data-name="グループ 355"><path id="パス_1132" data-name="パス 1132" class="cls-5" d="M105,212.39s32.28-33.71,31.29-36.8S130.13,169,118,169.2l-4.35-4a71.19,71.19,0,0,1,8-3.06c6.57-2.27,22.45-6.64,26.69-4.65a15.12,15.12,0,0,1,8,10.8c.66,4.19,3.08,4,4.4,6.61s2.65,7.21,0,9.77-11.9,5.43-16.75,9.18S118.45,212.83,105,212.39Z"/><path id="パス_1133" data-name="パス 1133" class="cls-2" d="M105.57,214.17c-.21,0-.42,0-.62,0a1.76,1.76,0,0,1-1.22-3c14.29-14.92,29.44-31.95,30.77-35.35-1-2-5.35-5.08-16.46-4.86a1.79,1.79,0,0,1-1.23-.46l-4.35-4a1.76,1.76,0,0,1-.11-2.49,1.63,1.63,0,0,1,.46-.36,72.11,72.11,0,0,1,8.28-3.18c.21-.07,21.9-7.44,28-4.58a16.94,16.94,0,0,1,9,12.12,4.57,4.57,0,0,0,1.93,3.33,8.58,8.58,0,0,1,2.31,2.77c.91,1.81,3.57,8-.35,11.82a31.7,31.7,0,0,1-7.76,4.36,52.42,52.42,0,0,0-9.14,5C141,198.46,119.92,214.17,105.57,214.17Zm13.54-46.75c15.22,0,18.29,5.81,18.87,7.63.44,1.36.93,2.89-15.64,21.28-4.85,5.37-9.77,10.64-12.87,13.92,13.35-2.47,31.26-16.06,33.47-17.77a54.29,54.29,0,0,1,9.81-5.36,32.55,32.55,0,0,0,6.79-3.68c1.75-1.7.9-5.22-.35-7.73a5.22,5.22,0,0,0-1.47-1.67,8,8,0,0,1-3.1-5.45,13.44,13.44,0,0,0-7-9.47c-3.09-1.44-16.86,1.77-25.38,4.72-2.46.85-4.19,1.49-5.37,1.95l1.8,1.64Z"/></g><g id="グループ_356" data-name="グループ 356"><path id="パス_1134" data-name="パス 1134" class="cls-5" d="M61.64,149.47c-16.36,5-16.57,10.47-18.78,14s-7.27,12.79-6.61,17.85,2.64,9.47,5.73,10.58,6.39,0,13.22,3.08S104,212.39,104,212.39s-47.25-32.62-47.25-34.82.89-5.28,2.87-5.94a10.55,10.55,0,0,0,7.27-5.52,19.34,19.34,0,0,1,9.59-8.36c2.09-.45-6.38-8.27-6.38-8.27Z"/><path id="パス_1135" data-name="パス 1135" class="cls-2" d="M104,214.16a1.8,1.8,0,0,1-.57-.1c-1.72-.58-42.11-14.39-48.94-17.47a25,25,0,0,0-9-2.31,16,16,0,0,1-4.06-.73c-3.5-1.25-6.07-5.74-6.89-12-.84-6.46,6.08-17.75,6.87-19,.29-.47.56-1,.85-1.6,1.83-3.69,4.33-8.73,18.9-13.15a1.81,1.81,0,0,1,.51-.08H70.1a1.75,1.75,0,0,1,1.19.47c7.88,7.28,7.42,9,7.2,9.77a2.11,2.11,0,0,1-1.65,1.52,18.1,18.1,0,0,0-8.32,7.32,11.92,11.92,0,0,1-8.1,6.43l-.25.08c-.79.26-1.52,2-1.64,3.8,3.12,3.43,29.86,22.37,46.47,33.84a1.78,1.78,0,0,1,.45,2.46,1.8,1.8,0,0,1-1.46.76ZM61.9,151.24c-12.9,4-14.9,8-16.52,11.27-.33.66-.63,1.28-1,1.9-2.45,3.91-6.92,12.42-6.36,16.69.63,4.78,2.42,8.37,4.57,9.14a13,13,0,0,0,3.21.54,28.87,28.87,0,0,1,10.15,2.6c4.38,2,23.73,8.76,36.67,13.23-3.95-2.76-8.62-6.05-13.26-9.36C55,179.86,55,178.85,55,177.58c0-3,1.28-6.7,4.07-7.63l.26-.08a8.63,8.63,0,0,0,5.94-4.43,21.15,21.15,0,0,1,9.23-8.8,54.07,54.07,0,0,0-5.08-5.4Z"/></g><g id="グループ_357" data-name="グループ 357"><path id="パス_1136" data-name="パス 1136" class="cls-9" d="M117.35,174.71s-4,2.3-13.11,2.3-11.74-2.3-11.74-2.3v-13h24.84Z"/></g><g id="グループ_360" data-name="グループ 360"><path id="パス_1140" data-name="パス 1140" class="cls-2" d="M94.58,186.5a1.19,1.19,0,0,1-.56-.14l-9.35-5a1.18,1.18,0,0,1,1.12-2.08h0l9.34,5a1.18,1.18,0,0,1,.49,1.59,1.16,1.16,0,0,1-1,.62Z"/></g><g id="グループ_361" data-name="グループ 361"><path id="パス_1141" data-name="パス 1141" class="cls-2" d="M113.66,186.5a1.19,1.19,0,0,1-1.18-1.17,1.17,1.17,0,0,1,.62-1l9.36-5a1.17,1.17,0,1,1,1.11,2.07h0l-9.35,5A1.19,1.19,0,0,1,113.66,186.5Z"/></g><g id="グループ_362" data-name="グループ 362"><path id="パス_1142" data-name="パス 1142" class="cls-2" d="M109.28,236a15.37,15.37,0,0,1-4.88-.9c-3.81-1.29-8.13-4-7.76-7.43a74.28,74.28,0,0,1,2.1-9.32c2-6.85,2.74-7.35,3.27-7.68a1.86,1.86,0,0,1,1.21-.3l5.27.11a1.76,1.76,0,0,1,1.61,1.11c1.61,4.12,6.69,17.87,4.12,22.14A5.38,5.38,0,0,1,109.28,236Zm-5.35-22.09A77.61,77.61,0,0,0,100.16,228c-.06.55,1.7,2.46,5.38,3.71,3.13,1,5.31.76,5.68.15,1.06-1.78-1.14-10.47-4-17.94Z"/></g><g id="グループ_363" data-name="グループ 363"><path id="パス_1143" data-name="パス 1143" class="cls-2" d="M105,216.83c1.65-.34,3.11,1.48,3.19,4.58s.42,5.7-2.72,4.92A3.52,3.52,0,0,1,103,222a2.91,2.91,0,0,1,.12-.39C103.24,220.59,103.38,217.16,105,216.83Z"/></g><g id="グループ_364" data-name="グループ 364"><path id="パス_1144" data-name="パス 1144" class="cls-2" d="M99.26,350.16a1.77,1.77,0,0,1-1.76-1.67c-.35-7.06.34-37.14.8-57.05.15-6.27.27-11.48.32-14.52.21-12.43,1.52-44.65,1.53-45a1.76,1.76,0,0,1,3.52.15c0,.32-1.31,32.5-1.52,44.9-.06,3-.18,8.25-.32,14.54-.46,19.85-1.15,49.85-.8,56.77a1.77,1.77,0,0,1-1.68,1.85h-.09Z"/></g><g id="グループ_365" data-name="グループ 365"><path id="パス_1145" data-name="パス 1145" class="cls-2" d="M108.25,350.16a1.77,1.77,0,0,1-1.77-1.74c0-6,.07-19.64.21-35.38.28-31.06.66-73.59-.18-78.62a1.77,1.77,0,1,1,3.46-.7.5.5,0,0,0,0,.12c.89,5.34.52,46.31.23,79.23-.14,15.73-.26,29.31-.21,35.31a1.75,1.75,0,0,1-1.75,1.78h0Z"/></g><g id="グループ_368" data-name="グループ 368"><path id="パス_1149" data-name="パス 1149" class="cls-2" d="M91.56,174.6a1.76,1.76,0,0,1-1.76-1.77h0V161.4a1.76,1.76,0,0,1,3.52-.12v11.55A1.76,1.76,0,0,1,91.56,174.6Z"/></g><g id="グループ_369" data-name="グループ 369"><path id="パス_1150" data-name="パス 1150" class="cls-2" d="M117.35,176a1.76,1.76,0,0,1-1.76-1.76h0V161.73a1.76,1.76,0,0,1,3.52,0v12.53a1.76,1.76,0,0,1-1.76,1.77Z"/></g><g id="グループ_372" data-name="グループ 372"><path id="パス_1152" data-name="パス 1152" class="cls-8" d="M159.39,318a4,4,0,0,1-1.68,2.16c-4.2,2.21-10.25-1.42-16.2.34a43.34,43.34,0,0,1-20.93,0c-6.29-1.65-2.54-8.15,11.79-11.46s13-11.49,19.5-9.81a8.78,8.78,0,0,1,3.95,2.22,54.1,54.1,0,0,0,3.08,15.41Z"/></g><g id="グループ_373" data-name="グループ 373"><path id="パス_1153" data-name="パス 1153" class="cls-8" d="M137.14,274.76c-7.81,1.42-18.51-8.43-17.2-14.38s29.26-5.45,31.07,1S140.77,274.1,137.14,274.76Z"/></g><g id="グループ_374" data-name="グループ 374"><path id="パス_1154" data-name="パス 1154" class="cls-8" d="M69.29,274.76c7.81,1.42,18.51-8.43,17.2-14.38s-29.26-5.45-31.08,1S65.66,274.1,69.29,274.76Z"/></g></g><g id="グループ_342" data-name="グループ 342"><path id="パス_1111" data-name="パス 1111" class="cls-2" d="M155.05,167.6a1.75,1.75,0,0,1-1.54-.9c-5.32-9.44,1.23-26.66,1.51-27.39a1.76,1.76,0,0,1,3.29,1.27c-.06.17-6.23,16.41-1.73,24.39a1.76,1.76,0,0,1-.67,2.4,1.74,1.74,0,0,1-.87.23Z"/></g><g id="グループ_358" data-name="グループ 358"><path id="パス_1137" data-name="パス 1137" class="cls-6" d="M161.12,104.14s6.13,25.85-6,39.61c-12,13.55-30.58,18.56-50,18.12-19.39.44-38-4.57-50-18.12-12.14-13.76-6-39.61-6-39.61s38.68-62.81,53.17-64.58,55-1.76,58.79,64.58"/><path id="パス_1138" data-name="パス 1138" class="cls-2" d="M102.74,163.66c-15.26,0-35.39-3.43-48.89-18.74-12.6-14.28-6.66-40.1-6.4-41.19a1.67,1.67,0,0,1,.21-.52c4-6.5,39.55-63.58,54.45-65.4,10.63-1.29,26-.58,38.84,10.16,13,10.9,20.41,29.72,21.91,55.91.55,2.42,5.8,27.17-6.44,41C142.21,161,120.66,164,105.09,163.64Zm2.36-3.55c14.91.34,35.37-2.43,48.68-17.53,11.41-12.92,5.68-37.79,5.62-38a2.87,2.87,0,0,1-.05-.31C157.93,79,151,61,138.69,50.67c-11.87-9.93-26.22-10.57-36.15-9.36-3.09.38-11.21,5.06-30.79,32.22-10.53,14.6-19.64,29.2-20.93,31.28-.59,2.72-5.07,25.59,5.67,37.77,13.32,15.1,33.79,17.87,48.61,17.53Z"/></g><g id="グループ_359" data-name="グループ 359"><path id="パス_1139" data-name="パス 1139" class="cls-2" d="M105.14,150.54a9.8,9.8,0,0,1-8-3.39,1.54,1.54,0,0,1,2.52-1.78h0a8.32,8.32,0,0,0,11.06,0,1.55,1.55,0,0,1,2.15-.32,1.52,1.52,0,0,1,.35,2.12A9.8,9.8,0,0,1,105.14,150.54Z"/></g><g id="グループ_366" data-name="グループ 366"><path id="パス_1146" data-name="パス 1146" class="cls-1" d="M164.86,48.6c17.63,46.28,4,71.62,4,71.62,0-3.52-10.14-18.51-15.65-28s-10.8-36.6-10.8-36.6c-11.24,32.18-45,44.52-45,44.52,9-17.85,3.89-39.89,3.89-39.89s-30.41,9.51-53.37,64.36c0,0-13.15-34.61,5-64.36.31-.49.61-1,.93-1.47h0A68.48,68.48,0,0,1,70,41.26a65.45,65.45,0,0,1,31.27-13"/><path id="パス_1147" data-name="パス 1147" class="cls-2" d="M47.88,126.41h0a1.79,1.79,0,0,1-1.62-1.14C45.69,123.82,33,89.5,51.41,59.36c.29-.47.58-.94.88-1.39a1.27,1.27,0,0,1,.07-.12,70.55,70.55,0,0,1,16.55-18,66.64,66.64,0,0,1,32.21-13.4A1.75,1.75,0,0,1,103,28.05v0A1.77,1.77,0,0,1,101.39,30,64.28,64.28,0,0,0,71,42.66a66.86,66.86,0,0,0-15.64,17l-.09.14c-.31.47-.6.95-.9,1.43-13.74,22.48-9,48.19-6.25,58.35C70.9,68.44,99.49,59,100.73,58.59a1.77,1.77,0,0,1,2.21,1.15l0,.14c.2.85,4.42,19.64-2.17,36.86,9.16-4.41,31.38-17.24,39.92-41.68a1.74,1.74,0,0,1,1.79-1.18,1.76,1.76,0,0,1,1.6,1.42c0,.27,5.3,27,10.59,36.06,1.55,2.66,3.44,5.71,5.44,8.94,4,6.44,7,11.41,8.76,15,2.88-8.84,7.43-31.61-5.68-66A1.76,1.76,0,1,1,166.51,48h0c17.71,46.5,4.44,72,3.87,73.09a1.77,1.77,0,0,1-3.32-.84c0-2-6-11.67-9.92-18.06-2-3.25-3.91-6.33-5.48-9-4.07-7-7.93-22.85-9.81-31.42C128.9,90.23,99.3,101.34,98,101.82a1.76,1.76,0,0,1-2.27-1,1.8,1.8,0,0,1,.09-1.4c7-14,5.09-30.88,4.13-36.65-6.86,3.12-31.32,17-50.42,62.6A1.78,1.78,0,0,1,47.88,126.41Z"/></g><g id="グループ_370" data-name="グループ 370"><path id="パス_1151" data-name="パス 1151" class="cls-9" d="M105.46,127.51c-3.76,1.24-6.38.69-4.7-1.87s2.87-2.42,5.29-2.31,5.52,3,3.84,4.29S106.85,127.05,105.46,127.51Z"/></g><g id="グループ_371" data-name="グループ 371"><ellipse id="楕円形_27" data-name="楕円形 27" class="cls-2" cx="105.14" cy="127.96" rx="1.04" ry="1.15"/></g><g id="グループ_383" data-name="グループ 383"><g id="グループ_381" data-name="グループ 381"><g id="グループ_375" data-name="グループ 375"><path id="パス_1155" data-name="パス 1155" class="cls-2" d="M161.25,87.27a21.09,21.09,0,0,0-15.56-6c-9.78.35-16.8,8.73-16.8,8.73a35.38,35.38,0,0,1,17-5.68A26.7,26.7,0,0,1,161.25,87.27Z"/></g><g id="グループ_379" data-name="グループ 379"><g id="グループ_376" data-name="グループ 376"><path id="パス_1156" data-name="パス 1156" class="cls-2" d="M155.54,116.28A1.57,1.57,0,0,1,154,114.7a1.55,1.55,0,0,1,.75-1.34,11.61,11.61,0,0,0,4.41-7.18,8.81,8.81,0,0,0-1.3-7.32,11.73,11.73,0,0,0-8.9-4.13c-9.23-.73-15.16.5-25.9,9.66a1.57,1.57,0,0,1-2-2.39h0c11.54-9.83,18.28-11.19,28.2-10.4,6.35.5,9.59,3.21,11.19,5.4a12.08,12.08,0,0,1,1.82,9.9,14.66,14.66,0,0,1-5.83,9.15A1.59,1.59,0,0,1,155.54,116.28Z"/></g><g id="グループ_377" data-name="グループ 377"><path id="パス_1157" data-name="パス 1157" class="cls-2" d="M145.31,92.9s4.33-2.56,5.36-5a.36.36,0,0,1,.46-.2.38.38,0,0,1,.16.12,5.47,5.47,0,0,1,1,5.82Z"/></g><g id="グループ_378" data-name="グループ 378"><path id="パス_1158" data-name="パス 1158" class="cls-2" d="M156.68,95.6a12.16,12.16,0,0,0,4.45-2.81.56.56,0,0,1,.78-.12.53.53,0,0,1,.19.25c.83,2.35,2.21,7.85-1.12,12.15Z"/></g></g><g id="グループ_380" data-name="グループ 380"><ellipse id="楕円形_28" data-name="楕円形 28" class="cls-2" cx="135.47" cy="112.06" rx="11.95" ry="16.08"/><path id="パス_1159" data-name="パス 1159" class="cls-2" d="M135.47,129.91c-7.56,0-13.72-8-13.72-17.85s6.16-17.85,13.72-17.85,13.71,8,13.71,17.85S143,129.91,135.47,129.91Zm0-32.17c-5.62,0-10.19,6.43-10.19,14.32s4.57,14.32,10.19,14.32,10.18-6.42,10.18-14.32S141.09,97.74,135.47,97.74Z"/></g></g><g id="グループ_382" data-name="グループ 382"><ellipse id="楕円形_29" data-name="楕円形 29" class="cls-10" cx="135.47" cy="112.06" rx="3.67" ry="6.29"/></g></g><g id="グループ_391" data-name="グループ 391"><g id="グループ_384" data-name="グループ 384"><path id="パス_1160" data-name="パス 1160" class="cls-2" d="M49.46,87.27a21.07,21.07,0,0,1,15.56-6C74.8,81.6,81.81,90,81.81,90a35.3,35.3,0,0,0-17-5.68A26.67,26.67,0,0,0,49.46,87.27Z"/></g><g id="グループ_388" data-name="グループ 388"><g id="グループ_385" data-name="グループ 385"><path id="パス_1161" data-name="パス 1161" class="cls-2" d="M55.16,116.28a1.53,1.53,0,0,1-.81-.23,14.66,14.66,0,0,1-5.83-9.15A12.08,12.08,0,0,1,50.34,97c1.6-2.19,4.84-4.9,11.19-5.4,9.92-.78,16.67.57,28.2,10.4a1.57,1.57,0,1,1-2,2.39C76.94,95.23,71,94,61.78,94.73a11.73,11.73,0,0,0-8.9,4.13,8.81,8.81,0,0,0-1.3,7.32A11.64,11.64,0,0,0,56,113.37a1.56,1.56,0,0,1,.5,2.16,1.58,1.58,0,0,1-1.34.75Z"/></g><g id="グループ_386" data-name="グループ 386"><path id="パス_1162" data-name="パス 1162" class="cls-2" d="M65.39,92.9s-4.32-2.56-5.35-5a.37.37,0,0,0-.47-.21.4.4,0,0,0-.16.13,5.45,5.45,0,0,0-1,5.82Z"/></g><g id="グループ_387" data-name="グループ 387"><path id="パス_1163" data-name="パス 1163" class="cls-2" d="M54,95.6a12.28,12.28,0,0,1-4.46-2.81.56.56,0,0,0-1,.13c-.82,2.35-2.2,7.85,1.13,12.15Z"/></g></g><g id="グループ_389" data-name="グループ 389"><ellipse id="楕円形_30" data-name="楕円形 30" class="cls-2" cx="75.24" cy="112.06" rx="11.95" ry="16.08"/><path id="パス_1164" data-name="パス 1164" class="cls-2" d="M75.24,129.91c-7.56,0-13.71-8-13.71-17.85s6.15-17.85,13.71-17.85S89,102.22,89,112.06,82.8,129.91,75.24,129.91Zm0-32.17c-5.62,0-10.19,6.43-10.19,14.32s4.57,14.32,10.19,14.32S85.43,120,85.43,112.06,80.86,97.74,75.24,97.74Z"/></g><g id="グループ_390" data-name="グループ 390"><ellipse id="楕円形_31" data-name="楕円形 31" class="cls-10" cx="75.24" cy="112.06" rx="3.67" ry="6.29"/></g></g><g id="グループ_392" data-name="グループ 392"><path id="パス_1165" data-name="パス 1165" class="cls-11" d="M74.79,55.69c-1.86,7-8.13,11.37-14,9.8a10.4,10.4,0,0,1-6.94-6.68h0A68.61,68.61,0,0,1,70,41.26,12.86,12.86,0,0,1,74.79,55.69Z"/></g><g id="グループ_393" data-name="グループ 393"><ellipse id="楕円形_32" data-name="楕円形 32" class="cls-11" cx="76.53" cy="59.02" rx="5.45" ry="4.58" transform="matrix(0.26, -0.97, 0.97, 0.26, -0.23, 117.74)"/></g><g id="グループ_394" data-name="グループ 394"><path id="パス_1166" data-name="パス 1166" class="cls-11" d="M185.07,73.33a4.46,4.46,0,0,1-2.11.53,6,6,0,0,1,0-11.8,4.13,4.13,0,0,1,1.26.18A91.52,91.52,0,0,1,185.07,73.33Z"/></g><g id="グループ_395" data-name="グループ 395"><ellipse id="楕円形_33" data-name="楕円形 33" class="cls-11" cx="172.67" cy="68.35" rx="3.14" ry="2.57" transform="translate(-12.86 76.49) rotate(-24.11)"/></g><g id="グループ_396" data-name="グループ 396"><path id="パス_1167" data-name="パス 1167" class="cls-2" d="M46.19,158.51a1.77,1.77,0,0,1-1.51-2.69c5.6-9.12,2.15-26.18,2.12-26.35a1.76,1.76,0,1,1,3.45-.72c.16.75,3.78,18.59-2.56,28.91A1.75,1.75,0,0,1,46.19,158.51Z"/></g><g id="グループ_397" data-name="グループ 397"><path id="パス_1168" data-name="パス 1168" class="cls-2" d="M97.37,101.93a1.76,1.76,0,0,1-1.08-3.14c25-19.52,24-43.12,23.95-43.35a1.76,1.76,0,0,1,3.52-.21c.06,1,1.27,25.62-25.31,46.34A1.7,1.7,0,0,1,97.37,101.93Z"/></g><g id="グループ_401" data-name="グループ 401"><ellipse id="楕円形_34" data-name="楕円形 34" class="cls-9" cx="65.36" cy="140.55" rx="7.97" ry="3.8"/></g><g id="グループ_402" data-name="グループ 402"><ellipse id="楕円形_35" data-name="楕円形 35" class="cls-9" cx="146" cy="140.55" rx="7.97" ry="3.8"/></g></g></g></g></svg>