<svg xmlns="http://www.w3.org/2000/svg" viewBox="0 0 203.74 457.18"><defs><style>.cls-1{fill:#000931;}.cls-2{fill:#5b2c2b;}.cls-3{fill:#397c71;}.cls-4{fill:#000333;}.cls-5{fill:#ffedd9;}.cls-6{fill:#1e1e1e;}.cls-7{fill:#236c60;}.cls-8{fill:#ffbdad;}</style></defs><title>girl-body</title><g id="レイヤー_2" data-name="レイヤー 2"><g id="女_保管用_" data-name="女（保管用）"><g id="体"><path class="cls-1" d="M46.87,203.14S56,279.94,58,301.09C59.86,321,75.23,432.5,75.23,432.5H97.36l8.74-186.3.33,3V199.14Z"/><path class="cls-1" d="M166.25,203.14s-9.18,76.8-11.14,97.95c-1.86,20-17.22,131.41-17.22,131.41H115.76L107,246.2l-.32,3V199.14Z"/><path class="cls-2" d="M36,457.18H95a4.31,4.31,0,0,0,4.3-4.3V431.09l-41.8-4.16a22,22,0,0,0-2.43-.13h0a27.17,27.17,0,0,0-24.47,15.38l-1.75,3.63A7.93,7.93,0,0,0,36,457.18Z"/><path class="cls-2" d="M176.48,457.18h-59a4.31,4.31,0,0,1-4.31-4.3V431.09l41.8-4.16a22,22,0,0,1,2.44-.13h0a27.14,27.14,0,0,1,24.46,15.38l1.75,3.63A7.93,7.93,0,0,1,176.48,457.18Z"/><g id="グループ_337" data-name="グループ 337"><path id="パス_1102" data-name="パス 1102" class="cls-3" d="M11.84,175s-1.81,7.38,2.81,8.26,21.27,0,21.27,0l9.58-14.32L32.94,166.5Z"/><path id="パス_1103" data-name="パス 1103" class="cls-4" d="M22.32,185.41a53.56,53.56,0,0,1-8-.42,5.18,5.18,0,0,1-3.46-2.31c-1.91-3-.85-7.59-.73-8.11a1.77,1.77,0,0,1,1-1.21l21.11-8.49a1.8,1.8,0,0,1,1-.1l12.56,2.43a1.76,1.76,0,0,1,1.4,2.06,2,2,0,0,1-.27.65L37.4,184.23A1.77,1.77,0,0,1,36,185C35.57,185,28.51,185.41,22.32,185.41Zm-8.92-9.15a7.42,7.42,0,0,0,.43,4.51,1.63,1.63,0,0,0,1.16.75,147.73,147.73,0,0,0,20,0l7.62-11.38-9.44-1.83Z"/></g><g id="グループ_338" data-name="グループ 338"><path id="パス_1104" data-name="パス 1104" class="cls-5" d="M25.89,183.6s-4.79,28.73,8.27,29.57l2.26-21,7.16,9.75,6.19-28.83Z"/><path id="パス_1105" data-name="パス 1105" class="cls-4" d="M34.16,214.93h-.11a9.09,9.09,0,0,1-6.79-3.59c-6.36-8-3.24-27.21-3.1-28a1.75,1.75,0,0,1,1-1.33l23.88-10.51a1.77,1.77,0,0,1,2.33.9,1.84,1.84,0,0,1,.11,1.09L45.3,202.3a1.76,1.76,0,0,1-2.1,1.35,1.72,1.72,0,0,1-1-.68l-4.48-6.08-1.77,16.48A1.76,1.76,0,0,1,34.16,214.93Zm-6.67-30.1c-.83,5.76-1.69,19,2.53,24.32a5.71,5.71,0,0,0,2.59,1.93L34.67,192a1.76,1.76,0,0,1,1.94-1.56,1.74,1.74,0,0,1,1.23.71l4.84,6.59,4.64-21.63Z"/></g><g id="グループ_341" data-name="グループ 341"><path id="パス_1109" data-name="パス 1109" class="cls-6" d="M59.7,17.55c8.51-7.1,17.85-14.62,23.63-14.13S96.64,10.61,97,16.81,82.49,27.39,76.3,28.55s-22.48,9.18-22.56,1.74A18.58,18.58,0,0,1,59.7,17.55Z"/><path id="パス_1110" data-name="パス 1110" class="cls-4" d="M57.74,35.17a6.67,6.67,0,0,1-3.91-1A4.49,4.49,0,0,1,52,30.3a20.2,20.2,0,0,1,6.55-14.07l0,0C68.48,7.93,77.18,1.1,83.49,1.67S98.34,9.41,98.73,16.72c.49,9.23-21.87,13.52-22.1,13.56A57.42,57.42,0,0,0,70.5,32.1,46.38,46.38,0,0,1,57.74,35.17Zm3.11-16.28a16.85,16.85,0,0,0-5.34,11.37c0,.76.26.94.37,1,1.89,1.35,9.16-1.07,13.51-2.52A55.51,55.51,0,0,1,76,26.81c8-1.49,19.43-5.87,19.22-9.91-.29-5.33-7.24-11.33-12-11.73-5.35-.42-15.56,8.07-22.33,13.72Z"/></g><g id="グループ_343" data-name="グループ 343"><path id="パス_1112" data-name="パス 1112" class="cls-3" d="M156,28.77A39.72,39.72,0,0,1,164.05,32c1.4,1.22,5.15,17.31,4,27.67s2.78,119.67,2.78,119.67,1.56,16.83-11.5,18.59-95.62-6.53-95.62-6.53-27.44-18.73-28.76-38,3.76-81.16,3.76-81.16l13.42-36.6,22.48-6.82Z"/><path id="パス_1113" data-name="パス 1113" class="cls-4" d="M153.77,198.72c-22.3,0-87-6.48-90.08-6.78a.63.63,0,0,1-.27-.1c-1.13-.77-27.69-19.12-29-38.46-1.31-19.11,3.71-80.63,3.76-81.25a.4.4,0,0,1,0-.15l13.43-36.6A.59.59,0,0,1,52,35l22.47-6.82.17,0H156a.47.47,0,0,1,.17,0,37.65,37.65,0,0,1,8.3,3.31c1.61,1.4,5.36,17.68,4.24,28.17-1.08,10.2,2.75,118.48,2.79,119.58a27,27,0,0,1-.88,8.81c-1.69,6-5.54,9.62-11.13,10.38A47,47,0,0,1,153.77,198.72ZM64,190.78c4,.4,82.76,8.22,95.34,6.52,12.36-1.68,11-17.8,11-18-.17-4.5-3.88-109.5-2.79-119.78,1.12-10.5-2.81-26.22-3.85-27.17a37.09,37.09,0,0,0-7.77-3H74.73L52.62,36.06,39.33,72.31c-.21,2.54-5,62.28-3.75,81C36.81,171.43,62,189.4,64,190.78Z"/></g><g id="グループ_345" data-name="グループ 345"><path id="パス_1115" data-name="パス 1115" class="cls-3" d="M191.79,180.39c1.32,4.85.22,8.92-1.54,10.24A38.53,38.53,0,0,1,168,194.49c-9.92-1.54-8.6-8.82-8.6-8.82l13.22-16.52Z"/><path id="パス_1116" data-name="パス 1116" class="cls-4" d="M172.64,196.59a30.53,30.53,0,0,1-4.87-.36,12.23,12.23,0,0,1-8.52-4.54,9,9,0,0,1-1.54-6.34,1.78,1.78,0,0,1,.35-.78L171.29,168a1.77,1.77,0,0,1,2.27-.42l19.12,11.24a1.82,1.82,0,0,1,.81,1c1.37,5,.45,10.14-2.19,12.12A39.75,39.75,0,0,1,172.64,196.59Zm-11.49-10.23a5.44,5.44,0,0,0,1,3.33,9,9,0,0,0,6.15,3.06,37.25,37.25,0,0,0,20.88-3.53c.87-.65,2-3.54,1.07-7.69l-17.17-10.09Z"/></g><g id="グループ_346" data-name="グループ 346"><path id="パス_1117" data-name="パス 1117" class="cls-5" d="M184.91,191.48s-5.14,33.77-14.06,34.09c-2.37.09,3.71-20.1,2.4-24.87-.75-2.75-4.8,10.23-5.83,8-3.9-8.7-5.83-29.36-5.83-29.36Z"/><path id="パス_1118" data-name="パス 1118" class="cls-4" d="M170.83,227.33a2.11,2.11,0,0,1-1.61-.74c-1.17-1.37-.78-4.11.75-12.22.44-2.35,1-5.11,1.32-7.55-1.26,2.57-2.1,3.86-3.56,3.86h0a2.11,2.11,0,0,1-1.89-1.31c-4-8.87-5.89-29.06-6-29.92a1.75,1.75,0,0,1,2.57-1.72l23.32,12.19a1.77,1.77,0,0,1,.93,1.83c-.89,5.87-5.86,35.21-15.74,35.58Zm2.08-28.78h.21a2.09,2.09,0,0,1,1.84,1.68c.7,2.55-.15,7.51-1.52,14.79-.52,2.78-1.2,6.36-1.35,8.33,4.51-2.87,8.95-19,10.9-30.9l-19.28-10.08a136.34,136.34,0,0,0,4.36,23c.29-.59.58-1.2.81-1.68C170.46,200.31,171.3,198.55,172.91,198.55Z"/></g><g id="グループ_348" data-name="グループ 348"><path id="パス_1120" data-name="パス 1120" class="cls-3" d="M166.5,41.11C177.62,57.31,177,72.51,178,90s0,37.91,24,73.61c0,0,.33,4.85-5.79,10.14s-4.79,7.93-8.31,7.93-21.38-.88-21.38-.88l-28.27-18.07V99.29l3.3-23.86"/><path id="パス_1121" data-name="パス 1121" class="cls-4" d="M187.87,183.47c-3.53,0-20.73-.84-21.46-.89a1.65,1.65,0,0,1-.86-.27l-28.27-18.07a1.74,1.74,0,0,1-.81-1.49V99.29a2,2,0,0,1,0-.25l3.3-23.85a1.76,1.76,0,1,1,3.5.43v0L140,99.41v62.38l27.06,17.3c2.83.14,17.69.85,20.82.85.92,0,.95,0,1.91-1.48a26.27,26.27,0,0,1,5.26-6,13.13,13.13,0,0,0,5.16-8.29c-22.07-33-23-53.36-23.79-69.76q-.1-2.16-.21-4.26c-.12-2-.21-4.06-.3-6-.7-15.07-1.3-28.09-10.85-42A1.76,1.76,0,1,1,167.87,40a.83.83,0,0,1,.08.12C178.07,54.83,178.73,69,179.42,83.92c.09,2,.18,4,.3,6q.12,2.11.21,4.29c.79,16.87,1.68,36,23.51,68.43a1.77,1.77,0,0,1,.29.86c0,.24.32,5.8-6.39,11.59a22.67,22.67,0,0,0-4.61,5.3A5.18,5.18,0,0,1,187.87,183.47Z"/></g><g id="グループ_349" data-name="グループ 349"><path id="パス_1122" data-name="パス 1122" class="cls-3" d="M67,69.08l-3.77,22.6V149.2s-25.46,21.16-28.6,23.64S15.31,175.65,11.84,175,1.76,162.75,1.76,162.75C9.37,155.81,15.65,135,17,108.54S27.64,51.37,39.18,42l16-3.49L64.74,50"/><path id="パス_1123" data-name="パス 1123" class="cls-4" d="M17.56,177a40.82,40.82,0,0,1-6-.31c-4-.75-9.64-10.21-11.28-13.09a1.76,1.76,0,0,1,.34-2.17c7.51-6.86,13.4-28.16,14.64-53C16.47,83.24,25.36,51,38.07,40.59a1.71,1.71,0,0,1,.74-.36l16-3.49a1.77,1.77,0,0,1,1.74.61l9.52,11.57a1.77,1.77,0,0,1-2.73,2.24L54.55,40.42,40,43.59c-10.39,8.91-19.88,37.9-21.24,65-1.26,25-7,46.06-14.76,54.42,3.18,5.32,6.88,10,8.2,10.21,6.24,1.19,20-.67,21.39-1.8,2.82-2.22,24-19.79,27.93-23.08V91.68a1.46,1.46,0,0,1,0-.29l3.77-22.6a1.77,1.77,0,0,1,3.48.58L65,91.83V149.2a1.79,1.79,0,0,1-.63,1.36c-1,.86-25.5,21.2-28.63,23.66C33,176.37,23.93,177,17.56,177Z"/></g><g id="グループ_350" data-name="グループ 350"><path id="パス_1124" data-name="パス 1124" class="cls-3" d="M45.51,190.52c-3.91,3.15-7.55,14,1.21,17.36s8.76,1,25.62,3.8,46,2.31,59.83,1.49,35.86-.66,37.93-7.44-.21-11.16-4-11-54.21-4.18-54.21-4.18l-59.67-1.16Z"/><path id="パス_1125" data-name="パス 1125" class="cls-4" d="M108.26,214.41a242.43,242.43,0,0,1-36-2.15,118.43,118.43,0,0,0-14.79-1.65,29.76,29.76,0,0,1-10.94-2.18,8.27,8.27,0,0,1-5.66-6.67,13.9,13.9,0,0,1,4.28-11.7.61.61,0,0,1,.27-.12l6.66-1.15,59.78,1.14c.54,0,50.45,4.33,54.18,4.18a4.77,4.77,0,0,1,4,1.89c1.65,2.16,1.88,5.77.63,9.9-1.89,6.17-17.83,6.89-31.88,7.53-2.31.1-4.53.21-6.58.32C125.92,214.13,117.33,214.41,108.26,214.41Zm-62.5-23.34A12.92,12.92,0,0,0,42,201.57a7.13,7.13,0,0,0,4.91,5.76,28.53,28.53,0,0,0,10.6,2.1,120.36,120.36,0,0,1,14.91,1.66c16.33,2.73,44.65,2.38,59.7,1.48,2.05-.12,4.28-.22,6.6-.32,12.31-.56,29.17-1.32,30.81-6.7,1.15-3.76,1-7-.44-8.84a3.44,3.44,0,0,0-3-1.43c-3.79.12-52.22-4-54.28-4.18L52.17,190Z"/></g><g id="グループ_351" data-name="グループ 351"><path id="パス_1126" data-name="パス 1126" class="cls-7" d="M58.92,130.2c0,12.27,1.07,23.3-4.76,23.3s-16.36-11-16.36-23.3c0-4.91-.48-13.07.81-16.75,1.92-5.5,6.25-5.46,9.75-5.46C54.19,108,58.92,117.94,58.92,130.2Z"/></g><g id="グループ_352" data-name="グループ 352"><path id="パス_1127" data-name="パス 1127" class="cls-7" d="M165.69,139.28c0,12.27-4.72,22.21-10.55,22.21s-10.55-9.94-10.55-22.21,4.72-22.2,10.55-22.2c4,0,8.77-.56,10.55,6.34C166.51,126.57,165.69,135.44,165.69,139.28Z"/></g><g id="グループ_353" data-name="グループ 353"><path id="パス_1128" data-name="パス 1128" class="cls-5" d="M56.75,29.86s21.7-10.55,34.81-10.45,43.09,3.73,46.39,6.27-24.27,41.14-34.86,38.7S59.28,40.44,59.28,40.44Z"/><path id="パス_1129" data-name="パス 1129" class="cls-4" d="M104,66.24a5.39,5.39,0,0,1-1.32-.14c-10.76-2.49-43-23.29-44.37-24.17a1.8,1.8,0,0,1-.76-1.07L55,30.28a1.76,1.76,0,0,1,.95-2c.89-.43,22-10.63,35.4-10.63h.19c12,.09,43.41,3.54,47.46,6.63,1.74,1.33.81,4-.32,6.38C134.26,40.1,114.76,66.24,104,66.24ZM60.83,39.35c4.5,2.88,33.25,21.14,42.66,23.31.88.21,3.56.17,9.25-4.61,11.23-9.46,22.92-27.36,23.69-31.22-4.57-2.1-31.63-5.55-44.88-5.65h-.17c-10.78,0-27.81,7.48-32.58,9.68Z"/></g><g id="グループ_354" data-name="グループ 354"><path id="パス_1130" data-name="パス 1130" class="cls-3" d="M151.21,64.7c10.58,5.62,16.42,25,9,48.78-1.24,4-3.55,3-6.29,13.71-1.41,5.56,1.65,14.52,4,24.1,2.18,9,9.94,23.6,10,23.79a19.1,19.1,0,0,1-1.87,19.62c-4,5.83-34.38,5.75-59.62,6.08s-53.77-6.08-53.77-6.08-10.91-2.52-13.46-16.36S43,164,47.51,149.86c3-9.28,4.53-18,1.41-28.75-1.62-5.58.11,1.2-3.42-7.67-4.92-12.37-7.18-45.65,8.24-50.52"/><path id="パス_1131" data-name="パス 1131" class="cls-4" d="M104.57,202.55a280.34,280.34,0,0,1-52.29-6.13c-.5-.12-12.08-2.95-14.81-17.75a22.51,22.51,0,0,1,3.33-18.34,53.87,53.87,0,0,0,5-11c3-9.21,4.36-17.45,1.39-27.72-.1-.36-.38-1.3-.55-1.81a18,18,0,0,1-2.81-5.7c-4-10-6-31.55-.16-43.8a15.94,15.94,0,0,1,9.51-9,1.76,1.76,0,0,1,1.06,3.35,12.61,12.61,0,0,0-7.39,7.2c-5.33,11.23-3.41,31.78.25,41A41,41,0,0,0,49,117.08c.69.42.91,1.19,1.6,3.55C54,132.41,52,141.9,49.2,150.4a57.15,57.15,0,0,1-5.33,11.66c-2.77,4.88-4.44,7.82-2.93,16C43.24,190.57,53,193,53.06,193c.27.07,28.66,6.36,53.35,6l5.42-.07c20.93-.25,49.6-.58,52.76-5.24a17.28,17.28,0,0,0,1.71-17.94l-.1-.18c-2.39-4.61-8.15-16.2-10-23.88-.46-1.91-.95-3.78-1.43-5.62-2-7.76-3.78-14.45-2.54-19.33,1.83-7.19,3.57-9.49,4.83-11.17a7.63,7.63,0,0,0,1.47-2.64c7.34-23.61,1.27-41.68-8.16-46.69A1.76,1.76,0,1,1,152,63.13h0c5.87,3.12,10.19,9.78,12.15,18.75A63.68,63.68,0,0,1,161.88,114a11.07,11.07,0,0,1-2,3.72c-1.15,1.52-2.58,3.41-4.23,9.91-1,4,.71,10.59,2.52,17.57.48,1.85,1,3.75,1.45,5.67,1.77,7.32,7.39,18.59,9.72,23.1a3.73,3.73,0,0,0,.21.41,20.74,20.74,0,0,1-2,21.31c-3.9,5.75-24.56,6.42-55.64,6.78l-5.41.07Z"/></g><g id="グループ_355" data-name="グループ 355"><path id="パス_1132" data-name="パス 1132" class="cls-3" d="M105,64.69S137.29,31,136.3,27.89s-6.17-6.62-18.29-6.4l-4.35-4a69.32,69.32,0,0,1,8-3.06c6.57-2.28,22.45-6.64,26.69-4.66a15.14,15.14,0,0,1,8,10.8c.66,4.2,3.08,4,4.4,6.61s2.65,7.21,0,9.78-11.9,5.43-16.75,9.18S118.45,65.13,105,64.69Z"/><path id="パス_1133" data-name="パス 1133" class="cls-4" d="M105.57,66.46H105a1.76,1.76,0,0,1-1.22-3C118,48.54,133.17,31.52,134.5,28.12c-1-2-5.35-5.08-16.46-4.86a1.79,1.79,0,0,1-1.23-.46l-4.35-4a1.76,1.76,0,0,1-.11-2.49,1.47,1.47,0,0,1,.46-.36,68.6,68.6,0,0,1,8.28-3.18c.21-.07,21.9-7.44,28-4.59a17,17,0,0,1,9,12.12A4.57,4.57,0,0,0,160,23.66a8.69,8.69,0,0,1,2.31,2.77c.91,1.82,3.57,8-.35,11.83a31.34,31.34,0,0,1-7.76,4.35,51.81,51.81,0,0,0-9.14,5C141,50.76,119.92,66.46,105.57,66.46Zm13.54-46.74c15.22,0,18.29,5.81,18.87,7.63.44,1.35.93,2.89-15.64,21.27-4.85,5.38-9.77,10.65-12.87,13.93,13.35-2.47,31.26-16.06,33.47-17.77a54.29,54.29,0,0,1,9.81-5.36,32.59,32.59,0,0,0,6.79-3.69c1.75-1.69.9-5.22-.35-7.72a5.15,5.15,0,0,0-1.47-1.68,8,8,0,0,1-3.1-5.44,13.46,13.46,0,0,0-7-9.48c-3.09-1.44-16.86,1.78-25.38,4.73-2.46.85-4.19,1.49-5.37,1.95l1.8,1.64Z"/></g><g id="グループ_356" data-name="グループ 356"><path id="パス_1134" data-name="パス 1134" class="cls-3" d="M61.64,1.77c-16.36,5-16.57,10.47-18.78,14s-7.27,12.8-6.61,17.85S38.89,43.09,42,44.19s6.39,0,13.22,3.09S104,64.68,104,64.68,56.74,32.07,56.74,29.87s.89-5.29,2.87-5.95a10.53,10.53,0,0,0,7.27-5.51,19.29,19.29,0,0,1,9.59-8.36c2.09-.45-6.38-8.28-6.38-8.28Z"/><path id="パス_1135" data-name="パス 1135" class="cls-4" d="M104,66.45a1.79,1.79,0,0,1-.57-.09C101.7,65.77,61.31,52,54.48,48.89a24.84,24.84,0,0,0-9-2.31,16.41,16.41,0,0,1-4.06-.73c-3.5-1.25-6.07-5.74-6.89-12-.84-6.46,6.08-17.75,6.87-19,.29-.47.56-1,.85-1.6C44.06,9.54,46.56,4.5,61.13.08A1.81,1.81,0,0,1,61.64,0H70.1a1.75,1.75,0,0,1,1.19.47c7.88,7.27,7.42,9,7.2,9.77a2.11,2.11,0,0,1-1.65,1.52,18.14,18.14,0,0,0-8.32,7.31,11.9,11.9,0,0,1-8.1,6.43l-.25.08c-.79.27-1.52,2-1.64,3.8C61.65,32.82,88.39,51.76,105,63.23a1.76,1.76,0,0,1-1,3.21ZM61.9,3.54c-12.9,4-14.9,8-16.52,11.26a20.45,20.45,0,0,1-1,1.91c-2.45,3.9-6.92,12.42-6.36,16.68.63,4.79,2.42,8.38,4.57,9.15a13.48,13.48,0,0,0,3.21.54,28.87,28.87,0,0,1,10.15,2.6c4.38,2,23.73,8.75,36.67,13.23-3.95-2.77-8.62-6-13.26-9.37C55,32.16,55,31.15,55,29.87c0-3,1.28-6.69,4.07-7.62l.26-.08a8.65,8.65,0,0,0,5.94-4.43,21.23,21.23,0,0,1,9.23-8.81A55.07,55.07,0,0,0,69.4,3.54Z"/></g><g id="グループ_357" data-name="グループ 357"><path id="パス_1136" data-name="パス 1136" class="cls-8" d="M117.35,27s-4,2.31-13.11,2.31S92.5,27,92.5,27V14h24.84Z"/></g><g id="グループ_360" data-name="グループ 360"><path id="パス_1140" data-name="パス 1140" class="cls-4" d="M94.58,38.79a1.19,1.19,0,0,1-.56-.14l-9.35-5a1.18,1.18,0,1,1,1.12-2.07h0l9.34,5a1.18,1.18,0,0,1,.49,1.59,1.2,1.2,0,0,1-1,.62Z"/></g><g id="グループ_361" data-name="グループ 361"><path id="パス_1141" data-name="パス 1141" class="cls-4" d="M113.66,38.79a1.18,1.18,0,0,1-1.18-1.17,1.2,1.2,0,0,1,.62-1l9.36-5a1.18,1.18,0,0,1,1.11,2.08h0l-9.35,5A1.08,1.08,0,0,1,113.66,38.79Z"/></g><g id="グループ_362" data-name="グループ 362"><path id="パス_1142" data-name="パス 1142" class="cls-4" d="M109.28,88.26a15.38,15.38,0,0,1-4.88-.91c-3.81-1.28-8.13-4-7.76-7.43a73.74,73.74,0,0,1,2.1-9.31c2-6.85,2.74-7.36,3.27-7.69a1.93,1.93,0,0,1,1.21-.3l5.27.11a1.79,1.79,0,0,1,1.61,1.12c1.61,4.11,6.69,17.86,4.12,22.13A5.37,5.37,0,0,1,109.28,88.26Zm-5.35-22.1a77.93,77.93,0,0,0-3.77,14.15c-.06.54,1.7,2.46,5.38,3.7,3.13,1,5.31.77,5.68.16,1.06-1.78-1.14-10.47-4-17.94Z"/></g><g id="グループ_363" data-name="グループ 363"><path id="パス_1143" data-name="パス 1143" class="cls-4" d="M105,69.12c1.65-.34,3.11,1.49,3.19,4.59s.42,5.7-2.72,4.92A3.53,3.53,0,0,1,103,74.31a2.4,2.4,0,0,1,.12-.38C103.24,72.88,103.38,69.45,105,69.12Z"/></g><g id="グループ_364" data-name="グループ 364"><path id="パス_1144" data-name="パス 1144" class="cls-4" d="M99.26,202.46a1.77,1.77,0,0,1-1.76-1.68c-.35-7.06.34-37.13.8-57,.15-6.28.27-11.48.32-14.52.21-12.44,1.52-44.65,1.53-45a1.76,1.76,0,0,1,3.52.14c0,.33-1.31,32.51-1.52,44.9-.06,3-.18,8.25-.32,14.54-.46,19.85-1.15,49.85-.8,56.78a1.78,1.78,0,0,1-1.68,1.85h-.09Z"/></g><g id="グループ_365" data-name="グループ 365"><path id="パス_1145" data-name="パス 1145" class="cls-4" d="M108.25,202.46a1.77,1.77,0,0,1-1.77-1.75c0-6,.07-19.63.21-35.37.28-31.06.66-73.59-.18-78.62A1.77,1.77,0,0,1,110,86a.5.5,0,0,0,0,.12c.89,5.33.52,46.3.23,79.23-.14,15.73-.26,29.31-.21,35.31a1.76,1.76,0,0,1-1.75,1.78h0Z"/></g><g id="グループ_368" data-name="グループ 368"><path id="パス_1149" data-name="パス 1149" class="cls-4" d="M91.56,26.89a1.76,1.76,0,0,1-1.76-1.76h0V13.7a1.76,1.76,0,1,1,3.52-.12V25.13A1.76,1.76,0,0,1,91.56,26.89Z"/></g><g id="グループ_369" data-name="グループ 369"><path id="パス_1150" data-name="パス 1150" class="cls-4" d="M117.35,28.33a1.76,1.76,0,0,1-1.76-1.77h0V14a1.76,1.76,0,0,1,3.52,0V26.56a1.77,1.77,0,0,1-1.76,1.77Z"/></g><g id="グループ_372" data-name="グループ 372"><path id="パス_1152" data-name="パス 1152" class="cls-7" d="M159.39,170.29a4,4,0,0,1-1.68,2.16c-4.2,2.21-10.25-1.42-16.2.34a43.59,43.59,0,0,1-20.93,0c-6.29-1.66-2.54-8.16,11.79-11.46s13-11.5,19.5-9.82a9,9,0,0,1,3.95,2.22,54.1,54.1,0,0,0,3.08,15.41Z"/></g><g id="グループ_373" data-name="グループ 373"><path id="パス_1153" data-name="パス 1153" class="cls-7" d="M137.14,127.06c-7.81,1.41-18.51-8.44-17.2-14.38s29.26-5.46,31.07,1S140.77,126.39,137.14,127.06Z"/></g><g id="グループ_374" data-name="グループ 374"><path id="パス_1154" data-name="パス 1154" class="cls-7" d="M69.29,127.06c7.81,1.41,18.51-8.44,17.2-14.38s-29.26-5.46-31.08,1S65.66,126.39,69.29,127.06Z"/></g></g></g></g></svg>