<svg xmlns="http://www.w3.org/2000/svg" viewBox="0 0 221.46 635.03"><defs><style>.cls-1{fill:#535353;}.cls-2{fill:#000333;}.cls-3{fill:#000931;}.cls-4{fill:#5b2c2b;}.cls-5{fill:#397c71;}.cls-6{fill:#ffedd9;}.cls-7{fill:#1e1e1e;}.cls-8{fill:#236c60;}.cls-9{fill:#ffbdad;}.cls-10{fill:#868686;}.cls-11,.cls-12{fill:none;stroke:#000931;stroke-linecap:round;stroke-linejoin:round;}.cls-11{stroke-width:2.62px;}.cls-12{stroke-width:4px;}.cls-13{fill:#9ab7d9;stroke:#000333;stroke-miterlimit:10;stroke-width:3px;}</style></defs><title>girl_bad_1</title><g id="レイヤー_2" data-name="レイヤー 2"><g id="_女_表情パターン" data-name="【女】表情パターン"><g id="体調悪い時"><g id="グループ_335" data-name="グループ 335"><path id="パス_1098" data-name="パス 1098" class="cls-1" d="M197.29,142.29s-2,16.81,6,20.61c0,0-16.61,7.48-18.27-6.61S197.29,142.29,197.29,142.29Z"/><path id="パス_1099" data-name="パス 1099" class="cls-2" d="M194.42,166.64a12.11,12.11,0,0,1-6-1.41,10.78,10.78,0,0,1-5.11-8.73,13.87,13.87,0,0,1,2.94-11.36,16,16,0,0,1,11.06-4.62A1.76,1.76,0,0,1,199,142.3a1.15,1.15,0,0,1,0,.19c-.5,4.33-.57,16.15,5,18.81a1.77,1.77,0,0,1,.84,2.35,1.75,1.75,0,0,1-.87.85A26.39,26.39,0,0,1,194.42,166.64Zm.94-22.39a11.22,11.22,0,0,0-6.51,3.26,10.55,10.55,0,0,0-2.06,8.57,7.39,7.39,0,0,0,3.35,6.08c2.67,1.52,6.63,1,9.52.17-4.4-4.81-4.51-13.91-4.29-18.08Z"/></g><g id="グループ_336" data-name="グループ 336"><path id="パス_1100" data-name="パス 1100" class="cls-1" d="M74.25,52.44s-29,36.41-50.19,31.46c0,0,19.48,13.22,41.81-7.28S74.25,52.44,74.25,52.44Z"/><path id="パス_1101" data-name="パス 1101" class="cls-2" d="M39.69,89.79a32.16,32.16,0,0,1-16.62-4.44,1.76,1.76,0,0,1,1.39-3.17,17.09,17.09,0,0,0,3.77.42c19.47,0,44.36-30.93,44.63-31.26a1.76,1.76,0,0,1,1.83-.61,7.86,7.86,0,0,1,5.38,5.43c1.31,5.3-3.07,12.62-13,21.76S47.36,89.79,39.69,89.79ZM33,85.62c7.32,1.7,18.94,1.42,31.7-10.3,11.71-10.74,12.54-16.08,12-18.3a4,4,0,0,0-1.89-2.43C70.44,59.81,51.06,82,33,85.62Z"/></g><g id="グループ_340" data-name="グループ 340"><path id="パス_1107" data-name="パス 1107" class="cls-1" d="M198.53,138.11C188.84,172,173.42,187,184,218.76s-57.17,58.18-57.17,58.18L45.59,234.19c-2.21-22.92-.88-28.59,3.08-42.06s6.18-36.84,1.77-55.35S43,82.57,68.51,55.25s69.65-30,103.14-10.58c18.9,10.94,28.13,28.49,30.83,47.8a93.57,93.57,0,0,1,.84,11.08A118.82,118.82,0,0,1,198.53,138.11Z"/><path id="パス_1108" data-name="パス 1108" class="cls-2" d="M126.83,278.71a1.78,1.78,0,0,1-.82-.21L44.78,235.75a1.77,1.77,0,0,1-.94-1.39c-2.21-23-.92-28.91,3.15-42.73s5.94-36.81,1.74-54.45C45.11,122,39.68,83.5,67.23,54c25.27-27,69.56-31.6,105.31-10.91,17.68,10.24,28.63,27.21,31.68,49.09a90.85,90.85,0,0,1,.86,11.3,121.22,121.22,0,0,1-4.85,35.06,258.85,258.85,0,0,1-9.13,25.7c-7.4,18.56-12.75,32-5.43,53.92,4.6,13.8-4.14,28.67-25.3,43a191.52,191.52,0,0,1-32.9,17.38A2,2,0,0,1,126.83,278.71ZM47.27,233.08,126.93,275c7.24-3,64.75-27.62,55.4-55.68-7.73-23.17-1.89-37.8,5.49-56.33a256.43,256.43,0,0,0,9-25.36h0a117.74,117.74,0,0,0,4.72-34,89.77,89.77,0,0,0-.84-10.87c-2.89-20.76-13.25-36.85-30-46.52C136.42,26.31,94,30.63,69.8,56.46c-26.39,28.2-21.14,65.28-17.65,79.92,4.54,19.08,2.26,42.53-1.79,56.25-3.94,13.44-5.13,18.86-3.09,40.45Z"/></g><g id="体"><path class="cls-3" d="M64.59,381s9.18,76.8,11.14,97.95C77.59,498.89,93,610.35,93,610.35h22.13l8.75-186.3.32,3V377Z"/><path class="cls-3" d="M184,381s-9.17,76.8-11.14,97.95c-1.85,19.95-17.22,131.41-17.22,131.41H133.48l-8.74-186.3-.33,3V377Z"/><path class="cls-4" d="M53.71,635h59a4.3,4.3,0,0,0,4.3-4.3V608.94l-41.8-4.16c-.8-.08-1.62-.12-2.43-.12h0A27.13,27.13,0,0,0,48.32,620l-1.75,3.63A7.93,7.93,0,0,0,53.71,635Z"/><path class="cls-4" d="M194.2,635h-59a4.3,4.3,0,0,1-4.3-4.3V608.94l41.8-4.16q1.22-.12,2.43-.12h0A27.13,27.13,0,0,1,199.59,620l1.75,3.63A7.93,7.93,0,0,1,194.2,635Z"/><g id="グループ_337" data-name="グループ 337"><path id="パス_1102" data-name="パス 1102" class="cls-5" d="M29.57,352.84s-1.82,7.38,2.81,8.26,21.27,0,21.27,0l9.58-14.32-12.56-2.42Z"/><path id="パス_1103" data-name="パス 1103" class="cls-2" d="M40.05,363.26a53.42,53.42,0,0,1-8-.42,5.18,5.18,0,0,1-3.47-2.31c-1.91-3-.85-7.59-.72-8.11a1.75,1.75,0,0,1,1.05-1.21L50,342.72a1.76,1.76,0,0,1,1-.1l12.56,2.43a1.77,1.77,0,0,1,1.14,2.71l-9.58,14.32a1.78,1.78,0,0,1-1.38.78C53.29,362.89,46.23,363.26,40.05,363.26Zm-8.93-9.14a7.54,7.54,0,0,0,.43,4.5,1.62,1.62,0,0,0,1.16.75,146.25,146.25,0,0,0,20,0L60.29,348l-9.44-1.82Z"/></g><g id="グループ_338" data-name="グループ 338"><path id="パス_1104" data-name="パス 1104" class="cls-6" d="M43.62,361.46s-4.8,28.73,8.26,29.56l2.27-21,7.15,9.76L67.5,351Z"/><path id="パス_1105" data-name="パス 1105" class="cls-2" d="M51.88,392.78h-.11A9.13,9.13,0,0,1,45,389.2c-6.35-8-3.24-27.22-3.1-28a1.76,1.76,0,0,1,1-1.33l23.88-10.51a1.76,1.76,0,0,1,2.32.91,1.74,1.74,0,0,1,.11,1.08L63,380.15a1.76,1.76,0,0,1-2.1,1.35,1.74,1.74,0,0,1-1-.68l-4.47-6.08-1.78,16.48A1.76,1.76,0,0,1,51.88,392.78Zm-6.67-30.1c-.82,5.76-1.69,19,2.53,24.32a5.76,5.76,0,0,0,2.59,1.93l2.06-19.08a1.77,1.77,0,0,1,3.18-.86l4.83,6.59L65.05,354Z"/></g><g id="グループ_341" data-name="グループ 341"><path id="パス_1109" data-name="パス 1109" class="cls-7" d="M77.42,195.4c8.51-7.1,17.85-14.62,23.64-14.13s13.3,7.19,13.63,13.39S100.22,205.24,94,206.4s-22.48,9.18-22.57,1.74A18.58,18.58,0,0,1,77.42,195.4Z"/><path id="パス_1110" data-name="パス 1110" class="cls-2" d="M75.47,213a6.58,6.58,0,0,1-3.91-1,4.52,4.52,0,0,1-1.85-3.84,20.24,20.24,0,0,1,6.55-14.07l0,0c9.91-8.27,18.61-15.1,24.92-14.53s14.86,7.74,15.25,15c.49,9.23-21.88,13.52-22.1,13.56A56.91,56.91,0,0,0,88.22,210,46.31,46.31,0,0,1,75.47,213Zm3.11-16.28a16.85,16.85,0,0,0-5.34,11.37c0,.76.26.94.36,1,1.89,1.35,9.17-1.07,13.51-2.52a56.07,56.07,0,0,1,6.6-1.94c8-1.49,19.44-5.87,19.22-9.91-.28-5.33-7.23-11.32-12-11.73-5.36-.42-15.56,8.07-22.33,13.72Z"/></g><g id="グループ_343" data-name="グループ 343"><path id="パス_1112" data-name="パス 1112" class="cls-5" d="M173.7,206.62a39.81,39.81,0,0,1,8.08,3.18c1.4,1.23,5.14,17.31,4,27.67s2.79,119.67,2.79,119.67,1.55,16.83-11.5,18.59-95.63-6.53-95.63-6.53-27.44-18.73-28.76-38S56.48,250,56.48,250l13.42-36.6,22.48-6.81Z"/><path id="パス_1113" data-name="パス 1113" class="cls-2" d="M171.5,376.57c-22.3,0-87-6.48-90.09-6.78a.68.68,0,0,1-.27-.1c-1.13-.77-27.68-19.12-29-38.46-1.3-19.11,3.71-80.63,3.76-81.24a.75.75,0,0,1,0-.16l13.43-36.59a.55.55,0,0,1,.38-.36l22.48-6.82a.47.47,0,0,1,.17,0H173.7a.51.51,0,0,1,.17,0,37.58,37.58,0,0,1,8.29,3.31c1.61,1.4,5.36,17.68,4.24,28.17-1.08,10.2,2.75,118.49,2.79,119.58a27,27,0,0,1-.87,8.81c-1.7,6-5.55,9.63-11.13,10.38A47,47,0,0,1,171.5,376.57Zm-89.82-7.94c4,.4,82.77,8.22,95.35,6.52,12.35-1.68,11-17.8,11-18-.16-4.5-3.88-109.5-2.79-119.78,1.12-10.5-2.8-26.21-3.84-27.16a36.88,36.88,0,0,0-7.78-3.05H92.46l-22.12,6.71L57.05,250.16c-.21,2.54-5,62.28-3.75,81,1.23,18.13,26.4,36.1,28.38,37.48Z"/></g><g id="グループ_345" data-name="グループ 345"><path id="パス_1115" data-name="パス 1115" class="cls-5" d="M209.51,358.24c1.32,4.85.22,8.92-1.54,10.24a38.44,38.44,0,0,1-22.21,3.86c-9.92-1.54-8.6-8.82-8.6-8.82L190.39,347Z"/><path id="パス_1116" data-name="パス 1116" class="cls-2" d="M190.36,374.44a30.53,30.53,0,0,1-4.87-.36,12.19,12.19,0,0,1-8.51-4.54,8.92,8.92,0,0,1-1.55-6.34,1.8,1.8,0,0,1,.36-.78L189,345.89a1.76,1.76,0,0,1,2.27-.41l19.12,11.23a1.77,1.77,0,0,1,.81,1.05c1.38,5,.46,10.14-2.18,12.12A39.82,39.82,0,0,1,190.36,374.44Zm-11.49-10.23a5.44,5.44,0,0,0,1,3.33A9,9,0,0,0,186,370.6a37.15,37.15,0,0,0,20.88-3.53c.88-.65,2-3.54,1.07-7.69l-17.17-10.09Z"/></g><g id="グループ_346" data-name="グループ 346"><path id="パス_1117" data-name="パス 1117" class="cls-6" d="M202.64,369.33s-5.14,33.77-14.07,34.09c-2.36.09,3.72-20.1,2.41-24.87-.76-2.75-4.81,10.23-5.83,7.95-3.9-8.7-5.83-29.36-5.83-29.36Z"/><path id="パス_1118" data-name="パス 1118" class="cls-2" d="M188.56,405.18a2.11,2.11,0,0,1-1.61-.74c-1.18-1.37-.78-4.11.75-12.22.44-2.34,1-5.11,1.31-7.55-1.26,2.57-2.1,3.86-3.55,3.86h0a2.09,2.09,0,0,1-1.89-1.31c-4-8.87-5.9-29.06-6-29.92a1.76,1.76,0,0,1,2.58-1.72l23.32,12.19a1.75,1.75,0,0,1,.92,1.83c-.89,5.87-5.86,35.21-15.74,35.58Zm2.08-28.78h.21a2.09,2.09,0,0,1,1.83,1.68c.71,2.55-.14,7.51-1.51,14.79-.53,2.78-1.2,6.36-1.36,8.34,4.51-2.88,9-19.06,10.91-30.91l-19.28-10.08a136.34,136.34,0,0,0,4.36,23c.29-.59.58-1.2.81-1.68C188.19,378.16,189,376.4,190.64,376.4Z"/></g><g id="グループ_348" data-name="グループ 348"><path id="パス_1120" data-name="パス 1120" class="cls-5" d="M184.22,219c11.13,16.2,10.47,31.4,11.46,48.92s0,37.91,24,73.61c0,0,.34,4.85-5.78,10.14s-4.8,7.93-8.32,7.93-21.38-.88-21.38-.88L156,340.61V277.14l3.3-23.86"/><path id="パス_1121" data-name="パス 1121" class="cls-2" d="M205.6,361.32c-3.53,0-20.74-.84-21.47-.88a1.79,1.79,0,0,1-.86-.28L155,342.09a1.76,1.76,0,0,1-.81-1.48V277.14a1.94,1.94,0,0,1,0-.24l3.3-23.86a1.76,1.76,0,1,1,3.5.43v.05l-3.28,23.74v62.38l27.05,17.3c2.84.14,17.7.86,20.82.86.92,0,1,0,1.91-1.48a26.35,26.35,0,0,1,5.26-6,13.06,13.06,0,0,0,5.16-8.29c-22.06-33-23-53.36-23.79-69.76-.07-1.44-.13-2.86-.21-4.26-.11-2-.21-4.06-.3-6-.69-15.07-1.3-28.09-10.85-42a1.77,1.77,0,0,1,2.83-2.11l.08.12c10.12,14.73,10.77,28.85,11.46,43.82.1,2,.19,4,.3,6q.12,2.12.21,4.29c.8,16.88,1.68,36,23.51,68.43a1.71,1.71,0,0,1,.3.86c0,.24.31,5.8-6.39,11.6a22.46,22.46,0,0,0-4.62,5.29A5.17,5.17,0,0,1,205.6,361.32Z"/></g><g id="グループ_349" data-name="グループ 349"><path id="パス_1122" data-name="パス 1122" class="cls-5" d="M84.75,246.93,81,269.53v57.52s-25.45,21.16-28.59,23.64S33,353.5,29.57,352.84s-10.08-12.23-10.08-12.23c7.6-6.95,13.88-27.77,15.2-54.22S45.36,229.22,56.9,219.8l16-3.49,9.52,11.57"/><path id="パス_1123" data-name="パス 1123" class="cls-2" d="M35.28,354.88a40.61,40.61,0,0,1-6-.31c-4-.75-9.65-10.21-11.28-13.09a1.75,1.75,0,0,1,.34-2.17c7.51-6.86,13.39-28.16,14.63-53,1.26-25.22,10.16-57.5,22.86-67.87a1.76,1.76,0,0,1,.74-.36l16-3.49a1.76,1.76,0,0,1,1.73.61l9.52,11.57A1.77,1.77,0,0,1,81.1,229l-8.83-10.74L57.7,221.44c-10.4,8.91-19.89,37.9-21.25,65.05-1.26,25-7,46.05-14.75,54.41,3.17,5.32,6.87,10,8.2,10.21,6.23,1.19,20-.67,21.39-1.8,2.81-2.22,24-19.79,27.92-23.08v-56.7c0-.09,0-.19,0-.29L83,246.64a1.77,1.77,0,0,1,3.48.58l-3.75,22.46v57.37a1.79,1.79,0,0,1-.63,1.36c-1,.86-25.51,21.2-28.63,23.66C50.75,354.22,41.66,354.88,35.28,354.88Z"/></g><g id="グループ_350" data-name="グループ 350"><path id="パス_1124" data-name="パス 1124" class="cls-5" d="M63.23,368.37c-3.91,3.15-7.55,14.05,1.21,17.36s8.76,1,25.62,3.8S136,391.84,149.89,391s35.86-.66,37.94-7.44-.21-11.15-4.05-11-54.21-4.18-54.21-4.18L69.9,367.22Z"/><path id="パス_1125" data-name="パス 1125" class="cls-2" d="M126,392.26a242.43,242.43,0,0,1-36-2.15,118.07,118.07,0,0,0-14.78-1.65,29.81,29.81,0,0,1-11-2.18,8.28,8.28,0,0,1-5.66-6.67,13.93,13.93,0,0,1,4.28-11.7.66.66,0,0,1,.27-.12l6.67-1.15,59.77,1.14c.55.05,50.45,4.33,54.19,4.18a4.75,4.75,0,0,1,4,1.89c1.66,2.16,1.89,5.77.63,9.9-1.89,6.17-17.83,6.89-31.88,7.53-2.3.1-4.53.21-6.57.32C143.65,392,135.05,392.26,126,392.26ZM63.49,368.93a12.86,12.86,0,0,0-3.74,10.5,7.08,7.08,0,0,0,4.91,5.75,28.48,28.48,0,0,0,10.59,2.1,120.36,120.36,0,0,1,14.91,1.66c16.34,2.73,44.66,2.38,59.71,1.48,2-.12,4.27-.22,6.59-.32,12.31-.56,29.17-1.32,30.81-6.7,1.15-3.76,1-7-.43-8.84a3.45,3.45,0,0,0-3-1.43c-3.8.12-52.22-4-54.29-4.18L69.9,367.8Z"/></g><g id="グループ_351" data-name="グループ 351"><path id="パス_1126" data-name="パス 1126" class="cls-8" d="M76.64,308.05c0,12.27,1.08,23.3-4.75,23.3s-16.36-11-16.36-23.3c0-4.91-.48-13.07.8-16.75,1.92-5.5,6.26-5.45,9.75-5.45C71.92,285.85,76.64,295.79,76.64,308.05Z"/></g><g id="グループ_352" data-name="グループ 352"><path id="パス_1127" data-name="パス 1127" class="cls-8" d="M183.42,317.13c0,12.27-4.73,22.21-10.55,22.21s-10.56-9.94-10.56-22.21,4.73-22.2,10.56-22.2c4,0,8.76-.56,10.55,6.34C184.24,304.43,183.42,313.29,183.42,317.13Z"/></g><g id="グループ_353" data-name="グループ 353"><path id="パス_1128" data-name="パス 1128" class="cls-6" d="M74.47,207.72s21.7-10.55,34.81-10.46,43.09,3.73,46.4,6.27-24.28,41.15-34.87,38.7S77,218.29,77,218.29Z"/><path id="パス_1129" data-name="パス 1129" class="cls-2" d="M121.74,244.09a5.29,5.29,0,0,1-1.32-.14c-10.77-2.49-43-23.29-44.37-24.17a1.8,1.8,0,0,1-.76-1.07l-2.53-10.58a1.76,1.76,0,0,1,.94-2c.9-.43,22-10.63,35.41-10.63h.19c12,.09,43.41,3.54,47.45,6.63,1.74,1.33.82,4-.32,6.38C152,218,132.48,244.09,121.74,244.09ZM78.55,217.2c4.5,2.88,33.25,21.14,42.66,23.31.89.21,3.57.17,9.25-4.61,11.23-9.46,22.93-27.36,23.7-31.22-4.57-2.1-31.64-5.55-44.88-5.65h-.17c-10.78,0-27.82,7.48-32.59,9.68Z"/></g><g id="グループ_354" data-name="グループ 354"><path id="パス_1130" data-name="パス 1130" class="cls-5" d="M168.93,242.55c10.58,5.62,16.42,25,9,48.78-1.25,4-3.55,2.95-6.29,13.71-1.41,5.56,1.64,14.52,4,24.1,2.19,9,9.94,23.6,10,23.79a19.06,19.06,0,0,1-1.87,19.62c-4,5.83-34.38,5.75-59.61,6.08s-53.78-6.08-53.78-6.08S59.48,370,56.93,356.19s3.74-14.38,8.31-28.48c3-9.28,4.52-18,1.4-28.74-1.61-5.59.11,1.19-3.41-7.68-4.92-12.37-7.19-45.65,8.24-50.52"/><path id="パス_1131" data-name="パス 1131" class="cls-2" d="M122.29,380.4A280.44,280.44,0,0,1,70,374.27c-.5-.11-12.07-2.95-14.8-17.75a22.47,22.47,0,0,1,3.33-18.34,54.38,54.38,0,0,0,5-11c3-9.21,4.37-17.45,1.39-27.72-.1-.36-.37-1.3-.54-1.81a17.77,17.77,0,0,1-2.82-5.7c-4-10-6-31.55-.16-43.8a16,16,0,0,1,9.51-9.05A1.76,1.76,0,0,1,72,242.45a12.61,12.61,0,0,0-7.38,7.21c-5.33,11.22-3.41,31.77.25,41a37.23,37.23,0,0,0,1.89,4.29c.68.42.91,1.19,1.59,3.55,3.42,11.78,1.34,21.28-1.42,29.78a58.2,58.2,0,0,1-5.33,11.66c-2.77,4.87-4.44,7.81-2.94,15.95,2.31,12.55,12,14.93,12.12,15,.28.06,28.67,6.35,53.35,6l5.42-.07c20.93-.24,49.6-.58,52.76-5.24A17.24,17.24,0,0,0,184,353.61l-.09-.17c-2.39-4.62-8.16-16.2-10-23.89-.46-1.91-.95-3.78-1.43-5.62-2-7.76-3.77-14.45-2.53-19.33,1.82-7.19,3.56-9.48,4.82-11.16a7.76,7.76,0,0,0,1.47-2.65c7.34-23.61,1.28-41.68-8.16-46.69a1.76,1.76,0,0,1,1.65-3.12h0c5.87,3.12,10.19,9.78,12.15,18.75a63.68,63.68,0,0,1-2.27,32.11,10.92,10.92,0,0,1-2,3.72c-1.14,1.52-2.57,3.41-4.22,9.91-1,4,.7,10.59,2.51,17.57.49,1.85,1,3.75,1.45,5.67,1.77,7.32,7.39,18.6,9.72,23.1.13.25.19.39.21.41a20.73,20.73,0,0,1-2,21.31c-3.91,5.75-24.57,6.42-55.64,6.78l-5.41.07Z"/></g><g id="グループ_355" data-name="グループ 355"><path id="パス_1132" data-name="パス 1132" class="cls-5" d="M122.73,242.54S155,208.83,154,205.74s-6.17-6.62-18.29-6.4l-4.36-4a71.93,71.93,0,0,1,8-3.06c6.58-2.28,22.45-6.64,26.69-4.65a15.08,15.08,0,0,1,8,10.79c.66,4.2,3.09,4,4.41,6.62s2.64,7.21,0,9.77-11.9,5.43-16.75,9.18S136.18,243,122.73,242.54Z"/><path id="パス_1133" data-name="パス 1133" class="cls-2" d="M123.3,244.31h-.63a1.76,1.76,0,0,1-1.71-1.81,1.82,1.82,0,0,1,.49-1.17c14.29-14.93,29.45-31.95,30.77-35.35-1-2-5.34-5.08-16.46-4.86a1.77,1.77,0,0,1-1.22-.46l-4.35-4a1.77,1.77,0,0,1-.12-2.49,1.6,1.6,0,0,1,.46-.36,69.79,69.79,0,0,1,8.29-3.18c.2-.07,21.89-7.44,28-4.58a16.92,16.92,0,0,1,9,12.11,4.6,4.6,0,0,0,1.94,3.34,8.62,8.62,0,0,1,2.3,2.76c.91,1.82,3.57,8-.35,11.83a31.28,31.28,0,0,1-7.75,4.35,52.41,52.41,0,0,0-9.14,5C158.69,228.61,137.64,244.31,123.3,244.31Zm13.53-46.74c15.23,0,18.29,5.81,18.88,7.63.43,1.35.93,2.89-15.65,21.27-4.84,5.38-9.77,10.65-12.87,13.93,13.36-2.47,31.26-16.06,33.47-17.77a54,54,0,0,1,9.82-5.36,32.27,32.27,0,0,0,6.78-3.69c1.75-1.69.91-5.21-.34-7.72a5.39,5.39,0,0,0-1.47-1.68,8,8,0,0,1-3.11-5.44,13.44,13.44,0,0,0-7-9.47C162.26,187.82,148.49,191,140,194c-2.46.85-4.19,1.49-5.36,1.95l1.8,1.64Z"/></g><g id="グループ_356" data-name="グループ 356"><path id="パス_1134" data-name="パス 1134" class="cls-5" d="M79.36,179.62c-16.36,5-16.57,10.47-18.77,14S53.31,206.41,54,211.47s2.65,9.47,5.73,10.57,6.4,0,13.23,3.09,48.78,17.4,48.78,17.4-47.24-32.61-47.24-34.81.88-5.29,2.86-5.95a10.55,10.55,0,0,0,7.28-5.51,19.22,19.22,0,0,1,9.58-8.36c2.1-.45-6.38-8.28-6.38-8.28Z"/><path id="パス_1135" data-name="パス 1135" class="cls-2" d="M121.71,244.3a1.88,1.88,0,0,1-.57-.09c-1.71-.59-42.11-14.39-48.94-17.47a24.94,24.94,0,0,0-9-2.31,16.49,16.49,0,0,1-4.06-.73c-3.49-1.25-6.07-5.74-6.88-12-.84-6.46,6.08-17.75,6.86-19a15.65,15.65,0,0,0,.85-1.6c1.83-3.68,4.33-8.72,18.91-13.14a1.7,1.7,0,0,1,.51-.08h8.45a1.79,1.79,0,0,1,1.2.47c7.88,7.27,7.42,9,7.2,9.77a2.13,2.13,0,0,1-1.65,1.52,18.21,18.21,0,0,0-8.33,7.31,11.87,11.87,0,0,1-8.1,6.43l-.24.08c-.8.27-1.53,2-1.64,3.81,3.11,3.43,29.85,22.37,46.46,33.84a1.77,1.77,0,0,1-1,3.22ZM79.62,181.39c-12.89,4-14.9,8-16.52,11.26a20.45,20.45,0,0,1-1,1.91c-2.44,3.91-6.92,12.42-6.36,16.68.63,4.79,2.42,8.38,4.58,9.15a13.4,13.4,0,0,0,3.2.54,28.76,28.76,0,0,1,10.15,2.6c4.38,2,23.73,8.75,36.67,13.23-3.94-2.77-8.61-6-13.25-9.36C72.71,210,72.71,209,72.71,207.72c0-3,1.27-6.69,4.07-7.62L77,200a8.64,8.64,0,0,0,6-4.43,21.21,21.21,0,0,1,9.22-8.81,52.77,52.77,0,0,0-5.08-5.39Z"/></g><g id="グループ_357" data-name="グループ 357"><path id="パス_1136" data-name="パス 1136" class="cls-9" d="M135.07,204.85s-4,2.31-13.1,2.31-11.75-2.31-11.75-2.31v-13h24.85Z"/></g><g id="グループ_360" data-name="グループ 360"><path id="パス_1140" data-name="パス 1140" class="cls-2" d="M112.3,216.64a1.07,1.07,0,0,1-.55-.14l-9.35-5a1.17,1.17,0,0,1,1.11-2.07h0l9.35,5a1.17,1.17,0,0,1-.56,2.21Z"/></g><g id="グループ_361" data-name="グループ 361"><path id="パス_1141" data-name="パス 1141" class="cls-2" d="M131.39,216.64a1.17,1.17,0,0,1-1.18-1.17,1.2,1.2,0,0,1,.62-1l9.35-5a1.18,1.18,0,0,1,1.11,2.08h0l-9.35,5A1.07,1.07,0,0,1,131.39,216.64Z"/></g><g id="グループ_362" data-name="グループ 362"><path id="パス_1142" data-name="パス 1142" class="cls-2" d="M127,266.11a15.6,15.6,0,0,1-4.88-.9c-3.82-1.29-8.14-4-7.76-7.44a70.77,70.77,0,0,1,2.1-9.31c1.94-6.85,2.74-7.35,3.27-7.69a2,2,0,0,1,1.21-.3l5.27.11a1.77,1.77,0,0,1,1.6,1.12c1.62,4.12,6.69,17.86,4.13,22.13A5.38,5.38,0,0,1,127,266.11ZM121.66,244a77.15,77.15,0,0,0-3.78,14.15c-.06.55,1.7,2.46,5.38,3.7,3.14,1.05,5.32.77,5.69.16,1.06-1.78-1.15-10.47-4-17.94Z"/></g><g id="グループ_363" data-name="グループ 363"><path id="パス_1143" data-name="パス 1143" class="cls-2" d="M122.73,247c1.66-.33,3.11,1.49,3.2,4.59s.42,5.7-2.73,4.92a3.54,3.54,0,0,1-2.52-4.32c0-.13.08-.25.12-.38C121,250.73,121.11,247.3,122.73,247Z"/></g><g id="グループ_364" data-name="グループ 364"><path id="パス_1144" data-name="パス 1144" class="cls-2" d="M117,380.31a1.76,1.76,0,0,1-1.76-1.68c-.35-7.05.34-37.13.8-57,.14-6.28.26-11.48.31-14.52.21-12.44,1.52-44.65,1.54-45a1.76,1.76,0,0,1,3.52.14c0,.33-1.31,32.51-1.53,44.9-.05,3-.17,8.26-.32,14.54-.45,19.85-1.14,49.85-.8,56.78a1.76,1.76,0,0,1-1.67,1.85H117Z"/></g><g id="グループ_365" data-name="グループ 365"><path id="パス_1145" data-name="パス 1145" class="cls-2" d="M126,380.31a1.76,1.76,0,0,1-1.76-1.75c0-6,.07-19.63.21-35.37.28-31.06.65-73.59-.19-78.62a1.77,1.77,0,1,1,3.46-.7.5.5,0,0,1,0,.12c.89,5.33.53,46.31.23,79.23-.14,15.73-.26,29.31-.21,35.31a1.76,1.76,0,0,1-1.74,1.78h0Z"/></g><g id="グループ_368" data-name="グループ 368"><path id="パス_1149" data-name="パス 1149" class="cls-2" d="M109.29,204.74a1.76,1.76,0,0,1-1.77-1.76h0V191.55a1.77,1.77,0,1,1,3.53-.12V203A1.76,1.76,0,0,1,109.29,204.74Z"/></g><g id="グループ_369" data-name="グループ 369"><path id="パス_1150" data-name="パス 1150" class="cls-2" d="M135.08,206.18a1.77,1.77,0,0,1-1.77-1.77h0V191.88a1.77,1.77,0,0,1,3.53,0v12.53a1.77,1.77,0,0,1-1.76,1.77Z"/></g><g id="グループ_372" data-name="グループ 372"><path id="パス_1152" data-name="パス 1152" class="cls-8" d="M177.11,348.14a4,4,0,0,1-1.68,2.16c-4.19,2.21-10.25-1.42-16.2.34a43.59,43.59,0,0,1-20.93,0c-6.29-1.66-2.54-8.16,11.79-11.46s13-11.49,19.5-9.81a8.78,8.78,0,0,1,3.95,2.22A54.87,54.87,0,0,0,176.62,347Z"/></g><g id="グループ_373" data-name="グループ 373"><path id="パス_1153" data-name="パス 1153" class="cls-8" d="M154.86,304.91c-7.81,1.41-18.51-8.43-17.19-14.38s29.25-5.46,31.07,1S158.5,304.25,154.86,304.91Z"/></g><g id="グループ_374" data-name="グループ 374"><path id="パス_1154" data-name="パス 1154" class="cls-8" d="M87,304.91c7.8,1.41,18.51-8.43,17.19-14.38s-29.25-5.46-31.07,1S83.38,304.25,87,304.91Z"/></g></g><g id="グループ_342" data-name="グループ 342"><path id="パス_1111" data-name="パス 1111" class="cls-2" d="M173.29,197.82a1.76,1.76,0,0,1-1.53-.89c-5.32-9.44,1.23-26.66,1.51-27.39a1.76,1.76,0,0,1,3.29,1.27c-.06.16-6.23,16.4-1.73,24.39a1.76,1.76,0,0,1-.67,2.4,1.74,1.74,0,0,1-.87.23Z"/></g><g id="グループ_358" data-name="グループ 358"><path id="パス_1137" data-name="パス 1137" class="cls-6" d="M179.37,134.36s6.12,25.86-6,39.62c-12,13.54-30.58,18.56-50,18.12-19.39.44-38-4.57-50-18.12-12.14-13.76-6-39.62-6-39.62s38.68-62.81,53.17-64.57,55-1.76,58.79,64.57"/><path id="パス_1138" data-name="パス 1138" class="cls-2" d="M121,193.89c-15.26,0-35.39-3.44-48.89-18.75C59.5,160.86,65.44,135,65.7,134a1.62,1.62,0,0,1,.21-.51c4-6.5,39.55-63.59,54.45-65.4,10.63-1.29,26-.58,38.84,10.15,13,10.91,20.41,29.72,21.91,55.92.55,2.42,5.8,27.17-6.44,41-14.21,16.12-35.76,19.06-51.33,18.72C122.58,193.88,121.79,193.89,121,193.89Zm2.36-3.55c14.91.33,35.36-2.44,48.68-17.53,11.41-12.92,5.68-37.8,5.62-38.05a1.57,1.57,0,0,1-.05-.3c-1.42-25.26-8.38-43.28-20.66-53.56-11.87-9.93-26.22-10.57-36.15-9.36-3.09.37-11.21,5.06-30.79,32.21C79.47,118.35,70.36,133,69.07,135c-.59,2.73-5.07,25.6,5.67,37.78,13.32,15.1,33.79,17.86,48.61,17.53Z"/></g><g id="グループ_366" data-name="グループ 366"><path id="パス_1146" data-name="パス 1146" class="cls-1" d="M183.11,78.82c17.63,46.29,4,71.63,4,71.63,0-3.53-10.13-18.51-15.64-28s-10.8-36.6-10.8-36.6c-11.24,32.19-45,44.53-45,44.53,9-17.86,3.89-39.9,3.89-39.9S89.09,100,66.13,154.87c0,0-13.16-34.62,5-64.37.31-.49.61-1,.93-1.46v0A68.44,68.44,0,0,1,88.24,71.49a65.22,65.22,0,0,1,31.27-13"/><path id="パス_1147" data-name="パス 1147" class="cls-2" d="M66.13,156.63h0a1.77,1.77,0,0,1-1.62-1.13c-.55-1.45-13.24-35.77,5.18-65.91.29-.48.58-.94.88-1.4a.75.75,0,0,1,.07-.12,70.51,70.51,0,0,1,16.55-18,66.51,66.51,0,0,1,32.21-13.4,1.75,1.75,0,0,1,1.89,1.59v0a1.76,1.76,0,0,1-1.62,1.88A64.34,64.34,0,0,0,89.29,72.88a66.86,66.86,0,0,0-15.64,17l-.09.15c-.31.47-.6.94-.9,1.42-13.74,22.49-9,48.19-6.25,58.35,22.74-51.1,51.33-60.57,52.57-61a1.75,1.75,0,0,1,2.2,1.15.65.65,0,0,1,0,.13c.2.86,4.42,19.65-2.17,36.86,9.16-4.4,31.38-17.23,39.91-41.67a1.75,1.75,0,0,1,1.8-1.18,1.76,1.76,0,0,1,1.6,1.42c0,.27,5.3,27,10.59,36.05,1.55,2.66,3.44,5.71,5.44,8.94,4,6.45,7,11.42,8.76,14.95,2.88-8.84,7.43-31.6-5.68-66a1.76,1.76,0,1,1,3.29-1.25h0c17.71,46.5,4.44,72,3.86,73.09a1.76,1.76,0,0,1-3.31-.84c0-2-6-11.68-9.92-18.07-2-3.25-3.91-6.32-5.48-9-4.07-7-7.93-22.85-9.81-31.43-12.95,28.52-42.56,39.64-43.88,40.12A1.78,1.78,0,0,1,114,131a1.84,1.84,0,0,1,.08-1.4c7-14,5.1-30.89,4.14-36.66-6.86,3.12-31.32,17-50.42,62.6A1.75,1.75,0,0,1,66.13,156.63Z"/></g><g id="グループ_370" data-name="グループ 370"><path id="パス_1151" data-name="パス 1151" class="cls-9" d="M123.71,157.74c-3.76,1.23-6.38.68-4.7-1.88s2.87-2.41,5.29-2.3,5.51,3,3.84,4.29S125.1,157.28,123.71,157.74Z"/></g><g id="グループ_371" data-name="グループ 371"><ellipse id="楕円形_27" data-name="楕円形 27" class="cls-2" cx="123.39" cy="158.19" rx="1.04" ry="1.15"/></g><g id="グループ_392" data-name="グループ 392"><path id="パス_1165" data-name="パス 1165" class="cls-10" d="M93,85.91c-1.86,7-8.13,11.38-14,9.8a10.4,10.4,0,0,1-7-6.67h0A68.66,68.66,0,0,1,88.24,71.49,12.84,12.84,0,0,1,93,85.91Z"/></g><g id="グループ_393" data-name="グループ 393"><ellipse id="楕円形_32" data-name="楕円形 32" class="cls-10" cx="94.78" cy="89.25" rx="5.45" ry="4.58" transform="translate(-15.89 157.81) rotate(-75.06)"/></g><g id="グループ_394" data-name="グループ 394"><path id="パス_1166" data-name="パス 1166" class="cls-10" d="M203.32,103.55a4.47,4.47,0,0,1-2.12.53,6,6,0,0,1,0-11.8,4.2,4.2,0,0,1,1.27.19A91.21,91.21,0,0,1,203.32,103.55Z"/></g><g id="グループ_395" data-name="グループ 395"><ellipse id="楕円形_33" data-name="楕円形 33" class="cls-10" cx="190.92" cy="98.57" rx="3.14" ry="2.57" transform="translate(-23.61 86.58) rotate(-24.11)"/></g><g id="グループ_396" data-name="グループ 396"><path id="パス_1167" data-name="パス 1167" class="cls-2" d="M64.44,188.73A1.76,1.76,0,0,1,62.67,187a1.79,1.79,0,0,1,.26-.93c5.6-9.12,2.15-26.18,2.12-26.35A1.76,1.76,0,1,1,68.5,159c.16.75,3.78,18.59-2.56,28.91A1.77,1.77,0,0,1,64.44,188.73Z"/></g><g id="グループ_397" data-name="グループ 397"><path id="パス_1168" data-name="パス 1168" class="cls-2" d="M115.62,132.16a1.77,1.77,0,0,1-1.08-3.15c25-19.52,24-43.11,24-43.35a1.76,1.76,0,0,1,3.52-.21c.06,1,1.27,25.63-25.31,46.35A1.76,1.76,0,0,1,115.62,132.16Z"/></g><g id="グループ_401" data-name="グループ 401"><ellipse id="楕円形_34" data-name="楕円形 34" class="cls-9" cx="83.61" cy="170.78" rx="7.97" ry="3.8"/></g><g id="グループ_402" data-name="グループ 402"><ellipse id="楕円形_35" data-name="楕円形 35" class="cls-9" cx="164.25" cy="170.78" rx="7.97" ry="3.8"/></g><path class="cls-11" d="M133.39,175.34s-2.31-1.83-4.69-1.15c-1.36.4-3.41,1.64-4.91,1.64-1.81,0-4.16-1.68-5.71-2.19-2-.64-4.68.78-4.68.78"/><path class="cls-3" d="M85.5,123.92s4.88.64,13.16,1.6a25.3,25.3,0,0,0,14.55-2.76s-6.54,6.52-14.91,5.33S85.5,123.92,85.5,123.92Z"/><path class="cls-12" d="M106,143.33c-8.48-8.49-23.49-9.93-32-9.94"/><path class="cls-3" d="M90.71,133.69s-2.82-3.22-3-5.43a.3.3,0,0,0-.48-.23c-.92.65-2.79,2.27-2.32,4.45Z"/><path class="cls-3" d="M78.09,133.81s-3.5-2.47-4.21-4.57a.3.3,0,0,0-.52-.11c-.74.84-2.19,2.86-1.22,4.86Z"/><path class="cls-3" d="M159.06,123.92s-4.88.64-13.16,1.6a25.3,25.3,0,0,1-14.55-2.76s6.54,6.52,14.91,5.33S159.06,123.92,159.06,123.92Z"/><path class="cls-12" d="M138.57,143.33c8.48-8.49,23.49-9.93,32-9.94"/><path class="cls-3" d="M153.85,133.69s2.82-3.22,3-5.43a.3.3,0,0,1,.48-.23c.92.65,2.79,2.27,2.32,4.45Z"/><path class="cls-3" d="M166.47,133.81s3.5-2.47,4.21-4.57a.3.3,0,0,1,.52-.11c.74.84,2.19,2.86,1.22,4.86Z"/><path class="cls-13" d="M65.46,45.52S32.56-10.32,9.2,3.78C-9.51,23.51,65.46,45.52,65.46,45.52Z"/><path class="cls-13" d="M50.85,56.7S14.41,28.53,2.21,43.92C-5.42,61.79,50.85,56.7,50.85,56.7Z"/></g></g></g></svg>