<svg xmlns="http://www.w3.org/2000/svg" viewBox="0 0 97.81 81"><defs><style>.cls-1,.cls-2{fill:#fff;stroke:#2e2e2e;stroke-linejoin:round;}.cls-1{stroke-width:3px;}.cls-2{stroke-linecap:round;stroke-width:2px;}.cls-3{fill:#2e2e2e;}</style></defs><title>logomark</title><g id="レイヤー_2" data-name="レイヤー 2"><g id="レイヤー_1-2" data-name="レイヤー 1"><path class="cls-1" d="M96.31,14.08S81.79,5.37,68.24,17C58.57,9.24,48.89,9.24,48.89,9.24H46s-9.68,0-19.36,7.74A29.58,29.58,0,0,0,2.44,1.5S2.44,22.79,16,25.69c-20.33,24.2-20.33,42.2,6.77,48,1.94,5.81,3.87,5.81,3.87,5.81a6.88,6.88,0,0,0,5.81-3.87h30a6.86,6.86,0,0,0,5.8,3.87s1.94,0,3.88-5.81c27.09-5.8,27.09-23.8,6.77-48C94.37,23.76,96.31,14.08,96.31,14.08Z"/><path class="cls-2" d="M65.31,39.27s-.52-9.77-17.42-9.67H46c-16.16-.1-17.42,9.67-17.42,9.67C27.79,49.5,65.79,49.5,65.31,39.27Z"/><rect class="cls-3" x="37.47" y="37.15" width="4.65" height="2.32" rx="1.16" transform="translate(-4.84 70.84) rotate(-80)"/><rect class="cls-3" x="52.89" y="35.98" width="2.32" height="4.65" rx="1.16" transform="translate(-5.83 9.97) rotate(-10)"/></g></g></svg>