<svg xmlns="http://www.w3.org/2000/svg" viewBox="0 0 116.75 110.1"><defs><style>.cls-1,.cls-2{fill:#fff;stroke:#2e2e2e;stroke-linejoin:round;}.cls-1{stroke-width:3px;}.cls-2{stroke-linecap:round;stroke-width:2px;}.cls-3{fill:#2e2e2e;}.cls-4{font-size:21px;fill:#52b2a2;}.cls-10,.cls-4,.cls-9{font-family:TakeStd-Medium-83pv-RKSJ-H, A-OTF Take Std;}.cls-5{letter-spacing:-0.1em;}.cls-6{letter-spacing:-0.13em;}.cls-7{letter-spacing:-0.05em;}.cls-8{letter-spacing:-0.04em;}.cls-10,.cls-9{font-size:14px;fill:#d56d76;}.cls-10{letter-spacing:-0.03em;}</style></defs><title>logo</title><g id="レイヤー_2" data-name="レイヤー 2"><g id="レイヤー_1-2" data-name="レイヤー 1"><path class="cls-1" d="M103.12,14.08S88.6,5.37,75.05,17C65.38,9.24,55.7,9.24,55.7,9.24H52.8s-9.68,0-19.36,7.74A29.58,29.58,0,0,0,9.25,1.5s0,21.29,13.55,24.19c-20.33,24.2-20.33,42.2,6.77,48,1.93,5.81,3.87,5.81,3.87,5.81a6.88,6.88,0,0,0,5.81-3.87h30a6.86,6.86,0,0,0,5.8,3.87s1.94,0,3.87-5.81c27.1-5.8,27.1-23.8,6.78-48C101.18,23.76,103.12,14.08,103.12,14.08Z"/><path class="cls-2" d="M72.12,39.27S71.6,29.5,54.7,29.6H52.76c-16.16-.1-17.42,9.67-17.42,9.67C34.6,49.5,72.6,49.5,72.12,39.27Z"/><rect class="cls-3" x="44.28" y="37.15" width="4.65" height="2.32" rx="1.16" transform="translate(0.78 77.55) rotate(-80)"/><rect class="cls-3" x="59.7" y="35.98" width="2.32" height="4.65" rx="1.16" transform="translate(-5.73 11.15) rotate(-10)"/><text class="cls-4" transform="translate(0 106.16)">生<tspan class="cls-5" x="21" y="0">活</tspan><tspan class="cls-6" x="39.96" y="0">リ</tspan><tspan class="cls-7" x="58.17" y="0">ズ</tspan><tspan class="cls-8" x="78.08" y="0">ム</tspan></text><text class="cls-9" transform="translate(102.75 106.53)">ん</text><text class="cls-10" transform="translate(95.5 100.07)">さ</text></g></g></svg>