<svg xmlns="http://www.w3.org/2000/svg" xmlns:xlink="http://www.w3.org/1999/xlink" width="105" height="94" viewBox="0 0 105 94"><defs><style>.a,.l{fill:#fff;}.a{stroke:#707070;}.b{clip-path:url(#a);}.c{fill:#111;}.d{fill:#14345b;}.e,.h{fill:#2c4e88;}.f{fill:#000931;}.g{fill:#fcecda;}.h{stroke:#000931;stroke-linecap:round;stroke-linejoin:round;stroke-width:1.511px;}.i{fill:#1c3b69;}.j{fill:#f6beb0;}.k{fill:#7b5f32;}.m{fill:#ffbdad;}.n{fill:#000333;}</style><clipPath id="a"><rect class="a" width="105" height="94" transform="translate(-7862 4063.336)"/></clipPath></defs><g class="b" transform="translate(7862 -4063.336)"><g transform="translate(-7857.16 4064.627)"><g transform="translate(0 72.877)"><g transform="translate(12.793 89.508)"><g transform="translate(8.069)"><path class="c" d="M517.554,435.954s3.933,32.926,4.775,41.992c.795,8.556,7.383,56.337,7.383,56.337H539.2l3.749-79.867.14,1.288V434.243Z" transform="translate(-517.554 -434.243)"/></g><g transform="translate(33.714)"><path class="c" d="M573.219,435.954s-3.933,32.926-4.775,41.992c-.795,8.556-7.383,56.337-7.383,56.337h-9.487l-3.749-79.867-.14,1.288V434.243Z" transform="translate(-547.686 -434.243)"/></g><g transform="translate(0 97.6)"><path class="d" d="M511.477,561.943h25.3a1.844,1.844,0,0,0,1.844-1.844v-9.34l-17.92-1.786q-.52-.051-1.043-.051h0a11.639,11.639,0,0,0-10.488,6.59l-.751,1.558A3.4,3.4,0,0,0,511.477,561.943Z" transform="translate(-508.074 -548.921)"/></g><g transform="translate(36.494 97.6)"><path class="d" d="M578.092,561.943H552.8a1.844,1.844,0,0,1-1.844-1.844v-9.34l17.92-1.786q.52-.051,1.043-.051h0a11.639,11.639,0,0,1,10.488,6.59l.751,1.558A3.4,3.4,0,0,1,578.092,561.943Z" transform="translate(-550.953 -548.921)"/></g></g><g transform="translate(0 0)"><g transform="translate(4.268 74.42)"><path class="e" d="M498.982,421.287s-.861,3.5,1.33,3.913,10.072,0,10.072,0l4.536-6.782-5.947-1.148Z" transform="translate(-498.169 -416.627)"/><path class="f" d="M503.82,425.916a24.331,24.331,0,0,1-3.742-.2,2.254,2.254,0,0,1-1.515-1.01,5.415,5.415,0,0,1-.319-3.688.645.645,0,0,1,.385-.443l9.991-4.016a.634.634,0,0,1,.362-.035l5.947,1.147a.643.643,0,0,1,.413.989l-4.536,6.782a.643.643,0,0,1-.5.285C510.092,425.742,506.74,425.916,503.82,425.916Zm-4.39-4.274a3.824,3.824,0,0,0,.216,2.375.961.961,0,0,0,.672.44c1.846.351,8.1.077,9.6.005l3.818-5.708-4.81-.928Z" transform="translate(-498.056 -416.515)"/></g><g transform="translate(9.839 77.539)"><path class="g" d="M505.394,425.914s-.775,12.361,5.407,12.753l-.422-8.695,3.781,3.5,2.54-12.532Z" transform="translate(-504.715 -420.293)"/><path class="f" d="M510.686,439.2h-.04c-6.747-.427-6.042-12.9-6.008-13.435a.643.643,0,0,1,.382-.548l11.307-4.978a.643.643,0,0,1,.888.717l-2.54,12.532a.642.642,0,0,1-1.066.345l-2.626-2.428.346,7.123a.642.642,0,0,1-.643.674Zm-4.781-12.969a28.4,28.4,0,0,0,.4,5.706c.63,3.4,1.874,5.364,3.7,5.861l-.384-7.9a.644.644,0,0,1,1.079-.5l2.941,2.72,2.066-10.2Z" transform="translate(-504.602 -420.18)"/></g><g transform="translate(13.077 9.42)"><path class="e" d="M566.3,340.646a20.832,20.832,0,0,1,2.246,1.509c.663.578,4.015,8.2,3.493,13.1s1.318,56.657,1.318,56.657.738,7.969-5.444,8.8-45.28-3.092-45.28-3.092-12.991-8.868-13.617-18,1.779-38.424,1.779-38.424l6.359-17.327,10.644-3.228Z" transform="translate(-508.481 -340.217)"/><path class="f" d="M565.185,421.186c-10.582,0-41.234-3.066-42.673-3.21a.437.437,0,0,1-.2-.072c-.538-.368-13.17-9.093-13.8-18.325-.621-9.057,1.756-38.194,1.78-38.488a.428.428,0,0,1,.026-.113l6.359-17.327a.428.428,0,0,1,.277-.262l10.644-3.228a.406.406,0,0,1,.124-.019h38.5a.433.433,0,0,1,.218.059,20.937,20.937,0,0,1,2.311,1.556c.855.745,4.164,8.511,3.637,13.468-.512,4.818,1.3,56.08,1.321,56.6a12.991,12.991,0,0,1-.419,4.221c-.82,2.921-2.686,4.658-5.4,5.025A22.331,22.331,0,0,1,565.185,421.186Zm-42.478-4.053c2.313.231,39.168,3.884,45.069,3.083,2.372-.321,3.946-1.8,4.679-4.386a12.317,12.317,0,0,0,.4-3.955c-.077-2.138-1.837-51.863-1.317-56.742a26.409,26.409,0,0,0-3.35-12.733A19.235,19.235,0,0,0,566.1,341H527.783l-10.377,3.148-6.266,17.072c-.12,1.471-2.377,29.5-1.775,38.3C509.944,407.953,521.572,416.335,522.708,417.134Z" transform="translate(-508.406 -340.142)"/></g><g transform="translate(75.872 15.693)"><path class="h" d="M582.189,347.512" transform="translate(-582.189 -347.512)"/></g><g transform="translate(64.05 31.943)"><path class="h" d="M568.3,366.605" transform="translate(-568.299 -366.605)"/></g><g transform="translate(0 13.796)"><path class="e" d="M521.928,360.538l-1.786,10.7v27.233S508.09,408.489,506.6,409.663s-9.156,1.33-10.8,1.017-2.007-5.253-2.007-5.253c.952-5.966,3.807-13.685,4.432-26.206s5.053-27.068,10.515-31.528l7.6-1.653,4.506,5.478" transform="translate(-493.154 -345.396)"/><path class="f" d="M498.281,411.352a17.383,17.383,0,0,1-2.71-.152c-1.975-.376-2.434-4.564-2.528-5.838a.623.623,0,0,1,.006-.149c.3-1.854.763-3.832,1.3-6.124a103.441,103.441,0,0,0,3.121-20.012c.757-15.15,6.061-28.165,10.75-31.995a.652.652,0,0,1,.271-.13l7.6-1.652a.637.637,0,0,1,.633.22L521.232,351a.643.643,0,0,1-.993.817l-4.256-5.175-7.061,1.536c-4.971,4.215-9.517,18.035-10.163,30.966a104.566,104.566,0,0,1-3.154,20.243c-.528,2.235-.985,4.169-1.274,5.957.166,2.087.807,4.467,1.48,4.595,1.764.336,9.1.039,10.28-.89,1.351-1.066,11.612-9.59,13.294-10.988V371.126a.639.639,0,0,1,.009-.106l1.786-10.7a.643.643,0,0,1,1.269.212l-1.778,10.648v27.18a.642.642,0,0,1-.232.494c-.493.409-12.074,10.036-13.551,11.2-.769.607-2.686,1.012-5.7,1.2C500.2,411.321,499.189,411.352,498.281,411.352Z" transform="translate(-493.042 -345.284)"/></g><g transform="translate(72.819 74.42)"><path class="e" d="M595.3,421.287s.86,3.5-1.33,3.913-10.072,0-10.072,0l-4.536-6.782,5.947-1.148Z" transform="translate(-578.715 -416.627)"/><path class="f" d="M590.231,425.916c-2.92,0-6.271-.174-6.484-.186a.643.643,0,0,1-.5-.285l-4.536-6.782a.642.642,0,0,1,.413-.989l5.947-1.147a.634.634,0,0,1,.362.035l9.991,4.016a.644.644,0,0,1,.384.443,5.409,5.409,0,0,1-.319,3.688,2.25,2.25,0,0,1-1.515,1.01A24.322,24.322,0,0,1,590.231,425.916Zm-6.1-1.455c1.494.072,7.751.346,9.6-.005a.962.962,0,0,0,.673-.442,3.88,3.88,0,0,0,.215-2.373l-9.493-3.816-4.81.928Z" transform="translate(-578.602 -416.515)"/></g><g transform="translate(72.015 77.54)"><path class="g" d="M589.719,425.914s1.583,12.361-4.6,12.753l-.386-8.695-3.389,4.617-2.933-13.653Z" transform="translate(-577.769 -420.293)"/><path class="f" d="M585.007,439.2a.642.642,0,0,1-.643-.614l-.3-6.87-2.309,3.145a.643.643,0,0,1-1.147-.245l-2.932-13.653a.643.643,0,0,1,.888-.724l11.306,4.978a.643.643,0,0,1,.379.507c.043.334,1.018,8.246-1.9,11.778a4.5,4.5,0,0,1-3.3,1.7Zm-.385-9.98a.641.641,0,0,1,.642.615l.355,7.981a3.228,3.228,0,0,0,1.735-1.132c2.243-2.715,1.8-8.891,1.653-10.44l-9.813-4.32,2.368,11.023,2.542-3.464A.644.644,0,0,1,584.621,429.217Z" transform="translate(-577.657 -420.181)"/></g><g transform="translate(64.856 10.642)"><path class="e" d="M570.209,359.986l1.786,10.7V397.92s12.052,10.017,13.539,11.191,9.156,1.33,10.8,1.017,2.811-5.213,2.811-5.213c-.871-6.7-4.611-13.725-5.237-26.246s-5.052-27.068-10.514-31.528l-7.6-4.808L570,345.091" transform="translate(-569.358 -341.69)"/><path class="f" d="M593.63,410.8c-.908,0-1.923-.031-2.909-.094-3.012-.191-4.929-.6-5.7-1.2-1.476-1.165-13.058-10.792-13.55-11.2a.642.642,0,0,1-.232-.494v-27.18l-1.778-10.648a.643.643,0,0,1,1.268-.212l1.787,10.7a.644.644,0,0,1,.008.106v26.931c1.683,1.4,11.944,9.923,13.294,10.988,1.176.929,8.518,1.227,10.281.89.723-.138,1.751-2.476,2.278-4.616a56.08,56.08,0,0,0-1.824-7.679,77.233,77.233,0,0,1-3.4-18.5c-.65-13.006-5.245-26.911-10.25-31.039l-7.264-4.6-5.473,2.606a.643.643,0,0,1-.553-1.162l5.794-2.758a.642.642,0,0,1,.62.037l7.6,4.807a.668.668,0,0,1,.064.045c4.689,3.83,9.993,16.845,10.75,31.995a75.164,75.164,0,0,0,3.355,18.212,55.891,55.891,0,0,1,1.878,7.982.627.627,0,0,1-.013.232c-.3,1.244-1.413,5.333-3.317,5.7A17.4,17.4,0,0,1,593.63,410.8Z" transform="translate(-569.245 -341.577)"/></g><g transform="translate(16.175 82.304)"><path class="e" d="M514.535,426.829c-1.852,1.489-3.574,6.653.574,8.218s4.148.47,12.13,1.8,21.755,1.1,28.329.7,16.982-.313,17.96-3.522-.1-5.282-1.917-5.223-25.669-1.978-25.669-1.978l-28.25-.546Z" transform="translate(-512.122 -425.854)"/><path class="f" d="M544.175,438.213a115.127,115.127,0,0,1-17.082-1.018,56.237,56.237,0,0,0-6.984-.78,14.24,14.24,0,0,1-5.227-1.041,4.064,4.064,0,0,1-2.772-3.276,6.664,6.664,0,0,1,2.082-5.678.425.425,0,0,1,.195-.089l3.157-.546a.515.515,0,0,1,.081-.007l28.251.547c.263.021,23.216,1.979,25.558,1.979h.088a2.357,2.357,0,0,1,2.02.952c.815,1.064.932,2.822.322,4.824-.922,3.025-8.524,3.368-15.232,3.67-1.093.049-2.144.1-3.112.155C552.542,438.082,548.472,438.213,544.175,438.213Zm-29.529-11.056a5.94,5.94,0,0,0-1.689,4.806,3.219,3.219,0,0,0,2.228,2.608,13.393,13.393,0,0,0,4.971.987,56.983,56.983,0,0,1,7.078.791c7.718,1.286,21.112,1.123,28.233.7.972-.058,2.028-.106,3.125-.155,5.784-.261,13.705-.618,14.45-3.064.521-1.708.454-3.223-.182-4.052a1.523,1.523,0,0,0-1.311-.618c-.027,0-.059,0-.1,0-2.4,0-24.663-1.9-25.623-1.98l-28.182-.544Z" transform="translate(-512.047 -425.779)"/></g><g transform="translate(14.903 47.362)"><path class="i" d="M520.588,395.236c0,5.808.506,11.031-2.253,11.031s-7.741-5.223-7.741-11.031c0-2.328-.229-6.191.38-7.933.91-2.6,2.964-2.581,4.617-2.581C518.351,384.722,520.588,389.429,520.588,395.236Z" transform="translate(-510.552 -384.722)"/></g><g transform="translate(67.076 48.5)"><path class="i" d="M581.848,396.58c0,5.808-2.237,10.515-5,10.515s-5-4.707-5-10.515,2.237-10.515,5-10.515c1.894,0,4.149-.265,5,3C582.236,390.563,581.848,394.758,581.848,396.58Z" transform="translate(-571.854 -386.06)"/></g><g transform="translate(23.266 4.778)"><path class="g" d="M521.134,340.393s10.274-4.995,16.485-4.95,20.4,1.768,21.966,2.968-11.493,19.481-16.507,18.323S522.334,345.4,522.334,345.4Z" transform="translate(-520.491 -334.8)"/><path class="f" d="M543.427,357.314a2.674,2.674,0,0,1-.607-.066c-5.066-1.171-20.3-11-20.948-11.419a.647.647,0,0,1-.277-.39l-1.2-5.009a.643.643,0,0,1,.345-.728c.423-.206,10.387-5.015,16.681-5.015h.089c5.659.041,20.467,1.654,22.352,3.1.715.548.3,1.716-.209,2.786C557.562,345.01,548.423,357.314,543.427,357.314Zm-20.641-12.427c1.9,1.221,15.789,10.059,20.323,11.107.647.151,2.209-.044,5.432-3.011,5.132-4.725,10.34-12.7,10.419-14.251-1.849-1-15.044-2.712-21.459-2.758h-.081c-5.258,0-13.6,3.715-15.652,4.667Z" transform="translate(-520.378 -334.687)"/></g><g transform="translate(14.573 26.595)"><path class="e" d="M570.8,361.077c.779,9.912.523,15.638-.947,21.127l-.952,18.823c2.159,6.672,5.147,6.94,3.934,13.484s-6.371,7.741-6.371,7.741a85.028,85.028,0,0,1-22.305,2.877h-4.169a85.028,85.028,0,0,1-22.305-2.877s-5.164-1.192-6.371-7.741.592-6.139,2.752-12.81l-.054-17.5c-.742-5.061-3.276-14.687-2.123-23.122" transform="translate(-510.277 -360.434)"/><path class="f" d="M538.984,425.666a86.757,86.757,0,0,1-21.6-2.909c-.191-.043-5.554-1.356-6.824-8.242-.862-4.655-.226-6.026.927-8.514a37.252,37.252,0,0,0,1.814-4.514l-.053-17.352c-.157-1.059-.388-2.3-.656-3.741-1.005-5.393-2.381-12.779-1.461-19.516a.643.643,0,0,1,1.274.174c-.892,6.531.462,13.8,1.452,19.106.274,1.472.511,2.743.672,3.836a.653.653,0,0,1,.007.091l.053,17.5a.638.638,0,0,1-.032.2,38.476,38.476,0,0,1-1.9,4.757c-1.11,2.394-1.616,3.487-.829,7.74,1.118,6.065,5.837,7.221,5.884,7.231a85.191,85.191,0,0,0,22.152,2.861h4.178a85.244,85.244,0,0,0,22.124-2.851c.229-.055,4.809-1.212,5.92-7.241.728-3.924-.123-5.42-1.409-7.684a27.286,27.286,0,0,1-2.5-5.484.66.66,0,0,1-.031-.231l.952-18.823a.588.588,0,0,1,.02-.134c1.449-5.411,1.7-11.079.927-20.911a.642.642,0,0,1,.591-.691.649.649,0,0,1,.692.591c.782,9.953.525,15.731-.949,21.278l-.942,18.636a25.888,25.888,0,0,0,2.363,5.134c1.375,2.42,2.368,4.169,1.555,8.553-1.269,6.885-6.632,8.2-6.86,8.25a86.748,86.748,0,0,1-22.458,2.894h-4.161C539.577,425.663,539.28,425.666,538.984,425.666Z" transform="translate(-510.164 -360.322)"/></g><g transform="translate(46.117)"><path class="e" d="M547.984,356.042s15.285-15.965,14.816-17.425-2.922-3.13-8.661-3.026l-2.06-1.878a33.722,33.722,0,0,1,3.795-1.448c3.113-1.077,10.63-3.143,12.639-2.2a7.167,7.167,0,0,1,3.782,5.113c.313,1.982,1.461,1.878,2.087,3.13s1.252,3.414,0,4.628-5.634,2.571-7.93,4.345S554.348,356.251,547.984,356.042Z" transform="translate(-547.341 -329.185)"/><path class="f" d="M548.141,356.578c-.1,0-.195,0-.291,0a.643.643,0,0,1-.443-1.088c6.924-7.231,14.21-15.434,14.636-16.874-.414-1.013-2.512-2.6-8-2.489a.675.675,0,0,1-.445-.168l-2.06-1.878a.643.643,0,0,1,.126-1.04,33.058,33.058,0,0,1,3.893-1.491c.1-.036,10.34-3.479,13.12-2.179a7.827,7.827,0,0,1,4.145,5.6,2.368,2.368,0,0,0,.98,1.691,3.885,3.885,0,0,1,1.048,1.252c.855,1.711,1.271,4.021-.127,5.377a14.915,14.915,0,0,1-3.621,2.025,24.684,24.684,0,0,0-4.363,2.368C564.789,349.177,554.867,356.578,548.141,356.578Zm6.409-21.746c7.074,0,8.484,2.649,8.75,3.478.172.534.406,1.266-7.367,9.887-2.506,2.781-5.062,5.5-6.478,7,6.427-.889,15.411-7.7,16.491-8.54a25.481,25.481,0,0,1,4.609-2.518,14.97,14.97,0,0,0,3.266-1.78c.9-.873.495-2.635-.128-3.878a2.693,2.693,0,0,0-.74-.856,3.615,3.615,0,0,1-1.406-2.461,6.566,6.566,0,0,0-3.42-4.631c-1.568-.733-8.181.853-12.156,2.229-1.382.478-2.275.814-2.836,1.037l1.136,1.036Zm7.507,3.72Z" transform="translate(-547.228 -329.073)"/></g><g transform="translate(16.919 2.229)"><path class="e" d="M519.293,348.19c4.212,1.683,23.1,8.244,23.1,8.244s-20.706-12.982-17.5-16.748,9.418-4.475,10.41-4.689-3.671-2.549-8.053-2.549-13.875,7.584-13.562,9.984A10.4,10.4,0,0,0,519.293,348.19Z" transform="translate(-513.033 -331.805)"/><path class="f" d="M542.28,356.963a.625.625,0,0,1-.211-.036c-.189-.066-18.95-6.585-23.127-8.253a10.979,10.979,0,0,1-5.98-6.146.632.632,0,0,1-.029-.126c-.1-.786.407-1.806,1.557-3.116,2.719-3.1,9-7.594,12.643-7.594,3.577,0,8.692,1.74,8.827,3a.756.756,0,0,1-.638.817c-.108.023-.272.052-.486.089-1.694.294-6.846,1.186-9.57,4.388a.84.84,0,0,0-.166.739c.568,3.689,12.84,12.113,17.521,15.046a.643.643,0,0,1-.341,1.188Zm-28.073-14.778a9.839,9.839,0,0,0,5.213,5.3h0c2.8,1.119,12.268,4.455,18.169,6.521-5.235-3.586-13.221-9.577-13.76-13.076a2.144,2.144,0,0,1,.458-1.769c2.649-3.115,7.193-4.232,9.5-4.672a17.225,17.225,0,0,0-6.649-1.506c-2.9,0-8.848,3.935-11.677,7.156C514.338,341.41,514.215,342.01,514.207,342.185Z" transform="translate(-512.921 -331.692)"/></g><g transform="translate(40.841 2.872)"><path class="j" d="M552.791,332.448v6.142s-1.889,1.1-6.206,1.1-5.556-1.1-5.556-1.1v-6.142h11.762" transform="translate(-541.029 -332.448)"/></g><g transform="translate(36.97 11.239)"><path class="f" d="M541.336,345.512a.426.426,0,0,1-.2-.051l-4.426-2.375a.429.429,0,1,1,.405-.756l4.427,2.376a.429.429,0,0,1-.2.806Z" transform="translate(-536.481 -342.279)"/></g><g transform="translate(50.427 11.239)"><path class="f" d="M552.721,345.512a.428.428,0,0,1-.2-.806l4.426-2.376a.429.429,0,0,1,.405.756l-4.427,2.375A.426.426,0,0,1,552.721,345.512Z" transform="translate(-552.292 -342.279)"/></g><g transform="translate(42.982 26.066)"><path class="f" d="M549.347,371.448a7.245,7.245,0,0,1-2.249-.408c-1.878-.633-3.7-1.9-3.545-3.317.14-1.258,1.563-7.342,2.458-7.909a.724.724,0,0,1,.458-.111l2.5.052a.644.644,0,0,1,.586.408c.539,1.372,3.165,8.314,1.968,10.311A2.382,2.382,0,0,1,549.347,371.448Zm-2.655-10.454a36.076,36.076,0,0,0-1.86,6.872c-.048.423.949,1.373,2.677,1.956,1.379.465,2.631.46,2.914-.009.617-1.029-.7-5.614-1.908-8.78Zm-.477-.037Zm0,0h0Zm0,0h0Zm0,0h0Zm0,0h0Zm0,0h0Zm0,0h0Z" transform="translate(-543.544 -359.7)"/></g><g transform="translate(45.776 28.938)"><path class="f" d="M547.812,363.094c.785-.16,1.473.7,1.512,2.172s.2,2.7-1.291,2.328a1.673,1.673,0,0,1-1.134-2.224C546.977,364.874,547.042,363.25,547.812,363.094Z" transform="translate(-546.827 -363.075)"/></g><g transform="translate(43.353 35.509)"><path class="f" d="M544.667,427.182a.644.644,0,0,1-.642-.612c-.165-3.333.162-17.566.378-26.984.069-2.975.125-5.442.15-6.881.1-5.887.72-21.138.726-21.292a.643.643,0,1,1,1.285.052c-.006.153-.621,15.39-.724,21.263-.026,1.44-.083,3.909-.151,6.888-.215,9.4-.541,23.6-.38,26.892a.643.643,0,0,1-.61.674Z" transform="translate(-543.98 -370.796)"/></g><g transform="translate(47.648 36.507)"><path class="f" d="M549.676,427.356a.643.643,0,0,1-.643-.638c-.026-2.854.032-9.286.1-16.735.131-14.715.311-34.867-.09-37.266a.643.643,0,1,1,1.269-.212c.42,2.51.247,21.905.107,37.489-.066,7.443-.123,13.87-.1,16.714a.643.643,0,0,1-.637.649Z" transform="translate(-549.027 -371.968)"/></g><g transform="translate(39.751 2.072)"><path class="f" d="M540.391,338.207a.643.643,0,0,1-.643-.643v-5.413a.643.643,0,0,1,1.286,0v5.413A.644.644,0,0,1,540.391,338.207Z" transform="translate(-539.748 -331.508)"/></g><g transform="translate(51.96 2.229)"><path class="f" d="M554.736,338.912a.643.643,0,0,1-.643-.643v-5.934a.643.643,0,1,1,1.287,0v5.934A.643.643,0,0,1,554.736,338.912Z" transform="translate(-554.093 -331.692)"/></g><g transform="translate(52.738 67.861)"><path class="i" d="M574.774,417.8a1.886,1.886,0,0,1-.8,1.024c-1.981,1.046-4.853-.673-7.668.162a20.6,20.6,0,0,1-9.912,0c-2.977-.785-1.2-3.862,5.582-5.426s6.149-5.443,9.232-4.647a4.194,4.194,0,0,1,1.87,1.052,25.759,25.759,0,0,0,1.458,7.3C574.619,417.44,574.7,417.618,574.774,417.8Z" transform="translate(-555.008 -408.808)"/></g><g transform="translate(32.274 7.024)"><path class="h" d="M530.963,337.327" transform="translate(-530.963 -337.327)"/></g></g></g><g transform="translate(9.827)"><g transform="translate(0.645 0.628)"><path class="k" d="M570.531,304.06l2.575-2.752a2.24,2.24,0,0,0,.686-2.612l-1.847-8.34a20.027,20.027,0,0,1,6.98.769c-1.969-6.255-5.025-12.1-8.064-17.915a27.051,27.051,0,0,1,6.8,4.613c.3-1.3-.477-2.574-1.217-3.679-3.763-5.621-7.564-11.286-12.4-16.013l8.23-1.489c-3.263-1.13-6.832-.588-10.284-.721a1.772,1.772,0,0,1-.883-.194,1.9,1.9,0,0,1-.64-.955,31.405,31.405,0,0,0-7.188-10.59c1.059,2.973-.064,6.971,0,10.127L551.8,253.7a99.971,99.971,0,0,0-17.052-6.9,21.458,21.458,0,0,1,6.028,7.514c-8.551-1.538-17.563-2.1-25.756.788a25.486,25.486,0,0,0,8.263,3.116,54.549,54.549,0,0,0-10.179,5.858,23.862,23.862,0,0,0-7.438,8.964,20.019,20.019,0,0,0,6.13-1.586,9.142,9.142,0,0,1-1.24,4.773c-2.582,5.624-4.723,11.549-5.208,17.718l3.828-2.778q.7,4.67,1.348,9.349c.6.026,1.677-.929,1.958-1.456Z" transform="translate(-505.346 -244.182)"/></g><path class="f" d="M570.874,304.4c.915-.978,1.854-1.94,2.746-2.939a3.028,3.028,0,0,0,.794-1.384,4.549,4.549,0,0,0-.161-1.875q-.9-4.066-1.8-8.131l-.62.814a19.959,19.959,0,0,1,6.809.746.648.648,0,0,0,.791-.792c-2-6.318-5.067-12.215-8.129-18.069l-.88.88a27,27,0,0,1,6.672,4.512.649.649,0,0,0,1.074-.284c.309-1.594-.477-2.973-1.334-4.255-.914-1.368-1.831-2.733-2.764-4.089-1.858-2.7-3.786-5.354-5.893-7.864-1.2-1.428-2.46-2.8-3.792-4.111l-.284,1.075,8.23-1.488c.67-.122.551-1.055,0-1.241-3.32-1.115-6.83-.626-10.26-.736-.323-.011-.656.02-.876-.25a3.825,3.825,0,0,1-.427-.923q-.48-1.127-1.047-2.215a31.379,31.379,0,0,0-2.542-4.079,32.828,32.828,0,0,0-3.559-4.091c-.439-.427-1.29,0-1.075.626,1.09,3.19-.068,6.686-.023,9.956l.814-.62c-2.632-1.079-5.135-2.452-7.754-3.576a102.263,102.263,0,0,0-10.779-3.932c-.58-.175-1.142.665-.626,1.075a21.324,21.324,0,0,1,5.929,7.385l.726-.945c-6.73-1.2-13.661-1.833-20.444-.67a35.225,35.225,0,0,0-5.655,1.457.652.652,0,0,0-.153,1.175A26.485,26.485,0,0,0,523,258.73l-.154-1.175c-5.664,2.653-11.35,5.786-15.258,10.81a21.145,21.145,0,0,0-2.59,4.242c-.179.394.02,1.02.555.968a21.586,21.586,0,0,0,6.454-1.673l-.968-.556c.2,1.98-.863,3.781-1.641,5.529-.8,1.8-1.552,3.622-2.214,5.478a45.152,45.152,0,0,0-2.593,11.485.647.647,0,0,0,.968.556l3.829-2.779-.945-.384q.7,4.67,1.347,9.349a.644.644,0,0,0,.62.471,3.493,3.493,0,0,0,2.512-1.774l-.555.318,5.786.5,13.892,1.2,16.743,1.442,14.475,1.246,4.8.414c.746.064,1.5.173,2.253.194.035,0,.069.006.1.009.825.071.82-1.215,0-1.286l-5.786-.5-13.892-1.2L534,300.17l-14.474-1.246-4.8-.414c-.746-.064-1.5-.173-2.253-.194-.034,0-.069-.006-.1-.009a.633.633,0,0,0-.556.318c-.24.414-.887,1.122-1.4,1.137l.62.472q-.647-4.679-1.347-9.349a.646.646,0,0,0-.945-.385l-3.828,2.779.967.555a44.32,44.32,0,0,1,2.682-11.515c.681-1.871,1.451-3.707,2.274-5.519.784-1.723,1.689-3.5,1.493-5.456a.655.655,0,0,0-.968-.555,19.593,19.593,0,0,1-5.805,1.5l.556.968C509.4,266,516.583,261.9,523.494,258.665a.649.649,0,0,0-.154-1.175,25.44,25.44,0,0,1-8.11-3.052l-.153,1.175c6.336-2.213,13.13-2.368,19.743-1.628,1.9.213,3.79.5,5.672.841a.652.652,0,0,0,.726-.945,22.181,22.181,0,0,0-6.13-7.644l-.626,1.075a99.269,99.269,0,0,1,10.839,3.96c2.594,1.126,5.08,2.475,7.694,3.547a.647.647,0,0,0,.814-.62c-.047-3.4,1.113-6.974-.023-10.3l-1.075.626a31.085,31.085,0,0,1,5.9,7.91q.571,1.093,1.053,2.229c.285.672.555,1.363,1.294,1.641a6.987,6.987,0,0,0,2.39.17c.887,0,1.774-.028,2.661-.037a18.046,18.046,0,0,1,5.981.712v-1.241L563.76,257.4a.648.648,0,0,0-.284,1.075,69.535,69.535,0,0,1,7.648,9.1c1.15,1.6,2.261,3.222,3.361,4.855.534.793,1.084,1.58,1.6,2.389a3.893,3.893,0,0,1,.849,2.723l1.075-.284a28.139,28.139,0,0,0-6.932-4.713.649.649,0,0,0-.88.88c3.012,5.757,6.032,11.548,8,17.761l.791-.791a21.078,21.078,0,0,0-7.151-.792.655.655,0,0,0-.62.814l1.616,7.3a11.244,11.244,0,0,1,.346,1.725,1.726,1.726,0,0,1-.636,1.3c-.854.921-1.717,1.834-2.574,2.751C569.4,304.1,570.306,305.011,570.874,304.4Z" transform="translate(-504.588 -243.445)"/><g transform="translate(8.396 20.103)"><g transform="translate(0.634 0.656)"><path class="g" d="M543.217,268.217s-26.14-6.57-25.3,34.807c-4.054,4.054-4.334,12.58,4.473,12.3,6.15,11.182,33.805,8.994,40.514.746,10.613-.609,8.966-12.869,4.758-11.039C573.469,262.711,543.217,268.217,543.217,268.217Z" transform="translate(-515.198 -267.836)"/></g><path class="f" d="M541.417,323.525c-1.284,0-2.569-.055-3.843-.17-7.632-.689-13.172-3.346-15.664-7.5h-.049c-4.551,0-6.255-2.335-6.871-3.757-1.224-2.826-.29-6.839,2.167-9.449-.269-15.362,3.117-25.958,10.07-31.493a19.665,19.665,0,0,1,15.9-3.714c1.328-.214,11.181-1.515,18.4,5.4,6.363,6.091,8.642,16.6,6.78,31.247a2.417,2.417,0,0,1,1.775.7c1.372,1.289,1.75,4.069.879,6.466-1.123,3.09-3.978,5.021-7.854,5.324C559.5,320.733,550.519,323.525,541.417,323.525Zm-19.139-8.959a.644.644,0,0,1,.563.334c2.176,3.958,7.45,6.5,14.848,7.173,10.078.912,20.888-1.954,24.6-6.522a.639.639,0,0,1,.461-.237c4.766-.274,6.43-2.936,7-4.5.775-2.132.328-4.262-.551-5.089a1.18,1.18,0,0,0-1.4-.22.643.643,0,0,1-.893-.677c2.016-14.691-.094-25.139-6.274-31.055-7.124-6.818-17.316-5.057-17.418-5.039a.622.622,0,0,1-.272-.009c-.081-.02-8.165-1.952-14.937,3.453-6.652,5.308-9.87,15.643-9.564,30.716a.643.643,0,0,1-.188.468c-2.249,2.248-3.146,5.786-2.089,8.228.885,2.045,3,3.071,6.087,2.975Z" transform="translate(-514.453 -267.065)"/><g transform="translate(2.747 35.624)"><rect class="f" width="1.287" height="13.089" transform="matrix(0.94, -0.342, 0.342, 0.94, 0, 0.44)"/></g></g><g transform="translate(5.884 12.51)"><path class="k" d="M515.666,299.235a17.621,17.621,0,0,0,4.168-3.3l2.22,5.589,7.636-18.972,2.754,7.377c6.316-5.97,13.262-25.3,16.743-31.783,0,0-56.634,22.321-31.048,31.476Z" transform="translate(-511.502 -258.144)"/><g transform="translate(24.41)"><path class="k" d="M553.458,258.144c17.724,4.079,21.845,37.01,21.845,37.01q-.059,4.835-.028,9.669L569.666,290.1a38.1,38.1,0,0,1-.624,7.139c-2.42-6.424-4.909-12.97-9.233-18.3a59.247,59.247,0,0,0-8.053,9.47l-1.849-8.514-9.724,5.741" transform="translate(-540.183 -258.144)"/></g></g><g transform="translate(9.272 25.153)"><path class="f" d="M570.833,297.366q-.057,4.835-.028,9.669l1.263-.171-5.609-14.719a.646.646,0,0,0-1.263.171,38.177,38.177,0,0,1-.6,6.968h1.241c-2.454-6.512-4.985-13.112-9.4-18.585a.65.65,0,0,0-.909,0,60.89,60.89,0,0,0-8.153,9.6l1.175.153L546.7,281.94a.649.649,0,0,0-.945-.385l-9.724,5.741.88.88,7.468-12.457,1.055-1.758-1.111-.649a135.6,135.6,0,0,1-11.991,18.5l1.175.153-2.754-7.377a.65.65,0,0,0-1.24,0l-7.636,18.972h1.24l-2.22-5.589a.652.652,0,0,0-1.075-.284,17.577,17.577,0,0,1-4.038,3.2l.945.726A47.065,47.065,0,0,1,519.2,292c.29-.776-.953-1.112-1.24-.342a47.051,47.051,0,0,0-2.473,9.616.652.652,0,0,0,.945.726,18.785,18.785,0,0,0,4.3-3.4l-1.075-.283,2.22,5.588a.65.65,0,0,0,1.24,0l7.636-18.971h-1.24l2.754,7.377a.654.654,0,0,0,1.175.153,135.535,135.535,0,0,0,11.991-18.5.644.644,0,0,0-1.111-.649l-7.468,12.456-1.054,1.759a.648.648,0,0,0,.88.88l9.723-5.741-.945-.385,1.849,8.514a.651.651,0,0,0,1.175.153,59.365,59.365,0,0,1,7.952-9.339h-.909c4.264,5.287,6.7,11.73,9.067,18.017.2.53,1.117.687,1.241,0a40.1,40.1,0,0,0,.647-7.31l-1.263.171,5.609,14.719a.646.646,0,0,0,1.263-.171q-.029-4.835.028-9.669a.643.643,0,0,0-1.286,0Z" transform="translate(-515.482 -272.999)"/></g><g transform="translate(45.063 52.342)"><path class="f" d="M557.638,305.955a34.644,34.644,0,0,0,0,4.965c.231,1.125,2.078,4.07,4.07,4.07s4.359-2.309,4.417-4.518,0-5.528,0-5.528S559.11,305,557.638,305.955Z" transform="translate(-557.536 -304.945)"/></g><g transform="translate(48.544 55.586)"><ellipse class="l" cx="0.826" cy="1.415" rx="0.826" ry="1.415"/></g><g transform="translate(42.676 44.51)"><path class="f" d="M565.156,295.743l-10.425,3.642s.259-2.777,9.29-3.642" transform="translate(-554.731 -295.743)"/></g><g transform="translate(42.191 51.581)"><path class="f" d="M554.589,308.458a.429.429,0,0,1-.334-.7c3.158-3.929,9.633-3.952,14.92-3.533a.429.429,0,1,1-.067.855c-5.078-.4-11.279-.4-14.185,3.215A.426.426,0,0,1,554.589,308.458Z" transform="translate(-554.161 -304.051)"/></g><g transform="translate(21.329 52.342)"><path class="f" d="M538.161,305.955a34.635,34.635,0,0,1,0,4.965c-.231,1.125-2.078,4.07-4.07,4.07s-4.359-2.309-4.417-4.518,0-5.528,0-5.528S536.689,305,538.161,305.955Z" transform="translate(-529.649 -304.945)"/></g><g transform="translate(24.81 55.586)"><ellipse class="l" cx="0.826" cy="1.415" rx="0.826" ry="1.415"/></g><g transform="translate(21.906 44.51)"><path class="f" d="M530.327,295.743l10.425,3.642s-.259-2.777-9.29-3.642" transform="translate(-530.327 -295.743)"/></g><g transform="translate(17.406 51.581)"><path class="f" d="M540.021,308.458a.426.426,0,0,1-.334-.16c-2.906-3.615-9.106-3.616-14.185-3.215a.424.424,0,0,1-.461-.393.43.43,0,0,1,.394-.462c5.289-.418,11.763-.395,14.92,3.533a.428.428,0,0,1-.334.7Z" transform="translate(-525.04 -304.051)"/></g><g transform="translate(35.317 62.131)"><path class="m" d="M548.322,318.26c-1.611.53-2.735.294-2.015-.8s1.23-1.035,2.268-.989,2.364,1.272,1.648,1.839S548.919,318.063,548.322,318.26Z" transform="translate(-546.084 -316.447)"/></g><g transform="translate(36.97 63.646)"><ellipse class="n" cx="0.447" cy="0.492" rx="0.447" ry="0.492"/></g><g transform="translate(34.252 67.566)"><path class="f" d="M548.1,326.34a7.572,7.572,0,0,1-2.941-.484.561.561,0,0,1,.467-1.02,6.718,6.718,0,0,0,2.474.381c1.31,0,4.174-1.657,5.167-2.3a.561.561,0,1,1,.607.945C553.484,324.119,549.977,326.34,548.1,326.34Z" transform="translate(-544.834 -322.832)"/></g><g transform="translate(56.092 57.312)"><g transform="translate(0.643 0.643)"><line class="g" y1="11.04" x2="4.757"/></g><path class="f" d="M571.138,323.11a.644.644,0,0,1-.591-.9l4.758-11.039a.643.643,0,0,1,1.181.509l-4.757,11.039A.644.644,0,0,1,571.138,323.11Z" transform="translate(-570.495 -310.784)"/></g></g><circle class="f" cx="2.358" cy="2.358" r="2.358" transform="translate(32.993 53.841)"/><circle class="f" cx="2.358" cy="2.358" r="2.358" transform="translate(57.001 55.127)"/><ellipse class="g" cx="1.347" cy="2.358" rx="1.347" ry="2.358" transform="translate(34.218 54.698)"/><ellipse class="g" cx="1.347" cy="2.358" rx="1.347" ry="2.358" transform="translate(57.797 54.698)"/></g></g></svg>